<?xml version="1.0"?>
<svg xmlns="http://www.w3.org/2000/svg" version="1.2" baseProfile="tiny" width="800" height="223" viewBox="0 0 800 223" stroke-linecap="round" stroke-linejoin="round">
<g id="cd22" fill="none" stroke="black" stroke-width="0.05">
<path d="M 46.39 124.81 46.38 124.81 46.37 124.81 46.35 124.81 46.34 124.81 46.33 124.81 46.32 124.81 46.32 124.8 46.31 124.8 46.3 124.8 46.29 124.8 46.28 124.8 46.27 124.8 46.27 124.81 46.26 124.81 46.25 124.81 46.24 124.81 46.23 124.82 46.2 124.82 46.17 124.82 46.16 124.83 46.15 124.83 46.13 124.83 46.11 124.83 46.1 124.83 46.09 124.83 46.08 124.83 46.07 124.83 46.06 124.83 46.05 124.83 46.04 124.83 46.03 124.83 46.01 124.84 46 124.84 45.99 124.84 45.98 124.84 45.97 124.85 45.96 124.85 45.94 124.85 45.94 124.84 45.94 124.85 45.93 124.85 45.92 124.84 45.9 124.84 45.89 124.84 45.89 124.83 45.88 124.83 45.88 124.82 45.87 124.82 45.86 124.83 45.85 124.83 45.84 124.83 45.83 124.83 45.82 124.83 45.81 124.82 45.8 124.82 45.79 124.82 45.78 124.82 45.76 124.82 45.75 124.82 45.72 124.83 45.72 124.82 45.71 124.82 45.71 124.83 45.7 124.83 45.68 124.83 45.67 124.83 45.64 124.84 45.63 124.84 45.62 124.84 45.61 124.84 45.6 124.84 45.59 124.84 45.58 124.84 45.57 124.84 45.56 124.84 45.55 124.84 45.54 124.84 45.53 124.84 45.52 124.85 45.5 124.85 45.49 124.85 45.48 124.85 45.46 124.86 45.44 124.86 45.43 124.86 45.41 124.86 45.38 124.86 45.37 124.86 45.36 124.86 45.34 124.86 45.33 124.87 45.32 124.87 45.31 124.88 45.3 124.88 45.29 124.88 45.28 124.88 45.27 124.88 45.26 124.88 45.26 124.89 45.25 124.89 45.24 124.89 45.24 124.9 45.23 124.9 45.22 124.9 45.21 124.91 45.2 124.91 45.18 124.91 45.16 124.91 45.16 124.92 45.15 124.92 45.12 124.92 45.08 124.92 45.07 124.92 45.06 124.92 45.05 124.93 45.04 124.93 45.03 124.93 45.02 124.93 45.01 124.93 45 124.93 44.99 124.93 44.97 124.94 44.96 124.94 44.95 124.94 44.94 124.94 44.93 124.95 44.92 124.95 44.92 124.94 44.91 124.94 44.92 124.94 44.9 124.94 44.89 124.94 44.89 124.95 44.88 124.95 44.87 124.95 44.86 124.94 44.84 124.94 44.8 124.94 44.8 124.95 44.79 124.95 44.78 124.95 44.77 124.94 44.76 124.95 44.75 124.95 44.73 124.95 44.74 124.95 44.74 124.96 44.73 124.96 44.72 124.96 44.7 124.96 44.69 124.96 44.68 124.96 44.67 124.96 44.66 124.96 44.65 124.96 44.63 124.96 44.61 124.96 44.6 124.97 44.58 124.97 44.57 124.98 44.56 124.98 44.55 124.98 44.55 124.99 44.54 124.99 44.53 125 44.52 125 44.51 125 44.5 125 44.48 125 44.47 125 44.46 125 44.46 125.01 44.45 125.01 44.44 125.02 44.43 125.02 44.43 125.03 44.42 125.03 44.41 125.03 44.4 125.03 44.39 125.04 44.4 125.04 44.41 125.04 44.42 125.04 44.43 125.04 44.43 125.05 44.44 125.06 44.45 125.06 44.45 125.07 44.46 125.07 44.46 125.08 44.47 125.08 44.48 125.09 44.49 125.09 44.5 125.09 44.51 125.09 44.52 125.09 44.53 125.09 44.53 125.1 44.54 125.11 44.55 125.11 44.54 125.11 44.54 125.12 44.55 125.13 44.53 125.13 44.52 125.13 44.52 125.14 44.51 125.14 44.5 125.14 44.5 125.15 44.49 125.15 44.48 125.15 44.47 125.15 44.47 125.16 44.48 125.17 44.52 125.17 44.53 125.17 44.53 125.18 44.52 125.18 44.52 125.19 44.53 125.19 44.52 125.19 44.51 125.2 44.5 125.2 44.51 125.21 44.51 125.22 44.52 125.22 44.52 125.23 44.53 125.23 44.55 125.23 44.56 125.23 44.57 125.23 44.56 125.24 44.57 125.24 44.58 125.24 44.59 125.24 44.6 125.25 44.61 125.25 44.61 125.26 44.6 125.26 44.59 125.26 44.58 125.26 44.57 125.26 44.55 125.26 44.57 125.26 44.58 125.26 44.6 125.26 44.59 125.27 44.6 125.27 44.61 125.27 44.62 125.27 44.64 125.26 44.64 125.27 44.65 125.27 44.65 125.28 44.66 125.28 44.66 125.27 44.68 125.27 44.69 125.27 44.72 125.27 44.73 125.27 44.74 125.27 44.75 125.27 44.76 125.27 44.79 125.27 44.8 125.27 44.82 125.27 44.83 125.27 44.83 125.28 44.84 125.28 44.85 125.28 44.86 125.28 44.86 125.29 44.87 125.29 44.88 125.3 44.9 125.3 44.9 125.31 44.89 125.31 44.88 125.31 44.88 125.32 44.87 125.32 44.86 125.33 44.86 125.34 44.87 125.34 44.88 125.35 44.89 125.35 44.9 125.34 44.91 125.34 44.95 125.34 44.96 125.34 44.97 125.34 44.98 125.34 44.98 125.35 44.99 125.35 45 125.35 45 125.36 45.01 125.36 45.01 125.37 45.02 125.37 45.03 125.39 45.02 125.39 45.02 125.4 45.01 125.4 45.01 125.42 45.02 125.42 45.03 125.43 45.02 125.44 45.01 125.44 45.01 125.45 45.02 125.45 45.02 125.46 45.03 125.46 45.04 125.46 45.04 125.47 45.05 125.47 45.06 125.48"/>
<path d="M 45.15 126.43 45.14 126.43 45.15 126.42 45.16 126.42 45.16 126.43 45.15 126.43"/>
<path d="M 45.83 126.43 45.82 126.43 45.83 126.43 45.84 126.43 45.83 126.43"/>
<path d="M 45.82 126.43 45.8 126.43 45.82 126.43"/>
<path d="M 45.8 126.43 45.79 126.43 45.8 126.43"/>
<path d="M 45.79 126.44 45.78 126.44 45.78 126.43 45.79 126.43 45.79 126.44"/>
<path d="M 45.96 126.47 45.95 126.47 45.93 126.47 45.92 126.47 45.91 126.46 45.91 126.44 45.91 126.42 45.9 126.42 45.88 126.42 45.87 126.42 45.86 126.42 45.85 126.42 45.84 126.42 45.86 126.42 45.91 126.42 45.92 126.42 45.92 126.43 45.92 126.45 45.92 126.46 45.93 126.46 45.93 126.47 45.95 126.47 45.96 126.47 45.96 126.46 45.97 126.45 45.97 126.44 45.98 126.44 45.99 126.44 45.98 126.45 45.98 126.46 45.97 126.47 45.96 126.47"/>
<path d="M 45.35 126.47 45.34 126.47 45.35 126.47"/>
<path d="M 45.68 126.5 45.67 126.5 45.67 126.49 45.68 126.49 45.69 126.49 45.68 126.49 45.68 126.5"/>
<path d="M 45.71 126.5 45.69 126.5 45.69 126.49 45.7 126.49 45.69 126.49 45.71 126.49 45.72 126.49 45.73 126.48 45.72 126.46 45.72 126.45 45.73 126.45 45.74 126.45 45.74 126.44 45.75 126.44 45.76 126.44 45.78 126.44 45.77 126.44 45.76 126.44 45.75 126.44 45.75 126.45 45.74 126.45 45.73 126.45 45.73 126.47 45.73 126.48 45.74 126.48 45.75 126.48 45.74 126.49 45.73 126.49 45.71 126.49 45.71 126.5"/>
<path d="M 45.66 126.5 45.67 126.5 45.66 126.5"/>
<path d="M 45.65 126.51 45.65 126.5 45.66 126.5 45.66 126.51 45.65 126.51"/>
<path d="M 45.64 126.51 45.63 126.51 45.64 126.51 45.65 126.51 45.64 126.51"/>
<path d="M 45.42 127.63 45.41 127.63 45.4 127.63 45.41 127.63 45.41 127.62 45.43 127.62 45.44 127.63 45.43 127.63 45.42 127.63"/>
<path d="M 45.6 127.69 45.59 127.69 45.6 127.69 45.6 127.68 45.6 127.69"/>
</g>
</svg>