<?xml version="1.0"?>
<svg xmlns="http://www.w3.org/2000/svg" version="1.2" baseProfile="tiny" width="800" height="223" viewBox="0 0 800 223" stroke-linecap="round" stroke-linejoin="round">
<g id="cd22" fill="none" stroke="black" stroke-width="0.05">
<path d="M 25.95 130.02 25.94 130.02 25.94 130.01 25.95 130.01 25.96 130.01 25.95 130.02"/>
<path d="M 25.99 130.02 25.97 130.02 25.97 130.01 25.98 130.01 25.99 130.01 25.99 130.02"/>
<path d="M 25.82 130.03 25.81 130.03 25.82 130.03 25.83 130.02 25.84 130.02 25.86 130.02 25.87 130.02 25.86 130.02 25.84 130.03 25.82 130.03"/>
<path d="M 25.76 130.05 25.75 130.06 25.75 130.05 25.76 130.05"/>
<path d="M 25.88 130.06 25.87 130.06 25.87 130.05 25.88 130.05 25.88 130.06"/>
<path d="M 28.09 130.07 28.08 130.07 28.09 130.07"/>
<path d="M 25.85 130.07 25.84 130.06 25.85 130.06 25.87 130.06 25.86 130.06 25.85 130.06 25.85 130.07"/>
<path d="M 28.13 130.09 28.11 130.09 28.1 130.09 28.11 130.09 28.12 130.09 28.13 130.09 28.14 130.09 28.13 130.09"/>
<path d="M 25.78 130.1 25.78 130.09 25.79 130.09 25.78 130.1"/>
<path d="M 25.66 130.1 25.65 130.1 25.66 130.1 25.66 130.09 25.67 130.09 25.69 130.09 25.7 130.09 25.7 130.08 25.71 130.08 25.72 130.08 25.73 130.07 25.74 130.07 25.75 130.06 25.76 130.06 25.77 130.06 25.78 130.06 25.79 130.06 25.8 130.06 25.81 130.06 25.82 130.06 25.82 130.05 25.83 130.05 25.84 130.05 25.85 130.05 25.86 130.05 25.85 130.05 25.85 130.06 25.84 130.06 25.82 130.06 25.82 130.07 25.81 130.07 25.82 130.07 25.81 130.07 25.8 130.08 25.8 130.07 25.79 130.07 25.78 130.07 25.78 130.08 25.76 130.08 25.77 130.08 25.77 130.09 25.76 130.09 25.75 130.09 25.75 130.08 25.74 130.08 25.73 130.09 25.72 130.09 25.71 130.09 25.71 130.1 25.7 130.1 25.69 130.1 25.68 130.1 25.67 130.1 25.66 130.1"/>
<path d="M 29.17 130.11 29.16 130.11 29.16 130.1 29.17 130.1 29.18 130.1 29.17 130.1 29.17 130.11"/>
<path d="M 29.02 130.12 29.02 130.11 29.03 130.11 29.04 130.11 29.03 130.11 29.02 130.12"/>
<path d="M 29.27 130.13 29.26 130.12 29.27 130.12 29.27 130.13"/>
<path d="M 29.1 130.13 29.09 130.13 29.08 130.12 29.09 130.12 29.1 130.12 29.1 130.13"/>
<path d="M 28.96 130.13 28.95 130.13 28.95 130.12 28.94 130.12 28.93 130.12 28.92 130.12 28.9 130.13 28.91 130.12 28.9 130.12 28.89 130.12 28.86 130.12 28.86 130.11 28.84 130.11 28.83 130.11 28.82 130.11 28.81 130.11 28.81 130.1 28.82 130.09 28.81 130.09 28.8 130.09 28.8 130.08 28.8 130.07 28.82 130.07 28.82 130.08 28.83 130.08 28.84 130.07 28.85 130.07 28.86 130.07 28.87 130.07 28.88 130.07 28.89 130.07 28.9 130.07 28.91 130.07 28.93 130.07 28.96 130.07 28.97 130.07 28.98 130.07 29.01 130.07 29 130.07 28.99 130.07 29.02 130.07 29.03 130.08 29.04 130.08 29.06 130.08 29.07 130.08 29.08 130.08 29.09 130.08 29.09 130.09 29.1 130.09 29.11 130.09 29.1 130.1 29.09 130.1 29.08 130.1 29.07 130.1 29.06 130.1 29.05 130.1 29.04 130.1 29.04 130.11 29.01 130.1 29 130.1 28.99 130.1 28.98 130.1 28.98 130.11 28.96 130.11 28.96 130.12 28.96 130.13"/>
<path d="M 28.98 130.13 28.97 130.13 28.97 130.12 28.98 130.12 28.99 130.12 28.99 130.13 28.98 130.13"/>
<path d="M 25.66 130.14 25.65 130.14 25.64 130.14 25.64 130.13 25.65 130.13 25.66 130.13 25.67 130.13 25.67 130.14 25.66 130.14"/>
<path d="M 28.1 130.14 28.08 130.14 28.09 130.14 28.1 130.14"/>
<path d="M 28.39 130.14 28.37 130.14 28.36 130.14 28.37 130.14 28.38 130.14 28.39 130.14 28.4 130.13 28.41 130.13 28.42 130.13 28.43 130.13 28.44 130.13 28.45 130.13 28.44 130.13 28.43 130.14 28.42 130.14 28.41 130.14 28.4 130.14 28.39 130.14"/>
<path d="M 29.09 130.14 29.07 130.14 29.08 130.14 29.09 130.14"/>
<path d="M 25.18 130.15 25.17 130.15 25.16 130.15 25.17 130.15 25.18 130.15 25.19 130.15 25.19 130.14 25.19 130.15 25.18 130.15"/>
<path d="M 28.19 130.15 28.15 130.15 28.14 130.15 28.15 130.15 28.16 130.14 28.17 130.14 28.18 130.14 28.19 130.15"/>
<path d="M 28.31 130.16 28.32 130.16 28.31 130.15 28.32 130.15 28.33 130.14 28.34 130.14 28.36 130.14 28.35 130.14 28.35 130.15 28.34 130.15 28.33 130.15 28.32 130.16 28.31 130.16"/>
<path d="M 27.87 130.16 27.85 130.16 27.86 130.16 27.87 130.16"/>
<path d="M 28.41 130.16 28.4 130.16 28.41 130.16"/>
<path d="M 28.09 130.17 28.07 130.16 28.06 130.16 28.04 130.16 28.03 130.16 28.02 130.16 28.01 130.16 28 130.16 27.99 130.17 27.96 130.16 27.95 130.16 27.94 130.16 27.93 130.16 27.93 130.15 27.93 130.14 27.94 130.14 27.95 130.14 27.95 130.15 27.96 130.15 27.97 130.15 27.98 130.15 27.98 130.14 27.99 130.14 28 130.14 28.02 130.14 28.03 130.14 28.04 130.14 28.06 130.14 28.07 130.14 28.1 130.14 28.1 130.15 28.11 130.15 28.11 130.16 28.1 130.16 28.09 130.17"/>
<path d="M 28.92 130.17 28.91 130.17 28.92 130.16 28.93 130.16 28.93 130.17 28.92 130.17"/>
<path d="M 27.78 130.17 27.77 130.17 27.78 130.17"/>
<path d="M 29.32 130.18 29.31 130.18 29.31 130.17 29.3 130.17 29.29 130.17 29.3 130.17 29.31 130.17 29.35 130.17 29.34 130.17 29.32 130.18"/>
<path d="M 27.83 130.18 27.83 130.17 27.84 130.17 27.85 130.17 27.87 130.17 27.88 130.16 27.88 130.17 27.86 130.17 27.85 130.17 27.84 130.17 27.84 130.18 27.83 130.18"/>
<path d="M 29.68 130.18 29.67 130.18 29.68 130.18"/>
<path d="M 29.66 130.18 29.65 130.18 29.66 130.18"/>
<path d="M 27.8 130.19 27.8 130.18 27.79 130.18 27.78 130.18 27.79 130.18 27.8 130.17 27.81 130.17 27.81 130.18 27.82 130.18 27.8 130.18 27.81 130.18 27.8 130.18 27.8 130.19"/>
<path d="M 29.83 130.19 29.82 130.19 29.82 130.18 29.83 130.18 29.83 130.19"/>
<path d="M 28.87 130.19 28.86 130.19 28.87 130.19 28.86 130.19 28.86 130.18 28.85 130.18 28.84 130.18 28.84 130.17 28.86 130.17 28.88 130.17 28.89 130.17 28.89 130.18 28.88 130.19 28.87 130.19"/>
<path d="M 29.21 130.2 29.2 130.2 29.2 130.19 29.21 130.19 29.22 130.19 29.21 130.2"/>
<path d="M 27.75 130.2 27.77 130.19 27.78 130.19 27.79 130.19 27.79 130.2 27.78 130.2 27.76 130.2 27.75 130.2"/>
<path d="M 27.65 130.2 27.64 130.2 27.65 130.2"/>
<path d="M 29.7 130.21 29.68 130.21 29.68 130.2 29.69 130.2 29.68 130.2 29.67 130.2 29.66 130.19 29.69 130.19 29.68 130.19 29.68 130.2 29.69 130.2 29.7 130.2 29.71 130.2 29.7 130.2 29.7 130.21"/>
<path d="M 27.58 130.21 27.59 130.21 27.59 130.2 27.6 130.2 27.6 130.21 27.58 130.21"/>
<path d="M 27.75 130.21 27.76 130.21 27.77 130.2 27.8 130.2 27.78 130.2 27.78 130.21 27.77 130.21 27.76 130.21 27.75 130.21"/>
<path d="M 27.69 130.22 27.68 130.21 27.67 130.2 27.68 130.19 27.68 130.18 27.69 130.18 27.71 130.18 27.71 130.19 27.72 130.19 27.73 130.19 27.72 130.2 27.74 130.2 27.73 130.2 27.72 130.2 27.71 130.2 27.71 130.21 27.7 130.21 27.69 130.21 27.69 130.22"/>
<path d="M 25.47 129.82 25.48 129.82 25.49 129.83 25.48 129.83 25.49 129.83 25.5 129.84 25.5 129.85 25.51 129.85 25.51 129.86 25.5 129.86 25.51 129.86 25.51 129.87 25.52 129.87 25.52 129.88 25.52 129.89 25.53 129.89 25.53 129.9 25.53 129.91 25.52 129.91 25.51 129.91 25.5 129.91 25.51 129.91 25.51 129.92 25.52 129.92 25.51 129.93 25.52 129.93 25.52 129.94 25.53 129.94 25.52 129.94 25.52 129.95 25.53 129.95 25.51 129.95 25.5 129.95 25.49 129.95 25.5 129.94 25.49 129.94 25.46 129.94 25.47 129.94 25.47 129.93 25.46 129.93 25.45 129.94 25.45 129.93 25.44 129.93 25.43 129.93 25.42 129.93 25.41 129.93 25.41 129.94 25.4 129.94 25.4 129.95 25.41 129.95 25.42 129.95 25.42 129.96 25.43 129.95 25.44 129.96 25.45 129.96 25.45 129.97 25.46 129.97 25.47 129.97 25.47 129.98 25.48 129.98 25.47 129.98 25.48 129.98 25.49 129.98 25.49 129.99 25.5 129.99 25.51 129.99 25.51 130 25.52 129.99 25.53 129.99 25.54 129.99 25.55 129.99 25.56 129.99 25.57 129.99 25.58 129.99 25.58 130 25.57 130 25.57 130.01 25.57 130.02 25.56 130.02 25.56 130.03 25.55 130.03 25.54 130.03 25.54 130.04 25.54 130.05 25.54 130.06 25.54 130.07 25.53 130.07 25.53 130.08 25.52 130.09 25.52 130.11 25.52 130.12 25.52 130.13 25.53 130.13 25.53 130.14 25.53 130.15 25.54 130.15 25.54 130.16 25.55 130.16 25.56 130.16 25.56 130.17 25.56 130.18 25.55 130.18 25.55 130.17 25.55 130.18 25.54 130.18 25.53 130.19 25.52 130.19 25.52 130.2 25.51 130.2 25.5 130.2 25.49 130.2 25.49 130.21 25.47 130.21 25.46 130.22 25.44 130.22 25.43 130.22 25.42 130.22 25.41 130.22 25.4 130.22 25.38 130.21 25.37 130.21 25.36 130.21 25.36 130.2 25.35 130.2 25.34 130.2 25.33 130.2 25.32 130.2 25.31 130.19 25.3 130.19 25.29 130.19 25.28 130.19 25.26 130.18 25.25 130.18 25.26 130.18 25.26 130.17 25.27 130.17 25.27 130.16 25.26 130.15 25.25 130.15 25.23 130.15 25.21 130.15 25.21 130.14 25.22 130.14 25.23 130.14 25.23 130.13 25.25 130.13 25.25 130.12 25.24 130.12 25.21 130.12 25.17 130.12 25.16 130.12 25.16 130.13 25.14 130.13 25.15 130.13 25.14 130.13 25.13 130.13 25.11 130.13 25.11 130.12 25.09 130.12 25.07 130.12 25.07 130.11 25.06 130.11 25.05 130.11 25.03 130.11 25.02 130.11 25 130.11 24.99 130.1 24.98 130.1 24.98 130.11 24.97 130.11 24.97 130.12 24.98 130.12 24.99 130.12 24.99 130.13 25 130.13 25 130.14 24.99 130.14 24.98 130.15 24.98 130.16 24.96 130.17 24.95 130.17 24.95 130.18 24.94 130.18 24.92 130.18 24.91 130.18 24.89 130.18 24.89 130.19 24.88 130.19 24.87 130.19 24.86 130.19 24.86 130.2 24.82 130.2 24.81 130.2 24.79 130.2 24.78 130.2 24.78 130.19 24.77 130.19 24.76 130.19 24.75 130.19 24.75 130.18 24.74 130.18 24.73 130.18 24.72 130.18 24.71 130.18"/>
<path d="M 26.32 130.23 26.3 130.23 26.3 130.22 26.31 130.22 26.32 130.23"/>
<path d="M 26.36 130.23 26.35 130.23 26.33 130.23 26.32 130.23 26.33 130.23 26.33 130.22 26.34 130.22 26.34 130.23 26.35 130.23 26.36 130.23"/>
<path d="M 26.31 130.24 26.3 130.24 26.3 130.23 26.32 130.23 26.31 130.23 26.31 130.24"/>
<path d="M 26.37 130.24 26.36 130.24 26.36 130.23 26.37 130.23 26.37 130.24"/>
<path d="M 26.4 130.24 26.39 130.24 26.39 130.23 26.4 130.23 26.4 130.24"/>
<path d="M 27.2 130.24 27.2 130.23 27.19 130.24 27.19 130.23 27.19 130.22 27.2 130.22 27.21 130.22 27.22 130.22 27.23 130.22 27.24 130.22 27.25 130.23 27.24 130.23 27.23 130.24 27.22 130.24 27.2 130.24"/>
<path d="M 25.76 130.25 25.76 130.24 25.77 130.24 25.78 130.24 25.8 130.23 25.82 130.23 25.82 130.22 25.83 130.22 25.83 130.21 25.84 130.21 25.85 130.2 25.86 130.2 25.87 130.2 25.87 130.19 25.89 130.19 25.88 130.19 25.88 130.18 25.89 130.18 25.92 130.18 25.93 130.18 25.94 130.18 25.98 130.18 25.99 130.17 26 130.17 26.01 130.17 26.02 130.17 26.03 130.17 26.04 130.18 26.04 130.17 26.05 130.17 26.06 130.17 26.07 130.17 26.08 130.17 26.09 130.17 26.1 130.17 26.13 130.16 26.15 130.16 26.16 130.16 26.17 130.16 26.2 130.16 26.21 130.16 26.22 130.16 26.23 130.16 26.24 130.16 26.25 130.16 26.26 130.16 26.26 130.15 26.27 130.15 26.28 130.15 26.29 130.15 26.3 130.14 26.31 130.14 26.31 130.13 26.31 130.12 26.3 130.11 26.31 130.11 26.32 130.11 26.32 130.1 26.33 130.1 26.33 130.09 26.32 130.09 26.32 130.1 26.32 130.09 26.33 130.08 26.34 130.08 26.33 130.08 26.34 130.08 26.35 130.08 26.36 130.08 26.37 130.08 26.38 130.08 26.39 130.08 26.41 130.07 26.43 130.07 26.43 130.08 26.44 130.08 26.45 130.08 26.47 130.08 26.47 130.09 26.48 130.09 26.49 130.09 26.5 130.09 26.51 130.09 26.52 130.1 26.53 130.09 26.54 130.1 26.54 130.09 26.56 130.09 26.57 130.09 26.58 130.09 26.57 130.09 26.57 130.08 26.58 130.08 26.59 130.08 26.6 130.07 26.59 130.07 26.59 130.06 26.6 130.06 26.61 130.06 26.62 130.05 26.63 130.05 26.64 130.06 26.65 130.06 26.68 130.06 26.68 130.05 26.69 130.05 26.69 130.06 26.7 130.06 26.71 130.06 26.72 130.06 26.76 130.06 26.77 130.06 26.77 130.05 26.78 130.05 26.8 130.05 26.82 130.05 26.83 130.05 26.86 130.05 26.86 130.06 26.86 130.05 26.87 130.05 26.88 130.05 26.89 130.05 26.91 130.05 26.92 130.05 26.92 130.06 26.93 130.06 26.94 130.07 26.95 130.08 26.94 130.08 26.95 130.09 26.96 130.09 26.97 130.09 26.97 130.1 26.98 130.1 26.99 130.1 27 130.11 27 130.12 27.01 130.12 27.02 130.12 27.03 130.12 27.04 130.13 27.05 130.13 27.06 130.13 27.07 130.13 27.08 130.13 27.09 130.13 27.1 130.13 27.11 130.12 27.12 130.12 27.14 130.12 27.15 130.13 27.17 130.13 27.19 130.13 27.2 130.13 27.21 130.13 27.22 130.13 27.23 130.13 27.24 130.13 27.25 130.13 27.26 130.13 27.27 130.13 27.27 130.12 27.26 130.12 27.27 130.12 27.27 130.11 27.27 130.1 27.28 130.1 27.28 130.09 27.29 130.09 27.3 130.09 27.29 130.08 27.3 130.09 27.32 130.09 27.33 130.09 27.33 130.1 27.34 130.1 27.35 130.1 27.36 130.1 27.37 130.1 27.38 130.1 27.4 130.1 27.4 130.11 27.42 130.11 27.43 130.11 27.44 130.11 27.45 130.11 27.46 130.1 27.47 130.1 27.49 130.1 27.5 130.1 27.51 130.09 27.52 130.08 27.54 130.08 27.55 130.08 27.55 130.09 27.55 130.1 27.56 130.1 27.57 130.1 27.58 130.1 27.58 130.09 27.59 130.09 27.6 130.09 27.61 130.09 27.63 130.09 27.63 130.08 27.65 130.08 27.66 130.08 27.69 130.09 27.69 130.08 27.68 130.08 27.69 130.08 27.7 130.07 27.71 130.08 27.72 130.08 27.72 130.07 27.71 130.07 27.73 130.06 27.74 130.06 27.74 130.07 27.76 130.07 27.77 130.07 27.78 130.07 27.79 130.07 27.8 130.07 27.81 130.07 27.81 130.06 27.82 130.06 27.83 130.06 27.84 130.06 27.85 130.06 27.86 130.05 27.87 130.05 27.88 130.05 27.88 130.04 27.89 130.04 27.9 130.04 27.91 130.04 27.92 130.04 27.93 130.04 27.94 130.03 27.95 130.03 27.97 130.03 27.99 130.03 28 130.03 28.02 130.03 28.03 130.04 28.04 130.04 28.05 130.04 28.06 130.05 28.08 130.05 28.08 130.06 28.08 130.07 28.07 130.07 28.07 130.08 28.06 130.08 28.04 130.08 28.03 130.08 28.02 130.09 28.01 130.09 27.99 130.1 27.98 130.1 27.98 130.11 27.97 130.11 27.96 130.12 27.95 130.12 27.93 130.12 27.92 130.12 27.91 130.12 27.9 130.12 27.89 130.12 27.89 130.13 27.88 130.13 27.87 130.13 27.86 130.13 27.83 130.13 27.81 130.14 27.79 130.14 27.78 130.14 27.77 130.14 27.75 130.15 27.73 130.15 27.72 130.15 27.71 130.15 27.7 130.15 27.68 130.15 27.67 130.16 27.66 130.16 27.65 130.16 27.64 130.16 27.64 130.17 27.63 130.17 27.62 130.17 27.61 130.17 27.6 130.17 27.58 130.17 27.58 130.18 27.56 130.18 27.55 130.18 27.54 130.19 27.53 130.19 27.52 130.19 27.52 130.2 27.51 130.2 27.5 130.2 27.49 130.2 27.48 130.2 27.47 130.2 27.47 130.21 27.46 130.21"/>
<path d="M 26.95 130.25 26.94 130.25 26.92 130.25 26.92 130.24 26.93 130.24 26.94 130.24 26.95 130.24 26.95 130.25"/>
<path d="M 28.19 130.1 28.19 130.09 28.2 130.09 28.21 130.09 28.22 130.09 28.23 130.09 28.24 130.09 28.25 130.09 28.26 130.09 28.27 130.08 28.27 130.09 28.28 130.09 28.29 130.08 28.3 130.08 28.31 130.08 28.31 130.07 28.3 130.07 28.28 130.08 28.27 130.08 28.27 130.07 28.28 130.07 28.3 130.07 28.31 130.07 28.32 130.06 28.33 130.07 28.33 130.06 28.34 130.06 28.36 130.06 28.37 130.05 28.38 130.05 28.39 130.05 28.39 130.06 28.4 130.06 28.39 130.05 28.4 130.05 28.41 130.05 28.42 130.05 28.41 130.05 28.42 130.04 28.43 130.04 28.44 130.05 28.45 130.05 28.46 130.05 28.47 130.05 28.48 130.06 28.49 130.06 28.49 130.05 28.48 130.05 28.49 130.05 28.5 130.05 28.51 130.05 28.52 130.05 28.53 130.05 28.54 130.04 28.56 130.04 28.57 130.04 28.57 130.05 28.56 130.05 28.53 130.05 28.52 130.05 28.51 130.05 28.5 130.05 28.51 130.06 28.52 130.06 28.53 130.06 28.54 130.06 28.55 130.06 28.56 130.06 28.56 130.05 28.57 130.05 28.6 130.05 28.61 130.05 28.6 130.05 28.59 130.05 28.59 130.06 28.6 130.06 28.61 130.06 28.62 130.06 28.63 130.06 28.67 130.06 28.68 130.06 28.7 130.06 28.71 130.06 28.74 130.06 28.75 130.06 28.75 130.05 28.76 130.05 28.77 130.05 28.78 130.05 28.79 130.05 28.8 130.05 28.82 130.05 28.83 130.04 28.84 130.04 28.85 130.04 28.86 130.04 28.88 130.04 28.89 130.03 28.92 130.03 28.93 130.03 28.95 130.03 28.96 130.03 28.97 130.03 29 130.02 29.01 130.02 29.02 130.02 29.04 130.02 29.05 130.02 29.08 130.01 29.09 130.01 29.1 130.01 29.12 130.01 29.13 130.01 29.14 130.01 29.15 130.01 29.16 130.01 29.17 130.01 29.2 130 29.21 130 29.22 130 29.23 130 29.24 130 29.25 130.01 29.26 130.01 29.29 130.01 29.3 130.01 29.31 130.01 29.32 130.02 29.34 130.02 29.35 130.02 29.36 130.02 29.37 130.03 29.37 130.04 29.36 130.04 29.36 130.05 29.35 130.04 29.35 130.05 29.34 130.05 29.33 130.05 29.33 130.06 29.32 130.06 29.31 130.06 29.3 130.06 29.3 130.07 29.29 130.07 29.27 130.07 29.26 130.07 29.26 130.06 29.25 130.07 29.24 130.07 29.23 130.07 29.23 130.08 29.22 130.08 29.21 130.08 29.2 130.08 29.19 130.08 29.18 130.08 29.19 130.09 29.19 130.1 29.2 130.1 29.21 130.1 29.22 130.1 29.23 130.1 29.24 130.1 29.24 130.11 29.25 130.11 29.25 130.1 29.26 130.1 29.26 130.11 29.27 130.11 29.28 130.11 29.3 130.11 29.31 130.11 29.31 130.1 29.31 130.11 29.31 130.12 29.3 130.12 29.29 130.12 29.28 130.12 29.28 130.13 29.27 130.14 29.28 130.13 29.31 130.13 29.3 130.14 29.29 130.14 29.27 130.15 29.26 130.15 29.25 130.15 29.24 130.15 29.24 130.16 29.21 130.16 29.2 130.16 29.19 130.16 29.2 130.17 29.21 130.17 29.22 130.17 29.22 130.16 29.24 130.16 29.25 130.16 29.25 130.17 29.26 130.17 29.28 130.17 29.29 130.17 29.32 130.16 29.33 130.16 29.34 130.16 29.35 130.16 29.38 130.15 29.39 130.15 29.41 130.15 29.43 130.15 29.44 130.15 29.45 130.15 29.46 130.15 29.47 130.16 29.48 130.15 29.5 130.16 29.51 130.16 29.53 130.16 29.54 130.16 29.55 130.16 29.57 130.16 29.58 130.16 29.6 130.16 29.61 130.16 29.63 130.16 29.64 130.16 29.65 130.17 29.67 130.17 29.68 130.17 29.69 130.17 29.7 130.17 29.71 130.17 29.71 130.18 29.7 130.18 29.7 130.19 29.71 130.19 29.72 130.19 29.72 130.2 29.73 130.2 29.72 130.2 29.72 130.21 29.74 130.21 29.75 130.21 29.75 130.2 29.74 130.2 29.73 130.2 29.74 130.2 29.75 130.2 29.79 130.19 29.79 130.18 29.78 130.18 29.8 130.18 29.81 130.18 29.82 130.18 29.83 130.18 29.84 130.18 29.85 130.18 29.86 130.18 29.87 130.18 29.89 130.18 29.9 130.18 29.91 130.19 29.92 130.19 29.93 130.19 29.94 130.19 29.95 130.19 29.96 130.19 29.98 130.19 30 130.19 30 130.2 30.01 130.2 30.02 130.2 30.03 130.2 30.05 130.2 30.06 130.2 30.05 130.21 30.01 130.2 30 130.2 30 130.21 29.99 130.21 29.98 130.21 29.95 130.21 29.94 130.21 29.93 130.2 29.93 130.21 29.92 130.21 29.92 130.22 29.91 130.22 29.91 130.23 29.92 130.23 29.95 130.23 29.96 130.23 29.97 130.23 29.98 130.23 30.01 130.23 30.02 130.23 30.03 130.23 30.04 130.23 30.06 130.23 30.09 130.23 30.1 130.23 30.1 130.24 30.11 130.24 30.11 130.25 30.13 130.25 30.12 130.25 30.11 130.25 30.1 130.25 30.09 130.25 30.08 130.25 30.07 130.25"/>
<path d="M 25.79 130.26 25.78 130.26 25.79 130.26"/>
<path d="M 27.46 130.21 27.47 130.21 27.47 130.22 27.48 130.22 27.49 130.23 27.5 130.23 27.5 130.24 27.49 130.24 27.48 130.24 27.48 130.23 27.47 130.23 27.46 130.23 27.45 130.23 27.45 130.24 27.44 130.24 27.43 130.24 27.42 130.24 27.41 130.24 27.41 130.23 27.4 130.23 27.4 130.24 27.39 130.24 27.38 130.24 27.37 130.25 27.36 130.25 27.36 130.24 27.36 130.23 27.37 130.23 27.38 130.23 27.38 130.22 27.39 130.22 27.4 130.22 27.41 130.21 27.4 130.21 27.38 130.21 27.37 130.21 27.35 130.21 27.34 130.21 27.32 130.21 27.31 130.21 27.3 130.21 27.29 130.21 27.28 130.21 27.26 130.21 27.25 130.21 27.24 130.21 27.23 130.21 27.22 130.21 27.21 130.21 27.2 130.21 27.19 130.21 27.18 130.21 27.18 130.22 27.17 130.22 27.15 130.22 27.14 130.23 27.13 130.23 27.12 130.23 27.11 130.23 27.11 130.24 27.1 130.24 27.09 130.24 27.07 130.24 27.06 130.24 27.05 130.24 27.04 130.24 27.01 130.24 27 130.24 27 130.23 26.99 130.23 26.98 130.23 26.97 130.23 26.96 130.23 26.95 130.23 26.94 130.23 26.93 130.23 26.92 130.23 26.91 130.23 26.9 130.23 26.9 130.24 26.89 130.25 26.88 130.25 26.88 130.26 26.87 130.26 26.86 130.26 26.85 130.26 26.83 130.26 26.82 130.26 26.81 130.26 26.8 130.26 26.79 130.26 26.78 130.26 26.77 130.26 26.76 130.26 26.75 130.26 26.74 130.26 26.73 130.26 26.72 130.26 26.7 130.26 26.69 130.26 26.68 130.26 26.67 130.26 26.66 130.26 26.65 130.26 26.64 130.26 26.64 130.25 26.64 130.26 26.63 130.26 26.62 130.26 26.61 130.26 26.61 130.25 26.6 130.25 26.59 130.25 26.59 130.24 26.58 130.24 26.58 130.23 26.57 130.23 26.56 130.23 26.55 130.24 26.56 130.24 26.55 130.24 26.53 130.24 26.52 130.24 26.51 130.24 26.5 130.25 26.49 130.25 26.48 130.25 26.46 130.24 26.45 130.24 26.44 130.24 26.43 130.23 26.44 130.23 26.44 130.22 26.43 130.22 26.42 130.22 26.41 130.22 26.4 130.22 26.4 130.21 26.39 130.22 26.38 130.22 26.37 130.22 26.36 130.22 26.34 130.22 26.33 130.22 26.32 130.21 26.31 130.21 26.3 130.21 26.28 130.21 26.27 130.21 26.26 130.21 26.25 130.21 26.25 130.2 26.23 130.2 26.22 130.2 26.21 130.2 26.2 130.2 26.18 130.2 26.18 130.21 26.16 130.21 26.15 130.22 26.14 130.22 26.13 130.22 26.12 130.22 26.11 130.22 26.11 130.23 26.1 130.23 26.1 130.22 26.11 130.21 26.1 130.21 26.09 130.21 26.09 130.22 26.08 130.22 26.07 130.22 26.07 130.23 26.06 130.23 26.04 130.23 26.04 130.24 26.05 130.24 26.04 130.24 26.03 130.25 26.02 130.25 26.01 130.25 26 130.25 25.99 130.25 25.98 130.25 25.97 130.25 25.92 130.25 25.91 130.26 25.89 130.25 25.88 130.25 25.87 130.25 25.85 130.25 25.84 130.25 25.85 130.25 25.84 130.25 25.83 130.25 25.82 130.25 25.81 130.25 25.8 130.25 25.78 130.25 25.77 130.25 25.76 130.25"/>
<path d="M 29.53 130.28 29.52 130.28 29.53 130.28"/>
<path d="M 29.61 130.3 29.6 130.3 29.59 130.3 29.59 130.29 29.6 130.29 29.61 130.29 29.62 130.29 29.62 130.3 29.61 130.3"/>
<path d="M 26.97 130.3 26.97 130.29 26.98 130.29 27.01 130.29 27.01 130.28 27.01 130.29 27.02 130.29 27.02 130.28 27.03 130.28 27.04 130.28 27.05 130.27 27.06 130.27 27.07 130.27 27.08 130.28 27.09 130.27 27.1 130.27 27.11 130.27 27.12 130.27 27.13 130.27 27.12 130.27 27.11 130.27 27.11 130.28 27.09 130.28 27.07 130.28 27.06 130.28 27.06 130.29 27.05 130.29 27.03 130.29 27.03 130.3 27.01 130.3 27 130.3 26.99 130.3 26.97 130.3"/>
<path d="M 29.48 130.27 29.5 130.26 29.5 130.25 29.49 130.25 29.47 130.25 29.47 130.26 29.46 130.26 29.45 130.26 29.44 130.26 29.44 130.25 29.43 130.25 29.44 130.25 29.44 130.24 29.43 130.25 29.42 130.25 29.4 130.25 29.4 130.24 29.42 130.24 29.42 130.23 29.4 130.24 29.39 130.24 29.38 130.24 29.38 130.23 29.39 130.23 29.4 130.23 29.39 130.23 29.41 130.22 29.39 130.22 29.38 130.22 29.38 130.21 29.37 130.21 29.37 130.2 29.39 130.2 29.4 130.2 29.41 130.2 29.42 130.2 29.43 130.2 29.43 130.19 29.42 130.19 29.41 130.19 29.39 130.19 29.4 130.19 29.39 130.19 29.39 130.18 29.38 130.18 29.38 130.17 29.37 130.17 29.36 130.17 29.35 130.17 29.35 130.18 29.33 130.18 29.33 130.19 29.34 130.19 29.35 130.19 29.34 130.19 29.33 130.19 29.32 130.2 29.31 130.2 29.3 130.2 29.29 130.2 29.27 130.2 29.27 130.21 29.28 130.21 29.27 130.21 29.26 130.21 29.25 130.22 29.24 130.22 29.23 130.22 29.22 130.22 29.22 130.23 29.21 130.23 29.2 130.23 29.2 130.22 29.19 130.22 29.21 130.21 29.22 130.21 29.22 130.2 29.21 130.2 29.2 130.2 29.19 130.2 29.18 130.2 29.18 130.19 29.17 130.2 29.16 130.19 29.16 130.18 29.16 130.17 29.15 130.17 29.15 130.16 29.14 130.16 29.13 130.16 29.12 130.16 29.11 130.17 29.1 130.17 29.08 130.17 29.08 130.18 29.07 130.18 29.06 130.18 29.06 130.19 29.07 130.19 29.08 130.19 29.07 130.19 29.05 130.19 29.04 130.19 29.04 130.2 29.03 130.2 29.02 130.2 29.01 130.2 28.99 130.2 28.99 130.21 28.98 130.21 28.97 130.21 28.96 130.21 28.97 130.21 28.97 130.2 28.96 130.2 28.95 130.2 28.95 130.21 28.95 130.2 28.96 130.19 28.94 130.19 28.93 130.19 28.92 130.2 28.91 130.2 28.9 130.2 28.89 130.2 28.88 130.2 28.87 130.2 28.86 130.2 28.85 130.2 28.83 130.2 28.83 130.21 28.82 130.21 28.81 130.21 28.8 130.21 28.78 130.21 28.78 130.2 28.77 130.2 28.76 130.2 28.75 130.2 28.74 130.2 28.72 130.2 28.71 130.2 28.69 130.19 28.68 130.19 28.69 130.19 28.69 130.18 28.68 130.18 28.67 130.17 28.65 130.17 28.64 130.17 28.63 130.17 28.63 130.16 28.6 130.16 28.6 130.15 28.59 130.15 28.58 130.15 28.58 130.16 28.56 130.16 28.55 130.16 28.54 130.16 28.55 130.15 28.56 130.14 28.57 130.14 28.58 130.13 28.59 130.13 28.61 130.13 28.61 130.12 28.62 130.12 28.62 130.11 28.61 130.11 28.61 130.12 28.59 130.12 28.57 130.12 28.56 130.12 28.55 130.12 28.55 130.13 28.53 130.13 28.53 130.14 28.51 130.14 28.48 130.14 28.47 130.14 28.45 130.14 28.45 130.15 28.44 130.15 28.43 130.15 28.42 130.15 28.42 130.16 28.43 130.16 28.44 130.16 28.45 130.16 28.46 130.17 28.46 130.18 28.47 130.18 28.46 130.18 28.45 130.18 28.45 130.19 28.44 130.19 28.43 130.19 28.41 130.19 28.4 130.19 28.36 130.19 28.36 130.18 28.35 130.18 28.34 130.18 28.33 130.18 28.32 130.18 28.31 130.18 28.3 130.18 28.29 130.18 28.28 130.18 28.27 130.18 28.26 130.18 28.26 130.17 28.26 130.16 28.25 130.15 28.24 130.15 28.22 130.15 28.21 130.15 28.2 130.16 28.19 130.16 28.17 130.16 28.16 130.16 28.18 130.16 28.17 130.17 28.16 130.17 28.16 130.18 28.15 130.19 28.14 130.19 28.15 130.19 28.16 130.19 28.17 130.19 28.18 130.19 28.19 130.19 28.2 130.18 28.19 130.19 28.18 130.19 28.17 130.2 28.16 130.2 28.16 130.21 28.14 130.21 28.15 130.21 28.13 130.21 28.11 130.21 28.1 130.21 28.1 130.2 28.11 130.2 28.12 130.2 28.12 130.19 28.11 130.19 28.1 130.2 28.09 130.2 28.08 130.2 28.07 130.2 28.07 130.21 28.06 130.21 28.05 130.21 28.05 130.22 28.04 130.22 28.04 130.23 28.03 130.23 28.02 130.23 28.01 130.23 28 130.23 27.98 130.24 27.97 130.24 27.94 130.24 27.93 130.24 27.92 130.24 27.9 130.24 27.89 130.24 27.87 130.24 27.86 130.24 27.84 130.24 27.83 130.24 27.82 130.24 27.81 130.24 27.79 130.24 27.78 130.24 27.77 130.25 27.76 130.26 27.75 130.26 27.74 130.26 27.73 130.26 27.72 130.26 27.71 130.26 27.7 130.26 27.69 130.26 27.68 130.26 27.67 130.26 27.64 130.26 27.64 130.27 27.63 130.27 27.62 130.27 27.63 130.28 27.63 130.29 27.62 130.29 27.61 130.3 27.61 130.29 27.6 130.29 27.59 130.29 27.58 130.29 27.57 130.29 27.57 130.3 27.55 130.3 27.54 130.3 27.53 130.3 27.51 130.3 27.49 130.3 27.48 130.3 27.47 130.3 27.48 130.3 27.47 130.29 27.46 130.29 27.45 130.3 27.43 130.3 27.42 130.3 27.41 130.3 27.4 130.3"/>
<path d="M 26.18 130.32 26.17 130.32 26.16 130.32 26.16 130.31 26.15 130.31 26.16 130.31 26.18 130.31 26.18 130.3 26.19 130.3 26.19 130.31 26.2 130.31 26.19 130.31 26.18 130.31 26.18 130.32"/>
<path d="M 27.16 130.32 27.15 130.32 27.16 130.32 27.16 130.31 27.17 130.31 27.18 130.31 27.17 130.31 27.16 130.31 27.15 130.31 27.14 130.31 27.13 130.31 27.12 130.31 27.1 130.31 27.11 130.31 27.11 130.32 27.1 130.32 27.1 130.31 27.09 130.3 27.09 130.29 27.1 130.29 27.1 130.28 27.12 130.28 27.13 130.28 27.13 130.29 27.14 130.28 27.16 130.28 27.15 130.28 27.15 130.27 27.17 130.27 27.18 130.27 27.19 130.28 27.2 130.28 27.2 130.27 27.19 130.28 27.2 130.27 27.18 130.27 27.18 130.26 27.19 130.27 27.2 130.27 27.21 130.27 27.21 130.26 27.22 130.26 27.23 130.26 27.23 130.25 27.25 130.25 27.26 130.24 27.29 130.24 27.3 130.24 27.31 130.24 27.34 130.24 27.34 130.25 27.33 130.25 27.33 130.26 27.32 130.26 27.31 130.26 27.3 130.26 27.3 130.27 27.28 130.27 27.27 130.27 27.26 130.27 27.25 130.27 27.26 130.27 27.26 130.28 27.25 130.28 27.24 130.28 27.23 130.28 27.23 130.29 27.22 130.29 27.21 130.29 27.21 130.3 27.2 130.3 27.19 130.3 27.17 130.3 27.18 130.3 27.19 130.31 27.19 130.32 27.18 130.32 27.16 130.32"/>
<path d="M 30.07 130.25 30.04 130.25 30.03 130.25 30.02 130.25 30 130.25 29.99 130.25 29.98 130.25 29.97 130.24 29.96 130.24 29.95 130.24 29.94 130.24 29.93 130.24 29.92 130.24 29.91 130.24 29.9 130.24 29.89 130.24 29.88 130.24 29.87 130.24 29.88 130.24 29.88 130.25 29.89 130.25 29.87 130.25 29.85 130.25 29.84 130.25 29.83 130.25 29.82 130.25 29.81 130.25 29.81 130.24 29.8 130.24 29.79 130.24 29.78 130.24 29.78 130.25 29.79 130.25 29.8 130.25 29.79 130.25 29.76 130.26 29.75 130.26 29.73 130.26 29.71 130.27 29.71 130.26 29.71 130.27 29.72 130.27 29.69 130.27 29.68 130.27 29.67 130.27 29.67 130.28 29.68 130.28 29.7 130.28 29.72 130.28 29.73 130.28 29.73 130.29 29.75 130.29 29.76 130.29 29.77 130.29 29.77 130.3 29.77 130.29 29.78 130.29 29.78 130.3 29.77 130.3 29.75 130.3 29.75 130.31 29.74 130.31 29.73 130.31 29.72 130.31 29.71 130.31 29.7 130.31 29.69 130.31 29.68 130.31 29.66 130.31 29.67 130.32 29.64 130.32 29.64 130.33 29.65 130.33 29.66 130.33 29.65 130.33 29.64 130.33 29.63 130.33 29.63 130.32 29.64 130.32 29.63 130.32 29.62 130.32 29.59 130.32 29.58 130.32 29.56 130.32 29.55 130.32 29.54 130.31 29.53 130.31 29.52 130.3 29.51 130.3 29.5 130.29 29.49 130.29 29.48 130.29 29.48 130.28 29.47 130.28 29.47 130.27 29.46 130.27 29.46 130.26 29.47 130.27 29.48 130.27"/>
<path d="M 25.22 130.34 25.21 130.34 25.21 130.33 25.22 130.33 25.22 130.34"/>
<path d="M 25.21 130.34 25.2 130.34 25.21 130.34"/>
<path d="M 26.76 130.34 26.75 130.34 26.74 130.33 26.75 130.33 26.76 130.33 26.76 130.32 26.77 130.32 26.79 130.32 26.8 130.32 26.81 130.32 26.82 130.32 26.82 130.31 26.83 130.31 26.84 130.31 26.85 130.31 26.89 130.31 26.9 130.3 26.92 130.3 26.93 130.3 26.93 130.31 26.94 130.32 26.93 130.32 26.93 130.33 26.92 130.33 26.9 130.33 26.88 130.33 26.87 130.33 26.86 130.33 26.85 130.33 26.84 130.33 26.82 130.33 26.81 130.33 26.8 130.33 26.79 130.33 26.78 130.32 26.78 130.33 26.77 130.33 26.78 130.33 26.78 130.34 26.77 130.34 26.76 130.34"/>
<path d="M 26.62 130.37 26.61 130.37 26.6 130.36 26.61 130.36 26.62 130.36 26.61 130.36 26.61 130.35 26.6 130.35 26.59 130.34 26.58 130.34 26.57 130.34 26.57 130.33 26.58 130.33 26.6 130.33 26.6 130.32 26.61 130.32 26.63 130.32 26.64 130.32 26.66 130.32 26.66 130.31 26.67 130.31 26.67 130.32 26.68 130.32 26.69 130.32 26.69 130.33 26.7 130.33 26.71 130.33 26.71 130.34 26.7 130.34 26.69 130.34 26.68 130.34 26.67 130.34 26.66 130.35 26.65 130.35 26.64 130.36 26.63 130.36 26.62 130.36 26.62 130.37"/>
<path d="M 27.2 130.37 27.19 130.37 27.18 130.37 27.18 130.36 27.19 130.36 27.2 130.36 27.2 130.37 27.21 130.37 27.2 130.37"/>
<path d="M 29.89 130.38 29.88 130.38 29.88 130.37 29.87 130.37 29.88 130.37 29.89 130.37 29.89 130.38"/>
<path d="M 29.97 130.38 29.96 130.38 29.95 130.38 29.94 130.38 29.94 130.37 29.93 130.37 29.91 130.37 29.9 130.37 29.89 130.37 29.89 130.36 29.91 130.36 29.92 130.36 29.93 130.36 29.94 130.36 29.94 130.35 29.96 130.35 29.96 130.36 29.96 130.37 29.98 130.37 29.97 130.38"/>
<path d="M 26.71 130.39 26.71 130.38 26.72 130.38 26.73 130.38 26.75 130.38 26.76 130.38 26.77 130.38 26.8 130.38 26.79 130.38 26.78 130.38 26.77 130.38 26.74 130.39 26.73 130.39 26.72 130.39 26.71 130.39"/>
<path d="M 26.11 130.43 26.1 130.43 26.1 130.42 26.11 130.42 26.12 130.42 26.11 130.43"/>
<path d="M 25.82 130.43 25.81 130.43 25.81 130.42 25.82 130.42 25.82 130.43"/>
<path d="M 27.4 130.3 27.4 130.31 27.39 130.31 27.4 130.32 27.39 130.32 27.39 130.33 27.38 130.33 27.38 130.34 27.37 130.34 27.38 130.34 27.39 130.34 27.38 130.34 27.38 130.35 27.39 130.35 27.4 130.35 27.4 130.36 27.4 130.37 27.39 130.37 27.38 130.36 27.37 130.36 27.36 130.37 27.35 130.37 27.34 130.37 27.33 130.37 27.32 130.38 27.3 130.38 27.29 130.38 27.28 130.38 27.26 130.38 27.25 130.39 27.23 130.39 27.23 130.38 27.23 130.39 27.22 130.39 27.21 130.39 27.2 130.39 27.19 130.39 27.19 130.38 27.18 130.38 27.17 130.38 27.16 130.38 27.15 130.38 27.15 130.37 27.14 130.37 27.13 130.37 27.12 130.37 27.11 130.37 27.1 130.37 27.09 130.37 27.08 130.38 27.06 130.38 27.05 130.38 27.04 130.38 27.03 130.39 27.02 130.39 27 130.39 26.99 130.39 26.99 130.4 26.98 130.4 26.98 130.39 26.96 130.39 26.95 130.39 26.94 130.39 26.93 130.39 26.91 130.39 26.9 130.39 26.87 130.4 26.85 130.39 26.84 130.39 26.84 130.4 26.83 130.4 26.82 130.4 26.81 130.39 26.8 130.39 26.79 130.39 26.78 130.39 26.77 130.39 26.76 130.4 26.75 130.4 26.74 130.4 26.75 130.4 26.74 130.4 26.73 130.4 26.71 130.4 26.69 130.4 26.67 130.41 26.69 130.41 26.68 130.41 26.64 130.41 26.64 130.42 26.64 130.41 26.63 130.41 26.62 130.41 26.62 130.42 26.61 130.42 26.59 130.42 26.58 130.42 26.57 130.42 26.58 130.42 26.57 130.42 26.56 130.42 26.55 130.42 26.53 130.42 26.51 130.42 26.5 130.42 26.49 130.42 26.48 130.42 26.49 130.42 26.5 130.41 26.49 130.41 26.48 130.41 26.47 130.41 26.47 130.42 26.46 130.42 26.47 130.42 26.47 130.43"/>
<path d="M 25.96 130.44 25.95 130.44 25.94 130.44 25.96 130.44"/>
<path d="M 26.13 130.45 26.14 130.45 26.15 130.45 26.16 130.45 26.15 130.45 26.13 130.45"/>
<path d="M 26.19 130.46 26.18 130.46 26.19 130.46"/>
<path d="M 29.66 130.46 29.65 130.46 29.66 130.46"/>
<path d="M 26.01 130.47 26 130.47 26.01 130.46 26.03 130.46 26.05 130.46 26.05 130.45 26.06 130.45 26.07 130.45 26.07 130.44 26.08 130.44 26.09 130.44 26.1 130.44 26.11 130.44 26.12 130.44 26.13 130.44 26.13 130.45 26.12 130.45 26.12 130.46 26.11 130.46 26.1 130.46 26.09 130.46 26.08 130.46 26.07 130.46 26.06 130.46 26.05 130.46 26.04 130.46 26.03 130.47 26.02 130.47 26.01 130.47"/>
<path d="M 25.16 130.48 25.15 130.47 25.15 130.48 25.14 130.48 25.13 130.47 25.14 130.47 25.15 130.47 25.16 130.48"/>
<path d="M 26.4 130.52 26.39 130.52 26.38 130.52 26.38 130.51 26.39 130.51 26.4 130.51 26.4 130.52"/>
<path d="M 27.14 130.53 27.13 130.53 27.14 130.53"/>
<path d="M 29.25 130.54 29.24 130.54 29.23 130.54 29.23 130.53 29.24 130.53 29.25 130.53 29.25 130.54"/>
<path d="M 25.29 130.54 25.3 130.54 25.32 130.54 25.33 130.54 25.34 130.54 25.34 130.53 25.35 130.53 25.37 130.53 25.38 130.53 25.39 130.53 25.4 130.53 25.42 130.52 25.43 130.52 25.44 130.52 25.46 130.52 25.47 130.52 25.48 130.52 25.49 130.52 25.5 130.52 25.51 130.52 25.52 130.52 25.53 130.52 25.54 130.52 25.54 130.51 25.55 130.52 25.59 130.52 25.6 130.52 25.62 130.52 25.64 130.52 25.65 130.52 25.65 130.51 25.68 130.51 25.69 130.51 25.7 130.51 25.71 130.51 25.73 130.51 25.74 130.5 25.75 130.5 25.76 130.5 25.77 130.5 25.77 130.49 25.78 130.49 25.79 130.49 25.78 130.48 25.79 130.48 25.8 130.48 25.8 130.47 25.81 130.47 25.81 130.46 25.8 130.46 25.79 130.47 25.78 130.47 25.78 130.46 25.77 130.46 25.76 130.47 25.75 130.47 25.74 130.47 25.72 130.47 25.71 130.47 25.69 130.47 25.68 130.47 25.68 130.48 25.67 130.48 25.66 130.48 25.64 130.48 25.63 130.49 25.62 130.48 25.6 130.48 25.59 130.48 25.57 130.48 25.56 130.48 25.54 130.48 25.53 130.48 25.51 130.48 25.5 130.48 25.49 130.48 25.49 130.47 25.46 130.47 25.45 130.48 25.45 130.47 25.44 130.47 25.43 130.47 25.43 130.46 25.42 130.46 25.41 130.46 25.42 130.46 25.41 130.46 25.42 130.45 25.41 130.45 25.39 130.45 25.38 130.45 25.37 130.45 25.38 130.44 25.37 130.44 25.38 130.44 25.39 130.44 25.39 130.43 25.38 130.43 25.37 130.43 25.37 130.42 25.38 130.42 25.39 130.42 25.4 130.42 25.42 130.41 25.41 130.41 25.43 130.41 25.44 130.4 25.44 130.41 25.43 130.41 25.43 130.42 25.42 130.42 25.41 130.43 25.42 130.43 25.43 130.43 25.44 130.43 25.45 130.44 25.46 130.44 25.47 130.44 25.48 130.44 25.49 130.43 25.5 130.44 25.51 130.44 25.51 130.43 25.5 130.43 25.49 130.43 25.48 130.43 25.49 130.43 25.49 130.42 25.5 130.42 25.5 130.43 25.51 130.43 25.51 130.42 25.52 130.42 25.53 130.42 25.53 130.43 25.54 130.43 25.55 130.43 25.56 130.43 25.57 130.43 25.58 130.43 25.59 130.43 25.58 130.43 25.57 130.42 25.58 130.41 25.58 130.42 25.59 130.42 25.6 130.42 25.62 130.42 25.63 130.42 25.66 130.42 25.67 130.42 25.68 130.42 25.68 130.41 25.69 130.41 25.7 130.41 25.71 130.41 25.72 130.41 25.73 130.41 25.74 130.41 25.75 130.41 25.75 130.42 25.75 130.41 25.76 130.41 25.77 130.41 25.78 130.41 25.79 130.41 25.8 130.41 25.81 130.41 25.83 130.41 25.86 130.41 25.88 130.41 25.89 130.41 25.9 130.41 25.91 130.41 25.91 130.42 25.9 130.42 25.89 130.42 25.88 130.42 25.88 130.43 25.89 130.43 25.92 130.43 25.93 130.43 25.94 130.43 25.95 130.43 25.96 130.43 25.97 130.43 25.98 130.43 25.99 130.43 26 130.43 26.01 130.43 26.02 130.43 26.04 130.43 26.05 130.43 26.06 130.43 26.07 130.43 26.09 130.42 26.14 130.42 26.16 130.42 26.17 130.41 26.18 130.41 26.19 130.41 26.2 130.41 26.22 130.41 26.23 130.41 26.23 130.42 26.23 130.43 26.24 130.43 26.23 130.43 26.23 130.44 26.22 130.44 26.21 130.44 26.21 130.45 26.2 130.45 26.2 130.46 26.21 130.46 26.22 130.47 26.24 130.46 26.26 130.46 26.28 130.46 26.29 130.46 26.31 130.46 26.32 130.46 26.33 130.46 26.34 130.46 26.35 130.46 26.36 130.46 26.37 130.46 26.38 130.47 26.39 130.47 26.4 130.47 26.43 130.47 26.44 130.46 26.46 130.46 26.46 130.47 26.45 130.47 26.44 130.47 26.43 130.47 26.43 130.48 26.44 130.48 26.45 130.48 26.46 130.48 26.46 130.49 26.45 130.49 26.44 130.49 26.44 130.5 26.43 130.5 26.42 130.5 26.41 130.5 26.4 130.5 26.4 130.51 26.42 130.51 26.43 130.51 26.44 130.51 26.44 130.52 26.45 130.52 26.43 130.52 26.43 130.53 26.45 130.53"/>
<path d="M 26.47 130.43 26.46 130.42 26.45 130.42 26.44 130.41 26.43 130.42 26.42 130.42 26.4 130.41 26.39 130.41 26.4 130.41 26.41 130.41 26.42 130.41 26.44 130.4 26.45 130.4 26.46 130.39 26.45 130.39 26.44 130.39 26.45 130.39 26.46 130.39 26.47 130.39 26.48 130.4 26.49 130.4 26.5 130.4 26.52 130.4 26.52 130.39 26.54 130.39 26.54 130.38 26.53 130.38 26.52 130.37 26.51 130.37 26.5 130.37 26.5 130.36 26.51 130.36 26.5 130.36 26.5 130.35 26.48 130.35 26.47 130.35 26.46 130.35 26.45 130.35 26.44 130.35 26.43 130.35 26.42 130.35 26.4 130.35 26.38 130.35 26.36 130.35 26.35 130.35 26.34 130.35 26.33 130.35 26.32 130.35 26.3 130.35 26.28 130.34 26.27 130.35 26.26 130.35 26.24 130.35 26.23 130.35 26.22 130.35 26.21 130.34 26.2 130.34 26.21 130.34 26.2 130.34 26.2 130.33 26.19 130.33 26.19 130.34 26.2 130.34 26.19 130.34 26.17 130.34 26.16 130.34 26.16 130.35 26.15 130.35 26.14 130.35 26.13 130.35 26.12 130.35 26.11 130.35 26.1 130.35 26.08 130.35 26.07 130.35 26.06 130.35 26.05 130.35 26.05 130.36 26.04 130.35 26.04 130.36 26.05 130.36 26.02 130.36 26.01 130.35 26 130.35 25.98 130.35 25.98 130.34 25.97 130.34 25.96 130.34 25.95 130.33 25.94 130.33 25.93 130.33 25.92 130.33 25.93 130.32 25.94 130.32 25.94 130.31 25.93 130.31 25.92 130.31 25.92 130.32 25.91 130.32 25.9 130.32 25.9 130.33 25.89 130.33 25.89 130.34 25.87 130.34 25.86 130.34 25.85 130.35 25.84 130.35 25.82 130.35 25.82 130.36 25.82 130.35 25.81 130.35 25.8 130.35 25.79 130.35 25.79 130.34 25.78 130.34 25.76 130.34 25.76 130.35 25.75 130.35 25.76 130.35 25.75 130.36 25.74 130.36 25.73 130.36 25.72 130.36 25.71 130.36 25.7 130.37 25.69 130.37 25.68 130.37 25.66 130.37 25.65 130.37 25.65 130.38 25.64 130.38 25.62 130.39 25.61 130.39 25.6 130.39 25.59 130.39 25.58 130.39 25.57 130.39 25.56 130.39 25.55 130.39 25.54 130.39 25.53 130.39 25.53 130.4 25.52 130.4 25.52 130.39 25.5 130.39 25.49 130.39 25.49 130.4 25.48 130.4 25.47 130.4 25.45 130.4 25.45 130.41 25.45 130.4 25.44 130.4 25.46 130.4 25.47 130.4 25.46 130.39 25.45 130.39 25.44 130.39 25.42 130.4 25.4 130.4 25.41 130.4 25.39 130.4 25.39 130.41 25.38 130.41 25.37 130.41 25.36 130.41 25.35 130.41 25.34 130.41 25.34 130.4 25.35 130.4 25.34 130.4 25.33 130.4 25.32 130.4 25.31 130.4 25.3 130.4 25.29 130.4 25.28 130.4 25.27 130.4 25.26 130.4 25.25 130.4 25.24 130.4 25.24 130.41 25.23 130.41 25.22 130.41 25.21 130.41 25.2 130.41 25.19 130.41 25.18 130.41 25.18 130.42 25.17 130.42 25.17 130.43 25.17 130.44 25.18 130.44 25.19 130.44 25.2 130.44 25.2 130.43 25.21 130.44 25.22 130.44 25.23 130.44 25.21 130.44 25.21 130.45 25.2 130.45 25.21 130.45 25.2 130.45 25.19 130.45 25.2 130.46 25.22 130.46 25.22 130.45 25.22 130.46 25.21 130.46 25.21 130.47 25.2 130.47 25.19 130.47 25.18 130.47 25.18 130.48 25.17 130.48 25.17 130.49 25.16 130.49 25.15 130.49 25.15 130.5 25.15 130.51 25.14 130.51 25.14 130.52 25.15 130.52 25.17 130.52 25.19 130.52 25.19 130.53 25.2 130.53 25.21 130.53 25.2 130.53 25.2 130.54 25.21 130.54 25.22 130.54 25.23 130.54 25.25 130.54 25.26 130.54 25.27 130.54 25.28 130.54 25.29 130.54"/>
<path d="M 26.02 130.55 26.03 130.55 26.02 130.55"/>
<path d="M 29.15 130.56 29.13 130.56 29.13 130.55 29.14 130.55 29.15 130.55 29.15 130.56"/>
<path d="M 25.89 130.56 25.87 130.56 25.87 130.55 25.88 130.55 25.89 130.56"/>
<path d="M 25.86 130.56 25.85 130.56 25.85 130.55 25.86 130.55 25.86 130.56"/>
<path d="M 25.94 130.56 25.93 130.56 25.93 130.55 25.95 130.55 25.96 130.55 25.95 130.55 25.93 130.55 25.94 130.56"/>
<path d="M 26.84 130.57 26.85 130.57 26.84 130.57"/>
<path d="M 25.96 130.58 25.95 130.58 25.96 130.58"/>
<path d="M 25.84 130.58 25.82 130.58 25.83 130.58 25.84 130.58"/>
<path d="M 25.86 130.59 25.85 130.59 25.85 130.58 25.86 130.58 25.86 130.57 25.87 130.57 25.88 130.57 25.9 130.57 25.89 130.57 25.88 130.57 25.87 130.57 25.87 130.56 25.89 130.56 25.9 130.56 25.9 130.55 25.91 130.55 25.91 130.56 25.9 130.56 25.89 130.56 25.9 130.56 25.9 130.57 25.92 130.57 25.92 130.56 25.94 130.56 25.97 130.56 25.96 130.56 25.96 130.57 25.95 130.57 25.94 130.57 25.93 130.57 25.93 130.58 25.92 130.58 25.91 130.58 25.9 130.58 25.88 130.58 25.88 130.59 25.86 130.59"/>
<path d="M 25.8 130.59 25.79 130.59 25.8 130.59 25.83 130.59 25.82 130.59 25.8 130.59"/>
<path d="M 25.97 130.6 25.97 130.59 25.96 130.59 25.95 130.59 25.96 130.59 25.98 130.58 25.99 130.59 25.98 130.59 25.98 130.6 25.97 130.6"/>
<path d="M 26.42 130.61 26.41 130.61 26.4 130.61 26.4 130.6 26.41 130.6 26.42 130.6 26.42 130.61"/>
<path d="M 26.45 130.62 26.44 130.62 26.42 130.61 26.43 130.61 26.44 130.61 26.45 130.61 26.45 130.62"/>
<path d="M 27.01 130.72 27.01 130.71 27 130.71 26.99 130.71 26.98 130.71 26.98 130.7 26.97 130.7 26.96 130.7 26.94 130.7 26.93 130.7 26.92 130.7 26.91 130.7 26.87 130.7 26.86 130.7 26.85 130.7 26.84 130.7 26.83 130.7 26.82 130.69 26.83 130.69 26.84 130.69 26.85 130.68 26.85 130.69 26.87 130.69 26.88 130.69 26.89 130.69 26.89 130.68 26.88 130.68 26.88 130.67 26.89 130.67 26.9 130.67 26.91 130.67 26.92 130.67 26.94 130.67 26.94 130.68 26.96 130.67 26.97 130.67 26.98 130.67 26.99 130.67 26.98 130.66 26.97 130.66 26.96 130.65 26.95 130.65 26.94 130.65 26.93 130.65 26.92 130.65 26.91 130.65 26.9 130.65 26.9 130.64 26.9 130.63 26.91 130.63 26.9 130.63 26.9 130.62 26.89 130.63 26.88 130.63 26.87 130.63 26.86 130.63 26.85 130.63 26.84 130.63 26.83 130.64 26.82 130.64 26.8 130.64 26.79 130.64 26.79 130.63 26.78 130.63 26.77 130.63 26.76 130.62 26.75 130.62 26.75 130.63 26.74 130.63 26.73 130.63 26.73 130.62 26.72 130.62 26.71 130.62 26.7 130.62 26.69 130.61 26.68 130.61 26.67 130.61 26.66 130.61 26.65 130.61 26.64 130.61 26.63 130.61 26.62 130.61 26.62 130.6 26.61 130.6 26.6 130.6 26.59 130.6 26.58 130.6 26.57 130.6 26.57 130.59 26.58 130.59 26.59 130.6 26.6 130.6 26.61 130.6 26.62 130.6 26.62 130.59 26.64 130.59 26.64 130.58 26.65 130.58 26.66 130.58 26.66 130.59 26.67 130.59 26.68 130.59 26.71 130.59 26.72 130.59 26.74 130.59 26.74 130.6 26.75 130.6 26.75 130.59 26.76 130.59 26.77 130.59 26.77 130.58 26.78 130.59 26.8 130.59 26.81 130.58 26.83 130.58 26.84 130.58 26.85 130.58 26.86 130.58 26.86 130.59 26.86 130.6 26.86 130.61 26.86 130.6 26.87 130.6 26.87 130.61 26.88 130.6 26.89 130.6 26.89 130.59 26.9 130.59 26.89 130.59 26.9 130.59 26.9 130.58 26.91 130.58 26.92 130.57 26.93 130.57 26.93 130.58 26.92 130.58 26.91 130.58 26.91 130.59 26.9 130.6 26.91 130.6 26.91 130.61 26.92 130.61 26.92 130.62 26.93 130.62 26.94 130.62 26.95 130.62 26.95 130.63 26.96 130.63 26.97 130.63 26.96 130.63 26.97 130.62 26.98 130.62 26.99 130.61 26.99 130.62 27 130.62 27.01 130.62 27.02 130.62 27.03 130.62 27.05 130.62 27.05 130.63 27.07 130.63 27.07 130.64 27.08 130.64 27.09 130.64 27.1 130.64 27.1 130.65 27.11 130.65 27.12 130.65 27.11 130.65 27.1 130.66 27.1 130.65 27.1 130.66 27.09 130.66 27.1 130.66 27.11 130.66 27.12 130.66 27.13 130.66 27.15 130.66 27.16 130.66 27.16 130.67 27.15 130.67 27.14 130.67 27.13 130.67 27.12 130.68 27.12 130.69 27.12 130.71 27.11 130.71 27.1 130.71 27.09 130.71 27.06 130.71 27.05 130.71 27.04 130.71 27.04 130.72 27.03 130.72 27.02 130.72 27.01 130.72"/>
<path d="M 27.31 130.72 27.3 130.72 27.31 130.72 27.32 130.72 27.31 130.72"/>
<path d="M 27.4 130.72 27.39 130.71 27.41 130.71 27.41 130.72 27.4 130.72"/>
<path d="M 27.31 130.73 27.3 130.73 27.29 130.73 27.3 130.73 27.31 130.73"/>
<path d="M 27.51 130.74 27.5 130.74 27.51 130.74"/>
<path d="M 26.45 130.53 26.46 130.53 26.46 130.52 26.47 130.52 26.48 130.52 26.5 130.52 26.51 130.52 26.52 130.52 26.53 130.52 26.56 130.52 26.57 130.52 26.58 130.51 26.6 130.51 26.61 130.51 26.63 130.51 26.64 130.51 26.65 130.51 26.66 130.51 26.69 130.51 26.7 130.5 26.71 130.5 26.74 130.5 26.73 130.5 26.73 130.49 26.74 130.49 26.75 130.49 26.76 130.49 26.78 130.49 26.8 130.49 26.82 130.49 26.83 130.49 26.84 130.49 26.85 130.49 26.86 130.48 26.87 130.48 26.89 130.48 26.9 130.48 26.91 130.48 26.92 130.48 26.93 130.48 26.96 130.48 26.97 130.48 27.01 130.48 27.01 130.49 27.02 130.49 27.03 130.48 27.03 130.49 27.04 130.49 27.05 130.49 27.07 130.49 27.09 130.49 27.14 130.49 27.15 130.49 27.15 130.5 27.16 130.5 27.19 130.5 27.2 130.5 27.21 130.5 27.22 130.5 27.23 130.5 27.23 130.51 27.24 130.51 27.25 130.51 27.27 130.51 27.27 130.52 27.25 130.52 27.24 130.52 27.23 130.52 27.22 130.52 27.21 130.52 27.2 130.52 27.19 130.52 27.17 130.53 27.18 130.53 27.19 130.53 27.19 130.54 27.18 130.54 27.2 130.54 27.21 130.54 27.22 130.54 27.23 130.54 27.23 130.55 27.22 130.55 27.21 130.55 27.2 130.55 27.18 130.55 27.17 130.55 27.16 130.55 27.16 130.56 27.17 130.56 27.18 130.57 27.19 130.57 27.2 130.57 27.21 130.58 27.22 130.58 27.23 130.58 27.22 130.59 27.23 130.59 27.23 130.6 27.24 130.6 27.25 130.6 27.26 130.6 27.26 130.61 27.25 130.61 27.24 130.61 27.24 130.62 27.25 130.62 27.26 130.62 27.25 130.62 27.24 130.62 27.24 130.63 27.22 130.63 27.22 130.64 27.24 130.64 27.25 130.64 27.26 130.64 27.25 130.64 27.26 130.65 27.27 130.65 27.26 130.65 27.24 130.65 27.23 130.65 27.22 130.65 27.21 130.66 27.2 130.66 27.18 130.66 27.17 130.66 27.16 130.66 27.17 130.67 27.18 130.67 27.18 130.68 27.2 130.68 27.21 130.68 27.22 130.68 27.22 130.69 27.22 130.68 27.21 130.68 27.2 130.69 27.21 130.7 27.2 130.7 27.18 130.7 27.16 130.7 27.17 130.7 27.16 130.7 27.15 130.7 27.16 130.71 27.17 130.71 27.18 130.71 27.19 130.71 27.21 130.71 27.22 130.71 27.23 130.71 27.26 130.71 27.27 130.71 27.26 130.72 27.25 130.72 27.24 130.72 27.22 130.72 27.21 130.72 27.2 130.72 27.19 130.72 27.17 130.72 27.16 130.72 27.17 130.72 27.16 130.73 27.15 130.73 27.14 130.73 27.13 130.73 27.12 130.73 27.11 130.73 27.1 130.73 27.09 130.73 27.07 130.73 27.05 130.73 27.04 130.73 27.03 130.73 27.02 130.73 27.02 130.74 27.01 130.74 26.99 130.74 26.98 130.74 26.97 130.74 26.96 130.74 26.95 130.74 26.94 130.74 26.93 130.74 26.93 130.73 26.91 130.73 26.9 130.73 26.89 130.73 26.88 130.73 26.88 130.72 26.86 130.73 26.85 130.73 26.82 130.73 26.81 130.73 26.8 130.73 26.79 130.74 26.79 130.75 26.8 130.75 26.8 130.76 26.81 130.76 26.82 130.76 26.82 130.77 26.81 130.77 26.8 130.77 26.79 130.77 26.77 130.77 26.76 130.77 26.76 130.78 26.75 130.78 26.76 130.78 26.74 130.79"/>
<path d="M 26.74 130.79 26.73 130.78 26.71 130.78 26.72 130.78 26.71 130.77 26.7 130.77 26.69 130.77 26.67 130.77 26.67 130.78 26.66 130.78 26.65 130.78 26.64 130.78 26.64 130.77 26.65 130.77 26.64 130.77 26.64 130.76 26.64 130.75 26.65 130.75 26.65 130.74 26.66 130.74 26.65 130.74 26.65 130.73 26.64 130.73 26.65 130.73 26.66 130.73 26.66 130.74 26.69 130.74 26.7 130.73 26.71 130.73 26.71 130.72 26.72 130.72 26.73 130.72 26.74 130.72 26.74 130.71 26.75 130.71 26.75 130.7 26.74 130.7 26.75 130.7 26.75 130.69 26.74 130.69 26.73 130.69 26.74 130.69 26.74 130.68 26.75 130.68 26.77 130.68 26.77 130.67 26.78 130.67 26.77 130.67 26.77 130.66 26.76 130.66 26.75 130.66 26.74 130.66 26.73 130.66 26.72 130.66 26.71 130.66 26.71 130.67 26.7 130.67 26.69 130.67 26.68 130.67 26.66 130.68 26.66 130.67 26.67 130.67 26.68 130.67 26.68 130.66 26.68 130.65 26.67 130.64 26.66 130.64 26.67 130.64 26.66 130.64 26.66 130.63 26.65 130.63 26.65 130.64 26.64 130.63 26.63 130.63 26.62 130.63 26.6 130.62 26.59 130.62 26.58 130.62 26.57 130.62 26.56 130.62 26.54 130.62 26.52 130.62 26.51 130.63 26.5 130.63 26.49 130.63 26.47 130.63 26.46 130.63 26.45 130.64 26.44 130.64 26.43 130.64 26.43 130.65 26.44 130.65 26.43 130.65 26.42 130.65 26.41 130.65 26.4 130.65 26.4 130.66 26.39 130.67 26.38 130.67 26.37 130.67 26.38 130.67 26.38 130.68 26.37 130.68"/>
<path d="M 27.4 130.83 27.41 130.83 27.4 130.83 27.4 130.82 27.41 130.82 27.41 130.81 27.43 130.81 27.43 130.82 27.44 130.82 27.44 130.83 27.43 130.83 27.42 130.83 27.4 130.83"/>
<path d="M 26.37 130.68 26.36 130.68 26.35 130.68 26.34 130.68 26.33 130.68 26.33 130.67 26.34 130.67 26.34 130.66 26.35 130.65 26.36 130.65 26.36 130.64 26.35 130.64 26.34 130.64 26.34 130.63 26.34 130.62 26.35 130.62 26.35 130.61 26.34 130.61 26.34 130.6 26.33 130.6 26.34 130.61 26.32 130.61 26.31 130.61 26.29 130.61 26.3 130.61 26.29 130.61 26.29 130.6 26.3 130.6 26.31 130.6 26.31 130.59 26.32 130.59 26.33 130.59 26.33 130.58 26.32 130.58 26.32 130.57 26.31 130.57 26.3 130.57 26.3 130.58 26.31 130.58 26.3 130.58 26.29 130.58 26.28 130.59 26.28 130.58 26.29 130.58 26.29 130.57 26.26 130.57 26.27 130.57 26.26 130.57 26.25 130.57 26.23 130.57 26.22 130.57 26.21 130.57 26.19 130.57 26.18 130.57 26.18 130.56 26.19 130.56 26.2 130.56 26.19 130.55 26.19 130.56 26.17 130.56 26.16 130.56 26.15 130.56 26.13 130.57 26.12 130.56 26.12 130.57 26.13 130.57 26.14 130.57 26.13 130.57 26.12 130.57 26.12 130.58 26.1 130.58 26.09 130.58 26.08 130.57 26.07 130.57 26.08 130.57 26.09 130.56 26.08 130.56 26.07 130.56 26.08 130.56 26.08 130.55 26.07 130.55 26.06 130.55 26.05 130.55 26.05 130.56 26.06 130.56 26.05 130.56 26.06 130.56 26.05 130.56 26.03 130.56 26.03 130.57 26.02 130.57 26.01 130.57 26 130.57 25.98 130.57 25.97 130.57 25.95 130.57 25.95 130.58 25.96 130.58 25.97 130.58 25.98 130.58 25.99 130.57 26 130.57 26 130.58 26.01 130.58 26 130.58 25.99 130.58 25.99 130.59 25.99 130.6 26 130.6 26.01 130.6 26.02 130.6 26.02 130.59 26.01 130.59 26 130.59 26.02 130.59 26.02 130.58 26.01 130.58 26.02 130.58 26.04 130.58 26.05 130.58 26.05 130.57 26.04 130.57 26.04 130.58 26.04 130.57 26.02 130.57 26.03 130.57 26.04 130.57 26.06 130.57 26.06 130.58 26.07 130.58 26.06 130.58 26.06 130.59 26.05 130.59 26.04 130.59 26.03 130.59 26.04 130.6 26.02 130.6 26.01 130.6 25.99 130.61 26 130.61 25.98 130.61 25.97 130.61 25.96 130.61 25.95 130.61 25.94 130.61 25.93 130.61 25.92 130.61 25.91 130.61 25.9 130.61 25.91 130.62 25.92 130.62 25.91 130.62 25.88 130.62 25.88 130.63 25.89 130.63 25.92 130.63 25.91 130.63 25.92 130.63 25.93 130.63 25.94 130.63 25.94 130.64 25.95 130.64 25.94 130.64 25.93 130.64 25.93 130.65 25.92 130.65 25.91 130.65 25.89 130.66 25.88 130.66 25.87 130.65 25.86 130.65 25.85 130.65 25.84 130.65 25.83 130.65 25.83 130.64 25.82 130.64 25.8 130.64 25.8 130.65 25.79 130.65 25.79 130.66 25.77 130.66 25.76 130.65 25.75 130.65 25.74 130.65 25.73 130.65 25.72 130.65 25.71 130.65 25.68 130.65 25.67 130.65 25.67 130.66 25.65 130.66 25.63 130.66 25.62 130.66 25.6 130.66 25.59 130.66 25.58 130.66 25.57 130.66 25.55 130.66 25.54 130.66 25.53 130.66 25.52 130.66 25.51 130.66 25.51 130.65 25.5 130.66 25.49 130.66 25.49 130.65 25.48 130.65 25.48 130.66 25.47 130.66 25.46 130.66 25.45 130.66 25.44 130.66 25.43 130.66 25.4 130.66 25.39 130.66 25.38 130.66 25.37 130.66 25.36 130.67 25.35 130.67 25.32 130.67 25.31 130.67 25.29 130.67 25.28 130.67 25.24 130.67 25.22 130.66 25.21 130.66 25.2 130.66 25.19 130.66 25.18 130.66 25.17 130.66 25.16 130.66 25.15 130.66 25.14 130.66 25.13 130.66 25.12 130.66 25.11 130.66 25.1 130.66 25.09 130.66 25.08 130.66 25.07 130.65 25.06 130.65 25.05 130.65 25.02 130.65 25.01 130.65 25 130.65 24.99 130.65 24.97 130.66 24.96 130.66 24.95 130.66 24.94 130.66 24.93 130.66 24.92 130.67 24.9 130.67 24.91 130.67 24.92 130.68 24.93 130.68 24.92 130.68 24.92 130.69 24.93 130.69 24.93 130.7 24.94 130.7 24.94 130.71 24.95 130.72 24.94 130.72 24.94 130.73 24.95 130.73 24.95 130.74 24.95 130.75 24.96 130.75 24.97 130.75 24.98 130.75 24.98 130.76 24.99 130.76 24.99 130.77 25 130.77 25 130.78 25.01 130.78 25.02 130.79 25.02 130.8 25.03 130.8 25.03 130.81 25.04 130.81 25.03 130.81 25.03 130.82 25.04 130.82 25.04 130.83 25.05 130.83 25.06 130.84 25.07 130.84 25.07 130.85 25.08 130.85 25.09 130.85 25.09 130.86 25.1 130.86 25.11 130.86"/>
<path d="M 27.08 130.86 27.09 130.86 27.1 130.86 27.11 130.85 27.12 130.85 27.13 130.85 27.14 130.85 27.15 130.85 27.16 130.85 27.17 130.85 27.18 130.84 27.19 130.84 27.2 130.84 27.21 130.84 27.23 130.83 27.24 130.83 27.26 130.83 27.28 130.83 27.28 130.82 27.29 130.82 27.3 130.82 27.31 130.82 27.32 130.81 27.33 130.81 27.34 130.81 27.35 130.81 27.35 130.8 27.35 130.79 27.34 130.79 27.34 130.78 27.33 130.78 27.33 130.77 27.32 130.77 27.32 130.75 27.31 130.74 27.3 130.74 27.29 130.73 27.28 130.73 27.27 130.73 27.29 130.73 27.28 130.73 27.28 130.72 27.27 130.72 27.27 130.71 27.28 130.71 27.29 130.71 27.3 130.71 27.31 130.71 27.32 130.71 27.33 130.71 27.34 130.71 27.35 130.71 27.36 130.71 27.37 130.71 27.38 130.71 27.39 130.71 27.41 130.71 27.42 130.71 27.45 130.71 27.44 130.71 27.43 130.71 27.43 130.72 27.44 130.72 27.43 130.72 27.43 130.73 27.44 130.73 27.47 130.72 27.48 130.73 27.49 130.73 27.5 130.73 27.51 130.73 27.52 130.73 27.52 130.74 27.52 130.75 27.54 130.74 27.55 130.74 27.56 130.73 27.56 130.72 27.57 130.72 27.57 130.73 27.58 130.73 27.59 130.73 27.59 130.74 27.59 130.75 27.58 130.75 27.58 130.76 27.57 130.77 27.56 130.77 27.55 130.77 27.54 130.77 27.53 130.77 27.52 130.77 27.51 130.78 27.51 130.79 27.5 130.79 27.5 130.8 27.51 130.8 27.51 130.81 27.5 130.81 27.5 130.82 27.51 130.82 27.54 130.82 27.55 130.82 27.56 130.82 27.57 130.82 27.59 130.82 27.6 130.82 27.6 130.81 27.61 130.81 27.61 130.8 27.62 130.8 27.63 130.8 27.64 130.79 27.65 130.79 27.66 130.79 27.66 130.78 27.67 130.78 27.68 130.78 27.69 130.78 27.69 130.77 27.7 130.77 27.71 130.77 27.71 130.76 27.7 130.76 27.71 130.76 27.72 130.76 27.73 130.75 27.75 130.75 27.75 130.76 27.76 130.76 27.76 130.75 27.77 130.75 27.78 130.75 27.78 130.74 27.79 130.74 27.8 130.74 27.81 130.74 27.81 130.73 27.82 130.73 27.83 130.72 27.84 130.72 27.85 130.72 27.84 130.72 27.84 130.73 27.85 130.73 27.84 130.74 27.85 130.74 27.86 130.74 27.86 130.73 27.87 130.73 27.88 130.73 27.9 130.73 27.91 130.73 27.93 130.73 27.93 130.74 27.94 130.74 27.97 130.74 27.99 130.74 28 130.74 28.01 130.74 28.01 130.73 28.02 130.73 28.03 130.73 28.03 130.72 28.04 130.72 28.04 130.73 28.06 130.73 28.05 130.73 28.07 130.72 28.08 130.72 28.08 130.73 28.09 130.73 28.1 130.73 28.11 130.73 28.12 130.73 28.13 130.73 28.15 130.73 28.17 130.73 28.19 130.73 28.19 130.74 28.2 130.74 28.22 130.74 28.25 130.74 28.27 130.74 28.28 130.74 28.29 130.73 28.3 130.73 28.31 130.73 28.32 130.73 28.34 130.73 28.35 130.73 28.35 130.72 28.36 130.72 28.37 130.72 28.38 130.72 28.38 130.71 28.41 130.71 28.41 130.72 28.42 130.72 28.43 130.72 28.44 130.72 28.45 130.72 28.45 130.71 28.46 130.71 28.47 130.71 28.49 130.71 28.49 130.7 28.51 130.7 28.52 130.7 28.53 130.71 28.54 130.71 28.54 130.7 28.55 130.7 28.57 130.7 28.58 130.7 28.61 130.7 28.62 130.7 28.63 130.7 28.64 130.69 28.66 130.69 28.67 130.7 28.68 130.69 28.69 130.69 28.7 130.69 28.71 130.68 28.72 130.68 28.73 130.68 28.74 130.68 28.74 130.67 28.75 130.67 28.76 130.67 28.77 130.67 28.78 130.66 28.79 130.66 28.8 130.65 28.81 130.65 28.83 130.65 28.84 130.65 28.84 130.64 28.86 130.64 28.86 130.63 28.87 130.63 28.88 130.63 28.88 130.62 28.89 130.62 28.89 130.61 28.9 130.61 28.91 130.61 28.92 130.61 28.93 130.61 28.94 130.6 28.95 130.6 28.96 130.6 28.98 130.6 28.98 130.59 28.99 130.59 29 130.59 29.01 130.59 29.02 130.59 29.03 130.59 29.04 130.58 29.05 130.58 29.06 130.58 29.07 130.58 29.06 130.58 29.06 130.57 29.07 130.57 29.08 130.57 29.09 130.56 29.1 130.56 29.11 130.56 29.12 130.56 29.12 130.55 29.13 130.55 29.15 130.55 29.16 130.55 29.17 130.55 29.17 130.54 29.18 130.53 29.19 130.53 29.2 130.53 29.21 130.52"/>
<path d="M 28.27 130.96 28.26 130.96 28.27 130.96"/>
<path d="M 27.97 130.98 27.96 130.98 27.96 130.97 27.97 130.97 27.97 130.98"/>
<path d="M 25.11 130.86 25.12 130.86 25.13 130.87 25.14 130.87 25.15 130.87 25.16 130.87 25.17 130.87 25.17 130.88 25.18 130.88 25.18 130.89 25.19 130.89 25.2 130.89 25.2 130.9 25.21 130.9 25.22 130.9 25.22 130.91 25.23 130.91 25.24 130.91 25.25 130.91 25.25 130.92 25.26 130.92 25.27 130.92 25.28 130.92 25.29 130.92 25.29 130.93 25.3 130.93 25.31 130.93 25.32 130.93 25.32 130.94 25.33 130.94 25.34 130.94 25.34 130.95 25.35 130.95 25.36 130.95 25.37 130.96 25.38 130.96 25.39 130.96 25.41 130.96 25.42 130.97 25.43 130.96 25.43 130.97 25.44 130.97 25.47 130.97 25.48 130.97 25.49 130.97 25.5 130.97 25.5 130.98 25.52 130.98 25.53 130.98 25.54 130.98 25.55 130.98 25.56 130.98 25.59 130.98 25.6 130.98 25.61 130.98 25.64 130.99 25.65 130.99 25.66 130.99 25.67 130.99 25.69 130.99 25.7 130.99 25.71 130.99 25.72 130.99 25.73 131 25.75 131 25.76 131 25.78 131 25.79 131 25.8 131 25.83 131 25.85 131 25.86 131 25.87 131 25.89 131 25.9 131 25.91 131 25.93 131 25.94 131 25.95 131 25.96 131 25.98 131 26 131 26.01 131 26.02 131 26.03 131 26.04 130.99 26.05 130.99 26.07 130.99 26.08 130.99 26.1 130.99 26.12 130.98 26.15 130.98 26.16 130.98 26.19 130.98 26.2 130.98 26.21 130.98 26.21 130.97 26.22 130.97 26.24 130.97 26.25 130.97 26.26 130.96 26.27 130.96 26.28 130.96 26.29 130.96 26.3 130.96 26.31 130.96 26.32 130.96 26.33 130.95 26.34 130.95 26.35 130.95 26.36 130.95 26.4 130.94 26.4 130.95 26.41 130.95 26.42 130.95 26.42 130.94 26.44 130.94 26.45 130.94 26.46 130.95 26.47 130.95 26.48 130.95 26.5 130.95 26.51 130.95 26.52 130.95 26.53 130.95 26.54 130.95 26.55 130.95 26.57 130.94 26.58 130.94 26.6 130.94 26.61 130.94 26.63 130.94 26.63 130.93 26.64 130.93 26.65 130.93 26.66 130.93 26.68 130.92 26.69 130.92 26.72 130.93 26.73 130.93 26.75 130.93 26.76 130.93 26.77 130.93 26.77 130.94 26.78 130.94 26.79 130.94 26.8 130.94 26.8 130.93 26.81 130.93 26.81 130.92 26.84 130.92 26.85 130.92 26.88 130.92 26.89 130.92 26.9 130.92 26.92 130.92 26.93 130.92 26.94 130.91 26.95 130.9 26.96 130.9 26.97 130.9 26.98 130.9 26.99 130.9 26.99 130.89 27 130.88 26.99 130.88 26.99 130.87 26.98 130.87 26.98 130.86 26.99 130.86 26.99 130.87 26.99 130.86 27 130.86 27.01 130.86 27.01 130.85 27.01 130.84 27.02 130.84 27.03 130.84 27.04 130.84 27.04 130.85 27.03 130.85 27.02 130.85 27.02 130.86 27.03 130.86 27.04 130.86 27.05 130.86 27.05 130.85 27.06 130.85 27.07 130.86 27.08 130.86"/>
<path d="M 29.12 131.48 29.11 131.48 29.1 131.48 29.09 131.48 29.08 131.47 29.07 131.47 29.06 131.47 29.05 131.47 29.05 131.46 29.03 131.46 29.03 131.45 29.02 131.45 29.01 131.44 29.01 131.42 29 131.41 29 131.4 28.99 131.4 28.99 131.39 28.99 131.38 28.99 131.37 29 131.37 29.01 131.37 29.01 131.36 29.01 131.35 29.01 131.34 29 131.33 28.99 131.32 28.99 131.31 28.99 131.3 28.99 131.29 28.98 131.29 28.97 131.29 28.96 131.29 28.96 131.28 28.95 131.28 28.94 131.28 28.93 131.28 28.93 131.27 28.92 131.27 28.91 131.26 28.9 131.26 28.89 131.26 28.88 131.26 28.86 131.25 28.85 131.25 28.85 131.24 28.84 131.24 28.84 131.23 28.83 131.22 28.83 131.21 28.83 131.2 28.82 131.2 28.82 131.19 28.82 131.18 28.82 131.17 28.81 131.16 28.82 131.16 28.82 131.15 28.83 131.15 28.83 131.14 28.84 131.13 28.85 131.12 28.84 131.12 28.84 131.11 28.84 131.1 28.84 131.09 28.85 131.09 28.86 131.09 28.87 131.09 28.88 131.09 28.89 131.09 28.9 131.09 28.91 131.09 28.92 131.09 28.93 131.09 28.94 131.09 28.95 131.1 28.96 131.09 28.96 131.1 28.97 131.1 28.98 131.1 28.98 131.11 28.97 131.11 28.96 131.11 28.96 131.12 28.95 131.12 28.94 131.12 28.94 131.13 28.93 131.13 28.93 131.14 28.94 131.14 28.95 131.15 28.96 131.16 28.96 131.17 28.97 131.17 28.96 131.17 28.96 131.18 28.96 131.19 28.95 131.19 28.96 131.19 28.95 131.19 28.95 131.2 28.94 131.2 28.94 131.21 28.92 131.21 28.94 131.21 28.94 131.22 28.95 131.22 28.94 131.22 28.95 131.22 28.95 131.23 28.96 131.23 28.97 131.24 28.96 131.24 28.98 131.24 28.99 131.24 28.99 131.25 29 131.25 29.01 131.26 29.02 131.26 29.03 131.27 29.04 131.28 29.05 131.29 29.06 131.3 29.07 131.31 29.07 131.32 29.08 131.32 29.08 131.33 29.07 131.33 29.06 131.33 29.06 131.34 29.05 131.34 29.04 131.34 29.04 131.35 29.04 131.36 29.05 131.36 29.06 131.38 29.07 131.39 29.06 131.4 29.06 131.41 29.07 131.42 29.08 131.43 29.09 131.43 29.1 131.44 29.1 131.45 29.11 131.45 29.11 131.46 29.1 131.46 29.09 131.46 29.1 131.47 29.09 131.47 29.1 131.47 29.12 131.47 29.12 131.48"/>
<path d="M 25.2 131.69 25.2 131.68 25.21 131.68 25.2 131.69"/>
<path d="M 29.02 131.01 29.01 131.02 29 131.02 29 131.03 28.99 131.04 28.98 131.04 28.98 131.03 28.97 131.03 28.96 131.03 28.95 131.04 28.94 131.04 28.95 131.04 28.95 131.05 28.96 131.05 28.97 131.05 28.97 131.06 28.98 131.06 28.98 131.07 28.99 131.07 28.99 131.08 28.99 131.09 28.98 131.09 28.97 131.09 28.96 131.09 28.94 131.09 28.93 131.09 28.92 131.09 28.91 131.09 28.9 131.09 28.89 131.09 28.88 131.09 28.86 131.09 28.86 131.08 28.85 131.08 28.85 131.07 28.84 131.06 28.83 131.06 28.83 131.05 28.82 131.05 28.83 131.05 28.82 131.05 28.82 131.04 28.81 131.03 28.8 131.03 28.79 131.03 28.78 131.03 28.78 131.02 28.77 131.03 28.76 131.03 28.76 131.02 28.75 131.02 28.74 131.02 28.73 131.02 28.72 131.02 28.72 131.01 28.71 131.01 28.7 131.01 28.67 131.01 28.63 131.01 28.62 131.01 28.61 131.01 28.61 131 28.6 131 28.59 131 28.58 131 28.57 130.99 28.56 130.99 28.55 130.99 28.55 130.98 28.56 130.98 28.54 130.98 28.53 130.98 28.52 130.98 28.5 130.98 28.5 130.97 28.49 130.97 28.48 130.97 28.47 130.97 28.46 130.96 28.45 130.96 28.44 130.96 28.43 130.96 28.42 130.96 28.41 130.96 28.4 130.96 28.39 130.96 28.39 130.97 28.38 130.97 28.36 130.97 28.35 130.97 28.34 130.97 28.33 130.97 28.32 130.98 28.31 130.98 28.3 130.98 28.29 130.98 28.28 130.98 28.27 130.97 28.26 130.97 28.25 130.97 28.24 130.97 28.23 130.97 28.21 130.98 28.2 130.98 28.19 130.98 28.18 130.98 28.17 130.98 28.17 130.97 28.16 130.97 28.16 130.96 28.15 130.96 28.14 130.96 28.13 130.96 28.12 130.96 28.11 130.96 28.1 130.96 28.08 130.96 28.07 130.96 28.06 130.96 28.05 130.96 28.04 130.96 28.03 130.96 28.02 130.96 28.01 130.96 28 130.96 28 130.97 27.99 130.97 27.98 130.97 27.98 130.98 27.97 130.98 27.96 130.98 27.96 130.99 27.95 130.99 27.95 131 27.94 131 27.94 130.99 27.93 131 27.92 131 27.91 131 27.9 131 27.89 131 27.89 131.01 27.88 131.01 27.84 131.01 27.83 131.01 27.82 131.01 27.79 131.02 27.78 131.02 27.77 131.02 27.76 131.02 27.76 131.03 27.75 131.03 27.74 131.04 27.73 131.04 27.72 131.04 27.72 131.05 27.71 131.05 27.7 131.06 27.69 131.06 27.68 131.06 27.68 131.07 27.67 131.07 27.67 131.08 27.67 131.09 27.67 131.1 27.68 131.1 27.68 131.11 27.69 131.11 27.7 131.11 27.7 131.12 27.71 131.12 27.72 131.13 27.73 131.13 27.74 131.14 27.75 131.14 27.76 131.15 27.77 131.15 27.77 131.16 27.78 131.17 27.79 131.17 27.79 131.18 27.79 131.19 27.8 131.19 27.8 131.2 27.79 131.2 27.78 131.2 27.78 131.21 27.77 131.21 27.76 131.21 27.76 131.22 27.75 131.22 27.75 131.23 27.74 131.23 27.73 131.23 27.72 131.24 27.71 131.24 27.7 131.24 27.69 131.24 27.68 131.24 27.68 131.25 27.67 131.25 27.66 131.25 27.66 131.26 27.65 131.26 27.65 131.27 27.64 131.27 27.63 131.27 27.63 131.28 27.62 131.28 27.62 131.29 27.63 131.3 27.64 131.3 27.65 131.31 27.66 131.31 27.67 131.31 27.67 131.32 27.68 131.32 27.69 131.32 27.7 131.33 27.71 131.33 27.71 131.34 27.72 131.34 27.73 131.34 27.73 131.35 27.74 131.35 27.74 131.36 27.75 131.36 27.76 131.36 27.75 131.36 27.76 131.36 27.76 131.37 27.77 131.37 27.77 131.38 27.79 131.38 27.79 131.39 27.8 131.39 27.81 131.4 27.82 131.4 27.83 131.4 27.83 131.41 27.84 131.41 27.84 131.42 27.85 131.43 27.86 131.43 27.85 131.43 27.86 131.44 27.87 131.45 27.88 131.46 27.89 131.47 27.9 131.47 27.9 131.48 27.91 131.48 27.91 131.49 27.92 131.49 27.92 131.5 27.92 131.51 27.92 131.52 27.92 131.53 27.92 131.54 27.93 131.54 27.93 131.55 27.93 131.56 27.94 131.56 27.94 131.57 27.95 131.57 27.95 131.58 27.96 131.58 27.96 131.59 27.97 131.59 27.97 131.6 27.97 131.61 27.96 131.62 27.96 131.63 27.97 131.63 27.97 131.64 27.96 131.64 27.96 131.65 27.94 131.65 27.95 131.66 27.95 131.67 27.96 131.67 27.97 131.67 27.97 131.68 27.98 131.68 27.99 131.68 27.99 131.69 28 131.69 28.01 131.69"/>
<path d="M 27.66 131.72 27.66 131.71 27.65 131.71 27.65 131.7 27.65 131.69 27.65 131.68 27.64 131.68 27.63 131.68 27.63 131.67 27.62 131.67 27.62 131.66 27.61 131.65 27.61 131.64 27.61 131.63 27.61 131.62 27.61 131.61 27.61 131.6 27.6 131.6 27.6 131.59 27.6 131.58 27.62 131.58 27.62 131.57 27.61 131.57 27.6 131.57 27.59 131.57 27.59 131.56 27.57 131.56 27.56 131.56 27.55 131.56 27.54 131.56 27.54 131.55 27.53 131.55 27.53 131.54 27.52 131.53 27.51 131.53 27.51 131.52 27.5 131.52 27.49 131.51 27.49 131.5 27.48 131.5 27.48 131.49 27.48 131.48 27.47 131.48 27.47 131.47 27.46 131.47 27.45 131.47 27.44 131.46 27.43 131.46 27.42 131.46 27.41 131.46 27.41 131.45 27.4 131.44 27.39 131.44 27.38 131.44 27.38 131.43 27.37 131.43 27.36 131.42 27.35 131.42 27.34 131.42 27.34 131.41 27.33 131.41 27.32 131.4 27.31 131.4 27.31 131.39 27.3 131.39 27.29 131.38 27.29 131.37 27.28 131.37 27.27 131.37 27.26 131.36 27.25 131.34 27.24 131.34 27.24 131.33 27.24 131.32 27.23 131.32 27.23 131.31 27.22 131.3 27.22 131.29 27.22 131.28 27.22 131.27 27.22 131.26 27.22 131.25 27.22 131.24 27.22 131.23 27.22 131.22 27.22 131.21 27.21 131.19 27.2 131.18 27.19 131.18 27.19 131.17 27.18 131.17 27.17 131.17 27.16 131.17 27.15 131.17 27.13 131.17 27.11 131.17 27.1 131.17 27.09 131.17 27.08 131.17 27.08 131.16 27.07 131.16 27.06 131.16 27.05 131.15 27.04 131.15 27.03 131.15 27.02 131.15 27.01 131.16 27 131.16 26.99 131.16 26.98 131.16 26.97 131.16 26.96 131.16 26.94 131.16 26.93 131.16 26.93 131.17 26.93 131.19 26.92 131.19 26.91 131.19 26.9 131.19 26.89 131.2 26.87 131.2 26.86 131.2 26.85 131.2 26.85 131.21 26.83 131.21 26.82 131.21 26.8 131.21 26.78 131.21 26.78 131.22 26.77 131.22 26.76 131.22 26.75 131.22 26.75 131.23 26.74 131.23 26.73 131.23 26.72 131.23 26.72 131.24 26.71 131.24 26.7 131.24 26.69 131.24 26.69 131.25 26.68 131.25 26.66 131.25 26.65 131.26 26.64 131.26 26.63 131.26 26.62 131.26 26.61 131.26 26.6 131.26 26.59 131.26 26.57 131.26 26.57 131.27 26.56 131.27 26.56 131.26 26.55 131.26 26.55 131.27 26.54 131.27 26.53 131.27 26.51 131.28 26.5 131.28 26.49 131.28 26.48 131.28 26.47 131.28 26.46 131.28 26.45 131.28 26.41 131.28 26.4 131.28 26.39 131.28 26.38 131.28 26.37 131.29 26.35 131.29 26.34 131.29 26.33 131.29 26.32 131.29 26.31 131.29 26.3 131.29 26.29 131.29 26.29 131.3 26.28 131.3 26.26 131.31 26.25 131.31 26.24 131.31 26.23 131.31 26.22 131.32 26.21 131.32 26.2 131.32 26.19 131.33 26.18 131.33 26.18 131.34 26.17 131.34 26.16 131.35 26.16 131.36 26.15 131.36 26.14 131.37 26.14 131.38 26.13 131.38 26.12 131.39 26.11 131.39 26.11 131.4 26.1 131.4 26.09 131.41 26.08 131.41 26.07 131.42 26.06 131.42 26.05 131.42 26.04 131.42 26.03 131.42 26.02 131.43 26.01 131.43 26 131.43 25.99 131.43 25.98 131.44 25.97 131.44 25.93 131.44 25.91 131.44 25.88 131.45 25.87 131.45 25.86 131.45 25.85 131.45 25.84 131.46 25.83 131.46 25.82 131.46 25.81 131.46 25.81 131.47 25.8 131.47 25.79 131.47 25.79 131.48 25.78 131.48 25.76 131.48 25.76 131.49 25.75 131.49 25.74 131.49 25.74 131.5 25.73 131.5 25.72 131.5 25.72 131.51 25.71 131.51 25.7 131.51 25.7 131.52 25.69 131.52 25.68 131.52 25.68 131.53 25.67 131.53 25.66 131.53 25.66 131.54 25.65 131.54 25.64 131.54 25.63 131.54 25.62 131.54 25.61 131.54 25.6 131.54 25.59 131.54 25.58 131.54 25.57 131.54 25.56 131.55 25.56 131.56 25.55 131.56 25.55 131.57 25.54 131.57 25.52 131.57 25.5 131.57 25.5 131.58 25.49 131.59 25.48 131.59 25.47 131.59 25.45 131.59 25.45 131.6 25.44 131.6 25.43 131.6 25.42 131.6 25.41 131.61 25.4 131.61 25.39 131.61 25.38 131.61 25.37 131.61 25.36 131.61 25.35 131.61 25.35 131.62 25.34 131.62 25.33 131.62 25.32 131.62 25.32 131.63 25.31 131.63 25.29 131.63 25.27 131.63 25.26 131.64 25.25 131.64 25.25 131.65 25.25 131.66 25.24 131.66 25.23 131.66 25.23 131.67 25.22 131.67 25.21 131.67 25.2 131.67 25.19 131.68 25.19 131.69 25.2 131.69 25.19 131.69 25.18 131.69 25.18 131.7 25.18 131.71 25.17 131.71 25.16 131.71 25.16 131.72 25.14 131.72 25.14 131.73 25.13 131.73 25.12 131.73 25.11 131.73 25.1 131.73 25.09 131.73 25.09 131.74 25.08 131.74 25.07 131.74 25.07 131.75 25.06 131.76 25.05 131.76 25.04 131.76 25.03 131.77"/>
<path d="M 28.01 131.69 28.01 131.7 28.02 131.7 28.02 131.71 28.02 131.72 28.03 131.73 28.03 131.74 28.04 131.74 28.04 131.75 28.05 131.75 28.06 131.76 28.07 131.76 28.07 131.77 28.08 131.77 28.09 131.78 28.09 131.79 28.09 131.8 28.1 131.81 28.11 131.82 28.12 131.83 28.13 131.84 28.13 131.85 28.14 131.86 28.14 131.87 28.13 131.87 28.12 131.87 28.12 131.88 28.12 131.89 28.13 131.89 28.13 131.9 28.15 131.9 28.14 131.9 28.15 131.9 28.16 131.91 28.16 131.92 28.16 131.93 28.15 131.93 28.15 131.94 28.15 131.95 28.16 131.94 28.17 131.94 28.17 131.95 28.18 131.95 28.18 131.96 28.2 131.96 28.21 131.96 28.21 131.97 28.22 131.97 28.23 131.97 28.24 131.98 28.25 131.99 28.26 131.99 28.27 131.99 28.27 132 28.29 132 28.3 132 28.31 132 28.31 132.01 28.32 132.01 28.33 132.01 28.33 132.02 28.34 132.02 28.35 132.02 28.35 132.03 28.36 132.03 28.37 132.04 28.38 132.04 28.39 132.05 28.39 132.06 28.39 132.07 28.4 132.07 28.41 132.08 28.4 132.09 28.4 132.1 28.4 132.11 28.41 132.11 28.41 132.12 28.4 132.12 28.41 132.13 28.41 132.14 28.42 132.14 28.42 132.15 28.43 132.15 28.43 132.16 28.44 132.16 28.45 132.16 28.45 132.17 28.46 132.17 28.47 132.17 28.47 132.18 28.48 132.18 28.49 132.18 28.49 132.19 28.49 132.2 28.49 132.21 28.5 132.21 28.5 132.22 28.51 132.23 28.52 132.23 28.53 132.23 28.53 132.24 28.54 132.24 28.55 132.25 28.56 132.25 28.57 132.25 28.57 132.26 28.58 132.26 28.59 132.27 28.59 132.28 28.59 132.29 28.59 132.3 28.59 132.31 28.59 132.32 28.6 132.33 28.59 132.33 28.6 132.33 28.61 132.33 28.61 132.34 28.62 132.34 28.62 132.35 28.63 132.35 28.63 132.36 28.62 132.37 28.63 132.37 28.63 132.38 28.64 132.39 28.65 132.4 28.66 132.4 28.66 132.41 28.67 132.41 28.67 132.42 28.68 132.42 28.68 132.43 28.68 132.44 28.67 132.43 28.68 132.44 28.67 132.45 28.66 132.45 28.66 132.46 28.65 132.46 28.65 132.47 28.64 132.47 28.64 132.48 28.63 132.48 28.63 132.47 28.62 132.47 28.61 132.47 28.61 132.48 28.61 132.49 28.61 132.48 28.62 132.48 28.65 132.48 28.66 132.48 28.68 132.48 28.69 132.48 28.7 132.48 28.73 132.48 28.76 132.47 28.77 132.47 28.78 132.47 28.79 132.47 28.81 132.47 28.81 132.46 28.82 132.46 28.83 132.46 28.84 132.46 28.85 132.46 28.85 132.45 28.86 132.45 28.87 132.46 28.88 132.46 28.89 132.46 28.9 132.46 28.9 132.47 28.91 132.47 28.92 132.47 28.93 132.47 28.94 132.46 28.95 132.46 28.96 132.46 28.96 132.45 28.97 132.45 28.98 132.45 28.98 132.44 28.99 132.44 29 132.44 29.01 132.44 29.02 132.44 29.03 132.44 29.04 132.44 29.06 132.44 29.07 132.44 29.1 132.44 29.12 132.44 29.13 132.45 29.14 132.44 29.14 132.45 29.15 132.45 29.16 132.46 29.17 132.46 29.18 132.46 29.22 132.46 29.22 132.47 29.23 132.47 29.24 132.47 29.24 132.48 29.27 132.48 29.28 132.48 29.29 132.48 29.32 132.48 29.33 132.48 29.33 132.49 29.34 132.48 29.35 132.48 29.37 132.49 29.38 132.49 29.39 132.49 29.4 132.49 29.41 132.49 29.42 132.49 29.43 132.49 29.43 132.5 29.44 132.5 29.45 132.5 29.46 132.5 29.46 132.51 29.47 132.51 29.48 132.51 29.49 132.51 29.49 132.52 29.5 132.52 29.51 132.53 29.52 132.53 29.53 132.53 29.53 132.54 29.54 132.54 29.54 132.55 29.55 132.55 29.56 132.55 29.57 132.55 29.57 132.56 29.58 132.57 29.58 132.58 29.59 132.58 29.58 132.58 29.57 132.59 29.56 132.59 29.57 132.59 29.57 132.6 29.57 132.61 29.58 132.61"/>
<path d="M 28.75 133.12 28.76 133.11 28.76 133.1 28.77 133.1 28.78 133.1 28.78 133.09 28.8 133.09 28.81 133.09 28.82 133.08 28.83 133.08 28.83 133.07 28.85 133.07 28.87 133.06 28.88 133.06 28.89 133.06 28.91 133.06 28.93 133.05 28.96 133.05 28.97 133.05 28.97 133.04 28.98 133.04 28.98 133.03 28.98 133.02 28.99 133.01 28.99 133 29 133 29 132.99 29 132.98 29 132.97 29 132.96 29.01 132.95 29.01 132.94 29 132.94 28.99 132.94 28.98 132.93 28.97 132.93 28.97 132.92 28.96 132.92 28.95 132.92 28.94 132.92 28.94 132.91 28.93 132.91 28.93 132.9 28.92 132.9 28.91 132.89 28.9 132.89 28.9 132.87 28.89 132.87 28.88 132.87 28.88 132.86 28.87 132.86 28.86 132.86 28.85 132.85 28.84 132.85 28.83 132.84 28.83 132.83 28.82 132.83 28.81 132.83 28.81 132.82 28.8 132.81 28.79 132.81 28.78 132.8 28.77 132.79 28.77 132.78 28.76 132.78 28.76 132.77 28.75 132.76 28.74 132.76 28.74 132.75 28.74 132.74 28.73 132.74 28.72 132.73 28.71 132.73 28.71 132.72 28.7 132.72 28.69 132.72 28.69 132.71 28.68 132.71 28.67 132.71 28.66 132.7 28.65 132.7 28.64 132.7 28.64 132.69 28.63 132.69 28.63 132.68 28.62 132.68 28.61 132.68 28.6 132.67 28.59 132.67 28.58 132.67 28.57 132.67 28.57 132.66 28.56 132.66 28.55 132.66 28.55 132.65 28.54 132.65 28.54 132.64 28.53 132.64 28.53 132.63 28.52 132.63 28.51 132.63 28.51 132.62 28.5 132.62 28.49 132.62 28.49 132.61 28.48 132.61 28.48 132.6 28.47 132.6 28.46 132.59 28.45 132.59 28.45 132.58 28.44 132.58 28.43 132.57 28.42 132.56 28.41 132.56 28.41 132.55 28.4 132.55 28.4 132.54 28.39 132.52 28.39 132.51 28.39 132.5 28.38 132.5 28.38 132.49 28.37 132.49 28.37 132.48 28.36 132.48 28.35 132.48 28.34 132.48 28.33 132.49 28.31 132.49 28.3 132.49 28.29 132.49 28.27 132.49 28.27 132.5 28.23 132.5 28.23 132.49 28.22 132.49 28.21 132.48 28.21 132.47 28.2 132.47 28.2 132.46 28.19 132.46 28.19 132.45 28.2 132.45 28.19 132.45 28.19 132.44 28.19 132.43 28.2 132.43 28.21 132.43 28.21 132.42 28.22 132.42 28.23 132.42 28.23 132.41 28.24 132.41 28.25 132.41 28.26 132.4 28.27 132.4 28.28 132.4 28.29 132.4 28.3 132.39 28.32 132.39 28.32 132.38 28.32 132.37 28.32 132.36 28.31 132.36 28.31 132.35 28.3 132.35 28.3 132.34 28.29 132.34 28.29 132.33 28.28 132.33 28.28 132.32 28.28 132.31 28.27 132.3 28.26 132.3 28.25 132.29 28.24 132.28 28.24 132.26 28.23 132.26 28.23 132.25 28.22 132.25 28.21 132.25 28.2 132.24 28.2 132.23 28.19 132.23 28.19 132.2 28.18 132.2 28.18 132.19 28.18 132.18 28.17 132.18 28.17 132.17 28.16 132.16 28.15 132.16 28.14 132.15 28.13 132.15 28.12 132.14 28.12 132.13 28.11 132.13 28.12 132.13 28.11 132.12 28.1 132.12 28.07 132.12 28.06 132.12 28.06 132.11 28.05 132.11 28.04 132.11 28.03 132.11 28.03 132.1 28.02 132.1 28.01 132.1 28 132.09 27.99 132.09 27.98 132.09 27.97 132.08 27.96 132.08 27.95 132.08 27.94 132.08 27.94 132.07 27.93 132.07 27.92 132.07 27.91 132.07 27.9 132.07 27.89 132.07 27.88 132.06 27.87 132.06 27.86 132.06 27.84 132.06 27.84 132.05 27.83 132.05 27.82 132.05 27.81 132.04 27.8 132.03 27.79 132.02 27.78 132.01 27.77 132.01 27.77 132 27.77 131.99 27.78 131.99 27.79 131.99 27.79 131.98 27.78 131.98 27.77 131.98 27.77 131.97 27.77 131.96 27.78 131.96 27.77 131.95 27.77 131.94 27.77 131.93 27.76 131.93 27.77 131.92 27.77 131.91 27.76 131.91 27.76 131.9 27.76 131.89 27.77 131.88 27.78 131.88 27.78 131.87 27.79 131.86 27.79 131.85 27.79 131.84 27.79 131.83 27.78 131.83 27.79 131.83 27.8 131.82 27.79 131.82 27.79 131.81 27.78 131.81 27.77 131.81 27.76 131.81 27.77 131.81 27.77 131.8 27.76 131.8 27.76 131.79 27.75 131.79 27.73 131.79 27.72 131.78 27.71 131.78 27.7 131.77 27.69 131.76 27.68 131.75 27.67 131.74 27.67 131.73 27.66 131.73 27.66 131.72"/>
<path d="M 29.58 132.61 29.56 132.61 29.55 132.6 29.54 132.6 29.53 132.6 29.53 132.59 29.52 132.59 29.51 132.58 29.5 132.58 29.5 132.57 29.49 132.58 29.47 132.57 29.46 132.57 29.45 132.57 29.44 132.56 29.43 132.56 29.42 132.56 29.42 132.55 29.4 132.55 29.38 132.55 29.38 132.54 29.37 132.54 29.36 132.54 29.35 132.54 29.34 132.53 29.33 132.53 29.31 132.53 29.3 132.53 29.28 132.53 29.27 132.53 29.26 132.53 29.25 132.53 29.24 132.53 29.24 132.52 29.23 132.52 29.22 132.52 29.21 132.52 29.2 132.52 29.19 132.52 29.19 132.51 29.18 132.51 29.17 132.51 29.16 132.5 29.15 132.5 29.14 132.5 29.14 132.51 29.13 132.51 29.12 132.51 29.11 132.51 29.11 132.52 29.09 132.52 29.06 132.52 29.05 132.52 29.03 132.52 29.03 132.53 29.02 132.53 29.01 132.53 29 132.53 28.98 132.53 28.97 132.54 28.96 132.54 28.95 132.54 28.95 132.55 28.94 132.55 28.93 132.55 28.92 132.55 28.92 132.56 28.91 132.56 28.9 132.56 28.89 132.56 28.88 132.57 28.87 132.57 28.86 132.57 28.85 132.57 28.84 132.57 28.82 132.58 28.81 132.58 28.81 132.59 28.82 132.59 28.83 132.6 28.84 132.6 28.85 132.61 28.85 132.62 28.86 132.62 28.87 132.62 28.88 132.63 28.89 132.63 28.89 132.64 28.9 132.64 28.91 132.64 28.91 132.65 28.92 132.65 28.93 132.65 28.93 132.66 28.94 132.66 28.94 132.67 28.95 132.67 28.95 132.68 28.96 132.68 28.96 132.69 28.97 132.69 28.97 132.7 28.98 132.7 28.98 132.71 28.99 132.71 29 132.72 29 132.73 29.01 132.73 29.01 132.74 29.02 132.74 29.03 132.74 29.03 132.75 29.04 132.76 29.04 132.77 29.04 132.78 29.05 132.78 29.06 132.78 29.06 132.79 29.08 132.79 29.09 132.8 29.09 132.81 29.09 132.82 29.09 132.83 29.1 132.83 29.1 132.84 29.11 132.85 29.12 132.85 29.13 132.85 29.14 132.85 29.15 132.85 29.15 132.86 29.16 132.86 29.16 132.87 29.16 132.88 29.16 132.89 29.17 132.89 29.17 132.9 29.18 132.9 29.19 132.9 29.19 132.91 29.2 132.91 29.21 132.92 29.21 132.93 29.21 132.94 29.22 132.95 29.23 132.95 29.23 132.96 29.24 132.96 29.24 132.97 29.25 132.98 29.24 132.99 29.23 133 29.23 133.01 29.23 133.02 29.23 133.03 29.24 133.03 29.24 133.04 29.24 133.05 29.23 133.05 29.23 133.06 29.22 133.06 29.21 133.06 29.21 133.07 29.2 133.07 29.2 133.08 29.19 133.08 29.19 133.09 29.18 133.09 29.18 133.1 29.17 133.1 29.16 133.1 29.16 133.11 29.15 133.11 29.14 133.12 29.12 133.12 29.11 133.13 29.1 133.13 29.1 133.14 29.09 133.14 29.06 133.14 29.05 133.14 29.04 133.14 29.03 133.14 29.02 133.14 29.01 133.13 29 133.13 28.99 133.13 28.97 133.13 28.95 133.14 28.92 133.14 28.91 133.14 28.9 133.15 28.89 133.15 28.88 133.16 28.87 133.16 28.86 133.17 28.85 133.17 28.84 133.17 28.83 133.17 28.82 133.17 28.82 133.16 28.82 133.17 28.81 133.17 28.82 133.17 28.83 133.18 28.84 133.18 28.84 133.19 28.83 133.19 28.83 133.2 28.82 133.2 28.81 133.21 28.81 133.22 28.82 133.22 28.82 133.23 28.83 133.23 28.83 133.24 28.84 133.24 28.83 133.25 28.82 133.25 28.81 133.25 28.81 133.26 28.8 133.27 28.79 133.27 28.79 133.28 28.78 133.28 28.77 133.28 28.76 133.28 28.75 133.28 28.74 133.28 28.73 133.27 28.72 133.25 28.72 133.24 28.71 133.24 28.71 133.23 28.71 133.22 28.72 133.21 28.73 133.21 28.73 133.2 28.74 133.2 28.75 133.2 28.74 133.19 28.74 133.18 28.73 133.18 28.72 133.17 28.73 133.17 28.75 133.17 28.76 133.17 28.77 133.16 28.76 133.16 28.75 133.16 28.74 133.16 28.74 133.15 28.75 133.15 28.75 133.14 28.75 133.13 28.74 133.13 28.74 133.12 28.75 133.12"/>
<path d="M 26.48 133.51 26.47 133.51 26.46 133.51 26.46 133.5 26.45 133.5 26.46 133.5 26.46 133.49 26.47 133.49 26.48 133.49 26.49 133.5 26.48 133.51"/>
<path d="M 27 133.61 26.99 133.61 27 133.6 27 133.61"/>
<path d="M 29.97 134.87 29.97 134.86 29.97 134.87"/>
<path d="M 30.01 134.88 29.99 134.88 29.98 134.88 29.99 134.87 30 134.87 30.01 134.87 30 134.87 30.01 134.88"/>
<path d="M 25.21 132.62 25.2 132.62 25.21 132.62"/>
<path d="M 25.21 133.16 25.2 133.16 25.21 133.15 25.21 133.16"/>
<path d="M 24.74 132.84 24.75 132.84 24.75 132.85 24.76 132.85 24.77 132.85 24.77 132.86 24.78 132.85 24.78 132.86 24.79 132.86 24.79 132.87 24.8 132.86 24.8 132.87 24.81 132.88 24.82 132.88 24.82 132.89 24.83 132.89 24.83 132.9 24.84 132.9 24.85 132.9 24.86 132.91 24.87 132.91 24.88 132.91 24.89 132.92 24.9 132.92 24.9 132.93 24.91 132.93 24.92 132.93 24.93 132.94 24.94 132.94 24.94 132.95 24.94 132.96 24.95 132.96 24.96 132.96 24.98 132.96 24.99 132.97 25 132.97 25 132.98 25.01 132.98 25.03 132.98 25.04 132.99 25.04 133 25.04 133.01 25.05 133.01 25.05 133.02 25.05 133.04 25.06 133.04 25.06 133.05 25.05 133.06 25.04 133.06 25.04 133.07 25.05 133.07 25.06 133.07 25.07 133.07 25.08 133.07 25.09 133.07 25.09 133.08 25.1 133.08 25.11 133.09 25.12 133.09 25.13 133.09 25.13 133.1 25.14 133.1 25.15 133.11 25.16 133.11 25.16 133.12 25.17 133.12 25.18 133.12 25.19 133.13 25.19 133.14 25.19 133.15 25.2 133.15 25.2 133.16 25.2 133.17 25.21 133.17 25.22 133.17 25.23 133.17 25.25 133.17 25.27 133.18 25.28 133.18 25.29 133.18 25.31 133.18 25.33 133.18 25.33 133.19 25.34 133.19 25.35 133.19 25.36 133.19 25.36 133.2 25.37 133.2 25.38 133.2 25.39 133.21 25.38 133.21 25.39 133.21 25.4 133.21 25.4 133.22 25.41 133.22 25.42 133.23 25.42 133.24 25.43 133.24 25.43 133.25 25.45 133.25 25.46 133.25 25.47 133.25 25.47 133.26 25.48 133.26 25.49 133.26 25.5 133.26 25.5 133.27 25.51 133.27 25.52 133.27 25.52 133.28 25.53 133.28 25.54 133.28 25.54 133.29 25.55 133.3 25.56 133.31 25.56 133.32 25.57 133.32 25.57 133.33 25.56 133.33 25.56 133.34 25.56 133.35 25.57 133.36 25.58 133.36 25.59 133.36 25.6 133.37 25.61 133.37 25.62 133.37 25.63 133.37 25.64 133.37 25.65 133.37 25.66 133.37 25.67 133.37 25.68 133.36 25.69 133.36 25.7 133.36 25.72 133.36 25.73 133.36 25.73 133.35 25.74 133.35 25.76 133.35 25.77 133.35 25.78 133.35 25.8 133.35 25.81 133.34 25.82 133.34 25.83 133.34 25.84 133.34 25.84 133.33 25.84 133.32 25.85 133.32 25.86 133.32 25.87 133.32 25.88 133.32 25.89 133.32 25.89 133.33 25.9 133.33 25.9 133.34 25.92 133.34 25.93 133.34 25.94 133.34 25.95 133.34 25.96 133.34 25.98 133.34 26 133.35 26.02 133.35 26.03 133.35 26.04 133.35 26.05 133.35 26.06 133.35 26.06 133.36 26.07 133.36 26.08 133.36 26.08 133.37 26.09 133.37 26.1 133.37 26.1 133.38 26.11 133.38 26.12 133.39 26.12 133.4 26.13 133.4 26.14 133.4 26.15 133.41 26.16 133.41 26.16 133.42 26.17 133.42 26.18 133.42 26.21 133.42 26.22 133.42 26.23 133.42 26.23 133.41 26.26 133.41 26.27 133.41 26.28 133.41 26.29 133.41 26.3 133.41 26.3 133.4 26.31 133.41 26.32 133.4 26.33 133.4 26.34 133.4 26.37 133.4 26.38 133.4 26.39 133.4 26.4 133.4 26.41 133.4 26.42 133.4 26.42 133.41 26.42 133.42 26.43 133.42 26.43 133.43 26.43 133.44 26.43 133.45 26.42 133.45 26.4 133.45 26.39 133.45 26.38 133.45 26.37 133.45 26.38 133.46 26.39 133.46 26.39 133.47 26.4 133.47 26.41 133.47 26.43 133.47 26.44 133.47 26.46 133.47 26.47 133.47 26.47 133.46 26.48 133.46 26.49 133.46 26.5 133.46 26.51 133.46 26.51 133.45 26.52 133.45 26.53 133.45 26.53 133.44 26.54 133.44 26.55 133.44 26.55 133.43 26.56 133.43 26.58 133.43 26.62 133.43 26.64 133.43 26.66 133.43 26.68 133.43 26.68 133.44 26.69 133.44 26.7 133.44 26.7 133.45 26.71 133.45 26.72 133.45 26.74 133.45 26.74 133.46 26.75 133.46 26.76 133.46 26.77 133.46 26.78 133.46 26.79 133.46 26.79 133.47 26.81 133.47 26.82 133.47 26.86 133.47 26.87 133.47 26.88 133.47 26.89 133.47 26.91 133.47 26.92 133.48 26.92 133.49 26.91 133.49 26.92 133.49 26.92 133.5 26.92 133.51 26.93 133.51"/>
<path d="M 26.93 133.51 26.94 133.51 26.94 133.52 26.95 133.52 26.96 133.52 26.96 133.53 26.97 133.54 26.97 133.55 26.96 133.55 26.95 133.55 26.95 133.56 26.94 133.56 26.94 133.55 26.93 133.56 26.93 133.57 26.92 133.57 26.92 133.58 26.91 133.58 26.91 133.59 26.92 133.6 26.93 133.6 26.95 133.6 26.96 133.6 26.97 133.6 26.98 133.6 26.98 133.61 26.99 133.61 26.99 133.62 27 133.62 27.01 133.62 27 133.62 26.99 133.62 26.98 133.62 26.97 133.62 26.97 133.61 26.96 133.6 26.96 133.61 26.96 133.6 26.94 133.6 26.93 133.61 26.92 133.61 26.92 133.62 26.92 133.63 26.93 133.63 26.93 133.64 26.91 133.64 26.9 133.64 26.9 133.63 26.89 133.63 26.87 133.63 26.85 133.63 26.84 133.63 26.83 133.63 26.82 133.63 26.81 133.62 26.81 133.61 26.8 133.61 26.79 133.61 26.8 133.61 26.8 133.6 26.79 133.6 26.78 133.6 26.77 133.59 26.76 133.59 26.75 133.59 26.75 133.58 26.76 133.58 26.76 133.57 26.77 133.57 26.78 133.57 26.79 133.57 26.8 133.57 26.8 133.56 26.81 133.56 26.82 133.55 26.82 133.54 26.81 133.54 26.8 133.54 26.79 133.54 26.79 133.53 26.78 133.53 26.77 133.53 26.75 133.53 26.75 133.52 26.74 133.52 26.73 133.52 26.74 133.51 26.73 133.5 26.72 133.49 26.71 133.49 26.7 133.49 26.69 133.49 26.68 133.48 26.67 133.48 26.66 133.48 26.65 133.47 26.64 133.47 26.64 133.48 26.65 133.48 26.63 133.48 26.62 133.48 26.61 133.48 26.61 133.47 26.6 133.47 26.59 133.47 26.6 133.46 26.59 133.46 26.58 133.46 26.57 133.47 26.56 133.47 26.57 133.47 26.57 133.48 26.58 133.48 26.58 133.49 26.59 133.49 26.6 133.49 26.6 133.51 26.6 133.52 26.6 133.53 26.6 133.54 26.59 133.55 26.58 133.55 26.57 133.56 26.56 133.56 26.55 133.56 26.53 133.56 26.52 133.57 26.5 133.57 26.47 133.57 26.46 133.56 26.45 133.56 26.44 133.57 26.44 133.56 26.42 133.56 26.41 133.56 26.4 133.56 26.4 133.55 26.39 133.55 26.38 133.55 26.37 133.54 26.36 133.54 26.35 133.53 26.34 133.53 26.33 133.53 26.33 133.52 26.32 133.51 26.31 133.51 26.3 133.5 26.29 133.5 26.28 133.49 26.27 133.48 26.28 133.47 26.27 133.47 26.26 133.47 26.25 133.47 26.24 133.47 26.23 133.47 26.21 133.48 26.2 133.48 26.21 133.48 26.22 133.48 26.22 133.49 26.22 133.5 26.2 133.5 26.19 133.5 26.19 133.51 26.18 133.51 26.17 133.51 26.16 133.51 26.15 133.51 26.14 133.51 26.13 133.51 26.12 133.51 26.11 133.51 26.09 133.51 26.08 133.51 26.07 133.5 26.05 133.5 26.04 133.5 26.02 133.49 26.01 133.49 26 133.49 26 133.48 25.99 133.48 25.98 133.48 25.97 133.48 25.97 133.47 25.95 133.47 25.94 133.47 25.94 133.46 25.94 133.45 25.94 133.44 25.92 133.44 25.91 133.44 25.89 133.44 25.88 133.44 25.86 133.44 25.85 133.44 25.84 133.44 25.83 133.44 25.83 133.45 25.82 133.45 25.81 133.45 25.81 133.46 25.81 133.47 25.79 133.47 25.78 133.47 25.77 133.47 25.76 133.47 25.76 133.48 25.75 133.47 25.74 133.48 25.73 133.48 25.72 133.48 25.71 133.48 25.69 133.48 25.68 133.48 25.66 133.48 25.64 133.49 25.63 133.49 25.62 133.49 25.61 133.49 25.6 133.49 25.59 133.49 25.55 133.49 25.54 133.49 25.53 133.49 25.51 133.49 25.5 133.49 25.5 133.48 25.49 133.48 25.48 133.48 25.47 133.48 25.45 133.48 25.43 133.48 25.42 133.48 25.41 133.47 25.4 133.47 25.39 133.48 25.38 133.48 25.37 133.48 25.36 133.48 25.36 133.49 25.35 133.49 25.34 133.49 25.33 133.49 25.32 133.49 25.3 133.49 25.28 133.5 25.27 133.5 25.26 133.5 25.26 133.51 25.25 133.51 25.24 133.51 25.23 133.51 25.23 133.52 25.21 133.52 25.2 133.52 25.19 133.52 25.19 133.53 25.18 133.53 25.17 133.53 25.16 133.54 25.15 133.54 25.16 133.55 25.15 133.55 25.15 133.57 25.14 133.56 25.14 133.57 25.13 133.57 25.13 133.58 25.13 133.59 25.13 133.6 25.14 133.61 25.14 133.62 25.14 133.63 25.13 133.63 25.12 133.63 25.11 133.64 25.11 133.65 25.12 133.65 25.1 133.65 25.09 133.65 25.08 133.65"/>
</g>
</svg>