<?xml version="1.0"?>
<svg xmlns="http://www.w3.org/2000/svg" version="1.2" baseProfile="tiny" width="800" height="223" viewBox="0 0 800 223" stroke-linecap="round" stroke-linejoin="round">
<g id="cd22" fill="none" stroke="black" stroke-width="0.05">
<path d="M 26.68 146.88 26.68 146.87 26.68 146.88"/>
<path d="M 28.95 146.19 28.96 146.18 28.98 146.18 28.99 146.18 29.01 146.18 29.02 146.18 29.04 146.18 29.05 146.17 29.06 146.17 29.07 146.17 29.08 146.17 29.09 146.17 29.1 146.17 29.11 146.17 29.12 146.16 29.14 146.16 29.15 146.16 29.17 146.16 29.18 146.16 29.19 146.16 29.19 146.15 29.2 146.15 29.21 146.15 29.21 146.12 29.21 146.11 29.21 146.1 29.21 146.09 29.21 146.08 29.22 146.08 29.22 146.07 29.23 146.07 29.24 146.07 29.24 146.06 29.25 146.06 29.26 146.06 29.26 146.05 29.27 146.04 29.27 146.05 29.29 146.04 29.3 146.04 29.31 146.04 29.32 146.04 29.33 146.04 29.34 146.04 29.35 146.03 29.37 146.03 29.38 146.03 29.4 146.03 29.42 146.03 29.43 146.03 29.44 146.03 29.46 146.02 29.47 146.02 29.48 146.02 29.49 146.02 29.49 146.01 29.5 146.01 29.5 146 29.51 146 29.51 145.99 29.52 145.99 29.52 145.98 29.53 145.98 29.53 145.97 29.53 145.96 29.53 145.95 29.54 145.94 29.55 145.94 29.55 145.93 29.56 145.93 29.55 145.93 29.55 145.92 29.56 145.92 29.57 145.92 29.59 145.91 29.6 145.91 29.61 145.9 29.62 145.9 29.63 145.9 29.62 145.89 29.63 145.89 29.64 145.89 29.64 145.88 29.65 145.88 29.66 145.88 29.66 145.87 29.67 145.87 29.68 145.87 29.69 145.87 29.7 145.87 29.71 145.87 29.72 145.87 29.72 145.86 29.73 145.86 29.74 145.86 29.74 145.85 29.75 145.85 29.76 145.84 29.77 145.84 29.78 145.83 29.78 145.82 29.79 145.82 29.8 145.82 29.8 145.81 29.81 145.81 29.82 145.81 29.82 145.8 29.83 145.8 29.84 145.8 29.84 145.79 29.85 145.79 29.85 145.78 29.85 145.77 29.85 145.76 29.86 145.76 29.87 145.76 29.87 145.75 29.87 145.74 29.88 145.73 29.89 145.73 29.89 145.72 29.9 145.72 29.9 145.71 29.91 145.71 29.92 145.71 29.92 145.7 29.93 145.7 29.93 145.69 29.94 145.69 29.94 145.68 29.96 145.68 29.97 145.67 29.98 145.67 29.99 145.67 30 145.67 30.03 145.67 30.04 145.67 30.04 145.66 30.05 145.66 30.06 145.66 30.07 145.66 30.06 145.66 30.06 145.67 30.07 145.67 30.07 145.68 30.08 145.68 30.08 145.69 30.07 145.69 30.08 145.69 30.07 145.69 30.07 145.7 30.06 145.7 30.05 145.7 30.05 145.71 30.04 145.71 30.03 145.71 30.02 145.71 30.01 145.71 30 145.71 30.01 145.72 30 145.72 30 145.73 29.99 145.73 29.99 145.74 29.98 145.74 29.97 145.75 29.96 145.75 29.96 145.76 29.95 145.77 29.94 145.77 29.94 145.78 29.94 145.79 29.93 145.79 29.93 145.8 29.93 145.81 29.92 145.81 29.92 145.82 29.91 145.82 29.9 145.82 29.9 145.83 29.89 145.83 29.89 145.84 29.9 145.84 29.89 145.85 29.88 145.86 29.87 145.86 29.87 145.87 29.86 145.87 29.85 145.87 29.84 145.87 29.83 145.87 29.82 145.87 29.82 145.88 29.81 145.88 29.8 145.87 29.79 145.87 29.78 145.88 29.77 145.88 29.77 145.89 29.76 145.89 29.77 145.89 29.77 145.9 29.78 145.9 29.77 145.91 29.76 145.91 29.76 145.92 29.75 145.92 29.74 145.92 29.73 145.92 29.73 145.93 29.72 145.93 29.72 145.94 29.72 145.93 29.7 145.93 29.7 145.94 29.69 145.94 29.68 145.94 29.68 145.95 29.67 145.95 29.66 145.96 29.64 145.96 29.63 145.97 29.63 145.98 29.62 145.98 29.61 145.98 29.6 145.99 29.6 146 29.6 146.02 29.6 146.03 29.59 146.03 29.58 146.03 29.57 146.03 29.57 146.04 29.56 146.04 29.55 146.05 29.54 146.05 29.54 146.06 29.53 146.06 29.53 146.07 29.52 146.07 29.51 146.07 29.5 146.07 29.49 146.08 29.49 146.07 29.48 146.08 29.47 146.08 29.45 146.09 29.43 146.09 29.42 146.09 29.41 146.09 29.4 146.1 29.41 146.1 29.4 146.1 29.41 146.1 29.41 146.11 29.4 146.11 29.4 146.12 29.4 146.13 29.41 146.13 29.41 146.14 29.41 146.15 29.41 146.16 29.41 146.17 29.41 146.18 29.4 146.19 29.4 146.2 29.41 146.21 29.4 146.21 29.4 146.22 29.41 146.22 29.41 146.23 29.42 146.23 29.43 146.23 29.43 146.24 29.44 146.24 29.45 146.24 29.46 146.25 29.47 146.25 29.48 146.25 29.5 146.25"/>
<path d="M 26.64 146.68 26.62 146.68 26.62 146.67 26.63 146.67 26.64 146.67 26.64 146.68"/>
<path d="M 26.75 146.69 26.77 146.68 26.78 146.68 26.79 146.68 26.81 146.68 26.83 146.68 26.83 146.67 26.85 146.67 26.86 146.66 26.87 146.66 26.88 146.66 26.89 146.66 26.9 146.65 26.91 146.65 26.92 146.65 26.93 146.64 26.94 146.64 26.95 146.64 26.96 146.64 26.97 146.64 26.98 146.64 27.01 146.63 27.02 146.63 27.04 146.63 27.05 146.63 27.06 146.63 27.09 146.63 27.09 146.62 27.1 146.62 27.11 146.62 27.14 146.62 27.15 146.62 27.15 146.61 27.16 146.61 27.17 146.61 27.17 146.6 27.18 146.6 27.19 146.59 27.2 146.59 27.2 146.58 27.21 146.58 27.22 146.58 27.22 146.57 27.22 146.56 27.22 146.55 27.22 146.54 27.23 146.54 27.24 146.54 27.24 146.53 27.25 146.54 27.25 146.53 27.26 146.53 27.27 146.52 27.28 146.52 27.29 146.52 27.3 146.52 27.31 146.51 27.32 146.51 27.33 146.51 27.34 146.51 27.36 146.51 27.37 146.51 27.38 146.51 27.39 146.51 27.41 146.51 27.42 146.51 27.45 146.5 27.47 146.5 27.47 146.51 27.48 146.51 27.49 146.51 27.5 146.51 27.5 146.52 27.51 146.52 27.52 146.52 27.53 146.52 27.54 146.51 27.55 146.51 27.56 146.51 27.57 146.51 27.57 146.5 27.58 146.5 27.59 146.5 27.6 146.49 27.61 146.49 27.61 146.48 27.62 146.48 27.63 146.47 27.64 146.47 27.63 146.46 27.63 146.45 27.63 146.44 27.63 146.43 27.63 146.42 27.64 146.41 27.64 146.4 27.64 146.39 27.64 146.38 27.65 146.38 27.66 146.38 27.68 146.38 27.69 146.38 27.7 146.38 27.71 146.38 27.72 146.38 27.72 146.37 27.73 146.37 27.74 146.37 27.75 146.37 27.74 146.37 27.75 146.37 27.76 146.37 27.77 146.37 27.78 146.37 27.79 146.38 27.8 146.38 27.81 146.38 27.82 146.38 27.83 146.39 27.84 146.39 27.85 146.39 27.86 146.39 27.86 146.38 27.87 146.38 27.89 146.38 27.9 146.38 27.91 146.38 27.92 146.37 27.93 146.37 27.94 146.36 27.95 146.36 27.95 146.37 27.97 146.37 27.97 146.36 27.98 146.36 27.98 146.37 27.99 146.37 28 146.37 28 146.36 28.01 146.36 28.02 146.36 28.04 146.35 28.05 146.35 28.06 146.35 28.08 146.35 28.09 146.35 28.1 146.34 28.11 146.34 28.12 146.34 28.13 146.34 28.13 146.33 28.14 146.33 28.15 146.33 28.16 146.33 28.17 146.33 28.18 146.32 28.17 146.32 28.19 146.32 28.19 146.31 28.2 146.31 28.21 146.31 28.23 146.31 28.23 146.3 28.24 146.3 28.25 146.3 28.26 146.3 28.27 146.29 28.28 146.29 28.29 146.29 28.29 146.28 28.31 146.28 28.31 146.27 28.32 146.27 28.33 146.27 28.33 146.26 28.34 146.26 28.35 146.26 28.36 146.26 28.37 146.26 28.38 146.26 28.4 146.26 28.4 146.25 28.42 146.25 28.42 146.24 28.43 146.24 28.43 146.23 28.44 146.23 28.45 146.23 28.45 146.22 28.46 146.22 28.47 146.22 28.48 146.22 28.48 146.21 28.49 146.21 28.5 146.21 28.51 146.21 28.51 146.2 28.52 146.2 28.53 146.2 28.53 146.19 28.54 146.19 28.55 146.18 28.56 146.18 28.57 146.18 28.58 146.17 28.59 146.17 28.58 146.17 28.59 146.17 28.6 146.17 28.61 146.17 28.63 146.16 28.64 146.16 28.65 146.16 28.66 146.16 28.67 146.16 28.69 146.16 28.7 146.16 28.71 146.17 28.72 146.17 28.73 146.17 28.73 146.18 28.74 146.18 28.75 146.18 28.76 146.18 28.77 146.18 28.79 146.18 28.8 146.18 28.8 146.19 28.81 146.19 28.82 146.19 28.83 146.19 28.84 146.19 28.85 146.19 28.87 146.19 28.88 146.19 28.9 146.19 28.91 146.19 28.92 146.19 28.93 146.19 28.95 146.19"/>
<path d="M 26.54 146.79 26.54 146.78 26.55 146.78 26.55 146.77 26.56 146.77 26.57 146.77 26.58 146.77 26.59 146.77 26.6 146.77 26.6 146.78 26.61 146.78 26.62 146.78 26.62 146.77 26.63 146.77 26.63 146.76 26.64 146.76 26.65 146.75 26.64 146.75 26.64 146.74 26.63 146.73 26.62 146.73 26.62 146.72 26.61 146.72 26.6 146.71 26.6 146.7 26.59 146.7 26.59 146.69 26.58 146.69 26.58 146.68 26.57 146.68 26.58 146.68 26.57 146.68 26.56 146.67 26.56 146.66 26.55 146.66 26.53 146.66 26.54 146.66 26.54 146.65 26.52 146.65 26.51 146.65 26.5 146.65 26.5 146.63 26.5 146.62 26.49 146.62 26.48 146.61 26.47 146.61 26.47 146.6 26.46 146.6 26.45 146.6 26.44 146.59 26.43 146.59 26.42 146.58 26.41 146.58 26.4 146.58 26.4 146.57 26.39 146.57 26.38 146.57 26.38 146.56 26.37 146.55 26.37 146.54 26.36 146.53 26.35 146.53 26.35 146.52 26.34 146.52 26.33 146.51 26.32 146.51 26.32 146.5 26.31 146.5 26.3 146.5 26.29 146.5 26.29 146.48 26.28 146.48 26.27 146.47 26.26 146.46 26.27 146.46 26.27 146.45 26.27 146.44 26.26 146.43 26.26 146.42 26.26 146.41 26.25 146.41 26.24 146.41 26.24 146.4 26.23 146.4 26.23 146.38 26.23 146.37 26.24 146.37 26.24 146.36 26.24 146.35 26.24 146.34 26.24 146.33 26.24 146.32 26.24 146.31 26.24 146.3 26.24 146.29 26.24 146.28 26.24 146.27 26.23 146.27 26.23 146.26 26.22 146.26 26.22 146.25 26.21 146.25 26.21 146.24 26.2 146.24 26.2 146.23 26.19 146.23 26.19 146.22 26.18 146.22 26.18 146.21 26.17 146.21 26.17 146.2 26.16 146.2 26.16 146.19 26.15 146.18 26.14 146.18 26.14 146.17 26.13 146.17 26.13 146.15 26.12 146.15 26.12 146.14 26.12 146.13 26.12 146.12 26.12 146.11 26.12 146.1 26.11 146.1 26.11 146.09 26.11 146.08 26.12 146.08 26.12 146.07 26.13 146.07 26.15 146.07 26.16 146.07 26.16 146.08 26.17 146.08 26.17 146.09 26.17 146.1 26.18 146.1 26.19 146.1 26.18 146.11 26.19 146.12 26.19 146.13 26.2 146.13 26.2 146.14 26.2 146.15 26.21 146.15 26.21 146.16 26.22 146.16 26.22 146.17 26.23 146.17 26.23 146.18 26.24 146.18 26.25 146.19 26.25 146.2 26.26 146.21 26.27 146.21 26.27 146.22 26.28 146.22 26.28 146.23 26.27 146.23 26.28 146.24 26.27 146.24 26.27 146.25 26.28 146.26 26.28 146.27 26.29 146.27 26.28 146.27 26.29 146.27 26.29 146.28 26.3 146.28 26.31 146.29 26.32 146.29 26.31 146.3 26.31 146.31 26.32 146.31 26.32 146.32 26.33 146.32 26.33 146.33 26.34 146.33 26.34 146.34 26.35 146.34 26.35 146.35 26.34 146.36 26.34 146.37 26.33 146.37 26.32 146.37 26.31 146.37 26.31 146.36 26.3 146.36 26.29 146.36 26.29 146.37 26.28 146.37 26.28 146.38 26.28 146.39 26.29 146.39 26.29 146.4 26.3 146.42 26.3 146.43 26.3 146.44 26.31 146.44 26.31 146.45 26.32 146.45 26.33 146.45 26.33 146.46 26.34 146.46 26.34 146.47 26.35 146.47 26.35 146.46 26.36 146.46 26.37 146.46 26.37 146.47 26.38 146.47 26.39 146.47 26.39 146.48 26.4 146.49 26.41 146.5 26.42 146.51 26.43 146.51 26.43 146.52 26.44 146.53 26.45 146.53 26.45 146.54 26.46 146.53 26.46 146.54 26.47 146.54 26.48 146.54 26.48 146.55 26.49 146.55 26.5 146.56 26.51 146.56 26.52 146.57 26.52 146.58 26.51 146.58 26.51 146.59 26.51 146.6 26.51 146.61 26.52 146.61 26.52 146.62 26.53 146.62 26.54 146.62 26.55 146.62 26.55 146.63 26.56 146.63 26.57 146.63 26.58 146.64 26.59 146.64 26.59 146.65 26.6 146.65 26.61 146.65 26.62 146.65 26.63 146.66 26.64 146.66 26.65 146.66 26.66 146.66 26.67 146.67 26.68 146.67 26.68 146.68 26.69 146.68 26.71 146.68 26.72 146.68 26.73 146.68 26.74 146.68 26.75 146.68 26.75 146.69"/>
<path d="M 29.49 146.85 29.49 146.84 29.5 146.84 29.51 146.83 29.51 146.82 29.52 146.82 29.52 146.8 29.51 146.79 29.51 146.78 29.51 146.77 29.51 146.76 29.51 146.75 29.51 146.74 29.52 146.73 29.52 146.72 29.52 146.71 29.53 146.71 29.52 146.71 29.53 146.71 29.53 146.7 29.54 146.7 29.55 146.69 29.56 146.69 29.55 146.69 29.55 146.68 29.56 146.68 29.57 146.67 29.58 146.67 29.58 146.66 29.59 146.66 29.6 146.66 29.6 146.65 29.61 146.64 29.62 146.64 29.63 146.63 29.64 146.63 29.64 146.62 29.66 146.62 29.65 146.61 29.66 146.61 29.67 146.6 29.68 146.6 29.69 146.59 29.7 146.59 29.7 146.58 29.71 146.58 29.71 146.57 29.7 146.56 29.69 146.56 29.69 146.55 29.68 146.55 29.67 146.54 29.66 146.54 29.65 146.54 29.64 146.54 29.64 146.53 29.63 146.53 29.62 146.53 29.61 146.53 29.61 146.52 29.6 146.52 29.59 146.52 29.58 146.51 29.57 146.51 29.56 146.5 29.55 146.5 29.54 146.5 29.54 146.49 29.53 146.49 29.52 146.49 29.51 146.48 29.5 146.48 29.49 146.47 29.48 146.47 29.47 146.47 29.46 146.47 29.45 146.46 29.44 146.46 29.43 146.46 29.41 146.46 29.4 146.46 29.39 146.45 29.38 146.45 29.37 146.45 29.37 146.44 29.36 146.44 29.35 146.44 29.34 146.44 29.34 146.43 29.33 146.43 29.32 146.43 29.32 146.42 29.31 146.42 29.31 146.41 29.3 146.41 29.3 146.4 29.29 146.4 29.28 146.4 29.27 146.4 29.26 146.4 29.25 146.4 29.24 146.4 29.23 146.4 29.21 146.4 29.2 146.39 29.19 146.4 29.18 146.39 29.17 146.39 29.16 146.39 29.15 146.39 29.15 146.38 29.14 146.38 29.13 146.38 29.13 146.37 29.12 146.37 29.11 146.37 29.1 146.36 29.09 146.36 29.08 146.36 29.07 146.36 29.07 146.35 29.06 146.34 29.05 146.34 29.04 146.34 29.03 146.34 29.01 146.34 29 146.33 28.98 146.33 28.97 146.33 28.96 146.33 28.95 146.33 28.94 146.33 28.94 146.34 28.93 146.34 28.93 146.33 28.92 146.33 28.91 146.33 28.9 146.33 28.87 146.33 28.86 146.33 28.85 146.34 28.85 146.35 28.85 146.36 28.84 146.36 28.83 146.36 28.82 146.36 28.81 146.36 28.81 146.37 28.81 146.38 28.81 146.39 28.8 146.39 28.79 146.39 28.78 146.39 28.77 146.4 28.76 146.4 28.75 146.4 28.76 146.41 28.73 146.41 28.73 146.42 28.72 146.42 28.71 146.42 28.7 146.42 28.69 146.42 28.7 146.43 28.69 146.43 28.69 146.44 28.68 146.44 28.67 146.45 28.66 146.45 28.65 146.45 28.66 146.46 28.65 146.47 28.65 146.48 28.64 146.48 28.62 146.48 28.62 146.49 28.61 146.49 28.6 146.49 28.6 146.5 28.59 146.5 28.58 146.5 28.57 146.5 28.57 146.51 28.56 146.52 28.55 146.53 28.54 146.53 28.53 146.52 28.51 146.53 28.49 146.53 28.48 146.53 28.48 146.54 28.47 146.54 28.48 146.55 28.47 146.55 28.47 146.56 28.46 146.56 28.46 146.57 28.45 146.57 28.45 146.58 28.44 146.58 28.43 146.58 28.44 146.58 28.43 146.58 28.43 146.59 28.44 146.59 28.44 146.6 28.44 146.61 28.43 146.61 28.43 146.62 28.41 146.62 28.41 146.63 28.4 146.63 28.4 146.64 28.4 146.65 28.39 146.65 28.39 146.66 28.39 146.67 28.39 146.68 28.39 146.7 28.38 146.7 28.38 146.71 28.38 146.72 28.37 146.72 28.37 146.73 28.36 146.73 28.36 146.74 28.36 146.75 28.35 146.75 28.33 146.75 28.31 146.75 28.31 146.76 28.3 146.76 28.29 146.76 28.28 146.76 28.27 146.76 28.26 146.76 28.26 146.77 28.25 146.77 28.23 146.77 28.22 146.77 28.21 146.77 28.2 146.78 28.19 146.78 28.18 146.78 28.18 146.79 28.17 146.79 28.15 146.79 28.15 146.8 28.14 146.8 28.13 146.8 28.12 146.8 28.11 146.8 28.09 146.8 28.09 146.81 28.08 146.81 28.06 146.81 28.05 146.81 28.06 146.81 28.03 146.81 28.04 146.81 28.04 146.82 28.03 146.82 28.03 146.83 28.01 146.83 27.99 146.83 27.98 146.83 27.95 146.83 27.94 146.83 27.93 146.84 27.91 146.84 27.9 146.84 27.89 146.84 27.88 146.84 27.88 146.85 27.85 146.85 27.84 146.85 27.83 146.85 27.82 146.86"/>
<path d="M 26.53 146.87 26.52 146.87 26.51 146.87 26.51 146.86 26.52 146.86 26.53 146.86 26.54 146.85 26.55 146.86 26.56 146.86 26.55 146.86 26.54 146.86 26.54 146.87 26.53 146.87"/>
<path d="M 25.71 146.88 25.69 146.88 25.68 146.88 25.69 146.87 25.7 146.88 25.71 146.88"/>
<path d="M 25.73 146.89 25.72 146.89 25.73 146.89"/>
<path d="M 25.72 146.9 25.71 146.89 25.72 146.89 25.72 146.9"/>
<path d="M 25.84 146.91 25.83 146.91 25.84 146.91"/>
<path d="M 26.63 146.92 26.63 146.91 26.62 146.9 26.61 146.9 26.61 146.89 26.6 146.89 26.6 146.9 26.59 146.9 26.59 146.89 26.58 146.89 26.57 146.89 26.57 146.87 26.58 146.86 26.59 146.86 26.61 146.86 26.61 146.87 26.62 146.87 26.63 146.87 26.64 146.87 26.66 146.87 26.66 146.86 26.67 146.86 26.67 146.87 26.68 146.87 26.69 146.87 26.69 146.88 26.68 146.88 26.69 146.88 26.69 146.89 26.69 146.9 26.68 146.9 26.68 146.91 26.68 146.92 26.64 146.92 26.63 146.92"/>
<path d="M 27.26 146.99 27.25 146.99 27.26 146.99"/>
<path d="M 25.88 147.01 25.87 147.01 25.88 147.01"/>
<path d="M 26.14 147.05 26.13 147.05 26.14 147.05 26.15 147.05 26.14 147.05"/>
<path d="M 26.16 147.07 26.16 147.06 26.16 147.05 26.17 147.05 26.17 147.06 26.16 147.06 26.17 147.06 26.16 147.07"/>
<path d="M 27.22 147.09 27.21 147.09 27.22 147.08 27.22 147.09"/>
<path d="M 27.12 147.1 27.13 147.1 27.14 147.09 27.15 147.09 27.14 147.09 27.14 147.1 27.13 147.1 27.12 147.1"/>
<path d="M 27.13 147.12 27.13 147.11 27.14 147.11 27.14 147.1 27.15 147.1 27.16 147.09 27.16 147.08 27.17 147.08 27.18 147.08 27.18 147.07 27.17 147.07 27.18 147.07 27.19 147.07 27.19 147.06 27.21 147.06 27.21 147.07 27.2 147.07 27.2 147.08 27.2 147.09 27.19 147.09 27.18 147.09 27.18 147.1 27.17 147.1 27.16 147.11 27.15 147.11 27.13 147.12"/>
<path d="M 25.82 147.28 25.83 147.28 25.83 147.27 25.83 147.26 25.84 147.25 25.85 147.24 25.86 147.24 25.86 147.23 25.87 147.23 25.88 147.23 25.89 147.23 25.92 147.23 25.93 147.22 25.94 147.22 25.95 147.22 25.96 147.22 26 147.22 26.01 147.22 26.01 147.21 26.02 147.21 26.03 147.21 26.03 147.2 26.05 147.2 26.07 147.2 26.08 147.19 26.09 147.19 26.1 147.19 26.11 147.19 26.11 147.18 26.12 147.18 26.13 147.18 26.14 147.18 26.15 147.18 26.16 147.18 26.16 147.17 26.17 147.17 26.18 147.17 26.18 147.16 26.18 147.15 26.19 147.15 26.2 147.15 26.2 147.14 26.19 147.14 26.2 147.14 26.2 147.13 26.19 147.13 26.19 147.12 26.18 147.11 26.17 147.11 26.17 147.1 26.16 147.1 26.16 147.09 26.15 147.09 26.15 147.08 26.16 147.08 26.15 147.08 26.14 147.08 26.15 147.07 26.14 147.07 26.14 147.06 26.13 147.06 26.12 147.06 26.12 147.05 26.11 147.05 26.11 147.04 26.1 147.04 26.09 147.03 26.08 147.03 26.09 147.03 26.09 147.04 26.08 147.04 26.06 147.04 26.05 147.04 26.04 147.04 26.02 147.04 26.01 147.04 26.01 147.03 26 147.03 25.99 147.03 25.99 147.02 25.98 147.02 25.97 147.02 25.97 147.01 25.96 147.01 25.95 147.02 25.94 147.02 25.93 147.02 25.92 147.01 25.92 147 25.91 147 25.9 147 25.89 147 25.89 147.01 25.9 147.02 25.88 147.02 25.9 147.02 25.89 147.02 25.89 147.03 25.88 147.03 25.88 147.02 25.87 147.02 25.86 147.02 25.86 147.01 25.85 147.01 25.84 147.01 25.84 147 25.83 147 25.82 147 25.81 147 25.81 146.99 25.8 146.99 25.8 146.98 25.79 146.98 25.79 146.97 25.78 146.97 25.78 146.96 25.77 146.96 25.76 146.95 25.75 146.95 25.74 146.95 25.74 146.94 25.73 146.93 25.72 146.93 25.72 146.92 25.71 146.92 25.71 146.91 25.7 146.91 25.69 146.91 25.68 146.91 25.68 146.9 25.67 146.9 25.66 146.9 25.66 146.89 25.65 146.89 25.64 146.89 25.63 146.89 25.63 146.88 25.62 146.87 25.63 146.87 25.63 146.86 25.62 146.85 25.62 146.84 25.61 146.84 25.61 146.83 25.6 146.83 25.61 146.83 25.62 146.83 25.64 146.83 25.65 146.83 25.66 146.84 25.68 146.84 25.69 146.85 25.7 146.85 25.7 146.86 25.71 146.86 25.72 146.86 25.72 146.87 25.73 146.87 25.73 146.88 25.74 146.88 25.75 146.88 25.75 146.89 25.76 146.89 25.76 146.9 25.77 146.9 25.78 146.9 25.79 146.9 25.8 146.91 25.81 146.91 25.83 146.91 25.82 146.91 25.82 146.9 25.84 146.9 25.85 146.9 25.85 146.89 25.84 146.88 25.86 146.88 25.87 146.88 25.88 146.88 25.89 146.88 25.9 146.88 25.91 146.88 25.92 146.88 25.93 146.88 25.94 146.88 25.95 146.88 25.96 146.88 25.97 146.88 25.97 146.87 25.99 146.87 25.99 146.86 26 146.86 26.01 146.86 26.05 146.86 26.06 146.86 26.06 146.85 26.07 146.85 26.07 146.84 26.07 146.83 26.07 146.82 26.07 146.81 26.06 146.81 26.06 146.8 26.06 146.79 26.05 146.79 26.06 146.79 26.06 146.78 26.07 146.78 26.07 146.77 26.06 146.77 26.06 146.76 26.05 146.76 26.05 146.77 26.05 146.76 26.04 146.76 26.04 146.75 26.03 146.75 26.03 146.74 26.03 146.75 26.02 146.75 26.01 146.75 26.02 146.75 26.02 146.74 26.03 146.74 26.04 146.74 26.05 146.74 26.04 146.74 26.04 146.73 26.05 146.73 26.06 146.72 26.07 146.72 26.08 146.72 26.09 146.72 26.1 146.73 26.12 146.73 26.13 146.73 26.14 146.73 26.14 146.74 26.15 146.74 26.16 146.74 26.17 146.74 26.17 146.75 26.18 146.75 26.19 146.75 26.2 146.75 26.21 146.76 26.22 146.76 26.24 146.76 26.24 146.75 26.25 146.75 26.26 146.75 26.27 146.75 26.28 146.76 26.29 146.77 26.29 146.78 26.3 146.78 26.33 146.78 26.34 146.79 26.34 146.8 26.35 146.8 26.36 146.81 26.36 146.82 26.37 146.82 26.38 146.82 26.38 146.83 26.39 146.83 26.4 146.84 26.41 146.84 26.41 146.83 26.41 146.84 26.42 146.84 26.44 146.84 26.45 146.84 26.46 146.84 26.47 146.84 26.48 146.84 26.48 146.83 26.47 146.83 26.46 146.82 26.47 146.81 26.48 146.81 26.5 146.81 26.51 146.81 26.52 146.81 26.52 146.8 26.53 146.8 26.53 146.79 26.54 146.79"/>
<path d="M 25.81 147.42 25.81 147.41 25.82 147.41 25.82 147.42 25.81 147.42"/>
<path d="M 25.84 147.43 25.83 147.43 25.83 147.42 25.83 147.43 25.84 147.43"/>
<path d="M 25.84 147.44 25.83 147.44 25.84 147.44"/>
<path d="M 27.82 146.86 27.8 146.86 27.79 146.86 27.77 146.86 27.76 146.86 27.75 146.86 27.74 146.86 27.72 146.86 27.7 146.86 27.69 146.87 27.67 146.87 27.66 146.87 27.64 146.87 27.63 146.87 27.62 146.87 27.61 146.87 27.6 146.87 27.59 146.87 27.58 146.87 27.57 146.87 27.57 146.88 27.57 146.87 27.55 146.87 27.54 146.87 27.54 146.86 27.53 146.86 27.53 146.87 27.52 146.87 27.51 146.87 27.5 146.87 27.49 146.87 27.48 146.87 27.47 146.88 27.47 146.87 27.46 146.87 27.45 146.87 27.44 146.87 27.43 146.87 27.43 146.86 27.42 146.86 27.4 146.86 27.39 146.87 27.38 146.87 27.38 146.86 27.37 146.86 27.36 146.86 27.36 146.85 27.35 146.85 27.34 146.85 27.33 146.85 27.32 146.85 27.31 146.85 27.3 146.85 27.29 146.85 27.28 146.85 27.27 146.85 27.26 146.85 27.24 146.85 27.23 146.85 27.23 146.86 27.21 146.86 27.22 146.86 27.22 146.87 27.21 146.87 27.2 146.87 27.2 146.88 27.2 146.9 27.21 146.9 27.21 146.91 27.21 146.92 27.2 146.92 27.21 146.92 27.21 146.93 27.22 146.93 27.21 146.94 27.22 146.94 27.23 146.95 27.24 146.95 27.25 146.96 27.26 146.96 27.26 146.97 27.25 146.97 27.25 146.98 27.25 146.99 27.24 146.99 27.24 147 27.23 147.01 27.24 147.01 27.25 147.01 27.25 147.02 27.27 147.02 27.28 147.02 27.29 147.02 27.3 147.02 27.31 147.02 27.32 147.02 27.33 147.03 27.34 147.03 27.35 147.03 27.37 147.04 27.39 147.04 27.4 147.05 27.4 147.07 27.41 147.07 27.42 147.07 27.42 147.08 27.41 147.08 27.4 147.08 27.39 147.08 27.38 147.08 27.37 147.08 27.36 147.09 27.35 147.09 27.33 147.09 27.33 147.1 27.32 147.1 27.3 147.1 27.29 147.1 27.28 147.1 27.27 147.1 27.26 147.1 27.26 147.09 27.25 147.1 27.26 147.1 27.24 147.1 27.24 147.11 27.23 147.11 27.22 147.11 27.21 147.11 27.2 147.11 27.19 147.11 27.17 147.11 27.16 147.11 27.15 147.12 27.14 147.12 27.15 147.13 27.13 147.13 27.13 147.14 27.14 147.14 27.13 147.14 27.13 147.15 27.12 147.15 27.11 147.15 27.1 147.15 27.1 147.16 27.1 147.17 27.1 147.18 27.1 147.19 27.09 147.19 27.08 147.18 27.07 147.18 27.07 147.19 27.08 147.2 27.09 147.2 27.1 147.2 27.08 147.21 27.07 147.21 27.07 147.22 27.06 147.22 27.05 147.22 27.04 147.22 27.03 147.23 27.01 147.24 27 147.24 26.99 147.24 27 147.24 26.99 147.25 27 147.26 27 147.27 26.99 147.28 26.98 147.28 26.97 147.28 26.97 147.29 26.94 147.29 26.93 147.29 26.92 147.29 26.91 147.29 26.89 147.29 26.88 147.29 26.88 147.3 26.87 147.3 26.86 147.3 26.85 147.3 26.84 147.3 26.84 147.31 26.83 147.31 26.82 147.31 26.82 147.32 26.81 147.32 26.8 147.32 26.79 147.32 26.79 147.33 26.78 147.33 26.76 147.34 26.75 147.35 26.74 147.35 26.75 147.35 26.75 147.36 26.73 147.36 26.72 147.36 26.71 147.36 26.7 147.36 26.69 147.37 26.67 147.37 26.67 147.36 26.66 147.36 26.65 147.36 26.65 147.35 26.64 147.35 26.63 147.35 26.62 147.35 26.61 147.34 26.6 147.34 26.59 147.35 26.6 147.35 26.61 147.35 26.61 147.36 26.6 147.35 26.58 147.36 26.57 147.36 26.57 147.37 26.56 147.37 26.55 147.36 26.55 147.37 26.54 147.37 26.53 147.37 26.51 147.37 26.51 147.38 26.5 147.38 26.49 147.38 26.49 147.37 26.47 147.37 26.46 147.37 26.45 147.37 26.45 147.38 26.44 147.38 26.43 147.38 26.42 147.38 26.42 147.39 26.41 147.39 26.39 147.39 26.38 147.39 26.37 147.39 26.37 147.4 26.37 147.41 26.36 147.42 26.35 147.42 26.33 147.43 26.32 147.43 26.31 147.43 26.3 147.43 26.29 147.43 26.28 147.43 26.27 147.43 26.26 147.43 26.25 147.43 26.26 147.43 26.24 147.43 26.23 147.44 26.22 147.44 26.21 147.44 26.21 147.45 26.2 147.45 26.21 147.46 26.23 147.46 26.24 147.46 26.25 147.47 26.26 147.47 26.27 147.47 26.29 147.47 26.3 147.47 26.31 147.47 26.32 147.47 26.34 147.47 26.34 147.48 26.35 147.48 26.36 147.48 26.36 147.49 26.37 147.49 26.37 147.5 26.38 147.51 26.37 147.52 26.37 147.53 26.38 147.53"/>
<path d="M 26.27 147.63 26.26 147.63 26.27 147.63"/>
<path d="M 25.66 147.85 25.67 147.85 25.67 147.84 25.69 147.84 25.69 147.83 25.68 147.83 25.69 147.83 25.69 147.82 25.7 147.82 25.69 147.82 25.7 147.81 25.7 147.8 25.71 147.79 25.72 147.78 25.72 147.77 25.72 147.76 25.73 147.76 25.73 147.75 25.74 147.75 25.74 147.74 25.75 147.74 25.75 147.73 25.76 147.73 25.78 147.72 25.79 147.72 25.8 147.72 25.82 147.71 25.83 147.71 25.84 147.71 25.84 147.7 25.85 147.7 25.85 147.69 25.86 147.69 25.86 147.68 25.87 147.68 25.87 147.67 25.88 147.67 25.88 147.66 25.89 147.66 25.89 147.65 25.9 147.65 25.91 147.65 25.91 147.64 25.92 147.64 25.92 147.63 25.92 147.62 25.92 147.61 25.93 147.61 25.94 147.61 25.94 147.6 25.95 147.6 25.95 147.59 25.96 147.59 25.96 147.58 25.97 147.58 25.98 147.57 25.98 147.56 25.99 147.56 26 147.56 26 147.55 25.99 147.55 25.99 147.54 25.99 147.53 25.98 147.53 25.97 147.53 25.97 147.52 25.97 147.51 25.96 147.51 25.95 147.51 25.94 147.51 25.93 147.51 25.93 147.5 25.92 147.5 25.91 147.5 25.91 147.51 25.91 147.5 25.9 147.5 25.89 147.5 25.88 147.51 25.87 147.51 25.86 147.51 25.86 147.52 25.86 147.51 25.85 147.51 25.85 147.52 25.84 147.52 25.83 147.52 25.84 147.51 25.85 147.51 25.85 147.5 25.86 147.5 25.87 147.5 25.87 147.49 25.88 147.48 25.87 147.48 25.86 147.48 25.86 147.47 25.85 147.47 25.84 147.47 25.83 147.46 25.82 147.46 25.83 147.45 25.83 147.44 25.83 147.43 25.82 147.43 25.81 147.43 25.81 147.42 25.82 147.42 25.82 147.4 25.81 147.4 25.8 147.4 25.81 147.4 25.81 147.39 25.82 147.39 25.83 147.39 25.84 147.39 25.84 147.38 25.83 147.38 25.83 147.37 25.82 147.37 25.82 147.36 25.82 147.35 25.82 147.36 25.83 147.36 25.83 147.35 25.83 147.34 25.82 147.34 25.81 147.34 25.8 147.34 25.8 147.33 25.79 147.33 25.79 147.32 25.78 147.32 25.78 147.33 25.77 147.33 25.77 147.32 25.77 147.31 25.78 147.31 25.78 147.3 25.8 147.3 25.79 147.3 25.8 147.3 25.8 147.29 25.81 147.29 25.81 147.28 25.82 147.28"/>
<path d="M 30.05 146.69 30.06 146.69 30.06 146.7 30.07 146.7 30.06 146.7 30.06 146.71 30.07 146.71 30.07 146.72 30.08 146.73 30.08 146.72 30.08 146.73 30.09 146.74 30.1 146.75 30.11 146.75 30.11 146.76 30.12 146.76 30.13 146.77 30.12 146.77 30.13 146.77 30.14 146.77 30.14 146.78 30.15 146.78 30.14 146.79 30.13 146.79 30.12 146.79 30.11 146.79 30.1 146.79 30.1 146.8 30.1 146.81 30.09 146.81 30.08 146.81 30.07 146.81 30.06 146.82 30.05 146.82 30.05 146.81 30.04 146.81 30.03 146.81 30.02 146.81 30.02 146.8 30.01 146.8 30 146.79 29.99 146.79 29.98 146.79 29.98 146.78 29.97 146.78 29.97 146.77 29.96 146.77 29.95 146.77 29.96 146.77 29.96 146.76 29.95 146.76 29.94 146.76 29.93 146.76 29.93 146.75 29.92 146.75 29.91 146.75 29.91 146.74 29.92 146.74 29.91 146.74 29.9 146.74 29.9 146.73 29.89 146.73 29.88 146.73 29.87 146.72 29.86 146.72 29.85 146.72 29.84 146.73 29.83 146.73 29.84 146.73 29.83 146.74 29.82 146.74 29.82 146.75 29.82 146.76 29.81 146.76 29.81 146.77 29.8 146.77 29.8 146.78 29.8 146.79 29.79 146.79 29.79 146.8 29.79 146.81 29.78 146.81 29.78 146.82 29.78 146.83 29.77 146.83 29.77 146.84 29.77 146.85 29.76 146.85 29.76 146.86 29.76 146.87 29.75 146.87 29.75 146.88 29.74 146.89 29.73 146.89 29.73 146.9 29.72 146.91 29.71 146.91 29.71 146.92 29.7 146.92 29.7 146.93 29.7 146.94 29.69 146.94 29.68 146.94 29.68 146.95 29.67 146.95 29.68 146.95 29.67 146.95 29.67 146.96 29.67 146.97 29.66 146.97 29.66 146.98 29.65 146.98 29.65 146.99 29.64 146.99 29.64 147 29.64 147.01 29.63 147.02 29.63 147.03 29.63 147.04 29.62 147.05 29.62 147.06 29.61 147.06 29.61 147.07 29.6 147.07 29.6 147.08 29.59 147.08 29.59 147.09 29.6 147.09 29.59 147.09 29.59 147.1 29.58 147.11 29.58 147.12 29.58 147.13 29.58 147.14 29.58 147.15 29.58 147.16 29.58 147.17 29.59 147.17 29.6 147.17 29.6 147.18 29.61 147.19 29.61 147.2 29.61 147.21 29.61 147.22 29.6 147.22 29.59 147.22 29.59 147.23 29.58 147.23 29.57 147.22 29.57 147.23 29.57 147.22 29.56 147.22 29.56 147.23 29.56 147.24 29.55 147.24 29.56 147.24 29.56 147.25 29.57 147.25 29.57 147.26 29.58 147.26 29.58 147.27 29.58 147.28 29.57 147.28 29.58 147.28 29.57 147.28 29.57 147.29 29.57 147.3 29.55 147.3 29.55 147.31 29.55 147.32 29.54 147.32 29.53 147.32 29.53 147.33 29.53 147.34 29.52 147.34 29.52 147.35 29.51 147.35 29.51 147.36 29.5 147.36 29.5 147.37 29.49 147.37 29.49 147.38 29.48 147.39 29.47 147.39 29.48 147.4 29.48 147.41 29.47 147.41 29.46 147.42 29.47 147.43 29.47 147.44 29.46 147.44 29.46 147.45 29.45 147.45 29.45 147.46 29.44 147.46 29.44 147.47 29.43 147.47 29.43 147.48 29.41 147.48 29.4 147.48 29.39 147.48 29.39 147.49 29.38 147.49 29.39 147.49 29.37 147.49 29.36 147.49 29.35 147.49 29.35 147.5 29.35 147.51 29.34 147.52 29.34 147.53 29.33 147.54 29.32 147.54 29.31 147.54 29.31 147.55 29.3 147.55 29.31 147.56 29.31 147.57 29.31 147.58 29.31 147.59 29.3 147.59 29.31 147.59 29.31 147.6 29.3 147.6 29.3 147.61 29.31 147.62 29.31 147.63 29.32 147.63 29.32 147.64 29.32 147.65 29.32 147.66 29.33 147.67 29.34 147.68 29.35 147.68 29.35 147.69 29.34 147.7 29.34 147.71 29.34 147.72 29.34 147.73 29.33 147.73 29.33 147.74 29.32 147.75 29.31 147.75 29.3 147.76 29.29 147.76 29.28 147.76 29.28 147.77 29.28 147.78 29.28 147.79 29.29 147.79 29.29 147.8 29.3 147.81 29.3 147.82 29.3 147.83 29.31 147.84 29.31 147.85 29.31 147.87 29.31 147.88 29.31 147.89 29.31 147.9 29.3 147.9 29.29 147.91 29.28 147.91 29.27 147.91 29.27 147.92 29.26 147.92 29.25 147.92 29.25 147.93 29.25 147.94 29.24 147.94 29.24 147.95 29.23 147.95"/>
<path d="M 28.75 148.57 28.76 148.57 28.76 148.56 28.77 148.56 28.77 148.55 28.77 148.54 28.78 148.54 28.79 148.54 28.79 148.53 28.78 148.53 28.78 148.52 28.77 148.52 28.77 148.51 28.76 148.51 28.76 148.5 28.75 148.5 28.75 148.49 28.74 148.48 28.74 148.47 28.75 148.47 28.76 148.46 28.76 148.45 28.76 148.44 28.76 148.43 28.75 148.43 28.75 148.42 28.75 148.41 28.75 148.4 28.76 148.4 28.76 148.39 28.76 148.38 28.77 148.38 28.77 148.37 28.77 148.36 28.78 148.36 28.78 148.35 28.79 148.35 28.79 148.34 28.79 148.33 28.79 148.32 28.79 148.31 28.79 148.3 28.79 148.28 28.79 148.27 28.8 148.27 28.8 148.26 28.8 148.25 28.81 148.25 28.81 148.24 28.81 148.23 28.82 148.23 28.83 148.23 28.83 148.22 28.82 148.21 28.82 148.2 28.83 148.2 28.84 148.2 28.85 148.2 28.86 148.2 28.87 148.2 28.87 148.19 28.88 148.2 28.88 148.19 28.89 148.19 28.89 148.18 28.9 148.18 28.89 148.17 28.88 148.17 28.89 148.17 28.89 148.16 28.9 148.16 28.91 148.16 28.91 148.15 28.9 148.15 28.9 148.14 28.89 148.14 28.89 148.13 28.88 148.13 28.88 148.12 28.89 148.12 28.89 148.11 28.9 148.11 28.9 148.1 28.91 148.1 28.9 148.09 28.91 148.09 28.92 148.09 28.92 148.08 28.92 148.07 28.93 148.06 28.94 148.04 28.94 148.03 28.95 148.02 28.95 148.01 28.94 148 28.94 147.99 28.94 147.98 28.93 147.98 28.92 147.98 28.92 147.97 28.92 147.96 28.91 147.96 28.91 147.95 28.9 147.95 28.9 147.94 28.9 147.93 28.9 147.92 28.9 147.91 28.89 147.9 28.88 147.9 28.88 147.89 28.88 147.88 28.88 147.87 28.89 147.86 28.89 147.85 28.89 147.84 28.9 147.84 28.9 147.83 28.91 147.83 28.91 147.82 28.92 147.81 28.92 147.8 28.93 147.8 28.93 147.79 28.93 147.78 28.94 147.77 28.94 147.76 28.95 147.76 28.94 147.76 28.95 147.76 28.95 147.75 28.96 147.74 28.96 147.73 28.96 147.72 28.97 147.72 28.97 147.71 28.97 147.7 28.97 147.69 28.98 147.68 28.98 147.67 28.98 147.66 28.99 147.66 28.99 147.65 28.99 147.64 29 147.64 29 147.63 29.01 147.63 29.02 147.63 29.02 147.62 29.03 147.62 29.04 147.62 29.05 147.62 29.05 147.61 29.06 147.61 29.07 147.61 29.08 147.61 29.08 147.6 29.09 147.6 29.09 147.59 29.1 147.59 29.1 147.58 29.11 147.57 29.12 147.57 29.12 147.56 29.12 147.55 29.13 147.55 29.12 147.55 29.13 147.54 29.13 147.53 29.14 147.53 29.14 147.52 29.14 147.51 29.15 147.5 29.15 147.48 29.16 147.47 29.16 147.46 29.17 147.46 29.18 147.45 29.18 147.44 29.19 147.43 29.18 147.43 29.19 147.43 29.19 147.42 29.19 147.41 29.2 147.41 29.21 147.41 29.21 147.4 29.22 147.39 29.23 147.38 29.24 147.38 29.25 147.37 29.25 147.36 29.25 147.34 29.26 147.33 29.26 147.32 29.25 147.31 29.25 147.3 29.24 147.28 29.24 147.27 29.24 147.26 29.23 147.26 29.23 147.25 29.23 147.24 29.23 147.23 29.22 147.23 29.22 147.22 29.22 147.21 29.21 147.21 29.21 147.2 29.21 147.19 29.21 147.18 29.21 147.17 29.22 147.17 29.23 147.17 29.23 147.16 29.24 147.16 29.24 147.15 29.25 147.15 29.26 147.14 29.28 147.14 29.29 147.14 29.3 147.14 29.3 147.13 29.31 147.13 29.32 147.12 29.33 147.12 29.34 147.12 29.35 147.12 29.36 147.11 29.36 147.09 29.36 147.08 29.37 147.08 29.37 147.07 29.37 147.06 29.38 147.06 29.38 147.05 29.38 147.04 29.38 147.03 29.37 147.03 29.37 147.02 29.37 147.01 29.37 147 29.36 146.99 29.36 146.98 29.37 146.98 29.36 146.98 29.36 146.97 29.37 146.97 29.37 146.96 29.38 146.95 29.39 146.94 29.39 146.93 29.4 146.93 29.4 146.92 29.41 146.92 29.41 146.91 29.42 146.91 29.42 146.9 29.43 146.9 29.43 146.89 29.44 146.88 29.45 146.88 29.45 146.87 29.46 146.87 29.46 146.86 29.47 146.86 29.47 146.85 29.48 146.85 29.49 146.85"/>
<path d="M 25.31 148.47 25.32 148.48 25.32 148.49 25.34 148.49 25.34 148.5 25.35 148.51 25.35 148.52 25.37 148.52 25.38 148.52 25.38 148.53 25.39 148.53 25.39 148.54 25.4 148.54 25.41 148.54 25.42 148.54 25.42 148.56 25.43 148.57 25.43 148.58 25.44 148.59 25.44 148.6 25.45 148.6 25.45 148.61 25.46 148.61 25.46 148.62 25.47 148.62 25.47 148.63 25.48 148.63 25.49 148.63 25.49 148.64 25.5 148.64 25.53 148.64 25.54 148.64 25.55 148.64 25.55 148.65 25.56 148.65 25.57 148.65 25.58 148.66 25.59 148.66 25.6 148.66 25.6 148.67 25.61 148.67 25.62 148.68 25.63 148.69 25.64 148.7 25.65 148.7 25.65 148.71 25.64 148.71 25.65 148.71 25.65 148.72 25.65 148.73 25.66 148.73 25.67 148.73 25.68 148.73 25.69 148.73 25.69 148.72 25.69 148.73 25.7 148.73 25.69 148.73 25.69 148.74 25.7 148.74 25.71 148.74 25.71 148.75 25.72 148.75 25.73 148.75 25.74 148.75 25.76 148.76 25.77 148.76 25.77 148.77 25.78 148.77 25.78 148.78 25.77 148.78 25.77 148.79 25.77 148.8 25.76 148.8 25.75 148.8 25.74 148.81 25.74 148.8 25.73 148.8 25.72 148.8 25.71 148.8 25.71 148.81 25.7 148.81 25.69 148.81 25.7 148.82 25.69 148.82 25.68 148.83 25.67 148.84 25.66 148.84 25.65 148.84 25.64 148.84 25.63 148.84 25.62 148.84 25.61 148.85 25.6 148.85 25.59 148.85 25.58 148.85 25.58 148.86 25.56 148.86 25.55 148.86 25.54 148.87 25.53 148.87 25.52 148.88 25.52 148.89 25.52 148.9 25.53 148.91 25.54 148.91 25.54 148.9 25.55 148.91 25.55 148.9 25.56 148.9 25.56 148.91"/>
<path d="M 25.56 148.91 25.57 148.91 25.59 148.91 25.59 148.9 25.6 148.9 25.61 148.9 25.62 148.9 25.63 148.9 25.64 148.9 25.65 148.9 25.66 148.9 25.67 148.9 25.68 148.9 25.69 148.89 25.7 148.89 25.71 148.89 25.72 148.89 25.72 148.88 25.74 148.88 25.73 148.88 25.74 148.88 25.75 148.88 25.75 148.87 25.76 148.87 25.77 148.87 25.78 148.87 25.79 148.86 25.8 148.86 25.81 148.86 25.82 148.86 25.83 148.86 25.84 148.86 25.85 148.86 25.86 148.86 25.87 148.86 25.88 148.86 25.9 148.86 25.91 148.86 25.92 148.86 25.93 148.86 25.93 148.85 25.94 148.85 25.95 148.85 25.97 148.85 25.98 148.85 25.99 148.86 26 148.86 26.01 148.85 26.03 148.85 26.04 148.85 26.05 148.85 26.06 148.85 26.06 148.84 26.07 148.84 26.08 148.84 26.08 148.83 26.09 148.83 26.1 148.83 26.1 148.82 26.11 148.82 26.12 148.82 26.13 148.81 26.14 148.81 26.15 148.8 26.16 148.8 26.16 148.79 26.17 148.79 26.18 148.79 26.18 148.78 26.19 148.78 26.2 148.78 26.21 148.78 26.21 148.77 26.22 148.77 26.25 148.77 26.26 148.76 26.27 148.76 26.28 148.76 26.28 148.75 26.29 148.75 26.33 148.74 26.34 148.74 26.35 148.74 26.36 148.74 26.37 148.74 26.38 148.73 26.39 148.73 26.4 148.73 26.41 148.72 26.42 148.72 26.42 148.71 26.43 148.71 26.44 148.71 26.44 148.7 26.45 148.7 26.46 148.69 26.47 148.69 26.47 148.68 26.48 148.68 26.49 148.68 26.49 148.67 26.5 148.67 26.5 148.66 26.5 148.65 26.51 148.64 26.51 148.63 26.51 148.62 26.52 148.6 26.52 148.59 26.52 148.58 26.52 148.57 26.53 148.57 26.53 148.56 26.53 148.55 26.54 148.55 26.54 148.54 26.55 148.54 26.55 148.53 26.56 148.53 26.57 148.53 26.57 148.52 26.58 148.52 26.58 148.51 26.59 148.51 26.6 148.51 26.6 148.5 26.61 148.5 26.62 148.5 26.62 148.49 26.62 148.48 26.63 148.48 26.63 148.47 26.64 148.47 26.66 148.47 26.68 148.47 26.7 148.47 26.71 148.47 26.72 148.47 26.73 148.46 26.74 148.46 26.75 148.46 26.76 148.46 26.78 148.47 26.78 148.48 26.77 148.48 26.77 148.49 26.76 148.49 26.75 148.49 26.76 148.49 26.75 148.5 26.75 148.51 26.75 148.52 26.74 148.52 26.75 148.52 26.75 148.53 26.74 148.53 26.73 148.53 26.72 148.53 26.71 148.54 26.7 148.54 26.7 148.55 26.69 148.55 26.69 148.56 26.69 148.57 26.68 148.58 26.68 148.59 26.67 148.59 26.67 148.61 26.67 148.63 26.68 148.64 26.68 148.65 26.68 148.66 26.68 148.67 26.68 148.68 26.67 148.69 26.67 148.7 26.68 148.7 26.69 148.71 26.7 148.71 26.71 148.72 26.72 148.72 26.74 148.72 26.75 148.72 26.76 148.72 26.77 148.72 26.78 148.72 26.79 148.72 26.8 148.72 26.81 148.72 26.82 148.72 26.83 148.72 26.84 148.72 26.85 148.72 26.86 148.72 26.89 148.72 26.9 148.72 26.91 148.72 26.92 148.72 26.93 148.73 26.92 148.73 26.93 148.74 26.94 148.75 26.92 148.75 26.92 148.76 26.86 148.76 26.84 148.76 26.83 148.76 26.82 148.77 26.81 148.77 26.81 148.78 26.8 148.78 26.79 148.78 26.78 148.78 26.77 148.79 26.76 148.79 26.75 148.79 26.74 148.79 26.73 148.79 26.72 148.79 26.71 148.79 26.7 148.79 26.69 148.78 26.68 148.79 26.67 148.79 26.66 148.79 26.65 148.79 26.65 148.8 26.63 148.8 26.64 148.8 26.63 148.8 26.63 148.81 26.61 148.81 26.6 148.81 26.58 148.81 26.58 148.82 26.56 148.82 26.55 148.82 26.54 148.82 26.53 148.82 26.52 148.82 26.51 148.82 26.5 148.82 26.49 148.82 26.47 148.82 26.46 148.82 26.45 148.82 26.44 148.83 26.43 148.83 26.42 148.83 26.4 148.83 26.39 148.83 26.38 148.83 26.37 148.83 26.36 148.83 26.35 148.84 26.33 148.84 26.32 148.84 26.31 148.85 26.3 148.85 26.29 148.85 26.28 148.86 26.27 148.86 26.26 148.86 26.26 148.87 26.25 148.87 26.24 148.88 26.23 148.88 26.22 148.89 26.21 148.9 26.2 148.91 26.19 148.91 26.18 148.91 26.18 148.92 26.16 148.92 26.15 148.93 26.14 148.93 26.12 148.93 26.1 148.94 26.09 148.94 26.08 148.94 26.07 148.94 26.06 148.94 26.06 148.95"/>
<path d="M 25.67 149 25.66 149 25.67 149"/>
<path d="M 29.23 147.95 29.23 147.96 29.22 147.96 29.22 147.97 29.21 147.97 29.21 147.98 29.2 147.99 29.19 147.99 29.18 147.99 29.18 148 29.17 148.01 29.17 148.02 29.18 148.04 29.17 148.05 29.18 148.05 29.18 148.06 29.18 148.07 29.18 148.08 29.17 148.08 29.17 148.09 29.18 148.11 29.18 148.12 29.18 148.13 29.17 148.13 29.17 148.14 29.16 148.14 29.16 148.15 29.15 148.15 29.15 148.16 29.14 148.16 29.14 148.17 29.13 148.18 29.12 148.18 29.12 148.19 29.11 148.19 29.11 148.2 29.1 148.2 29.1 148.21 29.1 148.22 29.1 148.23 29.09 148.24 29.08 148.24 29.08 148.25 29.08 148.26 29.07 148.26 29.07 148.27 29.06 148.27 29.07 148.29 29.07 148.3 29.08 148.3 29.07 148.3 29.07 148.31 29.07 148.32 29.06 148.32 29.07 148.33 29.06 148.33 29.05 148.33 29.04 148.33 29.03 148.33 29.04 148.34 29.03 148.34 29.02 148.34 29.01 148.34 29.01 148.35 29 148.35 29.01 148.35 29 148.35 28.99 148.36 28.98 148.36 28.97 148.36 28.97 148.37 28.97 148.38 28.96 148.39 28.96 148.4 28.95 148.4 28.95 148.41 28.94 148.41 28.93 148.41 28.93 148.42 28.93 148.43 28.94 148.43 28.94 148.44 28.95 148.44 28.95 148.45 28.96 148.45 28.96 148.46 28.97 148.46 28.97 148.47 28.97 148.48 28.97 148.49 28.97 148.5 28.96 148.51 28.96 148.52 28.95 148.52 28.95 148.53 28.94 148.53 28.94 148.55 28.94 148.56 28.94 148.57 28.93 148.57 28.92 148.57 28.92 148.58 28.92 148.59 28.93 148.6 28.93 148.61 28.94 148.62 28.94 148.63 28.94 148.64 28.93 148.65 28.92 148.65 28.92 148.66 28.9 148.66 28.9 148.67 28.92 148.67 28.91 148.67 28.9 148.67 28.9 148.68 28.89 148.68 28.88 148.68 28.87 148.68 28.87 148.69 28.86 148.69 28.85 148.7 28.85 148.71 28.85 148.72 28.84 148.72 28.85 148.72 28.84 148.72 28.84 148.73 28.83 148.73 28.84 148.73 28.84 148.74 28.83 148.74 28.83 148.75 28.84 148.76 28.83 148.76 28.82 148.77 28.82 148.78 28.82 148.79 28.81 148.79 28.81 148.8 28.82 148.8 28.82 148.81 28.82 148.82 28.81 148.82 28.8 148.82 28.8 148.83 28.79 148.83 28.79 148.85 28.8 148.85 28.8 148.86 28.81 148.86 28.81 148.87 28.81 148.88 28.82 148.88 28.82 148.89 28.81 148.89 28.81 148.9 28.8 148.9 28.8 148.91 28.79 148.91 28.79 148.92 28.79 148.93 28.79 148.94 28.78 148.94 28.78 148.95 28.77 148.95 28.76 148.95 28.76 148.96 28.75 148.96 28.74 148.97 28.75 148.97 28.74 148.98 28.74 148.99 28.74 149 28.75 149.01 28.76 149.03 28.76 149.04 28.76 149.05 28.76 149.06 28.77 149.07 28.77 149.08 28.77 149.09 28.77 149.1 28.76 149.1 28.77 149.11 28.78 149.12 28.79 149.13 28.79 149.14 28.78 149.14 28.78 149.15 28.78 149.16 28.78 149.17 28.78 149.18 28.78 149.19 28.78 149.2 28.77 149.2 28.77 149.21"/>
<path d="M 28.77 149.21 28.76 149.21 28.77 149.2 28.77 149.19 28.76 149.19 28.75 149.19 28.74 149.19 28.74 149.2 28.74 149.21 28.72 149.21 28.72 149.2 28.71 149.2 28.7 149.2 28.69 149.2 28.69 149.19 28.68 149.18 28.68 149.17 28.67 149.16 28.67 149.17 28.67 149.16 28.66 149.16 28.65 149.16 28.64 149.16 28.63 149.15 28.62 149.14 28.62 149.13 28.62 149.12 28.62 149.11 28.62 149.1 28.62 149.09 28.62 149.08 28.61 149.08 28.61 149.07 28.6 149.06 28.6 149.05 28.61 149.05 28.62 149.05 28.63 149.05 28.64 149.06 28.64 149.07 28.65 149.07 28.66 149.07 28.66 149.08 28.67 149.08 28.68 149.08 28.69 149.08 28.7 149.07 28.69 149.06 28.68 149.05 28.68 149.04 28.67 149.04 28.67 149.03 28.66 149.03 28.67 149.03 28.66 149.02 28.65 149.02 28.66 149.02 28.67 149.02 28.67 149.01 28.66 149.01 28.65 149.01 28.64 149.01 28.64 149 28.63 149 28.63 148.99 28.62 148.99 28.63 148.98 28.63 148.97 28.62 148.97 28.63 148.96 28.63 148.95 28.63 148.94 28.63 148.93 28.64 148.93 28.64 148.92 28.65 148.92 28.65 148.91 28.67 148.91 28.67 148.9 28.68 148.89 28.68 148.87 28.67 148.87 28.66 148.86 28.67 148.86 28.66 148.86 28.66 148.85 28.65 148.85 28.66 148.85 28.66 148.84 28.65 148.84 28.66 148.84 28.66 148.83 28.66 148.82 28.66 148.81 28.66 148.8 28.66 148.79 28.66 148.78 28.66 148.77 28.67 148.77 28.68 148.76 28.69 148.76 28.69 148.75 28.69 148.74 28.69 148.73 28.69 148.72 28.68 148.71 28.68 148.7 28.68 148.69 28.68 148.68 28.68 148.67 28.69 148.66 28.69 148.65 28.7 148.65 28.7 148.64 28.7 148.63 28.7 148.62 28.71 148.61 28.72 148.61 28.72 148.6 28.73 148.6 28.73 148.59 28.72 148.59 28.73 148.59 28.73 148.58 28.74 148.58 28.74 148.57 28.75 148.57"/>
<path d="M 24.47 147.95 24.48 147.95 24.51 147.95 24.51 147.94 24.52 147.94 24.52 147.93 24.51 147.93 24.51 147.92 24.51 147.91 24.5 147.91 24.51 147.9 24.5 147.9 24.5 147.89 24.49 147.89 24.48 147.88 24.48 147.87 24.49 147.86 24.5 147.86 24.5 147.85 24.51 147.85 24.51 147.84 24.51 147.83 24.52 147.83 24.51 147.83 24.52 147.82 24.53 147.82 24.54 147.82 24.54 147.81 24.53 147.81 24.52 147.81 24.51 147.81 24.52 147.8 24.52 147.79 24.53 147.78 24.54 147.78 24.54 147.77 24.55 147.77 24.55 147.76 24.56 147.76 24.57 147.76 24.58 147.76 24.58 147.75 24.59 147.75 24.59 147.74 24.6 147.74 24.61 147.74 24.61 147.73 24.6 147.73 24.59 147.73 24.59 147.72 24.58 147.72 24.58 147.71 24.59 147.7 24.59 147.69 24.58 147.69 24.58 147.68 24.59 147.68 24.6 147.67 24.59 147.67 24.58 147.66 24.57 147.66 24.58 147.65 24.59 147.64 24.6 147.64 24.61 147.63 24.61 147.64 24.62 147.64 24.63 147.64 24.63 147.63 24.64 147.63 24.64 147.62 24.65 147.61 24.66 147.61 24.67 147.61 24.68 147.61 24.69 147.6 24.71 147.6 24.72 147.61 24.72 147.62 24.73 147.62 24.73 147.63 24.74 147.63 24.73 147.63 24.74 147.64 24.75 147.64 24.76 147.65 24.79 147.65 24.8 147.65 24.81 147.66 24.82 147.67 24.83 147.67 24.83 147.68 24.83 147.69 24.85 147.69 24.87 147.69 24.88 147.69 24.89 147.69 24.89 147.7 24.9 147.7 24.91 147.7 24.93 147.7 24.93 147.71 24.94 147.71 24.96 147.71 24.97 147.71 24.99 147.71 25 147.72 25.01 147.72 25.01 147.73 25.02 147.73 25.03 147.73 25.03 147.74 25.04 147.74 25.04 147.73 25.05 147.74 25.06 147.74 25.07 147.74 25.08 147.74 25.08 147.75 25.09 147.75 25.1 147.76 25.1 147.77 25.12 147.77 25.13 147.77 25.15 147.77 25.16 147.77 25.17 147.77 25.18 147.77 25.19 147.77 25.2 147.77 25.21 147.77 25.22 147.77 25.23 147.77 25.24 147.77 25.25 147.77 25.25 147.76 25.26 147.76 25.28 147.77 25.28 147.76 25.29 147.76 25.31 147.77 25.32 147.77 25.33 147.76 25.34 147.76 25.35 147.76 25.36 147.76 25.38 147.76 25.39 147.77 25.4 147.77 25.41 147.78 25.42 147.78 25.43 147.78 25.43 147.77 25.45 147.77 25.46 147.77 25.47 147.77 25.49 147.77 25.5 147.77 25.5 147.76 25.51 147.76 25.52 147.76 25.52 147.75 25.53 147.75 25.54 147.75 25.55 147.74 25.55 147.73 25.55 147.72 25.56 147.72 25.57 147.72 25.58 147.72 25.58 147.73 25.59 147.73 25.59 147.74 25.58 147.74 25.58 147.75 25.57 147.75 25.56 147.75 25.56 147.76 25.55 147.76 25.55 147.77 25.54 147.77 25.54 147.79 25.54 147.8 25.54 147.81 25.55 147.81 25.56 147.81 25.57 147.82 25.56 147.82 25.56 147.83 25.57 147.83 25.58 147.83 25.59 147.83 25.6 147.83 25.6 147.84 25.6 147.83 25.61 147.83 25.61 147.84 25.62 147.84 25.63 147.85 25.64 147.85 25.65 147.85 25.66 147.85"/>
<path d="M 26.38 147.53 26.38 147.54 26.39 147.54 26.4 147.54 26.4 147.55 26.41 147.55 26.41 147.56 26.41 147.57 26.41 147.58 26.42 147.59 26.43 147.59 26.44 147.59 26.44 147.6 26.43 147.6 26.42 147.6 26.41 147.6 26.4 147.6 26.39 147.6 26.39 147.59 26.38 147.59 26.37 147.59 26.35 147.59 26.34 147.59 26.33 147.59 26.32 147.59 26.3 147.59 26.29 147.59 26.29 147.6 26.29 147.61 26.3 147.62 26.28 147.63 26.28 147.64 26.27 147.64 26.28 147.64 26.29 147.64 26.29 147.65 26.3 147.65 26.3 147.66 26.3 147.67 26.31 147.67 26.31 147.68 26.31 147.69 26.3 147.69 26.3 147.68 26.3 147.69 26.29 147.69 26.29 147.7 26.29 147.71 26.28 147.71 26.28 147.72 26.27 147.72 26.26 147.72 26.25 147.72 26.24 147.72 26.23 147.73 26.22 147.73 26.21 147.73 26.2 147.73 26.18 147.74 26.17 147.74 26.16 147.74 26.15 147.74 26.14 147.74 26.13 147.74 26.12 147.74 26.11 147.74 26.1 147.74 26.09 147.73 26.08 147.73 26.07 147.73 26.06 147.73 26.06 147.74 26.07 147.74 26.06 147.74 26.06 147.75 26.05 147.76 26.04 147.77 26.03 147.77 26.04 147.77 26.04 147.78 26.03 147.78 26.05 147.78 26.05 147.79 26.06 147.79 26.06 147.8 26.07 147.8 26.08 147.8 26.08 147.81 26.08 147.82 26.08 147.83 26.07 147.83 26.06 147.83 26.05 147.83 26.04 147.83 26.04 147.84 26.04 147.85 26.05 147.86 26.04 147.86 26.03 147.87 26.02 147.87 26.01 147.87 26 147.87 25.99 147.87 25.98 147.87 25.97 147.87 25.96 147.87 25.96 147.88 25.96 147.89 25.96 147.9 25.96 147.91 25.97 147.91 25.98 147.91 25.98 147.92 25.98 147.93 25.99 147.94 26 147.94 26 147.95 26 147.96 26 147.97 26 147.98 25.99 147.98 25.98 147.98 25.97 147.98 25.96 147.98 25.96 147.99 25.95 147.99 25.94 147.99 25.94 148 25.95 148 25.95 148.01 25.94 148.01 25.93 148.01 25.92 148.01 25.91 148.02 25.9 148.02 25.9 148.03 25.89 148.03 25.87 148.03 25.88 148.04 25.87 148.05 25.86 148.05 25.86 148.06 25.85 148.06 25.84 148.06 25.83 148.06 25.82 148.06 25.81 148.06 25.79 148.07 25.78 148.07 25.77 148.07 25.76 148.07 25.76 148.08 25.75 148.08 25.74 148.08 25.73 148.08 25.72 148.08 25.71 148.08 25.69 148.08 25.68 148.07 25.67 148.07 25.67 148.06 25.66 148.06 25.67 148.05 25.66 148.05 25.66 148.04 25.66 148.03 25.65 148.04 25.64 148.03 25.63 148.03 25.62 148.03 25.61 148.03 25.6 148.03 25.58 148.02 25.57 148.03 25.57 148.02 25.56 148.02 25.55 148.02 25.53 148.02 25.52 148.02 25.5 148.02 25.49 148.02 25.48 148.02 25.48 148.03 25.47 148.03 25.45 148.03 25.44 148.03 25.42 148.03 25.42 148.04 25.41 148.04 25.4 148.04 25.4 148.05 25.4 148.06 25.39 148.06 25.38 148.06 25.37 148.06 25.37 148.07 25.36 148.07 25.35 148.07 25.35 148.08 25.34 148.08 25.34 148.09 25.33 148.09 25.34 148.1 25.33 148.11 25.32 148.12 25.32 148.13 25.33 148.14 25.33 148.15 25.32 148.15 25.32 148.16 25.31 148.16 25.3 148.17 25.29 148.17 25.29 148.18 25.28 148.18 25.27 148.19 25.26 148.19 25.25 148.19 25.24 148.19 25.24 148.2 25.23 148.2 25.21 148.2 25.21 148.21 25.2 148.21 25.19 148.21 25.18 148.21 25.18 148.22 25.17 148.22 25.17 148.23 25.16 148.23 25.15 148.23 25.14 148.24 25.13 148.24 25.12 148.24 25.11 148.24 25.11 148.25 25.11 148.26 25.13 148.26 25.12 148.26 25.12 148.27 25.13 148.27 25.14 148.27 25.14 148.28 25.15 148.28 25.16 148.28 25.18 148.28 25.19 148.28 25.2 148.29 25.21 148.29 25.21 148.3 25.22 148.3 25.22 148.31 25.21 148.31 25.2 148.31 25.19 148.32 25.18 148.32 25.19 148.32 25.19 148.33 25.2 148.33 25.21 148.33 25.22 148.33 25.23 148.33 25.23 148.34 25.23 148.35 25.22 148.35 25.21 148.35 25.21 148.36 25.2 148.36 25.2 148.37 25.2 148.38 25.21 148.38 25.22 148.38 25.22 148.39 25.23 148.39 25.25 148.39 25.26 148.39 25.27 148.39 25.28 148.39 25.29 148.39 25.3 148.4 25.3 148.41 25.31 148.41 25.31 148.42 25.3 148.42 25.3 148.43 25.29 148.43 25.29 148.44 25.3 148.44 25.3 148.46 25.3 148.47 25.31 148.47"/>
<path d="M 25.03 148.86 25.02 148.86 25.01 148.86 25 148.86 25 148.85 24.99 148.85 24.99 148.84 24.98 148.83 24.99 148.83 25 148.83 25 148.84 25.01 148.83 25.02 148.83 25.02 148.82 25.03 148.82 25.04 148.82 25.04 148.81 25.03 148.82 25.03 148.81 25.04 148.81 25.05 148.81 25.06 148.8 25.06 148.81 25.07 148.82 25.07 148.83 25.08 148.83 25.07 148.83 25.07 148.84 25.05 148.84 25.04 148.84 25.04 148.85 25.05 148.85 25.06 148.85 25.05 148.86 25.03 148.86"/>
<path d="M 25.08 149.13 25.07 149.13 25.08 149.13"/>
<path d="M 26.06 148.95 26.05 148.95 26.03 148.94 26.02 148.94 26.01 148.94 26 148.94 26 148.93 25.99 148.93 25.97 148.93 25.96 148.93 25.96 148.94 25.95 148.94 25.94 148.94 25.93 148.94 25.92 148.94 25.91 148.94 25.9 148.94 25.91 148.94 25.9 148.95 25.89 148.95 25.88 148.95 25.87 148.95 25.88 148.94 25.89 148.94 25.89 148.93 25.88 148.94 25.87 148.94 25.86 148.94 25.85 148.94 25.84 148.94 25.82 148.95 25.81 148.95 25.8 148.96 25.79 148.96 25.8 148.96 25.8 148.97 25.79 148.97 25.78 148.97 25.77 148.97 25.75 148.97 25.74 148.97 25.73 148.97 25.72 148.97 25.72 148.98 25.71 148.98 25.7 148.98 25.69 148.99 25.68 148.99 25.67 148.99 25.67 149 25.66 149 25.64 149 25.64 149.01 25.63 149.01 25.62 149.01 25.61 149.01 25.57 149.02 25.54 149.02 25.53 149.02 25.53 149.01 25.52 149.01 25.51 149.01 25.5 149.01 25.49 149.01 25.48 149.01 25.47 149.01 25.46 149.01 25.45 149.01 25.43 149.01 25.42 149.01 25.41 149.01 25.4 149.01 25.39 149.01 25.38 149.01 25.39 149 25.38 148.99 25.37 149 25.36 149 25.36 148.99 25.36 149 25.35 149 25.35 149.01 25.34 149.01 25.33 149.02 25.33 149.03 25.31 149.03 25.3 149.04 25.29 149.04 25.28 149.05 25.27 149.05 25.26 149.05 25.25 149.06 25.25 149.07 25.24 149.07 25.23 149.07 25.22 149.08 25.21 149.08 25.21 149.09 25.2 149.09 25.19 149.09 25.18 149.09 25.17 149.1 25.16 149.1 25.14 149.1 25.14 149.11 25.13 149.11 25.12 149.11 25.11 149.11 25.11 149.12 25.09 149.12 25.08 149.12 25.07 149.12 25.06 149.13 25.05 149.13 25.04 149.13 25.02 149.13 25.01 149.14 25 149.14 25 149.15 24.99 149.15 24.99 149.16 24.98 149.17 24.97 149.17 24.96 149.17 24.93 149.17 24.91 149.18 24.9 149.18 24.89 149.18 24.88 149.18 24.88 149.19 24.87 149.19 24.86 149.19 24.85 149.2 24.84 149.2 24.83 149.2 24.82 149.2 24.81 149.2 24.81 149.21 24.8 149.21 24.79 149.21 24.79 149.22 24.78 149.22 24.77 149.22 24.76 149.22 24.76 149.23 24.75 149.24 24.75 149.25 24.74 149.25 24.73 149.25 24.72 149.26 24.71 149.26 24.71 149.27 24.7 149.26 24.69 149.27 24.68 149.27 24.68 149.28 24.67 149.28 24.67 149.29 24.66 149.29 24.65 149.3 24.64 149.31 24.63 149.31 24.63 149.32 24.62 149.32 24.61 149.32 24.6 149.32 24.61 149.33 24.6 149.34 24.6 149.35 24.6 149.36 24.6 149.37 24.61 149.37 24.62 149.37 24.63 149.37 24.63 149.38 24.64 149.38 24.64 149.39 24.63 149.39 24.63 149.4 24.64 149.4 24.64 149.41 24.64 149.42 24.63 149.43 24.63 149.44 24.62 149.44 24.62 149.45 24.62 149.46 24.61 149.46 24.6 149.46 24.6 149.47 24.59 149.47 24.59 149.48 24.58 149.48 24.57 149.49 24.56 149.49 24.56 149.5 24.55 149.5 24.54 149.5 24.53 149.5 24.54 149.51 24.52 149.51 24.52 149.52 24.53 149.51 24.53 149.52 24.53 149.53 24.52 149.53 24.51 149.53 24.5 149.54 24.49 149.55 24.48 149.55 24.48 149.56 24.47 149.56"/>
</g>
</svg>