<?xml version="1.0"?>
<svg xmlns="http://www.w3.org/2000/svg" version="1.2" baseProfile="tiny" width="800" height="223" viewBox="0 0 800 223" stroke-linecap="round" stroke-linejoin="round">
<g id="cd22" fill="none" stroke="black" stroke-width="0.05">
<path d="M 16.26 134.63 16.25 134.63 16.26 134.63"/>
<path d="M 18.69 131.52 18.7 131.52 18.69 131.52 18.7 131.51 18.7 131.5 18.71 131.51 18.72 131.52 18.71 131.52 18.7 131.52 18.69 131.52"/>
<path d="M 19.85 131.99 19.84 131.99 19.85 131.99"/>
<path d="M 19.85 132.02 19.85 132.01 19.85 132.02"/>
<path d="M 19.83 132.04 19.82 132.04 19.82 132.03 19.83 132.03 19.83 132.04"/>
<path d="M 19.81 132.04 19.8 132.04 19.81 132.04 19.81 132.03 19.82 132.03 19.82 132.04 19.81 132.04"/>
<path d="M 19.81 132.12 19.81 132.11 19.81 132.12"/>
<path d="M 19.82 132.13 19.81 132.13 19.82 132.13"/>
<path d="M 19.45 132.28 19.45 132.27 19.45 132.28"/>
<path d="M 19.48 132.3 19.48 132.29 19.48 132.28 19.47 132.28 19.46 132.28 19.45 132.28 19.44 132.28 19.43 132.27 19.42 132.27 19.41 132.27 19.4 132.27 19.38 132.27 19.38 132.26 19.36 132.26 19.35 132.26 19.34 132.26 19.33 132.25 19.32 132.25 19.31 132.25 19.32 132.25 19.32 132.24 19.33 132.24 19.32 132.24 19.33 132.24 19.34 132.24 19.34 132.23 19.35 132.23 19.34 132.23 19.35 132.23 19.36 132.22 19.37 132.22 19.4 132.22 19.41 132.22 19.42 132.22 19.43 132.22 19.42 132.22 19.42 132.23 19.43 132.23 19.44 132.24 19.45 132.25 19.45 132.26 19.46 132.26 19.47 132.26 19.48 132.27 19.48 132.28 19.49 132.28 19.5 132.28 19.5 132.29 19.51 132.29 19.52 132.29 19.53 132.29 19.52 132.29 19.51 132.29 19.51 132.3 19.5 132.3 19.49 132.3 19.48 132.3"/>
<path d="M 19.58 132.35 19.57 132.35 19.56 132.34 19.55 132.34 19.54 132.34 19.53 132.34 19.52 132.34 19.53 132.33 19.54 132.33 19.55 132.33 19.56 132.33 19.57 132.34 19.58 132.34 19.58 132.33 19.6 132.33 19.6 132.34 19.59 132.34 19.58 132.34 19.58 132.35"/>
<path d="M 19.38 132.36 19.37 132.36 19.36 132.36 19.36 132.35 19.37 132.35 19.38 132.35 19.39 132.35 19.4 132.35 19.4 132.36 19.38 132.36"/>
<path d="M 19.32 132.36 19.31 132.36 19.32 132.36 19.33 132.36 19.32 132.36"/>
<path d="M 19.29 132.36 19.3 132.36 19.29 132.36"/>
<path d="M 19.31 132.37 19.3 132.37 19.31 132.37"/>
<path d="M 17.97 132.5 17.96 132.5 17.97 132.5"/>
<path d="M 19.94 132.53 19.94 132.52 19.93 132.52 19.94 132.52 19.94 132.53"/>
<path d="M 19.48 132.54 19.47 132.54 19.47 132.53 19.48 132.53 19.48 132.54"/>
<path d="M 19.44 132.54 19.43 132.53 19.44 132.53 19.45 132.53 19.46 132.53 19.46 132.54 19.45 132.54 19.44 132.54"/>
<path d="M 17.97 132.54 17.97 132.53 17.97 132.54"/>
<path d="M 19.55 132.57 19.54 132.57 19.53 132.56 19.54 132.56 19.55 132.57"/>
<path d="M 17.77 132.58 17.76 132.58 17.76 132.57 17.77 132.58"/>
<path d="M 19.63 132.58 19.62 132.58 19.61 132.58 19.62 132.58 19.63 132.57 19.63 132.58"/>
<path d="M 19.42 132.58 19.41 132.58 19.4 132.58 19.4 132.57 19.41 132.57 19.42 132.57 19.43 132.57 19.43 132.56 19.42 132.56 19.42 132.55 19.43 132.55 19.43 132.56 19.44 132.56 19.45 132.56 19.46 132.56 19.46 132.57 19.45 132.57 19.44 132.57 19.43 132.57 19.42 132.57 19.43 132.58 19.42 132.58"/>
<path d="M 19.84 132.58 19.83 132.58 19.82 132.58 19.81 132.58 19.8 132.58 19.79 132.58 19.78 132.57 19.77 132.57 19.76 132.56 19.75 132.56 19.74 132.55 19.73 132.55 19.72 132.55 19.71 132.55 19.71 132.54 19.7 132.54 19.69 132.54 19.69 132.53 19.68 132.54 19.67 132.53 19.66 132.53 19.66 132.52 19.64 132.52 19.63 132.52 19.62 132.51 19.61 132.51 19.6 132.51 19.58 132.51 19.58 132.5 19.56 132.5 19.55 132.5 19.54 132.5 19.53 132.5 19.54 132.5 19.54 132.51 19.52 132.51 19.52 132.5 19.52 132.49 19.51 132.5 19.51 132.49 19.5 132.49 19.49 132.49 19.48 132.49 19.47 132.48 19.45 132.48 19.44 132.47 19.43 132.47 19.42 132.47 19.41 132.47 19.41 132.46 19.4 132.46 19.39 132.46 19.38 132.46 19.37 132.47 19.36 132.47 19.36 132.46 19.35 132.46 19.35 132.47 19.35 132.46 19.34 132.46 19.33 132.46 19.32 132.46 19.31 132.45 19.3 132.45 19.29 132.45 19.29 132.44 19.3 132.44 19.31 132.44 19.31 132.43 19.29 132.43 19.3 132.43 19.3 132.42 19.29 132.42 19.3 132.41 19.31 132.41 19.31 132.4 19.3 132.4 19.29 132.4 19.29 132.39 19.3 132.39 19.31 132.38 19.32 132.37 19.33 132.37 19.34 132.36 19.36 132.36 19.37 132.36 19.4 132.36 19.41 132.36 19.42 132.36 19.43 132.37 19.43 132.38 19.44 132.38 19.45 132.38 19.44 132.38 19.44 132.39 19.46 132.39 19.47 132.39 19.47 132.38 19.48 132.38 19.5 132.38 19.51 132.38 19.52 132.38 19.52 132.39 19.53 132.39 19.54 132.39 19.55 132.39 19.55 132.38 19.56 132.38 19.57 132.38 19.57 132.37 19.56 132.37 19.57 132.37 19.57 132.36 19.56 132.36 19.57 132.36 19.58 132.36 19.58 132.35 19.59 132.35 19.61 132.35 19.62 132.35 19.63 132.35 19.63 132.34 19.64 132.34 19.64 132.35 19.65 132.35 19.65 132.36 19.66 132.35 19.67 132.35 19.68 132.35 19.69 132.35 19.69 132.36 19.7 132.36 19.71 132.36 19.72 132.36 19.72 132.37 19.74 132.37 19.74 132.38 19.75 132.38 19.77 132.38 19.77 132.39 19.78 132.39 19.77 132.39 19.79 132.39 19.79 132.4 19.8 132.4 19.82 132.4 19.83 132.4 19.84 132.4 19.85 132.4 19.84 132.41 19.86 132.41 19.87 132.41 19.87 132.42 19.88 132.42 19.88 132.43 19.89 132.43 19.89 132.44 19.9 132.44 19.9 132.45 19.91 132.45 19.91 132.46 19.91 132.47 19.91 132.48 19.92 132.48 19.92 132.49 19.93 132.5 19.93 132.51 19.93 132.52 19.94 132.52 19.95 132.52 19.95 132.53 19.94 132.53 19.94 132.54 19.94 132.53 19.93 132.53 19.92 132.53 19.92 132.54 19.93 132.54 19.93 132.55 19.94 132.55 19.93 132.55 19.92 132.55 19.91 132.55 19.91 132.56 19.9 132.56 19.9 132.57 19.89 132.57 19.89 132.58 19.88 132.58 19.87 132.58 19.85 132.58 19.84 132.58"/>
<path d="M 19.55 132.65 19.54 132.65 19.53 132.65 19.52 132.65 19.5 132.65 19.49 132.65 19.5 132.65 19.5 132.64 19.51 132.64 19.53 132.64 19.53 132.65 19.55 132.65"/>
<path d="M 19.56 132.66 19.56 132.65 19.57 132.65 19.57 132.66 19.56 132.66"/>
<path d="M 19.61 132.66 19.6 132.66 19.61 132.66"/>
<path d="M 19.62 132.67 19.61 132.67 19.6 132.67 19.6 132.66 19.6 132.67 19.58 132.67 19.57 132.67 19.57 132.66 19.58 132.66 19.59 132.66 19.59 132.65 19.6 132.65 19.6 132.64 19.61 132.64 19.62 132.64 19.62 132.63 19.61 132.62 19.63 132.62 19.64 132.62 19.65 132.62 19.65 132.61 19.66 132.61 19.67 132.61 19.69 132.61 19.7 132.61 19.7 132.62 19.69 132.62 19.7 132.62 19.7 132.63 19.71 132.63 19.72 132.64 19.7 132.63 19.7 132.64 19.71 132.64 19.71 132.65 19.69 132.65 19.68 132.65 19.68 132.66 19.65 132.66 19.64 132.66 19.63 132.66 19.63 132.67 19.62 132.67"/>
<path d="M 19.55 132.67 19.54 132.67 19.55 132.67"/>
<path d="M 19.57 132.68 19.56 132.68 19.56 132.67 19.57 132.67 19.57 132.68"/>
<path d="M 19.58 132.68 19.59 132.68 19.58 132.68"/>
<path d="M 19.54 132.69 19.54 132.68 19.55 132.68 19.54 132.69"/>
<path d="M 19.52 132.7 19.51 132.7 19.51 132.69 19.52 132.69 19.53 132.69 19.52 132.69 19.52 132.7"/>
<path d="M 19.77 132.71 19.76 132.71 19.76 132.7 19.77 132.7 19.77 132.71"/>
<path d="M 19.49 132.71 19.48 132.71 19.48 132.7 19.49 132.7 19.49 132.71"/>
<path d="M 19.59 132.71 19.58 132.71 19.57 132.71 19.57 132.7 19.56 132.7 19.55 132.7 19.54 132.71 19.53 132.71 19.52 132.71 19.51 132.7 19.5 132.7 19.52 132.7 19.53 132.7 19.55 132.7 19.55 132.69 19.55 132.7 19.56 132.7 19.58 132.7 19.58 132.69 19.59 132.69 19.6 132.69 19.61 132.69 19.61 132.7 19.6 132.7 19.59 132.7 19.6 132.7 19.6 132.71 19.59 132.71"/>
<path d="M 19.73 132.73 19.72 132.73 19.73 132.73"/>
<path d="M 19.66 132.73 19.65 132.73 19.66 132.73"/>
<path d="M 19.78 132.74 19.77 132.74 19.77 132.73 19.78 132.73 19.78 132.74"/>
<path d="M 19.02 132.75 19.01 132.75 19.02 132.75"/>
<path d="M 19.68 132.76 19.67 132.76 19.66 132.76 19.67 132.76 19.68 132.76"/>
<path d="M 19.76 132.77 19.77 132.77 19.77 132.76 19.76 132.76 19.75 132.76 19.74 132.76 19.73 132.76 19.72 132.76 19.71 132.76 19.71 132.75 19.69 132.75 19.68 132.75 19.69 132.76 19.68 132.76 19.68 132.75 19.67 132.75 19.67 132.74 19.66 132.74 19.68 132.74 19.69 132.74 19.71 132.73 19.72 132.74 19.72 132.73 19.73 132.73 19.72 132.73 19.71 132.73 19.71 132.72 19.72 132.72 19.73 132.72 19.73 132.71 19.74 132.71 19.75 132.71 19.76 132.71 19.77 132.71 19.76 132.71 19.76 132.72 19.77 132.72 19.77 132.73 19.76 132.73 19.75 132.73 19.75 132.74 19.76 132.74 19.76 132.75 19.77 132.75 19.76 132.75 19.75 132.75 19.74 132.75 19.76 132.76 19.77 132.76 19.78 132.76 19.79 132.76 19.79 132.77 19.78 132.77 19.76 132.77"/>
<path d="M 17.26 132.78 17.25 132.78 17.25 132.77 17.26 132.77 17.25 132.77 17.26 132.77 17.27 132.77 17.27 132.78 17.26 132.78"/>
<path d="M 19.23 132.78 19.24 132.78 19.24 132.77 19.24 132.78 19.25 132.77 19.25 132.78 19.24 132.78 19.23 132.78"/>
<path d="M 18.85 132.78 18.84 132.78 18.85 132.78 18.85 132.77 18.85 132.76 18.84 132.76 18.84 132.74 18.83 132.74 18.84 132.74 18.84 132.73 18.84 132.72 18.83 132.72 18.82 132.72 18.81 132.72 18.79 132.72 18.79 132.73 18.79 132.72 18.78 132.72 18.77 132.72 18.76 132.73 18.74 132.73 18.74 132.72 18.73 132.72 18.72 132.72 18.7 132.72 18.7 132.71 18.69 132.71 18.69 132.72 18.7 132.72 18.69 132.72 18.68 132.72 18.68 132.71 18.69 132.71 18.68 132.7 18.67 132.7 18.66 132.7 18.65 132.7 18.64 132.7 18.63 132.7 18.62 132.7 18.61 132.7 18.6 132.69 18.6 132.68 18.6 132.67 18.6 132.68 18.57 132.68 18.57 132.67 18.56 132.67 18.56 132.66 18.55 132.66 18.55 132.65 18.54 132.65 18.54 132.64 18.53 132.65 18.53 132.64 18.54 132.64 18.54 132.63 18.53 132.63 18.52 132.63 18.51 132.63 18.51 132.62 18.5 132.62 18.49 132.62 18.49 132.61 18.48 132.61 18.48 132.6 18.47 132.59 18.46 132.59 18.45 132.59 18.45 132.58 18.44 132.58 18.44 132.57 18.43 132.56 18.43 132.55 18.42 132.53 18.42 132.51 18.42 132.5 18.42 132.49 18.43 132.49 18.43 132.5 18.43 132.49 18.43 132.48 18.42 132.47 18.41 132.47 18.4 132.47 18.39 132.46 18.4 132.46 18.4 132.45 18.39 132.45 18.38 132.45 18.37 132.45 18.35 132.45 18.34 132.46 18.32 132.45 18.3 132.46 18.29 132.46 18.28 132.46 18.26 132.46 18.25 132.46 18.24 132.46 18.24 132.45 18.23 132.45 18.22 132.45 18.21 132.45 18.21 132.44 18.2 132.44 18.17 132.44 18.16 132.44 18.15 132.44 18.14 132.44 18.13 132.44 18.12 132.43 18.11 132.43 18.11 132.42 18.1 132.42 18.1 132.4 18.09 132.39 18.08 132.39 18.07 132.39 18.07 132.4 18.06 132.41 18.05 132.41 18.04 132.41 18.03 132.42 18.02 132.42 18.01 132.42 18 132.42 18 132.43 18.01 132.43 18.01 132.44 18.02 132.44 18.04 132.44 18.04 132.45 18.05 132.46 18.04 132.47 18.04 132.48 18.05 132.48 18.05 132.49 18.05 132.5 18.04 132.5 18.02 132.5 18.01 132.5 18 132.5 18 132.51 18 132.52 18.01 132.52 18.01 132.53 18 132.53 18 132.54 18.01 132.54 18.02 132.54 18.03 132.54 18.04 132.54 18.05 132.54 18.06 132.54 18.07 132.54 18.08 132.54 18.08 132.55 18.09 132.55 18.1 132.55 18.11 132.55 18.12 132.55 18.12 132.56 18.13 132.56 18.13 132.55 18.16 132.55 18.17 132.55 18.18 132.55 18.19 132.55 18.19 132.56 18.2 132.56 18.21 132.56 18.22 132.56 18.22 132.57 18.23 132.57 18.23 132.58 18.22 132.58 18.21 132.59 18.2 132.59 18.19 132.59 18.18 132.59 18.17 132.59 18.16 132.59 18.15 132.59 18.14 132.59 18.13 132.58 18.13 132.57 18.12 132.57 18.12 132.58 18.11 132.58 18.1 132.58 18.1 132.57 18.08 132.57 18.07 132.57 18.06 132.57 18.04 132.57 18.03 132.57 18.02 132.57 18.01 132.57 17.99 132.57 17.98 132.57 17.97 132.58 17.93 132.58 17.91 132.58 17.9 132.58 17.9 132.59 17.89 132.61 17.9 132.61 17.9 132.62 17.89 132.62 17.88 132.62 17.87 132.62 17.86 132.62 17.86 132.61 17.84 132.61 17.82 132.61 17.82 132.6 17.81 132.6 17.81 132.59 17.8 132.58 17.79 132.58 17.78 132.58 17.78 132.57 17.77 132.57 17.76 132.57 17.76 132.56 17.77 132.56 17.77 132.55 17.76 132.55 17.76 132.54 17.76 132.53 17.75 132.52 17.74 132.52 17.7 132.52 17.68 132.52 17.66 132.52 17.65 132.52 17.64 132.52 17.63 132.52 17.61 132.52 17.6 132.52 17.59 132.52 17.58 132.52 17.59 132.53 17.59 132.54 17.58 132.54 17.56 132.54 17.54 132.54 17.52 132.55 17.51 132.55 17.5 132.56 17.5 132.57 17.49 132.57 17.46 132.57 17.43 132.57 17.42 132.57 17.41 132.57 17.41 132.58 17.4 132.58 17.4 132.59 17.4 132.6 17.4 132.61 17.41 132.61 17.4 132.61 17.39 132.61 17.4 132.61 17.4 132.62 17.39 132.62 17.38 132.62 17.37 132.63 17.38 132.63 17.36 132.63 17.36 132.64 17.37 132.64 17.36 132.64 17.36 132.65 17.37 132.65 17.37 132.66 17.38 132.66 17.39 132.66 17.38 132.66 17.38 132.67 17.39 132.67 17.4 132.67 17.41 132.67 17.42 132.67 17.42 132.68 17.44 132.68 17.45 132.68 17.46 132.68 17.46 132.69 17.47 132.69 17.48 132.69 17.47 132.69 17.47 132.7 17.48 132.7 17.48 132.71 17.48 132.72 17.49 132.72 17.5 132.72 17.5 132.73 17.51 132.73 17.5 132.73 17.51 132.73 17.51 132.74 17.5 132.74 17.5 132.75 17.51 132.75 17.51 132.76"/>
<path d="M 17.41 132.84 17.4 132.84 17.41 132.84 17.42 132.84 17.41 132.84"/>
<path d="M 17.42 132.85 17.41 132.85 17.4 132.85 17.41 132.85 17.42 132.85"/>
<path d="M 19.09 132.91 19.08 132.91 19.08 132.9 19.09 132.9 19.09 132.91"/>
<path d="M 19.15 132.91 19.14 132.91 19.14 132.9 19.15 132.9 19.15 132.91"/>
<path d="M 19.16 132.91 19.15 132.91 19.16 132.91"/>
<path d="M 19.08 132.92 19.09 132.92 19.1 132.92 19.1 132.91 19.12 132.91 19.13 132.91 19.13 132.92 19.11 132.92 19.1 132.92 19.09 132.92 19.08 132.92"/>
<path d="M 19.05 132.93 19.04 132.93 19.04 132.92 19.05 132.92 19.05 132.93"/>
<path d="M 19.05 132.93 19.04 132.93 19.05 132.93"/>
<path d="M 19.91 132.98 19.9 132.97 19.91 132.97 19.91 132.98"/>
<path d="M 19.88 132.99 19.87 132.99 19.86 132.98 19.85 132.98 19.86 132.98 19.87 132.98 19.88 132.98 19.88 132.99"/>
<path d="M 19.63 133.03 19.63 133.02 19.63 133.01 19.64 133.02 19.65 133.01 19.65 133.02 19.66 133.02 19.65 133.02 19.64 133.03 19.63 133.03"/>
<path d="M 19.67 133.05 19.66 133.05 19.66 133.04 19.68 133.04 19.68 133.05 19.67 133.04 19.67 133.05"/>
<path d="M 19.61 133.06 19.61 133.05 19.62 133.05 19.63 133.05 19.62 133.05 19.62 133.06 19.61 133.06"/>
<path d="M 19.78 133.06 19.79 133.05 19.79 133.06 19.78 133.06"/>
<path d="M 19.69 133.09 19.68 133.09 19.69 133.09 19.69 133.08 19.7 133.08 19.7 133.09 19.7 133.08 19.69 133.08 19.69 133.09"/>
<path d="M 19.37 133.19 19.38 133.19 19.37 133.19"/>
<path d="M 17.76 133.3 17.76 133.29 17.76 133.3"/>
<path d="M 17.51 132.76 17.52 132.76 17.53 132.77 17.53 132.78 17.52 132.78 17.51 132.78 17.52 132.78 17.52 132.79 17.51 132.79 17.51 132.8 17.5 132.8 17.49 132.8 17.5 132.8 17.49 132.8 17.48 132.8 17.47 132.8 17.45 132.8 17.44 132.8 17.43 132.8 17.42 132.8 17.41 132.8 17.41 132.79 17.39 132.79 17.4 132.79 17.38 132.79 17.37 132.79 17.36 132.78 17.35 132.78 17.34 132.78 17.33 132.78 17.32 132.77 17.31 132.77 17.31 132.78 17.32 132.78 17.33 132.78 17.32 132.78 17.32 132.79 17.33 132.79 17.34 132.79 17.35 132.79 17.35 132.8 17.36 132.8 17.35 132.8 17.34 132.81 17.35 132.81 17.34 132.81 17.34 132.82 17.35 132.82 17.35 132.81 17.36 132.82 17.37 132.82 17.37 132.81 17.38 132.81 17.38 132.82 17.39 132.82 17.4 132.82 17.4 132.83 17.41 132.83 17.41 132.82 17.41 132.83 17.42 132.83 17.42 132.84 17.43 132.84 17.42 132.84 17.42 132.85 17.41 132.85 17.4 132.85 17.39 132.85 17.4 132.85 17.4 132.86 17.4 132.87 17.41 132.87 17.43 132.87 17.44 132.87 17.45 132.87 17.46 132.87 17.46 132.88 17.47 132.88 17.48 132.88 17.47 132.89 17.48 132.89 17.47 132.9 17.46 132.9 17.45 132.9 17.43 132.9 17.44 132.91 17.45 132.91 17.46 132.91 17.47 132.91 17.48 132.91 17.49 132.91 17.51 132.91 17.52 132.91 17.52 132.9 17.53 132.9 17.53 132.91 17.53 132.92 17.54 132.92 17.55 132.92 17.56 132.92 17.57 132.92 17.58 132.92 17.59 132.92 17.57 132.92 17.57 132.93 17.58 132.93 17.6 132.93 17.59 132.93 17.59 132.94 17.61 132.93 17.62 132.93 17.63 132.93 17.64 132.93 17.65 132.93 17.65 132.94 17.67 132.94 17.68 132.94 17.69 132.94 17.71 132.94 17.72 132.95 17.73 132.95 17.74 132.96 17.75 132.96 17.75 132.97 17.76 132.97 17.75 132.98 17.75 132.99 17.74 132.99 17.74 133 17.75 133 17.75 133.01 17.76 133.01 17.76 133.02 17.76 133.03 17.77 133.03 17.77 133.04 17.78 133.04 17.78 133.05 17.79 133.05 17.8 133.05 17.8 133.06 17.81 133.06 17.82 133.06 17.83 133.07 17.84 133.07 17.85 133.07 17.85 133.08 17.86 133.08 17.85 133.09 17.87 133.09 17.88 133.09 17.89 133.09 17.9 133.09 17.9 133.1 17.89 133.11 17.89 133.12 17.88 133.13 17.88 133.14 17.87 133.14 17.86 133.14 17.86 133.15 17.85 133.15 17.84 133.15 17.82 133.14 17.81 133.14 17.8 133.14 17.79 133.14 17.78 133.14 17.77 133.14 17.77 133.13 17.74 133.13 17.73 133.13 17.72 133.13 17.71 133.13 17.7 133.13 17.68 133.13 17.68 133.12 17.67 133.12 17.66 133.12 17.65 133.12 17.65 133.11 17.64 133.11 17.63 133.11 17.62 133.11 17.61 133.11 17.6 133.11 17.6 133.1 17.58 133.1 17.58 133.09 17.57 133.09 17.56 133.1 17.56 133.11 17.53 133.11 17.52 133.11 17.51 133.11 17.51 133.12 17.51 133.13 17.52 133.13 17.53 133.13 17.54 133.13 17.56 133.13 17.55 133.14 17.53 133.14 17.52 133.14 17.52 133.15 17.52 133.14 17.53 133.15 17.54 133.15 17.55 133.15 17.56 133.16 17.55 133.17 17.54 133.17 17.55 133.18 17.55 133.19 17.54 133.19 17.55 133.19 17.55 133.2 17.54 133.2 17.55 133.2 17.55 133.21 17.55 133.22 17.56 133.22 17.55 133.22 17.56 133.22 17.56 133.23 17.55 133.23 17.55 133.24 17.56 133.24 17.56 133.25 17.57 133.25 17.57 133.26 17.55 133.26 17.54 133.26 17.53 133.26 17.54 133.26 17.54 133.27 17.53 133.27 17.52 133.27 17.5 133.27 17.49 133.28 17.5 133.28 17.51 133.28 17.52 133.28 17.53 133.28 17.53 133.29 17.54 133.29 17.54 133.3 17.55 133.3 17.56 133.3 17.57 133.3 17.56 133.3 17.56 133.31 17.55 133.31"/>
<path d="M 19.57 133.34 19.57 133.33 19.57 133.34"/>
<path d="M 19.7 133.38 19.7 133.37 19.71 133.37 19.7 133.38"/>
<path d="M 19.68 133.38 19.67 133.38 19.68 133.38"/>
<path d="M 19.75 133.42 19.74 133.42 19.75 133.41 19.75 133.42"/>
<path d="M 19.76 133.45 19.76 133.44 19.75 133.44 19.76 133.44 19.76 133.43 19.75 133.43 19.74 133.43 19.73 133.43 19.73 133.42 19.73 133.41 19.72 133.41 19.71 133.41 19.71 133.4 19.7 133.4 19.71 133.4 19.71 133.39 19.72 133.39 19.71 133.39 19.72 133.39 19.71 133.38 19.7 133.38 19.68 133.38 19.68 133.37 19.67 133.37 19.66 133.37 19.65 133.37 19.64 133.37 19.64 133.36 19.63 133.36 19.62 133.36 19.61 133.36 19.6 133.36 19.59 133.36 19.58 133.36 19.57 133.36 19.56 133.36 19.57 133.35 19.56 133.35 19.55 133.35 19.54 133.35 19.54 133.34 19.53 133.34 19.52 133.34 19.51 133.34 19.5 133.33 19.49 133.33 19.49 133.32 19.48 133.33 19.47 133.33 19.47 133.32 19.46 133.32 19.45 133.32 19.44 133.32 19.44 133.31 19.43 133.31 19.43 133.3 19.42 133.3 19.4 133.3 19.4 133.29 19.41 133.29 19.4 133.29 19.4 133.28 19.39 133.27 19.39 133.26 19.38 133.26 19.38 133.25 19.37 133.24 19.37 133.23 19.36 133.23 19.35 133.23 19.34 133.23 19.33 133.23 19.33 133.24 19.31 133.23 19.3 133.23 19.3 133.22 19.29 133.21 19.3 133.21 19.3 133.2 19.3 133.19 19.29 133.19 19.28 133.19 19.27 133.19 19.27 133.2 19.26 133.2 19.25 133.2 19.25 133.19 19.24 133.19 19.23 133.19 19.22 133.19 19.21 133.19 19.21 133.18 19.2 133.19 19.2 133.18 19.19 133.18 19.19 133.17 19.19 133.18 19.18 133.18 19.18 133.17 19.17 133.17 19.16 133.17 19.15 133.16 19.14 133.16 19.14 133.15 19.13 133.15 19.11 133.15 19.11 133.14 19.11 133.13 19.1 133.13 19.09 133.12 19.09 133.11 19.08 133.11 19.08 133.1 19.08 133.09 19.09 133.09 19.08 133.09 19.07 133.08 19.07 133.06 19.07 133.05 19.08 133.03 19.08 133.02 19.09 133.02 19.09 133.01 19.1 133.01 19.1 133 19.1 132.99 19.11 132.98 19.12 132.98 19.11 132.98 19.11 132.97 19.11 132.96 19.1 132.96 19.09 132.95 19.08 132.94 19.07 132.94 19.06 132.94 19.05 132.94 19.06 132.93 19.05 132.93 19.04 132.93 19.03 132.93 19.02 132.93 19.02 132.92 19.01 132.92 19.01 132.91 19 132.91 19 132.92 18.99 132.91 18.98 132.91 18.99 132.91 18.99 132.9 19 132.9 19.01 132.89 19.02 132.89 19.04 132.89 19.05 132.89 19.04 132.9 19.05 132.9 19.05 132.91 19.06 132.91 19.07 132.91 19.07 132.9 19.06 132.9 19.07 132.9 19.08 132.9 19.08 132.89 19.09 132.89 19.1 132.89 19.11 132.89 19.12 132.89 19.13 132.89 19.14 132.89 19.15 132.89 19.15 132.88 19.16 132.88 19.17 132.88 19.18 132.88 19.18 132.87 19.19 132.87 19.19 132.86 19.2 132.85 19.2 132.84 19.21 132.84 19.21 132.83 19.21 132.82 19.21 132.81 19.21 132.8 19.21 132.79 19.21 132.78 19.22 132.78 19.22 132.77 19.21 132.77 19.2 132.77 19.2 132.76 19.19 132.76 19.19 132.77 19.2 132.77 19.2 132.78 19.19 132.78 19.18 132.78 19.16 132.78 19.14 132.78 19.13 132.78 19.09 132.78 19.05 132.78 19.04 132.78 19.03 132.78 19.03 132.77 19.02 132.77 19.02 132.76 19.01 132.76 19.01 132.75 19 132.75 19 132.76 18.99 132.76 19 132.76 18.99 132.77 18.97 132.77 18.96 132.76 18.95 132.76 18.95 132.77 18.94 132.77 18.93 132.77 18.92 132.77 18.92 132.76 18.91 132.75 18.91 132.76 18.9 132.76 18.89 132.76 18.89 132.77 18.88 132.77 18.88 132.78 18.87 132.78 18.89 132.78 18.89 132.79 18.9 132.79 18.9 132.8 18.91 132.79 18.92 132.8 18.93 132.8 18.94 132.8 18.94 132.81 18.95 132.81 18.96 132.81 18.96 132.82 18.95 132.82 18.94 132.82 18.94 132.83 18.94 132.84 18.95 132.84 18.96 132.84 18.95 132.84 18.95 132.85 18.94 132.85 18.94 132.86 18.93 132.86 18.92 132.86 18.89 132.86 18.88 132.86 18.87 132.86 18.87 132.85 18.86 132.85 18.86 132.84 18.86 132.83 18.87 132.83 18.87 132.84 18.88 132.84 18.89 132.84 18.88 132.83 18.87 132.83 18.87 132.82 18.86 132.82 18.87 132.82 18.88 132.82 18.89 132.82 18.9 132.82 18.9 132.81 18.89 132.81 18.88 132.81 18.88 132.8 18.86 132.8 18.85 132.79 18.85 132.78"/>
<path d="M 19.95 133.46 19.94 133.46 19.95 133.46 19.96 133.45 19.96 133.46 19.95 133.46"/>
<path d="M 19.94 133.49 19.93 133.49 19.93 133.48 19.94 133.48 19.94 133.49"/>
<path d="M 19.29 133.61 19.28 133.61 19.29 133.61"/>
<path d="M 18.85 133.67 18.84 133.67 18.84 133.66 18.84 133.67 18.85 133.67"/>
<path d="M 18.9 133.67 18.91 133.67 18.92 133.67 18.93 133.67 18.92 133.67 18.91 133.67 18.9 133.67"/>
<path d="M 18.85 133.7 18.85 133.69 18.84 133.69 18.85 133.69 18.86 133.69 18.87 133.69 18.87 133.7 18.86 133.7 18.85 133.7"/>
<path d="M 19.21 133.71 19.19 133.71 19.18 133.7 19.17 133.7 19.18 133.7 19.18 133.69 19.19 133.69 19.2 133.69 19.21 133.69 19.24 133.69 19.24 133.7 19.23 133.7 19.22 133.71 19.21 133.71"/>
<path d="M 19.1 133.77 19.09 133.77 19.08 133.76 19.07 133.76 19.06 133.76 19.05 133.75 19.04 133.75 19.03 133.74 19 133.74 18.99 133.74 18.98 133.74 18.97 133.73 18.96 133.73 18.95 133.73 18.94 133.73 18.93 133.72 18.92 133.72 18.92 133.71 18.91 133.71 18.92 133.71 18.92 133.7 18.91 133.7 18.91 133.69 18.92 133.69 18.91 133.69 18.9 133.69 18.9 133.68 18.91 133.68 18.91 133.69 18.92 133.69 18.93 133.69 18.93 133.68 18.92 133.68 18.93 133.68 18.94 133.68 18.95 133.68 18.96 133.67 18.95 133.67 18.93 133.67 18.94 133.66 18.95 133.66 18.96 133.66 18.97 133.67 18.97 133.66 18.98 133.66 18.99 133.66 18.99 133.67 19.01 133.66 19.03 133.66 19.05 133.67 19.05 133.66 19.06 133.66 19.07 133.66 19.08 133.66 19.1 133.66 19.09 133.66 19.09 133.67 19.08 133.67 19.09 133.67 19.1 133.67 19.11 133.67 19.12 133.68 19.12 133.69 19.13 133.69 19.14 133.69 19.14 133.68 19.15 133.68 19.16 133.68 19.17 133.68 19.16 133.68 19.16 133.69 19.15 133.7 19.14 133.7 19.13 133.71 19.14 133.71 19.13 133.71 19.13 133.72 19.12 133.72 19.13 133.73 19.14 133.73 19.15 133.72 19.15 133.73 19.14 133.73 19.14 133.74 19.13 133.74 19.14 133.74 19.14 133.75 19.13 133.75 19.14 133.76 19.14 133.77 19.11 133.77 19.1 133.77"/>
<path d="M 17.55 133.31 17.56 133.31 17.57 133.31 17.58 133.31 17.58 133.3 17.59 133.3 17.6 133.3 17.61 133.3 17.62 133.3 17.63 133.3 17.64 133.3 17.65 133.3 17.64 133.3 17.64 133.31 17.65 133.31 17.66 133.31 17.67 133.31 17.68 133.31 17.69 133.3 17.71 133.3 17.72 133.3 17.73 133.3 17.74 133.29 17.75 133.29 17.76 133.3 17.77 133.3 17.78 133.3 17.79 133.3 17.8 133.3 17.81 133.3 17.82 133.3 17.83 133.3 17.85 133.3 17.86 133.3 17.87 133.3 17.89 133.3 17.9 133.3 17.91 133.3 17.92 133.3 17.93 133.3 17.93 133.29 17.94 133.29 17.95 133.29 17.96 133.29 17.98 133.29 17.98 133.3 17.99 133.3 17.99 133.29 18 133.29 18.01 133.29 18.02 133.29 18.03 133.29 18.04 133.29 18.05 133.29 18.05 133.3 18.06 133.3 18.07 133.3 18.08 133.3 18.09 133.3 18.12 133.3 18.13 133.3 18.15 133.3 18.16 133.3 18.17 133.3 18.18 133.3 18.2 133.3 18.21 133.3 18.22 133.29 18.23 133.29 18.24 133.29 18.25 133.29 18.26 133.29 18.27 133.29 18.28 133.3 18.3 133.3 18.3 133.29 18.31 133.29 18.33 133.29 18.34 133.29 18.36 133.29 18.36 133.28 18.37 133.28 18.39 133.28 18.4 133.28 18.41 133.28 18.42 133.28 18.43 133.28 18.43 133.29 18.44 133.29 18.44 133.28 18.45 133.28 18.46 133.28 18.47 133.29 18.48 133.29 18.49 133.29 18.5 133.3 18.51 133.3 18.52 133.3 18.52 133.31 18.53 133.31 18.54 133.31 18.55 133.31 18.56 133.32 18.57 133.32 18.58 133.33 18.59 133.33 18.59 133.34 18.6 133.34 18.6 133.35 18.61 133.35 18.62 133.35 18.62 133.36 18.62 133.37 18.63 133.37 18.64 133.37 18.65 133.38 18.64 133.38 18.65 133.38 18.65 133.39 18.66 133.39 18.66 133.4 18.67 133.4 18.67 133.41 18.68 133.41 18.69 133.42 18.7 133.43 18.72 133.43 18.73 133.44 18.73 133.43 18.74 133.44 18.75 133.44 18.76 133.44 18.76 133.45 18.77 133.45 18.78 133.45 18.79 133.45 18.8 133.45 18.81 133.45 18.8 133.46 18.79 133.46 18.79 133.47 18.78 133.47 18.79 133.47 18.8 133.47 18.82 133.47 18.82 133.46 18.83 133.46 18.86 133.46 18.88 133.47 18.89 133.47 18.91 133.47 18.92 133.47 18.93 133.47 18.94 133.48 18.95 133.48 18.96 133.48 18.97 133.48 19 133.49 19.01 133.49 19.02 133.49 19.03 133.49 19.05 133.49 19.06 133.5 19.07 133.5 19.08 133.5 19.09 133.51 19.1 133.51 19.1 133.52 19.11 133.52 19.12 133.53 19.13 133.53 19.14 133.53 19.14 133.54 19.15 133.54 19.16 133.54 19.16 133.55 19.18 133.56 19.17 133.56 19.19 133.56 19.19 133.57 19.2 133.57 19.21 133.57 19.22 133.58 19.23 133.58 19.23 133.59 19.24 133.59 19.25 133.59 19.25 133.6 19.26 133.6 19.27 133.6 19.28 133.6 19.28 133.61 19.28 133.62 19.29 133.62 19.3 133.62 19.29 133.62 19.3 133.62 19.3 133.63 19.31 133.63 19.32 133.63 19.32 133.64 19.33 133.64 19.33 133.65 19.33 133.66 19.32 133.66 19.33 133.66 19.33 133.67 19.32 133.68 19.33 133.69 19.33 133.7 19.34 133.7 19.35 133.7 19.35 133.71 19.36 133.71 19.37 133.71 19.38 133.72 19.37 133.72 19.37 133.73 19.36 133.73 19.35 133.74 19.34 133.74 19.32 133.74 19.32 133.73 19.31 133.73 19.3 133.73 19.3 133.74 19.31 133.74 19.3 133.74 19.32 133.74 19.33 133.74 19.33 133.75 19.3 133.75 19.3 133.74 19.29 133.74 19.28 133.74 19.28 133.75 19.29 133.75 19.29 133.76 19.28 133.76 19.27 133.76 19.28 133.76 19.27 133.77 19.27 133.78 19.28 133.78 19.28 133.79 19.29 133.79 19.3 133.79 19.3 133.8 19.29 133.8 19.29 133.81 19.31 133.81 19.31 133.82 19.32 133.81 19.33 133.81 19.32 133.82"/>
<path d="M 19.66 133.83 19.65 133.83 19.64 133.83 19.64 133.82 19.65 133.82 19.66 133.82 19.66 133.83"/>
<path d="M 17.61 133.84 17.6 133.84 17.61 133.84"/>
<path d="M 19.67 133.87 19.66 133.87 19.67 133.87 19.66 133.87 19.67 133.87"/>
<path d="M 17.51 133.89 17.5 133.89 17.51 133.89"/>
<path d="M 16.89 133.89 16.88 133.89 16.89 133.89"/>
<path d="M 18.29 133.91 18.28 133.91 18.29 133.91"/>
<path d="M 18.22 133.92 18.21 133.92 18.22 133.92"/>
<path d="M 18.13 133.94 18.12 133.94 18.13 133.94"/>
<path d="M 18.08 133.95 18.08 133.94 18.08 133.95"/>
<path d="M 18.15 133.96 18.14 133.96 18.15 133.96"/>
<path d="M 18.16 133.96 18.15 133.96 18.16 133.96"/>
<path d="M 18.24 133.98 18.23 133.98 18.24 133.98 18.25 133.98 18.24 133.98"/>
<path d="M 18.23 133.99 18.23 133.98 18.23 133.99"/>
<path d="M 18.67 134 18.66 134 18.67 134"/>
<path d="M 18.15 134.02 18.14 134.02 18.15 134.02"/>
<path d="M 18.18 134.04 18.17 134.03 18.14 134.03 18.13 134.03 18.12 134.03 18.11 134.03 18.1 134.03 18.1 134.02 18.11 134.02 18.1 134.02 18.09 134.02 18.09 134.01 18.08 134.01 18.07 134.01 18.06 134.01 18.05 134.01 18.06 134 18.05 134 18.04 134 18.05 134 18.06 134 18.06 133.99 18.06 133.98 18.07 133.98 18.09 133.98 18.09 133.97 18.08 133.97 18.08 133.96 18.07 133.96 18.07 133.95 18.08 133.95 18.07 133.95 18.08 133.95 18.09 133.95 18.1 133.96 18.1 133.95 18.1 133.94 18.11 133.94 18.12 133.94 18.11 133.94 18.12 133.95 18.13 133.95 18.12 133.95 18.13 133.95 18.14 133.95 18.15 133.95 18.16 133.95 18.17 133.95 18.18 133.95 18.18 133.96 18.18 133.95 18.19 133.95 18.2 133.95 18.21 133.95 18.22 133.95 18.23 133.95 18.23 133.94 18.24 133.94 18.25 133.94 18.24 133.94 18.23 133.94 18.22 133.94 18.23 133.94 18.22 133.94 18.22 133.93 18.21 133.93 18.22 133.93 18.23 133.93 18.23 133.92 18.23 133.93 18.24 133.93 18.25 133.93 18.25 133.92 18.26 133.92 18.26 133.93 18.26 133.92 18.27 133.92 18.27 133.93 18.28 133.93 18.27 133.94 18.27 133.93 18.26 133.94 18.27 133.94 18.27 133.95 18.26 133.95 18.27 133.95 18.26 133.95 18.25 133.95 18.26 133.96 18.25 133.96 18.24 133.96 18.24 133.97 18.23 133.97 18.23 133.98 18.22 133.98 18.21 133.98 18.21 133.99 18.2 133.99 18.19 133.99 18.2 134 18.21 134 18.21 134.01 18.19 134.01 18.19 134.02 18.18 134.02 18.16 134.02 18.17 134.02 18.15 134.02 18.16 134.02 18.16 134.03 18.17 134.03 18.18 134.03 18.18 134.04"/>
<path d="M 18.02 134.09 18.02 134.08 18.02 134.07 18.03 134.08 18.04 134.08 18.04 134.09 18.03 134.09 18.02 134.09"/>
<path d="M 18.79 134.12 18.78 134.12 18.76 134.12 18.75 134.12 18.73 134.12 18.71 134.12 18.71 134.11 18.7 134.11 18.7 134.1 18.69 134.1 18.68 134.09 18.67 134.09 18.68 134.09 18.68 134.08 18.66 134.08 18.66 134.07 18.65 134.07 18.65 134.06 18.64 134.06 18.63 134.06 18.62 134.05 18.63 134.06 18.64 134.06 18.65 134.05 18.63 134.05 18.64 134.05 18.64 134.04 18.63 134.04 18.64 134.04 18.64 134.03 18.64 134.02 18.63 134.02 18.63 134.01 18.64 134.01 18.65 134.01 18.65 134 18.66 134 18.65 134 18.64 134 18.63 133.99 18.62 133.99 18.61 133.99 18.61 133.97 18.63 133.97 18.64 133.97 18.66 133.97 18.66 133.96 18.67 133.96 18.68 133.96 18.69 133.96 18.69 133.95 18.69 133.94 18.7 133.94 18.7 133.95 18.71 133.95 18.71 133.94 18.72 133.94 18.72 133.93 18.73 133.93 18.73 133.92 18.73 133.91 18.74 133.91 18.73 133.91 18.73 133.9 18.73 133.89 18.72 133.89 18.72 133.88 18.71 133.88 18.71 133.87 18.72 133.87 18.73 133.88 18.74 133.88 18.75 133.88 18.75 133.87 18.75 133.88 18.76 133.88 18.78 133.89 18.79 133.89 18.8 133.89 18.81 133.89 18.81 133.9 18.82 133.9 18.83 133.9 18.84 133.9 18.85 133.9 18.86 133.9 18.87 133.9 18.88 133.9 18.9 133.9 18.92 133.9 18.96 133.9 18.97 133.9 18.98 133.9 18.99 133.91 19.01 133.91 19.03 133.91 19.04 133.91 19.04 133.92 19.05 133.92 19.06 133.92 19.07 133.92 19.07 133.93 19.08 133.93 19.09 133.94 19.1 133.94 19.09 133.94 19.1 133.94 19.1 133.95 19.11 133.95 19.12 133.95 19.12 133.96 19.13 133.96 19.12 133.96 19.12 133.97 19.12 133.98 19.11 133.99 19.12 133.99 19.11 134 19.1 134.01 19.1 134.02 19.09 134.03 19.08 134.03 19.08 134.04 19.07 134.04 19.07 134.05 19.06 134.06 19.06 134.07 19.05 134.07 19.04 134.07 19.04 134.08 19.03 134.09 19.03 134.1 19.03 134.11 19.02 134.11 19 134.11 18.99 134.11 18.97 134.11 18.96 134.11 18.95 134.11 18.94 134.11 18.93 134.11 18.92 134.11 18.91 134.11 18.9 134.11 18.89 134.11 18.88 134.11 18.87 134.11 18.87 134.12 18.86 134.12 18.85 134.12 18.83 134.12 18.82 134.12 18.79 134.12"/>
<path d="M 18.47 134.14 18.45 134.13 18.44 134.13 18.43 134.13 18.43 134.12 18.44 134.12 18.46 134.13 18.46 134.12 18.47 134.12 18.47 134.13 18.47 134.14"/>
<path d="M 18.56 134.18 18.55 134.18 18.56 134.18"/>
<path d="M 18.59 134.19 18.58 134.19 18.59 134.18 18.6 134.18 18.59 134.18 18.59 134.19"/>
<path d="M 18.19 134.21 18.18 134.21 18.18 134.2 18.19 134.2 18.19 134.19 18.2 134.19 18.21 134.2 18.2 134.2 18.19 134.2 18.19 134.21"/>
<path d="M 18.07 134.21 18.07 134.2 18.07 134.21"/>
<path d="M 18.86 134.21 18.85 134.21 18.84 134.2 18.84 134.19 18.86 134.19 18.87 134.19 18.87 134.2 18.86 134.2 18.86 134.21"/>
<path d="M 18.1 134.22 18.09 134.22 18.09 134.21 18.08 134.21 18.09 134.21 18.1 134.21 18.1 134.22"/>
<path d="M 18.78 134.25 18.77 134.25 18.77 134.24 18.78 134.24 18.78 134.25"/>
<path d="M 18.79 134.26 18.78 134.26 18.79 134.26"/>
<path d="M 18.47 134.26 18.46 134.26 18.47 134.26"/>
<path d="M 18.42 134.28 18.42 134.27 18.43 134.27 18.42 134.28"/>
<path d="M 18.44 134.28 18.43 134.28 18.44 134.28"/>
<path d="M 19.32 133.82 19.33 133.82 19.34 133.82 19.35 133.82 19.36 133.82 19.36 133.81 19.37 133.81 19.38 133.82 19.38 133.81 19.39 133.81 19.4 133.81 19.41 133.81 19.42 133.81 19.43 133.81 19.44 133.81 19.45 133.81 19.46 133.81 19.46 133.82 19.47 133.82 19.48 133.82 19.51 133.82 19.53 133.82 19.55 133.82 19.56 133.82 19.58 133.82 19.61 133.82 19.62 133.82 19.62 133.83 19.61 133.82 19.61 133.83 19.63 133.83 19.64 133.83 19.64 133.82 19.65 133.82 19.66 133.82 19.67 133.82 19.68 133.82 19.69 133.82 19.7 133.82 19.71 133.82 19.72 133.82 19.73 133.82 19.74 133.83 19.75 133.83 19.76 133.83 19.77 133.83 19.77 133.84 19.78 133.84 19.79 133.84 19.8 133.84 19.8 133.85 19.81 133.85 19.8 133.86 19.81 133.86 19.79 133.86 19.8 133.86 19.79 133.87 19.81 133.87 19.82 133.87 19.83 133.87 19.83 133.86 19.82 133.86 19.82 133.85 19.83 133.85 19.84 133.85 19.85 133.85 19.86 133.86 19.87 133.86 19.87 133.87 19.88 133.87 19.89 133.87 19.89 133.88 19.9 133.88 19.91 133.88 19.91 133.89 19.92 133.89 19.92 133.9 19.92 133.91 19.92 133.92 19.93 133.92 19.94 133.92 19.95 133.93 19.96 133.93 19.96 133.94 19.97 133.95 19.97 133.96 19.96 133.96 19.95 133.96 19.95 133.97 19.94 133.97 19.93 133.98 19.92 133.98 19.92 133.99 19.91 133.99 19.89 133.99 19.88 133.99 19.87 133.99 19.86 133.99 19.84 133.99 19.82 133.99 19.81 133.98 19.8 133.98 19.8 133.97 19.79 133.97 19.78 133.97 19.78 133.96 19.76 133.96 19.75 133.96 19.75 133.95 19.74 133.95 19.73 133.95 19.73 133.94 19.73 133.93 19.72 133.92 19.73 133.92 19.71 133.92 19.72 133.92 19.71 133.92 19.7 133.91 19.69 133.91 19.68 133.91 19.68 133.9 19.67 133.9 19.67 133.89 19.66 133.89 19.65 133.89 19.65 133.9 19.63 133.9 19.62 133.91 19.61 133.91 19.6 133.91 19.6 133.9 19.59 133.9 19.58 133.9 19.57 133.9 19.58 133.89 19.59 133.89 19.57 133.89 19.55 133.89 19.55 133.9 19.54 133.89 19.53 133.89 19.52 133.9 19.51 133.9 19.5 133.9 19.49 133.9 19.49 133.89 19.48 133.89 19.47 133.89 19.46 133.89 19.46 133.9 19.45 133.9 19.44 133.91 19.43 133.91 19.43 133.92 19.42 133.92 19.41 133.92 19.39 133.92 19.38 133.92 19.38 133.91 19.37 133.9 19.37 133.89 19.38 133.9 19.38 133.89 19.39 133.89 19.4 133.89 19.39 133.88 19.4 133.88 19.4 133.87 19.41 133.87 19.41 133.86 19.4 133.86 19.41 133.86 19.41 133.85 19.4 133.84 19.39 133.84 19.38 133.84 19.37 133.84 19.36 133.84 19.35 133.84 19.34 133.84 19.33 133.84 19.32 133.84 19.31 133.84 19.31 133.85 19.32 133.85 19.33 133.87 19.32 133.87 19.32 133.88 19.33 133.88 19.34 133.88 19.34 133.89 19.33 133.89 19.33 133.9 19.32 133.9 19.31 133.9 19.3 133.9 19.3 133.91 19.31 133.91 19.32 133.92 19.3 133.92 19.31 133.92 19.31 133.93 19.3 133.93 19.29 133.93 19.29 133.94 19.28 133.94 19.27 133.94 19.27 133.95 19.27 133.96 19.26 133.96 19.26 133.97 19.27 133.97 19.26 133.99 19.26 134 19.25 134.01 19.25 134.02 19.25 134.03 19.24 134.04 19.24 134.05 19.24 134.06 19.23 134.06 19.24 134.06 19.23 134.07 19.22 134.07 19.21 134.07 19.21 134.08 19.22 134.08 19.22 134.1 19.23 134.1 19.23 134.11 19.24 134.11 19.24 134.12 19.26 134.12 19.26 134.13 19.25 134.13 19.25 134.14 19.24 134.14 19.23 134.14 19.22 134.14 19.21 134.14 19.2 134.14 19.19 134.15 19.18 134.15 19.17 134.16 19.15 134.16 19.15 134.17 19.14 134.17 19.13 134.17 19.13 134.18 19.13 134.19 19.12 134.19 19.12 134.2 19.13 134.21 19.12 134.22 19.12 134.23 19.13 134.23 19.12 134.23 19.12 134.24 19.11 134.24 19.12 134.24 19.11 134.24 19.11 134.25 19.1 134.25 19.1 134.26 19.1 134.27 19.1 134.28 19.09 134.28"/>
<path d="M 18.22 134.32 18.21 134.32 18.22 134.32"/>
<path d="M 18.9 134.34 18.89 134.34 18.88 134.34 18.88 134.33 18.89 134.33 18.89 134.34 18.9 134.34"/>
<path d="M 17.26 134.08 17.26 134.07 17.25 134.07 17.23 134.06 17.22 134.05 17.21 134.05 17.2 134.05 17.19 134.04 17.18 134.04 17.18 134.03 17.17 134.03 17.17 134.02 17.16 134.02 17.15 134.02 17.14 134.02 17.14 134.01 17.12 134.01 17.12 134 17.11 134 17.1 134 17.11 134 17.11 133.99 17.1 133.99 17.09 133.99 17.09 133.98 17.08 133.98 17.08 133.99 17.07 133.99 17.07 133.98 17.06 133.98 17.05 133.98 17.05 133.97 17.04 133.96 17.03 133.96 17.02 133.96 17.01 133.96 17 133.96 17 133.95 16.99 133.94 17 133.94 16.99 133.94 16.99 133.93 16.99 133.92 16.98 133.92 16.98 133.93 16.97 133.92 16.96 133.92 16.96 133.91 16.95 133.91 16.93 133.91 16.93 133.9 16.92 133.9 16.91 133.89 16.9 133.89 16.89 133.89 16.89 133.88 16.88 133.88 16.88 133.89 16.88 133.88 16.87 133.88 16.86 133.88 16.85 133.88 16.84 133.88 16.84 133.87 16.84 133.88 16.84 133.89 16.83 133.89 16.81 133.89 16.8 133.89 16.79 133.89 16.77 133.89 16.78 133.89 16.77 133.89 16.76 133.88 16.77 133.88 16.76 133.87 16.75 133.87 16.74 133.87 16.73 133.87 16.72 133.86 16.72 133.85 16.71 133.85 16.7 133.85 16.69 133.85 16.69 133.84 16.68 133.84 16.67 133.84 16.66 133.84 16.65 133.83 16.64 133.83 16.64 133.84 16.62 133.83 16.61 133.83 16.59 133.83 16.59 133.82 16.59 133.81 16.58 133.81 16.57 133.81 16.58 133.81 16.58 133.82 16.57 133.82 16.57 133.81 16.57 133.82 16.56 133.82 16.55 133.82 16.54 133.82 16.53 133.82 16.51 133.82 16.52 133.82 16.52 133.83 16.51 133.83 16.52 133.83 16.52 133.84 16.52 133.85 16.53 133.85 16.53 133.84 16.54 133.84 16.55 133.84 16.55 133.85 16.56 133.85 16.58 133.85 16.58 133.86 16.59 133.87 16.6 133.87 16.6 133.88 16.59 133.88 16.58 133.88 16.58 133.89 16.57 133.88 16.57 133.89 16.56 133.89 16.56 133.9 16.55 133.9 16.54 133.9 16.54 133.91 16.53 133.91 16.54 133.91 16.53 133.91 16.52 133.91 16.54 133.92 16.55 133.92 16.54 133.92 16.54 133.93 16.55 133.93 16.54 133.93 16.53 133.93 16.52 133.93 16.52 133.94 16.54 133.94 16.53 133.94 16.52 133.95 16.51 133.95 16.51 133.96 16.52 133.96 16.51 133.96 16.51 133.97 16.5 133.97 16.51 133.98 16.5 133.98 16.51 133.98 16.51 133.99 16.5 133.99 16.51 134 16.51 134.01 16.51 134.02 16.5 134.03 16.52 134.03 16.53 134.03 16.54 134.03 16.54 134.04 16.55 134.04 16.55 134.05 16.57 134.05 16.56 134.05 16.55 134.05 16.54 134.05 16.54 134.06 16.53 134.06 16.53 134.07 16.55 134.07 16.56 134.07 16.56 134.08 16.57 134.08 16.58 134.08 16.58 134.09 16.59 134.09 16.59 134.1 16.58 134.11 16.57 134.11 16.57 134.12 16.56 134.12 16.55 134.12 16.54 134.13 16.53 134.13 16.52 134.13 16.53 134.14 16.54 134.14 16.54 134.13 16.55 134.14 16.56 134.15 16.57 134.15 16.56 134.15 16.56 134.16 16.56 134.17 16.56 134.16 16.57 134.16 16.57 134.17 16.58 134.17 16.59 134.17 16.59 134.16 16.6 134.16 16.6 134.17 16.61 134.17 16.62 134.17 16.63 134.17 16.63 134.18 16.64 134.18 16.64 134.19 16.65 134.19 16.66 134.19 16.67 134.19 16.68 134.19 16.69 134.19 16.7 134.2 16.71 134.2 16.72 134.2 16.73 134.2 16.74 134.2 16.75 134.2 16.76 134.2 16.76 134.19 16.77 134.19 16.78 134.19 16.79 134.19 16.81 134.19 16.82 134.19 16.83 134.19 16.83 134.2 16.85 134.2 16.86 134.2 16.87 134.2 16.88 134.2 16.89 134.2 16.9 134.2 16.91 134.2 16.94 134.2 16.96 134.2 16.98 134.21 17 134.21 17.01 134.21 17.02 134.21 17.03 134.22 17.05 134.22 17.06 134.22 17.06 134.23 17.07 134.24 17.08 134.24 17.07 134.24 17.07 134.25 17.08 134.25 17.07 134.25 17.07 134.26 17.08 134.26 17.08 134.27 17.07 134.27 17.07 134.28 17.08 134.28 17.08 134.29 17.07 134.29 17.07 134.3 17.08 134.3 17.09 134.3 17.1 134.3 17.1 134.31 17.12 134.31 17.13 134.31 17.14 134.32 17.15 134.32 17.16 134.32 17.16 134.33 17.16 134.35 17.16 134.36 17.15 134.36 17.15 134.37 17.14 134.37 17.14 134.38 17.13 134.38 17.12 134.39 17.1 134.39 17.09 134.39 17.09 134.4 17.08 134.4"/>
<path d="M 18.94 134.44 18.93 134.44 18.94 134.44"/>
<path d="M 19.09 134.28 19.08 134.28 19.07 134.28 19.07 134.27 19.06 134.27 19.06 134.26 19.05 134.26 19.05 134.24 19.04 134.24 19.03 134.24 19.03 134.23 19.04 134.23 19.04 134.22 19.05 134.22 19.04 134.22 19.04 134.21 19.02 134.21 19.02 134.22 19.01 134.21 19 134.21 18.99 134.21 18.99 134.2 18.98 134.2 18.98 134.19 18.97 134.19 18.96 134.19 18.95 134.19 18.93 134.19 18.93 134.2 18.92 134.2 18.9 134.2 18.89 134.21 18.89 134.22 18.88 134.22 18.88 134.23 18.87 134.24 18.87 134.23 18.87 134.24 18.86 134.24 18.86 134.23 18.85 134.23 18.84 134.23 18.83 134.24 18.82 134.24 18.81 134.24 18.81 134.25 18.79 134.25 18.78 134.25 18.79 134.25 18.8 134.25 18.8 134.24 18.79 134.24 18.78 134.24 18.78 134.23 18.79 134.23 18.77 134.23 18.78 134.23 18.79 134.23 18.78 134.22 18.79 134.21 18.77 134.21 18.77 134.22 18.76 134.22 18.75 134.22 18.76 134.22 18.76 134.21 18.75 134.21 18.74 134.21 18.73 134.21 18.72 134.21 18.71 134.21 18.71 134.2 18.7 134.2 18.7 134.21 18.69 134.21 18.68 134.21 18.67 134.2 18.68 134.2 18.69 134.2 18.69 134.19 18.7 134.19 18.71 134.19 18.71 134.18 18.72 134.18 18.72 134.17 18.73 134.18 18.73 134.17 18.73 134.16 18.71 134.16 18.72 134.16 18.71 134.16 18.69 134.16 18.68 134.16 18.67 134.16 18.66 134.16 18.65 134.16 18.64 134.16 18.63 134.16 18.62 134.16 18.63 134.16 18.63 134.17 18.64 134.17 18.62 134.17 18.63 134.17 18.61 134.17 18.6 134.17 18.59 134.18 18.57 134.18 18.56 134.18 18.56 134.17 18.54 134.17 18.55 134.18 18.54 134.18 18.53 134.18 18.53 134.19 18.54 134.19 18.55 134.19 18.56 134.19 18.58 134.2 18.6 134.2 18.61 134.19 18.6 134.19 18.6 134.18 18.61 134.18 18.62 134.18 18.63 134.18 18.63 134.19 18.62 134.19 18.61 134.19 18.62 134.19 18.64 134.19 18.64 134.2 18.63 134.2 18.62 134.2 18.62 134.21 18.63 134.21 18.64 134.21 18.64 134.22 18.65 134.22 18.66 134.23 18.67 134.23 18.67 134.24 18.68 134.24 18.69 134.24 18.7 134.25 18.71 134.25 18.7 134.25 18.72 134.25 18.73 134.26 18.74 134.26 18.74 134.25 18.75 134.25 18.77 134.26 18.78 134.26 18.78 134.27 18.79 134.27 18.8 134.28 18.81 134.28 18.81 134.29 18.82 134.29 18.82 134.3 18.83 134.3 18.84 134.3 18.85 134.3 18.85 134.31 18.86 134.31 18.87 134.31 18.86 134.31 18.87 134.31 18.87 134.32 18.88 134.32 18.89 134.32 18.88 134.33 18.89 134.33 18.9 134.33 18.91 134.33 18.92 134.33 18.93 134.34 18.94 134.34 18.93 134.34 18.93 134.35 18.92 134.35 18.91 134.35 18.9 134.35 18.91 134.35 18.91 134.36 18.92 134.36 18.94 134.36 18.94 134.37 18.95 134.37 18.96 134.37 18.96 134.36 18.97 134.36 18.98 134.36 18.98 134.37 18.97 134.37 18.97 134.38 18.98 134.38 18.98 134.39 18.97 134.39 18.97 134.4 18.98 134.4 18.99 134.41 19 134.41 19.01 134.42 19 134.42 19 134.43 18.99 134.43 18.98 134.43 18.97 134.43 18.97 134.44 18.96 134.44 18.96 134.45 18.95 134.45 18.94 134.45 18.94 134.46 18.95 134.46 18.93 134.46 18.93 134.47 18.93 134.48 18.92 134.48 18.91 134.48 18.89 134.48"/>
<path d="M 17.64 134.55 17.64 134.53 17.65 134.52 17.64 134.52 17.65 134.52 17.65 134.51 17.66 134.51 17.67 134.51 17.67 134.5 17.68 134.5 17.68 134.49 17.69 134.49 17.69 134.48 17.7 134.48 17.71 134.48 17.71 134.47 17.7 134.47 17.71 134.47 17.72 134.47 17.73 134.46 17.72 134.46 17.72 134.45 17.73 134.45 17.73 134.44 17.74 134.44 17.75 134.44 17.75 134.43 17.74 134.43 17.74 134.42 17.75 134.41 17.74 134.41 17.74 134.39 17.72 134.39 17.72 134.38 17.72 134.37 17.71 134.37 17.71 134.36 17.72 134.36 17.72 134.34 17.73 134.34 17.72 134.34 17.72 134.33 17.73 134.33 17.74 134.33 17.74 134.32 17.73 134.32 17.72 134.32 17.73 134.32 17.73 134.31 17.75 134.31 17.76 134.31 17.76 134.3 17.75 134.3 17.75 134.31 17.73 134.31 17.72 134.31 17.71 134.31 17.7 134.3 17.69 134.3 17.69 134.28 17.7 134.28 17.69 134.28 17.68 134.28 17.69 134.28 17.69 134.27 17.69 134.26 17.69 134.25 17.69 134.24 17.7 134.24 17.69 134.23 17.7 134.23 17.7 134.22 17.71 134.22 17.7 134.22 17.71 134.22 17.72 134.21 17.73 134.21 17.74 134.21 17.75 134.21 17.75 134.2 17.76 134.2 17.77 134.2 17.79 134.2 17.8 134.2 17.81 134.19 17.82 134.19 17.83 134.19 17.84 134.19 17.84 134.18 17.85 134.18 17.85 134.17 17.86 134.16 17.85 134.15 17.85 134.14 17.85 134.13 17.84 134.13 17.84 134.12 17.83 134.12 17.83 134.11 17.82 134.11 17.82 134.09 17.82 134.08 17.8 134.08 17.79 134.08 17.79 134.07 17.78 134.07 17.78 134.06 17.77 134.06 17.76 134.06 17.75 134.06 17.76 134.06 17.76 134.05 17.76 134.04 17.77 134.04 17.76 134.04 17.75 134.04 17.74 134.03 17.74 134.02 17.73 134.02 17.73 134.01 17.74 134.01 17.74 134 17.73 134 17.74 134 17.75 134 17.73 134 17.7 134 17.69 133.99 17.69 133.98 17.69 133.97 17.68 133.97 17.68 133.96 17.69 133.96 17.69 133.95 17.69 133.94 17.69 133.93 17.7 133.92 17.69 133.92 17.68 133.91 17.67 133.91 17.66 133.91 17.65 133.91 17.65 133.9 17.64 133.9 17.65 133.89 17.64 133.89 17.63 133.89 17.63 133.88 17.63 133.87 17.63 133.86 17.63 133.85 17.62 133.86 17.61 133.86 17.61 133.85 17.6 133.85 17.6 133.83 17.61 133.83 17.61 133.82 17.6 133.82 17.6 133.83 17.59 133.83 17.59 133.84 17.58 133.84 17.57 133.84 17.57 133.85 17.58 133.85 17.57 133.86 17.56 133.86 17.57 133.86 17.57 133.87 17.57 133.88 17.56 133.88 17.56 133.87 17.55 133.87 17.55 133.88 17.54 133.88 17.54 133.89 17.53 133.89 17.52 133.89 17.51 133.89 17.52 133.88 17.5 133.88 17.5 133.89 17.49 133.89 17.5 133.89 17.5 133.9 17.51 133.9 17.52 133.9 17.52 133.91 17.51 133.91 17.52 133.91 17.51 133.91 17.51 133.92 17.5 133.92 17.51 133.92 17.51 133.93 17.51 133.94 17.51 133.95 17.5 133.95 17.51 133.96 17.51 133.97 17.5 133.97 17.49 133.97 17.48 133.97 17.47 133.97 17.47 133.96 17.46 133.96 17.46 133.95 17.45 133.95 17.45 133.96 17.45 133.97 17.44 133.97 17.44 133.96 17.43 133.96 17.43 133.97 17.42 133.96 17.41 133.96 17.41 133.97 17.4 133.97 17.39 133.97 17.38 133.96 17.37 133.95 17.36 133.95 17.36 133.96 17.37 133.96 17.36 133.96 17.35 133.96 17.35 133.97 17.34 133.97 17.33 133.97 17.32 133.97 17.31 133.97 17.31 133.96 17.3 133.95 17.29 133.95 17.28 133.95 17.28 133.96 17.27 133.96 17.28 133.97 17.29 133.97 17.29 133.98 17.3 133.98 17.31 133.99 17.32 134 17.33 134 17.34 134 17.34 134.01 17.35 134.01 17.36 134.01 17.37 134.01 17.37 134.02 17.36 134.03 17.35 134.04 17.34 134.04 17.35 134.04 17.34 134.04 17.34 134.05 17.33 134.05 17.33 134.06 17.32 134.06 17.31 134.06 17.31 134.07 17.3 134.07 17.29 134.07 17.28 134.07 17.27 134.07 17.26 134.08"/>
<path d="M 18.89 134.48 18.88 134.48 18.87 134.48 18.87 134.47 18.86 134.46 18.86 134.45 18.85 134.45 18.85 134.44 18.84 134.44 18.83 134.44 18.83 134.43 18.83 134.42 18.82 134.42 18.81 134.42 18.8 134.42 18.75 134.41 18.74 134.41 18.75 134.41 18.74 134.4 18.73 134.4 18.72 134.4 18.72 134.39 18.72 134.38 18.71 134.38 18.7 134.38 18.7 134.37 18.7 134.36 18.7 134.35 18.69 134.34 18.68 134.34 18.68 134.33 18.68 134.32 18.67 134.32 18.66 134.32 18.67 134.32 18.67 134.31 18.66 134.31 18.65 134.31 18.65 134.3 18.64 134.29 18.65 134.29 18.64 134.29 18.64 134.28 18.63 134.28 18.63 134.27 18.62 134.27 18.61 134.27 18.61 134.26 18.61 134.25 18.61 134.24 18.6 134.25 18.6 134.24 18.59 134.24 18.58 134.24 18.57 134.24 18.56 134.24 18.56 134.23 18.55 134.23 18.54 134.23 18.54 134.22 18.53 134.22 18.53 134.23 18.52 134.23 18.52 134.24 18.51 134.24 18.51 134.25 18.52 134.25 18.51 134.25 18.51 134.26 18.5 134.26 18.5 134.27 18.49 134.27 18.49 134.28 18.48 134.28 18.47 134.27 18.46 134.27 18.45 134.27 18.45 134.28 18.44 134.28 18.44 134.27 18.43 134.27 18.42 134.27 18.41 134.27 18.4 134.27 18.38 134.27 18.38 134.28 18.37 134.28 18.35 134.28 18.33 134.28 18.32 134.28 18.31 134.28 18.3 134.28 18.29 134.28 18.28 134.28 18.27 134.28 18.27 134.27 18.26 134.27 18.26 134.26 18.25 134.26 18.24 134.26 18.23 134.26 18.21 134.26 18.2 134.26 18.2 134.27 18.2 134.28 18.2 134.29 18.22 134.29 18.21 134.3 18.22 134.3 18.23 134.3 18.23 134.31 18.24 134.31 18.23 134.31 18.23 134.32 18.25 134.32 18.23 134.32 18.23 134.33 18.22 134.33 18.21 134.33 18.21 134.34 18.22 134.34 18.23 134.34 18.23 134.35 18.24 134.36 18.25 134.36 18.25 134.37 18.25 134.38 18.24 134.38 18.24 134.39 18.25 134.39 18.24 134.4 18.25 134.4 18.25 134.41 18.26 134.41 18.26 134.42 18.25 134.42 18.24 134.42 18.24 134.43 18.25 134.43 18.26 134.44 18.26 134.45 18.27 134.45 18.27 134.46 18.26 134.46 18.25 134.46 18.24 134.46 18.23 134.46 18.22 134.46 18.21 134.46 18.21 134.47 18.22 134.47 18.23 134.47 18.23 134.48 18.24 134.48 18.26 134.48 18.27 134.48 18.28 134.48 18.29 134.48 18.3 134.48 18.31 134.48 18.32 134.48 18.33 134.48 18.34 134.48 18.35 134.48 18.35 134.49 18.36 134.49 18.37 134.49 18.37 134.5 18.37 134.51 18.38 134.51 18.39 134.52 18.39 134.53 18.4 134.54 18.39 134.55 18.39 134.56 18.38 134.56 18.38 134.57 18.38 134.58 18.39 134.58 18.4 134.58 18.4 134.59 18.4 134.6 18.4 134.61 18.39 134.61 18.38 134.61 18.37 134.61"/>
<path d="M 16.44 134.62 16.44 134.61 16.43 134.61 16.44 134.61 16.45 134.61 16.45 134.62 16.44 134.62"/>
<path d="M 19.94 134.62 19.93 134.62 19.92 134.62 19.93 134.61 19.94 134.61 19.94 134.6 19.95 134.6 19.97 134.6 19.98 134.6 19.99 134.6 19.99 134.59 20 134.59 20 134.6 19.99 134.6 19.99 134.61 19.98 134.61 19.96 134.61 19.95 134.61 19.95 134.62 19.94 134.62"/>
<path d="M 19.85 134.62 19.86 134.62 19.87 134.62 19.87 134.61 19.87 134.62 19.86 134.62 19.85 134.62"/>
<path d="M 16.46 134.63 16.45 134.63 16.45 134.62 16.47 134.62 16.47 134.63 16.46 134.63"/>
<path d="M 19.73 134.63 19.75 134.63 19.74 134.63 19.73 134.63"/>
<path d="M 17 134.64 16.99 134.64 16.99 134.63 16.98 134.63 16.99 134.63 17.01 134.63 17.01 134.64 17 134.63 17 134.64"/>
<path d="M 17.71 134.64 17.72 134.64 17.71 134.64"/>
<path d="M 16.24 134.65 16.23 134.64 16.24 134.64 16.24 134.63 16.23 134.63 16.23 134.64 16.22 134.64 16.21 134.64 16.21 134.63 16.2 134.63 16.2 134.62 16.21 134.62 16.22 134.62 16.23 134.62 16.23 134.61 16.23 134.6 16.24 134.6 16.25 134.61 16.25 134.6 16.24 134.6 16.26 134.6 16.26 134.61 16.27 134.61 16.28 134.61 16.27 134.62 16.27 134.63 16.26 134.63 16.27 134.63 16.27 134.64 16.26 134.64 16.25 134.64 16.24 134.64 16.24 134.65"/>
<path d="M 16.49 134.65 16.48 134.65 16.48 134.64 16.47 134.64 16.48 134.64 16.49 134.65"/>
<path d="M 17.04 134.65 17.03 134.65 17.03 134.64 17.04 134.64 17.04 134.65"/>
<path d="M 19.74 134.65 19.73 134.65 19.73 134.64 19.74 134.65 19.74 134.64 19.75 134.64 19.76 134.64 19.76 134.63 19.77 134.63 19.78 134.63 19.79 134.62 19.8 134.62 19.81 134.62 19.81 134.63 19.82 134.63 19.83 134.63 19.84 134.63 19.83 134.63 19.83 134.64 19.82 134.64 19.81 134.64 19.8 134.64 19.8 134.65 19.79 134.65 19.78 134.65 19.76 134.65 19.74 134.65"/>
<path d="M 17.06 134.66 17.05 134.66 17.04 134.66 17.04 134.65 17.05 134.65 17.05 134.66 17.06 134.66"/>
<path d="M 18.37 134.61 18.35 134.61 18.33 134.61 18.33 134.6 18.33 134.59 18.33 134.58 18.32 134.57 18.32 134.56 18.31 134.56 18.3 134.56 18.3 134.55 18.3 134.54 18.3 134.53 18.29 134.53 18.29 134.52 18.28 134.52 18.28 134.51 18.27 134.51 18.27 134.5 18.26 134.49 18.25 134.49 18.24 134.49 18.25 134.49 18.24 134.48 18.23 134.48 18.22 134.48 18.2 134.48 18.18 134.48 18.18 134.47 18.18 134.46 18.18 134.45 18.18 134.44 18.18 134.43 18.17 134.43 18.17 134.42 18.16 134.42 18.17 134.42 18.17 134.41 18.17 134.4 18.18 134.4 18.18 134.39 18.17 134.39 18.17 134.38 18.17 134.37 18.16 134.36 18.15 134.36 18.14 134.36 18.14 134.35 18.14 134.34 18.14 134.33 18.14 134.32 18.16 134.32 18.17 134.32 18.18 134.32 18.17 134.31 18.16 134.31 18.15 134.31 18.14 134.31 18.14 134.32 18.13 134.32 18.13 134.31 18.14 134.31 18.14 134.3 18.14 134.29 18.15 134.29 18.15 134.28 18.14 134.28 18.14 134.29 18.13 134.29 18.12 134.28 18.12 134.27 18.12 134.26 18.11 134.25 18.11 134.24 18.12 134.24 18.13 134.23 18.14 134.23 18.14 134.22 18.15 134.21 18.16 134.21 18.16 134.2 18.17 134.19 18.15 134.19 18.14 134.19 18.14 134.18 18.13 134.18 18.12 134.18 18.11 134.18 18.12 134.18 18.12 134.19 18.1 134.19 18.09 134.19 18.09 134.2 18.08 134.2 18.08 134.21 18.06 134.21 18.06 134.2 18.05 134.2 18.06 134.2 18.05 134.2 18.03 134.2 18 134.2 17.98 134.2 17.97 134.2 17.96 134.2 17.96 134.21 17.94 134.21 17.93 134.21 17.94 134.22 17.93 134.22 17.92 134.22 17.91 134.22 17.91 134.23 17.9 134.23 17.89 134.24 17.88 134.24 17.88 134.25 17.87 134.25 17.86 134.25 17.86 134.26 17.85 134.27 17.85 134.28 17.85 134.29 17.86 134.29 17.86 134.3 17.86 134.31 17.86 134.32 17.87 134.33 17.87 134.34 17.86 134.35 17.86 134.36 17.86 134.37 17.87 134.37 17.87 134.38 17.87 134.39 17.87 134.41 17.87 134.42 17.86 134.43 17.85 134.44 17.84 134.44 17.83 134.44 17.82 134.45 17.81 134.47 17.8 134.47 17.81 134.48 17.8 134.49 17.79 134.49 17.79 134.5 17.8 134.5 17.79 134.5 17.78 134.51 17.78 134.52 17.77 134.53 17.77 134.54 17.77 134.55 17.77 134.56 17.77 134.57 17.76 134.57 17.74 134.57 17.73 134.58 17.72 134.58 17.72 134.57 17.72 134.58 17.71 134.58 17.72 134.58 17.71 134.58 17.7 134.58 17.69 134.58 17.68 134.58 17.69 134.58 17.69 134.59 17.68 134.6 17.69 134.61 17.69 134.62 17.7 134.62 17.7 134.63 17.71 134.63 17.71 134.64 17.71 134.65 17.72 134.65 17.72 134.64 17.73 134.65 17.74 134.65 17.74 134.64 17.75 134.64 17.76 134.64 17.76 134.65 17.77 134.65 17.76 134.66 17.75 134.66 17.74 134.66 17.74 134.65 17.73 134.65 17.72 134.65 17.73 134.65 17.73 134.66 17.72 134.66 17.72 134.65 17.71 134.65 17.71 134.66 17.7 134.66 17.7 134.65 17.69 134.65 17.68 134.65 17.68 134.64 17.67 134.64 17.67 134.63 17.66 134.63 17.65 134.63 17.64 134.63 17.63 134.63 17.63 134.62 17.62 134.62 17.62 134.63 17.63 134.63 17.63 134.64 17.62 134.64 17.61 134.64 17.61 134.65 17.6 134.65 17.59 134.65 17.58 134.65 17.58 134.64 17.57 134.64 17.57 134.63 17.57 134.64 17.55 134.64 17.54 134.64 17.54 134.65 17.55 134.64 17.55 134.65 17.54 134.65 17.52 134.65 17.52 134.63 17.51 134.63 17.51 134.62 17.52 134.62 17.52 134.61 17.53 134.61 17.52 134.61 17.53 134.6 17.54 134.6 17.55 134.59 17.55 134.58 17.56 134.58 17.57 134.58 17.57 134.57 17.58 134.57 17.59 134.57 17.6 134.57 17.59 134.56 17.6 134.56 17.6 134.55 17.61 134.55 17.62 134.55 17.63 134.55 17.64 134.55"/>
<path d="M 17.07 134.67 17.07 134.66 17.07 134.67"/>
<path d="M 17.1 134.67 17.09 134.67 17.09 134.66 17.1 134.66 17.1 134.67"/>
<path d="M 17.06 134.67 17.05 134.67 17.06 134.66 17.06 134.67"/>
<path d="M 17.64 134.67 17.63 134.67 17.64 134.67"/>
<path d="M 17.63 134.68 17.62 134.67 17.63 134.67 17.63 134.68"/>
<path d="M 16.78 134.71 16.77 134.71 16.78 134.71 16.78 134.7 16.78 134.71"/>
<path d="M 18.1 134.74 18.09 134.74 18.1 134.74"/>
<path d="M 17.08 134.4 17.08 134.41 17.07 134.41 17.08 134.41 17.08 134.42 17.07 134.42 17.07 134.43 17.07 134.44 17.06 134.44 17.06 134.45 17.05 134.45 17.05 134.46 17.05 134.47 17.05 134.48 17.06 134.48 17.05 134.48 17.04 134.48 17.04 134.49 17.03 134.49 17.02 134.49 17.01 134.49 17.01 134.48 17 134.48 16.99 134.48 16.98 134.47 16.97 134.46 16.97 134.45 16.97 134.44 16.98 134.44 16.98 134.43 16.97 134.43 16.98 134.42 16.98 134.41 16.97 134.41 16.97 134.4 16.97 134.39 16.96 134.39 16.96 134.38 16.95 134.38 16.95 134.37 16.94 134.37 16.92 134.37 16.91 134.36 16.9 134.36 16.9 134.37 16.89 134.37 16.88 134.37 16.89 134.38 16.87 134.38 16.87 134.39 16.86 134.39 16.85 134.39 16.85 134.4 16.84 134.4 16.83 134.41 16.82 134.41 16.82 134.42 16.81 134.42 16.8 134.42 16.78 134.43 16.78 134.44 16.77 134.45 16.77 134.46 16.76 134.47 16.75 134.47 16.74 134.47 16.73 134.48 16.73 134.49 16.73 134.5 16.72 134.5 16.73 134.51 16.72 134.51 16.73 134.52 16.74 134.52 16.74 134.53 16.73 134.53 16.73 134.54 16.74 134.54 16.74 134.55 16.74 134.56 16.75 134.56 16.75 134.57 16.76 134.57 16.77 134.57 16.77 134.56 16.78 134.56 16.8 134.56 16.81 134.56 16.82 134.56 16.83 134.56 16.83 134.57 16.83 134.58 16.84 134.58 16.86 134.57 16.87 134.57 16.87 134.58 16.89 134.59 16.9 134.59 16.92 134.59 16.92 134.6 16.91 134.6 16.9 134.6 16.89 134.6 16.89 134.61 16.89 134.62 16.9 134.62 16.91 134.62 16.92 134.62 16.93 134.62 16.94 134.62 16.95 134.61 16.94 134.61 16.95 134.61 16.95 134.6 16.96 134.6 16.97 134.6 16.98 134.6 16.97 134.6 16.99 134.59 17 134.59 17.03 134.59 17.03 134.6 17.03 134.61 17.02 134.61 17.01 134.61 17.01 134.6 17 134.6 16.99 134.61 17 134.61 16.99 134.61 16.99 134.62 17 134.62 17.01 134.62 17.02 134.62 17.02 134.63 17.02 134.64 17.03 134.64 17.03 134.63 17.05 134.63 17.06 134.63 17.07 134.63 17.1 134.63 17.1 134.64 17.1 134.65 17.11 134.65 17.11 134.66 17.13 134.66 17.14 134.66 17.15 134.66 17.16 134.66 17.17 134.66 17.17 134.65 17.19 134.65 17.2 134.65 17.21 134.65 17.22 134.65 17.23 134.65 17.24 134.65 17.25 134.65 17.25 134.66 17.26 134.66 17.27 134.66 17.27 134.67 17.28 134.67 17.28 134.68 17.29 134.69 17.3 134.69 17.31 134.69 17.32 134.69 17.33 134.69 17.33 134.7 17.34 134.7 17.35 134.7 17.36 134.7 17.36 134.69 17.35 134.69 17.37 134.69 17.37 134.68 17.38 134.68 17.39 134.68 17.4 134.67 17.41 134.67 17.42 134.67 17.43 134.67 17.44 134.67 17.46 134.67 17.46 134.66 17.47 134.66 17.48 134.66 17.49 134.66 17.5 134.66 17.51 134.66 17.51 134.65 17.53 134.65 17.53 134.66 17.55 134.66 17.54 134.66 17.56 134.66 17.57 134.66 17.57 134.65 17.58 134.65 17.6 134.65 17.61 134.65 17.62 134.65 17.62 134.66 17.63 134.66 17.62 134.66 17.61 134.66 17.61 134.68 17.62 134.68 17.61 134.69 17.62 134.69 17.63 134.69 17.62 134.69 17.62 134.7 17.61 134.71 17.61 134.72 17.6 134.72 17.59 134.72 17.59 134.73 17.61 134.73 17.62 134.73 17.64 134.73 17.66 134.73 17.67 134.74 17.68 134.74 17.68 134.75 17.69 134.75 17.71 134.75 17.72 134.75 17.74 134.75"/>
<path d="M 17.95 134.76 17.94 134.76 17.92 134.75 17.93 134.75 17.94 134.75 17.95 134.75 17.95 134.76"/>
<path d="M 16.63 134.76 16.63 134.75 16.64 134.75 16.65 134.75 16.65 134.76 16.65 134.75 16.65 134.76 16.64 134.76 16.63 134.76"/>
<path d="M 19.35 134.77 19.34 134.77 19.35 134.77"/>
<path d="M 16.66 134.77 16.65 134.77 16.65 134.76 16.66 134.76 16.67 134.76 16.67 134.77 16.66 134.77"/>
<path d="M 18.41 134.78 18.4 134.78 18.39 134.78 18.4 134.78 18.4 134.77 18.41 134.77 18.41 134.78"/>
<path d="M 18.03 134.78 18.02 134.78 18.01 134.78 18.02 134.78 18.03 134.78"/>
<path d="M 16.66 134.78 16.65 134.78 16.65 134.77 16.66 134.77 16.66 134.78"/>
<path d="M 17.74 134.79 17.74 134.78 17.73 134.78 17.71 134.78 17.71 134.77 17.7 134.77 17.69 134.77 17.68 134.77 17.69 134.77 17.69 134.76 17.7 134.76 17.72 134.76 17.73 134.76 17.74 134.77 17.75 134.77 17.76 134.78 17.76 134.79 17.75 134.79 17.74 134.79"/>
<path d="M 18.03 134.79 18.02 134.79 18.03 134.79"/>
<path d="M 16.28 134.81 16.27 134.81 16.28 134.81"/>
<path d="M 17.46 134.81 17.45 134.81 17.44 134.8 17.43 134.8 17.44 134.8 17.45 134.8 17.46 134.8 17.47 134.8 17.47 134.81 17.48 134.81 17.47 134.81 17.46 134.81"/>
<path d="M 16.83 134.81 16.82 134.81 16.83 134.81"/>
<path d="M 15.56 134.83 15.55 134.83 15.55 134.82 15.56 134.82 15.56 134.83"/>
<path d="M 15.53 134.86 15.53 134.85 15.53 134.86 15.52 134.86 15.51 134.86 15.5 134.86 15.5 134.85 15.51 134.85 15.51 134.84 15.53 134.84 15.52 134.84 15.53 134.84 15.53 134.83 15.54 134.83 15.55 134.83 15.54 134.83 15.54 134.84 15.55 134.84 15.55 134.85 15.56 134.85 15.56 134.86 15.55 134.85 15.55 134.86 15.54 134.86 15.53 134.86"/>
<path d="M 17.34 134.9 17.34 134.89 17.34 134.9"/>
<path d="M 18.02 134.91 18.03 134.91 18.04 134.91 18.05 134.91 18.06 134.9 18.07 134.9 18.08 134.9 18.09 134.9 18.1 134.9 18.09 134.9 18.09 134.89 18.1 134.9 18.11 134.89 18.13 134.89 18.14 134.88 18.15 134.88 18.16 134.88 18.17 134.88 18.16 134.88 18.17 134.87 18.17 134.86 18.18 134.87 18.19 134.87 18.2 134.87 18.21 134.87 18.22 134.87 18.23 134.86 18.22 134.86 18.22 134.85 18.23 134.85 18.24 134.84 18.24 134.83 18.26 134.83 18.26 134.82 18.27 134.82 18.28 134.82 18.28 134.81 18.29 134.81 18.29 134.8 18.3 134.8 18.3 134.79 18.31 134.79 18.32 134.79 18.33 134.79 18.33 134.78 18.34 134.78 18.34 134.77 18.35 134.77 18.37 134.77 18.38 134.77 18.39 134.76 18.39 134.77 18.4 134.77 18.41 134.77 18.42 134.77 18.43 134.78 18.44 134.77 18.44 134.78 18.45 134.78 18.46 134.78 18.47 134.78 18.47 134.79 18.48 134.79 18.49 134.79 18.48 134.79 18.49 134.79 18.51 134.79 18.5 134.79 18.49 134.8 18.51 134.8 18.52 134.8 18.52 134.79 18.53 134.79 18.54 134.8 18.55 134.8 18.55 134.79 18.55 134.8 18.56 134.8 18.57 134.8 18.58 134.8 18.61 134.8 18.62 134.8 18.65 134.8 18.66 134.8 18.67 134.8 18.68 134.8 18.69 134.8 18.7 134.8 18.73 134.79 18.74 134.79 18.74 134.8 18.75 134.8 18.8 134.8 18.82 134.79 18.83 134.79 18.84 134.79 18.85 134.79 18.87 134.79 18.87 134.78 18.88 134.78 18.89 134.78 18.91 134.78 18.94 134.77 18.95 134.77 18.97 134.77 18.98 134.77 18.99 134.77 19 134.77 19.02 134.77 19.03 134.77 19.04 134.77 19.04 134.78 19.05 134.78 19.06 134.78 19.06 134.79 19.08 134.79 19.09 134.79 19.1 134.8 19.11 134.8 19.12 134.8 19.13 134.8 19.14 134.8 19.14 134.81 19.15 134.81 19.16 134.8 19.17 134.8 19.19 134.8 19.21 134.79 19.23 134.79 19.24 134.79 19.25 134.78 19.26 134.78 19.27 134.78 19.27 134.77 19.28 134.77 19.28 134.76 19.29 134.76 19.3 134.76 19.31 134.76 19.32 134.76 19.32 134.75 19.33 134.75 19.35 134.75 19.35 134.74 19.36 134.74 19.38 134.74 19.39 134.74 19.4 134.74 19.4 134.75 19.39 134.75 19.38 134.75 19.35 134.75 19.35 134.76 19.34 134.77 19.35 134.76 19.36 134.76 19.37 134.76 19.38 134.76 19.39 134.76 19.4 134.76 19.4 134.75 19.41 134.75 19.42 134.75 19.43 134.75 19.44 134.75 19.44 134.74 19.45 134.74 19.45 134.73 19.47 134.73 19.47 134.72"/>
<path d="M 17.74 134.75 17.75 134.75 17.77 134.75 17.78 134.75 17.78 134.74 17.81 134.74 17.8 134.75 17.81 134.75 17.82 134.75 17.85 134.75 17.86 134.74 17.87 134.74 17.88 134.74 17.88 134.75 17.89 134.75 17.9 134.75 17.9 134.74 17.92 134.75 17.93 134.75 17.95 134.75 17.96 134.75 17.97 134.75 17.99 134.75 18 134.75 18.01 134.75 18.02 134.75 18.02 134.74 18.03 134.74 18.04 134.74 18.03 134.74 18.03 134.73 18.01 134.73 18.01 134.74 18.01 134.73 18.01 134.72 18.02 134.72 18.03 134.73 18.04 134.73 18.06 134.73 18.05 134.73 18.06 134.73 18.07 134.73 18.07 134.74 18.08 134.74 18.09 134.74 18.07 134.74 18.07 134.75 18.06 134.75 18.05 134.75 18.05 134.76 18.06 134.76 18.07 134.76 18.08 134.76 18.08 134.77 18.07 134.78 18.06 134.78 18.04 134.78 18.04 134.79 18.04 134.8 18.03 134.8 18.02 134.79 18.01 134.8 18.02 134.79 18.02 134.78 18.01 134.78 18.01 134.79 18.01 134.78 18 134.78 17.99 134.78 17.98 134.78 17.97 134.78 17.98 134.77 17.97 134.77 17.96 134.77 17.95 134.77 17.94 134.77 17.95 134.77 17.94 134.77 17.94 134.78 17.95 134.78 17.93 134.78 17.92 134.79 17.91 134.79 17.9 134.79 17.89 134.79 17.88 134.79 17.88 134.78 17.87 134.78 17.85 134.78 17.84 134.78 17.83 134.78 17.82 134.78 17.81 134.78 17.8 134.78 17.78 134.78 17.78 134.79 17.78 134.8 17.79 134.8 17.8 134.8 17.81 134.8 17.81 134.81 17.83 134.81 17.84 134.81 17.85 134.81 17.86 134.82 17.85 134.82 17.85 134.83 17.84 134.83 17.85 134.83 17.86 134.83 17.87 134.83 17.87 134.84 17.86 134.84 17.85 134.84 17.87 134.84 17.87 134.85 17.86 134.85 17.85 134.85 17.85 134.86 17.88 134.86 17.9 134.86 17.92 134.87 17.93 134.87 17.91 134.87 17.9 134.88 17.89 134.88 17.91 134.88 17.9 134.89 17.92 134.89 17.92 134.88 17.93 134.88 17.94 134.88 17.95 134.88 17.95 134.87 17.96 134.87 17.97 134.88 17.97 134.89 17.98 134.89 17.98 134.9 17.99 134.9 18 134.91 18.02 134.91"/>
<path d="M 17.39 134.91 17.38 134.91 17.39 134.91"/>
<path d="M 17.67 134.92 17.66 134.92 17.67 134.92"/>
<path d="M 17.44 134.93 17.44 134.92 17.43 134.92 17.42 134.92 17.41 134.92 17.4 134.92 17.39 134.92 17.38 134.92 17.36 134.92 17.36 134.91 17.35 134.91 17.36 134.91 17.38 134.91 17.37 134.91 17.36 134.91 17.38 134.91 17.38 134.9 17.39 134.9 17.4 134.9 17.4 134.89 17.39 134.89 17.37 134.89 17.36 134.89 17.36 134.9 17.35 134.9 17.36 134.9 17.35 134.9 17.34 134.9 17.33 134.9 17.31 134.9 17.3 134.9 17.29 134.9 17.28 134.9 17.27 134.9 17.26 134.91 17.25 134.91 17.23 134.91 17.21 134.91 17.2 134.91 17.19 134.91 17.18 134.91 17.16 134.91 17.16 134.9 17.15 134.9 17.14 134.9 17.12 134.89 17.1 134.89 17.07 134.9 17.07 134.89 17.05 134.89 17.05 134.9 17.04 134.89 17.04 134.9 17.03 134.9 17.02 134.9 17.01 134.9 17 134.9 16.99 134.9 16.98 134.9 16.97 134.9 16.96 134.9 16.96 134.89 16.97 134.89 16.96 134.89 16.96 134.88 16.95 134.88 16.94 134.87 16.93 134.87 16.91 134.87 16.9 134.87 16.9 134.86 16.89 134.86 16.89 134.85 16.88 134.85 16.87 134.85 16.86 134.85 16.86 134.84 16.85 134.84 16.84 134.84 16.83 134.84 16.82 134.84 16.81 134.84 16.8 134.83 16.79 134.83 16.78 134.83 16.79 134.83 16.8 134.83 16.8 134.82 16.81 134.82 16.82 134.82 16.82 134.81 16.83 134.81 16.83 134.8 16.81 134.8 16.79 134.8 16.78 134.8 16.77 134.8 16.76 134.8 16.75 134.8 16.75 134.79 16.74 134.79 16.73 134.79 16.72 134.79 16.72 134.78 16.73 134.78 16.75 134.78 16.74 134.78 16.74 134.77 16.73 134.77 16.72 134.77 16.72 134.76 16.71 134.77 16.71 134.76 16.7 134.76 16.7 134.75 16.71 134.75 16.72 134.74 16.71 134.73 16.72 134.73 16.72 134.72 16.73 134.71 16.74 134.71 16.75 134.71 16.74 134.71 16.74 134.7 16.73 134.7 16.72 134.7 16.72 134.69 16.73 134.69 16.74 134.69 16.75 134.69 16.76 134.69 16.77 134.69 16.78 134.69 16.78 134.7 16.79 134.7 16.8 134.7 16.81 134.7 16.82 134.7 16.82 134.69 16.81 134.69 16.81 134.68 16.81 134.67 16.82 134.67 16.83 134.67 16.84 134.67 16.85 134.67 16.85 134.68 16.86 134.68 16.86 134.69 16.86 134.7 16.86 134.71 16.87 134.71 16.87 134.72 16.88 134.72 16.89 134.72 16.9 134.72 16.91 134.72 16.9 134.72 16.91 134.73 16.92 134.73 16.92 134.74 16.93 134.74 16.94 134.74 16.94 134.75 16.97 134.75 16.97 134.74 16.98 134.74 16.99 134.74 16.97 134.74 16.97 134.73 16.99 134.73 16.99 134.74 17 134.74 17.01 134.74 17.02 134.74 17.03 134.74 17.04 134.75 17.05 134.75 17.05 134.74 17.06 134.74 17.07 134.75 17.08 134.75 17.09 134.75 17.09 134.76 17.1 134.76 17.11 134.76 17.12 134.76 17.12 134.77 17.12 134.76 17.13 134.76 17.13 134.77 17.14 134.77 17.15 134.77 17.15 134.78 17.16 134.78 17.17 134.78 17.19 134.78 17.18 134.77 17.19 134.77 17.2 134.77 17.21 134.77 17.22 134.77 17.24 134.77 17.25 134.77 17.26 134.77 17.26 134.78 17.27 134.78 17.28 134.79 17.29 134.79 17.3 134.79 17.3 134.8 17.31 134.79 17.31 134.8 17.32 134.8 17.33 134.8 17.35 134.8 17.34 134.8 17.36 134.8 17.37 134.8 17.38 134.8 17.38 134.81 17.4 134.81 17.4 134.82 17.42 134.82 17.43 134.82 17.44 134.83 17.45 134.83 17.46 134.84 17.47 134.84 17.48 134.84 17.49 134.84 17.48 134.84 17.5 134.84 17.51 134.84 17.52 134.84 17.53 134.85 17.51 134.85 17.51 134.86 17.54 134.86 17.56 134.86 17.57 134.86 17.58 134.86 17.59 134.86 17.59 134.87 17.58 134.87 17.59 134.87 17.61 134.87 17.61 134.88 17.6 134.88 17.59 134.88 17.58 134.89 17.59 134.89 17.58 134.9 17.56 134.9 17.55 134.91 17.54 134.91 17.53 134.91 17.52 134.91 17.51 134.91 17.51 134.92 17.51 134.91 17.5 134.91 17.49 134.92 17.48 134.92 17.47 134.92 17.46 134.92 17.46 134.93 17.44 134.93"/>
<path d="M 17.38 134.93 17.37 134.93 17.35 134.93 17.35 134.92 17.34 134.92 17.33 134.92 17.32 134.92 17.33 134.92 17.33 134.91 17.33 134.92 17.34 134.92 17.35 134.92 17.36 134.92 17.37 134.92 17.38 134.92 17.38 134.93 17.39 134.92 17.4 134.93 17.39 134.93 17.38 134.93"/>
<path d="M 17.59 134.93 17.6 134.93 17.59 134.93"/>
<path d="M 17.6 134.94 17.6 134.93 17.6 134.94"/>
<path d="M 19.22 134.94 19.21 134.94 19.22 134.94"/>
<path d="M 18.99 134.94 18.98 134.94 18.99 134.94"/>
<path d="M 19.19 134.94 19.18 134.94 19.19 134.94 19.19 134.93 19.2 134.93 19.2 134.94 19.19 134.94"/>
<path d="M 17.6 134.95 17.6 134.94 17.6 134.95"/>
<path d="M 17.6 134.95 17.58 134.95 17.57 134.94 17.55 134.94 17.54 134.94 17.54 134.93 17.55 134.93 17.56 134.93 17.56 134.92 17.56 134.93 17.55 134.93 17.54 134.92 17.55 134.92 17.56 134.92 17.56 134.91 17.57 134.91 17.58 134.91 17.58 134.9 17.58 134.91 17.59 134.91 17.6 134.91 17.61 134.91 17.62 134.91 17.63 134.91 17.64 134.91 17.64 134.92 17.65 134.91 17.66 134.91 17.67 134.91 17.68 134.92 17.7 134.92 17.71 134.92 17.72 134.92 17.72 134.93 17.71 134.93 17.7 134.93 17.68 134.93 17.67 134.93 17.66 134.93 17.65 134.93 17.64 134.93 17.63 134.93 17.62 134.93 17.61 134.93 17.61 134.94 17.6 134.94 17.6 134.95"/>
<path d="M 18.38 134.95 18.37 134.95 18.36 134.95 18.35 134.95 18.34 134.95 18.33 134.95 18.33 134.94 18.34 134.94 18.35 134.94 18.38 134.94 18.38 134.95"/>
<path d="M 18.49 134.95 18.48 134.95 18.47 134.95 18.46 134.95 18.47 134.95 18.48 134.95 18.49 134.95 18.5 134.94 18.51 134.95 18.51 134.94 18.51 134.95 18.49 134.95 18.5 134.95 18.49 134.95"/>
<path d="M 19.2 134.99 19.2 134.98 19.21 134.98 19.2 134.98 19.2 134.99"/>
<path d="M 16.07 134.99 16.06 134.99 16.07 134.99"/>
<path d="M 17.91 135.02 17.9 135.02 17.89 135.02 17.88 135.02 17.87 135.02 17.86 135.02 17.85 135.01 17.84 135.01 17.83 135 17.82 135 17.84 135 17.83 135 17.82 135 17.82 134.99 17.81 134.99 17.8 134.99 17.77 134.99 17.76 134.99 17.75 134.99 17.74 134.99 17.73 134.99 17.72 134.98 17.71 134.98 17.7 134.98 17.7 134.99 17.69 134.99 17.68 134.98 17.67 134.98 17.66 134.98 17.67 134.98 17.68 134.98 17.68 134.97 17.69 134.97 17.68 134.97 17.67 134.97 17.66 134.97 17.65 134.97 17.64 134.97 17.64 134.98 17.61 134.98 17.59 134.98 17.58 134.98 17.57 134.98 17.56 134.98 17.54 134.97 17.55 134.97 17.56 134.97 17.57 134.97 17.57 134.96 17.56 134.96 17.57 134.96 17.58 134.96 17.59 134.96 17.6 134.96 17.6 134.95 17.61 134.95 17.63 134.95 17.64 134.95 17.65 134.95 17.65 134.94 17.66 134.94 17.67 134.94 17.67 134.95 17.68 134.95 17.69 134.95 17.7 134.95 17.7 134.94 17.71 134.94 17.71 134.95 17.72 134.95 17.71 134.94 17.74 134.94 17.74 134.95 17.75 134.94 17.78 134.94 17.78 134.95 17.79 134.95 17.8 134.95 17.81 134.95 17.82 134.95 17.84 134.95 17.85 134.96 17.87 134.96 17.88 134.97 17.89 134.97 17.9 134.97 17.9 134.98 17.91 134.98 17.92 134.98 17.93 134.99 17.92 134.99 17.93 134.99 17.93 135 17.92 135 17.92 135.01 17.91 135.01 17.92 135.01 17.92 135.02 17.91 135.02"/>
<path d="M 15.51 135.1 15.52 135.09 15.53 135.09 15.54 135.08 15.54 135.07 15.55 135.07 15.56 135.06 15.57 135.06 15.59 135.06 15.6 135.06 15.61 135.06 15.61 135.07 15.62 135.07 15.62 135.08 15.64 135.08 15.65 135.08 15.67 135.08 15.68 135.08 15.68 135.07 15.69 135.07 15.67 135.07 15.68 135.07 15.67 135.06 15.68 135.06 15.7 135.06 15.71 135.06 15.72 135.06 15.73 135.06 15.74 135.05 15.75 135.05 15.76 135.05 15.75 135.05 15.75 135.04 15.76 135.04 15.77 135.03 15.78 135.03 15.8 135.03 15.82 135.03 15.82 135.02 15.83 135.02 15.86 135.03 15.88 135.02 15.9 135.02 15.94 135.02 15.96 135.02 15.97 135.02 15.99 135.02 16 135.01 16.01 135.01 16.02 135.01 16.02 135.02 16.03 135.02 16.04 135.02 16.05 135.02 16.06 135.02 16.06 135.01 16.07 135.01 16.07 135 16.07 134.99 16.06 134.99 16.07 134.99 16.06 134.98 16.05 134.98 16.04 134.98 16.03 134.97 16.02 134.97 16.01 134.96 16 134.96 15.98 134.96 15.97 134.96 15.96 134.95 15.95 134.95 15.92 134.95 15.91 134.95 15.91 134.94 15.9 134.94 15.91 134.94 15.89 134.94 15.87 134.94 15.87 134.93 15.86 134.93 15.86 134.94 15.86 134.93 15.85 134.93 15.86 134.93 15.87 134.92 15.85 134.92 15.85 134.91 15.86 134.91 15.87 134.91 15.9 134.91 15.91 134.91 15.92 134.9 15.93 134.9 15.94 134.9 15.94 134.89 15.95 134.89 15.95 134.88 15.96 134.88 15.96 134.87 15.97 134.87 15.97 134.86 15.98 134.86 15.98 134.85 15.99 134.85 16 134.85 16.01 134.85 16.03 134.84 16.04 134.84 16.05 134.84 16.06 134.83 16.08 134.83 16.09 134.83 16.09 134.82 16.09 134.81 16.1 134.81 16.11 134.81 16.12 134.81 16.13 134.81 16.18 134.81 16.2 134.81 16.21 134.81 16.23 134.8 16.25 134.8 16.26 134.8 16.27 134.8 16.28 134.8 16.28 134.81 16.29 134.81 16.3 134.81 16.3 134.82 16.31 134.82 16.31 134.83 16.32 134.83 16.32 134.82 16.33 134.82 16.33 134.83 16.34 134.83 16.35 134.83 16.36 134.83 16.36 134.84 16.38 134.84 16.39 134.84 16.4 134.84 16.42 134.84 16.43 134.84 16.43 134.85 16.44 134.85 16.45 134.86 16.46 134.86 16.47 134.86 16.48 134.86 16.5 134.87 16.51 134.86 16.51 134.87 16.52 134.87 16.54 134.87 16.54 134.88 16.55 134.88 16.56 134.89 16.55 134.89 16.57 134.89 16.57 134.9 16.58 134.9 16.58 134.91 16.59 134.91 16.6 134.91 16.62 134.91 16.63 134.92 16.65 134.92 16.66 134.92 16.66 134.93 16.67 134.93 16.68 134.93 16.69 134.93 16.69 134.94 16.7 134.94 16.71 134.94 16.72 134.94 16.73 134.94 16.73 134.95 16.75 134.94 16.8 134.95 16.81 134.95 16.82 134.95 16.83 134.95 16.84 134.95 16.86 134.96 16.88 134.96 16.89 134.96 16.9 134.96 16.91 134.96 16.92 134.97 16.93 134.97 16.94 134.97 16.95 134.97 16.96 134.97 16.97 134.97 16.98 134.97 17 134.98 17.01 134.98 17.03 134.98 17.05 134.98 17.06 134.98 17.08 134.98 17.1 134.98 17.11 134.99 17.13 134.99 17.14 134.99 17.15 134.99 17.15 135 17.17 135 17.18 135 17.21 135 17.21 135.01 17.22 135.01 17.22 135.02 17.23 135.02 17.22 135.02 17.23 135.03 17.23 135.04 17.24 135.04 17.25 135.04 17.27 135.04 17.27 135.05 17.28 135.05 17.29 135.05 17.3 135.05 17.31 135.05 17.32 135.05 17.33 135.05 17.36 135.05 17.38 135.05 17.4 135.05 17.41 135.05 17.41 135.04 17.42 135.04 17.42 135.05 17.43 135.04 17.44 135.04 17.47 135.04 17.47 135.03 17.48 135.03 17.51 135.04 17.52 135.04 17.53 135.04 17.54 135.04 17.56 135.04 17.57 135.04 17.59 135.05 17.62 135.05 17.63 135.05 17.64 135.05 17.66 135.06 17.68 135.06 17.71 135.06 17.72 135.06 17.73 135.06 17.74 135.06 17.76 135.06 17.77 135.06 17.78 135.07 17.8 135.07 17.81 135.07 17.84 135.07 17.85 135.07 17.87 135.07 17.88 135.07 17.9 135.08 17.93 135.08 17.95 135.08 17.98 135.08 18 135.08 18.02 135.08 18.03 135.08 18.06 135.09 18.07 135.09 18.09 135.09 18.1 135.09 18.11 135.09 18.12 135.08 18.13 135.08 18.14 135.08 18.14 135.09 18.15 135.09 18.16 135.09 18.17 135.09 18.19 135.09 18.2 135.09 18.21 135.09 18.22 135.09 18.23 135.09 18.25 135.1 18.26 135.1 18.27 135.1 18.27 135.09 18.27 135.1 18.28 135.1 18.29 135.1 18.3 135.1 18.31 135.1 18.35 135.1 18.35 135.11 18.38 135.11 18.38 135.12 18.39 135.12 18.4 135.12 18.41 135.12 18.43 135.12 18.42 135.13 18.43 135.13 18.44 135.13 18.45 135.13 18.46 135.13 18.46 135.14 18.47 135.14"/>
</g>
</svg>