<?xml version="1.0"?>
<svg xmlns="http://www.w3.org/2000/svg" version="1.2" baseProfile="tiny" width="800" height="223" viewBox="0 0 800 223" stroke-linecap="round" stroke-linejoin="round">
<g id="cd22" fill="none" stroke="black" stroke-width="0.05">
<path d="M 30.78 130.4 30.77 130.4 30.78 130.39 30.78 130.4"/>
<path d="M 29.21 130.52 29.2 130.52 29.21 130.51 29.22 130.51 29.23 130.51 29.24 130.51 29.25 130.51 29.26 130.51 29.27 130.51 29.28 130.51 29.29 130.51 29.29 130.5 29.3 130.5 29.34 130.5 29.36 130.5 29.36 130.49 29.37 130.49 29.38 130.49 29.37 130.49 29.37 130.48 29.36 130.48 29.34 130.48 29.33 130.48 29.32 130.48 29.31 130.48 29.3 130.47 29.31 130.47 29.31 130.46 29.32 130.46 29.33 130.46 29.34 130.46 29.36 130.46 29.36 130.47 29.37 130.47 29.37 130.46 29.38 130.46 29.39 130.46 29.4 130.46 29.41 130.46 29.42 130.46 29.41 130.47 29.42 130.47 29.41 130.48 29.42 130.48 29.43 130.48 29.44 130.48 29.45 130.48 29.44 130.49 29.45 130.49 29.46 130.49 29.47 130.49 29.47 130.48 29.48 130.48 29.5 130.48 29.5 130.47 29.51 130.47 29.51 130.48 29.52 130.48 29.53 130.47 29.53 130.48 29.54 130.48 29.55 130.47 29.56 130.47 29.57 130.47 29.59 130.47 29.61 130.46 29.62 130.46 29.63 130.46 29.64 130.45 29.65 130.45 29.66 130.45 29.66 130.44 29.67 130.44 29.68 130.44 29.68 130.43 29.69 130.43 29.7 130.43 29.71 130.43 29.72 130.43 29.73 130.42 29.72 130.42 29.74 130.42 29.73 130.41 29.73 130.4 29.74 130.4 29.75 130.4 29.75 130.39 29.74 130.39 29.74 130.38 29.75 130.38 29.76 130.38 29.78 130.38 29.79 130.38 29.8 130.38 29.81 130.38 29.81 130.37 29.82 130.37 29.82 130.36 29.81 130.36 29.81 130.35 29.82 130.35 29.82 130.34 29.83 130.34 29.84 130.34 29.85 130.34 29.85 130.33 29.86 130.33 29.87 130.32 29.86 130.32 29.86 130.31 29.87 130.31 29.88 130.31 29.89 130.31 29.9 130.31 29.92 130.31 29.93 130.31 29.93 130.3 29.94 130.3 29.94 130.29 29.95 130.3 29.96 130.3 29.97 130.3 29.98 130.3 29.99 130.3 29.99 130.29 29.99 130.28 30 130.28 30.02 130.28 30.03 130.28 30.04 130.29 30.05 130.29 30.06 130.28 30.07 130.28 30.08 130.28 30.09 130.27 30.1 130.27 30.12 130.27 30.13 130.27 30.14 130.27 30.15 130.27 30.16 130.27 30.16 130.28 30.17 130.28 30.17 130.29 30.16 130.29 30.15 130.28 30.13 130.28 30.12 130.28 30.11 130.29 30.12 130.29 30.11 130.29 30.11 130.3 30.11 130.31 30.1 130.31 30.09 130.31 30.07 130.31 30.06 130.32 30.05 130.32 30.04 130.32 30.03 130.32 30.02 130.32 30.01 130.32 29.99 130.32 30 130.32 30 130.33 29.99 130.33 29.98 130.33 29.97 130.33 29.96 130.34 29.97 130.34 29.98 130.34 29.99 130.34 29.99 130.35 30 130.35 29.99 130.35 29.99 130.36 29.99 130.37 30 130.37 30.01 130.38 30 130.38 30 130.39 30.02 130.39 30.03 130.39 30.04 130.39 30.05 130.39 30.05 130.38 30.06 130.38 30.07 130.38 30.08 130.38 30.09 130.38 30.11 130.38 30.11 130.37 30.13 130.37 30.15 130.37 30.17 130.37 30.18 130.37 30.19 130.37 30.2 130.37 30.21 130.37 30.22 130.37 30.24 130.37 30.25 130.37 30.26 130.37 30.27 130.37 30.28 130.37 30.3 130.37 30.31 130.37 30.32 130.37 30.33 130.37 30.34 130.37 30.35 130.37 30.36 130.37 30.37 130.37 30.38 130.37 30.4 130.37 30.4 130.38 30.41 130.38 30.43 130.38 30.44 130.38 30.45 130.37 30.47 130.37 30.48 130.37 30.49 130.36 30.5 130.36 30.51 130.36 30.5 130.35 30.51 130.35 30.52 130.35 30.53 130.34 30.55 130.34 30.58 130.34 30.59 130.34 30.6 130.34 30.61 130.34 30.62 130.34 30.63 130.34 30.64 130.34 30.65 130.34 30.66 130.34 30.68 130.34 30.69 130.34 30.7 130.34 30.71 130.34 30.72 130.34 30.74 130.34 30.75 130.33 30.76 130.33 30.77 130.33 30.78 130.33 30.79 130.33 30.8 130.33 30.83 130.32 30.83 130.33 30.83 130.32 30.84 130.32 30.84 130.33 30.83 130.33 30.83 130.34 30.82 130.34 30.82 130.35 30.83 130.35 30.81 130.35 30.81 130.36 30.82 130.36 30.84 130.35 30.84 130.36 30.85 130.37 30.85 130.38 30.83 130.38 30.84 130.38 30.83 130.39 30.83 130.4 30.82 130.4 30.81 130.4 30.8 130.4 30.79 130.41 30.78 130.41 30.77 130.41 30.75 130.42 30.74 130.42 30.73 130.42 30.72 130.42 30.71 130.42 30.7 130.42 30.69 130.42 30.69 130.43 30.68 130.43 30.67 130.43 30.64 130.43 30.63 130.43 30.62 130.44 30.61 130.44 30.59 130.44 30.58 130.44 30.57 130.44 30.56 130.44 30.54 130.44 30.54 130.45 30.54 130.46 30.53 130.46 30.53 130.47 30.54 130.47 30.54 130.49 30.54 130.5"/>
<path d="M 31.54 130.97 31.55 130.97 31.55 130.96 31.55 130.95 31.56 130.95 31.56 130.94 31.57 130.94 31.58 130.94 31.59 130.93 31.6 130.93 31.61 130.93 31.61 130.92 31.62 130.92 31.62 130.91 31.63 130.91 31.63 130.9 31.62 130.9 31.64 130.9 31.64 130.89 31.65 130.88 31.64 130.88 31.64 130.87 31.63 130.87 31.62 130.87 31.6 130.87 31.6 130.86 31.59 130.86 31.58 130.86 31.58 130.85 31.56 130.85 31.55 130.85 31.54 130.85 31.53 130.85 31.53 130.84 31.52 130.84 31.51 130.84 31.5 130.83 31.49 130.83 31.48 130.83 31.47 130.83 31.45 130.82 31.44 130.82 31.44 130.81 31.45 130.81 31.46 130.81 31.46 130.8 31.46 130.79 31.45 130.79 31.44 130.79 31.42 130.78 31.42 130.77 31.41 130.77 31.4 130.77 31.39 130.77 31.38 130.77 31.38 130.76 31.37 130.76 31.36 130.76 31.35 130.76 31.34 130.76 31.33 130.76 31.33 130.75 31.32 130.75 31.31 130.75 31.3 130.74 31.29 130.74 31.28 130.73 31.27 130.73 31.27 130.72 31.26 130.72 31.25 130.72 31.24 130.72 31.22 130.72 31.21 130.72 31.2 130.72 31.2 130.71 31.19 130.71 31.18 130.71 31.13 130.71 31.1 130.71 31.08 130.7 31.06 130.7 31.05 130.7 31.03 130.7 31.01 130.7 31 130.7 30.97 130.7 30.96 130.7 30.94 130.7 30.93 130.7 30.91 130.7 30.91 130.69 30.9 130.69 30.89 130.69 30.89 130.68 30.83 130.69 30.82 130.69 30.81 130.69 30.8 130.69 30.79 130.69 30.78 130.7 30.76 130.7 30.75 130.7 30.73 130.71 30.72 130.71 30.71 130.72 30.7 130.72 30.69 130.72 30.68 130.72 30.67 130.73 30.66 130.73 30.63 130.73 30.62 130.73 30.61 130.73 30.6 130.73 30.59 130.72 30.58 130.72 30.57 130.72 30.56 130.72 30.53 130.71 30.52 130.71 30.5 130.71 30.49 130.71 30.47 130.71 30.46 130.71 30.45 130.7 30.44 130.7 30.43 130.7 30.42 130.7 30.41 130.7 30.4 130.7 30.39 130.7 30.38 130.7 30.37 130.7 30.36 130.7 30.35 130.7 30.34 130.7 30.33 130.69 30.34 130.69 30.33 130.68 30.32 130.67 30.32 130.66 30.31 130.66 30.31 130.65 30.31 130.64 30.31 130.63 30.32 130.63 30.33 130.62 30.33 130.61 30.34 130.61 30.35 130.6 30.35 130.59 30.34 130.59 30.34 130.58 30.33 130.58 30.32 130.58 30.31 130.58 30.3 130.58 30.29 130.58 30.28 130.58 30.27 130.58 30.26 130.58 30.25 130.58 30.23 130.58 30.21 130.58 30.21 130.57 30.19 130.57 30.17 130.57 30.16 130.57 30.16 130.56 30.15 130.56 30.14 130.56 30.13 130.56 30.11 130.56 30.1 130.56 30.09 130.57 30.08 130.57 30.05 130.57 30.04 130.57 30.03 130.57 30.01 130.57 30 130.57 29.99 130.57 29.98 130.58 29.97 130.58 29.96 130.58 29.95 130.59 29.94 130.59 29.93 130.59 29.93 130.6 29.92 130.6 29.91 130.6 29.89 130.6 29.88 130.61 29.87 130.61 29.86 130.62 29.85 130.62 29.84 130.62 29.84 130.63 29.82 130.63 29.81 130.63 29.8 130.64 29.79 130.64 29.78 130.64 29.77 130.64 29.75 130.64 29.72 130.64 29.71 130.64 29.69 130.64 29.69 130.65 29.68 130.65 29.66 130.65 29.65 130.65 29.61 130.66 29.6 130.66 29.59 130.66 29.58 130.66 29.57 130.67 29.56 130.67 29.55 130.67 29.53 130.67 29.51 130.68 29.5 130.68 29.51 130.68 29.5 130.68 29.49 130.68 29.49 130.69 29.48 130.69 29.48 130.7 29.47 130.7 29.46 130.7 29.44 130.7 29.39 130.71 29.38 130.71 29.35 130.71 29.34 130.71 29.33 130.71 29.31 130.72 29.29 130.72 29.28 130.72 29.26 130.72 29.24 130.73 29.23 130.73 29.22 130.74 29.21 130.74 29.2 130.74 29.19 130.74 29.18 130.74 29.18 130.75 29.17 130.75 29.15 130.76 29.14 130.76 29.14 130.77 29.13 130.77 29.11 130.78 29.1 130.78 29.1 130.79 29.09 130.79 29.08 130.79 29.06 130.79 29.05 130.8 29.04 130.8 29.03 130.8 29.02 130.8 29.02 130.81 29.01 130.81 29 130.81 28.99 130.81 28.98 130.81 28.98 130.82 28.97 130.82 28.96 130.82 28.95 130.82 28.94 130.82 28.94 130.83 28.95 130.83 28.96 130.83 28.95 130.83 28.94 130.83 28.95 130.83 28.95 130.84 28.94 130.84 28.93 130.84 28.93 130.85 28.92 130.85 28.92 130.84 28.92 130.85 28.91 130.85 28.91 130.86 28.9 130.86 28.89 130.86 28.87 130.86 28.87 130.87 28.86 130.87 28.85 130.87 28.84 130.87 28.83 130.87 28.82 130.88 28.8 130.88 28.78 130.88 28.77 130.88 28.77 130.89 28.77 130.9 28.75 130.9 28.75 130.91 28.77 130.91 28.78 130.91 28.79 130.91 28.8 130.91 28.81 130.91 28.82 130.91 28.83 130.91 28.84 130.91 28.86 130.91 28.86 130.92 28.87 130.92 28.88 130.92 28.89 130.92 28.9 130.92 28.9 130.93 28.91 130.93 28.92 130.93 28.93 130.94 28.94 130.94 28.95 130.94 28.96 130.94 28.97 130.94 28.97 130.95 28.98 130.95 28.99 130.95 29 130.95 29 130.96 29.02 130.96 29.03 130.96 29.03 130.98 29.01 130.98 29.01 131 29.02 131 29.03 131 29.03 131.01 29.02 131.01"/>
<path d="M 30.54 130.5 30.54 130.51 30.56 130.51 30.56 130.5 30.57 130.5 30.59 130.5 30.6 130.5 30.61 130.5 30.62 130.5 30.63 130.51 30.64 130.51 30.65 130.51 30.66 130.51 30.67 130.51 30.7 130.51 30.72 130.51 30.73 130.51 30.75 130.5 30.76 130.5 30.78 130.5 30.78 130.49 30.79 130.49 30.8 130.49 30.82 130.49 30.84 130.49 30.88 130.49 30.89 130.49 30.91 130.49 30.92 130.49 30.92 130.5 30.93 130.5 30.94 130.5 30.95 130.51 30.96 130.5 30.96 130.51 30.97 130.51 30.98 130.51 31 130.51 31.01 130.51 31.02 130.51 31.03 130.51 31.05 130.51 31.05 130.5 31.06 130.5 31.08 130.5 31.09 130.49 31.1 130.49 31.11 130.49 31.14 130.49 31.15 130.49 31.16 130.49 31.17 130.49 31.18 130.49 31.19 130.49 31.2 130.49 31.22 130.49 31.23 130.49 31.24 130.49 31.25 130.49 31.26 130.49 31.27 130.49 31.28 130.49 31.29 130.49 31.29 130.5 31.3 130.5 31.31 130.5 31.32 130.5 31.32 130.51 31.33 130.52 31.33 130.53 31.34 130.53 31.35 130.53 31.36 130.53 31.36 130.54 31.37 130.54 31.37 130.55 31.37 130.56 31.38 130.56 31.39 130.56 31.4 130.56 31.41 130.56 31.42 130.56 31.43 130.56 31.44 130.56 31.44 130.57 31.45 130.57 31.44 130.57 31.45 130.57 31.44 130.58 31.43 130.58 31.42 130.58 31.41 130.58 31.41 130.59 31.42 130.6 31.43 130.6 31.44 130.61 31.45 130.61 31.46 130.61 31.48 130.61 31.49 130.61 31.49 130.62 31.5 130.62 31.51 130.62 31.51 130.63 31.52 130.63 31.52 130.64 31.53 130.64 31.54 130.64 31.55 130.64 31.56 130.64 31.56 130.65 31.57 130.65 31.58 130.65 31.59 130.65 31.59 130.66 31.6 130.66 31.61 130.66 31.61 130.67 31.62 130.67 31.62 130.68 31.63 130.68 31.63 130.69 31.64 130.69 31.65 130.69 31.66 130.69 31.67 130.69 31.68 130.7 31.69 130.71 31.7 130.71 31.71 130.72 31.72 130.72 31.72 130.73 31.73 130.73 31.74 130.73 31.75 130.73 31.76 130.73 31.77 130.74 31.78 130.74 31.79 130.74 31.8 130.74 31.8 130.75 31.81 130.75 31.82 130.75 31.84 130.75 31.84 130.76 31.85 130.76 31.85 130.77 31.85 130.78 31.86 130.78 31.86 130.79 31.87 130.79 31.87 130.8 31.88 130.8 31.88 130.81 31.89 130.81 31.9 130.81 31.9 130.82 31.89 130.82 31.9 130.82 31.89 130.82 31.89 130.83 31.88 130.83 31.88 130.84 31.89 130.85 31.89 130.86 31.9 130.86 31.9 130.87 31.89 130.87 31.9 130.89 31.91 130.89 31.9 130.89 31.9 130.9 31.9 130.92 31.89 130.92 31.89 130.93 31.88 130.94 31.87 130.94 31.87 130.95 31.87 130.96 31.88 130.96 31.88 130.97 31.89 130.97 31.89 130.98 31.9 130.98 31.91 130.98 31.92 130.98 31.92 130.99 31.93 130.99 31.93 131 31.93 131.01 31.94 131.01 31.94 131.02 31.95 131.03 31.95 131.04 31.96 131.04 31.96 131.05 31.97 131.05 31.97 131.06 31.98 131.06 31.98 131.07 31.99 131.07 31.99 131.08 32 131.08 32.01 131.08 32.01 131.09 32.02 131.08 32.02 131.09 32.03 131.09 32.04 131.09 32.05 131.09 32.05 131.1 32.07 131.1 32.08 131.1 32.12 131.1 32.15 131.1 32.17 131.09 32.18 131.09 32.19 131.09 32.19 131.1 32.19 131.11 32.18 131.12 32.17 131.12 32.18 131.13 32.17 131.13 32.16 131.13 32.16 131.14 32.16 131.15 32.15 131.15 32.14 131.15 32.13 131.16 32.12 131.16 32.11 131.16 32.1 131.16 32.09 131.16 32.08 131.16 32.06 131.17 32.05 131.17 32.04 131.17 32.01 131.17 31.98 131.17 31.97 131.18 31.88 131.18 31.87 131.18 31.86 131.17 31.84 131.17 31.83 131.17 31.81 131.17 31.8 131.17 31.81 131.18 31.82 131.18 31.83 131.18 31.83 131.19 31.84 131.2 31.84 131.21 31.85 131.22 31.84 131.22 31.84 131.23 31.85 131.22 31.86 131.22 31.87 131.22 31.87 131.23 31.86 131.23 31.85 131.23 31.84 131.23 31.84 131.24 31.83 131.24 31.83 131.25 31.83 131.26 31.84 131.26 31.85 131.26 31.85 131.27 31.86 131.27 31.86 131.28 31.87 131.28 31.88 131.28 31.88 131.29 31.89 131.29 31.9 131.29 31.89 131.3 31.9 131.3 31.9 131.31 31.91 131.32 31.91 131.33 31.92 131.33"/>
<path d="M 34.49 131.88 34.48 131.88 34.48 131.87 34.47 131.87 34.46 131.87 34.45 131.87 34.44 131.87 34.43 131.87 34.43 131.86 34.44 131.86 34.45 131.86 34.45 131.87 34.46 131.87 34.48 131.87 34.49 131.87 34.49 131.88"/>
<path d="M 31.92 131.33 31.92 131.34 31.93 131.34 31.94 131.34 31.94 131.35 31.95 131.36 31.95 131.37 31.96 131.37 31.95 131.37 31.96 131.38 31.95 131.39 31.95 131.4 31.96 131.4 31.96 131.41 31.97 131.41 31.97 131.42 31.98 131.42 31.98 131.43 31.99 131.43 31.99 131.44 32 131.44 32 131.45 32 131.46 32 131.47 32 131.48 32.01 131.48 32.01 131.49 32 131.49 31.99 131.49 31.99 131.5 31.99 131.51 32 131.51 32.01 131.51 32.01 131.52 32.02 131.52 32.03 131.53 32.04 131.53 32.04 131.54 32.05 131.55 32.06 131.55 32.07 131.55 32.07 131.56 32.09 131.56 32.09 131.57 32.1 131.57 32.11 131.58 32.12 131.58 32.13 131.58 32.14 131.58 32.15 131.58 32.15 131.59 32.16 131.59 32.17 131.6 32.18 131.6 32.17 131.6 32.17 131.61 32.18 131.61 32.18 131.62 32.18 131.63 32.19 131.63 32.2 131.64 32.21 131.64 32.21 131.65 32.22 131.65 32.23 131.66 32.23 131.65 32.23 131.66 32.24 131.66 32.25 131.66 32.26 131.66 32.27 131.66 32.28 131.66 32.29 131.66 32.3 131.67 32.3 131.66 32.31 131.67 32.32 131.67 32.33 131.67 32.33 131.68 32.34 131.68 32.34 131.69 32.35 131.69 32.36 131.69 32.37 131.69 32.38 131.69 32.39 131.69 32.4 131.69 32.41 131.69 32.42 131.69 32.43 131.68 32.44 131.68 32.45 131.68 32.46 131.68 32.47 131.68 32.48 131.68 32.52 131.68 32.53 131.68 32.55 131.68 32.56 131.68 32.57 131.68 32.58 131.68 32.59 131.68 32.59 131.67 32.6 131.68 32.61 131.68 32.62 131.68 32.63 131.68 32.64 131.68 32.65 131.69 32.66 131.69 32.71 131.69 32.71 131.68 32.72 131.68 32.73 131.68 32.74 131.68 32.75 131.68 32.76 131.68 32.77 131.68 32.77 131.69 32.78 131.69 32.79 131.69 32.8 131.69 32.81 131.69 32.82 131.69 32.83 131.69 32.84 131.7 32.85 131.7 32.86 131.7 32.87 131.7 32.88 131.7 32.9 131.71 32.91 131.71 32.92 131.71 32.93 131.71 32.94 131.72 32.95 131.72 32.96 131.72 32.96 131.73 32.97 131.73 32.98 131.73 32.99 131.73 32.99 131.74 33 131.74 33 131.75 33.01 131.75 33.01 131.76 33.01 131.77 33.02 131.77 33.01 131.77 33.01 131.78 33.02 131.79 33.03 131.79 33.04 131.79 33.05 131.79 33.06 131.79 33.08 131.79 33.1 131.79 33.11 131.79 33.12 131.79 33.13 131.79 33.14 131.78 33.15 131.78 33.16 131.78 33.18 131.78 33.19 131.78 33.21 131.78 33.21 131.77 33.23 131.77 33.25 131.77 33.26 131.77 33.27 131.77 33.28 131.77 33.29 131.77 33.3 131.77 33.31 131.77 33.32 131.77 33.32 131.78 33.33 131.78 33.35 131.78 33.36 131.78 33.37 131.78 33.37 131.79 33.38 131.79 33.39 131.79 33.4 131.79 33.41 131.79 33.43 131.79 33.47 131.79 33.48 131.79 33.49 131.79 33.5 131.8 33.51 131.8 33.52 131.8 33.53 131.8 33.53 131.81 33.54 131.81 33.55 131.81 33.56 131.82 33.56 131.83 33.57 131.83 33.58 131.83 33.58 131.84 33.59 131.84 33.61 131.84 33.62 131.84 33.63 131.85 33.64 131.85 33.65 131.85 33.65 131.86 33.66 131.86 33.67 131.86 33.68 131.86 33.68 131.87 33.72 131.87 33.74 131.87 33.75 131.87 33.76 131.87 33.77 131.87 33.81 131.88 33.82 131.88 33.83 131.88 33.87 131.88"/>
<path d="M 35.47 132.21 35.46 132.21 35.45 132.21 35.45 132.2 35.44 132.2 35.45 132.19 35.45 132.18 35.45 132.17 35.46 132.16 35.46 132.14 35.45 132.14 35.44 132.14 35.42 132.14 35.41 132.14 35.4 132.14 35.4 132.13 35.38 132.13 35.37 132.13 35.36 132.13 35.36 132.12 35.35 132.12 35.34 132.12 35.34 132.11 35.33 132.11 35.32 132.11 35.32 132.1 35.31 132.1 35.3 132.1 35.3 132.09 35.29 132.09 35.28 132.08 35.27 132.07 35.26 132.06 35.26 132.05 35.25 132.05 35.25 132.04 35.24 132.04 35.23 132.04 35.23 132.03 35.22 132.03 35.21 132.03 35.2 132.03 35.19 132.03 35.19 132.02 35.19 132.01 35.18 132.01 35.18 132 35.17 132 35.17 131.99 35.15 131.99 35.14 131.98 35.13 131.98 35.1 131.98 35.07 131.98 35.06 131.98 35.05 131.97 35.04 131.97 35.03 131.97 35.02 131.97 35.02 131.96 35.01 131.96 35.01 131.95 35 131.95 34.99 131.95 34.98 131.95 34.98 131.94 34.97 131.94 34.96 131.94 34.96 131.93 34.95 131.93 34.94 131.93 34.93 131.93 34.93 131.92 34.92 131.91 34.91 131.91 34.91 131.9 34.9 131.9 34.9 131.89 34.89 131.88 34.88 131.88 34.88 131.87 34.89 131.87 34.89 131.86 34.9 131.86 34.89 131.86 34.89 131.85 34.88 131.86 34.88 131.85 34.86 131.85 34.84 131.85 34.83 131.85 34.82 131.85 34.8 131.85 34.79 131.85 34.79 131.86 34.78 131.86 34.76 131.87 34.76 131.88 34.75 131.88 34.74 131.88 34.73 131.88 34.72 131.89 34.71 131.89 34.7 131.89 34.68 131.89 34.67 131.89 34.66 131.89 34.65 131.89 34.63 131.89 34.62 131.89 34.6 131.89 34.59 131.88 34.57 131.88 34.56 131.88 34.55 131.88 34.54 131.88 34.53 131.88 34.52 131.88 34.48 131.88 34.45 131.88 34.44 131.88 34.42 131.87 34.41 131.87 34.4 131.87 34.39 131.87 34.38 131.87 34.37 131.87 34.37 131.88 34.36 131.89 34.35 131.89 34.35 131.9 34.34 131.9 34.31 131.9 34.31 131.91 34.29 131.91 34.28 131.91 34.27 131.92 34.27 131.93 34.26 131.93 34.26 131.94 34.25 131.95 34.25 131.96 34.24 131.96 34.23 131.96 34.23 131.97 34.22 131.97 34.21 131.97 34.21 131.98 34.2 131.98 34.19 131.98 34.18 131.99 34.17 131.99 34.17 132 34.16 132.01 34.16 132.02 34.16 132.03 34.16 132.04 34.16 132.06 34.16 132.07 34.16 132.08 34.15 132.09 34.15 132.1 34.14 132.1 34.13 132.1 34.12 132.1 34.12 132.11 34.11 132.11 34.1 132.11 34.1 132.12 34.09 132.12 34.09 132.11 34.08 132.11 34.07 132.11 34.07 132.1 34.06 132.09 34.05 132.08 34.04 132.08 34.03 132.08 34.03 132.07 34.02 132.07 34.01 132.07 34.01 132.06 34 132.06 33.99 132.06 33.99 132.05 33.98 132.05 33.97 132.05 33.96 132.05 33.95 132.05 33.94 132.05 33.93 132.05 33.92 132.05 33.91 132.04 33.9 132.04 33.86 132.04 33.85 132.04 33.82 132.04 33.8 132.04 33.79 132.04 33.73 132.05 33.71 132.05 33.7 132.05 33.69 132.05 33.68 132.05 33.66 132.05 33.66 132.04 33.63 132.04 33.62 132.04 33.61 132.04 33.61 132.03 33.6 132.03 33.6 132.02 33.59 132.02 33.58 132.02 33.58 132.01 33.57 132.01 33.56 132.01 33.57 132.01 33.57 132 33.56 132 33.55 132 33.54 132 33.54 131.99 33.53 131.99 33.52 131.99 33.52 131.98 33.51 131.99 33.51 131.98 33.5 131.98 33.49 131.98 33.49 131.97 33.48 131.97 33.47 131.97 33.47 131.96 33.46 131.96 33.45 131.96 33.45 131.95 33.44 131.95 33.43 131.95 33.43 131.94 33.43 131.95 33.42 131.95 33.42 131.94 33.41 131.94 33.41 131.93 33.4 131.93 33.39 131.93 33.39 131.92 33.38 131.92 33.38 131.91 33.37 131.91 33.36 131.91 33.34 131.91 33.33 131.91 33.31 131.91 33.28 131.91 33.29 131.91 33.28 131.91 33.28 131.92 33.27 131.92 33.25 131.93 33.21 131.93 33.16 131.93 33.1 131.93 33.06 131.93 33.05 131.93 33.04 131.93 33.03 131.93 33.01 131.92 33 131.92 32.99 131.92 32.98 131.92 32.97 131.92 32.96 131.91 32.94 131.91 32.92 131.91 32.91 131.91 32.9 131.91 32.88 131.91 32.84 131.91 32.82 131.91 32.81 131.91 32.78 131.92 32.76 131.92 32.74 131.91 32.68 131.92 32.66 131.92 32.65 131.92 32.64 131.92 32.63 131.92 32.63 131.93 32.62 131.93 32.61 131.94 32.6 131.94 32.6 131.95 32.59 131.96 32.58 131.96 32.58 131.97 32.58 131.98 32.58 131.99 32.58 132 32.58 132.02 32.59 132.02 32.58 132.02 32.58 132.03 32.58 132.04 32.57 132.06 32.56 132.06 32.55 132.06 32.56 132.07 32.56 132.08 32.56 132.09 32.57 132.09 32.58 132.09 32.58 132.1 32.58 132.11 32.57 132.11 32.57 132.12 32.57 132.13 32.58 132.13 32.59 132.14 32.59 132.15 32.6 132.15 32.6 132.16 32.61 132.17 32.61 132.19 32.6 132.2 32.6 132.21 32.6 132.22 32.6 132.23 32.6 132.24 32.6 132.25"/>
<path d="M 33.87 131.88 33.88 131.88 33.89 131.87 33.9 131.87 33.92 131.87 33.92 131.86 33.93 131.86 33.94 131.86 33.95 131.86 33.96 131.86 33.96 131.85 33.98 131.85 33.98 131.86 33.99 131.86 34 131.86 34.01 131.86 34.02 131.86 34.02 131.85 34.03 131.85 34.04 131.85 34.05 131.85 34.06 131.85 34.07 131.84 34.08 131.84 34.09 131.84 34.09 131.83 34.1 131.83 34.11 131.83 34.11 131.82 34.12 131.82 34.13 131.81 34.14 131.81 34.15 131.81 34.16 131.81 34.16 131.8 34.17 131.8 34.18 131.8 34.19 131.8 34.19 131.79 34.2 131.79 34.21 131.78 34.22 131.78 34.23 131.78 34.22 131.78 34.23 131.78 34.24 131.78 34.24 131.77 34.25 131.77 34.26 131.78 34.27 131.78 34.28 131.78 34.29 131.78 34.31 131.78 34.32 131.78 34.34 131.78 34.35 131.78 34.36 131.77 34.37 131.77 34.38 131.77 34.38 131.78 34.39 131.78 34.41 131.78 34.43 131.78 34.44 131.78 34.45 131.79 34.46 131.79 34.47 131.8 34.48 131.8 34.49 131.8 34.5 131.8 34.5 131.81 34.51 131.81 34.51 131.82 34.5 131.82 34.5 131.83 34.51 131.83 34.52 131.83 34.54 131.82 34.56 131.82 34.57 131.82 34.6 131.82 34.61 131.81 34.62 131.81 34.61 131.81 34.6 131.81 34.61 131.8 34.6 131.8 34.61 131.8 34.62 131.8 34.63 131.8 34.64 131.8 34.64 131.79 34.66 131.79 34.68 131.79 34.68 131.8 34.68 131.81 34.71 131.81 34.72 131.81 34.73 131.81 34.73 131.82 34.75 131.82 34.76 131.82 34.76 131.81 34.77 131.81 34.78 131.81 34.78 131.8 34.79 131.8 34.82 131.8 34.84 131.8 34.85 131.8 34.86 131.8 34.87 131.8 34.9 131.8 34.93 131.8 34.94 131.8 34.95 131.8 34.96 131.81 34.97 131.81 34.98 131.81 35 131.81 35.01 131.81 35.01 131.82 35.02 131.82 35.04 131.82 35.05 131.82 35.05 131.83 35.07 131.83 35.08 131.83 35.08 131.84 35.09 131.84 35.09 131.85 35.1 131.85 35.11 131.85 35.12 131.85 35.12 131.86 35.13 131.86 35.13 131.87 35.14 131.87 35.14 131.88 35.15 131.88 35.16 131.89 35.16 131.9 35.16 131.91 35.17 131.91 35.18 131.91 35.18 131.92 35.19 131.92 35.2 131.92 35.21 131.92 35.21 131.93 35.22 131.93 35.23 131.93 35.23 131.94 35.24 131.94 35.24 131.95 35.25 131.95 35.27 131.95 35.28 131.96 35.29 131.96 35.31 131.96 35.32 131.97 35.33 131.97 35.34 131.97 35.35 131.97 35.36 131.98 35.36 131.99 35.37 131.99 35.38 131.99 35.38 132 35.39 132 35.4 132 35.4 132.01 35.41 132.01 35.42 132.01 35.42 132.02 35.43 132.02 35.43 132.03 35.44 132.03 35.44 132.04 35.44 132.05 35.45 132.05 35.45 132.06 35.46 132.06 35.47 132.06 35.48 132.06 35.49 132.07 35.5 132.07 35.51 132.07 35.52 132.08 35.53 132.08 35.54 132.08 35.55 132.09 35.56 132.09 35.57 132.09 35.57 132.1 35.58 132.1 35.59 132.1 35.59 132.11 35.6 132.11 35.61 132.11 35.62 132.11 35.63 132.11 35.64 132.12 35.65 132.12 35.66 132.12 35.66 132.13 35.67 132.13 35.67 132.14 35.67 132.15 35.67 132.16 35.67 132.17 35.66 132.17 35.66 132.18 35.65 132.18 35.62 132.18 35.61 132.18 35.6 132.18 35.59 132.17 35.57 132.17 35.54 132.18 35.53 132.18 35.53 132.19 35.54 132.2 35.55 132.21 35.56 132.22 35.57 132.22 35.58 132.22 35.58 132.23 35.59 132.23 35.59 132.24 35.6 132.24 35.61 132.24 35.61 132.25 35.62 132.26 35.61 132.26 35.6 132.26 35.61 132.27 35.6 132.27 35.58 132.27 35.58 132.26 35.59 132.26 35.58 132.26 35.57 132.26 35.57 132.27 35.57 132.26 35.56 132.26 35.55 132.26 35.55 132.27 35.54 132.27 35.54 132.26 35.53 132.26 35.52 132.25 35.52 132.24 35.52 132.23 35.51 132.23 35.5 132.23 35.49 132.22 35.48 132.22 35.48 132.21 35.47 132.22 35.47 132.21"/>
<path d="M 32.35 132.43 32.34 132.43 32.33 132.42 32.33 132.41 32.33 132.4 32.33 132.39 32.33 132.38 32.34 132.37 32.35 132.37 32.35 132.36 32.35 132.35 32.35 132.34 32.36 132.34 32.36 132.33 32.36 132.32 32.36 132.31 32.36 132.3 32.35 132.3 32.35 132.29 32.35 132.28 32.35 132.27 32.36 132.27 32.35 132.27 32.34 132.25 32.34 132.24 32.34 132.23 32.35 132.23 32.35 132.22 32.36 132.22 32.36 132.21 32.37 132.21 32.37 132.2 32.37 132.19 32.37 132.18 32.37 132.17 32.37 132.16 32.37 132.15 32.36 132.14 32.36 132.13 32.36 132.12 32.35 132.11 32.35 132.08 32.35 132.07 32.35 132.06 32.35 132.05 32.35 132.04 32.35 132.03 32.34 132.02 32.33 132.01 32.32 132.01 32.32 132 32.31 132 32.31 131.99 32.3 131.98 32.3 131.97 32.3 131.96 32.31 131.95 32.32 131.95 32.32 131.94 32.32 131.93 32.33 131.93 32.33 131.92 32.34 131.91 32.35 131.9 32.36 131.9 32.36 131.89 32.36 131.88 32.37 131.88 32.37 131.87 32.36 131.87 32.36 131.86 32.35 131.86 32.35 131.85 32.34 131.85 32.33 131.85 32.28 131.85 32.25 131.86 32.23 131.86 32.23 131.85 32.24 131.85 32.23 131.85 32.22 131.85 32.22 131.86 32.21 131.86 32.2 131.86 32.19 131.86 32.18 131.86 32.17 131.86 32.16 131.86 32.15 131.86 32.14 131.86 32.13 131.86 32.13 131.85 32.12 131.85 32.11 131.84 32.1 131.84 32.09 131.84 32.09 131.83 32.08 131.83 32.07 131.83 32.06 131.83 32.06 131.82 32.05 131.82 32.04 131.82 32.03 131.82 32.03 131.81 32.03 131.8 32.03 131.79 32.02 131.78 32.01 131.77 32 131.77 32 131.76 31.99 131.76 31.99 131.75 31.99 131.74 31.98 131.73 31.97 131.73 31.98 131.73 31.98 131.72 31.97 131.71 31.96 131.7 31.95 131.7 31.94 131.7 31.93 131.7 31.92 131.7 31.92 131.69 31.91 131.67 31.9 131.66 31.89 131.65 31.88 131.65 31.88 131.64 31.87 131.64 31.86 131.64 31.86 131.63 31.85 131.63 31.84 131.63 31.83 131.62 31.82 131.62 31.81 131.61 31.8 131.61 31.79 131.61 31.78 131.61 31.77 131.61 31.77 131.6 31.76 131.6 31.75 131.6 31.74 131.6 31.75 131.6 31.75 131.59 31.74 131.59 31.73 131.59 31.73 131.58 31.73 131.57 31.72 131.57 31.71 131.56 31.7 131.56 31.7 131.55 31.69 131.55 31.68 131.55 31.68 131.54 31.67 131.53 31.67 131.52 31.67 131.51 31.67 131.5 31.66 131.49 31.66 131.48 31.65 131.48 31.66 131.48 31.66 131.47 31.67 131.47 31.66 131.46 31.65 131.46 31.65 131.45 31.66 131.45 31.67 131.44 31.67 131.43 31.68 131.43 31.66 131.43 31.67 131.42 31.67 131.41 31.66 131.41 31.66 131.4 31.65 131.4 31.65 131.39 31.64 131.39 31.64 131.38 31.63 131.38 31.62 131.38 31.61 131.38 31.6 131.38 31.59 131.38 31.58 131.37 31.57 131.37 31.56 131.37 31.56 131.36 31.55 131.36 31.54 131.36 31.54 131.35 31.53 131.35 31.53 131.34 31.52 131.34 31.52 131.33 31.51 131.33 31.5 131.33 31.49 131.32 31.49 131.31 31.49 131.3 31.48 131.3 31.48 131.29 31.47 131.28 31.46 131.28 31.46 131.27 31.45 131.27 31.44 131.26 31.44 131.25 31.44 131.24 31.46 131.24 31.47 131.23 31.48 131.23 31.48 131.22 31.48 131.21 31.48 131.2 31.49 131.2 31.49 131.19 31.48 131.19 31.47 131.19 31.46 131.19 31.46 131.18 31.45 131.18 31.44 131.18 31.44 131.17 31.43 131.16 31.42 131.15 31.41 131.14 31.39 131.14 31.4 131.14 31.4 131.13 31.41 131.13 31.41 131.11 31.41 131.1 31.42 131.1 31.43 131.1 31.43 131.09 31.43 131.08 31.44 131.08 31.44 131.07 31.45 131.07 31.44 131.07 31.44 131.06 31.44 131.05 31.45 131.05 31.46 131.04 31.47 131.04 31.47 131.03 31.48 131.03 31.49 131.03 31.49 131.02 31.5 131.01 31.51 131 31.51 130.99 31.52 130.99 31.53 130.98 31.53 130.97 31.54 130.97"/>
<path d="M 32.6 132.25 32.59 132.25 32.59 132.26 32.59 132.27 32.6 132.27 32.6 132.28 32.6 132.29 32.61 132.29 32.62 132.3 32.62 132.31 32.63 132.31 32.63 132.32 32.64 132.33 32.64 132.34 32.64 132.35 32.64 132.36 32.64 132.37 32.64 132.38 32.65 132.38 32.65 132.39 32.64 132.39 32.63 132.39 32.63 132.4 32.62 132.4 32.61 132.4 32.61 132.41 32.61 132.42 32.61 132.44 32.6 132.44 32.59 132.44 32.59 132.45 32.59 132.46 32.59 132.47 32.58 132.47 32.59 132.48 32.59 132.5 32.59 132.51 32.59 132.53 32.6 132.54 32.6 132.55 32.6 132.56 32.59 132.56 32.59 132.57 32.59 132.58 32.6 132.58 32.6 132.59 32.61 132.59 32.62 132.59 32.62 132.6 32.62 132.61 32.63 132.62 32.64 132.62 32.64 132.63 32.64 132.64 32.64 132.65 32.63 132.65 32.64 132.66 32.64 132.67 32.63 132.66 32.62 132.67 32.63 132.67 32.62 132.68 32.62 132.69 32.62 132.7 32.62 132.71 32.62 132.72 32.62 132.73 32.61 132.74 32.61 132.75 32.61 132.76 32.61 132.77 32.6 132.77 32.6 132.78 32.59 132.78 32.59 132.79 32.58 132.79 32.58 132.8 32.57 132.8 32.56 132.81 32.55 132.81 32.54 132.81 32.54 132.82 32.54 132.83 32.53 132.83 32.52 132.83 32.52 132.84 32.51 132.84 32.51 132.85 32.5 132.85 32.49 132.85 32.48 132.85 32.48 132.86 32.47 132.86 32.46 132.86 32.46 132.87 32.45 132.87 32.44 132.87 32.44 132.88 32.43 132.88 32.42 132.88 32.42 132.89 32.41 132.89 32.4 132.89 32.39 132.9 32.38 132.9 32.37 132.91 32.36 132.91 32.35 132.91 32.34 132.92 32.33 132.92 32.32 132.92 32.32 132.93 32.31 132.93 32.3 132.93 32.3 132.94 32.29 132.94 32.28 132.94 32.27 132.95 32.26 132.95 32.25 132.95 32.24 132.96 32.23 132.96 32.23 132.97 32.21 132.97 32.2 132.97 32.2 132.98 32.19 132.98 32.19 132.99 32.18 132.99 32.18 133 32.18 133.01 32.17 133.02 32.16 133.02 32.16 133.03 32.16 133.04 32.15 133.04 32.15 133.05 32.14 133.05 32.14 133.06 32.13 133.06 32.13 133.07 32.12 133.07 32.12 133.08 32.11 133.08 32.11 133.09 32.1 133.09 32.1 133.1 32.09 133.1 32.08 133.11 32.07 133.11 32.07 133.12 32.06 133.12 32.06 133.13 32.05 133.13 32.04 133.13 32.04 133.14 32.03 133.14 32.03 133.15 32.03 133.16 32.02 133.16 32.02 133.17 32.02 133.18 32.01 133.18 32 133.18 32 133.19 32 133.2 32.02 133.2 32.02 133.21 32.03 133.21 32.04 133.21 32.05 133.21 32.06 133.21 32.07 133.21 32.08 133.22 32.09 133.22 32.1 133.22 32.11 133.22 32.12 133.22 32.13 133.22 32.15 133.22 32.16 133.23 32.17 133.23 32.18 133.23 32.19 133.23 32.2 133.23 32.2 133.24 32.22 133.24 32.22 133.25 32.23 133.25 32.24 133.25 32.25 133.25 32.25 133.26 32.26 133.26 32.27 133.26 32.27 133.27 32.28 133.27 32.29 133.27 32.3 133.27 32.3 133.28 32.31 133.28 32.32 133.28 32.33 133.28 32.34 133.28 32.34 133.29 32.35 133.29 32.35 133.3 32.36 133.3 32.37 133.3 32.37 133.31 32.38 133.31 32.38 133.32 32.39 133.32 32.4 133.32 32.41 133.32 32.42 133.33 32.43 133.33 32.43 133.34 32.44 133.34 32.44 133.35 32.46 133.35 32.47 133.35 32.48 133.35 32.5 133.35 32.52 133.35 32.53 133.36 32.54 133.36 32.54 133.35 32.55 133.35 32.56 133.35 32.58 133.35 32.6 133.36 32.61 133.36 32.62 133.36 32.63 133.36 32.64 133.36 32.65 133.36 32.66 133.36 32.67 133.36 32.68 133.36"/>
<path d="M 31.28 133.4 31.27 133.4 31.28 133.4"/>
<path d="M 32.68 133.36 32.71 133.35 32.72 133.35 32.73 133.35 32.74 133.35 32.75 133.35 32.76 133.35 32.77 133.35 32.78 133.35 32.8 133.34 32.81 133.34 32.82 133.34 32.83 133.34 32.84 133.34 32.85 133.33 32.86 133.33 32.87 133.33 32.88 133.33 32.89 133.33 32.9 133.33 32.91 133.33 32.93 133.32 32.94 133.32 32.94 133.31 32.95 133.31 32.95 133.3 32.96 133.3 32.97 133.3 32.97 133.29 32.98 133.29 32.99 133.29 32.99 133.28 33 133.28 33.01 133.28 33.01 133.27 33.02 133.28 33.02 133.27 33.03 133.27 33.03 133.26 33.04 133.26 33.05 133.26 33.05 133.25 33.06 133.25 33.07 133.25 33.07 133.24 33.08 133.24 33.08 133.23 33.09 133.23 33.1 133.23 33.1 133.22 33.11 133.22 33.11 133.21 33.12 133.21 33.12 133.2 33.13 133.2 33.13 133.19 33.14 133.19 33.14 133.18 33.15 133.18 33.15 133.17 33.16 133.17 33.17 133.16 33.18 133.16 33.19 133.16 33.19 133.15 33.2 133.15 33.21 133.14 33.22 133.14 33.22 133.13 33.23 133.13 33.24 133.13 33.25 133.13 33.26 133.13 33.27 133.12 33.3 133.12 33.35 133.12 33.36 133.12 33.38 133.12 33.39 133.12 33.4 133.12 33.41 133.12 33.42 133.12 33.43 133.12 33.44 133.12 33.45 133.12 33.46 133.12 33.47 133.12 33.48 133.12 33.48 133.13 33.49 133.13 33.5 133.13 33.52 133.13 33.54 133.13 33.55 133.14 33.56 133.14 33.57 133.14 33.57 133.15 33.58 133.15 33.59 133.15 33.61 133.15 33.61 133.16 33.62 133.16 33.63 133.16 33.64 133.16 33.65 133.17 33.66 133.17 33.67 133.17 33.67 133.18 33.68 133.18 33.69 133.18 33.7 133.18 33.71 133.18 33.72 133.19 33.73 133.19 33.73 133.2 33.74 133.2 33.75 133.2 33.76 133.2 33.78 133.2 33.79 133.2 33.79 133.21 33.79 133.22 33.8 133.22 33.8 133.23 33.8 133.24 33.81 133.24 33.81 133.25 33.82 133.25 33.83 133.25 33.83 133.26 33.84 133.26 33.85 133.26 33.85 133.27 33.86 133.27 33.87 133.28 33.88 133.28 33.88 133.29 33.89 133.29 33.9 133.3 33.91 133.3 33.9 133.3 33.9 133.31 33.89 133.31 33.88 133.31 33.88 133.32 33.87 133.32 33.86 133.32 33.86 133.33 33.85 133.33 33.84 133.33 33.83 133.33 33.83 133.32 33.82 133.32 33.81 133.32 33.81 133.31 33.8 133.3 33.79 133.3 33.78 133.3 33.77 133.3 33.77 133.29 33.76 133.29 33.75 133.29 33.74 133.29 33.74 133.28 33.73 133.28 33.72 133.28 33.72 133.27 33.71 133.26 33.72 133.26 33.72 133.25 33.71 133.25 33.71 133.24 33.7 133.24 33.69 133.24 33.68 133.24 33.68 133.23 33.67 133.23 33.64 133.23 33.63 133.23 33.62 133.22 33.61 133.22 33.59 133.22 33.56 133.22 33.55 133.21 33.54 133.21 33.53 133.21 33.52 133.21 33.51 133.21 33.5 133.2 33.47 133.2 33.46 133.2 33.43 133.2 33.31 133.2 33.28 133.2 33.27 133.2 33.26 133.21 33.25 133.21 33.24 133.21 33.24 133.22 33.23 133.22 33.23 133.23 33.22 133.24 33.21 133.24 33.2 133.24 33.2 133.25 33.19 133.25 33.18 133.26 33.17 133.26 33.17 133.27 33.16 133.27 33.16 133.28 33.15 133.29 33.14 133.3 33.13 133.31 33.12 133.31 33.12 133.32 33.11 133.32 33.1 133.32 33.09 133.33 33.08 133.33 33.08 133.34 33.07 133.34 33.06 133.34 33.06 133.35 33.05 133.35 33.04 133.35 33.03 133.36 33.02 133.36 33.02 133.37 33.01 133.37 33 133.37 32.99 133.37 32.98 133.38 32.96 133.38 32.96 133.39 32.94 133.39 32.93 133.39 32.91 133.39 32.9 133.4 32.88 133.4 32.87 133.4 32.86 133.4 32.86 133.41 32.85 133.41 32.84 133.41 32.82 133.41 32.81 133.41 32.8 133.41 32.79 133.41 32.79 133.42 32.77 133.42 32.75 133.42 32.74 133.42 32.71 133.42 32.7 133.43 32.69 133.43 32.68 133.43 32.64 133.43 32.62 133.43 32.61 133.43 32.6 133.43 32.58 133.43 32.56 133.43 32.54 133.43 32.53 133.43 32.52 133.43 32.51 133.43 32.51 133.44 32.49 133.44"/>
<path d="M 32.49 133.44 32.47 133.44 32.46 133.44 32.45 133.44 32.44 133.44 32.43 133.43 32.42 133.43 32.4 133.43 32.39 133.43 32.37 133.43 32.37 133.42 32.36 133.42 32.35 133.42 32.34 133.42 32.33 133.42 32.33 133.41 32.32 133.41 32.31 133.41 32.3 133.41 32.3 133.4 32.29 133.4 32.28 133.4 32.27 133.39 32.26 133.4 32.26 133.39 32.25 133.39 32.25 133.38 32.24 133.38 32.23 133.38 32.22 133.38 32.22 133.37 32.21 133.37 32.2 133.36 32.19 133.35 32.18 133.35 32.17 133.35 32.17 133.34 32.16 133.34 32.15 133.34 32.14 133.34 32.12 133.33 32.11 133.33 32.1 133.33 32.09 133.33 32.08 133.33 32.08 133.32 32.07 133.32 32.05 133.32 32.05 133.31 32.04 133.31 32.03 133.31 32.01 133.31 32.01 133.3 32 133.3 31.99 133.29 31.98 133.29 31.95 133.29 31.93 133.29 31.92 133.28 31.91 133.28 31.91 133.27 31.89 133.27 31.87 133.27 31.88 133.27 31.87 133.27 31.86 133.27 31.82 133.27 31.81 133.27 31.79 133.27 31.78 133.27 31.77 133.27 31.76 133.28 31.75 133.28 31.74 133.28 31.74 133.29 31.73 133.29 31.72 133.29 31.72 133.3 31.71 133.3 31.7 133.3 31.7 133.31 31.69 133.31 31.68 133.31 31.68 133.32 31.67 133.32 31.66 133.33 31.65 133.33 31.64 133.33 31.64 133.34 31.63 133.34 31.62 133.34 31.61 133.34 31.6 133.35 31.59 133.35 31.56 133.35 31.55 133.36 31.54 133.36 31.54 133.37 31.53 133.37 31.52 133.38 31.51 133.38 31.51 133.39 31.5 133.39 31.49 133.4 31.48 133.4 31.48 133.41 31.47 133.41 31.46 133.41 31.46 133.42 31.45 133.42 31.42 133.42 31.4 133.41 31.39 133.41 31.38 133.41 31.37 133.41 31.36 133.41 31.36 133.42 31.35 133.42 31.35 133.43 31.35 133.44 31.35 133.45 31.34 133.46 31.34 133.45 31.33 133.46"/>
<path d="M 31.33 133.46 31.32 133.46 31.31 133.45 31.3 133.45 31.3 133.44 31.31 133.44 31.31 133.43 31.3 133.42 31.29 133.42 31.28 133.42 31.27 133.42 31.28 133.42 31.28 133.41 31.27 133.41 31.28 133.41 31.27 133.41 31.27 133.4 31.26 133.4 31.27 133.4 31.27 133.39 31.28 133.39 31.29 133.39 31.3 133.38 31.3 133.37 31.31 133.37 31.32 133.37 31.32 133.36 31.33 133.36 31.34 133.36 31.34 133.35 31.35 133.35 31.36 133.35 31.37 133.35 31.37 133.34 31.38 133.34 31.4 133.34 31.4 133.33 31.41 133.33 31.42 133.33 31.42 133.32 31.42 133.31 31.43 133.31 31.43 133.3 31.44 133.3 31.45 133.3 31.45 133.29 31.46 133.29 31.47 133.29 31.48 133.29 31.49 133.29 31.49 133.28 31.5 133.28 31.51 133.28 31.52 133.28 31.53 133.28 31.54 133.27 31.55 133.27 31.56 133.27 31.57 133.26 31.58 133.26 31.58 133.25 31.59 133.25 31.6 133.25 31.6 133.24 31.61 133.24 31.61 133.23 31.62 133.23 31.62 133.22 31.63 133.22 31.65 133.21 31.66 133.21 31.66 133.2 31.67 133.2 31.68 133.2 31.68 133.19 31.69 133.19 31.7 133.19 31.7 133.18 31.71 133.18 31.71 133.17 31.72 133.17 31.73 133.17 31.73 133.16 31.74 133.16 31.75 133.15 31.74 133.15 31.75 133.15 31.75 133.14 31.76 133.14 31.76 133.13 31.77 133.12 31.76 133.12 31.77 133.12 31.77 133.11 31.78 133.11 31.78 133.1 31.78 133.09 31.78 133.08 31.78 133.07 31.78 133.06 31.79 133.06 31.79 133.05 31.78 133.05 31.79 133.04 31.79 133.03 31.8 133.03 31.8 133.02 31.81 133.02 31.82 133.02 31.82 133.01 31.83 133.01 31.84 133.01 31.84 133 31.85 133 31.86 133 31.86 132.99 31.87 132.99 31.88 132.98 31.89 132.98 31.89 132.97 31.9 132.97 31.9 132.96 31.91 132.96 31.91 132.95 31.92 132.95 31.93 132.95 31.93 132.94 31.94 132.94 31.95 132.94 31.96 132.93 31.97 132.93 31.97 132.92 31.98 132.92 31.98 132.91 31.99 132.91 32 132.91 32 132.9 32.01 132.9 32.02 132.9 32.02 132.89 32.03 132.88 32.03 132.87 32.04 132.87 32.04 132.86 32.05 132.86 32.06 132.85 32.07 132.85 32.08 132.84 32.09 132.84 32.1 132.83 32.11 132.83 32.12 132.82 32.13 132.82 32.13 132.81 32.14 132.81 32.15 132.81 32.15 132.8 32.16 132.8 32.17 132.8 32.18 132.8 32.19 132.8 32.19 132.79 32.2 132.79 32.21 132.78 32.22 132.78 32.22 132.77 32.23 132.77 32.24 132.77 32.24 132.76 32.25 132.76 32.26 132.76 32.27 132.76 32.28 132.75 32.29 132.75 32.3 132.75 32.31 132.75 32.32 132.75 32.33 132.74 32.34 132.74 32.35 132.74 32.36 132.74 32.37 132.74 32.38 132.74 32.38 132.73 32.39 132.73 32.39 132.72 32.4 132.72 32.4 132.71 32.41 132.71 32.42 132.7 32.43 132.7 32.44 132.7 32.43 132.7 32.44 132.68 32.44 132.67 32.44 132.66 32.44 132.65 32.44 132.64 32.44 132.63 32.43 132.63 32.43 132.62 32.43 132.61 32.44 132.6 32.44 132.59 32.44 132.58 32.43 132.58 32.43 132.57 32.43 132.56 32.41 132.56 32.4 132.56 32.39 132.56 32.38 132.56 32.4 132.55 32.41 132.54 32.4 132.53 32.41 132.53 32.41 132.52 32.4 132.52 32.41 132.52 32.41 132.51 32.4 132.5 32.39 132.49 32.39 132.48 32.38 132.48 32.39 132.48 32.38 132.47 32.38 132.46 32.37 132.45 32.36 132.45 32.35 132.44 32.35 132.43"/>
<path d="M 30.74 134.73 30.73 134.73 30.73 134.72 30.74 134.72 30.74 134.73"/>
<path d="M 30.74 134.73 30.75 134.72 30.75 134.73 30.74 134.73"/>
<path d="M 30.75 134.73 30.76 134.73 30.75 134.73"/>
<path d="M 30.76 134.73 30.77 134.73 30.76 134.73"/>
<path d="M 30.73 134.73 30.72 134.73 30.73 134.73 30.72 134.73 30.73 134.73"/>
<path d="M 30.73 134.75 30.72 134.75 30.72 134.74 30.72 134.73 30.72 134.74 30.73 134.75"/>
<path d="M 30.72 134.75 30.71 134.75 30.72 134.75"/>
<path d="M 30.71 134.75 30.7 134.75 30.71 134.75"/>
<path d="M 30.58 134.76 30.58 134.75 30.57 134.75 30.56 134.75 30.54 134.75 30.53 134.75 30.54 134.74 30.55 134.74 30.56 134.74 30.57 134.74 30.58 134.75 30.58 134.76"/>
<path d="M 30.7 134.76 30.69 134.76 30.68 134.75 30.67 134.75 30.7 134.75 30.7 134.76"/>
<path d="M 30.57 134.76 30.58 134.76 30.57 134.76"/>
<path d="M 30.43 134.76 30.42 134.76 30.43 134.76"/>
<path d="M 30.62 134.76 30.61 134.76 30.62 134.76"/>
<path d="M 30.48 134.76 30.47 134.76 30.45 134.76 30.44 134.76 30.43 134.76 30.44 134.75 30.45 134.75 30.47 134.75 30.47 134.76 30.48 134.76"/>
<path d="M 30.58 134.76 30.59 134.76 30.58 134.76"/>
<path d="M 30.62 134.76 30.63 134.76 30.63 134.75 30.64 134.75 30.64 134.74 30.65 134.74 30.66 134.75 30.67 134.75 30.65 134.75 30.64 134.75 30.63 134.75 30.64 134.75 30.64 134.76 30.63 134.76 30.62 134.76"/>
<path d="M 30.61 134.76 30.6 134.76 30.61 134.76"/>
<path d="M 30.6 134.76 30.59 134.76 30.6 134.76"/>
<path d="M 30.57 134.78 30.55 134.77 30.54 134.77 30.54 134.76 30.53 134.76 30.53 134.77 30.53 134.76 30.52 134.76 30.52 134.75 30.53 134.75 30.53 134.76 30.55 134.76 30.56 134.77 30.55 134.77 30.57 134.77 30.57 134.78"/>
<path d="M 30.43 134.78 30.42 134.78 30.41 134.78 30.41 134.77 30.41 134.76 30.42 134.76 30.42 134.77 30.43 134.78"/>
<path d="M 30.52 134.78 30.51 134.78 30.5 134.78 30.49 134.78 30.48 134.78 30.48 134.77 30.48 134.76 30.49 134.76 30.49 134.77 30.48 134.77 30.49 134.78 30.5 134.78 30.52 134.78 30.53 134.78 30.54 134.77 30.54 134.78 30.53 134.78 30.52 134.78"/>
<path d="M 30.31 134.83 30.27 134.83 30.25 134.83 30.26 134.83 30.28 134.83 30.3 134.83 30.3 134.82 30.29 134.82 30.29 134.81 30.29 134.8 30.28 134.8 30.29 134.8 30.3 134.8 30.31 134.8 30.32 134.8 30.32 134.79 30.31 134.79 30.33 134.79 30.33 134.8 30.34 134.8 30.35 134.8 30.36 134.8 30.39 134.8 30.4 134.8 30.41 134.8 30.41 134.79 30.42 134.79 30.43 134.79 30.42 134.78 30.43 134.78 30.43 134.79 30.44 134.79 30.43 134.79 30.43 134.8 30.42 134.8 30.41 134.8 30.41 134.81 30.4 134.81 30.39 134.81 30.38 134.81 30.37 134.81 30.36 134.81 30.34 134.81 30.33 134.81 30.31 134.81 30.31 134.82 30.31 134.83 30.32 134.83 30.31 134.83"/>
<path d="M 30.2 134.84 30.19 134.84 30.19 134.83 30.21 134.84 30.21 134.83 30.22 134.83 30.23 134.83 30.25 134.83 30.24 134.83 30.23 134.83 30.22 134.83 30.22 134.84 30.21 134.84 30.2 134.84"/>
<path d="M 30.15 134.86 30.14 134.86 30.14 134.85 30.15 134.85 30.15 134.84 30.16 134.84 30.17 134.84 30.17 134.83 30.19 134.83 30.18 134.83 30.18 134.84 30.17 134.84 30.16 134.84 30.15 134.85 30.15 134.86"/>
</g>
</svg>