<?xml version="1.0"?>
<svg xmlns="http://www.w3.org/2000/svg" version="1.2" baseProfile="tiny" width="800" height="223" viewBox="0 0 800 223" stroke-linecap="round" stroke-linejoin="round">
<g id="cd22" fill="none" stroke="black" stroke-width="0.05">
<path d="M 15 145.01 14.99 145.01 15 145.01"/>
<path d="M 14.71 145.03 14.71 145.02 14.71 145.03"/>
<path d="M 14.71 145.03 14.7 145.03 14.71 145.03"/>
<path d="M 14.9 145.06 14.89 145.06 14.9 145.06"/>
<path d="M 14.76 145.08 14.77 145.08 14.76 145.08"/>
<path d="M 14.98 145.17 14.97 145.17 14.98 145.17 14.98 145.16 14.99 145.17 14.98 145.17"/>
<path d="M 14.76 145.17 14.77 145.17 14.76 145.17"/>
<path d="M 14.72 145 14.71 145 14.72 145"/>
<path d="M 14.75 145 14.74 145 14.75 145"/>
<path d="M 14.65 145.02 14.65 145.01 14.65 145.02"/>
<path d="M 14.68 145.02 14.67 145.02 14.68 145.02"/>
<path d="M 14.91 145.02 14.89 145.02 14.88 145.02 14.88 145.01 14.87 145.01 14.88 145.01 14.87 145.01 14.89 145.01 14.9 145.01 14.91 145.01 14.91 145.02"/>
<path d="M 14.87 145.02 14.86 145.02 14.87 145.02"/>
<path d="M 14.76 145.04 14.76 145.03 14.76 145.02 14.77 145.02 14.78 145.02 14.78 145.03 14.79 145.03 14.78 145.04 14.76 145.04"/>
<path d="M 14.72 145.04 14.71 145.04 14.71 145.03 14.7 145.03 14.69 145.03 14.7 145.02 14.71 145.02 14.7 145.02 14.69 145.02 14.69 145.01 14.7 145.01 14.71 145.01 14.71 145.02 14.71 145.01 14.72 145.01 14.73 145.01 14.74 145.01 14.74 145.02 14.73 145.02 14.74 145.02 14.74 145.03 14.73 145.03 14.73 145.04 14.72 145.04"/>
<path d="M 14.81 145.04 14.8 145.04 14.79 145.04 14.8 145.03 14.79 145.03 14.8 145.03 14.8 145.02 14.81 145.02 14.81 145.03 14.8 145.03 14.81 145.03 14.81 145.04"/>
<path d="M 14.81 145.08 14.8 145.08 14.79 145.08 14.78 145.07 14.78 145.06 14.79 145.06 14.81 145.06 14.81 145.05 14.82 145.04 14.83 145.04 14.84 145.04 14.84 145.05 14.83 145.05 14.83 145.06 14.84 145.07 14.83 145.07 14.83 145.08 14.82 145.08 14.81 145.08"/>
<path d="M 14.84 145.11 14.82 145.11 14.82 145.1 14.82 145.11 14.81 145.11 14.8 145.1 14.79 145.1 14.79 145.11 14.78 145.1 14.77 145.1 14.78 145.1 14.78 145.09 14.77 145.09 14.78 145.09 14.78 145.1 14.77 145.1 14.76 145.1 14.75 145.1 14.74 145.09 14.75 145.09 14.76 145.09 14.76 145.08 14.75 145.08 14.74 145.08 14.73 145.08 14.73 145.07 14.74 145.07 14.75 145.07 14.76 145.07 14.77 145.07 14.77 145.08 14.78 145.08 14.79 145.08 14.78 145.08 14.77 145.08 14.76 145.09 14.77 145.09 14.78 145.09 14.79 145.09 14.79 145.1 14.8 145.1 14.8 145.09 14.81 145.09 14.82 145.09 14.84 145.09 14.84 145.1 14.84 145.11"/>
<path d="M 14.71 145.11 14.7 145.11 14.7 145.1 14.69 145.1 14.7 145.1 14.71 145.1 14.71 145.11"/>
<path d="M 14.83 145.11 14.82 145.11 14.83 145.11"/>
<path d="M 14.96 145.12 14.95 145.12 14.95 145.11 14.96 145.11 14.97 145.12 14.96 145.12"/>
<path d="M 14.79 145.12 14.78 145.12 14.78 145.11 14.79 145.11 14.79 145.12"/>
<path d="M 14.75 145.12 14.75 145.11 14.76 145.11 14.76 145.12 14.75 145.12"/>
<path d="M 14.74 145.13 14.73 145.13 14.73 145.12 14.74 145.12 14.75 145.12 14.74 145.13"/>
<path d="M 14.77 145.13 14.76 145.13 14.76 145.12 14.77 145.12 14.77 145.13"/>
<path d="M 14.73 145.13 14.72 145.13 14.71 145.13 14.7 145.12 14.71 145.12 14.71 145.11 14.72 145.11 14.73 145.11 14.73 145.12 14.72 145.12 14.72 145.13 14.74 145.13 14.73 145.13"/>
<path d="M 14.83 145.13 14.82 145.13 14.83 145.13"/>
<path d="M 14.8 145.13 14.79 145.13 14.8 145.13 14.81 145.13 14.8 145.13"/>
<path d="M 14.77 145.14 14.77 145.13 14.77 145.14"/>
<path d="M 14.71 145.14 14.7 145.14 14.71 145.13 14.71 145.14 14.72 145.14 14.71 145.14"/>
<path d="M 14.75 145.14 14.74 145.14 14.75 145.14 14.76 145.14 14.75 145.14"/>
<path d="M 14.76 145.18 14.76 145.17 14.77 145.17 14.78 145.17 14.79 145.17 14.78 145.17 14.77 145.18 14.76 145.18"/>
<path d="M 14.84 145.19 14.83 145.19 14.83 145.18 14.84 145.18 14.84 145.19"/>
<path d="M 14.8 145.2 14.8 145.19 14.81 145.19 14.81 145.2 14.8 145.2"/>
<path d="M 14.96 145.2 14.95 145.2 14.96 145.2"/>
<path d="M 14.9 145.2 14.89 145.2 14.88 145.19 14.88 145.18 14.88 145.17 14.89 145.17 14.9 145.17 14.89 145.17 14.88 145.17 14.87 145.17 14.87 145.15 14.88 145.15 14.89 145.15 14.9 145.15 14.91 145.15 14.94 145.15 14.94 145.16 14.93 145.16 14.93 145.17 14.92 145.17 14.93 145.17 14.93 145.18 14.92 145.19 14.93 145.19 14.92 145.2 14.9 145.2"/>
<path d="M 14.79 145.21 14.79 145.2 14.8 145.2 14.79 145.2 14.79 145.21"/>
<path d="M 15 145.38 14.98 145.38 14.98 145.37 14.99 145.37 14.98 145.37 14.99 145.37 15 145.38"/>
</g>
</svg>