<?xml version="1.0"?>
<svg xmlns="http://www.w3.org/2000/svg" version="1.2" baseProfile="tiny" width="800" height="223" viewBox="0 0 800 223" stroke-linecap="round" stroke-linejoin="round">
<g id="cd22" fill="none" stroke="black" stroke-width="0.05">
<path d="M 30.76 135.4 30.75 135.4 30.76 135.4"/>
<path d="M 34.38 138.39 34.37 138.39 34.38 138.39"/>
<path d="M 34.37 138.4 34.37 138.39 34.37 138.4"/>
<path d="M 34.36 138.41 34.36 138.4 34.37 138.4 34.36 138.4 34.36 138.41"/>
<path d="M 34.37 138.43 34.36 138.42 34.36 138.41 34.36 138.42 34.37 138.42 34.37 138.43"/>
<path d="M 34.36 138.44 34.36 138.43 34.37 138.43 34.36 138.43 34.36 138.44"/>
<path d="M 34.36 138.45 34.36 138.44 34.35 138.44 34.36 138.44 34.36 138.45"/>
<path d="M 34.35 138.46 34.34 138.45 34.33 138.45 34.34 138.45 34.35 138.45 34.35 138.46"/>
<path d="M 34.28 138.47 34.29 138.47 34.31 138.47 34.31 138.46 34.32 138.46 34.33 138.46 34.33 138.47 34.32 138.47 34.31 138.47 34.29 138.47 34.28 138.47"/>
<path d="M 34.24 138.48 34.26 138.48 34.27 138.47 34.28 138.47 34.28 138.48 34.27 138.48 34.26 138.48 34.25 138.48 34.24 138.48"/>
<path d="M 34.24 138.49 34.23 138.48 34.24 138.48 34.24 138.49"/>
<path d="M 34.25 138.51 34.24 138.51 34.24 138.5 34.23 138.5 34.23 138.49 34.24 138.49 34.23 138.49 34.24 138.49 34.24 138.5 34.25 138.5 34.25 138.51"/>
<path d="M 34.27 138.53 34.26 138.53 34.26 138.52 34.26 138.51 34.25 138.51 34.26 138.51 34.26 138.52 34.27 138.52 34.27 138.53"/>
<path d="M 34.27 138.54 34.26 138.54 34.26 138.53 34.27 138.54"/>
<path d="M 34.26 138.54 34.25 138.54 34.26 138.54"/>
<path d="M 34.25 138.55 34.25 138.54 34.26 138.55 34.25 138.55"/>
<path d="M 34.26 138.59 34.26 138.58 34.25 138.58 34.26 138.58 34.26 138.57 34.27 138.57 34.27 138.56 34.26 138.56 34.26 138.55 34.26 138.56 34.27 138.56 34.28 138.56 34.28 138.57 34.27 138.57 34.27 138.58 34.26 138.58 34.26 138.59"/>
<path d="M 34.31 138.62 34.3 138.62 34.29 138.62 34.29 138.61 34.28 138.6 34.28 138.59 34.27 138.59 34.26 138.59 34.27 138.59 34.28 138.59 34.29 138.6 34.29 138.61 34.3 138.61 34.3 138.62 34.31 138.62"/>
<path d="M 34.32 138.63 34.31 138.63 34.32 138.63"/>
<path d="M 34.32 138.64 34.32 138.63 34.33 138.63 34.32 138.64"/>
<path d="M 34.35 138.65 34.34 138.64 34.33 138.64 34.34 138.64 34.35 138.64 34.35 138.65"/>
<path d="M 34.37 138.67 34.36 138.67 34.36 138.66 34.36 138.65 34.35 138.65 34.36 138.65 34.36 138.66 34.37 138.66 34.38 138.67 34.37 138.67"/>
<path d="M 34.4 138.68 34.39 138.68 34.38 138.68 34.39 138.67 34.39 138.68 34.4 138.68"/>
<path d="M 34.44 138.7 34.43 138.7 34.42 138.7 34.42 138.69 34.41 138.69 34.4 138.69 34.41 138.68 34.41 138.69 34.42 138.69 34.43 138.69 34.45 138.69 34.45 138.7 34.44 138.7"/>
<path d="M 34.45 138.7 34.46 138.7 34.45 138.7"/>
<path d="M 34.54 138.77 34.54 138.76 34.53 138.76 34.54 138.76 34.55 138.76 34.55 138.77 34.54 138.77"/>
<path d="M 34.52 138.77 34.51 138.76 34.51 138.75 34.5 138.74 34.49 138.74 34.49 138.73 34.48 138.73 34.48 138.72 34.47 138.72 34.47 138.71 34.46 138.71 34.46 138.7 34.47 138.7 34.47 138.71 34.48 138.71 34.48 138.72 34.49 138.73 34.5 138.73 34.51 138.74 34.52 138.74 34.52 138.75 34.52 138.76 34.52 138.77"/>
<path d="M 34.53 138.83 34.53 138.82 34.53 138.83"/>
<path d="M 29.74 139.42 29.74 139.41 29.75 139.4 29.76 139.4 29.76 139.39 29.77 139.39 29.77 139.38 29.78 139.38 29.79 139.38 29.79 139.37 29.8 139.37 29.8 139.36 29.81 139.36 29.81 139.35 29.81 139.34 29.82 139.34 29.83 139.33 29.84 139.32 29.85 139.32 29.85 139.31 29.86 139.31 29.86 139.3 29.87 139.3 29.87 139.29 29.88 139.29 29.88 139.28 29.89 139.28 29.9 139.28 29.9 139.27 29.91 139.27 29.92 139.26 29.93 139.26 29.94 139.26 29.94 139.25 29.95 139.25 29.96 139.24 29.97 139.24 29.98 139.23 29.99 139.23 30.01 139.23 30.01 139.22 30.02 139.22 30.03 139.22 30.04 139.21 30.05 139.21 30.05 139.2 30.06 139.2 30.08 139.2 30.08 139.19 30.09 139.18 30.1 139.18 30.1 139.17 30.11 139.17 30.11 139.16 30.12 139.16 30.12 139.15 30.12 139.14 30.12 139.13 30.12 139.12 30.12 139.11 30.12 139.1 30.12 139.09 30.12 139.08 30.12 139.07 30.13 139.07 30.14 139.07 30.13 139.06 30.13 139.05 30.14 139.05 30.14 139.04 30.15 139.04 30.16 139.02 30.17 139.02 30.17 139.01 30.18 139 30.18 138.99 30.19 138.99 30.19 138.98 30.2 138.98 30.2 138.97 30.19 138.97 30.2 138.97 30.2 138.96 30.21 138.95 30.21 138.94 30.22 138.94 30.23 138.93 30.23 138.92 30.24 138.92 30.25 138.92 30.25 138.91 30.26 138.91 30.26 138.9 30.27 138.9 30.27 138.89 30.27 138.88 30.27 138.87 30.26 138.86 30.25 138.85 30.25 138.84 30.25 138.83 30.25 138.82 30.25 138.81 30.25 138.8 30.25 138.79 30.26 138.79 30.25 138.78 30.26 138.77 30.26 138.76 30.27 138.75 30.27 138.74 30.28 138.74 30.29 138.73 30.29 138.72 30.28 138.71 30.29 138.71 30.28 138.7 30.29 138.69 30.3 138.68 30.31 138.68 30.32 138.67 30.32 138.66 30.33 138.65 30.33 138.64 30.34 138.64 30.35 138.64 30.36 138.64 30.37 138.65 30.38 138.65 30.39 138.65 30.4 138.65 30.4 138.66 30.39 138.66 30.4 138.66 30.41 138.66 30.41 138.67 30.42 138.67 30.42 138.68 30.42 138.69 30.41 138.69 30.41 138.7 30.4 138.72 30.4 138.74 30.4 138.75 30.4 138.76 30.4 138.77 30.39 138.78 30.4 138.79 30.39 138.79 30.39 138.8 30.38 138.81 30.39 138.81 30.38 138.81 30.38 138.82 30.37 138.82 30.37 138.83 30.36 138.84 30.36 138.85 30.36 138.86 30.36 138.87 30.37 138.88 30.36 138.88 30.36 138.89 30.36 138.9 30.36 138.91 30.35 138.92 30.35 138.93 30.34 138.94 30.34 138.95 30.33 138.95 30.34 138.95 30.33 138.96 30.33 138.97 30.33 138.98 30.33 138.99 30.32 139 30.31 139.01 30.31 139.02 30.31 139.04 30.31 139.05 30.3 139.05 30.3 139.06 30.3 139.07 30.3 139.08 30.3 139.09 30.3 139.1 30.29 139.11 30.3 139.11 30.3 139.12 30.3 139.13 30.3 139.14 30.31 139.14 30.31 139.15 30.3 139.15 30.3 139.16 30.29 139.16 30.3 139.16 30.3 139.17 30.29 139.17 30.29 139.18 30.28 139.18 30.28 139.19 30.27 139.2 30.27 139.21 30.26 139.22 30.25 139.22 30.24 139.22 30.24 139.23 30.24 139.24 30.23 139.24 30.22 139.24 30.22 139.25 30.21 139.25 30.2 139.25 30.21 139.25 30.2 139.26 30.19 139.26 30.18 139.26 30.18 139.27 30.17 139.27 30.17 139.28 30.16 139.28 30.15 139.29 30.14 139.29 30.13 139.29 30.12 139.29 30.11 139.29 30.1 139.29 30.08 139.29 30.07 139.3 30.07 139.31 30.06 139.31 30.06 139.32 30.05 139.32 30.05 139.33 30.04 139.33 30.04 139.34 30.03 139.34 30.03 139.35 30.02 139.35 30.02 139.36 30.01 139.36 30.01 139.37 30 139.37 30 139.38 29.99 139.38 29.99 139.39 29.98 139.39 29.98 139.4 29.97 139.41"/>
<path d="M 33.33 139.96 33.32 139.96 33.32 139.95 33.32 139.94 33.33 139.94 33.34 139.93 33.36 139.93 33.36 139.94 33.35 139.94 33.35 139.95 33.34 139.95 33.33 139.95 33.33 139.96"/>
<path d="M 35.22 140.58 35.22 140.57 35.23 140.57 35.24 140.57 35.24 140.56 35.25 140.56 35.27 140.56 35.27 140.55 35.28 140.55 35.29 140.54 35.3 140.54 35.31 140.54 35.32 140.53 35.33 140.53 35.34 140.53 35.34 140.52 35.35 140.52 35.36 140.52 35.37 140.52 35.38 140.51 35.39 140.5 35.39 140.49 35.38 140.49 35.37 140.49 35.36 140.49 35.36 140.48 35.35 140.48 35.33 140.48 35.31 140.48 35.3 140.48 35.29 140.48 35.28 140.47 35.27 140.47 35.25 140.47 35.24 140.47 35.24 140.46 35.24 140.47 35.23 140.47 35.23 140.46 35.22 140.46 35.21 140.46 35.2 140.46 35.2 140.45 35.19 140.45 35.18 140.45 35.18 140.44 35.17 140.44 35.16 140.44 35.16 140.43 35.15 140.43 35.14 140.43 35.14 140.42 35.13 140.42 35.12 140.42 35.12 140.41 35.11 140.41 35.11 140.4 35.1 140.4 35.09 140.4 35.08 140.4 35.08 140.39 35.07 140.39 35.06 140.39 35.06 140.38 35.06 140.37 35.06 140.35 35.05 140.35 35.05 140.34 35.05 140.33 35.04 140.32 35.03 140.31 35.03 140.3 35.02 140.29 35.02 140.28 35.01 140.28 35 140.27 35 140.26 34.99 140.25 34.99 140.23 34.99 140.22 35 140.22 35 140.21 35 140.2 34.99 140.19 34.99 140.18 34.99 140.17 34.98 140.17 34.98 140.16 34.97 140.16 34.97 140.15 34.98 140.15 34.97 140.15 34.97 140.14 34.96 140.14 34.96 140.13 34.96 140.11 34.96 140.1 34.96 140.08 34.96 140.07 34.96 140.06 34.96 140.05 34.96 140.03 34.95 140.02 34.95 140.01 34.95 140 34.95 139.99 34.95 139.98 34.95 139.97 34.95 139.96 34.95 139.95 34.94 139.94 34.93 139.93 34.93 139.92 34.92 139.92 34.92 139.91 34.91 139.91 34.91 139.9 34.9 139.9 34.9 139.89 34.89 139.89 34.89 139.88 34.88 139.87 34.88 139.86 34.88 139.85 34.88 139.84 34.87 139.84 34.86 139.83 34.85 139.83 34.85 139.82 34.84 139.82 34.82 139.82 34.81 139.82 34.8 139.82 34.79 139.82 34.78 139.82 34.77 139.82 34.76 139.82 34.75 139.82 34.74 139.81 34.73 139.81 34.72 139.81 34.71 139.81 34.7 139.81 34.68 139.81 34.68 139.8 34.69 139.8 34.67 139.8 34.66 139.8 34.65 139.8 34.63 139.79 34.62 139.79 34.61 139.79 34.6 139.78 34.59 139.78 34.58 139.77 34.57 139.77 34.56 139.77 34.56 139.76 34.55 139.76 34.54 139.75 34.53 139.75 34.52 139.75 34.51 139.75 34.51 139.74 34.5 139.75 34.5 139.74 34.49 139.74 34.48 139.73 34.47 139.73 34.46 139.72 34.46 139.71 34.45 139.72 34.45 139.71 34.44 139.71 34.43 139.7 34.42 139.69 34.41 139.69 34.41 139.68 34.4 139.68 34.39 139.68 34.38 139.67 34.37 139.66 34.37 139.65 34.37 139.64 34.36 139.64 34.36 139.63 34.35 139.62 34.34 139.62 34.32 139.62 34.31 139.61 34.3 139.61 34.29 139.61 34.29 139.6 34.28 139.6 34.28 139.59 34.27 139.59 34.26 139.6 34.25 139.59 34.25 139.58 34.24 139.58 34.23 139.58 34.23 139.57 34.24 139.57 34.24 139.56 34.25 139.55 34.26 139.55 34.27 139.55 34.28 139.55 34.29 139.55 34.31 139.55 34.32 139.55 34.35 139.55 34.36 139.55 34.36 139.54 34.37 139.54 34.37 139.53 34.38 139.53 34.39 139.53 34.38 139.53 34.39 139.53 34.39 139.52 34.4 139.52 34.41 139.52 34.41 139.51 34.42 139.51 34.43 139.51 34.44 139.51 34.44 139.5 34.45 139.5 34.46 139.5 34.46 139.49 34.47 139.49 34.48 139.49 34.49 139.49 34.5 139.48 34.51 139.48 34.52 139.48 34.52 139.47 34.53 139.47 34.53 139.46 34.54 139.46 34.55 139.45 34.55 139.44 34.56 139.44 34.57 139.44 34.58 139.44 34.58 139.43 34.59 139.43 34.59 139.42 34.6 139.42 34.61 139.42 34.62 139.42 34.63 139.41 34.64 139.41 34.65 139.41 34.66 139.4 34.67 139.4 34.68 139.39 34.69 139.39 34.7 139.39 34.7 139.38 34.71 139.38 34.72 139.37 34.73 139.37 34.74 139.37 34.78 139.37 34.8 139.37 34.81 139.36 34.82 139.36 34.82 139.35 34.83 139.35 34.84 139.35 34.85 139.35 34.85 139.34 34.86 139.34 34.86 139.33 34.87 139.33 34.87 139.32 34.88 139.32 34.89 139.32 34.9 139.32 34.9 139.31 34.91 139.31"/>
</g>
</svg>