<?xml version="1.0"?>
<svg xmlns="http://www.w3.org/2000/svg" version="1.2" baseProfile="tiny" width="800" height="223" viewBox="0 0 800 223" stroke-linecap="round" stroke-linejoin="round">
<g id="cd22" fill="none" stroke="black" stroke-width="0.05">
<path d="M 33.1 140.14 33.09 140.14 33.1 140.14 33.11 140.14 33.1 140.14"/>
<path d="M 32.76 140.3 32.77 140.3 32.78 140.3 32.79 140.3 32.8 140.29 32.81 140.29 32.82 140.29 32.83 140.29 32.85 140.29 32.85 140.3 32.86 140.29 32.87 140.29 32.9 140.29 32.91 140.29 32.92 140.29 32.93 140.29 32.94 140.29 32.94 140.28 32.95 140.28 32.96 140.28 32.98 140.28 32.98 140.27 32.99 140.27 33 140.27 33 140.26 33.01 140.26 33.02 140.26 33.03 140.26 33.03 140.25 33.04 140.25 33.03 140.25 33.04 140.25 33.04 140.24 33.05 140.24 33.06 140.24 33.06 140.23 33.07 140.22 33.08 140.21 33.07 140.21 33.08 140.2 33.09 140.2 33.09 140.19 33.1 140.19 33.11 140.19 33.11 140.18 33.12 140.18 33.12 140.17 33.11 140.17 33.11 140.16 33.11 140.15 33.11 140.14 33.11 140.13 33.12 140.12 33.13 140.12 33.13 140.11 33.16 140.11 33.17 140.11 33.19 140.11 33.2 140.11 33.21 140.11 33.22 140.11 33.23 140.1 33.23 140.09 33.22 140.09 33.21 140.08 33.21 140.07 33.21 140.06 33.19 140.06 33.19 140.05 33.18 140.05 33.18 140.04 33.17 140.03 33.17 140.02 33.17 140.01 33.17 140 33.17 139.99 33.18 139.99 33.18 139.98 33.19 139.99 33.19 139.98 33.2 139.98 33.21 139.98 33.21 139.97 33.22 139.97 33.23 139.97 33.24 139.97 33.25 139.98 33.25 139.97 33.26 139.97 33.27 139.97 33.28 139.97 33.28 139.96 33.29 139.96 33.29 139.97 33.3 139.97 33.3 139.96 33.3 139.95 33.31 139.95 33.31 139.94 33.3 139.94 33.3 139.93 33.31 139.93 33.31 139.92 33.33 139.92 33.33 139.91 33.34 139.91 33.35 139.91 33.36 139.91 33.37 139.91 33.37 139.9 33.39 139.9 33.4 139.9 33.41 139.9 33.41 139.89 33.42 139.89 33.43 139.89 33.45 139.89 33.46 139.89 33.47 139.89 33.48 139.9 33.49 139.89 33.5 139.89 33.51 139.89 33.53 139.89 33.54 139.89 33.55 139.88 33.56 139.88 33.56 139.87 33.55 139.87 33.56 139.86 33.57 139.86 33.57 139.85 33.56 139.85 33.55 139.85 33.55 139.84 33.56 139.84 33.56 139.83 33.57 139.83 33.56 139.83 33.57 139.83 33.58 139.83 33.58 139.84 33.59 139.84 33.59 139.83 33.6 139.83 33.6 139.82 33.61 139.82 33.61 139.83 33.6 139.84 33.59 139.84 33.58 139.85 33.59 139.85 33.6 139.85 33.61 139.85 33.62 139.85 33.62 139.86 33.63 139.87 33.65 139.87 33.65 139.88 33.65 139.89 33.65 139.9 33.65 139.91 33.65 139.92 33.64 139.93 33.63 139.94 33.62 139.94 33.61 139.94 33.61 139.95 33.6 139.95 33.59 139.95 33.59 139.96 33.58 139.96 33.57 139.96 33.56 139.97 33.55 139.97 33.54 139.97 33.53 139.97 33.52 139.97 33.5 139.97 33.49 139.97 33.47 139.98 33.45 139.98 33.42 139.98 33.42 139.97 33.4 139.97 33.39 139.97 33.39 139.96 33.38 139.96 33.37 139.96 33.36 139.96 33.35 139.97 33.34 139.98 33.34 139.99 33.34 140 33.35 140 33.36 140 33.36 140.01 33.36 140.02 33.35 140.02 33.34 140.02 33.34 140.03 33.32 140.03 33.33 140.03 33.33 140.04 33.34 140.04 33.34 140.05 33.34 140.06 33.33 140.06 33.32 140.06 33.31 140.06 33.31 140.07 33.32 140.07 33.32 140.08 33.31 140.08 33.31 140.09 33.3 140.09 33.3 140.1 33.29 140.1 33.28 140.1 33.28 140.09 33.27 140.1 33.26 140.1 33.25 140.1 33.26 140.1 33.26 140.11 33.25 140.12 33.26 140.12 33.26 140.13 33.27 140.13 33.27 140.14 33.27 140.15 33.27 140.16 33.28 140.16 33.27 140.17 33.28 140.17 33.27 140.18 33.27 140.19 33.27 140.2 33.27 140.21 33.27 140.22 33.26 140.22 33.26 140.23 33.25 140.23 33.25 140.24 33.24 140.24 33.24 140.25 33.23 140.26 33.23 140.27 33.22 140.27 33.22 140.28 33.23 140.28 33.24 140.28 33.26 140.28 33.26 140.29 33.27 140.29 33.28 140.29 33.29 140.29 33.31 140.29 33.31 140.28 33.32 140.29 33.33 140.29 33.34 140.29 33.37 140.29 33.37 140.28 33.39 140.28 33.4 140.28 33.4 140.29"/>
<path d="M 32.82 140.44 32.81 140.44 32.81 140.43 32.82 140.43 32.82 140.44"/>
<path d="M 30.05 140.5 30.05 140.49 30.05 140.5"/>
<path d="M 32.43 140.63 32.42 140.63 32.42 140.62 32.43 140.62 32.43 140.63"/>
<path d="M 32.26 140.69 32.27 140.69 32.27 140.68 32.27 140.67 32.27 140.66 32.26 140.66 32.25 140.67 32.24 140.67 32.24 140.66 32.24 140.65 32.24 140.64 32.25 140.64 32.24 140.64 32.24 140.63 32.25 140.63 32.25 140.62 32.25 140.61 32.26 140.61 32.26 140.6 32.26 140.59 32.27 140.59 32.28 140.58 32.29 140.57 32.31 140.57 32.31 140.56 32.32 140.56 32.33 140.56 32.33 140.55 32.34 140.55 32.35 140.55 32.34 140.54 32.35 140.54 32.36 140.53 32.37 140.53 32.38 140.52 32.38 140.51 32.39 140.51 32.4 140.51 32.42 140.51 32.41 140.51 32.41 140.52 32.42 140.52 32.43 140.52 32.44 140.52 32.45 140.52 32.45 140.51 32.44 140.5 32.43 140.5 32.44 140.49 32.44 140.48 32.44 140.47 32.45 140.47 32.45 140.46 32.46 140.46 32.46 140.45 32.46 140.43 32.47 140.43 32.46 140.43 32.48 140.43 32.48 140.42 32.49 140.42 32.49 140.41 32.5 140.41 32.51 140.41 32.52 140.4 32.53 140.4 32.54 140.4 32.55 140.4 32.55 140.39 32.57 140.39 32.58 140.39 32.59 140.39 32.61 140.38 32.62 140.38 32.63 140.38 32.64 140.38 32.65 140.38 32.66 140.38 32.67 140.38 32.68 140.38 32.68 140.37 32.69 140.37 32.7 140.37 32.71 140.37 32.72 140.37 32.72 140.36 32.73 140.35 32.73 140.34 32.73 140.33 32.73 140.32 32.74 140.32 32.74 140.31 32.75 140.31 32.75 140.3 32.76 140.3"/>
<path d="M 30.05 140.5 30.06 140.5 30.07 140.5 30.08 140.5 30.09 140.5 30.1 140.5 30.11 140.5 30.12 140.5 30.13 140.5 30.14 140.5 30.15 140.5 30.19 140.5 30.2 140.5 30.21 140.5 30.22 140.5 30.24 140.5 30.25 140.5 30.27 140.5 30.29 140.5 30.3 140.5 30.31 140.5 30.32 140.5 30.34 140.5 30.36 140.5 30.37 140.5 30.38 140.5 30.39 140.5 30.4 140.5 30.41 140.5 30.42 140.5 30.44 140.5 30.46 140.5 30.47 140.5 30.49 140.49 30.5 140.49 30.51 140.5 30.53 140.5 30.54 140.5 30.55 140.5 30.56 140.5 30.57 140.5 30.58 140.5 30.58 140.49 30.58 140.5 30.59 140.5 30.6 140.49 30.61 140.5 30.62 140.5 30.63 140.5 30.64 140.5 30.65 140.5 30.66 140.5 30.66 140.49 30.68 140.49 30.71 140.49 30.72 140.49 30.73 140.49 30.75 140.49 30.75 140.48 30.77 140.48 30.78 140.48 30.79 140.47 30.8 140.47 30.82 140.47 30.83 140.48 30.84 140.48 30.84 140.47 30.86 140.48 30.88 140.48 30.89 140.48 30.9 140.47 30.92 140.47 30.93 140.47 30.94 140.47 30.95 140.47 30.96 140.47 30.98 140.47 31 140.47 31.01 140.47 31.04 140.47 31.05 140.47 31.06 140.48 31.07 140.48 31.08 140.48 31.09 140.48 31.1 140.48 31.11 140.48 31.12 140.48 31.12 140.49 31.13 140.49 31.13 140.5 31.14 140.5 31.14 140.51 31.15 140.51 31.15 140.52 31.14 140.52 31.13 140.52 31.13 140.53 31.14 140.53 31.15 140.53 31.18 140.53 31.19 140.53 31.2 140.54 31.21 140.54 31.21 140.55 31.22 140.55 31.23 140.55 31.24 140.55 31.24 140.56 31.25 140.56 31.26 140.56 31.26 140.57 31.27 140.57 31.28 140.57 31.29 140.57 31.3 140.57 31.31 140.57 31.32 140.57 31.33 140.57 31.33 140.56 31.34 140.56 31.35 140.56 31.36 140.56 31.39 140.55 31.4 140.55 31.4 140.56 31.41 140.56 31.42 140.56 31.43 140.56 31.44 140.56 31.45 140.57 31.46 140.58 31.47 140.58 31.48 140.58 31.48 140.59 31.49 140.59 31.5 140.6 31.51 140.6 31.52 140.6 31.52 140.61 31.53 140.61 31.53 140.62 31.54 140.62 31.55 140.62 31.55 140.63 31.56 140.63 31.56 140.64 31.57 140.64 31.58 140.64 31.58 140.65 31.59 140.66 31.6 140.66 31.61 140.66 31.62 140.66 31.63 140.66 31.64 140.66 31.65 140.66 31.65 140.67 31.65 140.66 31.66 140.66 31.66 140.67 31.67 140.67 31.68 140.67 31.69 140.67 31.7 140.67 31.71 140.67 31.72 140.67 31.74 140.68 31.75 140.67 31.78 140.67 31.79 140.67 31.79 140.68 31.8 140.67 31.81 140.67 31.83 140.67 31.86 140.67 31.87 140.66 31.87 140.65 31.88 140.65 31.89 140.65 31.9 140.65 31.91 140.65 31.94 140.65 31.95 140.65 31.96 140.66 31.97 140.66 31.98 140.66 31.99 140.66 32 140.66 32.01 140.67 32.02 140.67 32.03 140.67 32.04 140.67 32.04 140.68 32.06 140.68 32.09 140.68 32.11 140.68 32.12 140.68 32.15 140.68 32.15 140.69 32.16 140.69 32.17 140.69 32.18 140.69 32.18 140.68 32.2 140.68 32.21 140.68 32.21 140.69 32.23 140.69 32.24 140.69 32.25 140.69 32.26 140.69"/>
<path d="M 32.94 140.87 32.97 140.87 32.99 140.87 32.99 140.86 33 140.86 33.02 140.86 33.03 140.86 33.03 140.85 33.06 140.85 33.07 140.86 33.08 140.86 33.09 140.86 33.1 140.86 33.11 140.86 33.11 140.85 33.14 140.85 33.15 140.85 33.15 140.84 33.16 140.84 33.17 140.84 33.18 140.84 33.19 140.83 33.21 140.83 33.23 140.83 33.25 140.83 33.26 140.83 33.27 140.83 33.27 140.82 33.28 140.82 33.29 140.82 33.3 140.82 33.31 140.82 33.32 140.82 33.33 140.82 33.35 140.82 33.35 140.81 33.37 140.81 33.38 140.81 33.39 140.81 33.41 140.8 33.42 140.8 33.44 140.8 33.46 140.8 33.47 140.8 33.48 140.8 33.49 140.8 33.5 140.8 33.51 140.8 33.52 140.8 33.52 140.81 33.53 140.81 33.54 140.81 33.54 140.82 33.55 140.82 33.57 140.82 33.58 140.82 33.59 140.82 33.61 140.82 33.61 140.81 33.62 140.81 33.63 140.81 33.64 140.81 33.64 140.8 33.65 140.8 33.66 140.8 33.67 140.8 33.67 140.79 33.67 140.78 33.67 140.77 33.66 140.77 33.66 140.76 33.65 140.74 33.65 140.73 33.65 140.72 33.65 140.71 33.65 140.7 33.65 140.69 33.65 140.68 33.66 140.68 33.67 140.67 33.68 140.67 33.69 140.66 33.69 140.65 33.7 140.65 33.71 140.65 33.72 140.64 33.73 140.64 33.74 140.63 33.75 140.63 33.76 140.63 33.76 140.62 33.77 140.62 33.78 140.62 33.79 140.62 33.79 140.61 33.8 140.61 33.81 140.61 33.82 140.61 33.83 140.61 33.83 140.6 33.86 140.6 33.88 140.61 33.89 140.61 33.9 140.61 33.91 140.61 33.92 140.61 33.93 140.61 33.98 140.61 33.99 140.61 34 140.6 34.01 140.6 34.03 140.6 34.04 140.6 34.05 140.6 34.06 140.6 34.07 140.6 34.08 140.6 34.09 140.6 34.1 140.6 34.12 140.6 34.13 140.6 34.14 140.6 34.15 140.59 34.16 140.59 34.17 140.59 34.18 140.59 34.19 140.59 34.21 140.59 34.21 140.58 34.22 140.58 34.22 140.57 34.23 140.57 34.23 140.56 34.23 140.55 34.22 140.55 34.22 140.54 34.2 140.54 34.19 140.53 34.18 140.53 34.18 140.52 34.17 140.51 34.16 140.51 34.16 140.5 34.16 140.49 34.17 140.49 34.18 140.49 34.19 140.49 34.21 140.49 34.22 140.49 34.23 140.49 34.24 140.49 34.25 140.49 34.26 140.49 34.27 140.49 34.27 140.5 34.28 140.5 34.29 140.5 34.3 140.5 34.3 140.51 34.31 140.51 34.32 140.51 34.32 140.52 34.33 140.52 34.34 140.52 34.35 140.52 34.35 140.53 34.36 140.53 34.36 140.54 34.37 140.54 34.36 140.54 34.35 140.54 34.34 140.55 34.33 140.55 34.33 140.56 34.32 140.56 34.31 140.56 34.31 140.57 34.3 140.57 34.3 140.58 34.3 140.59 34.31 140.6 34.32 140.6 34.33 140.6 34.33 140.61 34.34 140.61 34.35 140.61 34.36 140.61 34.37 140.62 34.38 140.62 34.39 140.62 34.4 140.62 34.41 140.62 34.41 140.63 34.42 140.63 34.43 140.63 34.44 140.64 34.45 140.64 34.46 140.64 34.47 140.64 34.48 140.64 34.49 140.65 34.5 140.65 34.51 140.65 34.52 140.65 34.53 140.65 34.54 140.65 34.55 140.65 34.58 140.66 34.59 140.66 34.6 140.66 34.61 140.66 34.62 140.66 34.63 140.66 34.64 140.66 34.65 140.66 34.66 140.67 34.67 140.67 34.68 140.67 34.7 140.67 34.72 140.68 34.73 140.68 34.74 140.68 34.75 140.68 34.76 140.68 34.77 140.69 34.78 140.69 34.79 140.69 34.8 140.69 34.81 140.69 34.82 140.69 34.83 140.7 34.84 140.7 34.85 140.7 34.86 140.7 34.87 140.7 34.88 140.69 34.89 140.69 34.9 140.69 34.9 140.68 34.91 140.68 34.92 140.68 34.92 140.67 34.93 140.67 34.94 140.66 34.95 140.65 34.96 140.65 34.97 140.64 34.98 140.64 34.99 140.64 35 140.64 35.01 140.64 35.02 140.63 35.03 140.63 35.05 140.63 35.07 140.63 35.08 140.63 35.08 140.62 35.09 140.62 35.11 140.62 35.12 140.62 35.13 140.62 35.13 140.61 35.14 140.61 35.15 140.61 35.16 140.61 35.17 140.61 35.17 140.6 35.18 140.6 35.19 140.6 35.19 140.59 35.2 140.59 35.2 140.58 35.21 140.58 35.22 140.58"/>
<path d="M 34.99 140.96 34.99 140.95 34.99 140.96"/>
<path d="M 33.4 140.29 33.41 140.29 33.43 140.29 33.44 140.29 33.45 140.29 33.46 140.29 33.47 140.29 33.48 140.29 33.48 140.3 33.49 140.3 33.51 140.3 33.52 140.31 33.53 140.31 33.54 140.31 33.54 140.32 33.55 140.32 33.55 140.33 33.56 140.33 33.59 140.33 33.6 140.33 33.61 140.33 33.62 140.33 33.63 140.33 33.64 140.33 33.63 140.34 33.64 140.35 33.63 140.35 33.63 140.36 33.61 140.36 33.6 140.36 33.58 140.36 33.56 140.36 33.55 140.36 33.52 140.36 33.51 140.36 33.5 140.36 33.48 140.36 33.46 140.36 33.45 140.36 33.43 140.36 33.42 140.36 33.41 140.36 33.41 140.35 33.4 140.35 33.39 140.36 33.39 140.35 33.38 140.35 33.37 140.35 33.36 140.35 33.34 140.35 33.33 140.35 33.33 140.36 33.32 140.36 33.31 140.36 33.3 140.35 33.29 140.35 33.29 140.36 33.28 140.36 33.27 140.36 33.26 140.36 33.25 140.36 33.24 140.36 33.24 140.35 33.23 140.35 33.21 140.35 33.2 140.35 33.19 140.35 33.16 140.35 33.14 140.36 33.13 140.36 33.12 140.36 33.11 140.36 33.1 140.36 33.09 140.36 33.08 140.37 33.07 140.37 33.05 140.37 33.04 140.37 33.03 140.37 33.01 140.37 33 140.37 32.98 140.37 32.97 140.37 32.96 140.37 32.93 140.37 32.92 140.37 32.91 140.37 32.9 140.37 32.88 140.37 32.89 140.38 32.88 140.39 32.88 140.4 32.88 140.41 32.87 140.41 32.86 140.41 32.86 140.42 32.85 140.42 32.85 140.43 32.84 140.43 32.83 140.43 32.82 140.43 32.82 140.42 32.81 140.42 32.81 140.43 32.8 140.43 32.77 140.43 32.75 140.43 32.74 140.43 32.73 140.43 32.72 140.42 32.71 140.42 32.7 140.42 32.69 140.43 32.68 140.43 32.67 140.43 32.67 140.44 32.66 140.44 32.65 140.44 32.64 140.44 32.64 140.45 32.63 140.45 32.63 140.46 32.62 140.46 32.61 140.47 32.6 140.47 32.59 140.47 32.59 140.48 32.59 140.49 32.58 140.49 32.57 140.49 32.57 140.5 32.56 140.5 32.55 140.5 32.54 140.51 32.56 140.51 32.56 140.52 32.56 140.53 32.56 140.54 32.55 140.55 32.54 140.55 32.54 140.56 32.53 140.56 32.53 140.57 32.52 140.57 32.51 140.58 32.5 140.58 32.49 140.58 32.49 140.59 32.48 140.59 32.49 140.59 32.48 140.59 32.48 140.6 32.47 140.6 32.46 140.6 32.45 140.6 32.45 140.61 32.44 140.61 32.43 140.61 32.43 140.62 32.42 140.62 32.41 140.62 32.42 140.63 32.41 140.63 32.4 140.63 32.4 140.64 32.39 140.64 32.38 140.64 32.38 140.65 32.37 140.65 32.36 140.65 32.36 140.66 32.35 140.66 32.35 140.67 32.35 140.68 32.34 140.68 32.34 140.69 32.33 140.69 32.33 140.7 32.32 140.7 32.31 140.71 32.3 140.71 32.3 140.72 32.29 140.72 32.28 140.72 32.28 140.73 32.27 140.73 32.26 140.73 32.26 140.74 32.25 140.74 32.24 140.74 32.24 140.75 32.22 140.75 32.22 140.74 32.23 140.74 32.22 140.74 32.23 140.74 32.23 140.73 32.24 140.73 32.24 140.72 32.23 140.73 32.22 140.73 32.21 140.73 32.21 140.74 32.2 140.74 32.21 140.74 32.21 140.75 32.2 140.75 32.19 140.75 32.18 140.75 32.17 140.75 32.16 140.75 32.16 140.74 32.16 140.73 32.15 140.73 32.15 140.74 32.16 140.74 32.16 140.75 32.14 140.75 32.13 140.75 32.12 140.75 32.11 140.75 32.1 140.75 32.1 140.74 32.09 140.73 32.08 140.73 32.08 140.72 32.06 140.72 32.05 140.72 32.04 140.72 32.03 140.72 32.02 140.72 32.01 140.72 31.99 140.73 31.97 140.73 31.94 140.73 31.93 140.73 31.92 140.74 31.91 140.74 31.9 140.74 31.9 140.75 31.88 140.75 31.88 140.76 31.86 140.76 31.85 140.76 31.84 140.76 31.83 140.77 31.82 140.77 31.81 140.77 31.8 140.78 31.79 140.78 31.78 140.78 31.77 140.79 31.76 140.79 31.75 140.8 31.74 140.8 31.73 140.8 31.73 140.81 31.72 140.81 31.72 140.83 31.73 140.83 31.73 140.84 31.74 140.84 31.75 140.84 31.75 140.85 31.76 140.85 31.77 140.85 31.78 140.85 31.78 140.86 31.79 140.86 31.79 140.87 31.8 140.87 31.8 140.88 31.81 140.88 31.81 140.89 31.82 140.89 31.82 140.9 31.83 140.91 31.84 140.91 31.85 140.91 31.85 140.92 31.86 140.92 31.86 140.93 31.85 140.94 31.85 140.95 31.85 140.96 31.85 140.97 31.84 140.98 31.84 141 31.84 141.01 31.84 141.02 31.85 141.03 31.84 141.03 31.85 141.03 31.86 141.04 31.87 141.04 31.88 141.04 31.89 141.04"/>
<path d="M 31.89 141.04 31.9 141.04 31.91 141.04 31.92 141.04 31.93 141.04 31.94 141.03 31.95 141.03 31.96 141.03 31.98 141.03 32 141.03 32.01 141.04 32.02 141.04 32.03 141.04 32.05 141.04 32.06 141.04 32.08 141.05 32.11 141.05 32.12 141.05 32.12 141.06 32.13 141.06 32.14 141.06 32.14 141.07 32.15 141.07 32.16 141.07 32.16 141.08 32.17 141.08 32.18 141.08 32.18 141.09 32.19 141.09 32.2 141.09 32.21 141.09 32.23 141.09 32.24 141.09 32.26 141.09 32.26 141.08 32.27 141.08 32.27 141.07 32.28 141.06 32.29 141.05 32.28 141.04 32.28 141.03 32.28 141.02 32.28 141.01 32.28 141 32.28 140.99 32.29 140.99 32.29 140.98 32.3 140.98 32.3 140.97 32.31 140.97 32.32 140.97 32.33 140.97 32.33 140.96 32.34 140.96 32.35 140.96 32.35 140.95 32.36 140.95 32.36 140.94 32.37 140.94 32.38 140.93 32.39 140.93 32.4 140.93 32.41 140.93 32.42 140.93 32.42 140.92 32.44 140.92 32.46 140.92 32.46 140.91 32.48 140.91 32.49 140.91 32.5 140.91 32.51 140.91 32.51 140.9 32.52 140.9 32.53 140.9 32.55 140.9 32.55 140.89 32.56 140.89 32.57 140.89 32.57 140.88 32.59 140.88 32.59 140.87 32.6 140.87 32.61 140.87 32.62 140.87 32.63 140.87 32.64 140.87 32.66 140.87 32.67 140.86 32.68 140.86 32.69 140.86 32.71 140.86 32.72 140.86 32.72 140.85 32.73 140.85 32.74 140.85 32.75 140.85 32.76 140.85 32.77 140.85 32.78 140.85 32.79 140.85 32.79 140.84 32.8 140.84 32.8 140.85 32.81 140.85 32.82 140.85 32.82 140.86 32.84 140.86 32.85 140.86 32.87 140.86 32.88 140.87 32.89 140.87 32.9 140.87 32.91 140.87 32.92 140.87 32.93 140.87 32.94 140.87"/>
<path d="M 31.34 141.09 31.35 141.08 31.35 141.07 31.36 141.07 31.36 141.06 31.35 141.06 31.35 141.05 31.36 141.04 31.35 141.03 31.35 141.02 31.35 141 31.34 140.99 31.34 140.98 31.34 140.97 31.33 140.96 31.33 140.95 31.32 140.95 31.32 140.94 31.32 140.93 31.32 140.92 31.32 140.91 31.32 140.9 31.31 140.89 31.3 140.89 31.3 140.88 31.29 140.88 31.28 140.88 31.28 140.87 31.27 140.88 31.27 140.87 31.26 140.87 31.25 140.87 31.24 140.87 31.22 140.87 31.23 140.87 31.23 140.86 31.22 140.86 31.24 140.86 31.24 140.85 31.23 140.85 31.23 140.84 31.22 140.84 31.22 140.83 31.21 140.82 31.2 140.82 31.2 140.81 31.19 140.81 31.18 140.81 31.18 140.8 31.17 140.8 31.16 140.8 31.15 140.79 31.14 140.79 31.13 140.79 31.13 140.78 31.12 140.78 31.09 140.78 31.08 140.78 31.07 140.78 31.04 140.77 31.02 140.77 31.01 140.77 31 140.77 30.99 140.77 30.99 140.78 30.98 140.78 30.96 140.78 30.96 140.77 30.95 140.77 30.93 140.77 30.92 140.77 30.91 140.77 30.9 140.77 30.89 140.77 30.89 140.76 30.88 140.76 30.87 140.76 30.87 140.77 30.86 140.77 30.85 140.77 30.84 140.78 30.83 140.78 30.83 140.79 30.82 140.79 30.8 140.79 30.79 140.79 30.78 140.79 30.78 140.8 30.77 140.8 30.75 140.8 30.74 140.8 30.73 140.8 30.71 140.8 30.7 140.8 30.69 140.8 30.68 140.8 30.67 140.8 30.66 140.8 30.64 140.8 30.63 140.8 30.62 140.8 30.61 140.8 30.6 140.8 30.59 140.8 30.57 140.8 30.56 140.8 30.55 140.8 30.54 140.79 30.53 140.79 30.52 140.79 30.52 140.78 30.51 140.78 30.52 140.78 30.52 140.77 30.51 140.77 30.5 140.77 30.49 140.76 30.48 140.75 30.48 140.76 30.47 140.76 30.47 140.75 30.46 140.75 30.45 140.75 30.45 140.74 30.44 140.74 30.43 140.74 30.42 140.74 30.42 140.75 30.42 140.74 30.4 140.74 30.38 140.74 30.37 140.75 30.36 140.75 30.36 140.76 30.35 140.76 30.34 140.76 30.34 140.75 30.33 140.75 30.33 140.74 30.32 140.74 30.3 140.74 30.29 140.74 30.24 140.74 30.19 140.74 30.1 140.74 30.06 140.74 30.03 140.74 29.99 140.74 29.97 140.74 29.96 140.74 29.95 140.74 29.94 140.73 29.93 140.73 29.92 140.73 29.91 140.72 29.9 140.72 29.88 140.72 29.87 140.72 29.87 140.71 29.86 140.71 29.85 140.71 29.84 140.71 29.83 140.7 29.82 140.7 29.8 140.7 29.79 140.7 29.79 140.69 29.78 140.7 29.78 140.69 29.77 140.69 29.76 140.69 29.75 140.68 29.74 140.68 29.74 140.67 29.72 140.67 29.71 140.67 29.71 140.66 29.71 140.67 29.71 140.66 29.7 140.66 29.69 140.66 29.69 140.65 29.68 140.65 29.67 140.64 29.66 140.64 29.65 140.64 29.64 140.63 29.63 140.63 29.63 140.62 29.62 140.62 29.61 140.62 29.61 140.61 29.6 140.61 29.6 140.6 29.59 140.6 29.58 140.59 29.58 140.58 29.57 140.58 29.57 140.57 29.56 140.57 29.55 140.57 29.55 140.56 29.54 140.56 29.53 140.56 29.52 140.56 29.52 140.55 29.51 140.55 29.5 140.55 29.49 140.55 29.48 140.55 29.47 140.55 29.44 140.55 29.43 140.55 29.43 140.56 29.42 140.56 29.41 140.57 29.41 140.58 29.41 140.59 29.4 140.59 29.4 140.6 29.4 140.61 29.4 140.62 29.4 140.63 29.4 140.64 29.4 140.65 29.39 140.65 29.4 140.65 29.39 140.65 29.4 140.66 29.4 140.67 29.39 140.67 29.38 140.67 29.39 140.68 29.38 140.68 29.38 140.69 29.37 140.69 29.37 140.7 29.36 140.7 29.36 140.71 29.36 140.72 29.36 140.73 29.36 140.74 29.36 140.75 29.36 140.76 29.35 140.76 29.35 140.77 29.34 140.77 29.34 140.78 29.33 140.78 29.33 140.79 29.32 140.79 29.31 140.79 29.32 140.79 29.32 140.8 29.31 140.8 29.3 140.81 29.31 140.82 29.3 140.82 29.29 140.83 29.29 140.84 29.28 140.84 29.28 140.85 29.27 140.85 29.27 140.86 29.27 140.87 29.26 140.87 29.26 140.88 29.25 140.89 29.24 140.9 29.23 140.9 29.23 140.91 29.22 140.91 29.21 140.92 29.21 140.93 29.2 140.93 29.19 140.94 29.19 140.95 29.2 140.95 29.21 140.95 29.21 140.96 29.2 140.96 29.2 140.97 29.19 140.97 29.18 140.97 29.18 140.98 29.17 140.98 29.17 140.99 29.16 140.99 29.16 141 29.17 141 29.18 141 29.17 141 29.17 141.01 29.16 141.02 29.15 141.02 29.15 141.03 29.14 141.04 29.14 141.05 29.13 141.06 29.12 141.06 29.12 141.07 29.12 141.08 29.11 141.08 29.11 141.09 29.12 141.09 29.11 141.09 29.11 141.1 29.11 141.11 29.11 141.12 29.12 141.12"/>
<path d="M 35.95 141.13 35.94 141.13 35.93 141.13 35.92 141.13 35.91 141.14 35.91 141.13 35.9 141.13 35.89 141.13 35.88 141.13 35.88 141.12 35.87 141.12 35.87 141.11 35.86 141.11 35.87 141.1 35.85 141.1 35.84 141.1 35.83 141.09 35.82 141.09 35.81 141.09 35.8 141.09 35.79 141.09 35.77 141.1 35.75 141.1 35.74 141.1 35.73 141.1 35.72 141.1 35.71 141.11 35.7 141.11 35.66 141.11 35.65 141.11 35.65 141.12 35.64 141.12 35.62 141.12 35.61 141.12 35.6 141.11 35.57 141.11 35.56 141.11 35.55 141.11 35.54 141.1 35.53 141.1 35.52 141.1 35.51 141.09 35.5 141.09 35.49 141.09 35.48 141.09 35.48 141.08 35.47 141.08 35.46 141.08 35.46 141.07 35.45 141.07 35.44 141.07 35.43 141.07 35.42 141.06 35.41 141.06 35.4 141.06 35.4 141.05 35.39 141.05 35.37 141.05 35.37 141.04 35.36 141.04 35.35 141.03 35.35 141.02 35.35 141.01 35.34 141.01 35.33 141.01 35.33 141 35.32 140.99 35.32 140.98 35.31 140.98 35.31 140.97 35.3 140.97 35.28 140.97 35.25 140.96 35.24 140.96 35.22 140.96 35.21 140.96 35.2 140.96 35.19 140.96 35.18 140.95 35.17 140.95 35.16 140.95 35.15 140.95 35.14 140.94 35.13 140.94 35.12 140.94 35.08 140.94 35.07 140.94 35.05 140.94 35.04 140.94 35.03 140.94 35.01 140.95 35 140.95 34.99 140.95 34.98 140.95 34.97 140.96 34.96 140.96 34.95 140.96 34.95 140.97 34.94 140.97 34.92 140.97 34.91 140.98 34.89 140.98 34.88 140.97 34.87 140.97 34.86 140.97 34.84 140.97 34.83 140.96 34.82 140.96 34.81 140.96 34.8 140.96 34.79 140.96 34.78 140.95 34.77 140.95 34.76 140.95 34.74 140.95 34.74 140.94 34.73 140.94 34.72 140.94 34.71 140.94 34.7 140.93 34.69 140.93 34.68 140.93 34.68 140.92 34.67 140.92 34.66 140.92 34.66 140.91 34.65 140.91 34.64 140.91 34.63 140.91 34.63 140.9 34.61 140.9 34.61 140.89 34.6 140.89 34.59 140.89 34.59 140.88 34.58 140.88 34.57 140.88 34.57 140.87 34.56 140.87 34.55 140.86 34.54 140.86 34.53 140.85 34.52 140.85 34.51 140.85 34.51 140.84 34.5 140.84 34.49 140.84 34.49 140.83 34.48 140.83 34.47 140.83 34.46 140.83 34.46 140.82 34.45 140.82 34.44 140.82 34.43 140.81 34.42 140.81 34.41 140.81 34.4 140.81 34.39 140.8 34.38 140.8 34.37 140.8 34.36 140.8 34.34 140.79 34.33 140.79 34.32 140.79 34.31 140.79 34.3 140.79 34.3 140.78 34.28 140.78 34.26 140.78 34.24 140.77 34.21 140.77 34.19 140.77 34.18 140.78 34.17 140.78 34.17 140.79 34.16 140.8 34.16 140.81 34.16 140.82 34.16 140.83 34.16 140.84 34.16 140.85 34.16 140.86 34.15 140.86 34.15 140.87 34.14 140.87 34.14 140.88 34.14 140.89 34.13 140.89 34.13 140.9 34.12 140.9 34.12 140.91 34.11 140.92 34.1 140.92 34.1 140.93 34.09 140.94 34.08 140.94 34.08 140.95 34.07 140.95 34.06 140.95 34.06 140.96 34.05 140.96 34.04 140.97 34.04 140.98 34.03 140.98 34.03 140.97 34.03 140.98 34.02 140.98 34.01 140.98 34.01 140.99 34 140.99 33.98 140.99 33.97 140.99 33.96 141 33.95 141 33.94 141 33.93 141 33.92 141.01 33.9 141.01 33.89 141.01 33.88 141.01 33.87 141.02 33.83 141.02 33.81 141.01 33.78 141.01 33.77 141.01 33.74 141.01 33.72 141.01 33.71 141.01 33.68 141 33.63 141 33.62 141 33.6 141 33.58 141 33.56 141 33.55 141 33.54 141 33.53 141 33.52 141 33.51 141.01 33.5 141.01 33.49 141.01 33.48 141.02 33.47 141.02 33.46 141.02 33.45 141.02 33.44 141.03 33.43 141.03 33.42 141.04 33.41 141.04 33.4 141.04 33.4 141.05 33.39 141.05 33.38 141.05 33.37 141.05 33.36 141.06 33.33 141.06 33.31 141.06 33.3 141.06 33.29 141.07 33.28 141.07 33.27 141.07 33.26 141.07 33.25 141.07 33.21 141.07 33.2 141.07 33.19 141.07 33.17 141.07 33.16 141.07 33.15 141.07 33.14 141.07 33.13 141.07 33.12 141.07 33.11 141.08 33.1 141.08 33.09 141.08 33.08 141.08 33.07 141.09 33.06 141.09 33.03 141.09 33.02 141.09 33.01 141.09 33 141.09 32.99 141.09 32.98 141.09 32.96 141.09 32.96 141.08 32.94 141.08 32.92 141.08 32.91 141.08 32.9 141.08 32.9 141.07 32.89 141.07 32.88 141.07 32.87 141.07 32.88 141.07 32.86 141.07 32.86 141.06 32.85 141.06 32.84 141.06 32.84 141.05 32.83 141.05 32.82 141.05 32.8 141.05 32.79 141.05 32.78 141.05 32.78 141.06 32.77 141.06 32.76 141.06 32.75 141.06 32.74 141.06 32.74 141.07 32.73 141.07 32.71 141.07 32.71 141.08 32.7 141.08 32.69 141.08 32.67 141.08 32.67 141.09 32.66 141.09 32.65 141.1 32.64 141.1 32.64 141.11 32.63 141.11 32.62 141.11 32.62 141.12 32.61 141.12 32.6 141.13 32.59 141.13 32.59 141.14 32.59 141.15 32.59 141.16 32.59 141.17 32.58 141.18 32.58 141.19 32.57 141.19 32.57 141.2 32.56 141.2 32.55 141.2"/>
<path d="M 31.93 142.21 31.93 142.2 31.94 142.2 31.95 142.2 31.96 142.2 31.96 142.19 31.97 142.19 31.98 142.19 31.99 142.18 32 142.18 32 142.17 32.01 142.17 32.02 142.17 32.03 142.17 32.04 142.17 32.05 142.17 32.06 142.17 32.08 142.17 32.1 142.17 32.12 142.17 32.13 142.16 32.14 142.16 32.15 142.16 32.16 142.16 32.17 142.16 32.17 142.15 32.18 142.15 32.19 142.15 32.2 142.15 32.21 142.14 32.22 142.14 32.24 142.14 32.25 142.14 32.25 142.13 32.26 142.13 32.27 142.13 32.27 142.12 32.28 142.12 32.29 142.12 32.3 142.12 32.3 142.11 32.31 142.11 32.32 142.11 32.32 142.1 32.33 142.1 32.34 142.1 32.34 142.09 32.36 142.09 32.37 142.09 32.4 142.09 32.41 142.09 32.43 142.09 32.43 142.08 32.43 142.07 32.44 142.05 32.44 142.04 32.45 142.04 32.46 142.04 32.46 142.03 32.47 142.03 32.47 142.02 32.48 142.02 32.49 142.02 32.49 142.01 32.5 142.01 32.5 142 32.5 141.99 32.5 141.98 32.51 141.97 32.52 141.96 32.53 141.96 32.53 141.95 32.55 141.95 32.56 141.95 32.56 141.94 32.57 141.94 32.57 141.93 32.58 141.93 32.57 141.93 32.57 141.92 32.56 141.92 32.56 141.91 32.55 141.91 32.55 141.9 32.54 141.89 32.53 141.89 32.53 141.88 32.52 141.88 32.52 141.87 32.52 141.86 32.52 141.85 32.51 141.85 32.51 141.83 32.52 141.82 32.52 141.8 32.52 141.79 32.53 141.78 32.52 141.77 32.51 141.77 32.51 141.76 32.5 141.75 32.49 141.75 32.49 141.74 32.48 141.74 32.47 141.73 32.46 141.73 32.46 141.72 32.45 141.72 32.45 141.71 32.44 141.71 32.43 141.71 32.43 141.69 32.42 141.7 32.42 141.69 32.42 141.68 32.42 141.67 32.41 141.67 32.41 141.66 32.42 141.66 32.42 141.65 32.43 141.65 32.43 141.64 32.43 141.63 32.42 141.62 32.41 141.62 32.4 141.62 32.4 141.61 32.39 141.61 32.39 141.6 32.38 141.6 32.38 141.59 32.37 141.59 32.37 141.58 32.36 141.58 32.36 141.57 32.35 141.56 32.36 141.55 32.37 141.55 32.37 141.54 32.37 141.53 32.37 141.52 32.37 141.51 32.38 141.51 32.38 141.5 32.38 141.49 32.38 141.48 32.4 141.48 32.4 141.47 32.39 141.47 32.4 141.47 32.39 141.46 32.38 141.46 32.37 141.45 32.37 141.44 32.36 141.44 32.36 141.43 32.36 141.42 32.35 141.41 32.35 141.4 32.34 141.4 32.34 141.39 32.33 141.39 32.32 141.39 32.32 141.38 32.31 141.38 32.3 141.38 32.29 141.38 32.28 141.38 32.27 141.38 32.27 141.37 32.26 141.37 32.25 141.37 32.24 141.36 32.23 141.36 32.22 141.36 32.21 141.36 32.21 141.35 32.2 141.35 32.19 141.35 32.19 141.34 32.18 141.34 32.18 141.33 32.17 141.33 32.17 141.32 32.16 141.31 32.16 141.3 32.15 141.29 32.14 141.29 32.14 141.28 32.13 141.28 32.12 141.28 32.11 141.27 32.1 141.27 32.09 141.27 32.08 141.27 32.07 141.26 32.06 141.26 32.05 141.26 32.04 141.26 32.03 141.26 32.02 141.26 32.01 141.25 32 141.25 31.99 141.25 31.99 141.24 31.98 141.24 31.97 141.23 31.96 141.23 31.95 141.23 31.94 141.23 31.93 141.23 31.91 141.23 31.9 141.23 31.9 141.24 31.89 141.24 31.88 141.24 31.88 141.25 31.87 141.25 31.86 141.26 31.86 141.27 31.85 141.27 31.85 141.29 31.85 141.3 31.85 141.31 31.86 141.31 31.85 141.31 31.85 141.32 31.84 141.32 31.84 141.33 31.84 141.34 31.83 141.34 31.82 141.34 31.81 141.34 31.79 141.34 31.78 141.33 31.77 141.33 31.75 141.33 31.73 141.33 31.72 141.33 31.71 141.33 31.7 141.34 31.7 141.33 31.69 141.33 31.69 141.32 31.68 141.32 31.67 141.32 31.67 141.31 31.66 141.31 31.66 141.3 31.65 141.3 31.65 141.29 31.64 141.29 31.64 141.28 31.63 141.28 31.62 141.28 31.62 141.27 31.61 141.27 31.6 141.26 31.59 141.26 31.58 141.26 31.56 141.26 31.53 141.26 31.51 141.26 31.49 141.25 31.48 141.25 31.47 141.25 31.47 141.24 31.46 141.24 31.45 141.23 31.43 141.23 31.42 141.23 31.41 141.23 31.38 141.23 31.37 141.23 31.36 141.23 31.36 141.22 31.35 141.22 31.35 141.21 31.35 141.2 31.36 141.2 31.36 141.19 31.35 141.18 31.34 141.17 31.33 141.17 31.33 141.16 31.32 141.16 31.32 141.15 31.31 141.15 31.31 141.14 31.31 141.13 31.3 141.12 31.31 141.12 31.32 141.12 31.32 141.11 31.33 141.11 31.33 141.1 31.34 141.1 31.34 141.09"/>
<path d="M 32.55 141.2 32.55 141.21 32.54 141.21 32.53 141.22 32.51 141.22 32.51 141.23 32.5 141.23 32.5 141.24 32.5 141.25 32.51 141.25 32.52 141.25 32.53 141.26 32.54 141.26 32.55 141.26 32.55 141.27 32.56 141.27 32.57 141.27 32.58 141.27 32.58 141.28 32.59 141.28 32.6 141.29 32.61 141.29 32.61 141.3 32.61 141.31 32.61 141.32 32.61 141.33 32.61 141.34 32.6 141.34 32.6 141.35 32.59 141.36 32.59 141.37 32.59 141.38 32.6 141.38 32.6 141.39 32.61 141.39 32.62 141.39 32.62 141.4 32.63 141.4 32.63 141.41 32.64 141.41 32.65 141.42 32.66 141.43 32.66 141.44 32.67 141.44 32.67 141.45 32.67 141.46 32.66 141.47 32.66 141.48 32.66 141.49 32.65 141.49 32.64 141.49 32.64 141.5 32.63 141.5 32.62 141.51 32.61 141.51 32.61 141.52 32.6 141.52 32.59 141.52 32.59 141.53 32.58 141.53 32.57 141.53 32.57 141.54 32.57 141.55 32.57 141.56 32.58 141.56 32.58 141.57 32.59 141.57 32.59 141.58 32.6 141.58 32.61 141.59 32.61 141.6 32.62 141.61 32.62 141.62 32.63 141.64 32.62 141.65 32.61 141.65 32.6 141.66 32.61 141.66 32.62 141.67 32.63 141.67 32.63 141.68 32.64 141.68 32.65 141.68 32.65 141.69 32.66 141.69 32.66 141.7 32.67 141.7 32.68 141.7 32.67 141.7 32.67 141.71 32.68 141.71 32.69 141.71 32.69 141.72 32.7 141.72 32.71 141.72 32.71 141.73 32.72 141.73 32.73 141.73 32.73 141.74 32.74 141.75 32.75 141.76 32.75 141.77 32.75 141.78 32.74 141.79 32.73 141.79 32.73 141.8 32.72 141.8 32.73 141.81 32.74 141.81 32.74 141.82 32.75 141.82 32.76 141.83 32.77 141.84 32.78 141.84 32.78 141.85 32.8 141.85 32.8 141.86 32.81 141.86 32.81 141.87 32.82 141.87 32.83 141.88 32.84 141.88 32.84 141.89 32.85 141.9 32.85 141.91 32.86 141.91 32.86 141.92 32.85 141.92 32.85 141.94 32.85 141.96 32.85 141.98 32.86 141.98 32.86 141.99 32.86 142 32.87 141.99 32.87 142 32.88 142 32.88 142.01 32.89 142.01 32.88 142.01 32.89 142.01 32.89 142.02 32.9 142.02 32.9 142.03 32.9 142.04 32.91 142.05 32.92 142.06 32.93 142.07 32.94 142.08 32.94 142.09 32.94 142.1 32.95 142.11 32.94 142.12 32.95 142.12 32.96 142.12 32.97 142.13 32.98 142.13 32.99 142.13 33 142.13 33.01 142.14 33.02 142.14 33.02 142.15 33.03 142.15 33.04 142.15 33.05 142.15 33.06 142.15 33.07 142.15 33.08 142.15 33.09 142.16 33.1 142.16 33.11 142.16 33.12 142.16 33.12 142.17 33.13 142.17 33.13 142.18 33.14 142.18 33.15 142.18 33.15 142.19 33.16 142.19 33.16 142.2 33.17 142.2 33.18 142.21 33.18 142.22 33.19 142.22 33.2 142.22 33.2 142.23 33.21 142.23 33.21 142.24 33.22 142.24 33.22 142.25 33.23 142.25 33.24 142.26 33.25 142.26 33.26 142.26 33.27 142.27 33.29 142.27 33.3 142.27 33.31 142.27 33.34 142.27 33.36 142.26 33.36 142.27 33.37 142.27 33.38 142.27 33.39 142.27 33.4 142.27 33.4 142.28 33.42 142.28 33.43 142.28 33.44 142.28 33.46 142.29 33.47 142.29 33.48 142.29 33.49 142.29 33.5 142.29 33.51 142.29 33.51 142.28 33.52 142.28 33.53 142.28 33.54 142.28 33.56 142.28 33.56 142.29 33.58 142.29 33.59 142.29 33.6 142.29 33.61 142.3 33.62 142.3 33.63 142.3 33.64 142.3 33.65 142.3 33.67 142.3 33.68 142.31 33.69 142.31 33.7 142.31 33.71 142.31 33.71 142.32 33.72 142.32 33.73 142.32 33.73 142.33 33.74 142.33 33.75 142.33 33.75 142.34 33.76 142.35 33.77 142.35 33.77 142.36 33.78 142.36 33.78 142.37 33.78 142.38 33.79 142.38 33.79 142.39 33.8 142.39 33.8 142.4 33.81 142.4 33.8 142.41 33.8 142.42 33.81 142.42 33.81 142.43 33.81 142.44 33.81 142.45 33.81 142.46 33.81 142.47 33.82 142.47 33.82 142.48 33.82 142.49 33.83 142.5 33.83 142.51 33.83 142.52 33.82 142.52 33.83 142.52 33.83 142.53 33.82 142.53 33.82 142.54 33.82 142.55 33.82 142.56 33.81 142.56"/>
<path d="M 33.8 142.66 33.79 142.66 33.8 142.66"/>
<path d="M 33.47 142.65 33.47 142.64 33.48 142.63 33.48 142.62 33.49 142.62 33.5 142.62 33.5 142.61 33.51 142.61 33.51 142.6 33.52 142.59 33.53 142.59 33.52 142.58 33.51 142.57 33.51 142.56 33.5 142.55 33.5 142.54 33.49 142.54 33.48 142.54 33.48 142.53 33.48 142.52 33.47 142.51 33.47 142.5 33.47 142.49 33.47 142.47 33.48 142.46 33.48 142.45 33.48 142.44 33.49 142.43 33.49 142.42 33.49 142.41 33.5 142.41 33.5 142.4 33.49 142.4 33.48 142.4 33.47 142.4 33.46 142.39 33.45 142.38 33.44 142.38 33.43 142.38 33.42 142.37 33.41 142.37 33.4 142.37 33.39 142.37 33.38 142.36 33.37 142.36 33.36 142.36 33.36 142.35 33.35 142.35 33.34 142.35 33.33 142.35 33.32 142.34 33.3 142.34 33.29 142.34 33.27 142.34 33.26 142.33 33.25 142.33 33.24 142.33 33.23 142.32 33.22 142.32 33.21 142.32 33.2 142.32 33.19 142.31 33.18 142.31 33.17 142.31 33.16 142.3 33.14 142.3 33.13 142.3 33.12 142.3 33.11 142.3 33.1 142.3 33.1 142.29 33.09 142.29 33.09 142.28 33.08 142.28 33.07 142.28 33.06 142.28 33.06 142.27 33.05 142.27 33.04 142.27 33.04 142.26 33.03 142.26 33.02 142.26 33.02 142.25 33.01 142.25 33.01 142.24 33 142.24 32.99 142.24 32.99 142.23 32.98 142.23 32.97 142.22 32.96 142.22 32.96 142.21 32.95 142.21 32.94 142.2 32.93 142.2 32.93 142.19 32.92 142.19 32.91 142.19 32.91 142.18 32.9 142.18 32.89 142.18 32.89 142.17 32.88 142.17 32.87 142.17 32.86 142.17 32.85 142.16 32.84 142.16 32.83 142.16 32.83 142.15 32.83 142.14 32.82 142.14 32.81 142.13 32.81 142.12 32.8 142.12 32.8 142.11 32.79 142.11 32.79 142.1 32.78 142.09 32.78 142.08 32.77 142.08 32.77 142.07 32.76 142.07 32.77 142.07 32.76 142.07 32.76 142.06 32.75 142.06 32.74 142.06 32.73 142.06 32.73 142.05 32.72 142.05 32.71 142.05 32.71 142.04 32.7 142.04 32.69 142.04 32.68 142.04 32.68 142.03 32.66 142.03 32.65 142.04 32.64 142.04 32.63 142.04 32.63 142.05 32.62 142.05 32.61 142.06 32.6 142.07 32.59 142.08 32.58 142.08 32.58 142.09 32.57 142.09 32.56 142.1 32.55 142.11 32.54 142.12 32.53 142.12 32.53 142.13 32.52 142.13 32.51 142.13 32.51 142.14 32.5 142.14 32.48 142.14 32.47 142.15 32.46 142.15 32.44 142.15 32.43 142.15 32.42 142.15 32.41 142.16 32.39 142.16 32.38 142.16 32.37 142.16 32.36 142.17 32.35 142.17 32.34 142.17 32.33 142.18 32.32 142.19 32.31 142.19 32.31 142.2 32.3 142.2 32.29 142.21 32.28 142.21 32.27 142.22 32.26 142.22 32.25 142.22 32.15 142.22 32.11 142.22 32.1 142.23 32.09 142.23 32.08 142.23 32.07 142.23 32.07 142.24 32.06 142.24 32.05 142.24 32.04 142.24 32.03 142.25 32.02 142.25 32.02 142.26 32.01 142.26 32 142.26 31.99 142.26 31.99 142.27 31.98 142.27 31.97 142.28 31.96 142.28 31.96 142.29 31.95 142.29 31.94 142.3 31.93 142.3 31.92 142.31 31.91 142.31 31.89 142.31 31.88 142.31 31.88 142.32 31.87 142.32 31.86 142.33 31.86 142.34 31.85 142.35 31.84 142.36 31.85 142.36 31.84 142.37 31.83 142.37 31.81 142.37 31.8 142.37 31.79 142.37 31.78 142.37 31.78 142.38 31.77 142.38 31.76 142.38 31.73 142.38 31.73 142.39 31.72 142.39 31.71 142.39 31.7 142.4 31.69 142.4 31.68 142.4 31.62 142.41 31.59 142.4 31.59 142.41 31.58 142.41 31.57 142.41 31.56 142.41 31.55 142.42 31.53 142.42 31.51 142.42 31.51 142.43 31.5 142.44 31.47 142.44 31.45 142.44 31.44 142.44 31.44 142.45 31.43 142.45 31.42 142.46 31.41 142.46 31.41 142.47 31.4 142.47 31.39 142.47 31.38 142.47 31.38 142.48 31.37 142.49 31.37 142.5 31.36 142.5 31.35 142.5 31.36 142.5 31.35 142.49 31.35 142.5 31.34 142.5 31.33 142.5 31.33 142.51 31.32 142.51 31.31 142.51 31.31 142.52 31.31 142.53 31.32 142.53 31.33 142.53 31.33 142.54 31.34 142.54 31.34 142.55 31.34 142.56 31.33 142.58 31.32 142.58 31.32 142.59 31.31 142.59 31.31 142.6 31.31 142.61 31.31 142.62 31.31 142.63 31.31 142.64 31.32 142.64 31.32 142.65 31.33 142.66 31.33 142.67 31.33 142.68 31.32 142.68 31.32 142.69 31.31 142.7 31.3 142.71"/>
<path d="M 31.06 142.86 31.05 142.86 31.06 142.86"/>
<path d="M 31.3 142.71 31.29 142.72 31.28 142.73 31.28 142.74 31.27 142.74 31.27 142.75 31.26 142.75 31.25 142.75 31.24 142.75 31.24 142.76 31.24 142.77 31.23 142.77 31.23 142.78 31.22 142.78 31.22 142.79 31.21 142.79 31.2 142.8 31.2 142.81 31.19 142.81 31.18 142.81 31.18 142.82 31.17 142.82 31.16 142.82 31.16 142.83 31.15 142.83 31.14 142.83 31.13 142.83 31.12 142.84 31.11 142.84 31.1 142.84 31.09 142.85 31.09 142.86 31.07 142.86 31.06 142.86 31.06 142.85 31.05 142.85 31.05 142.84 31.05 142.83 31.06 142.83 31.07 142.83 31.06 142.82 31.07 142.82 31.08 142.82 31.08 142.81 31.09 142.81 31.1 142.8 31.11 142.8 31.12 142.8 31.12 142.79 31.13 142.79 31.14 142.78 31.15 142.77 31.16 142.76 31.16 142.75 31.16 142.74 31.17 142.74 31.17 142.73 31.18 142.73 31.19 142.72 31.19 142.71 31.2 142.71 31.21 142.7 31.22 142.7 31.22 142.69 31.21 142.69 31.22 142.68 31.23 142.68 31.23 142.67 31.24 142.66 31.25 142.66 31.26 142.65 31.25 142.64 31.26 142.64 31.26 142.63 31.27 142.63 31.27 142.62 31.27 142.61 31.27 142.6 31.26 142.6 31.27 142.59 31.28 142.59 31.28 142.58 31.28 142.57 31.28 142.56 31.27 142.56 31.26 142.56 31.26 142.55 31.26 142.54 31.26 142.53 31.26 142.52 31.27 142.52 31.27 142.51 31.26 142.51 31.27 142.5 31.28 142.5 31.28 142.49 31.28 142.48 31.29 142.47 31.28 142.47 31.28 142.46 31.29 142.46 31.3 142.46 31.3 142.45 31.31 142.45 31.32 142.45 31.32 142.44 31.33 142.44 31.34 142.44 31.36 142.44 31.37 142.44 31.37 142.43 31.38 142.43 31.38 142.42 31.39 142.42 31.41 142.42 31.41 142.41 31.42 142.41 31.44 142.41 31.45 142.41 31.46 142.41 31.47 142.4 31.48 142.4 31.49 142.4 31.5 142.4 31.51 142.4 31.52 142.39 31.53 142.39 31.54 142.39 31.55 142.39 31.56 142.39 31.57 142.38 31.58 142.38 31.62 142.38 31.63 142.38 31.64 142.38 31.63 142.37 31.66 142.37 31.67 142.37 31.68 142.37 31.69 142.37 31.7 142.37 31.71 142.37 31.72 142.37 31.73 142.36 31.74 142.36 31.74 142.35 31.75 142.35 31.76 142.35 31.77 142.35 31.77 142.34 31.78 142.34 31.78 142.33 31.78 142.32 31.77 142.32 31.77 142.31 31.77 142.3 31.77 142.29 31.77 142.28 31.77 142.27 31.77 142.26 31.77 142.25 31.79 142.25 31.8 142.25 31.81 142.25 31.82 142.24 31.83 142.24 31.83 142.23 31.84 142.23 31.85 142.23 31.86 142.23 31.86 142.22 31.88 142.22 31.89 142.22 31.9 142.22 31.91 142.22 31.91 142.21 31.92 142.21 31.93 142.21"/>
<path d="M 31.05 142.87 31.05 142.86 31.05 142.87"/>
<path d="M 31.04 142.88 31.04 142.87 31.05 142.87 31.04 142.87 31.04 142.88"/>
<path d="M 33.81 142.56 33.81 142.57 33.8 142.57 33.8 142.58 33.79 142.58 33.78 142.58 33.77 142.58 33.77 142.59 33.76 142.6 33.76 142.61 33.77 142.61 33.77 142.62 33.77 142.63 33.77 142.64 33.76 142.65 33.75 142.65 33.74 142.65 33.74 142.66 33.73 142.66 33.74 142.66 33.75 142.67 33.76 142.67 33.77 142.67 33.79 142.67 33.78 142.67 33.75 142.67 33.74 142.67 33.73 142.67 33.72 142.67 33.71 142.67 33.71 142.68 33.7 142.68 33.69 142.68 33.69 142.67 33.68 142.67 33.67 142.68 33.65 142.68 33.63 142.68 33.64 142.7 33.63 142.7 33.63 142.71 33.62 142.71 33.61 142.71 33.61 142.72 33.6 142.72 33.59 142.73 33.59 142.74 33.58 142.74 33.58 142.75 33.57 142.75 33.56 142.76 33.55 142.76 33.54 142.77 33.53 142.77 33.52 142.77 33.52 142.78 33.51 142.78 33.51 142.81 33.5 142.81 33.5 142.82 33.5 142.83 33.5 142.84 33.49 142.85 33.48 142.86 33.48 142.87 33.47 142.87 33.46 142.88 33.45 142.88 33.44 142.88 33.44 142.89 33.43 142.89 33.43 142.88 33.43 142.89 33.42 142.89 33.41 142.89 33.42 142.89 33.42 142.91 33.42 142.92 33.41 142.92 33.41 142.93 33.4 142.93 33.4 142.94 33.4 142.95 33.4 142.96 33.39 142.96 33.39 142.97 33.38 142.97 33.36 142.97 33.36 142.98 33.35 142.98 33.32 142.98 33.31 142.98 33.29 142.98 33.29 142.99 33.28 142.99 33.28 143 33.26 143 33.27 143 33.27 143.01 33.26 143.01 33.25 143.01 33.24 143.01 33.22 143.01 33.21 143 33.2 143 33.19 143 33.18 143 33.19 143 33.2 143 33.21 143 33.21 142.99 33.22 142.99 33.23 142.99 33.23 142.98 33.22 142.98 33.22 142.97 33.23 142.96 33.24 142.95 33.25 142.95 33.26 142.95 33.26 142.94 33.26 142.93 33.27 142.93 33.27 142.92 33.28 142.92 33.28 142.91 33.29 142.91 33.29 142.9 33.3 142.9 33.3 142.89 33.31 142.88 33.32 142.87 33.33 142.87 33.33 142.86 33.34 142.85 33.34 142.84 33.35 142.84 33.36 142.83 33.37 142.83 33.37 142.82 33.37 142.81 33.37 142.8 33.36 142.8 33.36 142.79 33.37 142.78 33.38 142.78 33.38 142.77 33.38 142.76 33.39 142.76 33.39 142.75 33.4 142.74 33.41 142.74 33.41 142.73 33.42 142.73 33.42 142.72 33.43 142.72 33.43 142.71 33.44 142.7 33.44 142.69 33.45 142.68 33.46 142.68 33.46 142.67 33.46 142.66 33.47 142.66 33.46 142.66 33.46 142.65 33.47 142.65"/>
</g>
</svg>