<?xml version="1.0"?>
<svg xmlns="http://www.w3.org/2000/svg" version="1.2" baseProfile="tiny" width="800" height="223" viewBox="0 0 800 223" stroke-linecap="round" stroke-linejoin="round">
<g id="cd22" fill="none" stroke="black" stroke-width="0.05">
<path d="M 29.76 135.1 29.75 135.1 29.76 135.1"/>
<path d="M 28.61 135.3 28.61 135.29 28.62 135.29 28.62 135.28 28.62 135.27 28.62 135.26 28.62 135.25 28.63 135.25 28.63 135.24 28.64 135.24 28.64 135.23 28.63 135.23 28.64 135.22 28.64 135.21 28.64 135.19 28.65 135.18 28.65 135.17 28.64 135.17 28.65 135.17 28.66 135.17 28.65 135.16 28.66 135.16 28.67 135.15 28.68 135.14 28.69 135.14 28.7 135.14 28.7 135.13 28.71 135.12 28.72 135.11 28.73 135.11 28.73 135.1 28.74 135.1 28.75 135.1 28.75 135.09 28.76 135.09 28.76 135.08 28.77 135.08 28.78 135.08 28.78 135.07 28.79 135.07 28.8 135.07 28.8 135.06 28.81 135.06 28.81 135.05 28.82 135.05 28.83 135.05 28.83 135.04 28.84 135.04 28.85 135.04 28.86 135.04 28.87 135.03 28.88 135.03 28.9 135.03 28.9 135.02 28.91 135.02 28.92 135.02 28.93 135.01 28.94 135.01 28.95 135.01 28.97 135.01 28.98 135.01 28.99 135.01 29 135.01 29.01 135 29.02 135 29.03 135 29.05 134.99 29.06 134.99 29.09 134.99 29.11 134.99 29.14 134.99 29.15 134.99 29.16 134.99 29.17 134.99 29.18 134.99 29.19 134.99 29.22 134.99 29.23 134.99 29.23 134.98 29.25 134.98 29.27 134.98 29.28 134.97 29.29 134.97 29.31 134.97 29.32 134.96 29.34 134.96 29.35 134.96 29.36 134.96 29.37 134.96 29.38 134.96 29.38 134.95 29.4 134.95 29.4 134.96 29.41 134.95 29.41 134.96 29.42 134.96 29.43 134.96 29.45 134.97 29.46 134.97 29.47 134.97 29.48 134.97 29.49 134.97 29.5 134.97 29.53 134.98 29.55 134.98 29.56 134.98 29.58 134.98 29.59 134.98 29.6 134.98 29.61 134.98 29.62 134.99 29.63 134.99 29.64 134.99 29.65 134.99 29.66 134.99 29.67 134.99 29.68 134.99 29.69 134.99 29.7 134.98 29.71 134.99 29.72 134.99 29.73 134.99 29.74 134.99 29.75 134.99 29.76 134.99 29.78 134.98 29.79 134.98 29.8 134.98 29.81 134.97 29.82 134.97 29.83 134.97 29.84 134.97 29.84 134.96 29.85 134.96 29.86 134.96 29.87 134.96 29.87 134.95 29.88 134.95 29.88 134.94 29.89 134.94 29.89 134.93 29.9 134.93 29.9 134.92 29.91 134.91 29.92 134.91 29.92 134.9 29.93 134.9 29.93 134.89 29.94 134.88 29.95 134.87 29.96 134.87 29.97 134.87 29.99 134.86 30 134.86 30.03 134.86 30.04 134.86 30.05 134.86 30.07 134.86 30.08 134.86 30.09 134.86 30.11 134.86 30.13 134.86 30.14 134.86 30.13 134.86 30.12 134.86 30.11 134.87 30.09 134.87 30.08 134.87 30.07 134.86 30.06 134.86 30.04 134.87 30.03 134.87 30.02 134.88 30.01 134.88 29.99 134.88 29.99 134.89 29.98 134.89 29.99 134.89 29.99 134.9 29.99 134.91 29.99 134.92 29.99 134.93 29.99 134.94 30 134.95 29.99 134.95 30 134.95 30 134.96 30 134.97 30 134.98 30.01 134.98 30.02 134.99 30.02 135 30.03 135 30.03 135.01 30.02 135.01 30.02 135.02 30.03 135.02 30.04 135.03 30.05 135.03 30.07 135.03 30.08 135.03 30.09 135.03 30.1 135.03 30.14 135.04 30.15 135.04 30.17 135.04 30.2 135.04 30.21 135.04 30.22 135.04 30.23 135.04 30.25 135.04 30.28 135.04 30.3 135.04 30.32 135.04 30.35 135.04 30.36 135.04 30.37 135.04 30.38 135.04 30.41 135.04 30.42 135.04 30.43 135.04 30.44 135.04 30.44 135.05 30.45 135.05 30.46 135.05 30.48 135.06 30.49 135.06 30.5 135.06 30.5 135.07 30.51 135.07 30.51 135.08 30.53 135.08 30.54 135.08 30.54 135.09 30.55 135.09 30.56 135.09 30.57 135.09 30.58 135.1 30.59 135.1 30.6 135.1 30.6 135.11 30.61 135.11 30.62 135.11 30.63 135.11 30.66 135.12 30.67 135.12 30.68 135.12 30.7 135.12 30.7 135.11 30.71 135.11 30.73 135.11 30.74 135.11 30.75 135.11 30.76 135.11 30.76 135.1 30.77 135.1 30.78 135.1 30.79 135.1 30.8 135.1 30.8 135.09 30.81 135.09 30.82 135.09 30.83 135.08 30.84 135.08 30.84 135.09 30.84 135.08 30.86 135.08 30.87 135.08 30.89 135.08 30.9 135.07 30.9 135.08 30.91 135.08 30.92 135.08 30.93 135.07 30.94 135.07 30.97 135.07 31 135.07 31.02 135.07 31.03 135.08 31.04 135.08 31.04 135.09 31.06 135.09 31.06 135.1 31.07 135.1 31.07 135.11 31.08 135.11 31.08 135.12 31.08 135.13 31.08 135.14 31.09 135.14 31.08 135.14"/>
<path d="M 31.08 135.14 31.07 135.14 31.06 135.14 31.05 135.14 31.04 135.13 31.03 135.13 31.02 135.13 31 135.13 30.99 135.13 30.98 135.13 30.97 135.13 30.95 135.13 30.95 135.12 30.94 135.12 30.93 135.13 30.92 135.13 30.91 135.13 30.89 135.13 30.89 135.14 30.89 135.15 30.91 135.15 30.91 135.16 30.91 135.17 30.9 135.17 30.89 135.17 30.88 135.18 30.87 135.18 30.85 135.18 30.85 135.19 30.84 135.19 30.84 135.2 30.84 135.21 30.84 135.22 30.85 135.23 30.84 135.24 30.84 135.25 30.84 135.26 30.84 135.27 30.83 135.27 30.83 135.28 30.83 135.3 30.82 135.3 30.82 135.31 30.82 135.32 30.81 135.32 30.8 135.33 30.81 135.33 30.81 135.34 30.81 135.35 30.8 135.35 30.81 135.35 30.8 135.35 30.8 135.36 30.79 135.35 30.79 135.36 30.78 135.36 30.78 135.37 30.77 135.37 30.77 135.38 30.76 135.38 30.76 135.39 30.76 135.4 30.76 135.39 30.75 135.39 30.75 135.38 30.74 135.38 30.73 135.37 30.73 135.36 30.73 135.35 30.74 135.34 30.73 135.34 30.73 135.33 30.73 135.32 30.73 135.31 30.72 135.31 30.72 135.3 30.71 135.29 30.71 135.28 30.7 135.28 30.7 135.27 30.69 135.27 30.68 135.26 30.67 135.26 30.66 135.25 30.65 135.25 30.64 135.24 30.63 135.24 30.62 135.24 30.62 135.23 30.61 135.23 30.6 135.23 30.59 135.23 30.58 135.22 30.57 135.22 30.56 135.22 30.55 135.22 30.54 135.21 30.53 135.21 30.52 135.21 30.52 135.2 30.51 135.2 30.5 135.2 30.49 135.19 30.48 135.19 30.47 135.19 30.46 135.19 30.45 135.19 30.45 135.18 30.44 135.18 30.43 135.18 30.42 135.17 30.41 135.17 30.4 135.17 30.4 135.16 30.39 135.16 30.38 135.16 30.37 135.16 30.36 135.16 30.33 135.16 30.32 135.16 30.31 135.16 30.3 135.16 30.28 135.15 30.26 135.15 30.24 135.15 30.25 135.15 30.24 135.15 30.23 135.15 30.22 135.15 30.22 135.14 30.21 135.14 30.19 135.14 30.17 135.14 30.16 135.14 30.15 135.14 30.15 135.13 30.14 135.13 30.13 135.13 30.11 135.13 30.1 135.13 30.09 135.13 30.07 135.12 30.06 135.12 30.05 135.12 30.04 135.12 30.03 135.12 30.02 135.12 30.01 135.11 29.99 135.11 29.98 135.11 29.97 135.11 29.95 135.11 29.94 135.11 29.94 135.1 29.93 135.1 29.92 135.1 29.91 135.1 29.9 135.09 29.89 135.09 29.88 135.09 29.86 135.09 29.82 135.09 29.81 135.09 29.8 135.09 29.78 135.09 29.77 135.09 29.75 135.09 29.75 135.1 29.74 135.1 29.73 135.1 29.72 135.1 29.71 135.1 29.69 135.11 29.68 135.11 29.67 135.11 29.66 135.11 29.65 135.11 29.64 135.1 29.63 135.1 29.59 135.1 29.59 135.09 29.58 135.09 29.57 135.09 29.56 135.09 29.55 135.09 29.55 135.08 29.54 135.08 29.53 135.08 29.52 135.08 29.49 135.08 29.46 135.08 29.44 135.08 29.43 135.09 29.41 135.09 29.39 135.09 29.38 135.09 29.37 135.09 29.36 135.09 29.35 135.09 29.35 135.1 29.34 135.1 29.31 135.1 29.31 135.11 29.3 135.11 29.29 135.11 29.27 135.11 29.26 135.11 29.23 135.12 29.22 135.12 29.21 135.12 29.2 135.12 29.19 135.12 29.17 135.11 29.16 135.11 29.15 135.11 29.13 135.11 29.12 135.11 29.11 135.12 29.1 135.12 29.09 135.12 29.08 135.12 29.07 135.12 29.06 135.12 29.05 135.12 29.04 135.12 29.04 135.13 29.03 135.13 29.02 135.13 29.01 135.14 29 135.14 29 135.15 29 135.16 29.02 135.16 29.03 135.17 29.04 135.17 29.05 135.17 29.05 135.18 29.06 135.18 29.07 135.18 29.08 135.18 29.09 135.18 29.09 135.19 29.1 135.19 29.11 135.19 29.12 135.19 29.12 135.2 29.13 135.2 29.14 135.2 29.15 135.2 29.16 135.2 29.16 135.21 29.17 135.21 29.18 135.21 29.19 135.21 29.2 135.21 29.21 135.21 29.21 135.22 29.22 135.22 29.23 135.22 29.24 135.22 29.24 135.23 29.26 135.23 29.26 135.24 29.26 135.25 29.27 135.26 29.26 135.25 29.26 135.26 29.25 135.26 29.24 135.26 29.24 135.27 29.24 135.29 29.23 135.29 29.23 135.3 29.22 135.3 29.2 135.3 29.2 135.31 29.19 135.31 29.18 135.31 29.18 135.32 29.17 135.32 29.16 135.32 29.16 135.33 29.14 135.33 29.13 135.34 29.12 135.34 29.11 135.35 29.1 135.35 29.09 135.35 29.08 135.35 29.08 135.36 29.07 135.36 29.05 135.36 29.05 135.37 29.04 135.37 29.03 135.37 29.02 135.38 29.01 135.38 29.01 135.39 29 135.39 28.99 135.39 28.98 135.39 28.97 135.39 28.97 135.4 28.96 135.4 28.95 135.4 28.94 135.4 28.94 135.41 28.93 135.41 28.91 135.41 28.91 135.42 28.9 135.42 28.89 135.42 28.89 135.43 28.88 135.43 28.87 135.43 28.86 135.43 28.87 135.44 28.86 135.44 28.85 135.44"/>
<path d="M 28.85 135.44 28.84 135.44 28.84 135.45 28.83 135.45 28.82 135.45 28.82 135.46 28.81 135.46 28.8 135.46 28.8 135.47 28.79 135.47 28.79 135.48 28.78 135.48 28.77 135.48 28.77 135.49 28.76 135.49 28.76 135.5 28.75 135.5 28.74 135.5 28.74 135.51 28.73 135.51 28.72 135.51 28.71 135.52 28.72 135.52 28.71 135.52 28.71 135.53 28.7 135.53 28.69 135.53 28.69 135.54 28.68 135.54 28.67 135.55 28.66 135.56 28.65 135.56 28.65 135.57 28.64 135.57 28.64 135.58 28.63 135.58 28.62 135.58 28.62 135.59 28.61 135.59 28.59 135.59 28.58 135.59 28.56 135.6 28.54 135.6 28.53 135.6 28.52 135.6 28.53 135.6 28.53 135.61 28.52 135.61 28.51 135.61 28.5 135.61 28.49 135.61 28.49 135.62 28.48 135.62 28.47 135.61 28.45 135.61 28.44 135.62 28.43 135.62 28.42 135.62 28.41 135.62 28.4 135.62 28.39 135.62 28.38 135.62 28.36 135.62 28.35 135.62 28.34 135.62 28.33 135.62 28.32 135.62 28.31 135.62 28.3 135.62 28.29 135.62 28.27 135.62 28.26 135.63 28.22 135.63 28.21 135.63 28.2 135.63 28.19 135.63 28.18 135.63 28.17 135.62 28.16 135.62 28.15 135.62 28.14 135.62 28.12 135.62 28.11 135.62 28.1 135.62 28.09 135.62 28.08 135.61 28.07 135.61 28.06 135.62 28.06 135.61 28.05 135.61 28.03 135.61 28.02 135.61 28 135.61 28 135.6 27.99 135.6 27.98 135.6 27.97 135.6 27.96 135.6 27.95 135.6 27.93 135.6 27.92 135.59 27.91 135.59 27.9 135.59 27.88 135.59 27.86 135.59 27.85 135.58 27.84 135.58 27.83 135.58 27.82 135.58 27.81 135.58 27.79 135.57 27.78 135.57 27.77 135.57 27.76 135.57 27.75 135.57 27.74 135.57 27.73 135.57 27.72 135.57 27.71 135.57 27.7 135.56 27.69 135.56 27.68 135.55 27.67 135.56 27.66 135.56"/>
<path d="M 26.05 135.87 26.04 135.87 26.03 135.87 26.03 135.86 26.02 135.86 26.03 135.86 26.04 135.86 26.05 135.87"/>
<path d="M 26.02 135.9 26.03 135.9 26.02 135.9"/>
<path d="M 26.04 135.92 26.03 135.92 26.03 135.91 26.03 135.9 26.03 135.91 26.04 135.91 26.04 135.92"/>
<path d="M 25.57 135.6 25.58 135.6 25.57 135.6 25.58 135.61 25.59 135.61 25.6 135.62 25.61 135.62 25.62 135.62 25.62 135.63 25.63 135.63 25.64 135.63 25.65 135.63 25.65 135.64 25.66 135.65 25.66 135.66 25.67 135.66 25.68 135.67 25.69 135.68 25.7 135.68 25.7 135.69 25.71 135.69 25.71 135.7 25.72 135.7 25.73 135.7 25.73 135.71 25.74 135.71 25.75 135.71 25.75 135.72 25.76 135.72 25.77 135.72 25.77 135.73 25.78 135.73 25.78 135.74 25.79 135.74 25.8 135.74 25.81 135.74 25.81 135.75 25.82 135.76 25.83 135.76 25.84 135.76 25.85 135.76 25.85 135.77 25.86 135.77 25.87 135.77 25.87 135.78 25.88 135.78 25.89 135.78 25.89 135.79 25.91 135.79 25.92 135.79 25.93 135.79 25.94 135.79 25.95 135.79 25.95 135.8 25.96 135.8 25.97 135.8 25.98 135.8 25.99 135.8 26.01 135.8 26.02 135.8 26.01 135.8 26.02 135.8 26.03 135.8 26.05 135.8 26.06 135.8 26.07 135.8 26.08 135.8 26.08 135.81 26.09 135.81 26.1 135.81 26.1 135.82 26.11 135.82 26.12 135.82 26.12 135.83 26.13 135.83 26.12 135.83 26.12 135.84 26.13 135.84 26.12 135.85 26.13 135.85 26.13 135.86 26.13 135.87 26.12 135.87 26.11 135.87 26.1 135.87 26.09 135.87 26.07 135.87 26.07 135.86 26.05 135.86 26.06 135.87 26.05 135.87 26.04 135.88 26.04 135.87 26.03 135.87 26.02 135.87 26 135.87 25.99 135.87 26 135.87 26 135.88 26 135.89 26 135.88 25.99 135.88 25.99 135.89 26 135.89 26.01 135.89 26.02 135.89 26.02 135.9 26.01 135.9 26.01 135.89 25.99 135.89 25.99 135.9 25.99 135.91 25.98 135.91 25.97 135.92 25.96 135.92 25.95 135.91 25.95 135.92 25.94 135.92 25.93 135.92 25.92 135.92 25.92 135.93 25.91 135.93 25.9 135.92 25.89 135.92 25.9 135.92 25.9 135.93 25.91 135.93 25.89 135.93 25.88 135.94 25.87 135.94"/>
<path d="M 28.95 139.95 28.96 139.94 28.97 139.94 28.98 139.94 28.98 139.93 28.99 139.93 29 139.93 29.01 139.93 29.02 139.93 29.02 139.92 29.04 139.92 29.03 139.92 29.05 139.92 29.05 139.91 29.06 139.91 29.07 139.91 29.08 139.9 29.09 139.9 29.09 139.89 29.1 139.89 29.11 139.89 29.12 139.89 29.13 139.89 29.13 139.88 29.14 139.88 29.15 139.88 29.15 139.87 29.16 139.87 29.17 139.87 29.17 139.86 29.19 139.86 29.2 139.86 29.21 139.86 29.22 139.86 29.23 139.85 29.23 139.84 29.24 139.83 29.25 139.83 29.25 139.82 29.26 139.82 29.25 139.82 29.26 139.82 29.26 139.81 29.27 139.81 29.27 139.8 29.28 139.8 29.29 139.8 29.29 139.79 29.3 139.79 29.31 139.79 29.31 139.78 29.32 139.78 29.33 139.78 29.33 139.77 29.34 139.77 29.35 139.77 29.35 139.76 29.36 139.76 29.37 139.76 29.38 139.75 29.39 139.75 29.4 139.75 29.4 139.74 29.41 139.74 29.42 139.74 29.43 139.73 29.44 139.73 29.45 139.73 29.45 139.72 29.46 139.72 29.48 139.72 29.49 139.71 29.5 139.71 29.51 139.71 29.52 139.71 29.53 139.71 29.54 139.71 29.55 139.71 29.55 139.7 29.56 139.7 29.57 139.7 29.58 139.7 29.58 139.69 29.59 139.69 29.59 139.68 29.6 139.68 29.6 139.67 29.6 139.66 29.61 139.66 29.6 139.65 29.61 139.65 29.6 139.63 29.6 139.62 29.6 139.61 29.6 139.6 29.6 139.59 29.6 139.58 29.61 139.58 29.61 139.57 29.62 139.57 29.62 139.56 29.63 139.56 29.63 139.55 29.64 139.55 29.65 139.54 29.65 139.53 29.66 139.53 29.66 139.52 29.66 139.5 29.67 139.5 29.67 139.49 29.68 139.49 29.68 139.48 29.68 139.47 29.69 139.47 29.69 139.46 29.7 139.45 29.7 139.44 29.71 139.44 29.72 139.43 29.73 139.42 29.74 139.42"/>
<path d="M 28.9 140.27 28.9 140.26 28.91 140.26 28.91 140.25 28.9 140.24 28.89 140.24 28.89 140.23 28.88 140.24 28.88 140.23 28.87 140.23 28.87 140.22 28.86 140.22 28.85 140.22 28.85 140.21 28.85 140.2 28.84 140.2 28.84 140.19 28.83 140.19 28.82 140.18 28.81 140.17 28.8 140.17 28.8 140.16 28.79 140.16 28.78 140.16 28.78 140.15 28.77 140.15 28.76 140.15 28.75 140.14 28.75 140.13 28.74 140.12 28.75 140.11 28.76 140.11 28.76 140.1 28.75 140.1 28.76 140.1 28.76 140.09 28.77 140.09 28.78 140.08 28.78 140.07 28.78 140.06 28.79 140.05 28.8 140.05 28.79 140.04 28.8 140.04 28.8 140.03 28.81 140.03 28.81 140.02 28.8 140.01 28.8 140 28.79 140 28.79 139.99 28.78 139.98 28.78 139.97 28.77 139.97 28.76 139.97 28.75 139.96 28.74 139.96 28.74 139.95 28.73 139.95 28.72 139.94 28.72 139.93 28.71 139.93 28.71 139.92 28.7 139.91 28.7 139.9 28.69 139.89 28.69 139.88 28.69 139.87 28.68 139.87 28.67 139.87 28.66 139.87 28.66 139.86 28.65 139.86 28.64 139.86 28.63 139.86 28.62 139.86 28.61 139.85 28.6 139.85 28.59 139.85 28.58 139.85 28.56 139.85 28.55 139.84 28.54 139.84 28.53 139.84 28.52 139.83 28.51 139.83 28.5 139.82 28.49 139.82 28.49 139.81 28.48 139.81 28.46 139.81 28.45 139.8 28.45 139.79 28.44 139.79 28.44 139.78 28.43 139.78 28.41 139.78 28.4 139.78 28.4 139.77 28.39 139.77 28.38 139.77 28.38 139.76 28.39 139.76 28.4 139.76 28.41 139.76 28.42 139.76 28.43 139.76 28.44 139.75 28.45 139.75 28.46 139.75 28.46 139.76 28.47 139.76 28.48 139.76 28.49 139.77 28.5 139.77 28.51 139.77 28.51 139.78 28.52 139.78 28.53 139.79 28.55 139.79 28.56 139.8 28.57 139.8 28.58 139.8 28.59 139.8 28.61 139.8 28.63 139.8 28.64 139.8 28.65 139.8 28.66 139.8 28.67 139.8 28.68 139.8 28.69 139.8 28.7 139.79 28.71 139.79 28.72 139.79 28.73 139.78 28.74 139.78 28.74 139.77 28.75 139.76 28.75 139.75 28.75 139.74 28.75 139.73 28.75 139.71 28.76 139.7 28.76 139.69 28.76 139.68 28.76 139.67 28.76 139.66 28.76 139.65 28.77 139.64 28.77 139.63 28.76 139.63 28.77 139.62 28.77 139.61 28.77 139.6 28.77 139.59 28.78 139.58 28.78 139.57 28.79 139.57 28.8 139.56 28.81 139.56 28.81 139.57 28.82 139.57 28.83 139.57 28.83 139.58 28.84 139.58 28.85 139.58 28.86 139.58 28.87 139.58 28.87 139.59 28.88 139.59 28.88 139.6 28.87 139.62 28.88 139.62 28.88 139.63 28.87 139.64 28.88 139.65 28.89 139.68 28.89 139.69 28.89 139.7 28.89 139.71 28.89 139.73 28.89 139.74 28.88 139.74 28.89 139.75 28.89 139.76 28.88 139.76 28.88 139.77 28.89 139.78 28.88 139.8 28.88 139.81 28.89 139.81 28.89 139.83 28.9 139.84 28.9 139.85 28.91 139.85 28.91 139.86 28.92 139.87 28.92 139.88 28.92 139.89 28.93 139.9 28.93 139.91 28.94 139.91 28.94 139.92 28.94 139.93 28.94 139.94 28.94 139.95 28.95 139.95"/>
<path d="M 29.97 139.41 29.96 139.42 29.96 139.43 29.95 139.43 29.95 139.44 29.94 139.44 29.95 139.44 29.94 139.44 29.94 139.45 29.93 139.45 29.92 139.45 29.92 139.46 29.91 139.46 29.91 139.47 29.9 139.47 29.9 139.48 29.89 139.48 29.89 139.49 29.88 139.49 29.87 139.49 29.87 139.5 29.86 139.51 29.86 139.52 29.85 139.52 29.86 139.52 29.85 139.52 29.85 139.53 29.85 139.54 29.84 139.54 29.84 139.55 29.83 139.55 29.83 139.56 29.82 139.57 29.81 139.57 29.81 139.58 29.8 139.59 29.8 139.6 29.79 139.6 29.79 139.61 29.79 139.63 29.8 139.63 29.8 139.64 29.81 139.64 29.8 139.65 29.81 139.66 29.82 139.68 29.81 139.69 29.8 139.69 29.8 139.7 29.81 139.71 29.8 139.71 29.8 139.72 29.79 139.72 29.78 139.73 29.77 139.74 29.76 139.74 29.76 139.75 29.75 139.75 29.74 139.75 29.73 139.75 29.73 139.76 29.72 139.76 29.71 139.76 29.71 139.77 29.7 139.77 29.69 139.77 29.69 139.78 29.68 139.78 29.67 139.79 29.66 139.79 29.65 139.79 29.65 139.8 29.64 139.8 29.63 139.8 29.62 139.8 29.62 139.81 29.61 139.81 29.6 139.81 29.58 139.82 29.57 139.82 29.56 139.82 29.56 139.83 29.55 139.83 29.54 139.83 29.54 139.84 29.53 139.84 29.53 139.85 29.52 139.85 29.51 139.86 29.5 139.86 29.5 139.87 29.49 139.87 29.48 139.87 29.48 139.88 29.47 139.88 29.47 139.89 29.47 139.9 29.46 139.9 29.45 139.9 29.44 139.91 29.44 139.92 29.43 139.92 29.42 139.92 29.42 139.93 29.41 139.93 29.41 139.94 29.4 139.94 29.39 139.94 29.38 139.94 29.37 139.95 29.36 139.95 29.36 139.96 29.35 139.96 29.34 139.96 29.33 139.97 29.32 139.97 29.31 139.97 29.3 139.98 29.29 139.98 29.28 139.98 29.28 139.99 29.27 139.99 29.26 139.99 29.24 139.99 29.22 140 29.21 140 29.2 140 29.18 140 29.17 140.01 29.16 140.01 29.15 140.01 29.14 140.01 29.13 140.02 29.12 140.02 29.11 140.02 29.11 140.03 29.1 140.03 29.09 140.03 29.08 140.04 29.07 140.05 29.06 140.05 29.06 140.06 29.06 140.08 29.06 140.09 29.05 140.1 29.06 140.1 29.06 140.11 29.05 140.11 29.05 140.12 29.04 140.12 29.04 140.13 29.04 140.14 29.03 140.14 29.03 140.15 29.03 140.16 29.04 140.16 29.04 140.17 29.05 140.17 29.06 140.17 29.06 140.18 29.07 140.18 29.08 140.18 29.09 140.18 29.09 140.19 29.1 140.19 29.11 140.19 29.11 140.2 29.12 140.21 29.12 140.22 29.11 140.22 29.11 140.23 29.12 140.23 29.12 140.24 29.12 140.25 29.13 140.26 29.13 140.27 29.14 140.28 29.14 140.29 29.14 140.3 29.15 140.3 29.16 140.3 29.18 140.3 29.21 140.3 29.22 140.3 29.23 140.3 29.24 140.3 29.26 140.3 29.27 140.3 29.28 140.3 29.29 140.3 29.3 140.3 29.31 140.3 29.32 140.3 29.33 140.3 29.33 140.29 29.35 140.29 29.36 140.29 29.37 140.29 29.37 140.28 29.38 140.28 29.39 140.28 29.4 140.28 29.41 140.28 29.42 140.28 29.43 140.28 29.44 140.28 29.44 140.29 29.45 140.29 29.46 140.29 29.47 140.3 29.5 140.3 29.51 140.3 29.53 140.3 29.54 140.3 29.55 140.3 29.56 140.31 29.57 140.31 29.58 140.31 29.59 140.31 29.59 140.32 29.6 140.32 29.61 140.32 29.62 140.32 29.63 140.32 29.66 140.32 29.67 140.33 29.68 140.33 29.69 140.33 29.7 140.33 29.71 140.33 29.74 140.33 29.75 140.33 29.76 140.33 29.78 140.32 29.79 140.33 29.8 140.33 29.81 140.33 29.82 140.33 29.82 140.34 29.83 140.34 29.84 140.35 29.86 140.35 29.87 140.35 29.88 140.35 29.89 140.35 29.89 140.36 29.9 140.36 29.92 140.36 29.91 140.36 29.92 140.36 29.92 140.37 29.93 140.37 29.93 140.38 29.94 140.38 29.95 140.39 29.96 140.39 29.96 140.4 29.96 140.41 29.96 140.4 29.96 140.41 29.96 140.42 29.96 140.43 29.97 140.43 29.98 140.43 29.99 140.43 29.99 140.44 29.99 140.45 30 140.46 29.99 140.46 30 140.46 30 140.47 30.01 140.47 30.02 140.48 30.03 140.48 30.03 140.49 30.04 140.49 30.05 140.49 30.05 140.5"/>
<path d="M 24.47 135.06 24.5 135.06 24.51 135.07 24.52 135.07 24.53 135.07 24.53 135.06 24.54 135.07 24.56 135.07 24.57 135.07 24.58 135.07 24.59 135.07 24.6 135.07 24.64 135.07 24.65 135.07 24.66 135.07 24.67 135.07 24.69 135.07 24.7 135.07 24.71 135.07 24.72 135.06 24.73 135.06 24.74 135.06 24.75 135.06 24.79 135.07 24.8 135.07 24.81 135.07 24.83 135.07 24.84 135.07 24.84 135.08 24.84 135.07 24.85 135.07 24.86 135.08 24.89 135.08 24.91 135.08 24.92 135.08 24.93 135.08 24.93 135.09 24.94 135.08 24.95 135.08 24.96 135.09 24.97 135.09 24.98 135.09 24.99 135.09 25 135.09 25.01 135.09 25.01 135.1 25.02 135.11 25.02 135.12 25.02 135.13 25.03 135.13 25.04 135.14 25.06 135.14 25.07 135.14 25.07 135.15 25.07 135.16 25.08 135.16 25.09 135.16 25.1 135.16 25.11 135.16 25.12 135.16 25.12 135.17 25.13 135.17 25.14 135.17 25.17 135.17 25.18 135.17 25.18 135.18 25.19 135.18 25.2 135.18 25.21 135.18 25.22 135.19 25.23 135.19 25.24 135.19 25.24 135.2 25.25 135.2 25.26 135.19 25.26 135.2 25.27 135.2 25.28 135.2 25.29 135.2 25.3 135.21 25.32 135.21 25.33 135.21 25.34 135.21 25.35 135.22 25.36 135.22 25.37 135.23 25.38 135.23 25.38 135.24 25.39 135.24 25.4 135.24 25.4 135.25 25.41 135.25 25.42 135.25 25.43 135.25 25.43 135.26 25.44 135.26 25.45 135.27 25.46 135.27 25.47 135.27 25.48 135.27 25.5 135.27 25.5 135.28 25.51 135.28 25.52 135.29 25.51 135.29 25.52 135.29 25.53 135.29 25.55 135.3 25.56 135.3 25.57 135.3"/>
<path d="M 25.57 135.3 25.57 135.29 25.59 135.29 25.6 135.29 25.61 135.28 25.62 135.28 25.63 135.28 25.64 135.28 25.66 135.28 25.68 135.27 25.69 135.27 25.72 135.27 25.73 135.27 25.74 135.27 25.77 135.27 25.78 135.27 25.8 135.27 25.81 135.27 25.83 135.27 25.85 135.26 25.86 135.26 25.87 135.26 25.88 135.26 25.9 135.26 25.9 135.25 25.92 135.25 25.93 135.25 25.95 135.25 25.97 135.24 25.98 135.24 25.99 135.24 26 135.24 26.01 135.23 26.02 135.23 26.02 135.22 26.03 135.23 26.04 135.23 26.05 135.23 26.06 135.23 26.07 135.23 26.09 135.23 26.1 135.23 26.12 135.22 26.13 135.22 26.14 135.22 26.14 135.21 26.16 135.21 26.17 135.21 26.18 135.21 26.18 135.2 26.2 135.2 26.2 135.19 26.21 135.19 26.23 135.19 26.24 135.19 26.25 135.19 26.25 135.18 26.26 135.18 26.27 135.18 26.28 135.18 26.29 135.18 26.3 135.18 26.32 135.18 26.33 135.18 26.34 135.18 26.36 135.18 26.38 135.18 26.39 135.18 26.42 135.18 26.43 135.18 26.44 135.19 26.45 135.19 26.46 135.19 26.47 135.18 26.5 135.18 26.51 135.18 26.52 135.18 26.53 135.19 26.54 135.19 26.55 135.19 26.56 135.19 26.57 135.19 26.58 135.19 26.59 135.19 26.61 135.19 26.62 135.19 26.63 135.19 26.64 135.19 26.67 135.19 26.68 135.19 26.7 135.18 26.73 135.18 26.74 135.18 26.76 135.18 26.77 135.18 26.77 135.17 26.78 135.17 26.8 135.17 26.82 135.17 26.83 135.17 26.84 135.17 26.86 135.17 26.86 135.16 26.87 135.16 26.88 135.16 26.93 135.16 26.94 135.16 26.95 135.17 26.96 135.17 26.97 135.16 26.97 135.17 26.99 135.17 27 135.17 27.01 135.17 27.02 135.17 27.03 135.18 27.05 135.18 27.06 135.18 27.07 135.18 27.08 135.18 27.08 135.19 27.09 135.19 27.1 135.19 27.12 135.19 27.12 135.2 27.13 135.2 27.14 135.2 27.15 135.2 27.15 135.21 27.16 135.21 27.17 135.21 27.17 135.22 27.18 135.22 27.19 135.22 27.2 135.23 27.22 135.23 27.22 135.24 27.23 135.24 27.24 135.24 27.25 135.24 27.25 135.25 27.26 135.25 27.27 135.25 27.27 135.26 27.28 135.26 27.29 135.26 27.3 135.26 27.3 135.27 27.31 135.27 27.31 135.28 27.33 135.28 27.32 135.28 27.33 135.28 27.33 135.29 27.34 135.29 27.35 135.29 27.36 135.29 27.36 135.3 27.37 135.31 27.38 135.32 27.39 135.32 27.4 135.32 27.4 135.33 27.41 135.33 27.42 135.33 27.43 135.33 27.43 135.34 27.44 135.34 27.45 135.34 27.46 135.34 27.47 135.34 27.48 135.34 27.49 135.34 27.49 135.35 27.5 135.35 27.51 135.35 27.52 135.35 27.52 135.36 27.54 135.36 27.55 135.36 27.56 135.36 27.56 135.37 27.57 135.37 27.58 135.37 27.59 135.38 27.6 135.38 27.6 135.39 27.61 135.39 27.62 135.39 27.64 135.39 27.65 135.39 27.66 135.4 27.67 135.4 27.68 135.4 27.69 135.4 27.71 135.4 27.72 135.4 27.73 135.41 27.74 135.41 27.75 135.41 27.76 135.41 27.76 135.42 27.78 135.42 27.79 135.42 27.8 135.42 27.81 135.42 27.85 135.42 27.86 135.42 27.87 135.43 27.88 135.43 27.89 135.43 27.91 135.43 27.92 135.43 27.93 135.43 27.94 135.43 27.96 135.43 27.97 135.43 27.98 135.43 27.99 135.43 28 135.42 28.01 135.42 28.04 135.42 28.05 135.42 28.06 135.42 28.07 135.42 28.08 135.42 28.09 135.42 28.1 135.42 28.13 135.41 28.14 135.41 28.15 135.41 28.17 135.41 28.19 135.41 28.2 135.41 28.21 135.41 28.22 135.41 28.24 135.41 28.25 135.41 28.26 135.41 28.27 135.41 28.28 135.41 28.29 135.41 28.3 135.41 28.31 135.41 28.32 135.41 28.33 135.41 28.34 135.41 28.35 135.41 28.36 135.41 28.37 135.41 28.38 135.41 28.39 135.41 28.41 135.41 28.42 135.41 28.43 135.41 28.44 135.41 28.45 135.41 28.46 135.41 28.48 135.41 28.49 135.41 28.5 135.41 28.51 135.41 28.52 135.41 28.54 135.4 28.55 135.4 28.56 135.4 28.57 135.4 28.57 135.39 28.58 135.39 28.58 135.38 28.59 135.38 28.59 135.37 28.59 135.36 28.59 135.35 28.59 135.34 28.6 135.34 28.6 135.33 28.6 135.32 28.61 135.32 28.61 135.31 28.61 135.3"/>
<path d="M 27.66 135.56 27.65 135.56 27.64 135.55 27.63 135.55 27.62 135.55 27.6 135.55 27.59 135.54 27.58 135.54 27.57 135.54 27.56 135.54 27.54 135.54 27.53 135.54 27.52 135.53 27.51 135.53 27.5 135.53 27.49 135.53 27.48 135.53 27.47 135.53 27.47 135.52 27.46 135.52 27.45 135.51 27.44 135.51 27.43 135.51 27.42 135.51 27.41 135.51 27.41 135.5 27.4 135.49 27.39 135.48 27.38 135.48 27.38 135.47 27.37 135.47 27.36 135.47 27.34 135.47 27.34 135.46 27.33 135.46 27.32 135.46 27.31 135.46 27.3 135.46 27.29 135.46 27.28 135.45 27.27 135.45 27.26 135.44 27.25 135.44 27.24 135.44 27.23 135.43 27.22 135.43 27.21 135.42 27.21 135.41 27.21 135.4 27.2 135.4 27.19 135.39 27.18 135.38 27.17 135.38 27.16 135.38 27.15 135.37 27.14 135.37 27.13 135.37 27.12 135.36 27.11 135.36 27.11 135.35 27.09 135.35 27.08 135.35 27.07 135.35 27.04 135.35 27.02 135.34 27.01 135.34 27 135.34 26.99 135.34 26.98 135.34 26.97 135.33 26.96 135.33 26.95 135.33 26.94 135.33 26.93 135.33 26.92 135.32 26.91 135.32 26.9 135.32 26.9 135.31 26.89 135.31 26.88 135.31 26.87 135.31 26.86 135.3 26.85 135.3 26.84 135.3 26.83 135.29 26.81 135.29 26.79 135.29 26.78 135.29 26.77 135.29 26.76 135.29 26.75 135.29 26.71 135.29 26.7 135.29 26.69 135.29 26.65 135.29 26.62 135.29 26.56 135.29 26.53 135.29 26.52 135.29 26.5 135.29 26.47 135.29 26.46 135.29 26.44 135.29 26.43 135.3 26.42 135.3 26.4 135.3 26.39 135.3 26.38 135.3 26.36 135.31 26.35 135.31 26.34 135.31 26.33 135.31 26.32 135.32 26.31 135.32 26.3 135.32 26.29 135.32 26.29 135.33 26.28 135.33 26.27 135.33 26.26 135.34 26.25 135.34 26.23 135.34 26.21 135.34 26.19 135.34 26.18 135.35 26.17 135.35 26.16 135.35 26.14 135.35 26.13 135.36 26.12 135.36 26.11 135.36 26.1 135.36 26.09 135.36 26.08 135.37 26.07 135.37 26.06 135.37 26.05 135.37 26.03 135.37 26.02 135.38 26.01 135.38 25.99 135.38 25.98 135.38 25.98 135.39 25.97 135.39 25.96 135.39 25.95 135.39 25.93 135.39 25.92 135.39 25.91 135.39 25.9 135.4 25.89 135.39 25.88 135.39 25.87 135.39 25.86 135.39 25.85 135.39 25.84 135.39 25.83 135.39 25.81 135.39 25.8 135.39 25.79 135.39 25.77 135.39 25.75 135.39 25.74 135.39 25.73 135.39 25.72 135.39 25.7 135.39 25.69 135.39 25.68 135.39 25.67 135.39 25.65 135.4 25.64 135.4 25.63 135.4 25.62 135.4 25.61 135.41 25.6 135.41 25.59 135.41 25.58 135.41 25.57 135.42 25.56 135.42 25.54 135.42 25.52 135.42 25.45 135.42 25.43 135.42 25.42 135.42 25.41 135.41 25.4 135.41 25.39 135.41 25.38 135.41 25.37 135.41 25.36 135.4 25.35 135.4 25.34 135.4 25.33 135.4 25.32 135.39 25.31 135.39 25.3 135.38 25.29 135.38 25.28 135.37 25.27 135.37 25.27 135.36 25.26 135.36 25.25 135.36 25.24 135.36 25.24 135.35 25.23 135.35 25.21 135.35 25.22 135.35 25.21 135.34 25.2 135.35 25.19 135.34 25.18 135.34 25.18 135.33 25.19 135.33 25.19 135.32 25.18 135.32 25.17 135.31 25.16 135.31 25.15 135.3 25.15 135.31 25.14 135.31 25.14 135.3 25.13 135.3 25.12 135.3 25.11 135.3 25.1 135.3 25.09 135.29 25.08 135.29 25.08 135.3 25.09 135.3 25.09 135.31 25.08 135.31 25.09 135.31 25.09 135.32 25.08 135.32 25.08 135.33 25.08 135.34 25.09 135.34 25.1 135.35 25.1 135.36 25.11 135.36 25.11 135.37 25.1 135.37 25.09 135.37 25.08 135.38 25.07 135.38 25.08 135.38 25.08 135.39 25.09 135.39 25.11 135.39 25.12 135.39 25.13 135.39 25.14 135.39 25.14 135.4 25.15 135.41 25.16 135.41 25.17 135.41 25.17 135.42 25.18 135.42 25.19 135.42 25.2 135.42 25.21 135.43 25.22 135.43 25.22 135.44 25.23 135.44 25.24 135.44 25.24 135.45 25.24 135.46 25.25 135.46 25.24 135.46 25.24 135.47 25.25 135.47 25.26 135.48 25.28 135.48 25.29 135.48 25.3 135.48 25.3 135.49 25.3 135.5 25.31 135.5 25.32 135.5 25.34 135.5 25.35 135.5 25.35 135.51 25.36 135.51 25.37 135.51 25.37 135.52 25.38 135.52 25.37 135.52 25.39 135.52 25.39 135.53 25.38 135.54 25.39 135.54 25.4 135.54 25.41 135.54 25.42 135.54 25.43 135.54 25.44 135.54 25.44 135.55 25.45 135.55 25.46 135.55 25.47 135.55 25.48 135.55 25.49 135.55 25.49 135.56 25.5 135.56 25.5 135.57 25.5 135.58 25.51 135.58 25.52 135.58 25.53 135.58 25.53 135.59 25.54 135.59 25.55 135.59 25.55 135.6 25.56 135.6 25.57 135.6"/>
<path d="M 25.87 135.94 25.86 135.94 25.85 135.93 25.84 135.93 25.84 135.92 25.83 135.92 25.82 135.92 25.81 135.92 25.81 135.91 25.8 135.91 25.79 135.91 25.79 135.9 25.77 135.9 25.76 135.9 25.76 135.89 25.75 135.89 25.74 135.89 25.73 135.89 25.73 135.88 25.72 135.88 25.71 135.88 25.7 135.88 25.7 135.87 25.69 135.88 25.67 135.88 25.66 135.88 25.65 135.88 25.63 135.87 25.62 135.87 25.61 135.87 25.61 135.86 25.6 135.86 25.59 135.86 25.58 135.86 25.57 135.86 25.56 135.85 25.55 135.85 25.54 135.85 25.53 135.85 25.52 135.86 25.51 135.85 25.49 135.85 25.48 135.84 25.47 135.84 25.46 135.83 25.46 135.82 25.47 135.82 25.46 135.82 25.45 135.82 25.46 135.81 25.44 135.81 25.43 135.81 25.43 135.8 25.42 135.8 25.41 135.8 25.4 135.8 25.39 135.8 25.38 135.8 25.38 135.78 25.37 135.78 25.37 135.77 25.36 135.77 25.35 135.77 25.34 135.77 25.33 135.77 25.33 135.76 25.33 135.75 25.34 135.74 25.33 135.73 25.34 135.72 25.33 135.72 25.32 135.72 25.32 135.71 25.31 135.71 25.31 135.7 25.3 135.7 25.3 135.69 25.29 135.69 25.29 135.68 25.28 135.68 25.28 135.67 25.27 135.67 25.26 135.67 25.26 135.66 25.25 135.66 25.24 135.66 25.23 135.65 25.22 135.65 25.22 135.64 25.21 135.64 25.2 135.64 25.2 135.63 25.19 135.63 25.18 135.62 25.18 135.61 25.17 135.62 25.16 135.61 25.15 135.6 25.14 135.6 25.14 135.59 25.13 135.59 25.12 135.58 25.11 135.57 25.11 135.56 25.1 135.56 25.1 135.55 25.09 135.55 25.09 135.54 25.08 135.54 25.07 135.54 25.06 135.53 25.05 135.52 25.04 135.52 25.04 135.51 25.03 135.51 25.03 135.5 25.01 135.5 25 135.5 24.98 135.5 24.98 135.49 24.97 135.49 24.96 135.49 24.95 135.48 24.95 135.47 24.94 135.47 24.93 135.47 24.92 135.47 24.92 135.46 24.91 135.46 24.91 135.45 24.9 135.45 24.9 135.44 24.9 135.43 24.9 135.42 24.89 135.42 24.88 135.41 24.87 135.41 24.86 135.4 24.86 135.39 24.86 135.38 24.85 135.38 24.85 135.37 24.84 135.37 24.84 135.36 24.83 135.36 24.82 135.36 24.82 135.35 24.81 135.35 24.8 135.35 24.8 135.34 24.79 135.34 24.79 135.33 24.78 135.34 24.78 135.33 24.77 135.33 24.77 135.32 24.76 135.32 24.76 135.31 24.75 135.31 24.75 135.3 24.73 135.3 24.71 135.3 24.69 135.31 24.69 135.3 24.68 135.3 24.67 135.3 24.66 135.3 24.65 135.31 24.63 135.31 24.61 135.31 24.6 135.32 24.59 135.32 24.58 135.32 24.56 135.32 24.55 135.32 24.54 135.32 24.54 135.33 24.53 135.33 24.52 135.34 24.5 135.34 24.49 135.34 24.49 135.35 24.48 135.35 24.47 135.35 24.47 135.36"/>
</g>
</svg>