<?xml version="1.0"?>
<svg xmlns="http://www.w3.org/2000/svg" version="1.2" baseProfile="tiny" width="800" height="223" viewBox="0 0 800 223" stroke-linecap="round" stroke-linejoin="round">
<g id="cd22" fill="none" stroke="black" stroke-width="0.05">
<path d="M 44.24 125.09 44.24 125.08 44.24 125.09"/>
<path d="M 40.13 125.15 40.12 125.15 40.13 125.15"/>
<path d="M 40.08 126.12 40.07 126.12 40.08 126.11 40.08 126.12"/>
<path d="M 40.11 126.12 40.09 126.12 40.1 126.12 40.11 126.12"/>
<path d="M 40.12 126.13 40.11 126.13 40.12 126.12 40.12 126.13 40.13 126.13 40.12 126.13"/>
<path d="M 40.07 126.16 40.06 126.16 40.05 126.16 40.05 126.15 40.06 126.15 40.08 126.15 40.08 126.14 40.09 126.14 40.09 126.15 40.08 126.16 40.07 126.16"/>
<path d="M 42.52 125 42.51 125 42.49 125 42.48 125 42.45 125 42.44 125 42.43 125 42.42 125 42.41 125 42.4 125 42.39 125 42.38 125 42.37 124.99 42.36 124.99 42.35 124.99 42.34 125 42.32 125 42.3 125 42.27 125 42.26 125 42.25 125 42.22 125 42.2 125 42.18 125 42.15 125 42.15 125.01 42.14 125.01 42.12 125.02 42.11 125.02 42.09 125.02 42.08 125.02 42.07 125.02 42.06 125.02 42.05 125.02 42.03 125.02 42.02 125.02 42.02 125.03 42.01 125.03 42 125.04 41.98 125.04 41.97 125.04 41.96 125.04 41.95 125.04 41.94 125.04 41.93 125.04 41.92 125.04 41.89 125.04 41.88 125.04 41.87 125.04 41.86 125.04 41.84 125.05 41.83 125.05 41.82 125.05 41.81 125.05 41.8 125.05 41.79 125.05 41.78 125.05 41.77 125.05 41.76 125.05 41.74 125.05 41.73 125.05 41.72 125.05 41.71 125.05 41.72 125.05 41.72 125.04 41.71 125.04 41.71 125.03 41.7 125.03 41.69 125.03 41.68 125.03 41.68 125.02 41.67 125.02 41.67 125.01 41.66 125.02 41.65 125.02 41.65 125.01 41.64 125.01 41.63 125.01 41.62 125.01 41.62 125 41.6 125"/>
<path d="M 44.25 125.06 44.24 125.06 44.24 125.05 44.26 125.05 44.26 125.06 44.25 125.06"/>
<path d="M 44.2 125.08 44.19 125.08 44.19 125.07 44.2 125.07 44.21 125.07 44.22 125.07 44.22 125.06 44.23 125.06 44.22 125.06 44.23 125.07 44.24 125.07 44.23 125.07 44.23 125.08 44.22 125.08 44.21 125.08 44.2 125.08"/>
<path d="M 44.13 125.12 44.11 125.12 44.1 125.12 44.1 125.11 44.11 125.11 44.12 125.11 44.12 125.12 44.13 125.11 44.14 125.11 44.15 125.11 44.15 125.12 44.14 125.12 44.13 125.12"/>
<path d="M 42.79 125.14 42.78 125.14 42.77 125.13 42.78 125.13 42.79 125.13 42.8 125.12 42.8 125.13 42.79 125.13 42.79 125.14"/>
<path d="M 40.63 125.15 40.61 125.15 40.62 125.15 40.63 125.14 40.64 125.14 40.63 125.14 40.63 125.15"/>
<path d="M 40.6 125.16 40.6 125.15 40.6 125.16"/>
<path d="M 44.41 125.17 44.41 125.16 44.4 125.16 44.43 125.16 44.42 125.16 44.41 125.17"/>
<path d="M 40.26 125.17 40.25 125.17 40.26 125.17"/>
<path d="M 44.09 125.17 44.08 125.17 44.08 125.16 44.07 125.16 44.06 125.16 44.06 125.15 44.05 125.15 44.04 125.15 44.04 125.14 44.01 125.14 44.02 125.14 44.03 125.14 44.04 125.13 44.05 125.13 44.06 125.13 44.07 125.13 44.08 125.13 44.09 125.13 44.1 125.13 44.11 125.13 44.11 125.12 44.13 125.12 44.13 125.13 44.14 125.12 44.15 125.12 44.15 125.11 44.16 125.11 44.17 125.11 44.18 125.11 44.2 125.11 44.19 125.11 44.18 125.11 44.17 125.11 44.17 125.12 44.18 125.11 44.2 125.11 44.2 125.1 44.19 125.1 44.19 125.09 44.2 125.09 44.21 125.09 44.23 125.09 44.23 125.08 44.24 125.08 44.24 125.07 44.25 125.07 44.26 125.07 44.27 125.07 44.28 125.07 44.28 125.08 44.3 125.08 44.32 125.08 44.33 125.07 44.32 125.07 44.33 125.07 44.34 125.07 44.34 125.06 44.35 125.06 44.35 125.05 44.36 125.05 44.37 125.05 44.37 125.06 44.38 125.06 44.39 125.06 44.4 125.06 44.41 125.07 44.41 125.08 44.41 125.09 44.4 125.09 44.39 125.09 44.39 125.1 44.38 125.1 44.37 125.1 44.37 125.11 44.37 125.12 44.36 125.12 44.35 125.12 44.35 125.13 44.36 125.13 44.36 125.14 44.36 125.13 44.38 125.13 44.39 125.13 44.4 125.12 44.42 125.12 44.43 125.12 44.44 125.12 44.48 125.11 44.47 125.12 44.47 125.13 44.47 125.14 44.48 125.14 44.49 125.14 44.48 125.14 44.47 125.14 44.46 125.14 44.45 125.14 44.44 125.14 44.44 125.15 44.43 125.15 44.42 125.15 44.41 125.15 44.4 125.15 44.39 125.15 44.38 125.16 44.36 125.16 44.35 125.16 44.34 125.16 44.33 125.16 44.32 125.16 44.31 125.16 44.3 125.17 44.29 125.17 44.28 125.17 44.28 125.16 44.26 125.16 44.25 125.16 44.24 125.16 44.24 125.15 44.23 125.15 44.23 125.14 44.21 125.14 44.21 125.15 44.2 125.15 44.2 125.16 44.19 125.16 44.18 125.16 44.17 125.17 44.16 125.17 44.14 125.17 44.14 125.16 44.13 125.16 44.12 125.17 44.11 125.17 44.1 125.17 44.09 125.17"/>
<path d="M 40.24 125.18 40.22 125.17 40.24 125.17 40.24 125.18"/>
<path d="M 41.5 124.88 41.52 124.87 41.52 124.88 41.51 124.88 41.5 124.88 41.5 124.89 41.49 124.89 41.48 124.9 41.48 124.91 41.49 124.91 41.5 124.91 41.51 124.92 41.5 124.92 41.49 124.92 41.48 124.92 41.48 124.93 41.47 124.93 41.48 124.93 41.48 124.94 41.47 124.94 41.47 124.95 41.48 124.95 41.49 124.95 41.49 124.96 41.48 124.96 41.49 124.96 41.49 124.97 41.48 124.97 41.48 124.98 41.49 124.98 41.48 124.98 41.47 124.99 41.47 125 41.47 125.01 41.47 125.02 41.49 125.02 41.51 125.02 41.53 125.02 41.52 125.01 41.53 125.01 41.54 125.01 41.55 125.01 41.56 125.01 41.57 125.01 41.58 125.01 41.58 125.02 41.57 125.01 41.57 125.02 41.58 125.02 41.59 125.02 41.59 125.03 41.6 125.03 41.61 125.03 41.62 125.03 41.63 125.03 41.63 125.04 41.62 125.04 41.62 125.05 41.61 125.05 41.6 125.05 41.6 125.06 41.59 125.06 41.58 125.06 41.57 125.06 41.56 125.06 41.55 125.06 41.52 125.06 41.52 125.07 41.52 125.06 41.51 125.06 41.5 125.06 41.48 125.06 41.47 125.06 41.46 125.06 41.45 125.06 41.44 125.06 41.44 125.07 41.43 125.07 41.42 125.07 41.42 125.06 41.43 125.06 41.42 125.06 41.41 125.06 41.39 125.06 41.38 125.06 41.37 125.06 41.36 125.07 41.35 125.07 41.34 125.07 41.33 125.07 41.32 125.07 41.31 125.07 41.3 125.07 41.31 125.07 41.3 125.07 41.27 125.07 41.26 125.07 41.25 125.07 41.24 125.07 41.22 125.07 41.21 125.07 41.21 125.06 41.19 125.06 41.17 125.06 41.16 125.07 41.15 125.07 41.12 125.07 41.11 125.07 41.1 125.07 41.1 125.08 41.09 125.08 41.08 125.08 41.07 125.08 41.06 125.08 41.05 125.08 41.04 125.08 41.04 125.09 41.03 125.09 41.01 125.09 41.01 125.1 41 125.1 40.99 125.1 40.98 125.1 40.98 125.11 40.97 125.11 40.96 125.11 40.95 125.12 40.94 125.12 40.93 125.12 40.93 125.13 40.92 125.13 40.91 125.13 40.9 125.13 40.89 125.13 40.88 125.13 40.87 125.13 40.84 125.14 40.83 125.14 40.82 125.14 40.81 125.14 40.8 125.14 40.8 125.15 40.79 125.15 40.78 125.15 40.77 125.15 40.75 125.15 40.74 125.15 40.73 125.15 40.72 125.15 40.7 125.15 40.7 125.14 40.69 125.14 40.66 125.14 40.65 125.14 40.64 125.14 40.6 125.14 40.61 125.14 40.61 125.13 40.6 125.13 40.59 125.14 40.58 125.14 40.57 125.14 40.56 125.14 40.55 125.14 40.53 125.14 40.52 125.14 40.51 125.14 40.5 125.14 40.5 125.15 40.49 125.15 40.46 125.15 40.45 125.16 40.44 125.16 40.43 125.16 40.42 125.16 40.42 125.17 40.41 125.17 40.38 125.17 40.38 125.16 40.39 125.16 40.4 125.15 40.39 125.15 40.38 125.15 40.37 125.15 40.36 125.15 40.35 125.15 40.33 125.15 40.32 125.15 40.3 125.15 40.27 125.15 40.26 125.15 40.22 125.15 40.19 125.15 40.18 125.15 40.14 125.15 40.13 125.15 40.13 125.16 40.12 125.16 40.11 125.16 40.1 125.16 40.11 125.16 40.11 125.17 40.1 125.17 40.09 125.17 40.08 125.17 40.07 125.18 40.05 125.18"/>
<path d="M 44.38 125.18 44.37 125.18 44.36 125.18 44.36 125.17 44.37 125.17 44.4 125.16 44.4 125.17 44.39 125.17 44.38 125.18"/>
<path d="M 40 125.18 40 125.17 39.99 125.17 39.98 125.18 39.98 125.17 39.99 125.17 40 125.17 39.99 125.17 39.99 125.16 40 125.16 40 125.17 40.01 125.17 40.02 125.17 40.03 125.17 40.03 125.18 40.02 125.18 40.02 125.17 40 125.17 40 125.18"/>
<path d="M 44.1 125.19 44.08 125.19 44.08 125.18 44.09 125.18 44.1 125.18 44.12 125.17 44.13 125.17 44.14 125.18 44.11 125.18 44.1 125.19"/>
<path d="M 40.08 125.19 40.07 125.19 40.06 125.19 40.07 125.19 40.08 125.18 40.08 125.19"/>
<path d="M 40.09 125.19 40.1 125.19 40.1 125.18 40.11 125.18 40.12 125.18 40.13 125.18 40.12 125.18 40.11 125.19 40.1 125.19 40.09 125.19"/>
<path d="M 43.75 125.19 43.73 125.19 43.73 125.18 43.74 125.19 43.75 125.19"/>
<path d="M 43.77 125.2 43.76 125.2 43.75 125.2 43.75 125.19 43.76 125.19 43.77 125.19 43.78 125.19 43.78 125.2 43.77 125.2"/>
<path d="M 43.76 125.21 43.75 125.21 43.76 125.21"/>
<path d="M 44.21 125.22 44.2 125.22 44.21 125.22"/>
<path d="M 41.31 125.24 41.3 125.24 41.29 125.24 41.29 125.23 41.3 125.23 41.3 125.24 41.31 125.24"/>
<path d="M 41.26 125.25 41.27 125.25 41.27 125.24 41.28 125.24 41.29 125.24 41.29 125.25 41.28 125.25 41.27 125.25 41.26 125.25"/>
<path d="M 42.1 125.29 42.09 125.29 42.09 125.28 42.1 125.28 42.11 125.28 42.11 125.29 42.1 125.29"/>
<path d="M 41.26 125.3 41.25 125.29 41.24 125.29 41.23 125.29 41.22 125.29 41.22 125.27 41.23 125.27 41.24 125.27 41.25 125.26 41.26 125.26 41.26 125.27 41.27 125.27 41.28 125.26 41.29 125.26 41.3 125.26 41.3 125.25 41.29 125.25 41.3 125.25 41.31 125.25 41.32 125.25 41.33 125.25 41.34 125.25 41.34 125.24 41.35 125.24 41.35 125.25 41.35 125.26 41.34 125.26 41.33 125.27 41.32 125.27 41.31 125.27 41.29 125.27 41.29 125.28 41.28 125.28 41.28 125.29 41.27 125.29 41.26 125.29 41.26 125.3"/>
<path d="M 41.23 125.3 41.23 125.29 41.22 125.29 41.23 125.29 41.23 125.3"/>
<path d="M 42.16 125.3 42.15 125.3 42.16 125.3 42.17 125.3 42.16 125.3"/>
<path d="M 41.23 125.31 41.22 125.31 41.21 125.31 41.21 125.3 41.22 125.3 41.23 125.3 41.23 125.31"/>
<path d="M 41.35 125.35 41.35 125.34 41.34 125.34 41.35 125.34 41.35 125.35"/>
<path d="M 40.7 125.36 40.69 125.36 40.69 125.35 40.7 125.35 40.7 125.36"/>
<path d="M 44.19 125.25 44.17 125.25 44.16 125.25 44.15 125.25 44.14 125.25 44.13 125.25 44.12 125.25 44.11 125.25 44.1 125.25 44.09 125.25 44.08 125.25 44.08 125.24 44.07 125.24 44.06 125.24 44.06 125.23 44.05 125.23 44.05 125.22 44.05 125.21 44.04 125.21 44.03 125.21 44.02 125.21 44.01 125.21 44.02 125.21 44.02 125.2 44.03 125.2 44.04 125.19 44.04 125.18 44.02 125.18 43.99 125.18 43.98 125.18 43.97 125.19 43.96 125.19 43.94 125.19 43.93 125.19 43.92 125.19 43.92 125.2 43.91 125.2 43.9 125.2 43.89 125.2 43.88 125.2 43.88 125.21 43.87 125.21 43.86 125.21 43.86 125.22 43.85 125.22 43.84 125.22 43.83 125.23 43.81 125.23 43.8 125.23 43.76 125.23 43.74 125.23 43.73 125.22 43.72 125.22 43.72 125.21 43.71 125.21 43.69 125.21 43.68 125.21 43.69 125.21 43.69 125.2 43.7 125.2 43.7 125.19 43.69 125.19 43.68 125.19 43.67 125.19 43.65 125.19 43.64 125.19 43.64 125.2 43.63 125.2 43.62 125.2 43.61 125.21 43.61 125.2 43.6 125.2 43.6 125.21 43.6 125.2 43.59 125.2 43.59 125.21 43.57 125.21 43.55 125.21 43.53 125.21 43.52 125.21 43.51 125.21 43.51 125.2 43.5 125.19 43.49 125.19 43.49 125.18 43.49 125.17 43.5 125.17 43.51 125.17 43.52 125.17 43.51 125.17 43.5 125.17 43.49 125.17 43.48 125.16 43.47 125.16 43.46 125.16 43.46 125.17 43.45 125.17 43.44 125.18 43.43 125.18 43.41 125.18 43.4 125.18 43.39 125.19 43.38 125.19 43.37 125.19 43.36 125.19 43.35 125.19 43.34 125.2 43.33 125.2 43.33 125.21 43.32 125.21 43.31 125.21 43.3 125.21 43.28 125.21 43.27 125.22 43.26 125.22 43.25 125.22 43.24 125.22 43.23 125.22 43.22 125.22 43.21 125.22 43.19 125.23 43.17 125.23 43.17 125.22 43.16 125.22 43.15 125.22 43.14 125.22 43.12 125.22 43.12 125.23 43.11 125.23 43.1 125.23 43.08 125.23 43.07 125.23 43.07 125.24 43.04 125.24 43.03 125.24 43.02 125.23 43.01 125.23 43 125.23 42.99 125.23 42.98 125.23 42.97 125.22 42.96 125.22 42.95 125.22 42.94 125.21 42.93 125.21 42.92 125.21 42.92 125.2 42.91 125.2 42.9 125.2 42.89 125.2 42.88 125.2 42.88 125.19 42.87 125.19 42.85 125.19 42.84 125.19 42.84 125.18 42.83 125.18 42.83 125.17 42.82 125.17 42.81 125.17 42.81 125.16 42.8 125.16 42.8 125.15 42.79 125.15 42.78 125.15 42.77 125.15 42.75 125.14 42.74 125.14 42.74 125.13 42.74 125.12 42.75 125.12 42.75 125.11 42.76 125.11 42.75 125.1 42.74 125.1 42.73 125.1 42.72 125.1 42.7 125.1 42.69 125.1 42.67 125.1 42.66 125.11 42.65 125.11 42.64 125.11 42.63 125.12 42.62 125.12 42.6 125.12 42.59 125.12 42.58 125.12 42.56 125.12 42.55 125.13 42.53 125.13 42.52 125.13 42.49 125.13 42.49 125.12 42.48 125.12 42.47 125.12 42.44 125.12 42.43 125.12 42.4 125.12 42.39 125.12 42.39 125.11 42.37 125.12 42.36 125.12 42.35 125.12 42.34 125.12 42.34 125.11 42.33 125.12 42.32 125.12 42.31 125.11 42.3 125.11 42.28 125.11 42.26 125.11 42.26 125.12 42.25 125.12 42.24 125.12 42.23 125.12 42.22 125.12 42.21 125.12 42.2 125.12 42.18 125.12 42.17 125.12 42.14 125.12 42.13 125.12 42.12 125.12 42.11 125.12 42.1 125.12 42.09 125.12 42.09 125.13 42.07 125.13 42.06 125.13 42.05 125.13 42.04 125.13 42.04 125.14 42.03 125.14 42.04 125.14 42.04 125.15 42.02 125.15 42.02 125.16 42.02 125.17 42.01 125.17 42.01 125.18 42.02 125.18 42.02 125.19 42.01 125.19 42.01 125.2 42.02 125.2 42.03 125.19 42.04 125.19 42.04 125.2 42.03 125.2 42.04 125.2 42.04 125.21 42.04 125.2 42.05 125.2 42.06 125.2 42.06 125.21 42.05 125.21 42.04 125.21 42.03 125.21 42.03 125.22 42.04 125.22 42.04 125.23 42.05 125.23 42.06 125.23 42.06 125.24 42.07 125.24 42.07 125.25 42.08 125.25 42.09 125.25 42.11 125.25 42.12 125.25 42.13 125.25 42.12 125.25 42.11 125.26 42.11 125.27 42.12 125.27 42.13 125.28 42.14 125.28 42.15 125.28 42.16 125.29 42.17 125.29 42.18 125.29 42.18 125.3 42.19 125.3 42.2 125.3 42.2 125.31 42.21 125.31 42.22 125.32 42.23 125.32 42.24 125.33 42.25 125.33 42.25 125.34 42.26 125.34 42.28 125.35 42.29 125.35 42.3 125.35 42.31 125.35 42.31 125.34 42.32 125.34 42.33 125.34 42.34 125.34 42.36 125.34 42.37 125.34 42.38 125.34 42.41 125.34 42.41 125.35 42.42 125.35 42.42 125.36 42.43 125.36"/>
<path d="M 40.67 125.37 40.67 125.36 40.67 125.37"/>
<path d="M 40.67 125.37 40.66 125.37 40.67 125.37"/>
<path d="M 42.38 125.37 42.37 125.37 42.38 125.37"/>
<path d="M 40.7 125.38 40.69 125.37 40.7 125.37 40.71 125.37 40.72 125.37 40.7 125.38"/>
<path d="M 40.65 125.38 40.64 125.38 40.65 125.38 40.66 125.37 40.66 125.38 40.65 125.38"/>
<path d="M 40.8 125.39 40.8 125.38 40.81 125.38 40.8 125.38 40.8 125.39"/>
<path d="M 40.74 125.4 40.74 125.39 40.75 125.39 40.76 125.39 40.77 125.39 40.78 125.38 40.79 125.39 40.78 125.39 40.77 125.4 40.76 125.4 40.75 125.4 40.74 125.4"/>
<path d="M 40.52 125.4 40.52 125.39 40.53 125.39 40.54 125.39 40.54 125.4 40.53 125.4 40.52 125.4"/>
<path d="M 40.85 125.4 40.84 125.4 40.83 125.4 40.82 125.39 40.81 125.39 40.8 125.39 40.81 125.39 40.82 125.39 40.82 125.38 40.83 125.38 40.83 125.39 40.82 125.39 40.84 125.39 40.86 125.39 40.86 125.4 40.85 125.4"/>
<path d="M 40.86 125.4 40.87 125.4 40.86 125.4"/>
<path d="M 40.48 125.4 40.5 125.4 40.51 125.4 40.5 125.4 40.49 125.4 40.48 125.4"/>
<path d="M 42.56 125.41 42.55 125.41 42.55 125.4 42.56 125.4 42.57 125.4 42.56 125.41"/>
<path d="M 42.5 125.41 42.5 125.4 42.51 125.4 42.51 125.39 42.52 125.39 42.53 125.39 42.55 125.39 42.55 125.4 42.54 125.4 42.53 125.41 42.52 125.41 42.5 125.41"/>
<path d="M 42.59 125.42 42.58 125.42 42.58 125.41 42.59 125.41 42.59 125.42"/>
<path d="M 42.53 125.42 42.54 125.42 42.53 125.42"/>
<path d="M 42.64 125.42 42.63 125.42 42.64 125.41 42.65 125.42 42.64 125.42"/>
<path d="M 42.55 125.42 42.54 125.42 42.55 125.42 42.56 125.41 42.56 125.42 42.58 125.42 42.56 125.42 42.55 125.42"/>
<path d="M 42.62 125.42 42.61 125.42 42.62 125.41 42.62 125.42"/>
<path d="M 40.42 125.43 40.41 125.43 40.43 125.43 40.45 125.42 40.46 125.41 40.48 125.41 40.49 125.41 40.49 125.42 40.48 125.42 40.47 125.42 40.46 125.43 40.45 125.43 40.44 125.43 40.43 125.43 40.42 125.43"/>
<path d="M 42.26 125.43 42.25 125.43 42.24 125.43 42.22 125.43 42.22 125.42 42.23 125.41 42.24 125.41 42.23 125.41 42.26 125.41 42.27 125.41 42.28 125.41 42.29 125.41 42.29 125.4 42.28 125.4 42.29 125.4 42.3 125.4 42.31 125.4 42.31 125.39 42.32 125.4 42.32 125.39 42.34 125.39 42.33 125.38 42.34 125.38 42.35 125.37 42.36 125.37 42.37 125.37 42.37 125.38 42.36 125.38 42.35 125.38 42.35 125.39 42.36 125.38 42.37 125.38 42.36 125.39 42.37 125.39 42.37 125.4 42.35 125.41 42.35 125.4 42.34 125.4 42.34 125.41 42.34 125.42 42.35 125.42 42.34 125.43 42.33 125.43 42.32 125.43 42.31 125.43 42.28 125.43 42.27 125.43 42.26 125.43"/>
<path d="M 42.53 125.46 42.52 125.46 42.52 125.45 42.54 125.45 42.53 125.45 42.53 125.46"/>
<path d="M 40.46 125.46 40.45 125.46 40.46 125.46"/>
<path d="M 42.65 125.52 42.64 125.52 42.65 125.52"/>
<path d="M 40.01 125.53 40.01 125.52 40.01 125.51 40.02 125.51 40.03 125.51 40.04 125.51 40.03 125.5 40.04 125.5 40.05 125.5 40.06 125.5 40.07 125.5 40.08 125.5 40.09 125.49 40.1 125.49 40.11 125.49 40.1 125.49 40.1 125.48 40.11 125.48 40.12 125.48 40.13 125.48 40.15 125.48 40.14 125.48 40.14 125.47 40.15 125.47 40.16 125.47 40.17 125.47 40.18 125.47 40.2 125.47 40.21 125.47 40.22 125.47 40.23 125.46 40.24 125.46 40.26 125.46 40.27 125.45 40.28 125.45 40.27 125.45 40.27 125.44 40.29 125.44 40.3 125.44 40.31 125.44 40.32 125.44 40.32 125.43 40.33 125.43 40.33 125.44 40.33 125.43 40.34 125.43 40.35 125.43 40.36 125.43 40.36 125.42 40.37 125.42 40.4 125.42 40.39 125.42 40.39 125.43 40.38 125.43 40.39 125.43 40.39 125.44 40.38 125.44 40.37 125.44 40.37 125.45 40.35 125.45 40.34 125.45 40.34 125.46 40.33 125.46 40.32 125.46 40.31 125.46 40.31 125.47 40.3 125.47 40.29 125.47 40.28 125.47 40.28 125.48 40.27 125.48 40.26 125.48 40.26 125.49 40.25 125.49 40.24 125.49 40.23 125.49 40.22 125.49 40.21 125.5 40.2 125.5 40.19 125.5 40.18 125.5 40.17 125.51 40.16 125.51 40.15 125.51 40.14 125.51 40.13 125.51 40.11 125.51 40.1 125.51 40.09 125.51 40.08 125.51 40.07 125.51 40.06 125.52 40.05 125.52 40.04 125.52 40.03 125.52 40.02 125.52 40.02 125.53 40.01 125.53"/>
<path d="M 45.06 125.48 45.06 125.49 45.05 125.49 45.04 125.49 45.03 125.49 45.03 125.5 45.02 125.5 45.02 125.51 45.01 125.51 45.01 125.52 45 125.53 44.99 125.53 44.98 125.53 44.97 125.53 44.96 125.53 44.95 125.54 44.95 125.53 44.93 125.53 44.92 125.52 44.91 125.52 44.88 125.51 44.87 125.51 44.87 125.5 44.87 125.49 44.86 125.49 44.86 125.48 44.85 125.48 44.85 125.47 44.84 125.47 44.83 125.46 44.83 125.45 44.82 125.44 44.81 125.43 44.8 125.42 44.8 125.41 44.8 125.4 44.78 125.4 44.77 125.4 44.77 125.39 44.77 125.38 44.76 125.38 44.76 125.37 44.76 125.36 44.75 125.36 44.74 125.36 44.74 125.34 44.75 125.34 44.75 125.33 44.76 125.33 44.75 125.33 44.73 125.33 44.72 125.33 44.72 125.32 44.71 125.32 44.71 125.31 44.7 125.32 44.7 125.31 44.69 125.3 44.68 125.31 44.67 125.31 44.66 125.31 44.65 125.31 44.64 125.32 44.63 125.32 44.62 125.32 44.61 125.32 44.61 125.33 44.59 125.32 44.59 125.33 44.58 125.33 44.57 125.33 44.55 125.32 44.54 125.32 44.53 125.32 44.52 125.32 44.52 125.31 44.52 125.3 44.51 125.29 44.5 125.29 44.49 125.29 44.48 125.29 44.48 125.28 44.47 125.27 44.46 125.27 44.46 125.26 44.45 125.26 44.43 125.26 44.42 125.26 44.41 125.25 44.4 125.25 44.39 125.24 44.39 125.23 44.38 125.23 44.38 125.22 44.37 125.22 44.36 125.21 44.35 125.21 44.34 125.22 44.33 125.22 44.32 125.22 44.31 125.23 44.29 125.23 44.28 125.23 44.28 125.22 44.27 125.22 44.26 125.22 44.25 125.22 44.24 125.22 44.24 125.23 44.23 125.23 44.22 125.23 44.22 125.22 44.23 125.21 44.24 125.21 44.24 125.2 44.25 125.2 44.26 125.2 44.27 125.19 44.28 125.19 44.29 125.19 44.3 125.18 44.31 125.18 44.3 125.18 44.31 125.17 44.29 125.17 44.28 125.18 44.27 125.18 44.26 125.18 44.26 125.19 44.25 125.19 44.25 125.2 44.24 125.2 44.21 125.2 44.21 125.19 44.18 125.19 44.17 125.19 44.16 125.2 44.17 125.2 44.18 125.2 44.19 125.21 44.2 125.21 44.2 125.22 44.19 125.22 44.19 125.23 44.2 125.23 44.22 125.23 44.21 125.24 44.21 125.25 44.2 125.25 44.19 125.25"/>
<path d="M 42.34 125.64 42.34 125.63 42.35 125.63 42.36 125.63 42.36 125.62 42.36 125.61 42.36 125.6 42.35 125.6 42.36 125.6 42.37 125.6 42.37 125.59 42.38 125.59 42.4 125.59 42.4 125.58 42.42 125.58 42.44 125.58 42.44 125.57 42.45 125.57 42.46 125.56 42.48 125.56 42.49 125.56 42.5 125.56 42.51 125.56 42.52 125.55 42.53 125.55 42.53 125.54 42.53 125.53 42.52 125.52 42.51 125.51 42.5 125.51 42.5 125.5 42.49 125.5 42.48 125.49 42.47 125.49 42.46 125.49 42.46 125.48 42.45 125.48 42.44 125.48 42.42 125.48 42.41 125.48 42.4 125.48 42.39 125.48 42.37 125.47 42.36 125.47 42.35 125.48 42.35 125.49 42.35 125.5 42.36 125.5 42.35 125.5 42.34 125.5 42.33 125.49 42.32 125.49 42.31 125.49 42.3 125.5 42.3 125.49 42.29 125.49 42.29 125.48 42.3 125.48 42.29 125.47 42.28 125.47 42.27 125.47 42.26 125.47 42.26 125.46 42.25 125.45 42.24 125.45 42.23 125.44 42.22 125.44 42.21 125.44 42.2 125.44 42.19 125.44 42.19 125.43 42.2 125.43 42.2 125.42 42.21 125.42 42.2 125.41 42.19 125.41 42.17 125.42 42.16 125.42 42.16 125.41 42.15 125.41 42.14 125.41 42.14 125.4 42.13 125.4 42.13 125.39 42.13 125.38 42.13 125.37 42.12 125.37 42.11 125.37 42.1 125.36 42.09 125.36 42.09 125.35 42.09 125.34 42.08 125.33 42.09 125.33 42.08 125.33 42.08 125.32 42.07 125.32 42.06 125.32 42.06 125.31 42.06 125.3 42.06 125.29 42.07 125.29 42.07 125.28 42.06 125.28 42.06 125.27 42.05 125.28 42.04 125.28 42.03 125.28 42.02 125.28 42.02 125.27 42.01 125.27 42.01 125.26 42.02 125.26 42.01 125.25 42 125.24 41.99 125.23 41.98 125.23 41.97 125.22 41.97 125.23 41.96 125.23 41.95 125.23 41.95 125.22 41.94 125.21 41.93 125.2 41.92 125.2 41.93 125.2 41.93 125.19 41.94 125.19 41.94 125.18 41.94 125.17 41.93 125.17 41.92 125.18 41.91 125.18 41.9 125.18 41.89 125.18 41.89 125.17 41.88 125.17 41.87 125.17 41.86 125.17 41.85 125.17 41.84 125.18 41.81 125.18 41.8 125.18 41.79 125.19 41.78 125.19 41.77 125.19 41.76 125.19 41.75 125.19 41.74 125.19 41.73 125.19 41.73 125.2 41.71 125.2 41.7 125.21 41.7 125.22 41.7 125.23 41.69 125.23 41.68 125.22 41.67 125.22 41.68 125.22 41.68 125.23 41.67 125.23 41.65 125.23 41.64 125.23 41.64 125.24 41.63 125.24 41.62 125.24 41.61 125.24 41.6 125.25 41.59 125.25 41.59 125.26 41.57 125.26 41.55 125.26 41.54 125.26 41.53 125.26 41.52 125.26 41.51 125.26 41.5 125.26 41.49 125.26 41.47 125.27 41.47 125.26 41.46 125.26 41.45 125.26 41.45 125.27 41.44 125.28 41.43 125.28 41.42 125.28 41.41 125.28 41.4 125.28 41.4 125.29 41.39 125.29 41.38 125.3 41.37 125.3 41.36 125.31 41.37 125.32 41.38 125.32 41.38 125.33 41.39 125.33 41.39 125.34 41.38 125.34 41.39 125.34 41.39 125.35 41.38 125.35 41.37 125.35 41.37 125.36 41.36 125.36 41.35 125.36 41.34 125.36 41.33 125.36 41.34 125.36 41.35 125.36 41.36 125.36 41.37 125.36 41.38 125.36 41.38 125.37 41.37 125.37 41.37 125.38 41.36 125.38 41.35 125.38 41.35 125.39 41.36 125.39 41.37 125.39 41.37 125.4 41.38 125.4 41.37 125.41 41.36 125.4 41.37 125.41 41.38 125.41 41.38 125.42 41.39 125.42 41.4 125.42 41.4 125.43 41.39 125.43 41.38 125.43 41.37 125.43 41.37 125.44 41.38 125.44 41.37 125.44 41.38 125.44 41.38 125.45 41.4 125.45 41.41 125.45 41.43 125.45 41.45 125.45 41.47 125.45 41.48 125.46 41.49 125.46 41.5 125.46 41.5 125.47 41.51 125.47 41.53 125.47 41.52 125.47 41.52 125.48 41.53 125.49 41.54 125.49 41.55 125.5 41.55 125.51 41.54 125.51 41.54 125.52 41.53 125.52 41.52 125.52 41.52 125.53 41.53 125.53 41.52 125.53 41.52 125.54 41.53 125.54 41.51 125.54 41.5 125.54 41.51 125.54 41.51 125.55 41.51 125.56 41.52 125.56 41.53 125.56 41.53 125.57 41.54 125.57 41.53 125.57 41.53 125.58 41.52 125.58 41.51 125.58 41.52 125.59 41.53 125.59 41.55 125.59 41.56 125.59 41.56 125.6 41.57 125.6 41.58 125.6 41.58 125.61 41.59 125.61 41.6 125.61 41.6 125.62 41.61 125.62 41.61 125.63 41.61 125.64 41.62 125.64 41.62 125.65 41.63 125.65 41.65 125.65"/>
<path d="M 42.43 125.36 42.45 125.36 42.47 125.36 42.48 125.37 42.49 125.37 42.5 125.37 42.52 125.37 42.53 125.37 42.54 125.37 42.55 125.38 42.56 125.38 42.57 125.38 42.57 125.39 42.58 125.38 42.59 125.38 42.6 125.39 42.6 125.4 42.61 125.4 42.62 125.4 42.62 125.41 42.63 125.41 42.65 125.41 42.65 125.42 42.66 125.42 42.66 125.43 42.65 125.42 42.63 125.42 42.63 125.43 42.62 125.43 42.61 125.43 42.61 125.44 42.61 125.45 42.61 125.46 42.6 125.46 42.59 125.45 42.58 125.45 42.57 125.46 42.56 125.46 42.57 125.46 42.58 125.47 42.59 125.47 42.6 125.47 42.6 125.48 42.61 125.48 42.61 125.49 42.6 125.49 42.61 125.49 42.62 125.49 42.61 125.49 42.62 125.49 42.63 125.49 42.64 125.49 42.65 125.5 42.66 125.5 42.67 125.5 42.68 125.5 42.69 125.5 42.7 125.5 42.69 125.51 42.68 125.51 42.67 125.51 42.66 125.51 42.66 125.52 42.67 125.52 42.68 125.52 42.68 125.53 42.68 125.52 42.69 125.52 42.69 125.53 42.7 125.53 42.74 125.53 42.75 125.53 42.76 125.53 42.76 125.54 42.76 125.55 42.75 125.55 42.74 125.55 42.73 125.55 42.72 125.56 42.71 125.56 42.7 125.56 42.69 125.56 42.68 125.56 42.68 125.57 42.67 125.57 42.66 125.57 42.65 125.57 42.65 125.58 42.64 125.58 42.64 125.59 42.65 125.59 42.65 125.6 42.66 125.6 42.68 125.6 42.69 125.6 42.69 125.61 42.68 125.61 42.69 125.61 42.71 125.62 42.72 125.62 42.73 125.62 42.73 125.61 42.77 125.61 42.79 125.61 42.8 125.61 42.79 125.61 42.81 125.61 42.82 125.61 42.83 125.6 42.83 125.61 42.82 125.62 42.81 125.62 42.8 125.62 42.79 125.62 42.79 125.63 42.77 125.63 42.76 125.63 42.75 125.63 42.75 125.64 42.74 125.64 42.73 125.64 42.72 125.64 42.71 125.64 42.7 125.65 42.69 125.65 42.68 125.65 42.67 125.65 42.66 125.65 42.66 125.66 42.67 125.66 42.66 125.66 42.66 125.67 42.65 125.67 42.64 125.67 42.63 125.67 42.62 125.67 42.61 125.67 42.62 125.68 42.61 125.68 42.61 125.67 42.6 125.67 42.59 125.67 42.6 125.68 42.59 125.68 42.58 125.68 42.57 125.68 42.56 125.68 42.55 125.68 42.54 125.68 42.53 125.68 42.52 125.68 42.52 125.69 42.51 125.69 42.5 125.69 42.48 125.69 42.46 125.69 42.45 125.69 42.45 125.7 42.43 125.7 42.42 125.7 42.42 125.69 42.41 125.7 42.4 125.7 42.39 125.7 42.38 125.7 42.37 125.71 42.37 125.7 42.36 125.69 42.35 125.69 42.34 125.7 42.34 125.69 42.36 125.69 42.37 125.69 42.37 125.68 42.37 125.67 42.36 125.67 42.35 125.67 42.33 125.67 42.33 125.68 42.32 125.67 42.31 125.67 42.32 125.67 42.31 125.67 42.31 125.66 42.32 125.66 42.31 125.66 42.31 125.65 42.32 125.65 42.33 125.65 42.33 125.64 42.34 125.64"/>
<path d="M 41.2 125.77 41.21 125.77 41.22 125.76 41.23 125.76 41.23 125.77 41.22 125.77 41.2 125.77"/>
<path d="M 41.12 125.82 41.11 125.81 41.11 125.8 41.11 125.79 41.12 125.78 41.12 125.77 41.13 125.77 41.14 125.77 41.15 125.77 41.15 125.76 41.16 125.76 41.17 125.76 41.18 125.76 41.18 125.75 41.19 125.75 41.2 125.75 41.2 125.74 41.21 125.74 41.21 125.73 41.22 125.73 41.24 125.73 41.24 125.72 41.25 125.71 41.24 125.71 41.24 125.7 41.23 125.69 41.22 125.69 41.21 125.69 41.2 125.69 41.21 125.68 41.2 125.68 41.18 125.68 41.16 125.68 41.16 125.67 41.15 125.67 41.15 125.66 41.16 125.66 41.17 125.66 41.16 125.65 41.17 125.65 41.18 125.65 41.18 125.64 41.19 125.64 41.2 125.64 41.21 125.64 41.21 125.63 41.22 125.63 41.22 125.62 41.21 125.62 41.2 125.62 41.19 125.62 41.16 125.62 41.15 125.62 41.16 125.61 41.17 125.61 41.17 125.6 41.16 125.6 41.15 125.6 41.14 125.61 41.14 125.6 41.15 125.6 41.15 125.59 41.14 125.59 41.13 125.59 41.13 125.58 41.12 125.58 41.12 125.57 41.13 125.57 41.13 125.56 41.12 125.57 41.11 125.57 41.1 125.57 41.09 125.57 41.08 125.57 41.07 125.57 41.06 125.57 41.06 125.56 41.05 125.56 41.04 125.57 41.03 125.57 41.02 125.57 41.02 125.56 41.03 125.55 41.03 125.54 41.03 125.53 41.03 125.52 41.02 125.52 41.01 125.52 41.02 125.51 41.01 125.51 41.01 125.5 41 125.5 40.99 125.5 41 125.49 41 125.48 40.99 125.48 40.98 125.48 40.98 125.47 40.99 125.47 40.99 125.46 40.99 125.45 40.99 125.44 40.98 125.44 40.97 125.44 40.97 125.45 40.96 125.45 40.95 125.45 40.94 125.45 40.93 125.45 40.92 125.45 40.91 125.45 40.9 125.45 40.89 125.45 40.89 125.44 40.88 125.44 40.87 125.44 40.87 125.45 40.87 125.44 40.86 125.44 40.86 125.43 40.85 125.43 40.84 125.43 40.83 125.42 40.82 125.42 40.83 125.42 40.84 125.41 40.83 125.41 40.82 125.41 40.81 125.41 40.79 125.41 40.78 125.42 40.77 125.42 40.77 125.41 40.76 125.41 40.75 125.41 40.72 125.41 40.69 125.41 40.68 125.41 40.67 125.41 40.65 125.41 40.64 125.41 40.64 125.42 40.63 125.42 40.62 125.42 40.62 125.43 40.61 125.43 40.6 125.43 40.58 125.43 40.57 125.43 40.56 125.44 40.55 125.44 40.55 125.45 40.54 125.44 40.53 125.44 40.53 125.45 40.51 125.45 40.5 125.45 40.49 125.45 40.49 125.46 40.48 125.46 40.47 125.46 40.46 125.46 40.45 125.46 40.44 125.46 40.43 125.46 40.42 125.46 40.41 125.46 40.4 125.46 40.39 125.46 40.39 125.47 40.38 125.47 40.37 125.47 40.36 125.48 40.35 125.48 40.34 125.48 40.33 125.49 40.33 125.48 40.34 125.48 40.32 125.48 40.31 125.48 40.3 125.49 40.31 125.49 40.32 125.49 40.33 125.49 40.3 125.49 40.28 125.5 40.27 125.5 40.26 125.5 40.25 125.5 40.23 125.5 40.23 125.51 40.22 125.51 40.2 125.51 40.19 125.52 40.18 125.52 40.17 125.52 40.17 125.53 40.16 125.53 40.15 125.53 40.14 125.53 40.14 125.54 40.13 125.54 40.11 125.54 40.11 125.55 40.1 125.55 40.09 125.55 40.07 125.55 40.06 125.55 40.04 125.56 40.04 125.57 40.03 125.57 40.02 125.57 40 125.57 39.99 125.57 39.98 125.57 39.97 125.57 39.97 125.58 39.96 125.58 39.97 125.59 39.96 125.59 39.95 125.6 39.95 125.61 39.94 125.61 39.93 125.61 39.92 125.61 39.92 125.62 39.93 125.63 39.92 125.63 39.91 125.63 39.9 125.63 39.9 125.64 39.89 125.64 39.88 125.64 39.88 125.65 39.89 125.65 39.9 125.65 39.9 125.66 39.89 125.66 39.88 125.67 39.87 125.67 39.88 125.67 39.88 125.68 39.87 125.68 39.88 125.69 39.89 125.69 39.9 125.69 39.91 125.69 39.91 125.7 39.91 125.71 39.9 125.72 39.89 125.72 39.89 125.73 39.9 125.72 39.9 125.73 39.91 125.73 39.92 125.74 39.94 125.74 39.94 125.75 39.94 125.76 39.93 125.76 39.93 125.75 39.93 125.76 39.94 125.76 39.93 125.76 39.92 125.76 39.92 125.77 39.91 125.77 39.91 125.78 39.92 125.78 39.94 125.78 39.95 125.78 39.96 125.77 39.96 125.78 39.97 125.78 39.97 125.79 39.96 125.79 39.96 125.8 39.95 125.8 39.94 125.8 39.94 125.81 39.92 125.81 39.93 125.82 39.92 125.82 39.91 125.82 39.91 125.83"/>
<path d="M 41.23 125.93 41.22 125.93 41.21 125.93 41.21 125.92 41.22 125.92 41.23 125.92 41.23 125.91 41.24 125.91 41.24 125.92 41.23 125.92 41.23 125.93"/>
<path d="M 41.19 125.95 41.18 125.95 41.18 125.94 41.2 125.94 41.2 125.95 41.19 125.95"/>
<path d="M 41.31 126.04 41.31 126.03 41.31 126.04"/>
<path d="M 41.3 126.04 41.29 126.04 41.3 126.04"/>
<path d="M 41.27 126.04 41.28 126.04 41.27 126.04"/>
<path d="M 44.72 126.12 44.71 126.12 44.71 126.11 44.72 126.11 44.72 126.12"/>
<path d="M 43.7 126.14 43.69 126.14 43.69 126.13 43.7 126.13 43.7 126.14"/>
<path d="M 42.85 126.16 42.84 126.16 42.83 126.16 42.84 126.16 42.85 126.16 42.86 126.16 42.85 126.16"/>
<path d="M 42.91 126.16 42.89 126.17 42.89 126.16 42.9 126.16 42.91 126.16 42.92 126.16 42.94 126.15 42.95 126.15 42.95 126.16 42.93 126.16 42.92 126.16 42.91 126.16"/>
<path d="M 43.23 126.17 43.22 126.17 43.22 126.16 43.23 126.16 43.24 126.16 43.23 126.17"/>
<path d="M 43.17 126.19 43.17 126.18 43.18 126.18 43.19 126.18 43.19 126.19 43.18 126.19 43.17 126.19"/>
<path d="M 41.65 125.65 41.66 125.66 41.68 125.66 41.69 125.66 41.7 125.66 41.71 125.66 41.72 125.67 41.74 125.67 41.75 125.67 41.76 125.67 41.76 125.68 41.77 125.68 41.78 125.68 41.79 125.69 41.79 125.7 41.8 125.7 41.81 125.7 41.81 125.71 41.82 125.71 41.84 125.71 41.85 125.71 41.86 125.72 41.87 125.72 41.89 125.72 41.89 125.73 41.9 125.73 41.9 125.74 41.93 125.74 41.94 125.75 41.95 125.75 41.95 125.76 41.95 125.77 41.94 125.77 41.94 125.78 41.93 125.78 41.93 125.79 41.94 125.8 41.94 125.82 41.94 125.83 41.94 125.84 41.93 125.84 41.94 125.84 41.94 125.85 41.94 125.86 41.95 125.87 41.96 125.88 41.96 125.89 41.96 125.9 41.95 125.9 41.95 125.91 41.94 125.91 41.93 125.92 41.93 125.93 41.93 125.94 41.92 125.94 41.92 125.95 41.91 125.95 41.9 125.95 41.9 125.96 41.89 125.96 41.9 125.97 41.89 125.97 41.88 125.97 41.87 125.97 41.87 125.98 41.86 125.98 41.86 125.99 41.85 125.99 41.84 125.99 41.84 126 41.83 126 41.81 126 41.82 126 41.82 126.01 41.83 126.02 41.84 126.03 41.85 126.03 41.85 126.04 41.85 126.05 41.84 126.05 41.85 126.05 41.87 126.05 41.87 126.06 41.88 126.06 41.89 126.06 41.89 126.07 41.89 126.06 41.9 126.06 41.91 126.06 41.92 126.06 41.93 126.06 41.94 126.06 41.95 126.06 41.96 126.06 41.97 126.07 41.98 126.07 41.99 126.08 42 126.08 42.01 126.08 42.02 126.08 42.03 126.08 42.04 126.08 42.04 126.09 42.06 126.09 42.06 126.1 42.07 126.1 42.08 126.1 42.1 126.1 42.11 126.1 42.11 126.11 42.12 126.12 42.12 126.11 42.14 126.11 42.15 126.11 42.15 126.12 42.16 126.12 42.16 126.13 42.17 126.13 42.18 126.14 42.19 126.14 42.2 126.14 42.21 126.14 42.23 126.14 42.23 126.15 42.24 126.15 42.25 126.15 42.26 126.15 42.27 126.16 42.29 126.15 42.3 126.15 42.31 126.15 42.32 126.16 42.33 126.16 42.34 126.16 42.35 126.16 42.36 126.16 42.37 126.18 42.39 126.18 42.39 126.19 42.4 126.19 42.41 126.19 42.42 126.19 42.44 126.19 42.45 126.19 42.45 126.2 42.46 126.2 42.48 126.2 42.5 126.2 42.51 126.2 42.52 126.2 42.53 126.21"/>
<path d="M 40.17 126.28 40.18 126.27 40.19 126.28"/>
<path d="M 42.04 126.28 42.04 126.27 42.03 126.27 42.04 126.26 42.03 126.26 42.02 126.27 42.02 126.26 42.02 126.25 42.01 126.25 42 126.26 41.99 126.26 41.98 126.25 41.97 126.25 41.96 126.25 41.95 126.25 41.95 126.24 41.93 126.25 41.93 126.24 41.92 126.24 41.91 126.24 41.9 126.23 41.89 126.23 41.88 126.23 41.84 126.23 41.83 126.23 41.82 126.23 41.81 126.23 41.81 126.22 41.79 126.22 41.78 126.21 41.78 126.22 41.77 126.21 41.75 126.21 41.74 126.21 41.7 126.21 41.69 126.21 41.68 126.2 41.67 126.19 41.66 126.19 41.66 126.2 41.64 126.19 41.63 126.19 41.62 126.19 41.62 126.18 41.61 126.18 41.61 126.17 41.6 126.17 41.59 126.17 41.58 126.16 41.59 126.16 41.59 126.15 41.58 126.15 41.59 126.15 41.6 126.15 41.6 126.14 41.59 126.14 41.59 126.13 41.58 126.13 41.57 126.13 41.56 126.12 41.55 126.11 41.54 126.11 41.54 126.1 41.53 126.1 41.51 126.1 41.51 126.09 41.5 126.08 41.49 126.08 41.48 126.07 41.46 126.07 41.45 126.07 41.44 126.07 41.43 126.07 41.42 126.07 41.41 126.07 41.4 126.07 41.39 126.07 41.38 126.07 41.37 126.07 41.36 126.08 41.34 126.08 41.33 126.07 41.32 126.07 41.31 126.07 41.3 126.07 41.3 126.06 41.29 126.06 41.28 126.06 41.28 126.05 41.26 126.05 41.27 126.05 41.27 126.04 41.25 126.04 41.24 126.04 41.23 126.04 41.22 126.04 41.22 126.03 41.21 126.03 41.21 126.02 41.22 126.02 41.22 126.01 41.22 126 41.21 126 41.2 126.01 41.18 126.01 41.18 126 41.17 126.01 41.16 126 41.17 126 41.17 125.99 41.16 125.99 41.17 125.99 41.16 125.99 41.16 125.98 41.15 125.98 41.15 125.97 41.16 125.97 41.16 125.96 41.17 125.96 41.18 125.96 41.18 125.95 41.17 125.95 41.16 125.95 41.15 125.95 41.14 125.95 41.14 125.94 41.13 125.94 41.14 125.94 41.15 125.94 41.16 125.94 41.17 125.94 41.17 125.93 41.18 125.93 41.17 125.93 41.16 125.93 41.16 125.92 41.15 125.92 41.14 125.92 41.13 125.92 41.12 125.92 41.11 125.92 41.1 125.92 41.09 125.92 41.08 125.92 41.07 125.92 41.08 125.93 41.09 125.93 41.08 125.93 41.07 125.93 41.06 125.93 41.05 125.93 41.04 125.93 41.04 125.92 41.06 125.92 41.07 125.92 41.07 125.91 41.09 125.91 41.09 125.9 41.07 125.9 41.06 125.9 41.07 125.9 41.07 125.89 41.08 125.89 41.1 125.89 41.11 125.88 41.11 125.87 41.12 125.87 41.11 125.87 41.11 125.86 41.12 125.86 41.11 125.86 41.1 125.86 41.1 125.85 41.11 125.85 41.11 125.84 41.12 125.84 41.12 125.83 41.12 125.82"/>
<path d="M 42.53 126.21 42.54 126.21 42.55 126.21 42.56 126.21 42.57 126.2 42.58 126.2 42.59 126.2 42.6 126.2 42.6 126.19 42.61 126.19 42.62 126.19 42.65 126.18 42.66 126.18 42.66 126.17 42.67 126.17 42.68 126.17 42.69 126.17 42.71 126.17 42.71 126.16 42.72 126.16 42.74 126.16 42.75 126.16 42.75 126.15 42.76 126.15 42.76 126.14 42.77 126.14 42.78 126.14 42.79 126.14 42.8 126.14 42.8 126.13 42.81 126.13 42.82 126.13 42.82 126.12 42.83 126.12 42.84 126.12 42.84 126.11 42.85 126.11 42.88 126.12 42.89 126.12 42.9 126.12 42.94 126.12 42.96 126.12 42.97 126.12 42.97 126.13 42.98 126.13 42.99 126.12 43 126.12 43.01 126.12 43.02 126.12 43.03 126.12 43.05 126.12 43.06 126.12 43.07 126.12 43.08 126.13 43.08 126.14 43.07 126.14 43.08 126.14 43.08 126.15 43.09 126.15 43.09 126.16 43.1 126.16 43.11 126.16 43.11 126.18 43.12 126.18 43.11 126.18 43.12 126.17 43.11 126.17 43.12 126.17 43.14 126.16 43.15 126.16 43.16 126.16 43.17 126.16 43.18 126.16 43.2 126.16 43.21 126.15 43.24 126.15 43.24 126.16 43.23 126.16 43.24 126.16 43.25 126.16 43.28 126.16 43.3 126.16 43.31 126.15 43.33 126.16 43.34 126.16 43.35 126.16 43.36 126.16 43.37 126.16 43.38 126.16 43.39 126.16 43.4 126.16 43.41 126.16 43.43 126.15 43.44 126.15 43.45 126.15 43.48 126.15 43.52 126.15 43.53 126.15 43.54 126.15 43.55 126.15 43.56 126.14 43.57 126.14 43.58 126.14 43.61 126.14 43.62 126.14 43.64 126.14 43.65 126.14 43.67 126.13 43.68 126.13 43.7 126.13 43.71 126.13 43.72 126.13 43.72 126.12 43.73 126.12 43.74 126.12 43.75 126.12 43.75 126.11 43.77 126.11 43.78 126.11 43.79 126.11 43.81 126.11 43.82 126.11 43.82 126.1 43.83 126.1 43.84 126.1 43.85 126.1 43.86 126.1 43.87 126.1 43.88 126.1 43.89 126.11 43.9 126.11 43.9 126.1 43.92 126.1 43.92 126.11 43.93 126.11 43.94 126.11 43.97 126.11 43.98 126.12 43.99 126.12 43.99 126.13 44 126.13 43.99 126.13 43.98 126.13 43.97 126.13 43.97 126.14 43.96 126.14 43.95 126.14 43.94 126.15 43.93 126.15 43.92 126.15 43.91 126.15 43.91 126.14 43.91 126.15 43.9 126.15 43.89 126.15 43.88 126.15 43.88 126.16 43.87 126.16 43.86 126.16 43.85 126.16 43.84 126.16 43.83 126.16 43.83 126.17 43.82 126.17 43.81 126.17 43.8 126.17 43.79 126.17 43.78 126.17 43.76 126.17 43.75 126.17 43.73 126.17 43.73 126.18 43.74 126.18 43.75 126.18 43.76 126.17 43.76 126.18 43.75 126.18 43.74 126.18 43.74 126.19 43.73 126.19 43.72 126.19 43.71 126.19 43.7 126.19 43.69 126.19 43.68 126.19 43.64 126.2 43.62 126.2 43.6 126.21 43.59 126.21 43.57 126.21 43.55 126.21 43.54 126.21 43.53 126.21 43.52 126.21 43.51 126.21 43.49 126.21 43.48 126.21 43.47 126.21 43.45 126.21 43.44 126.21 43.43 126.21 43.42 126.21 43.39 126.21 43.36 126.21 43.34 126.21 43.32 126.21 43.31 126.2 43.3 126.2 43.24 126.2 43.21 126.2 43.2 126.2 43.19 126.2 43.18 126.2 43.17 126.2 43.16 126.2 43.15 126.2 43.14 126.21 43.15 126.2 43.15 126.19 43.14 126.18 43.13 126.18 43.12 126.19 43.11 126.19 43.1 126.19 43.09 126.19 43.04 126.19 43.03 126.2 43.01 126.2 43 126.2 42.98 126.2 42.97 126.2 42.97 126.21 42.96 126.21 42.95 126.21 42.92 126.21 42.9 126.21 42.88 126.21 42.87 126.21 42.85 126.21 42.84 126.21 42.83 126.21 42.81 126.21 42.81 126.22 42.8 126.22 42.8 126.23 42.8 126.24 42.79 126.24 42.79 126.25 42.78 126.25 42.77 126.25 42.76 126.25 42.76 126.26 42.75 126.26 42.74 126.26 42.73 126.27 42.72 126.27 42.71 126.28"/>
<path d="M 43.98 126.28 43.99 126.28 43.99 126.27 44 126.27 44.01 126.27 44.01 126.26 44.02 126.26 44.03 126.26 44.04 126.25 44.05 126.25 44.06 126.25 44.07 126.24 44.08 126.24 44.1 126.24 44.11 126.24 44.12 126.24 44.13 126.23 44.14 126.23 44.14 126.22 44.15 126.22 44.16 126.22 44.17 126.21 44.18 126.21 44.19 126.21 44.2 126.2 44.22 126.2 44.23 126.2 44.24 126.2 44.24 126.19 44.26 126.19 44.27 126.19 44.29 126.19 44.3 126.19 44.31 126.18 44.32 126.18 44.33 126.18 44.34 126.18 44.34 126.17 44.35 126.17 44.36 126.17 44.37 126.17 44.38 126.16 44.39 126.16 44.4 126.16 44.42 126.15 44.43 126.15 44.44 126.15 44.44 126.14 44.45 126.14 44.46 126.14 44.47 126.14 44.48 126.13 44.49 126.12 44.5 126.12 44.51 126.12 44.53 126.12 44.55 126.12 44.55 126.11 44.56 126.11 44.58 126.11 44.6 126.11 44.61 126.11 44.62 126.11 44.63 126.11 44.64 126.1 44.65 126.1 44.66 126.1 44.67 126.1 44.68 126.1 44.71 126.1 44.7 126.1 44.7 126.11 44.71 126.11 44.72 126.11 44.73 126.1 44.73 126.11 44.74 126.11 44.73 126.11 44.73 126.12 44.74 126.12 44.73 126.12 44.74 126.12 44.74 126.13 44.73 126.13 44.72 126.13 44.72 126.14 44.7 126.14 44.7 126.15 44.68 126.15 44.67 126.15 44.66 126.15 44.65 126.16 44.64 126.16 44.63 126.16 44.61 126.16 44.61 126.17 44.6 126.17 44.59 126.17 44.57 126.17 44.57 126.18 44.56 126.18 44.54 126.18 44.53 126.19 44.52 126.18 44.52 126.19 44.51 126.19 44.5 126.19 44.49 126.2 44.48 126.2 44.46 126.2 44.45 126.2 44.45 126.21 44.43 126.21 44.42 126.21 44.41 126.21 44.41 126.22 44.4 126.22 44.39 126.22 44.38 126.22 44.38 126.23 44.36 126.23 44.35 126.23 44.35 126.24 44.34 126.24 44.33 126.24 44.32 126.24 44.31 126.25 44.28 126.25 44.27 126.25 44.26 126.25 44.26 126.26 44.25 126.26 44.25 126.27 44.24 126.27 44.23 126.28"/>
<path d="M 40.27 126.35 40.26 126.35 40.25 126.34 40.25 126.35 40.24 126.35 40.24 126.34 40.25 126.34 40.26 126.34 40.27 126.34 40.28 126.34 40.28 126.35 40.27 126.35"/>
<path d="M 40.05 126.48 40.04 126.48 40.03 126.48 40.03 126.47 40.04 126.47 40.06 126.47 40.07 126.47 40.08 126.47 40.08 126.46 40.09 126.46 40.1 126.46 40.1 126.47 40.08 126.47 40.07 126.48 40.05 126.48"/>
<path d="M 39.99 126.49 39.99 126.48 40.01 126.48 40 126.49 39.99 126.49"/>
<path d="M 42.34 127.9 42.33 127.9 42.33 127.89 42.34 127.89 42.34 127.88 42.35 127.88 42.36 127.88 42.36 127.87 42.37 127.87 42.37 127.88 42.37 127.89 42.36 127.89 42.35 127.89 42.34 127.9"/>
<path d="M 44.36 128.77 44.36 128.78 44.36 128.77"/>
<path d="M 42.71 126.28 42.7 126.28 42.69 126.29 42.68 126.29 42.68 126.3 42.68 126.31 42.67 126.3 42.67 126.31 42.65 126.31 42.65 126.32 42.65 126.33 42.66 126.33 42.67 126.34 42.68 126.34 42.69 126.34 42.71 126.34 42.71 126.35 42.72 126.35 42.73 126.35 42.73 126.36 42.76 126.36 42.77 126.36 42.78 126.36 42.79 126.36 42.8 126.37 42.82 126.37 42.83 126.37 42.83 126.38 42.84 126.38 42.84 126.39 42.84 126.4 42.85 126.4 42.85 126.41 42.86 126.41 42.85 126.41 42.86 126.41 42.86 126.42 42.87 126.42 42.88 126.42 42.88 126.43 42.89 126.44 42.9 126.44 42.9 126.45"/>
<path d="M 44.23 126.28 44.22 126.28 44.22 126.29 44.2 126.29 44.19 126.29 44.18 126.29 44.17 126.3 44.16 126.3 44.15 126.3 44.14 126.3 44.14 126.31 44.13 126.31 44.12 126.31 44.12 126.32 44.11 126.32 44.1 126.32 44.09 126.32 44.08 126.32 44.06 126.32 44.07 126.32 44.07 126.31 44.06 126.31 44.06 126.32 44.05 126.32 44.04 126.32 44.03 126.33 44.01 126.33 43.98 126.33 43.98 126.34 43.97 126.34 43.97 126.35 43.96 126.35 43.95 126.36 43.94 126.36 43.93 126.36 43.92 126.36 43.92 126.37 43.91 126.37 43.9 126.37 43.9 126.38 43.89 126.38 43.89 126.39 43.88 126.39 43.87 126.39 43.86 126.39 43.85 126.4 43.83 126.4 43.82 126.4 43.81 126.4 43.82 126.41 43.82 126.42 43.82 126.43 43.81 126.43 43.81 126.44 43.8 126.44 43.79 126.44 43.8 126.45 43.8 126.46 43.8 126.47 43.8 126.48"/>
<path d="M 43.32 126.48 43.33 126.48 43.33 126.47 43.34 126.47 43.35 126.47 43.37 126.47 43.37 126.46 43.39 126.46 43.4 126.46 43.41 126.45 43.42 126.45 43.43 126.45 43.43 126.44 43.44 126.44 43.45 126.44 43.46 126.44 43.47 126.43 43.48 126.43 43.49 126.43 43.51 126.42 43.52 126.42 43.52 126.41 43.53 126.41 43.54 126.41 43.55 126.41 43.56 126.4 43.57 126.4 43.57 126.39 43.58 126.39 43.59 126.39 43.6 126.39 43.61 126.39 43.61 126.38 43.62 126.38 43.63 126.38 43.63 126.37 43.64 126.37 43.66 126.37 43.68 126.37 43.69 126.37 43.7 126.37 43.7 126.36 43.71 126.36 43.72 126.36 43.73 126.36 43.74 126.36 43.75 126.37 43.76 126.37 43.76 126.38 43.78 126.38 43.79 126.38 43.8 126.38 43.8 126.37 43.79 126.37 43.78 126.37 43.78 126.36 43.77 126.36 43.76 126.36 43.75 126.36 43.74 126.35 43.75 126.35 43.76 126.35 43.76 126.34 43.77 126.34 43.77 126.33 43.78 126.33 43.79 126.33 43.8 126.33 43.82 126.32 43.83 126.32 43.86 126.31 43.87 126.31 43.88 126.31 43.89 126.3 43.9 126.3 43.91 126.29 43.92 126.29 43.93 126.29 43.94 126.29 43.94 126.3 43.95 126.3 43.95 126.31 43.96 126.31 43.97 126.32 43.98 126.31 43.98 126.3 43.97 126.3 43.96 126.3 43.95 126.29 43.96 126.29 43.96 126.28 43.97 126.28 43.98 126.28"/>
<path d="M 43.88 126.5 43.88 126.49 43.88 126.5"/>
<path d="M 43.69 126.51 43.68 126.51 43.67 126.51 43.66 126.51 43.66 126.5 43.67 126.5 43.69 126.5 43.69 126.49 43.7 126.49 43.71 126.49 43.71 126.5 43.7 126.5 43.69 126.51"/>
<path d="M 42.9 126.45 42.91 126.45 42.91 126.46 42.93 126.46 42.95 126.46 42.96 126.47 42.96 126.48 42.97 126.48 42.98 126.49 42.98 126.5 42.98 126.51 42.99 126.51 42.99 126.52 43 126.52 43.02 126.52 43.03 126.52 43.03 126.51 43.03 126.52 43.04 126.52 43.06 126.52 43.08 126.52 43.09 126.52 43.1 126.52 43.11 126.52 43.12 126.52 43.12 126.51 43.13 126.51 43.15 126.51 43.16 126.51 43.17 126.51 43.17 126.5 43.19 126.5 43.2 126.5 43.21 126.49 43.23 126.49 43.24 126.49 43.25 126.49 43.26 126.49 43.27 126.48 43.28 126.48 43.29 126.48 43.3 126.48 43.31 126.47 43.32 126.47 43.32 126.48"/>
<path d="M 43.8 126.48 43.79 126.48 43.79 126.49 43.78 126.49 43.77 126.49 43.77 126.5 43.76 126.5 43.75 126.5 43.75 126.51 43.76 126.51 43.78 126.51 43.79 126.51 43.8 126.51 43.8 126.5 43.81 126.5 43.83 126.5 43.84 126.5 43.85 126.5 43.87 126.5 43.88 126.5 43.89 126.49 43.91 126.5 43.92 126.5 43.93 126.5 43.94 126.49 43.95 126.49 43.95 126.5 43.96 126.5 43.97 126.5 43.98 126.5 43.98 126.51 43.99 126.51 44 126.51 44.01 126.51 44.01 126.52 44.02 126.52 44.03 126.52 44.04 126.52 44.05 126.52 44.06 126.52 44.06 126.53 44.07 126.53 44.07 126.52 44.1 126.52 44.12 126.52 44.14 126.52 44.15 126.51 44.16 126.51 44.17 126.51 44.18 126.5 44.19 126.5 44.2 126.5 44.21 126.5 44.21 126.49 44.22 126.49 44.23 126.49 44.24 126.49 44.25 126.48 44.26 126.48 44.27 126.48 44.28 126.48 44.28 126.47 44.27 126.47 44.28 126.47 44.29 126.46 44.3 126.46 44.31 126.46 44.32 126.45 44.33 126.45 44.35 126.45 44.35 126.44 44.36 126.44 44.37 126.44 44.38 126.44 44.39 126.44 44.4 126.44 44.4 126.43 44.41 126.43 44.42 126.43 44.43 126.43 44.44 126.43 44.46 126.43 44.47 126.43 44.48 126.43 44.49 126.43 44.5 126.42 44.5 126.41 44.51 126.41 44.52 126.41 44.54 126.41 44.55 126.41 44.55 126.4 44.56 126.4 44.57 126.4 44.57 126.39 44.58 126.39 44.59 126.39 44.59 126.38 44.6 126.38 44.62 126.38 44.63 126.38 44.64 126.38 44.66 126.37 44.67 126.37 44.69 126.37 44.7 126.37 44.71 126.37 44.72 126.37 44.73 126.37 44.74 126.37 44.74 126.36 44.75 126.36 44.76 126.36 44.79 126.36 44.81 126.36 44.82 126.36 44.84 126.35 44.85 126.35 44.86 126.35 44.88 126.35 44.9 126.35 44.92 126.35 44.92 126.36 44.93 126.36 44.94 126.36 44.95 126.36 44.96 126.36 44.97 126.37 44.98 126.37 44.98 126.38 45 126.38 45.01 126.38 45.02 126.38 45.03 126.38 45.04 126.38 45.05 126.38 45.06 126.38 45.06 126.37 45.07 126.36 45.08 126.36 45.08 126.37 45.09 126.36 45.11 126.36 45.11 126.35 45.12 126.35 45.14 126.35 45.15 126.35 45.17 126.35 45.19 126.35 45.2 126.35 45.22 126.35 45.22 126.36 45.23 126.36 45.24 126.37 45.24 126.38 45.23 126.38 45.23 126.37 45.22 126.38 45.21 126.38 45.2 126.38 45.19 126.38 45.19 126.39 45.18 126.39 45.17 126.4 45.16 126.4 45.15 126.4 45.15 126.41 45.15 126.42 45.16 126.41 45.16 126.4 45.17 126.4 45.18 126.4 45.19 126.4 45.2 126.4 45.21 126.4 45.2 126.4 45.19 126.4 45.2 126.4 45.2 126.41 45.2 126.42 45.19 126.42 45.19 126.43 45.19 126.44 45.21 126.44 45.2 126.44 45.19 126.44 45.18 126.44 45.15 126.44 45.15 126.43 45.14 126.43 45.14 126.46 45.15 126.46 45.15 126.45 45.16 126.45 45.16 126.44 45.17 126.44 45.17 126.45 45.19 126.44 45.2 126.44 45.21 126.44 45.21 126.45 45.2 126.45 45.17 126.45 45.16 126.45 45.16 126.46 45.17 126.46 45.16 126.46 45.17 126.46 45.18 126.46 45.19 126.46 45.21 126.46 45.21 126.47 45.22 126.47 45.23 126.47 45.22 126.47 45.22 126.48 45.23 126.48 45.22 126.48 45.21 126.48 45.2 126.48 45.19 126.48 45.18 126.49 45.19 126.49 45.2 126.49 45.2 126.5 45.21 126.5 45.23 126.5 45.24 126.5 45.25 126.5 45.26 126.5 45.26 126.49 45.26 126.5 45.27 126.5 45.28 126.5 45.3 126.5 45.3 126.49 45.31 126.49 45.32 126.49 45.32 126.48 45.33 126.48 45.34 126.48 45.33 126.48 45.33 126.49 45.32 126.49 45.34 126.49 45.36 126.49 45.36 126.48 45.38 126.48 45.37 126.48 45.37 126.47 45.36 126.47 45.38 126.47 45.39 126.46 45.4 126.46 45.4 126.45 45.42 126.45 45.43 126.45 45.45 126.45 45.47 126.45 45.48 126.45 45.48 126.46 45.49 126.46 45.5 126.47 45.5 126.48 45.51 126.49 45.53 126.49 45.53 126.5 45.54 126.5 45.56 126.5 45.57 126.5 45.58 126.51 45.59 126.51 45.6 126.51 45.61 126.51 45.61 126.5 45.61 126.51 45.63 126.51 45.62 126.51 45.61 126.51"/>
<path d="M 42.66 126.53 42.65 126.53 42.65 126.52 42.64 126.52 42.63 126.52 42.62 126.52 42.62 126.51 42.61 126.51 42.6 126.51 42.6 126.5 42.59 126.5 42.59 126.49 42.58 126.49 42.57 126.49 42.57 126.48 42.56 126.48 42.55 126.48 42.55 126.47 42.53 126.47 42.52 126.47 42.52 126.46 42.51 126.47 42.51 126.46 42.52 126.46 42.51 126.46 42.5 126.46 42.49 126.46 42.48 126.46 42.48 126.45 42.47 126.45 42.46 126.45 42.46 126.44 42.45 126.44 42.44 126.44 42.41 126.43 42.39 126.43 42.38 126.43 42.37 126.42 42.36 126.42 42.35 126.42 42.34 126.42 42.32 126.41 42.31 126.41 42.3 126.41 42.31 126.41 42.31 126.4 42.3 126.4 42.29 126.4 42.28 126.4 42.27 126.41 42.26 126.41 42.26 126.42 42.24 126.42 42.23 126.42 42.23 126.43 42.22 126.43 42.21 126.43 42.21 126.44 42.2 126.44 42.19 126.44 42.19 126.45 42.18 126.45 42.17 126.45 42.16 126.45 42.16 126.46 42.15 126.46 42.14 126.46 42.14 126.47 42.13 126.47 42.11 126.47 42.1 126.47 42.11 126.46 42.11 126.45 42.1 126.45 42.08 126.45 42.08 126.44 42.1 126.44 42.1 126.45 42.1 126.44 42.11 126.44 42.12 126.44 42.12 126.43 42.11 126.43 42.1 126.43 42.08 126.43 42.08 126.44 42.07 126.44 42.06 126.44 42.05 126.44 42.04 126.44 42.03 126.44 42.02 126.44 42.03 126.44 42.03 126.43 42.03 126.42 42.03 126.41 42.04 126.4 42.05 126.4 42.06 126.39 42.07 126.39 42.09 126.39 42.1 126.39 42.1 126.38 42.11 126.38 42.12 126.37 42.13 126.37 42.13 126.36 42.12 126.36 42.12 126.35 42.12 126.34 42.13 126.34 42.14 126.34 42.14 126.33 42.15 126.33 42.15 126.32 42.14 126.32 42.13 126.32 42.14 126.32 42.14 126.3 42.13 126.3 42.11 126.3 42.1 126.3 42.1 126.29 42.09 126.29 42.08 126.28 42.07 126.28 42.06 126.28 42.05 126.28 42.04 126.28"/>
<path d="M 40.19 126.28 40.2 126.28 40.21 126.28 40.23 126.28 40.24 126.28 40.26 126.28 40.27 126.29 40.28 126.29 40.29 126.29 40.3 126.29 40.31 126.29 40.32 126.29 40.33 126.3 40.34 126.3 40.34 126.31 40.34 126.32 40.33 126.32 40.32 126.32 40.31 126.33 40.29 126.33 40.3 126.34 40.31 126.34 40.33 126.34 40.33 126.33 40.32 126.33 40.33 126.33 40.34 126.33 40.34 126.32 40.35 126.32 40.35 126.33 40.36 126.33 40.37 126.33 40.38 126.34 40.39 126.34 40.4 126.34 40.41 126.35 40.41 126.36 40.4 126.36 40.4 126.37 40.4 126.38 40.42 126.38 40.43 126.39 40.44 126.39 40.44 126.4 40.45 126.4 40.46 126.4 40.47 126.41 40.47 126.42 40.48 126.42 40.49 126.42 40.5 126.42 40.5 126.43 40.51 126.44 40.5 126.44 40.5 126.45 40.49 126.45 40.48 126.45 40.48 126.46 40.5 126.46 40.51 126.46 40.51 126.47 40.52 126.47 40.53 126.47 40.53 126.48 40.54 126.48 40.55 126.48 40.57 126.49 40.58 126.49 40.59 126.49 40.6 126.49 40.6 126.48 40.61 126.48 40.62 126.48 40.62 126.47 40.63 126.47 40.64 126.47 40.65 126.47 40.66 126.47 40.66 126.48 40.67 126.48 40.69 126.48 40.69 126.49 40.68 126.5 40.69 126.5 40.7 126.5 40.71 126.5 40.72 126.5 40.73 126.51 40.73 126.52"/>
<path d="M 40.12 126.28 40.13 126.28 40.14 126.28 40.15 126.28 40.16 126.28 40.17 126.28"/>
<path d="M 42.63 126.79 42.64 126.79 42.65 126.79 42.65 126.78 42.66 126.78 42.66 126.79 42.65 126.79 42.64 126.79 42.63 126.79"/>
<path d="M 42.57 126.83 42.56 126.83 42.55 126.83 42.55 126.82 42.56 126.82 42.57 126.83"/>
<path d="M 42.47 126.84 42.46 126.83 42.45 126.83 42.45 126.84 42.45 126.83 42.44 126.82 42.44 126.81 42.45 126.81 42.47 126.81 42.48 126.81 42.49 126.81 42.5 126.81 42.5 126.82 42.49 126.82 42.49 126.83 42.48 126.83 42.47 126.83 42.47 126.84"/>
<path d="M 43.7 126.93 43.7 126.92 43.7 126.93"/>
<path d="M 43.3 127.05 43.29 127.05 43.28 127.05 43.28 127.04 43.27 127.04 43.26 127.04 43.25 127.03 43.23 127.03 43.24 127.03 43.23 127.03 43.23 127.02 43.23 127.01 43.22 127.01 43.22 127 43.21 127 43.2 127 43.19 127 43.19 127.01 43.19 127 43.18 127 43.18 126.99 43.17 126.99 43.16 126.99 43.16 126.98 43.15 126.97 43.14 126.96 43.13 126.96 43.13 126.95 43.13 126.94 43.14 126.94 43.14 126.93 43.13 126.93 43.14 126.93 43.14 126.92 43.14 126.91 43.15 126.91 43.16 126.91 43.17 126.91 43.18 126.92 43.19 126.92 43.2 126.93 43.21 126.93 43.21 126.94 43.22 126.94 43.23 126.94 43.24 126.94 43.25 126.94 43.25 126.95 43.25 126.96 43.26 126.96 43.26 126.97 43.27 126.98 43.28 126.98 43.29 126.98 43.31 126.99 43.32 126.99 43.34 126.99 43.34 127 43.33 127 43.32 127.01 43.33 127.01 43.34 127.01 43.34 127.02 43.35 127.02 43.35 127.03 43.35 127.04 43.34 127.04 43.33 127.04 43.32 127.04 43.32 127.05 43.31 127.05 43.3 127.05"/>
<path d="M 45.61 126.51 45.6 126.51 45.59 126.51 45.58 126.51 45.56 126.51 45.55 126.51 45.54 126.51 45.53 126.51 45.52 126.5 45.51 126.5 45.5 126.5 45.5 126.49 45.49 126.49 45.49 126.48 45.49 126.47 45.48 126.47 45.47 126.46 45.46 126.46 45.45 126.46 45.44 126.46 45.43 126.46 45.43 126.47 45.42 126.47 45.43 126.47 45.42 126.47 45.41 126.47 45.4 126.48 45.39 126.48 45.39 126.49 45.38 126.49 45.37 126.49 45.35 126.49 45.35 126.5 45.32 126.5 45.31 126.5 45.3 126.5 45.29 126.51 45.27 126.51 45.26 126.51 45.25 126.51 45.24 126.51 45.23 126.51 45.22 126.51 45.21 126.51 45.2 126.51 45.19 126.51 45.17 126.51 45.15 126.51 45.13 126.51 45.12 126.51 45.11 126.51 45.1 126.51 45.09 126.51 45.08 126.51 45.06 126.51 45.05 126.51 45.03 126.52 45.02 126.52 45.01 126.52 45 126.52 44.97 126.52 44.95 126.52 44.94 126.52 44.93 126.52 44.91 126.52 44.9 126.52 44.89 126.53 44.88 126.53 44.87 126.53 44.86 126.53 44.86 126.54 44.85 126.54 44.84 126.54 44.83 126.54 44.83 126.55 44.82 126.55 44.81 126.55 44.8 126.55 44.79 126.55 44.77 126.55 44.77 126.54 44.76 126.54 44.75 126.55 44.74 126.55 44.73 126.55 44.72 126.55 44.7 126.55 44.69 126.55 44.68 126.55 44.66 126.55 44.65 126.55 44.64 126.56 44.63 126.56 44.62 126.56 44.61 126.56 44.6 126.56 44.59 126.56 44.59 126.57 44.58 126.57 44.57 126.57 44.56 126.58 44.55 126.58 44.54 126.58 44.53 126.58 44.51 126.58 44.5 126.58 44.49 126.58 44.48 126.59 44.46 126.59 44.44 126.59 44.43 126.59 44.42 126.59 44.41 126.59 44.41 126.6 44.39 126.6 44.38 126.6 44.37 126.6 44.35 126.6 44.33 126.61 44.32 126.61 44.31 126.61 44.3 126.61 44.28 126.61 44.28 126.62 44.26 126.62 44.25 126.62 44.25 126.61 44.21 126.61 44.19 126.62 44.18 126.62 44.17 126.62 44.16 126.62 44.15 126.62 44.14 126.62 44.13 126.62 44.11 126.63 44.1 126.63 44.09 126.63 44.08 126.63 44.07 126.63 44.06 126.62 44.05 126.61 44.04 126.61 44.03 126.61 44.03 126.6 44.02 126.6 44.01 126.6 44 126.6 43.98 126.6 43.97 126.61 43.95 126.61 43.94 126.61 43.93 126.6 43.92 126.59 43.92 126.58 43.91 126.58 43.9 126.58 43.89 126.59 43.88 126.59 43.87 126.59 43.86 126.59 43.86 126.6 43.84 126.6 43.83 126.6 43.82 126.6 43.81 126.61 43.8 126.61 43.79 126.61 43.79 126.62 43.78 126.62 43.77 126.62 43.76 126.63 43.75 126.63 43.72 126.63 43.71 126.63 43.71 126.64 43.7 126.64 43.69 126.64 43.68 126.64 43.67 126.65 43.64 126.65 43.63 126.65 43.62 126.65 43.57 126.65 43.56 126.65 43.55 126.65 43.54 126.65 43.52 126.65 43.51 126.65 43.5 126.65 43.49 126.65 43.48 126.65 43.46 126.65 43.45 126.65 43.44 126.66 43.43 126.66 43.43 126.67 43.42 126.67 43.42 126.68 43.42 126.69 43.43 126.69 43.43 126.7 43.44 126.7 43.44 126.71 43.45 126.71 43.44 126.72 43.45 126.72 43.46 126.72 43.46 126.73 43.48 126.73 43.47 126.73 43.47 126.74 43.48 126.74 43.47 126.75 43.47 126.76 43.48 126.76 43.49 126.76 43.49 126.78 43.48 126.78 43.49 126.78 43.5 126.79 43.51 126.79 43.52 126.8 43.53 126.8 43.54 126.8 43.56 126.8 43.56 126.81 43.57 126.81 43.57 126.82 43.58 126.82 43.59 126.82 43.6 126.83 43.6 126.84 43.61 126.84 43.62 126.84 43.64 126.84 43.63 126.84 43.63 126.85 43.64 126.85 43.65 126.85 43.66 126.85 43.66 126.86 43.67 126.86 43.68 126.86 43.69 126.87 43.7 126.87 43.7 126.88 43.7 126.89 43.71 126.89 43.71 126.9 43.71 126.91 43.72 126.91 43.71 126.91 43.71 126.92 43.71 126.93 43.7 126.93 43.7 126.94 43.71 126.94 43.71 126.95 43.72 126.95 43.72 126.96 43.72 126.97 43.72 126.98 43.73 126.98 43.73 126.99 43.74 126.99 43.75 126.99 43.75 127 43.76 127 43.77 127 43.78 127.01 43.79 127.01 43.8 127.01 43.8 127.02 43.81 127.02 43.82 127.02 43.82 127.03 43.83 127.03 43.83 127.04 43.84 127.04 43.84 127.05 43.85 127.05 43.86 127.05 43.86 127.04 43.89 127.04 43.9 127.04 43.92 127.04 43.94 127.05 43.96 127.05 43.97 127.05 43.98 127.06 43.99 127.06 44 127.06 44.01 127.06 44.02 127.07 44.03 127.07 44.04 127.08 44.05 127.08 44.05 127.09 44.06 127.09 44.07 127.09 44.08 127.09 44.09 127.09 44.11 127.1 44.12 127.1"/>
<path d="M 44.71 127.32 44.7 127.32 44.71 127.32"/>
<path d="M 42.49 127.4 42.5 127.4 42.5 127.39 42.51 127.39 42.52 127.39 42.52 127.38 42.53 127.38 42.54 127.38 42.54 127.37 42.55 127.37 42.56 127.37 42.56 127.36 42.57 127.36 42.57 127.35 42.58 127.35 42.57 127.35 42.58 127.34 42.59 127.34 42.59 127.33 42.6 127.33 42.6 127.32 42.61 127.32 42.6 127.32 42.58 127.32 42.57 127.32 42.56 127.32 42.55 127.33 42.54 127.33 42.53 127.33 42.53 127.34 42.52 127.34 42.51 127.34 42.5 127.34 42.5 127.35 42.5 127.36 42.49 127.36 42.49 127.37 42.47 127.37 42.46 127.37 42.45 127.37 42.46 127.37 42.46 127.36 42.47 127.36 42.48 127.35 42.49 127.34 42.49 127.33 42.49 127.32 42.5 127.32 42.51 127.32 42.51 127.31 42.52 127.31 42.53 127.31 42.53 127.3 42.54 127.3 42.54 127.29 42.55 127.29 42.56 127.28 42.56 127.27 42.57 127.27 42.57 127.26 42.58 127.26 42.58 127.25 42.58 127.24 42.59 127.24 42.6 127.23 42.61 127.22 42.62 127.21 42.63 127.2 42.64 127.2 42.65 127.2 42.65 127.19 42.66 127.19 42.66 127.18 42.67 127.18 42.68 127.18 42.68 127.17 42.69 127.17 42.7 127.17 42.7 127.16 42.71 127.15 42.72 127.15 42.71 127.15 42.72 127.15 42.73 127.15 42.74 127.14 42.75 127.14 42.76 127.14 42.76 127.13 42.79 127.13 42.78 127.13 42.78 127.12 42.76 127.12 42.75 127.12 42.74 127.11 42.74 127.09 42.75 127.08 42.74 127.08 42.74 127.07 42.73 127.05 42.73 127.04 42.72 127.04 42.72 127.03 42.71 127.03 42.7 127.03 42.69 127.02 42.68 127.02 42.69 127.02 42.68 127.02 42.67 127.02 42.67 127.01 42.67 127 42.66 126.99 42.65 126.98 42.64 126.97 42.64 126.96 42.63 126.96 42.62 126.95 42.61 126.95 42.6 126.95 42.6 126.94 42.59 126.94 42.58 126.94 42.57 126.94 42.55 126.93 42.54 126.93 42.53 126.93 42.51 126.92 42.5 126.92 42.49 126.92 42.47 126.92 42.47 126.91 42.47 126.9 42.46 126.9 42.46 126.89 42.45 126.89 42.43 126.89 42.42 126.89 42.42 126.88 42.41 126.87 42.42 126.87 42.41 126.86 42.4 126.85 42.39 126.85 42.38 126.85 42.37 126.85 42.36 126.85 42.35 126.85 42.35 126.84 42.35 126.83 42.35 126.84 42.36 126.84 42.37 126.83 42.37 126.84 42.38 126.84 42.38 126.83 42.39 126.83 42.39 126.84 42.4 126.84 42.41 126.84 42.42 126.84 42.42 126.83 42.41 126.83 42.39 126.83 42.38 126.83 42.39 126.83 42.39 126.82 42.4 126.82 42.4 126.81 42.4 126.8 42.41 126.8 42.41 126.79 42.42 126.79 42.43 126.79 42.43 126.78 42.44 126.77 42.44 126.76 42.45 126.76 42.46 126.76 42.46 126.75 42.47 126.75 42.48 126.75 42.49 126.74 42.49 126.73 42.5 126.73 42.51 126.72 42.52 126.72 42.53 126.71 42.54 126.71 42.54 126.7 42.55 126.7 42.56 126.7 42.57 126.69 42.56 126.69 42.56 126.68 42.57 126.68 42.57 126.67 42.58 126.67 42.59 126.67 42.59 126.66 42.6 126.66 42.61 126.66 42.61 126.65 42.62 126.65 42.63 126.65 42.64 126.65 42.65 126.64 42.66 126.64 42.67 126.64 42.68 126.63 42.69 126.63 42.7 126.63 42.71 126.62 42.72 126.62 42.72 126.61 42.73 126.61 42.74 126.61 42.73 126.61 42.73 126.6 42.73 126.59 42.73 126.57 42.73 126.56 42.74 126.56 42.74 126.55 42.73 126.55 42.72 126.55 42.71 126.55 42.7 126.54 42.69 126.54 42.69 126.53 42.68 126.53 42.66 126.53"/>
<path d="M 44.93 127.51 44.92 127.5 44.92 127.49 44.91 127.48 44.91 127.47 44.92 127.47 44.92 127.46 44.91 127.46 44.9 127.46 44.89 127.46 44.87 127.46 44.85 127.46 44.84 127.45 44.85 127.45 44.84 127.45 44.84 127.44 44.84 127.43 44.83 127.43 44.82 127.42 44.81 127.42 44.8 127.42 44.8 127.43 44.79 127.42 44.78 127.42 44.78 127.41 44.77 127.41 44.78 127.39 44.77 127.39 44.77 127.38 44.76 127.38 44.75 127.38 44.74 127.38 44.74 127.37 44.73 127.36 44.74 127.34 44.75 127.34 44.75 127.33 44.74 127.33 44.73 127.33 44.73 127.32 44.71 127.32 44.7 127.32 44.7 127.31 44.69 127.32 44.69 127.31 44.68 127.31 44.67 127.31 44.66 127.31 44.65 127.31 44.65 127.32 44.64 127.32 44.63 127.32 44.62 127.32 44.61 127.32 44.61 127.33 44.6 127.33 44.6 127.34 44.59 127.33 44.56 127.33 44.56 127.32 44.54 127.32 44.53 127.32 44.52 127.32 44.51 127.32 44.5 127.32 44.5 127.33 44.49 127.33 44.48 127.33 44.47 127.34 44.46 127.34 44.45 127.34 44.44 127.34 44.43 127.34 44.42 127.34 44.41 127.34 44.4 127.34 44.39 127.34 44.37 127.34 44.36 127.34 44.35 127.34 44.34 127.34 44.33 127.34 44.32 127.34 44.31 127.34 44.28 127.34 44.27 127.34 44.26 127.34 44.25 127.34 44.23 127.34 44.22 127.34 44.21 127.34 44.2 127.34 44.2 127.33 44.2 127.34 44.19 127.34 44.19 127.33 44.18 127.34 44.17 127.33 44.16 127.33 44.15 127.33 44.15 127.32 44.14 127.32 44.13 127.32 44.12 127.31 44.11 127.31 44.1 127.31 44.1 127.3 44.09 127.3 44.08 127.3 44.08 127.29 44.07 127.29 44.06 127.29 44.05 127.28 44.04 127.28 44.03 127.28 44.03 127.27 44.02 127.27 44.02 127.26 44.01 127.26 44.01 127.25 44 127.25 43.99 127.25 43.98 127.25 43.98 127.24 43.97 127.24 43.97 127.23 43.96 127.23 43.95 127.23 43.95 127.22 43.94 127.22 43.93 127.22 43.92 127.22 43.9 127.22 43.89 127.21 43.88 127.21 43.86 127.21 43.85 127.21 43.86 127.21 43.85 127.21 43.84 127.21 43.83 127.2 43.82 127.2 43.81 127.2 43.79 127.19 43.78 127.19 43.76 127.19 43.75 127.19 43.74 127.19 43.73 127.19 43.72 127.19 43.72 127.18 43.71 127.18 43.7 127.18 43.69 127.18 43.68 127.17 43.67 127.17 43.66 127.17 43.66 127.16 43.66 127.15 43.65 127.15 43.63 127.15 43.62 127.15 43.62 127.14 43.61 127.14 43.6 127.13 43.59 127.13 43.58 127.13 43.58 127.12 43.57 127.12 43.56 127.12 43.55 127.12 43.55 127.11 43.54 127.11 43.54 127.1 43.53 127.1 43.51 127.1 43.51 127.09 43.5 127.09 43.5 127.08 43.49 127.09 43.49 127.08 43.48 127.08 43.47 127.08 43.47 127.07 43.46 127.07 43.45 127.06 43.44 127.06 43.43 127.05 43.42 127.05 43.4 127.05 43.39 127.04 43.38 127.04 43.36 127.04 43.36 127.05 43.37 127.06 43.39 127.06 43.39 127.07 43.4 127.08 43.41 127.08 43.42 127.08 43.43 127.08 43.43 127.09 43.44 127.09 43.44 127.1 43.44 127.11 43.43 127.12 43.44 127.12 43.44 127.13 43.45 127.13 43.44 127.13 43.45 127.14 43.47 127.14 43.48 127.15 43.48 127.16 43.49 127.16 43.49 127.17 43.5 127.17 43.51 127.17 43.51 127.18 43.52 127.18 43.53 127.18 43.54 127.19 43.55 127.19 43.56 127.19 43.57 127.19 43.58 127.19 43.58 127.2 43.58 127.21 43.59 127.21 43.6 127.22 43.6 127.23 43.61 127.23 43.62 127.23 43.62 127.24 43.63 127.24 43.64 127.24 43.65 127.24 43.65 127.25 43.66 127.25 43.66 127.26 43.67 127.26 43.67 127.27 43.68 127.27 43.69 127.27 43.69 127.28 43.71 127.28 43.72 127.28 43.73 127.28 43.75 127.29 43.76 127.29 43.77 127.29 43.78 127.29 43.79 127.29 43.8 127.29 43.8 127.3 43.82 127.3 43.83 127.3 43.85 127.3 43.85 127.31 43.86 127.31 43.87 127.31 43.89 127.31 43.89 127.32 43.9 127.32 43.91 127.32 43.92 127.32 43.93 127.33 43.94 127.33 43.96 127.33 43.96 127.34 43.97 127.34 43.98 127.34 43.99 127.34 44 127.35 44.01 127.35 44.02 127.35 44.03 127.36 44.04 127.36 44.05 127.36 44.06 127.36 44.07 127.37 44.08 127.37 44.09 127.37 44.09 127.38 44.1 127.38 44.11 127.38 44.12 127.38 44.13 127.38 44.14 127.39 44.15 127.39 44.15 127.4 44.16 127.4 44.17 127.4 44.17 127.41 44.17 127.42 44.17 127.43 44.17 127.44 44.18 127.45 44.18 127.46 44.19 127.46 44.19 127.47 44.2 127.48 44.2 127.49 44.19 127.5 44.18 127.5 44.18 127.51"/>
<path d="M 44.14 127.55 44.14 127.54 44.14 127.55"/>
<path d="M 44.15 127.56 44.14 127.56 44.15 127.56 44.15 127.55 44.15 127.56"/>
<path d="M 44.18 127.51 44.17 127.51 44.16 127.51 44.15 127.51 44.15 127.52 44.15 127.53 44.14 127.54 44.13 127.54 44.12 127.55 44.11 127.55 44.09 127.55 44.08 127.55 44.07 127.55 44.07 127.56 44.05 127.56 44.03 127.56 44.02 127.56 44.02 127.55 44.02 127.54 44.01 127.54 44.01 127.53 44 127.53 43.99 127.52 43.98 127.52 43.97 127.51 43.96 127.51 43.95 127.5 43.95 127.49 43.94 127.49 43.93 127.48 43.92 127.48 43.91 127.48 43.88 127.48 43.87 127.48 43.85 127.48 43.84 127.49 43.82 127.49 43.81 127.49 43.79 127.49 43.78 127.49 43.76 127.49 43.74 127.48 43.73 127.48 43.7 127.48 43.69 127.48 43.69 127.47 43.67 127.47 43.67 127.46 43.66 127.46 43.67 127.46 43.65 127.46 43.63 127.46 43.63 127.45 43.62 127.45 43.61 127.45 43.61 127.44 43.6 127.44 43.59 127.44 43.58 127.43 43.57 127.43 43.56 127.43 43.56 127.42 43.55 127.42 43.54 127.42 43.54 127.41 43.53 127.4 43.52 127.4 43.51 127.4 43.5 127.4 43.5 127.39 43.49 127.38 43.48 127.37 43.47 127.36 43.47 127.35 43.46 127.34 43.45 127.34 43.45 127.33 43.44 127.33 43.43 127.32 43.42 127.32 43.42 127.31 43.41 127.31 43.4 127.31 43.4 127.3 43.39 127.3 43.38 127.29 43.37 127.29 43.36 127.29 43.36 127.28 43.35 127.28 43.33 127.28 43.32 127.28 43.31 127.28 43.31 127.27 43.3 127.27 43.29 127.27 43.28 127.27 43.28 127.26 43.27 127.26 43.26 127.26 43.25 127.26 43.25 127.25 43.24 127.25 43.23 127.25 43.22 127.24 43.21 127.24 43.2 127.24 43.18 127.23 43.17 127.23 43.16 127.23 43.16 127.22 43.15 127.22 43.14 127.22 43.13 127.21 43.12 127.2 43.11 127.2 43.11 127.19 43.1 127.19 43.09 127.18 43.08 127.18 43.06 127.18 43.06 127.17 43.05 127.17 43.04 127.17 43.02 127.16 43.01 127.16 42.99 127.16 42.98 127.16 42.98 127.17 42.97 127.17 42.97 127.18 42.96 127.18 42.95 127.18 42.94 127.18 42.93 127.18 42.92 127.19 42.92 127.2 42.91 127.2 42.9 127.2 42.89 127.2 42.89 127.21 42.89 127.22 42.88 127.22 42.87 127.22 42.85 127.22 42.84 127.23 42.82 127.23 42.81 127.23 42.8 127.23 42.8 127.24 42.81 127.25 42.8 127.26 42.78 127.27 42.77 127.27 42.76 127.27 42.76 127.28 42.75 127.28 42.75 127.27 42.74 127.27 42.73 127.28 42.72 127.28 42.7 127.29 42.69 127.29 42.68 127.28 42.68 127.29 42.67 127.29 42.67 127.3 42.66 127.3 42.66 127.31 42.65 127.31 42.65 127.32 42.64 127.32 42.63 127.33 42.62 127.34 42.61 127.34 42.61 127.35 42.61 127.36 42.6 127.36 42.59 127.36 42.59 127.37 42.58 127.37 42.58 127.38 42.57 127.38 42.56 127.38 42.55 127.39 42.54 127.39 42.53 127.39 42.52 127.39 42.51 127.4 42.5 127.4 42.49 127.4"/>
<path d="M 40.73 126.52 40.73 126.53 40.74 126.53 40.73 126.53 40.73 126.54 40.74 126.54 40.75 126.55 40.76 126.55 40.78 126.56 40.79 126.56 40.8 126.56 40.81 126.56 40.82 126.56 40.83 126.56 40.84 126.56 40.85 126.56 40.87 126.56 40.88 126.57 40.89 126.57 40.89 126.58 40.9 126.58 40.91 126.59 40.93 126.59 40.93 126.6 40.94 126.61 40.95 126.61 40.96 126.61 40.97 126.61 40.98 126.61 40.99 126.61 41 126.61 41 126.62 41.01 126.62 41.02 126.62 41.02 126.63 41.02 126.64 41.03 126.64 41.04 126.64 41.05 126.64 41.05 126.65 41.07 126.65 41.07 126.66 41.09 126.66 41.1 126.66 41.11 126.66 41.12 126.67 41.13 126.67 41.13 126.68 41.14 126.68 41.15 126.68 41.16 126.68 41.17 126.68 41.17 126.69 41.18 126.68 41.18 126.69 41.19 126.69 41.19 126.7 41.2 126.7 41.21 126.7 41.21 126.72 41.21 126.73 41.2 126.73 41.21 126.73 41.21 126.74 41.21 126.75 41.22 126.76 41.21 126.76 41.22 126.76 41.22 126.77 41.24 126.77 41.25 126.77 41.26 126.77 41.27 126.77 41.27 126.78 41.28 126.78 41.29 126.78 41.3 126.79 41.3 126.8 41.31 126.81 41.31 126.82 41.3 126.82 41.3 126.83 41.31 126.84 41.3 126.84 41.31 126.84 41.32 126.85 41.32 126.86 41.31 126.86 41.32 126.86 41.32 126.87 41.31 126.88 41.33 126.88 41.33 126.89 41.32 126.89 41.32 126.9 41.32 126.91 41.33 126.91 41.34 126.91 41.34 126.92 41.35 126.92 41.36 126.92 41.37 126.93 41.37 126.94 41.36 126.94 41.35 126.94 41.35 126.95 41.34 126.95 41.34 126.96 41.33 126.96 41.32 126.97 41.32 126.98 41.31 126.98 41.32 126.98 41.33 126.98 41.34 126.98 41.35 126.98 41.36 126.98 41.37 126.98 41.37 126.97 41.39 126.97 41.4 126.97 41.41 126.97 41.42 126.97 41.43 126.97 41.44 126.97 41.45 126.97 41.47 126.97 41.48 126.97 41.49 126.97 41.5 126.97 41.51 126.97 41.52 126.97 41.54 126.97 41.56 126.97 41.57 126.97 41.58 126.97 41.59 126.96 41.6 126.96 41.61 126.96 41.63 126.96 41.63 126.95 41.64 126.95 41.67 126.95 41.68 126.95 41.69 126.95 41.7 126.95 41.71 126.96 41.72 126.96 41.72 126.97 41.73 126.97 41.73 126.98 41.73 126.99 41.72 126.99 41.7 127 41.69 127 41.68 127 41.67 127 41.66 127 41.65 127 41.64 127.01 41.64 127.02 41.63 127.02 41.63 127.03 41.61 127.03 41.6 127.03 41.59 127.03 41.59 127.04 41.56 127.04 41.56 127.03 41.55 127.03 41.54 127.04 41.53 127.04 41.52 127.04 41.51 127.04 41.51 127.05 41.5 127.05 41.49 127.06 41.47 127.06 41.46 127.06 41.45 127.06 41.44 127.06 41.44 127.05 41.43 127.05 41.43 127.06 41.42 127.06 41.41 127.06 41.41 127.07 41.4 127.07 41.4 127.08 41.39 127.08 41.39 127.09 41.38 127.09 41.36 127.09 41.36 127.1 41.35 127.1 41.34 127.11 41.33 127.11 41.32 127.11 41.32 127.12 41.31 127.12 41.3 127.13 41.3 127.14 41.3 127.15 41.31 127.15 41.32 127.15 41.32 127.16 41.33 127.16 41.34 127.17 41.35 127.17 41.35 127.18 41.36 127.18 41.36 127.19 41.35 127.19 41.34 127.2 41.35 127.2 41.36 127.21 41.36 127.22 41.37 127.22 41.38 127.24 41.38 127.25 41.38 127.26 41.39 127.26 41.4 127.27 41.4 127.28 41.4 127.29 41.41 127.29 41.41 127.3 41.42 127.31 41.42 127.32 41.41 127.33 41.41 127.34 41.4 127.34 41.39 127.34 41.4 127.34 41.4 127.36 41.39 127.36 41.38 127.37 41.37 127.37 41.37 127.38 41.36 127.38 41.36 127.39 41.35 127.39 41.35 127.4 41.36 127.4 41.37 127.4 41.38 127.4 41.38 127.41 41.37 127.41 41.37 127.42 41.38 127.42 41.39 127.42 41.39 127.43 41.4 127.43 41.4 127.44 41.41 127.44 41.42 127.44 41.45 127.44 41.45 127.45 41.46 127.45 41.47 127.45 41.48 127.45 41.49 127.46 41.5 127.46 41.5 127.47 41.5 127.48 41.51 127.48 41.51 127.49 41.52 127.49 41.52 127.5 41.52 127.51 41.53 127.51 41.53 127.52 41.54 127.52 41.54 127.53 41.54 127.54 41.56 127.54 41.55 127.54 41.55 127.55 41.57 127.55 41.57 127.56 41.57 127.57 41.58 127.57 41.59 127.57 41.59 127.58 41.6 127.58 41.6 127.59 41.61 127.59 41.61 127.6 41.62 127.6 41.62 127.61"/>
<path d="M 44.12 127.1 44.12 127.11 44.13 127.11 44.13 127.12 44.14 127.12 44.15 127.13 44.16 127.13 44.17 127.13 44.17 127.14 44.18 127.14 44.19 127.14 44.19 127.15 44.2 127.15 44.22 127.16 44.23 127.16 44.25 127.15 44.26 127.15 44.27 127.15 44.28 127.15 44.29 127.15 44.32 127.15 44.33 127.15 44.34 127.14 44.34 127.15 44.33 127.15 44.33 127.16 44.34 127.16 44.35 127.16 44.36 127.16 44.36 127.17 44.37 127.17 44.37 127.18 44.38 127.18 44.37 127.18 44.37 127.19 44.35 127.19 44.34 127.19 44.33 127.19 44.32 127.19 44.31 127.19 44.31 127.2 44.32 127.2 44.32 127.21 44.33 127.21 44.34 127.21 44.35 127.21 44.35 127.22 44.36 127.22 44.37 127.22 44.38 127.22 44.4 127.22 44.41 127.21 44.43 127.21 44.44 127.21 44.45 127.21 44.46 127.21 44.47 127.21 44.48 127.2 44.49 127.2 44.52 127.2 44.53 127.2 44.54 127.2 44.55 127.2 44.57 127.19 44.59 127.19 44.6 127.19 44.61 127.19 44.63 127.18 44.64 127.18 44.66 127.18 44.68 127.18 44.7 127.18 44.74 127.17 44.78 127.17 44.78 127.18 44.79 127.18 44.8 127.18 44.81 127.18 44.82 127.18 44.83 127.18 44.83 127.19 44.84 127.19 44.84 127.2 44.86 127.2 44.87 127.2 44.88 127.2 44.88 127.21 44.9 127.21 44.9 127.22 44.92 127.22 44.93 127.22 44.93 127.23 44.93 127.24 44.93 127.25 44.93 127.26 44.94 127.27 44.95 127.27 44.97 127.27 44.98 127.27 44.98 127.28 44.97 127.28 44.97 127.29 44.97 127.3 44.98 127.3 44.99 127.31 45 127.31 45.01 127.31 45.02 127.31 45.03 127.31 45.04 127.31 45.04 127.32 45.05 127.33 45.05 127.34 45.06 127.35 45.05 127.36 45.05 127.37 45.05 127.38 45.05 127.39 45.04 127.4 45.04 127.41 45.04 127.43 45.03 127.44 45.03 127.46 45.02 127.46 45.01 127.46 45.01 127.47 45.03 127.47 45.04 127.47 45.04 127.46 45.04 127.47 45.05 127.47 45.06 127.46 45.07 127.46 45.08 127.46 45.07 127.47 45.08 127.48 45.09 127.49 45.09 127.5 45.1 127.49 45.11 127.49 45.1 127.5 45.08 127.5 45.08 127.51 45.08 127.5 45.07 127.5 45.07 127.51 45.07 127.52 45.09 127.52 45.09 127.53 45.1 127.53 45.11 127.53 45.12 127.53 45.14 127.53 45.15 127.53 45.16 127.52 45.17 127.52 45.19 127.52 45.2 127.52 45.2 127.53 45.21 127.53 45.23 127.53 45.23 127.54 45.25 127.54 45.26 127.54 45.27 127.54 45.28 127.55 45.29 127.55 45.31 127.55 45.32 127.55 45.33 127.56 45.34 127.56 45.35 127.56 45.36 127.56 45.37 127.56 45.38 127.56 45.41 127.57 45.42 127.57 45.44 127.57 45.45 127.57 45.46 127.58 45.48 127.58 45.49 127.58 45.51 127.58 45.51 127.59 45.52 127.59 45.53 127.59 45.53 127.6 45.54 127.6 45.55 127.6 45.56 127.6 45.56 127.61 45.57 127.61 45.58 127.61 45.59 127.61 45.6 127.61 45.6 127.62 45.6 127.63 45.59 127.63 45.59 127.64 45.58 127.64 45.58 127.65 45.58 127.66 45.59 127.66 45.6 127.67 45.6 127.68 45.59 127.68 45.59 127.67 45.59 127.68 45.59 127.69 45.58 127.69 45.58 127.68 45.59 127.68 45.58 127.68 45.57 127.68 45.56 127.68 45.55 127.68 45.55 127.69 45.56 127.69 45.55 127.69 45.54 127.69 45.53 127.69 45.52 127.69 45.51 127.69 45.5 127.69 45.5 127.68 45.49 127.68 45.48 127.68 45.47 127.68 45.46 127.68 45.47 127.67 45.47 127.66 45.48 127.66 45.48 127.65 45.47 127.65 45.46 127.65 45.45 127.65 45.44 127.65 45.43 127.65 45.42 127.65 45.41 127.65 45.4 127.64 45.38 127.64 45.38 127.63 45.36 127.63 45.35 127.63 45.35 127.62 45.34 127.62 45.33 127.62 45.32 127.62 45.31 127.62 45.3 127.61 45.29 127.61 45.28 127.61 45.27 127.61 45.26 127.61 45.26 127.6 45.25 127.6 45.24 127.6 45.23 127.6 45.23 127.61 45.2 127.61 45.18 127.61 45.17 127.61 45.16 127.61 45.15 127.61 45.14 127.61 45.13 127.61 45.12 127.61 45.1 127.61 45.09 127.61 45.09 127.6 45.08 127.6 45.07 127.59 45.06 127.59 45.06 127.58 45.05 127.58 45.04 127.58 45.04 127.57 45.03 127.57 45.02 127.56 45.01 127.56 45.01 127.55 45 127.55 44.99 127.55 44.98 127.54 44.97 127.54 44.96 127.53 44.96 127.52 44.95 127.52 44.94 127.52 44.94 127.51 44.93 127.51"/>
<path d="M 41.86 127.91 41.85 127.91 41.85 127.9 41.84 127.9 41.83 127.9 41.82 127.9 41.82 127.89 41.81 127.89 41.8 127.89 41.79 127.89 41.77 127.89 41.77 127.88 41.76 127.88 41.75 127.88 41.75 127.87 41.74 127.87 41.73 127.87 41.73 127.86 41.72 127.86 41.71 127.86 41.71 127.85 41.7 127.85 41.69 127.85 41.67 127.85 41.66 127.85 41.65 127.85 41.64 127.85 41.62 127.84 41.61 127.85 41.6 127.84 41.59 127.84 41.58 127.84 41.57 127.84 41.56 127.84 41.56 127.83 41.55 127.83 41.54 127.83 41.53 127.83 41.51 127.83 41.49 127.82 41.49 127.81 41.48 127.81 41.48 127.82 41.47 127.81 41.47 127.8 41.48 127.79 41.48 127.78 41.49 127.78 41.5 127.77 41.48 127.77 41.48 127.76 41.47 127.76 41.46 127.76 41.45 127.76 41.45 127.75 41.44 127.76 41.44 127.75 41.43 127.75 41.41 127.75 41.4 127.75 41.4 127.74 41.39 127.74 41.38 127.74 41.37 127.74 41.36 127.73 41.35 127.73 41.34 127.73 41.33 127.73 41.33 127.72 41.32 127.72 41.31 127.72 41.3 127.72 41.3 127.71 41.29 127.71 41.28 127.71 41.27 127.71 41.27 127.7 41.26 127.7 41.26 127.69 41.25 127.69 41.24 127.69 41.24 127.68 41.23 127.68 41.22 127.68 41.22 127.67 41.21 127.67 41.21 127.66 41.2 127.66 41.19 127.66 41.19 127.65 41.18 127.64 41.17 127.63 41.16 127.62 41.16 127.61 41.15 127.6 41.15 127.59 41.14 127.58 41.13 127.57 41.12 127.57 41.12 127.56 41.12 127.55 41.11 127.54 41.12 127.53 41.12 127.52 41.11 127.52 41.11 127.51 41.11 127.5 41.11 127.49 41.1 127.49 41.1 127.48 41.09 127.48 41.08 127.48 41.07 127.48 41.06 127.47 41.05 127.46 41.05 127.45 41.05 127.44 41.04 127.44 41.04 127.43 41.03 127.42 41.03 127.41 41.02 127.41 41.01 127.41 41.02 127.4 41.01 127.4 41.01 127.39 41 127.38 41 127.37 41 127.36 40.99 127.35 41 127.34 40.99 127.34 40.99 127.33 40.99 127.31 40.99 127.3 40.98 127.3 40.98 127.29 40.97 127.28 40.97 127.27 40.98 127.27 40.98 127.26 40.97 127.25 40.97 127.24 40.96 127.23 40.96 127.22 40.95 127.22 40.95 127.21 40.96 127.2 40.96 127.19 40.97 127.19 40.97 127.18 40.98 127.17 40.99 127.16 41 127.15 40.99 127.15 40.98 127.15 40.97 127.15 40.96 127.15 40.93 127.15 40.92 127.15 40.91 127.15 40.9 127.15 40.89 127.15 40.88 127.15 40.87 127.15 40.86 127.15 40.85 127.15 40.84 127.14 40.83 127.14 40.82 127.14 40.82 127.13 40.82 127.12 40.83 127.12 40.84 127.11 40.85 127.11 40.86 127.11 40.87 127.1 40.86 127.09 40.86 127.08 40.87 127.07 40.89 127.07 40.9 127.06 40.91 127.06 40.92 127.06 40.92 127.05 40.93 127.05 40.93 127.04 40.94 127.04 40.95 127.04 40.95 127.03 40.94 127.03 40.93 127.03 40.91 127.03 40.91 127.02 40.92 127.01 40.92 127 40.93 127 40.94 127 40.95 127 40.95 126.99 40.95 126.98 40.96 126.98 40.97 126.97 40.98 126.97 40.99 126.97 40.99 126.96 40.98 126.96 40.99 126.96 41 126.96 41 126.95 40.99 126.95 40.99 126.94 41 126.94 41 126.93 41.01 126.93 41.01 126.92 41.02 126.92 41.03 126.92 41.03 126.91 41.04 126.91 41.04 126.9 41.05 126.9 41.06 126.9 41.06 126.89 41.05 126.89 41.04 126.89 41.03 126.9 41.03 126.89 41.04 126.89 41.05 126.89 41.05 126.88 41.03 126.88 41.02 126.88 40.99 126.88 41 126.89 40.99 126.89 40.97 126.89 40.94 126.9 40.93 126.9 40.92 126.89 40.93 126.89 40.93 126.88 40.92 126.88 40.91 126.88 40.91 126.87 40.92 126.87 40.93 126.87 40.94 126.87 40.94 126.86 40.95 126.86 40.96 126.86 40.96 126.85 40.97 126.85 40.98 126.85 40.98 126.84 40.97 126.84 40.96 126.84 40.95 126.84 40.94 126.84 40.94 126.83 40.92 126.83 40.9 126.83 40.89 126.83 40.87 126.82 40.86 126.82 40.85 126.82 40.84 126.82 40.84 126.81 40.83 126.81 40.82 126.81 40.82 126.82 40.81 126.82 40.8 126.82 40.8 126.81"/>
<path d="M 40.19 128.17 40.18 128.17 40.18 128.16 40.19 128.16 40.2 128.16 40.2 128.17 40.19 128.17"/>
<path d="M 41.62 127.61 41.63 127.61 41.65 127.61 41.65 127.62 41.66 127.62 41.66 127.63 41.68 127.64 41.69 127.64 41.7 127.64 41.73 127.64 41.74 127.64 41.75 127.64 41.75 127.65 41.76 127.65 41.77 127.65 41.78 127.65 41.79 127.65 41.8 127.65 41.81 127.65 41.82 127.65 41.84 127.66 41.85 127.66 41.86 127.67 41.87 127.68 41.88 127.68 41.89 127.68 41.89 127.69 41.91 127.69 41.92 127.69 41.92 127.7 41.93 127.7 41.94 127.7 41.95 127.71 41.96 127.71 41.97 127.71 41.98 127.72 41.99 127.72 41.99 127.73 42 127.73 42.01 127.73 42.01 127.74 42.02 127.74 42.03 127.74 42.03 127.75 42.04 127.75 42.05 127.75 42.05 127.76 42.04 127.76 42.05 127.76 42.04 127.76 42.05 127.76 42.07 127.76 42.08 127.76 42.08 127.77 42.1 127.77 42.1 127.76 42.11 127.76 42.12 127.76 42.13 127.76 42.14 127.76 42.15 127.76 42.16 127.76 42.17 127.76 42.18 127.76 42.19 127.76 42.19 127.77 42.2 127.76 42.21 127.76 42.23 127.76 42.24 127.76 42.25 127.76 42.26 127.76 42.26 127.75 42.27 127.75 42.28 127.75 42.3 127.75 42.31 127.75 42.32 127.76 42.31 127.76 42.31 127.77 42.32 127.77 42.31 127.77 42.3 127.77 42.3 127.78 42.31 127.78 42.32 127.78 42.33 127.78 42.34 127.78 42.36 127.79 42.37 127.79 42.38 127.79 42.39 127.79 42.42 127.79 42.43 127.79 42.46 127.79 42.48 127.79 42.49 127.79 42.51 127.79 42.52 127.79 42.53 127.8 42.54 127.8 42.55 127.8 42.56 127.8 42.57 127.8 42.59 127.8 42.6 127.81 42.61 127.81 42.63 127.81 42.64 127.81 42.65 127.81 42.65 127.82 42.66 127.82 42.67 127.82 42.68 127.83 42.69 127.83 42.69 127.84 42.7 127.84 42.71 127.84 42.72 127.85 42.73 127.86 42.73 127.87 42.72 127.87 42.72 127.88 42.73 127.88 42.74 127.88 42.75 127.88 42.75 127.89 42.76 127.89 42.77 127.9 42.77 127.91 42.77 127.92 42.78 127.92 42.79 127.92 42.8 127.92 42.8 127.93 42.81 127.93 42.81 127.94 42.82 127.94 42.83 127.94 42.84 127.95 42.85 127.95 42.85 127.94 42.86 127.94 42.87 127.94 42.87 127.95 42.88 127.95 42.89 127.95 42.9 127.95 42.91 127.96 42.92 127.96 42.93 127.96 42.94 127.96 42.95 127.97 42.96 127.97 42.98 127.97 42.99 127.97 43 127.98 43.01 127.98 43.02 127.98 43.03 127.99 43.04 127.99 43.05 127.99 43.06 127.99 43.07 127.99 43.08 127.99 43.1 127.99 43.11 127.99 43.12 128 43.13 128 43.14 128 43.14 128.01 43.16 128.01 43.17 128.01 43.18 128.01 43.19 128.01 43.21 128.01 43.22 128.02 43.23 128.02 43.24 128.02 43.25 128.02 43.25 128.03 43.26 128.03 43.27 128.03 43.27 128.04 43.28 128.04 43.3 128.04 43.3 128.05 43.31 128.05 43.32 128.06 43.33 128.06 43.34 128.06 43.35 128.06 43.37 128.06 43.38 128.06 43.38 128.07 43.39 128.07 43.4 128.08 43.41 128.09 43.42 128.09 43.43 128.09 43.44 128.09 43.45 128.09 43.46 128.09 43.47 128.09 43.48 128.1 43.49 128.1 43.5 128.11 43.51 128.11 43.52 128.11 43.52 128.12 43.53 128.12 43.55 128.12 43.56 128.13 43.57 128.13 43.57 128.14 43.58 128.14 43.58 128.15 43.57 128.15 43.56 128.15 43.58 128.15 43.58 128.16 43.59 128.16 43.6 128.16 43.6 128.17 43.6 128.18 43.58 128.17 43.57 128.17 43.56 128.17 43.57 128.17 43.57 128.18 43.56 128.18 43.57 128.18 43.57 128.19 43.58 128.19 43.59 128.19 43.59 128.2 43.58 128.2 43.57 128.2 43.57 128.21 43.56 128.21 43.57 128.21 43.58 128.21 43.59 128.21 43.6 128.21 43.6 128.22 43.6 128.23 43.61 128.24 43.62 128.24 43.62 128.25 43.64 128.24 43.67 128.25 43.66 128.24 43.66 128.23 43.65 128.23 43.66 128.23 43.65 128.22 43.64 128.22 43.63 128.21 43.62 128.21 43.62 128.2 43.62 128.19 43.61 128.19 43.6 128.19 43.6 128.18 43.61 128.18 43.63 128.18 43.62 128.18 43.64 128.18 43.65 128.18 43.66 128.18 43.67 128.18 43.67 128.19 43.68 128.19 43.68 128.2 43.69 128.2 43.7 128.2 43.71 128.2 43.72 128.21 43.74 128.21 43.75 128.21 43.76 128.21 43.76 128.22 43.77 128.22 43.77 128.23 43.78 128.23 43.79 128.24 43.81 128.24 43.82 128.24 43.83 128.24 43.84 128.24 43.85 128.25 43.86 128.25 43.87 128.25 43.89 128.25 43.9 128.26 43.92 128.26 43.93 128.26 43.96 128.26 43.97 128.26 43.98 128.27 43.99 128.27 44 128.27 44 128.28 44.01 128.28 44.02 128.28 44.01 128.28 44.02 128.28 44.02 128.29 44.03 128.29 44.04 128.29 44.05 128.29 44.05 128.3 44.06 128.3 44.07 128.3 44.07 128.31 44.08 128.31 44.1 128.31 44.12 128.31 44.13 128.31 44.13 128.32 44.14 128.32 44.15 128.33 44.16 128.33 44.17 128.33 44.19 128.33 44.2 128.33 44.21 128.34"/>
<path d="M 44.08 128.64 44.08 128.63 44.08 128.64"/>
<path d="M 44.08 128.66 44.08 128.65 44.09 128.65 44.09 128.64 44.1 128.63 44.09 128.63 44.08 128.63 44.08 128.62 44.09 128.62 44.09 128.61 44.1 128.61 44.1 128.6 44.09 128.61 44.08 128.61 44.08 128.6 44.08 128.59 44.08 128.58 44.08 128.57 44.09 128.57 44.09 128.56 44.08 128.56 44.08 128.55 44.09 128.53 44.09 128.52 44.09 128.51 44.09 128.5 44.09 128.49 44.08 128.49 44.08 128.48 44.07 128.48 44.06 128.48 44.05 128.47 44.04 128.47 44.02 128.48 44.01 128.48 43.99 128.48 43.98 128.48 43.97 128.47 43.96 128.47 43.95 128.47 43.94 128.46 43.93 128.46 43.93 128.45 43.92 128.45 43.92 128.44 43.91 128.44 43.91 128.43 43.92 128.43 43.92 128.42 43.91 128.42 43.91 128.43 43.9 128.43 43.89 128.43 43.85 128.43 43.84 128.43 43.83 128.43 43.83 128.42 43.81 128.42 43.8 128.41 43.8 128.4 43.81 128.39 43.73 128.39 43.7 128.39 43.68 128.39 43.67 128.39 43.65 128.38 43.64 128.38 43.63 128.38 43.6 128.38 43.59 128.38 43.56 128.38 43.56 128.37 43.54 128.37 43.53 128.37 43.53 128.39 43.53 128.4 43.53 128.41 43.52 128.42 43.53 128.44 43.53 128.46 43.52 128.46 43.52 128.47 43.51 128.47 43.5 128.47 43.49 128.47 43.47 128.47 43.45 128.47 43.44 128.47 43.43 128.47 43.41 128.47 43.41 128.46 43.4 128.46 43.4 128.45 43.39 128.44 43.39 128.43 43.39 128.42 43.38 128.41 43.38 128.4 43.38 128.39 43.38 128.38 43.37 128.38 43.37 128.37 43.36 128.36 43.36 128.35 43.35 128.35 43.35 128.34 43.34 128.34 43.34 128.33 43.33 128.33 43.33 128.32 43.32 128.32 43.32 128.31 43.31 128.3 43.3 128.29 43.3 128.28 43.29 128.28 43.29 128.27 43.28 128.27 43.27 128.26 43.26 128.26 43.25 128.25 43.24 128.25 43.23 128.25 43.22 128.24 43.21 128.24 43.22 128.24 43.21 128.24 43.21 128.23 43.2 128.23 43.19 128.22 43.18 128.22 43.17 128.21 43.16 128.21 43.15 128.21 43.15 128.2 43.14 128.2 43.14 128.19 43.13 128.19 43.12 128.19 43.11 128.19 43.1 128.19 43.09 128.18 43.08 128.18 43.07 128.18 43.06 128.18 43.05 128.18 43.03 128.18 43.03 128.17 43.02 128.17 43.01 128.17 43 128.17 42.98 128.17 42.97 128.17 42.96 128.16 42.94 128.16 42.93 128.16 42.92 128.16 42.91 128.15 42.89 128.15 42.89 128.14 42.88 128.14 42.88 128.13 42.88 128.12 42.87 128.12 42.85 128.12 42.84 128.12 42.83 128.12 42.8 128.12 42.8 128.13 42.79 128.13 42.79 128.12 42.78 128.12 42.75 128.12 42.74 128.12 42.74 128.11 42.73 128.11 42.72 128.1 42.71 128.1 42.71 128.09 42.7 128.09 42.69 128.09 42.68 128.08 42.66 128.08 42.66 128.07 42.65 128.06 42.65 128.05 42.63 128.05 42.61 128.05 42.61 128.04 42.6 128.04 42.59 128.03 42.58 128.03 42.57 128.02 42.57 128 42.56 127.99 42.56 127.98 42.57 127.98 42.57 127.97 42.58 127.97 42.58 127.96 42.57 127.96 42.55 127.96 42.53 127.96 42.52 127.96 42.51 127.96 42.5 127.96 42.49 127.97 42.48 127.97 42.47 127.97 42.46 127.97 42.44 127.97 42.43 127.96 42.42 127.96 42.39 127.96 42.38 127.96 42.37 127.96 42.37 127.97 42.37 127.98 42.36 127.98 42.36 127.99 42.35 128 42.33 128 42.32 128 42.31 128 42.3 128 42.29 128 42.26 128 42.25 128 42.24 128 42.2 128 42.19 128 42.18 128 42.17 128 42.16 127.99 42.15 127.98 42.15 127.97 42.14 127.97 42.13 127.97 42.12 127.97 42.11 127.97 42.1 127.97 42.07 127.97 42.06 127.97 42.04 127.96 42.03 127.96 42.02 127.96 42.02 127.95 42.01 127.95 42 127.95 42 127.94 41.99 127.94 41.98 127.94 41.98 127.93 41.97 127.93 41.95 127.93 41.95 127.92 41.94 127.92 41.93 127.92 41.91 127.92 41.9 127.92 41.89 127.92 41.88 127.91 41.87 127.91 41.86 127.91"/>
<path d="M 40.5 128.29 40.5 128.3 40.49 128.31 40.5 128.31 40.51 128.31 40.52 128.31 40.53 128.31 40.52 128.31 40.52 128.32 40.53 128.32 40.54 128.33 40.57 128.33 40.58 128.33 40.59 128.33 40.6 128.33 40.61 128.33 40.63 128.33 40.63 128.32 40.64 128.32 40.66 128.32 40.67 128.32 40.69 128.32 40.7 128.32 40.7 128.33 40.71 128.33 40.73 128.33 40.74 128.33 40.75 128.32 40.75 128.33 40.76 128.33 40.77 128.33 40.78 128.33 40.78 128.34 40.79 128.34 40.79 128.35 40.8 128.35 40.81 128.35 40.82 128.35 40.84 128.35 40.85 128.35 40.86 128.35 40.87 128.35 40.88 128.35 40.88 128.36 40.89 128.36 40.9 128.36 40.91 128.36 40.91 128.37 40.93 128.37 40.95 128.37 40.95 128.38 40.96 128.38 40.97 128.39 40.98 128.39 40.99 128.4 41 128.41 41 128.42 40.99 128.42 40.99 128.43 40.98 128.43 40.98 128.44 40.99 128.44 40.99 128.45 41.01 128.45 41.02 128.45 41.02 128.46 41.03 128.46 41.06 128.46 41.07 128.47 41.07 128.48 41.08 128.49 41.09 128.49 41.11 128.49 41.12 128.49 41.13 128.49 41.14 128.49 41.14 128.5 41.15 128.5 41.16 128.5 41.16 128.51 41.17 128.51 41.18 128.51 41.18 128.52 41.18 128.53 41.19 128.53 41.19 128.54 41.2 128.54 41.2 128.55 41.21 128.55 41.21 128.56 41.22 128.57 41.23 128.58 41.23 128.59 41.24 128.59 41.24 128.6 41.25 128.6 41.25 128.61 41.26 128.62 41.25 128.62 41.25 128.63 41.26 128.64 41.27 128.66 41.27 128.68 41.27 128.69 41.27 128.71 41.27 128.72 41.27 128.73 41.26 128.73 41.26 128.75 41.24 128.75 41.23 128.75 41.22 128.75 41.21 128.75 41.21 128.74 41.19 128.74 41.18 128.74 41.17 128.74 41.16 128.75 41.15 128.75 41.15 128.74 41.14 128.74 41.13 128.74 41.12 128.74 41.11 128.74 41.09 128.74 41.1 128.74 41.1 128.73 41.09 128.73 41.08 128.73 41.09 128.73 41.11 128.73 41.12 128.73 41.13 128.73 41.14 128.74 41.15 128.74 41.15 128.73 41.16 128.73 41.14 128.73 41.13 128.73 41.13 128.72 41.12 128.72 41.11 128.72 41.1 128.72 41.09 128.71 41.08 128.71 41.07 128.71 41.07 128.7 41.06 128.7 41.06 128.69 41.07 128.69 41.08 128.69 41.07 128.68 41.08 128.67 41.08 128.66 41.07 128.66 41.07 128.65 41.06 128.65 41.05 128.65 41.04 128.65 41.04 128.64 41.03 128.64 41.03 128.63 41.03 128.62 41.03 128.61 41.04 128.61 41.02 128.61 41.01 128.62 41 128.62 41 128.63 40.99 128.63 40.99 128.64 40.98 128.64 40.97 128.64 40.96 128.64 40.94 128.64 40.94 128.63 40.93 128.62 40.93 128.61 40.92 128.6 40.91 128.6 40.91 128.59 40.9 128.59"/>
<path d="M 41.16 128.76 41.15 128.76 41.16 128.75 41.16 128.76"/>
<path d="M 44.45 128.81 44.44 128.81 44.46 128.81 44.45 128.81"/>
<path d="M 44.21 128.34 44.22 128.34 44.22 128.35 44.23 128.35 44.24 128.35 44.25 128.35 44.26 128.35 44.27 128.35 44.28 128.35 44.28 128.36 44.29 128.36 44.3 128.37 44.31 128.37 44.32 128.37 44.32 128.38 44.34 128.38 44.35 128.38 44.36 128.39 44.37 128.39 44.37 128.4 44.38 128.4 44.39 128.41 44.4 128.41 44.4 128.42 44.41 128.42 44.41 128.43 44.42 128.43 44.42 128.44 44.43 128.44 44.44 128.45 44.44 128.46 44.45 128.47 44.46 128.47 44.46 128.48 44.47 128.49 44.47 128.5 44.47 128.51 44.47 128.52 44.47 128.53 44.47 128.54 44.48 128.54 44.48 128.55 44.48 128.56 44.48 128.57 44.49 128.58 44.5 128.58 44.5 128.59 44.5 128.62 44.51 128.63 44.51 128.64 44.51 128.65 44.5 128.65 44.51 128.66 44.51 128.67 44.5 128.68 44.49 128.68 44.49 128.69 44.48 128.7 44.48 128.72 44.48 128.73 44.48 128.74 44.47 128.74 44.46 128.74 44.46 128.75 44.44 128.75 44.43 128.75 44.42 128.75 44.41 128.75 44.41 128.76 44.4 128.76 44.39 128.76 44.38 128.76 44.38 128.77 44.37 128.77 44.36 128.77 44.37 128.77 44.37 128.78 44.36 128.78 44.35 128.78 44.34 128.78 44.35 128.78 44.35 128.79 44.36 128.79 44.34 128.79 44.34 128.8 44.36 128.8 44.38 128.8 44.4 128.8 44.41 128.8 44.42 128.8 44.43 128.8 44.43 128.81 44.44 128.81 44.42 128.81 44.4 128.81 44.39 128.81 44.38 128.81 44.37 128.81 44.35 128.81 44.33 128.8 44.32 128.8 44.32 128.81 44.33 128.81 44.33 128.82 44.34 128.82 44.32 128.82 44.31 128.82 44.29 128.83 44.28 128.83 44.27 128.83 44.26 128.83 44.26 128.82 44.25 128.82 44.24 128.81 44.23 128.81 44.21 128.81 44.2 128.81 44.2 128.8 44.19 128.8 44.18 128.8 44.18 128.78 44.18 128.77 44.17 128.77 44.16 128.77 44.16 128.76 44.16 128.75 44.17 128.74 44.17 128.73 44.17 128.72 44.16 128.72 44.15 128.72 44.16 128.71 44.15 128.71 44.14 128.71 44.14 128.7 44.13 128.7 44.13 128.69 44.12 128.69 44.11 128.69 44.1 128.69 44.1 128.68 44.09 128.68 44.08 128.68 44.08 128.67 44.08 128.66"/>
<path d="M 44.5 128.88 44.49 128.88 44.49 128.87 44.48 128.87 44.47 128.87 44.47 128.86 44.47 128.85 44.47 128.84 44.47 128.83 44.46 128.82 44.45 128.82 44.45 128.81 44.46 128.81 44.47 128.82 44.48 128.82 44.48 128.83 44.49 128.83 44.49 128.84 44.48 128.85 44.48 128.86 44.49 128.86 44.49 128.87 44.49 128.88 44.5 128.88"/>
<path d="M 44.7 128.9 44.69 128.9 44.68 128.9 44.68 128.89 44.67 128.89 44.66 128.89 44.66 128.88 44.65 128.88 44.65 128.87 44.64 128.87 44.63 128.87 44.62 128.87 44.59 128.87 44.58 128.87 44.57 128.88 44.56 128.88 44.55 128.89 44.54 128.89 44.52 128.89 44.51 128.89 44.5 128.89 44.51 128.89 44.52 128.89 44.52 128.88 44.53 128.88 44.54 128.88 44.55 128.88 44.56 128.87 44.57 128.87 44.58 128.87 44.62 128.86 44.63 128.86 44.64 128.87 44.65 128.87 44.66 128.87 44.67 128.88 44.68 128.89 44.69 128.89 44.69 128.9 44.7 128.9"/>
<path d="M 44.71 128.91 44.71 128.9 44.71 128.91"/>
<path d="M 44.82 128.92 44.8 128.92 44.78 128.92 44.77 128.92 44.76 128.92 44.76 128.91 44.72 128.91 44.71 128.91 44.72 128.91 44.73 128.91 44.75 128.91 44.78 128.91 44.78 128.92 44.79 128.92 44.82 128.92 44.83 128.91 44.84 128.91 44.85 128.91 44.87 128.91 44.86 128.91 44.85 128.92 44.84 128.92 44.83 128.92 44.82 128.92"/>
</g>
</svg>