<?xml version="1.0"?>
<svg xmlns="http://www.w3.org/2000/svg" version="1.2" baseProfile="tiny" width="800" height="223" viewBox="0 0 800 223" stroke-linecap="round" stroke-linejoin="round">
<g id="cd22" fill="none" stroke="black" stroke-width="0.05">
<path d="M 35.3 140.07 35.3 140.08 35.31 140.08 35.31 140.09 35.32 140.09 35.32 140.1 35.32 140.11 35.33 140.11 35.33 140.12 35.34 140.12 35.35 140.14 35.35 140.15 35.35 140.16 35.36 140.17 35.36 140.18 35.35 140.19 35.35 140.2 35.35 140.21 35.35 140.22 35.36 140.23 35.35 140.23 35.36 140.23 35.36 140.24 35.37 140.24 35.37 140.25 35.37 140.26 35.37 140.27 35.37 140.28 35.37 140.29 35.37 140.3 35.37 140.31 35.38 140.31 35.39 140.31 35.4 140.31 35.4 140.32 35.41 140.32 35.42 140.32 35.43 140.32 35.44 140.32 35.45 140.32 35.47 140.33 35.48 140.33 35.49 140.33 35.5 140.33 35.51 140.34 35.52 140.34 35.53 140.34 35.54 140.34 35.55 140.34 35.56 140.35 35.57 140.35 35.58 140.35 35.59 140.35 35.6 140.36 35.61 140.36 35.63 140.36 35.64 140.36 35.65 140.36 35.66 140.36 35.67 140.36 35.68 140.36 35.69 140.36 35.7 140.36 35.71 140.36 35.77 140.36 35.79 140.36 35.81 140.36 35.82 140.36 35.83 140.36 35.84 140.36 35.85 140.36 35.86 140.36 35.86 140.35 35.87 140.35 35.89 140.35 35.9 140.35 35.91 140.35 35.92 140.35 35.93 140.35 35.94 140.35 35.95 140.34 35.97 140.34 36 140.34 36.01 140.34 36.03 140.34 36.04 140.34 36.05 140.34 36.06 140.34 36.07 140.34 36.07 140.33 36.08 140.33 36.09 140.33 36.11 140.32 36.13 140.32 36.13 140.31 36.14 140.31 36.15 140.31 36.16 140.31 36.16 140.3 36.17 140.3 36.18 140.3 36.19 140.3 36.2 140.29 36.22 140.29 36.24 140.29 36.25 140.28 36.26 140.28 36.29 140.28 36.32 140.28 36.33 140.28 36.34 140.28 36.38 140.28 36.39 140.28 36.41 140.28 36.42 140.28 36.44 140.29 36.45 140.29 36.46 140.29 36.47 140.29 36.48 140.3 36.49 140.3 36.5 140.3 36.52 140.3 36.53 140.3 36.55 140.3 36.56 140.29 36.58 140.29 36.59 140.29"/>
<path d="M 36.5 140.42 36.49 140.41 36.45 140.42 36.44 140.42 36.42 140.42 36.4 140.41 36.38 140.41 36.36 140.42 36.35 140.42 36.34 140.42 36.33 140.42 36.33 140.43 36.32 140.43 36.31 140.43 36.3 140.44 36.29 140.44 36.29 140.45 36.28 140.45 36.27 140.45 36.25 140.45 36.23 140.46 36.22 140.46 36.21 140.46 36.2 140.46 36.19 140.46 36.18 140.47 36.17 140.47 36.16 140.47 36.15 140.47 36.14 140.47 36.13 140.48 36.12 140.48 36.12 140.49 36.11 140.49 36.1 140.49 36.1 140.5 36.09 140.5 36.08 140.5 36.07 140.51 36.06 140.51 36.04 140.51 36.02 140.51 36.01 140.52 36 140.52 35.97 140.52 35.96 140.53 35.95 140.53 35.94 140.54 35.92 140.54 35.9 140.54 35.88 140.54 35.87 140.54 35.86 140.54 35.86 140.56 35.85 140.56 35.84 140.56 35.84 140.57 35.83 140.57 35.82 140.57 35.81 140.57 35.8 140.58 35.79 140.58 35.79 140.59 35.78 140.6 35.77 140.6 35.77 140.61 35.76 140.62 35.75 140.63 35.74 140.63 35.74 140.64 35.73 140.64 35.73 140.65 35.72 140.65 35.72 140.66 35.71 140.66 35.7 140.66 35.69 140.67 35.68 140.67 35.68 140.68 35.67 140.68 35.65 140.68 35.64 140.69 35.63 140.69 35.63 140.7 35.62 140.7 35.61 140.7 35.61 140.71 35.6 140.71 35.59 140.71 35.58 140.72 35.57 140.72 35.56 140.72 35.55 140.72 35.54 140.72 35.53 140.73 35.52 140.73 35.51 140.73 35.5 140.73 35.49 140.73 35.47 140.74 35.45 140.74 35.44 140.74 35.4 140.74 35.38 140.75 35.35 140.75 35.33 140.75 35.32 140.75 35.31 140.75 35.29 140.76 35.28 140.76 35.27 140.76 35.26 140.76 35.26 140.77 35.25 140.77 35.24 140.77 35.23 140.77 35.22 140.77 35.22 140.78 35.23 140.78 35.24 140.78 35.24 140.79 35.25 140.79 35.26 140.79 35.26 140.8 35.27 140.8 35.28 140.8 35.29 140.8 35.3 140.8 35.32 140.81 35.33 140.81 35.35 140.81 35.36 140.81 35.37 140.81 35.39 140.82 35.4 140.82 35.41 140.82 35.42 140.83 35.43 140.83 35.44 140.83 35.45 140.83 35.45 140.84 35.46 140.84 35.48 140.84 35.49 140.84 35.49 140.85 35.5 140.85 35.51 140.85 35.51 140.86 35.52 140.86 35.53 140.87 35.54 140.87 35.54 140.88 35.55 140.88 35.55 140.89 35.56 140.89 35.56 140.9 35.56 140.91 35.57 140.91 35.57 140.92 35.58 140.92 35.58 140.93 35.59 140.93 35.59 140.95 35.6 140.95 35.6 140.97 35.6 140.99 35.6 141 35.6 141.01 35.6 141.02 35.6 141.03 35.61 141.03 35.62 141.04 35.63 141.04 35.63 141.05 35.64 141.05 35.65 141.05 35.67 141.05 35.68 141.05 35.7 141.04 35.71 141.04 35.72 141.04 35.75 141.04 35.76 141.04 35.77 141.04 35.78 141.04 35.79 141.04 35.81 141.04 35.82 141.04 35.83 141.04 35.85 141.04 35.86 141.04 35.87 141.04 35.87 141.05 35.88 141.05 35.89 141.05 35.9 141.05 35.91 141.06 35.93 141.06 35.93 141.07 35.94 141.07 35.94 141.08 35.95 141.08 35.96 141.08 35.96 141.09 35.97 141.09 35.98 141.09"/>
</g>
</svg>