<?xml version="1.0"?>
<svg xmlns="http://www.w3.org/2000/svg" version="1.2" baseProfile="tiny" width="800" height="223" viewBox="0 0 800 223" stroke-linecap="round" stroke-linejoin="round">
<g id="cd22" fill="none" stroke="black" stroke-width="0.05">
<path d="M 37.01 138.07 37.01 138.06 37.01 138.07"/>
<path d="M 37.01 138.07 37 138.07 37.01 138.07"/>
<path d="M 35.79 138.58 35.8 138.58 35.8 138.57 35.81 138.57 35.81 138.56 35.81 138.55 35.81 138.54 35.81 138.53 35.81 138.52 35.81 138.51 35.81 138.5 35.82 138.5 35.82 138.49 35.83 138.49 35.83 138.48 35.84 138.48 35.86 138.48 35.86 138.47 35.87 138.47 35.88 138.47 35.88 138.46 35.89 138.46 35.9 138.46 35.93 138.46 35.94 138.45 35.96 138.45 35.98 138.45 35.99 138.45 36 138.45 36.01 138.45 36.01 138.44 36.02 138.44 36.03 138.44 36.03 138.43 36.04 138.43 36.05 138.43 36.06 138.43 36.07 138.43 36.08 138.43 36.1 138.42 36.11 138.42 36.12 138.42 36.13 138.42 36.15 138.42 36.15 138.41 36.16 138.41 36.18 138.41 36.18 138.4 36.19 138.4 36.2 138.4 36.2 138.39 36.21 138.39 36.22 138.39 36.23 138.39 36.23 138.38 36.24 138.38 36.25 138.38 36.25 138.37 36.26 138.37 36.25 138.37 36.26 138.37 36.26 138.36 36.27 138.36 36.28 138.36 36.29 138.36 36.3 138.36 36.3 138.35 36.31 138.35 36.33 138.35 36.34 138.35 36.35 138.35 36.36 138.35 36.37 138.35 36.38 138.35 36.38 138.34 36.39 138.34 36.4 138.34 36.39 138.34 36.4 138.34 36.4 138.33 36.41 138.32 36.42 138.32 36.43 138.32 36.43 138.31 36.44 138.31 36.44 138.3 36.45 138.3 36.45 138.29 36.45 138.28 36.46 138.28 36.47 138.28 36.47 138.27 36.48 138.27 36.49 138.27 36.5 138.27 36.5 138.26 36.51 138.26 36.52 138.25 36.53 138.25 36.54 138.25 36.54 138.24 36.55 138.24 36.56 138.24 36.56 138.23 36.57 138.23 36.58 138.23 36.59 138.22 36.6 138.22 36.61 138.21 36.62 138.21 36.63 138.21 36.64 138.21 36.64 138.2 36.64 138.19 36.65 138.19 36.66 138.19 36.67 138.19 36.68 138.19 36.68 138.18 36.69 138.18 36.7 138.18 36.71 138.18 36.71 138.17 36.72 138.17 36.73 138.17 36.74 138.16 36.75 138.16 36.76 138.15 36.76 138.14 36.76 138.13 36.77 138.13 36.76 138.13 36.77 138.13 36.77 138.12 36.78 138.12 36.78 138.11 36.79 138.11 36.79 138.1 36.79 138.09 36.8 138.09 36.81 138.09 36.82 138.08 36.83 138.08 36.84 138.08 36.85 138.08 36.85 138.07 36.86 138.07 36.86 138.06 36.87 138.06 36.88 138.05 36.89 138.05 36.9 138.05 36.92 138.05 36.94 138.06 36.95 138.06 36.96 138.06 36.96 138.07 36.97 138.07 36.98 138.07 37 138.07 36.99 138.07 36.99 138.08 36.98 138.08 36.97 138.08 36.98 138.09 36.99 138.09 37 138.09 36.98 138.09 36.98 138.1 36.98 138.11 36.99 138.11 36.99 138.12 36.98 138.13 36.97 138.14 36.95 138.14 36.94 138.14 36.93 138.14 36.93 138.15 36.93 138.16 36.93 138.17 36.94 138.18 36.93 138.18 36.93 138.19 36.92 138.2 36.91 138.2 36.91 138.21 36.9 138.21 36.89 138.21 36.88 138.22 36.87 138.22 36.86 138.22 36.85 138.22 36.85 138.23 36.84 138.23 36.84 138.24 36.83 138.24 36.82 138.24 36.81 138.24 36.8 138.25 36.78 138.25 36.77 138.25 36.77 138.26 36.76 138.26 36.75 138.26 36.75 138.27 36.74 138.27 36.74 138.28 36.73 138.28 36.72 138.28 36.72 138.29 36.71 138.29 36.7 138.29 36.7 138.3 36.69 138.31 36.68 138.32 36.67 138.32 36.66 138.33 36.65 138.33 36.65 138.34 36.64 138.34 36.64 138.35 36.63 138.36 36.62 138.36 36.61 138.36 36.61 138.37 36.6 138.37 36.59 138.37 36.59 138.38 36.58 138.38 36.56 138.38 36.55 138.38 36.54 138.38 36.54 138.39 36.53 138.39 36.52 138.39 36.5 138.39 36.49 138.39 36.48 138.39 36.47 138.39 36.47 138.4 36.46 138.4 36.45 138.4 36.43 138.4 36.42 138.4 36.41 138.4 36.41 138.41 36.39 138.41 36.38 138.41 36.36 138.41 36.35 138.41 36.34 138.41 36.35 138.41 36.34 138.41 36.34 138.42 36.33 138.42 36.33 138.43 36.32 138.43 36.32 138.44 36.32 138.45 36.31 138.45 36.3 138.45 36.3 138.46 36.29 138.46 36.28 138.46 36.27 138.47 36.26 138.47 36.25 138.47 36.25 138.48 36.24 138.48 36.23 138.48 36.23 138.49 36.22 138.49 36.2 138.49 36.2 138.5 36.19 138.5 36.19 138.51 36.18 138.51 36.17 138.52 36.17 138.53 36.16 138.54 36.16 138.55 36.15 138.55 36.15 138.56 36.15 138.57"/>
<path d="M 35.77 138.66 35.77 138.65 35.77 138.66"/>
<path d="M 34.91 139.31 34.91 139.3 34.92 139.3 34.92 139.29 34.93 139.28 34.94 139.28 34.94 139.27 34.95 139.27 34.96 139.27 34.96 139.26 34.97 139.26 34.98 139.26 34.98 139.25 34.99 139.25 34.99 139.24 35 139.24 35 139.23 35.01 139.23 35.01 139.22 35.01 139.21 35.02 139.2 35.02 139.19 35.01 139.18 35.01 139.17 35.01 139.16 35 139.15 35 139.14 34.99 139.14 34.99 139.13 34.99 139.12 34.99 139.11 34.99 139.1 34.98 139.1 34.98 139.09 34.98 139.08 34.98 139.07 34.98 139.06 34.98 139.05 34.97 139.04 34.96 139.04 34.96 139.03 34.95 139.03 34.94 139.03 34.93 139.03 34.93 139.02 34.92 139.02 34.91 139.02 34.9 139.02 34.9 139.01 34.89 139.01 34.88 139 34.87 139 34.86 139 34.85 138.99 34.84 139 34.84 138.99 34.83 138.99 34.82 138.99 34.82 138.98 34.81 138.98 34.8 138.98 34.8 138.97 34.79 138.97 34.78 138.97 34.77 138.96 34.76 138.96 34.75 138.95 34.74 138.95 34.73 138.95 34.72 138.95 34.72 138.94 34.71 138.94 34.7 138.94 34.69 138.94 34.69 138.93 34.68 138.93 34.67 138.93 34.66 138.93 34.65 138.93 34.65 138.92 34.64 138.92 34.63 138.91 34.62 138.91 34.61 138.91 34.61 138.9 34.6 138.9 34.59 138.9 34.59 138.89 34.58 138.89 34.58 138.88 34.57 138.88 34.56 138.88 34.56 138.87 34.55 138.87 34.54 138.86 34.53 138.86 34.53 138.85 34.54 138.85 34.53 138.84 34.52 138.85 34.52 138.84 34.52 138.83 34.53 138.83 34.55 138.83 34.56 138.83 34.56 138.82 34.55 138.8 34.55 138.79 34.54 138.78 34.53 138.78 34.52 138.77 34.53 138.77 34.54 138.77 34.55 138.77 34.55 138.78 34.56 138.78 34.56 138.79 34.57 138.8 34.57 138.81 34.57 138.82 34.58 138.83 34.6 138.83 34.6 138.82 34.6 138.81 34.63 138.81 34.63 138.82 34.64 138.82 34.65 138.82 34.66 138.83 34.67 138.83 34.67 138.84 34.68 138.84 34.69 138.84 34.7 138.84 34.71 138.85 34.72 138.85 34.72 138.86 34.74 138.86 34.76 138.87 34.77 138.87 34.77 138.86 34.77 138.87 34.78 138.87 34.8 138.87 34.81 138.87 34.82 138.87 34.83 138.87 34.85 138.87 34.87 138.87 34.88 138.87 34.89 138.87 34.9 138.87 34.91 138.87 34.92 138.87 34.93 138.87 34.94 138.87 34.94 138.88 34.95 138.88 34.96 138.88 34.97 138.88 34.97 138.89 34.98 138.89 34.99 138.89 34.99 138.9 35 138.9 35 138.91 35.01 138.91 35.02 138.92 35.03 138.92 35.04 138.92 35.05 138.92 35.05 138.93 35.06 138.93 35.07 138.93 35.07 138.94 35.08 138.94 35.08 138.95 35.09 138.95 35.1 138.94 35.11 138.94 35.11 138.95 35.12 138.95 35.13 138.95 35.13 138.96 35.15 138.96 35.15 138.95 35.15 138.94 35.16 138.94 35.17 138.94 35.17 138.93 35.18 138.92 35.18 138.91 35.19 138.91 35.18 138.9 35.19 138.9 35.19 138.89 35.19 138.88 35.2 138.88 35.2 138.87 35.2 138.86 35.21 138.86 35.22 138.86 35.22 138.85 35.23 138.85 35.24 138.84 35.25 138.84 35.26 138.84 35.26 138.83 35.27 138.83 35.28 138.82 35.29 138.82 35.3 138.82 35.31 138.82 35.32 138.82 35.32 138.81 35.34 138.81 35.35 138.81 35.36 138.81 35.37 138.8 35.38 138.8 35.39 138.8 35.4 138.8 35.4 138.79 35.41 138.78 35.42 138.78 35.42 138.77 35.43 138.77 35.44 138.77 35.45 138.77 35.45 138.76 35.47 138.76 35.48 138.76 35.49 138.76 35.51 138.76 35.52 138.76 35.53 138.76 35.53 138.75 35.54 138.75 35.55 138.75 35.56 138.75 35.57 138.75 35.58 138.75 35.6 138.74 35.61 138.74 35.63 138.74 35.64 138.74 35.65 138.74 35.66 138.74 35.67 138.74 35.68 138.73 35.69 138.73 35.7 138.73 35.7 138.72 35.71 138.72 35.72 138.72 35.72 138.71 35.73 138.71 35.73 138.7 35.73 138.69 35.73 138.68 35.74 138.68 35.74 138.67 35.75 138.66 35.75 138.65 35.75 138.64 35.75 138.63 35.76 138.62 35.77 138.61 35.77 138.59 35.78 138.59 35.79 138.59 35.79 138.58"/>
<path d="M 36.15 138.57 36.15 138.58 36.15 138.59 36.14 138.59 36.13 138.6 36.12 138.61 36.12 138.62 36.11 138.62 36.11 138.63 36.11 138.64 36.11 138.65 36.11 138.66 36.11 138.67 36.11 138.68 36.11 138.69 36.11 138.7 36.1 138.71 36.1 138.72 36.09 138.72 36.09 138.73 36.08 138.73 36.07 138.73 36.07 138.74 36.06 138.74 36.05 138.74 36.05 138.75 36.04 138.75 36.03 138.75 36.03 138.76 36.02 138.76 36.01 138.77 36 138.77 35.98 138.77 35.98 138.78 35.97 138.78 35.96 138.78 35.96 138.79 35.95 138.79 35.92 138.79 35.91 138.8 35.9 138.8 35.89 138.8 35.88 138.8 35.87 138.8 35.86 138.8 35.85 138.8 35.84 138.8 35.83 138.8 35.83 138.81 35.82 138.81 35.81 138.81 35.78 138.82 35.77 138.82 35.75 138.82 35.74 138.83 35.72 138.83 35.71 138.83 35.71 138.84 35.7 138.85 35.69 138.86 35.69 138.87 35.68 138.88 35.67 138.89 35.66 138.89 35.64 138.89 35.64 138.9 35.63 138.9 35.62 138.91 35.61 138.91 35.6 138.91 35.6 138.92 35.58 138.93 35.57 138.93 35.57 138.94 35.56 138.94 35.55 138.94 35.54 138.94 35.54 138.95 35.54 138.96 35.53 138.96 35.53 138.98 35.53 138.99 35.52 138.99 35.52 139 35.51 139.01 35.5 139.01 35.5 139.02 35.49 139.02 35.49 139.03 35.48 139.03 35.47 139.03 35.46 139.03 35.46 139.04 35.46 139.05 35.45 139.06 35.44 139.07 35.43 139.07 35.43 139.08 35.42 139.09 35.42 139.1 35.41 139.1 35.41 139.11 35.4 139.11 35.4 139.12 35.39 139.12 35.4 139.12 35.38 139.13 35.37 139.13 35.36 139.13 35.36 139.14 35.36 139.16 35.37 139.16 35.38 139.17 35.38 139.18 35.37 139.18 35.37 139.19 35.37 139.21 35.37 139.22 35.38 139.22 35.38 139.23 35.38 139.24 35.38 139.25 35.38 139.26 35.38 139.27 35.39 139.27 35.39 139.28 35.39 139.29 35.39 139.3 35.38 139.3 35.37 139.3 35.37 139.31 35.36 139.31 35.37 139.31 35.37 139.32 35.36 139.32 35.36 139.33 35.35 139.33 35.35 139.34 35.34 139.34 35.33 139.34 35.33 139.35 35.32 139.35 35.31 139.35 35.31 139.36 35.31 139.37 35.3 139.37 35.29 139.38 35.28 139.38 35.27 139.38 35.26 139.39 35.25 139.39 35.24 139.39 35.24 139.4 35.23 139.4 35.22 139.4 35.22 139.41 35.21 139.41 35.21 139.42 35.2 139.42 35.19 139.42 35.19 139.43 35.18 139.43 35.18 139.44 35.17 139.44 35.16 139.44 35.16 139.45 35.15 139.45 35.15 139.46 35.14 139.46 35.13 139.46 35.12 139.46 35.12 139.47 35.11 139.47 35.1 139.47 35.1 139.48 35.09 139.48 35.08 139.48 35.07 139.48 35.07 139.49 35.06 139.49 35.05 139.49 35.04 139.49 35.03 139.49 35.02 139.5 35.01 139.5 35 139.5 35 139.51 34.99 139.51 34.98 139.51 34.97 139.52 34.95 139.52 34.94 139.52 34.93 139.52 34.92 139.53 34.91 139.53 34.9 139.53 34.89 139.53 34.87 139.53 34.86 139.54 34.85 139.54 34.84 139.54 34.83 139.55 34.82 139.55 34.8 139.55 34.79 139.55 34.78 139.56 34.77 139.56 34.76 139.56 34.76 139.57 34.75 139.57 34.74 139.57 34.73 139.57 34.74 139.58 34.74 139.6 34.75 139.6 34.75 139.61 34.76 139.61 34.77 139.61 34.78 139.62 34.79 139.62 34.8 139.62 34.8 139.63 34.81 139.63 34.81 139.64 34.82 139.64 34.83 139.65 34.84 139.66 34.85 139.66 34.86 139.66 34.86 139.67 34.87 139.67 34.88 139.67 34.88 139.68 34.89 139.68 34.9 139.68 34.92 139.68 34.94 139.68 34.95 139.68 34.95 139.69 34.96 139.69 34.97 139.69 34.98 139.69 35 139.7 35.01 139.7 35.02 139.7 35.03 139.7 35.03 139.71 35.04 139.71 35.05 139.71 35.05 139.72 35.06 139.72 35.07 139.72 35.08 139.73 35.09 139.74 35.09 139.75 35.1 139.76 35.1 139.77 35.11 139.77 35.11 139.78 35.12 139.79 35.13 139.8 35.15 139.8 35.15 139.79 35.16 139.79 35.17 139.79 35.17 139.8 35.18 139.8 35.19 139.8 35.21 139.8 35.22 139.8 35.22 139.81 35.23 139.81 35.24 139.81 35.24 139.82 35.25 139.82 35.25 139.83 35.26 139.83 35.26 139.84 35.27 139.84 35.27 139.86 35.27 139.88 35.27 139.89 35.27 139.9 35.27 139.92 35.28 139.95 35.28 139.96 35.28 139.97 35.29 139.98 35.29 139.99 35.29 140 35.29 140.01 35.3 140.02 35.3 140.03 35.3 140.04 35.3 140.05 35.3 140.06 35.3 140.07"/>
</g>
</svg>