<?xml version="1.0"?>
<svg xmlns="http://www.w3.org/2000/svg" version="1.2" baseProfile="tiny" width="800" height="223" viewBox="0 0 800 223" stroke-linecap="round" stroke-linejoin="round">
<g id="cd22" fill="none" stroke="black" stroke-width="0.05">
<path d="M 31.8 145.3 31.8 145.29 31.81 145.29 31.81 145.28 31.81 145.29 31.82 145.29 31.81 145.29 31.81 145.3 31.8 145.3"/>
<path d="M 31.57 145.36 31.57 145.35 31.57 145.36"/>
<path d="M 31.7 145.62 31.71 145.61 31.72 145.61 31.72 145.6 31.73 145.6 31.74 145.6 31.74 145.59 31.75 145.59 31.75 145.58 31.76 145.58 31.77 145.58 31.77 145.57 31.78 145.56 31.79 145.56 31.79 145.55 31.8 145.55 31.81 145.55 31.81 145.54 31.82 145.54 31.83 145.53 31.83 145.52 31.84 145.52 31.84 145.51 31.85 145.51 31.85 145.5 31.86 145.5 31.87 145.5 31.87 145.49 31.88 145.49 31.88 145.48 31.89 145.48 31.9 145.48 31.9 145.47 31.91 145.47 31.92 145.46 31.93 145.45 31.94 145.45 31.95 145.44 31.96 145.44 31.96 145.43 31.97 145.43 31.98 145.43 31.99 145.43 31.99 145.42 32 145.42 32.01 145.41 32.02 145.4 32.03 145.39 32.04 145.38 32.05 145.38 32.05 145.37 32.06 145.37 32.07 145.36 32.08 145.36 32.08 145.35 32.09 145.36 32.09 145.35 32.1 145.35 32.11 145.35 32.12 145.35 32.12 145.34 32.13 145.34 32.13 145.33 32.14 145.33 32.14 145.32 32.15 145.32 32.16 145.32 32.16 145.31 32.17 145.31 32.17 145.3 32.18 145.3 32.19 145.3 32.19 145.29 32.2 145.29 32.21 145.28 32.22 145.28 32.23 145.28 32.23 145.27 32.24 145.27 32.25 145.27 32.26 145.27 32.26 145.26 32.27 145.26 32.27 145.25 32.27 145.24 32.28 145.24 32.28 145.23 32.29 145.23 32.3 145.23 32.3 145.22 32.31 145.21 32.32 145.21 32.33 145.21 32.35 145.21 32.37 145.21 32.38 145.2 32.39 145.2 32.39 145.19 32.4 145.19 32.41 145.18 32.42 145.18 32.43 145.18 32.43 145.17 32.44 145.17 32.45 145.17 32.45 145.16 32.47 145.16 32.49 145.16 32.5 145.16 32.51 145.16 32.51 145.17 32.52 145.17 32.53 145.17 32.53 145.18 32.54 145.18 32.54 145.19 32.53 145.19 32.53 145.2 32.52 145.2 32.51 145.2 32.51 145.21 32.5 145.21 32.49 145.21 32.49 145.22 32.48 145.22 32.47 145.22 32.46 145.22 32.47 145.23 32.45 145.23 32.44 145.23 32.43 145.24 32.42 145.24 32.42 145.25 32.41 145.25 32.41 145.26 32.4 145.26 32.39 145.26 32.39 145.27 32.4 145.27 32.39 145.27 32.38 145.28 32.37 145.28 32.36 145.28 32.36 145.29 32.37 145.29 32.36 145.29 32.35 145.3 32.34 145.3 32.33 145.3 32.33 145.31 32.32 145.31 32.32 145.32 32.31 145.32 32.3 145.32 32.29 145.33 32.28 145.34 32.28 145.35 32.27 145.34 32.27 145.35 32.27 145.36 32.26 145.38 32.27 145.38 32.27 145.39 32.26 145.4 32.25 145.4 32.24 145.4 32.23 145.4 32.23 145.41 32.22 145.41 32.23 145.41 32.22 145.42 32.21 145.42 32.2 145.42 32.18 145.42 32.17 145.43 32.16 145.43 32.16 145.44 32.15 145.44 32.14 145.45 32.14 145.46 32.13 145.46 32.12 145.47 32.11 145.48 32.1 145.48 32.1 145.49 32.09 145.49 32.08 145.49 32.07 145.5 32.06 145.51 32.05 145.51 32.05 145.52 32.04 145.52 32.04 145.53 32.03 145.53 32.03 145.54 32.02 145.54 32.02 145.55 32.01 145.55 32.01 145.56 32 145.56 31.99 145.56 31.98 145.56 31.98 145.57 31.97 145.57 31.96 145.57 31.96 145.58 31.95 145.58 31.94 145.59 31.94 145.6 31.93 145.6 31.92 145.6 31.92 145.61 31.91 145.61 31.91 145.62 31.9 145.62 31.9 145.63 31.89 145.63 31.89 145.64 31.88 145.64 31.89 145.65 31.9 145.65 31.9 145.66 31.9 145.67 31.9 145.68 31.89 145.69 31.88 145.69 31.88 145.7 31.87 145.7 31.86 145.71 31.85 145.71 31.84 145.72 31.83 145.72 31.83 145.73 31.82 145.73 31.81 145.74 31.81 145.75 31.8 145.75 31.8 145.76 31.79 145.76 31.78 145.77 31.77 145.77 31.77 145.78 31.76 145.78 31.75 145.78 31.75 145.79 31.74 145.79 31.74 145.8 31.73 145.8 31.73 145.81 31.72 145.81 31.73 145.81 31.72 145.81"/>
<path d="M 30.67 146.03 30.68 146.02 30.69 146.02 30.71 146.02 30.72 146.02 30.74 146.02 30.74 146.01 30.76 146.01 30.77 146.01 30.77 146 30.78 146 30.79 146 30.8 145.99 30.82 145.99 30.83 145.99 30.84 145.99 30.84 145.98 30.86 145.98 30.87 145.98 30.88 145.98 30.88 145.97 30.89 145.97 30.9 145.97 30.91 145.97 30.92 145.96 30.93 145.96 30.94 145.95 30.95 145.95 30.95 145.94 30.96 145.94 30.97 145.94 30.97 145.93 30.98 145.93 30.99 145.93 31 145.93 31.01 145.93 31.02 145.93 31.02 145.92 31.07 145.92 31.08 145.92 31.09 145.92 31.1 145.92 31.11 145.92 31.12 145.92 31.13 145.92 31.14 145.92 31.15 145.92 31.16 145.92 31.19 145.91 31.2 145.91 31.21 145.91 31.23 145.91 31.23 145.92 31.24 145.92 31.25 145.92 31.26 145.92 31.27 145.93 31.28 145.94 31.29 145.94 31.29 145.95 31.3 145.95 31.31 145.95 31.32 145.95 31.33 145.95 31.35 145.95 31.36 145.95 31.37 145.94 31.38 145.94 31.39 145.94 31.39 145.93 31.41 145.93 31.42 145.92 31.43 145.92 31.44 145.92 31.44 145.91 31.45 145.91 31.46 145.91 31.46 145.9 31.46 145.89 31.45 145.89 31.45 145.88 31.45 145.87 31.46 145.87 31.47 145.87 31.47 145.86 31.48 145.86 31.48 145.85 31.49 145.85 31.49 145.84 31.5 145.84 31.5 145.83 31.51 145.83 31.51 145.82 31.52 145.82 31.53 145.82 31.53 145.81 31.53 145.8 31.54 145.8 31.54 145.79 31.53 145.79 31.54 145.79 31.55 145.78 31.55 145.77 31.56 145.77 31.57 145.77 31.57 145.76 31.58 145.76 31.58 145.75 31.59 145.75 31.59 145.74 31.6 145.74 31.6 145.73 31.61 145.72 31.62 145.72 31.63 145.72 31.63 145.71 31.63 145.7 31.64 145.69 31.64 145.67 31.63 145.66 31.62 145.66 31.62 145.65 31.61 145.65 31.61 145.64 31.6 145.64 31.6 145.63 31.59 145.62 31.58 145.62 31.58 145.61 31.59 145.61 31.59 145.6 31.59 145.59 31.58 145.59 31.58 145.58 31.58 145.57 31.58 145.56 31.58 145.55 31.58 145.54 31.59 145.53 31.6 145.53 31.59 145.52 31.6 145.52 31.6 145.51 31.6 145.5 31.6 145.49 31.6 145.47 31.6 145.46 31.59 145.45 31.6 145.44 31.61 145.43 31.61 145.42 31.61 145.41 31.61 145.4 31.62 145.4 31.62 145.39 31.61 145.39 31.6 145.39 31.59 145.38 31.58 145.38 31.57 145.38 31.57 145.37 31.56 145.37 31.56 145.36 31.57 145.36 31.56 145.36 31.55 145.36 31.56 145.36 31.56 145.35 31.56 145.34 31.57 145.34 31.57 145.35 31.58 145.35 31.58 145.34 31.57 145.34 31.58 145.34 31.58 145.33 31.59 145.33 31.59 145.32 31.58 145.32 31.59 145.32 31.6 145.31 31.6 145.32 31.61 145.32 31.62 145.32 31.63 145.32 31.64 145.31 31.65 145.31 31.65 145.3 31.66 145.3 31.67 145.3 31.68 145.3 31.68 145.29 31.69 145.29 31.7 145.28 31.71 145.28 31.72 145.28 31.74 145.27 31.79 145.27 31.8 145.27 31.81 145.27 31.83 145.27 31.85 145.27 31.86 145.27 31.87 145.27 31.88 145.27 31.88 145.28 31.87 145.28 31.86 145.28 31.86 145.29 31.85 145.29 31.84 145.29 31.83 145.29 31.83 145.3 31.82 145.3 31.83 145.3 31.83 145.31 31.83 145.32 31.82 145.32 31.81 145.32 31.8 145.32 31.79 145.32 31.78 145.33 31.77 145.33 31.77 145.32 31.76 145.33 31.74 145.33 31.73 145.33 31.71 145.33 31.7 145.33 31.7 145.34 31.69 145.34 31.68 145.35 31.68 145.36 31.67 145.36 31.67 145.37 31.67 145.39 31.68 145.39 31.69 145.4 31.68 145.4 31.69 145.4 31.69 145.41 31.7 145.41 31.7 145.42 31.71 145.43 31.7 145.43 31.71 145.43 31.71 145.44 31.73 145.44 31.72 145.44 31.72 145.45 31.72 145.46 31.71 145.47 31.71 145.48 31.71 145.49 31.72 145.5 31.71 145.5 31.71 145.51 31.71 145.52 31.7 145.52 31.69 145.53 31.68 145.53 31.68 145.54 31.68 145.55 31.68 145.56 31.67 145.56 31.67 145.57 31.66 145.57 31.66 145.58 31.66 145.59 31.66 145.6 31.67 145.6 31.68 145.6 31.68 145.61 31.69 145.61 31.69 145.62 31.7 145.62"/>
<path d="M 31.72 145.81 31.72 145.82 31.71 145.82 31.7 145.82 31.69 145.82 31.69 145.83 31.68 145.83 31.68 145.84 31.67 145.84 31.66 145.84 31.66 145.85 31.65 145.85 31.64 145.85 31.64 145.86 31.63 145.86 31.63 145.87 31.62 145.87 31.61 145.88 31.62 145.88 31.62 145.89 31.64 145.89 31.65 145.89 31.66 145.89 31.67 145.89 31.67 145.9 31.69 145.9 31.7 145.9 31.71 145.9 31.72 145.9 31.73 145.9 31.73 145.91 31.74 145.91 31.75 145.92 31.76 145.92 31.77 145.92 31.78 145.91 31.79 145.91 31.8 145.91 31.82 145.91 31.82 145.9 31.83 145.9 31.84 145.89 31.85 145.89 31.85 145.88 31.86 145.88 31.86 145.87 31.87 145.87 31.88 145.87 31.88 145.86 31.89 145.86 31.9 145.86 31.91 145.85 31.92 145.85 31.93 145.85 31.93 145.84 31.94 145.84 31.95 145.84 31.96 145.84 31.97 145.83 31.99 145.83 32 145.83 32.02 145.83 32.03 145.83 32.05 145.82 32.07 145.82 32.1 145.82 32.11 145.82 32.12 145.82 32.13 145.82 32.16 145.82 32.16 145.81 32.17 145.81 32.18 145.81 32.2 145.81 32.22 145.81 32.23 145.81 32.24 145.81 32.25 145.81 32.28 145.81 32.29 145.81 32.3 145.81 32.31 145.81 32.32 145.81 32.33 145.81 32.37 145.81 32.37 145.82 32.38 145.82 32.39 145.82 32.4 145.83 32.42 145.83 32.44 145.84 32.45 145.83 32.46 145.84 32.47 145.84 32.48 145.85 32.5 145.85 32.51 145.85 32.51 145.86 32.52 145.86 32.53 145.86 32.54 145.86 32.55 145.86 32.55 145.87 32.58 145.87 32.59 145.87 32.6 145.87 32.62 145.87 32.62 145.88 32.63 145.88 32.64 145.88 32.65 145.88 32.66 145.88 32.66 145.89 32.68 145.89 32.69 145.89 32.69 145.9 32.7 145.9 32.71 145.9 32.71 145.91 32.72 145.91 32.73 145.91 32.73 145.92 32.74 145.92 32.75 145.92 32.76 145.92 32.77 145.92 32.78 145.92 32.78 145.93 32.79 145.93 32.8 145.93 32.81 145.93 32.82 145.94 32.84 145.94 32.85 145.94 32.86 145.94 32.87 145.94 32.89 145.94 32.9 145.94 32.91 145.94 32.93 145.94 32.95 145.94 32.96 145.93 32.97 145.93 32.98 145.92 32.99 145.92 33.01 145.92 33.01 145.91 33.02 145.91 33.03 145.91 33.03 145.9 33.04 145.9 33.06 145.9 33.07 145.9 33.07 145.89 33.08 145.89 33.09 145.89 33.1 145.89 33.11 145.89 33.11 145.88 33.13 145.88 33.14 145.88 33.15 145.88 33.16 145.88 33.17 145.88 33.19 145.88 33.19 145.87 33.2 145.87 33.21 145.87 33.23 145.86 33.24 145.86 33.25 145.87 33.26 145.87 33.27 145.87 33.28 145.87 33.28 145.86 33.29 145.86 33.29 145.85 33.3 145.85 33.31 145.85 33.31 145.84 33.32 145.84 33.33 145.84 33.35 145.84 33.36 145.84 33.37 145.84 33.38 145.84 33.37 145.84 33.37 145.86 33.38 145.86 33.37 145.86 33.36 145.86 33.37 145.87 33.37 145.88 33.36 145.88 33.36 145.89 33.35 145.89 33.33 145.89 33.31 145.89 33.31 145.9 33.29 145.9 33.28 145.9 33.27 145.9 33.26 145.9 33.25 145.9 33.24 145.9 33.23 145.9 33.22 145.9 33.21 145.91 33.2 145.91 33.2 145.92 33.19 145.92 33.18 145.92 33.17 145.93 33.16 145.93 33.14 145.93 33.13 145.94 33.11 145.94 33.07 145.94 33.06 145.94 33.06 145.96 33.06 145.97 33.06 145.98 33.05 145.98 33.04 145.98 33.03 145.98 33.03 145.99 33.02 145.99 33.02 146 33.01 146 33 146 32.98 146 32.97 146 32.95 146 32.94 146 32.93 146 32.93 146.01 32.92 146.01 32.91 146.01 32.9 146.02 32.91 146.02 32.91 146.03 32.9 146.03 32.89 146.04 32.89 146.05 32.88 146.05 32.88 146.06 32.88 146.07 32.87 146.07 32.84 146.07 32.84 146.08 32.85 146.08 32.84 146.08 32.84 146.07 32.82 146.07 32.83 146.08 32.82 146.08 32.82 146.09 32.81 146.09 32.81 146.1 32.81 146.11 32.79 146.11 32.78 146.11 32.77 146.11 32.77 146.12"/>
<path d="M 29.5 146.25 29.54 146.25 29.55 146.25 29.56 146.25 29.58 146.25 29.59 146.25 29.59 146.24 29.59 146.25 29.6 146.25 29.61 146.25 29.61 146.26 29.62 146.26 29.63 146.27 29.64 146.27 29.65 146.27 29.64 146.27 29.64 146.28 29.65 146.28 29.65 146.3 29.66 146.31 29.66 146.32 29.67 146.32 29.67 146.33 29.68 146.33 29.68 146.34 29.69 146.34 29.69 146.35 29.7 146.36 29.71 146.36 29.72 146.36 29.72 146.37 29.73 146.37 29.74 146.37 29.74 146.38 29.75 146.38 29.76 146.38 29.77 146.38 29.78 146.38 29.78 146.39 29.8 146.39 29.81 146.39 29.82 146.39 29.84 146.38 29.85 146.38 29.86 146.38 29.87 146.38 29.87 146.37 29.87 146.38 29.88 146.38 29.89 146.38 29.91 146.37 29.92 146.37 29.92 146.38 29.93 146.38 29.94 146.37 29.94 146.38 29.95 146.38 29.95 146.37 29.96 146.37 29.95 146.37 29.96 146.36 29.97 146.35 29.97 146.34 29.96 146.34 29.96 146.33 29.96 146.32 29.97 146.31 29.98 146.3 29.99 146.3 30 146.3 30.01 146.3 30.01 146.29 30.02 146.29 30.03 146.28 30.04 146.28 30.05 146.28 30.06 146.27 30.09 146.28 30.1 146.28 30.1 146.27 30.11 146.27 30.12 146.27 30.12 146.26 30.13 146.26 30.13 146.25 30.14 146.25 30.14 146.24 30.16 146.24 30.17 146.24 30.18 146.23 30.18 146.22 30.18 146.21 30.19 146.21 30.21 146.21 30.22 146.21 30.23 146.21 30.25 146.2 30.26 146.2 30.26 146.21 30.27 146.21 30.28 146.21 30.3 146.21 30.31 146.2 30.32 146.2 30.33 146.2 30.33 146.19 30.34 146.19 30.35 146.18 30.36 146.18 30.37 146.17 30.38 146.17 30.38 146.16 30.37 146.15 30.37 146.14 30.36 146.14 30.36 146.13 30.37 146.13 30.37 146.12 30.37 146.11 30.37 146.1 30.38 146.09 30.37 146.08 30.4 146.08 30.4 146.07 30.41 146.07 30.42 146.06 30.43 146.06 30.44 146.06 30.45 146.05 30.47 146.05 30.49 146.05 30.5 146.05 30.5 146.06 30.51 146.06 30.52 146.06 30.53 146.06 30.54 146.06 30.56 146.05 30.58 146.05 30.59 146.05 30.6 146.05 30.6 146.04 30.61 146.04 30.62 146.04 30.63 146.04 30.64 146.04 30.65 146.05 30.66 146.05 30.66 146.04 30.67 146.04 30.67 146.03"/>
<path d="M 32.77 146.12 32.75 146.12 32.74 146.11 32.73 146.11 32.73 146.1 32.72 146.1 32.71 146.09 32.7 146.09 32.68 146.09 32.68 146.08 32.67 146.08 32.67 146.07 32.66 146.07 32.65 146.07 32.65 146.06 32.64 146.05 32.63 146.05 32.63 146.04 32.62 146.04 32.61 146.04 32.6 146.04 32.59 146.03 32.58 146.03 32.57 146.03 32.56 146.03 32.55 146.02 32.54 146.02 32.53 146.02 32.53 146.01 32.52 146.01 32.51 146.01 32.5 146.01 32.49 146.01 32.49 146 32.48 146 32.47 146 32.46 146 32.44 145.99 32.43 145.99 32.42 145.99 32.41 145.99 32.38 145.99 32.37 145.98 32.36 145.98 32.35 145.98 32.34 145.99 32.34 145.98 32.33 145.98 32.32 145.98 32.31 145.98 32.29 145.98 32.28 145.98 32.27 145.98 32.27 145.97 32.25 145.97 32.24 145.97 32.23 145.97 32.21 145.97 32.21 145.98 32.19 145.98 32.16 145.98 32.15 145.98 32.14 145.98 32.13 145.98 32.11 145.98 32.1 145.98 32.09 145.98 32.08 145.98 32.07 145.98 32.07 145.99 32.06 145.99 32.06 146 32.05 146 32.04 146 32.03 146 32.03 146.01 32.02 146.01 32 146.01 31.99 146.01 31.99 146.02 31.98 146.02 31.97 146.02 31.96 146.02 31.95 146.02 31.94 146.03 31.93 146.03 31.92 146.04 31.91 146.04 31.9 146.04 31.89 146.05 31.88 146.05 31.86 146.05 31.85 146.06 31.84 146.06 31.8 146.06 31.78 146.06 31.77 146.06 31.71 146.06 31.7 146.06 31.68 146.06 31.64 146.06 31.62 146.06 31.59 146.07 31.55 146.07 31.53 146.07 31.52 146.07 31.51 146.07 31.5 146.07 31.49 146.07 31.49 146.08 31.48 146.08 31.47 146.08 31.47 146.09 31.46 146.09 31.43 146.09 31.41 146.09 31.4 146.09 31.39 146.09 31.39 146.08 31.37 146.08 31.36 146.08 31.35 146.08 31.34 146.08 31.32 146.08 31.31 146.07 31.3 146.07 31.29 146.07 31.28 146.06 31.27 146.06 31.26 146.06 31.25 146.06 31.25 146.05 31.24 146.05 31.23 146.05 31.22 146.05 31.19 146.05 31.17 146.04 31.15 146.04 31.14 146.04 31.11 146.04 31.07 146.04 31.06 146.04 31.05 146.04 31.03 146.04 31.02 146.04 31.01 146.05 31 146.05 30.99 146.05 30.98 146.05 30.97 146.06 30.96 146.06 30.96 146.07 30.95 146.07 30.94 146.07 30.94 146.08 30.93 146.08 30.94 146.08 30.93 146.08 30.93 146.09 30.92 146.09 30.91 146.09 30.91 146.1 30.9 146.1 30.9 146.09 30.9 146.1 30.89 146.1 30.88 146.11 30.87 146.11 30.86 146.12 30.85 146.13 30.85 146.14 30.84 146.14 30.84 146.15 30.83 146.15 30.82 146.16 30.82 146.17 30.81 146.17 30.8 146.18 30.79 146.18 30.8 146.18 30.8 146.19 30.8 146.2 30.78 146.2 30.79 146.2 30.78 146.2 30.78 146.21 30.78 146.22 30.77 146.22 30.76 146.22 30.75 146.23 30.74 146.23 30.73 146.23 30.73 146.24 30.72 146.24 30.71 146.24 30.69 146.24 30.69 146.25 30.68 146.25 30.67 146.25 30.66 146.25 30.66 146.26 30.65 146.26 30.64 146.26 30.64 146.27 30.63 146.27 30.62 146.27 30.61 146.28 30.6 146.28 30.59 146.28 30.58 146.28 30.57 146.29 30.56 146.29 30.55 146.29 30.55 146.3 30.55 146.31 30.54 146.31 30.54 146.32 30.54 146.33 30.53 146.33 30.53 146.34 30.52 146.34 30.51 146.34 30.52 146.35 30.51 146.34 30.5 146.34 30.49 146.34 30.48 146.34 30.47 146.34 30.47 146.35 30.46 146.35 30.45 146.35 30.44 146.35 30.43 146.35 30.42 146.35 30.41 146.35 30.4 146.35 30.39 146.35 30.38 146.35 30.38 146.36 30.37 146.36 30.36 146.37 30.36 146.38 30.35 146.38 30.35 146.39 30.34 146.39 30.33 146.39 30.33 146.4 30.32 146.4 30.33 146.41 30.33 146.42 30.33 146.43 30.32 146.43 30.33 146.43 30.32 146.43 30.32 146.44 30.32 146.45 30.31 146.46 30.3 146.46 30.3 146.47 30.29 146.48 30.28 146.49 30.27 146.5 30.27 146.51 30.26 146.51 30.27 146.51 30.26 146.52 30.26 146.53 30.25 146.53 30.25 146.54 30.24 146.54 30.23 146.54 30.24 146.54 30.24 146.55 30.23 146.55 30.22 146.56 30.21 146.56 30.21 146.57 30.2 146.57 30.19 146.57 30.18 146.58 30.17 146.58 30.16 146.58 30.15 146.58 30.14 146.59 30.13 146.59 30.12 146.59 30.12 146.6 30.11 146.6 30.1 146.6 30.1 146.61 30.09 146.61 30.08 146.61 30.08 146.62 30.07 146.62 30.06 146.62 30.05 146.62 30.05 146.63 30.04 146.63 30.04 146.64 30.03 146.64 30.03 146.65 30.02 146.65 30.02 146.66 30.02 146.67 30.03 146.67 30.03 146.68 30.04 146.68 30.04 146.69 30.05 146.69"/>
</g>
</svg>