<?xml version="1.0"?>
<svg xmlns="http://www.w3.org/2000/svg" version="1.2" baseProfile="tiny" width="800" height="223" viewBox="0 0 800 223" stroke-linecap="round" stroke-linejoin="round">
<g id="cd22" fill="none" stroke="black" stroke-width="0.05">
<path d="M 23.85 129.05 23.85 129.04 23.84 129.04 23.85 129.04 23.86 129.04 23.87 129.04 23.86 129.04 23.86 129.05 23.85 129.05"/>
<path d="M 23.84 129.06 23.83 129.06 23.84 129.06 23.85 129.06 23.84 129.06"/>
<path d="M 23.88 129.06 23.87 129.06 23.86 129.05 23.87 129.05 23.88 129.05 23.89 129.05 23.89 129.06 23.88 129.06"/>
<path d="M 24.81 129.11 24.8 129.1 24.8 129.11 24.79 129.11 24.79 129.1 24.8 129.1 24.81 129.1 24.81 129.11"/>
<path d="M 24.2 129.31 24.19 129.31 24.2 129.31"/>
<path d="M 24.89 129.36 24.87 129.36 24.89 129.36"/>
<path d="M 24.84 129.37 24.84 129.38 24.84 129.37"/>
<path d="M 24.97 129.38 24.96 129.38 24.96 129.37 24.97 129.37 24.97 129.38"/>
<path d="M 24.94 129.38 24.93 129.38 24.92 129.38 24.91 129.38 24.9 129.38 24.9 129.37 24.91 129.37 24.92 129.37 24.93 129.37 24.94 129.37 24.94 129.38"/>
<path d="M 24.88 129.38 24.87 129.38 24.87 129.37 24.88 129.37 24.89 129.37 24.9 129.37 24.89 129.37 24.89 129.38 24.88 129.38"/>
<path d="M 24.97 129.48 24.96 129.48 24.96 129.47 24.97 129.47 24.97 129.48"/>
<path d="M 24.68 129.54 24.67 129.54 24.66 129.54 24.66 129.53 24.67 129.53 24.68 129.53 24.69 129.53 24.7 129.53 24.7 129.54 24.69 129.54 24.68 129.54 24.69 129.54 24.68 129.54"/>
<path d="M 24.67 129.55 24.66 129.55 24.67 129.55"/>
<path d="M 24.76 129.61 24.75 129.61 24.76 129.6 24.76 129.61"/>
<path d="M 24.75 129.61 24.74 129.61 24.75 129.61"/>
<path d="M 24.89 129.63 24.88 129.63 24.88 129.62 24.9 129.62 24.9 129.63 24.89 129.63"/>
<path d="M 23.81 129.72 23.8 129.72 23.8 129.71 23.81 129.71 23.81 129.72"/>
<path d="M 24.74 129.73 24.73 129.73 24.74 129.73"/>
<path d="M 23.99 129.81 23.98 129.81 23.98 129.8 23.99 129.8 24 129.8 23.99 129.8 23.98 129.8 23.97 129.8 23.97 129.79 23.96 129.79 23.95 129.79 23.95 129.78 23.94 129.78 23.93 129.78 23.94 129.78 23.94 129.77 23.95 129.77 23.96 129.77 23.97 129.77 23.98 129.77 23.98 129.76 23.98 129.75 23.97 129.75 23.96 129.75 23.97 129.75 23.96 129.75 23.96 129.74 23.97 129.74 23.98 129.74 23.98 129.73 23.99 129.74 24.01 129.74 24.01 129.75 24.02 129.75 24.02 129.76 24.06 129.76 24.07 129.76 24.06 129.77 24.06 129.78 24.05 129.79 24.04 129.79 24.03 129.79 24.04 129.79 24.04 129.8 24.03 129.8 24.02 129.8 24.01 129.8 24 129.81 23.99 129.81"/>
<path d="M 24.56 129.82 24.55 129.82 24.55 129.81 24.56 129.81 24.56 129.82"/>
<path d="M 24.58 129.84 24.57 129.84 24.56 129.84 24.55 129.84 24.55 129.83 24.54 129.83 24.53 129.83 24.52 129.83 24.54 129.82 24.56 129.82 24.57 129.82 24.58 129.82 24.59 129.82 24.59 129.83 24.6 129.83 24.59 129.83 24.59 129.84 24.58 129.84"/>
<path d="M 24.14 129.96 24.13 129.96 24.14 129.96"/>
</g>
</svg>