<?xml version="1.0"?>
<svg xmlns="http://www.w3.org/2000/svg" version="1.2" baseProfile="tiny" width="800" height="223" viewBox="0 0 800 223" stroke-linecap="round" stroke-linejoin="round">
<g id="cd22" fill="none" stroke="black" stroke-width="0.05">
<path d="M 14.84 136.63 14.85 136.63 14.84 136.63"/>
<path d="M 14.99 136.84 14.98 136.84 14.99 136.84"/>
<path d="M 14.89 136.91 14.89 136.9 14.89 136.91"/>
<path d="M 15 136.94 14.99 136.94 15 136.94"/>
<path d="M 14.04 137.28 14.04 137.27 14.04 137.28"/>
<path d="M 14.53 137.37 14.52 137.37 14.53 137.37"/>
<path d="M 14.59 137.39 14.6 137.39 14.59 137.39"/>
<path d="M 14.6 137.4 14.6 137.39 14.6 137.4"/>
<path d="M 14.51 137.4 14.5 137.4 14.51 137.4"/>
<path d="M 14.15 137.44 14.15 137.43 14.15 137.44"/>
<path d="M 14.11 137.45 14.1 137.45 14.11 137.45"/>
<path d="M 14.73 137.47 14.73 137.46 14.74 137.46 14.73 137.47"/>
<path d="M 14.9 137.5 14.91 137.5 14.9 137.5"/>
<path d="M 14.61 137.56 14.6 137.56 14.61 137.56"/>
<path d="M 14.19 138.82 14.18 138.82 14.18 138.81 14.19 138.81 14.19 138.82"/>
<path d="M 14.04 139.17 14.04 139.16 14.04 139.17"/>
<path d="M 14.11 139.17 14.1 139.17 14.11 139.17"/>
<path d="M 14.71 139.34 14.71 139.33 14.71 139.34"/>
<path d="M 14.28 139.42 14.28 139.41 14.29 139.41 14.29 139.42 14.28 139.42"/>
<path d="M 14.87 139.44 14.88 139.44 14.87 139.44"/>
<path d="M 14.38 139.46 14.38 139.45 14.38 139.46"/>
<path d="M 14.54 139.46 14.53 139.46 14.53 139.45 14.54 139.45 14.54 139.46"/>
<path d="M 14.78 139.47 14.78 139.46 14.77 139.46 14.78 139.46 14.79 139.46 14.8 139.46 14.79 139.46 14.79 139.47 14.78 139.47"/>
<path d="M 14.34 139.47 14.33 139.47 14.34 139.47"/>
<path d="M 14.06 139.53 14.05 139.53 14.06 139.53"/>
<path d="M 13.91 139.57 13.91 139.56 13.91 139.57"/>
<path d="M 14.13 139.57 14.13 139.56 14.14 139.56 14.13 139.57"/>
<path d="M 13.8 139.59 13.8 139.58 13.8 139.59"/>
<path d="M 13.53 139.6 13.54 139.6 13.53 139.6"/>
<path d="M 13.61 139.61 13.6 139.61 13.61 139.61"/>
<path d="M 13.9 139.62 13.9 139.61 13.9 139.62"/>
<path d="M 14.03 139.62 14.04 139.62 14.03 139.62"/>
<path d="M 14.53 139.62 14.52 139.62 14.53 139.62"/>
<path d="M 14.5 139.62 14.51 139.62 14.5 139.62"/>
<path d="M 14.52 139.63 14.52 139.62 14.52 139.63"/>
<path d="M 13.45 139.63 13.45 139.62 13.46 139.62 13.47 139.62 13.46 139.63 13.45 139.63"/>
<path d="M 13.8 139.63 13.8 139.62 13.8 139.63"/>
<path d="M 14 139.63 13.99 139.63 13.99 139.62 14 139.63"/>
<path d="M 14.52 139.63 14.51 139.63 14.52 139.63"/>
<path d="M 13.58 139.64 13.57 139.64 13.57 139.63 13.58 139.63 13.58 139.64"/>
<path d="M 13.57 139.64 13.58 139.64 13.57 139.64"/>
<path d="M 13.47 139.64 13.46 139.64 13.47 139.64"/>
<path d="M 14.02 139.65 14.02 139.64 14.02 139.65"/>
<path d="M 13.57 139.65 13.56 139.65 13.57 139.64 13.57 139.65"/>
<path d="M 14.17 139.65 14.16 139.65 14.16 139.64 14.17 139.64 14.17 139.65"/>
<path d="M 13.82 139.65 13.81 139.65 13.82 139.65"/>
<path d="M 13.65 139.65 13.64 139.65 13.65 139.65"/>
<path d="M 14.59 139.66 14.6 139.66 14.59 139.66"/>
<path d="M 14.38 139.66 14.38 139.65 14.39 139.65 14.4 139.65 14.4 139.66 14.38 139.66"/>
<path d="M 14.07 139.66 14.06 139.66 14.07 139.66"/>
<path d="M 14.4 139.67 14.4 139.66 14.39 139.66 14.4 139.66 14.4 139.67"/>
<path d="M 13.65 139.67 13.64 139.67 13.63 139.66 13.64 139.66 13.65 139.66 13.65 139.67"/>
<path d="M 14.3 139.67 14.3 139.66 14.3 139.67"/>
<path d="M 14.75 139.67 14.75 139.66 14.76 139.67 14.75 139.67"/>
<path d="M 13.48 139.67 13.47 139.67 13.48 139.67"/>
<path d="M 13.66 139.67 13.65 139.67 13.66 139.67 13.67 139.67 13.66 139.67"/>
<path d="M 13.62 139.67 13.61 139.67 13.62 139.67"/>
<path d="M 13.64 139.67 13.63 139.67 13.64 139.67"/>
<path d="M 14.11 139.68 14.11 139.67 14.11 139.68"/>
<path d="M 14.74 139.68 14.75 139.68 14.75 139.67 14.76 139.67 14.75 139.67 14.75 139.68 14.74 139.68"/>
<path d="M 14.87 139.69 14.86 139.69 14.86 139.68 14.87 139.69"/>
<path d="M 13.62 139.69 13.63 139.68 13.63 139.69 13.62 139.69"/>
<path d="M 13.67 139.69 13.66 139.69 13.67 139.69"/>
<path d="M 13.73 139.71 13.73 139.7 13.74 139.7 13.73 139.71"/>
<path d="M 13.75 139.71 13.75 139.7 13.76 139.7 13.76 139.71 13.75 139.71"/>
<path d="M 13.67 139.71 13.66 139.71 13.67 139.71"/>
<path d="M 13.74 139.72 13.74 139.71 13.74 139.72"/>
<path d="M 13.72 139.74 13.71 139.74 13.71 139.73 13.72 139.73 13.72 139.74"/>
<path d="M 14.62 139.75 14.61 139.75 14.62 139.74 14.62 139.75"/>
<path d="M 14.53 139.75 14.52 139.75 14.53 139.75"/>
<path d="M 14.58 139.76 14.57 139.76 14.58 139.76"/>
<path d="M 14.98 135.92 14.98 135.91 14.99 135.92 14.98 135.92"/>
<path d="M 14.79 135.94 14.78 135.94 14.79 135.94"/>
<path d="M 14.81 136.64 14.81 136.63 14.82 136.63 14.83 136.63 14.83 136.62 14.84 136.62 14.85 136.62 14.85 136.61 14.86 136.61 14.86 136.62 14.85 136.62 14.85 136.63 14.83 136.63 14.82 136.63 14.81 136.64"/>
<path d="M 13.32 136.81 13.31 136.81 13.32 136.81"/>
<path d="M 14.92 136.81 14.92 136.8 14.93 136.8 14.93 136.81 14.92 136.81"/>
<path d="M 14.93 136.82 14.92 136.82 14.92 136.81 14.93 136.81 14.94 136.81 14.93 136.81 14.93 136.82"/>
<path d="M 14.95 136.84 14.94 136.84 14.95 136.84"/>
<path d="M 14.96 136.84 14.95 136.84 14.96 136.84"/>
<path d="M 14.85 136.86 14.85 136.85 14.84 136.85 14.85 136.85 14.86 136.85 14.85 136.86"/>
<path d="M 14.85 136.87 14.85 136.86 14.86 136.86 14.87 136.86 14.86 136.86 14.85 136.87"/>
<path d="M 14.87 136.93 14.86 136.93 14.85 136.93 14.85 136.92 14.86 136.92 14.87 136.92 14.88 136.92 14.88 136.93 14.87 136.93"/>
<path d="M 14.91 136.94 14.9 136.94 14.91 136.93 14.91 136.94"/>
<path d="M 14.91 137.1 14.91 137.09 14.92 137.09 14.92 137.1 14.91 137.1"/>
<path d="M 14.94 137.14 14.93 137.14 14.94 137.14"/>
<path d="M 14.93 137.15 14.93 137.14 14.93 137.15"/>
<path d="M 15.03 137.15 15.02 137.15 15.01 137.15 15 137.15 14.99 137.15 14.98 137.15 14.97 137.15 14.97 137.14 14.96 137.14 14.97 137.14 14.96 137.14 14.95 137.14 14.94 137.13 14.95 137.13 14.94 137.13 14.93 137.12 14.93 137.11 14.92 137.11 14.92 137.12 14.92 137.11 14.93 137.1 14.93 137.09 14.95 137.09 14.96 137.09 14.96 137.08 14.96 137.09 14.97 137.09 14.98 137.1 14.99 137.11 14.99 137.1 15 137.1 15 137.11 15.02 137.11 15.02 137.09 15.01 137.09 15 137.09 14.99 137.09 14.99 137.08 15 137.08 15.01 137.07 15.01 137.08 15.01 137.07 15.02 137.07 15.01 137.07 15.02 137.07 15.03 137.07 15.04 137.07 15.04 137.08 15.04 137.09 15.04 137.1 15.05 137.1 15.05 137.11 15.05 137.1 15.06 137.11 15.05 137.11 15.06 137.11 15.06 137.12 15.07 137.12 15.07 137.13 15.06 137.13 15.07 137.14 15.06 137.14 15.05 137.15 15.04 137.15 15.03 137.15"/>
<path d="M 14.55 137.21 14.54 137.21 14.55 137.2 14.56 137.2 14.56 137.21 14.55 137.21"/>
<path d="M 14.53 137.23 14.53 137.22 14.54 137.22 14.54 137.23 14.54 137.22 14.56 137.22 14.55 137.22 14.55 137.23 14.53 137.23"/>
<path d="M 14.53 137.24 14.52 137.23 14.53 137.23 14.53 137.24"/>
<path d="M 14.15 137.24 14.14 137.24 14.14 137.23 14.15 137.23 14.15 137.24"/>
<path d="M 14.14 137.25 14.13 137.24 14.14 137.24 14.14 137.25"/>
<path d="M 14.05 137.27 14.04 137.27 14.04 137.26 14.05 137.26 14.06 137.26 14.07 137.26 14.06 137.26 14.06 137.27 14.05 137.27"/>
<path d="M 14.13 137.27 14.12 137.27 14.13 137.27 14.13 137.26 14.13 137.27"/>
<path d="M 14.13 137.28 14.13 137.27 14.13 137.28"/>
<path d="M 14.04 137.28 14.03 137.28 14.03 137.27 14.04 137.27 14.05 137.27 14.06 137.27 14.07 137.27 14.06 137.27 14.06 137.28 14.06 137.27 14.05 137.27 14.05 137.28 14.04 137.28"/>
<path d="M 14.13 137.28 14.12 137.28 14.14 137.28 14.13 137.28"/>
<path d="M 14.96 137.3 14.97 137.3 14.98 137.3 14.96 137.3"/>
<path d="M 14.99 137.31 14.98 137.31 14.98 137.3 14.99 137.3 15 137.3 14.99 137.31"/>
<path d="M 14.97 137.31 14.96 137.31 14.97 137.31"/>
<path d="M 14.92 137.31 14.93 137.31 14.92 137.31"/>
<path d="M 14.95 137.32 14.94 137.32 14.95 137.32"/>
<path d="M 14.87 137.32 14.86 137.32 14.87 137.32"/>
<path d="M 14.97 137.33 14.96 137.33 14.97 137.33"/>
<path d="M 14.89 137.33 14.88 137.33 14.87 137.33 14.88 137.33 14.88 137.32 14.89 137.32 14.89 137.33 14.89 137.32 14.9 137.32 14.91 137.33 14.9 137.33 14.89 137.33"/>
<path d="M 14.97 137.34 14.97 137.33 14.97 137.34"/>
<path d="M 14.94 137.36 14.93 137.36 14.93 137.35 14.94 137.35 14.94 137.36"/>
<path d="M 14.51 137.36 14.5 137.36 14.5 137.35 14.51 137.35 14.52 137.35 14.53 137.35 14.53 137.36 14.51 137.36"/>
<path d="M 14.5 137.37 14.49 137.37 14.5 137.37"/>
<path d="M 14.52 137.37 14.51 137.37 14.52 137.37 14.53 137.36 14.54 137.36 14.52 137.36 14.54 137.36 14.55 137.36 14.54 137.36 14.56 137.36 14.56 137.37 14.55 137.37 14.54 137.37 14.55 137.37 14.54 137.37 14.53 137.37 14.52 137.37"/>
<path d="M 14.48 137.38 14.48 137.37 14.49 137.37 14.49 137.38 14.48 137.38"/>
<path d="M 14.64 137.4 14.63 137.4 14.61 137.4 14.63 137.4 14.64 137.4"/>
<path d="M 14.47 137.42 14.47 137.41 14.48 137.41 14.48 137.4 14.49 137.4 14.5 137.4 14.52 137.4 14.53 137.4 14.53 137.39 14.52 137.39 14.53 137.39 14.56 137.38 14.57 137.38 14.61 137.38 14.62 137.38 14.63 137.38 14.64 137.38 14.63 137.38 14.61 137.38 14.61 137.39 14.6 137.39 14.61 137.39 14.6 137.39 14.6 137.4 14.6 137.41 14.59 137.41 14.58 137.41 14.57 137.41 14.58 137.41 14.57 137.41 14.56 137.41 14.56 137.42 14.54 137.42 14.53 137.42 14.52 137.42 14.51 137.42 14.5 137.42 14.49 137.42 14.47 137.42"/>
<path d="M 14.22 137.44 14.22 137.43 14.22 137.44"/>
<path d="M 14.18 137.44 14.17 137.44 14.17 137.43 14.18 137.42 14.19 137.42 14.18 137.42 14.16 137.42 14.17 137.42 14.17 137.41 14.19 137.41 14.2 137.41 14.19 137.41 14.19 137.42 14.21 137.42 14.21 137.43 14.2 137.43 14.19 137.43 14.19 137.44 14.18 137.44"/>
<path d="M 14.1 137.46 14.09 137.46 14.1 137.46 14.1 137.45 14.1 137.44 14.12 137.44 14.12 137.43 14.13 137.43 14.14 137.43 14.15 137.43 14.16 137.43 14.16 137.44 14.16 137.45 14.17 137.45 14.16 137.45 14.15 137.45 14.15 137.44 14.15 137.45 14.14 137.45 14.14 137.46 14.13 137.46 14.11 137.46 14.1 137.46"/>
<path d="M 14.09 137.47 14.08 137.47 14.08 137.46 14.09 137.46 14.09 137.47"/>
<path d="M 14.99 137.48 14.98 137.48 14.97 137.48 14.97 137.47 14.98 137.47 14.99 137.47 14.99 137.48"/>
<path d="M 14.03 137.48 14.03 137.47 14.04 137.47 14.05 137.47 14.06 137.47 14.05 137.47 14.05 137.48 14.03 137.48"/>
<path d="M 14.16 137.49 14.15 137.49 14.16 137.49"/>
<path d="M 14.9 137.5 14.89 137.5 14.88 137.5 14.87 137.5 14.88 137.5 14.88 137.49 14.89 137.49 14.9 137.49 14.91 137.49 14.91 137.5 14.9 137.5"/>
<path d="M 14.62 137.5 14.61 137.5 14.62 137.5"/>
<path d="M 14.59 137.51 14.58 137.51 14.59 137.51"/>
<path d="M 14.04 137.53 14.02 137.53 14.02 137.52 14.03 137.52 14.04 137.52 14.04 137.53"/>
<path d="M 14.88 137.55 14.87 137.55 14.87 137.54 14.88 137.54 14.88 137.55"/>
<path d="M 14.89 137.55 14.88 137.55 14.89 137.55"/>
<path d="M 14.59 137.56 14.58 137.56 14.59 137.56"/>
<path d="M 14.96 137.57 14.96 137.56 14.97 137.56 14.97 137.55 14.97 137.56 14.96 137.56 14.96 137.57"/>
<path d="M 14.69 137.6 14.69 137.59 14.7 137.59 14.72 137.59 14.72 137.58 14.71 137.58 14.7 137.58 14.68 137.58 14.66 137.58 14.66 137.59 14.65 137.59 14.64 137.59 14.63 137.59 14.62 137.59 14.61 137.6 14.6 137.59 14.59 137.59 14.58 137.59 14.57 137.59 14.55 137.59 14.54 137.59 14.54 137.58 14.56 137.58 14.56 137.57 14.55 137.57 14.56 137.57 14.57 137.56 14.58 137.56 14.58 137.57 14.59 137.57 14.6 137.57 14.6 137.56 14.59 137.56 14.58 137.56 14.57 137.56 14.56 137.56 14.56 137.55 14.57 137.55 14.56 137.55 14.55 137.55 14.54 137.55 14.54 137.54 14.55 137.54 14.56 137.54 14.56 137.53 14.59 137.53 14.57 137.53 14.57 137.52 14.58 137.52 14.59 137.52 14.6 137.52 14.61 137.52 14.62 137.52 14.61 137.52 14.62 137.51 14.62 137.52 14.63 137.52 14.63 137.51 14.62 137.51 14.63 137.51 14.63 137.52 14.64 137.52 14.65 137.52 14.67 137.52 14.66 137.53 14.67 137.53 14.68 137.53 14.68 137.52 14.69 137.52 14.68 137.52 14.67 137.52 14.67 137.51 14.68 137.51 14.67 137.51 14.67 137.5 14.68 137.5 14.68 137.51 14.69 137.51 14.69 137.52 14.69 137.51 14.7 137.51 14.71 137.5 14.73 137.5 14.73 137.49 14.7 137.49 14.7 137.5 14.68 137.5 14.68 137.49 14.69 137.49 14.69 137.48 14.7 137.48 14.71 137.48 14.72 137.48 14.72 137.47 14.74 137.47 14.73 137.47 14.72 137.47 14.71 137.47 14.71 137.46 14.72 137.46 14.74 137.46 14.74 137.45 14.75 137.45 14.76 137.45 14.77 137.45 14.78 137.45 14.78 137.46 14.77 137.47 14.78 137.47 14.79 137.47 14.79 137.48 14.8 137.48 14.81 137.48 14.82 137.48 14.83 137.48 14.83 137.49 14.82 137.49 14.83 137.49 14.83 137.5 14.84 137.5 14.85 137.5 14.85 137.51 14.84 137.51 14.84 137.52 14.84 137.53 14.85 137.53 14.85 137.52 14.86 137.52 14.86 137.53 14.86 137.54 14.85 137.54 14.87 137.54 14.87 137.55 14.88 137.55 14.88 137.56 14.87 137.56 14.87 137.55 14.87 137.56 14.86 137.56 14.85 137.56 14.85 137.57 14.84 137.57 14.85 137.58 14.83 137.58 14.84 137.58 14.83 137.58 14.83 137.59 14.82 137.59 14.82 137.58 14.81 137.59 14.81 137.58 14.82 137.58 14.82 137.57 14.8 137.58 14.79 137.58 14.78 137.58 14.77 137.59 14.76 137.59 14.75 137.59 14.74 137.59 14.73 137.59 14.73 137.6 14.72 137.6 14.71 137.6 14.7 137.6 14.69 137.6"/>
<path d="M 14.62 137.61 14.61 137.61 14.61 137.6 14.62 137.6 14.63 137.6 14.62 137.61"/>
<path d="M 14.76 137.62 14.77 137.61 14.78 137.6 14.79 137.6 14.79 137.59 14.8 137.59 14.81 137.59 14.81 137.6 14.8 137.6 14.8 137.61 14.79 137.61 14.78 137.61 14.77 137.62 14.76 137.62"/>
<path d="M 14.04 138.2 14.03 138.2 14.01 138.2 14.02 138.2 14.02 138.19 14.03 138.19 14.05 138.19 14.05 138.2 14.04 138.2 14.03 138.2 14.04 138.2 14.05 138.2 14.04 138.2"/>
<path d="M 13.45 138.67 13.44 138.67 13.44 138.66 13.45 138.66 13.45 138.67"/>
<path d="M 14.17 138.75 14.17 138.74 14.17 138.75 14.15 138.75 14.15 138.74 14.16 138.74 14.18 138.74 14.18 138.75 14.17 138.75"/>
<path d="M 14.15 138.75 14.14 138.75 14.14 138.74 14.15 138.74 14.15 138.75"/>
<path d="M 14.25 138.8 14.24 138.8 14.24 138.79 14.23 138.79 14.24 138.79 14.25 138.79 14.26 138.78 14.28 138.78 14.29 138.78 14.3 138.78 14.31 138.78 14.32 138.78 14.33 138.78 14.34 138.78 14.32 138.78 14.32 138.79 14.32 138.78 14.31 138.78 14.31 138.79 14.3 138.79 14.29 138.79 14.29 138.78 14.29 138.79 14.29 138.78 14.28 138.78 14.28 138.79 14.28 138.8 14.27 138.79 14.26 138.79 14.25 138.79 14.25 138.8"/>
<path d="M 14.17 138.81 14.16 138.81 14.17 138.81 14.18 138.81 14.17 138.81"/>
<path d="M 15 138.82 14.99 138.82 14.98 138.81 14.97 138.81 14.96 138.81 14.97 138.81 14.98 138.8 14.99 138.81 15 138.81 15 138.82 14.99 138.82 15 138.82"/>
<path d="M 14.94 138.82 14.93 138.82 14.94 138.82"/>
<path d="M 14.21 138.82 14.2 138.82 14.21 138.82"/>
<path d="M 14.19 138.83 14.18 138.83 14.18 138.82 14.17 138.82 14.18 138.82 14.18 138.81 14.19 138.81 14.19 138.82 14.2 138.82 14.19 138.82 14.19 138.83"/>
<path d="M 14.14 138.83 14.13 138.83 14.14 138.83"/>
<path d="M 14.98 138.83 14.97 138.83 14.98 138.83"/>
<path d="M 14.96 138.84 14.95 138.84 14.95 138.83 14.95 138.82 14.95 138.81 14.96 138.81 14.97 138.82 14.96 138.82 14.97 138.82 14.97 138.83 14.96 138.83 14.96 138.84"/>
<path d="M 14.11 138.84 14.1 138.83 14.11 138.83 14.11 138.84"/>
<path d="M 14.93 138.84 14.93 138.83 14.93 138.84"/>
<path d="M 14.13 138.84 14.12 138.83 14.13 138.83 14.13 138.84"/>
<path d="M 14.96 138.87 14.96 138.86 14.96 138.87"/>
<path d="M 14.59 138.89 14.58 138.89 14.58 138.88 14.58 138.87 14.59 138.87 14.59 138.88 14.59 138.89"/>
<path d="M 14.82 138.89 14.83 138.89 14.84 138.88 14.85 138.88 14.86 138.88 14.87 138.87 14.86 138.87 14.87 138.87 14.88 138.87 14.88 138.86 14.89 138.86 14.9 138.86 14.9 138.85 14.89 138.85 14.9 138.85 14.91 138.85 14.91 138.84 14.92 138.84 14.93 138.84 14.93 138.85 14.92 138.85 14.93 138.85 14.93 138.86 14.92 138.86 14.91 138.86 14.9 138.86 14.9 138.87 14.89 138.87 14.88 138.87 14.88 138.88 14.89 138.88 14.88 138.88 14.87 138.88 14.86 138.88 14.86 138.89 14.85 138.89 14.84 138.89 14.83 138.89 14.82 138.89"/>
<path d="M 14.21 139.08 14.2 139.08 14.21 139.08"/>
<path d="M 14.09 139.09 14.08 139.09 14.09 139.09"/>
<path d="M 14.24 139.1 14.24 139.09 14.24 139.1"/>
<path d="M 14.23 139.1 14.22 139.1 14.22 139.09 14.23 139.09 14.23 139.1"/>
<path d="M 14.17 139.1 14.16 139.1 14.16 139.09 14.17 139.09 14.17 139.1"/>
<path d="M 14.19 139.12 14.19 139.11 14.2 139.11 14.2 139.1 14.21 139.1 14.21 139.11 14.22 139.11 14.22 139.12 14.21 139.12 14.2 139.12 14.19 139.12"/>
<path d="M 14.17 139.12 14.16 139.12 14.17 139.12"/>
<path d="M 14.17 139.12 14.18 139.11 14.19 139.11 14.19 139.12 14.18 139.12 14.17 139.12"/>
<path d="M 14.12 139.13 14.11 139.13 14.12 139.13"/>
<path d="M 14.23 139.13 14.24 139.13 14.24 139.12 14.25 139.12 14.26 139.12 14.25 139.12 14.25 139.13 14.23 139.13"/>
<path d="M 14.14 139.14 14.13 139.14 14.14 139.14"/>
<path d="M 14.12 139.15 14.11 139.15 14.12 139.14 14.13 139.14 14.14 139.14 14.14 139.15 14.13 139.15 14.12 139.15"/>
<path d="M 14.17 139.15 14.18 139.15 14.19 139.15 14.18 139.15 14.17 139.15"/>
<path d="M 13.96 139.16 13.95 139.16 13.95 139.15 13.96 139.15 13.96 139.16"/>
<path d="M 14 139.17 14 139.16 14 139.17"/>
<path d="M 13.94 139.17 13.94 139.16 13.94 139.17"/>
<path d="M 13.93 139.18 13.94 139.17 13.95 139.17 13.95 139.16 13.96 139.16 13.95 139.17 13.94 139.17 13.93 139.18"/>
<path d="M 13.99 139.18 13.98 139.18 13.99 139.17 13.99 139.18"/>
<path d="M 14.01 139.18 14 139.18 14 139.17 14.01 139.17 14.02 139.17 14.01 139.17 14.02 139.17 14.02 139.18 14.01 139.18"/>
<path d="M 14.02 139.18 14.01 139.18 14.02 139.18"/>
<path d="M 13.98 139.19 13.98 139.18 13.98 139.19"/>
<path d="M 14.11 139.19 14.12 139.19 14.11 139.19"/>
<path d="M 14.09 139.2 14.08 139.2 14.07 139.2 14.08 139.19 14.09 139.19 14.07 139.19 14.06 139.19 14.06 139.2 14.05 139.2 14.05 139.19 14.06 139.19 14.07 139.19 14.08 139.19 14.08 139.18 14.08 139.17 14.09 139.17 14.08 139.17 14.07 139.17 14.06 139.17 14.05 139.17 14.04 139.17 14.04 139.18 14.03 139.18 14.04 139.17 14.03 139.17 14.03 139.16 14.04 139.16 14.05 139.16 14.05 139.15 14.06 139.15 14.07 139.15 14.06 139.16 14.07 139.16 14.08 139.16 14.09 139.16 14.1 139.16 14.11 139.16 14.11 139.17 14.11 139.16 14.13 139.16 14.12 139.17 14.11 139.17 14.12 139.17 14.11 139.18 14.12 139.18 14.12 139.19 14.12 139.18 14.11 139.18 14.1 139.18 14.1 139.19 14.11 139.19 14.1 139.19 14.1 139.2 14.09 139.2"/>
<path d="M 13.92 139.28 13.91 139.28 13.92 139.28"/>
<path d="M 14.67 139.31 14.65 139.31 14.65 139.3 14.66 139.3 14.67 139.3 14.67 139.31"/>
<path d="M 14.53 139.31 14.52 139.31 14.53 139.31"/>
<path d="M 14.52 139.32 14.52 139.31 14.52 139.32 14.53 139.32 14.54 139.32 14.53 139.32 14.52 139.32"/>
<path d="M 14.65 139.33 14.66 139.33 14.66 139.32 14.67 139.32 14.67 139.33 14.66 139.33 14.65 139.33"/>
<path d="M 14.39 139.38 14.39 139.37 14.4 139.37 14.39 139.37 14.39 139.38"/>
<path d="M 14.33 139.38 14.32 139.38 14.33 139.38"/>
<path d="M 14.32 139.39 14.33 139.39 14.33 139.38 14.34 139.38 14.34 139.39 14.33 139.39 14.32 139.39"/>
<path d="M 14.44 139.4 14.44 139.39 14.44 139.4"/>
<path d="M 14.45 139.41 14.44 139.41 14.43 139.41 14.43 139.4 14.42 139.4 14.43 139.4 14.44 139.4 14.44 139.41 14.45 139.41"/>
<path d="M 14.48 139.41 14.46 139.41 14.46 139.4 14.45 139.4 14.47 139.4 14.48 139.4 14.48 139.41"/>
<path d="M 14.49 139.41 14.48 139.41 14.49 139.41"/>
<path d="M 14.29 139.42 14.28 139.42 14.28 139.41 14.28 139.4 14.29 139.4 14.3 139.4 14.32 139.4 14.33 139.4 14.34 139.41 14.33 139.41 14.32 139.41 14.31 139.41 14.31 139.42 14.3 139.42 14.29 139.42"/>
<path d="M 14.68 139.42 14.67 139.42 14.66 139.42 14.67 139.42 14.68 139.42"/>
<path d="M 14.25 139.43 14.24 139.43 14.25 139.43"/>
<path d="M 14.7 139.43 14.71 139.43 14.7 139.43"/>
<path d="M 14.36 139.44 14.36 139.43 14.36 139.44"/>
<path d="M 14.2 139.44 14.19 139.44 14.19 139.43 14.2 139.43 14.2 139.44"/>
<path d="M 14.17 139.45 14.17 139.44 14.17 139.45"/>
<path d="M 14.27 139.45 14.26 139.45 14.25 139.45 14.25 139.44 14.26 139.44 14.27 139.44 14.27 139.45"/>
<path d="M 14.22 139.46 14.22 139.45 14.25 139.45 14.24 139.45 14.23 139.45 14.22 139.46"/>
<path d="M 14.31 139.46 14.3 139.46 14.31 139.46"/>
<path d="M 14.16 139.46 14.15 139.46 14.16 139.46"/>
<path d="M 14.7 139.46 14.71 139.46 14.7 139.46"/>
<path d="M 14.26 139.47 14.25 139.47 14.26 139.47"/>
<path d="M 14.14 139.47 14.14 139.46 14.15 139.46 14.15 139.47 14.14 139.47"/>
<path d="M 14.16 139.49 14.15 139.49 14.16 139.49"/>
<path d="M 14.21 139.5 14.21 139.49 14.21 139.5"/>
<path d="M 14.84 139.5 14.84 139.49 14.85 139.49 14.85 139.48 14.84 139.48 14.86 139.48 14.86 139.47 14.85 139.47 14.85 139.48 14.85 139.47 14.84 139.47 14.83 139.47 14.82 139.47 14.82 139.46 14.8 139.46 14.8 139.47 14.79 139.47 14.78 139.47 14.77 139.48 14.76 139.48 14.76 139.47 14.75 139.47 14.75 139.48 14.74 139.48 14.75 139.48 14.75 139.47 14.74 139.47 14.73 139.47 14.73 139.46 14.74 139.46 14.73 139.46 14.73 139.45 14.72 139.45 14.71 139.45 14.71 139.44 14.72 139.44 14.72 139.43 14.73 139.43 14.72 139.43 14.71 139.42 14.7 139.42 14.69 139.42 14.68 139.42 14.68 139.41 14.68 139.4 14.67 139.4 14.67 139.39 14.67 139.38 14.66 139.38 14.66 139.37 14.67 139.36 14.68 139.36 14.67 139.35 14.67 139.34 14.68 139.33 14.69 139.33 14.71 139.33 14.73 139.33 14.73 139.32 14.74 139.32 14.75 139.33 14.76 139.33 14.76 139.34 14.78 139.34 14.78 139.33 14.79 139.33 14.8 139.33 14.79 139.32 14.79 139.33 14.78 139.32 14.76 139.32 14.76 139.31 14.77 139.31 14.76 139.31 14.76 139.3 14.77 139.3 14.78 139.3 14.78 139.29 14.79 139.29 14.79 139.3 14.8 139.29 14.8 139.3 14.81 139.31 14.81 139.32 14.82 139.31 14.83 139.31 14.83 139.32 14.84 139.32 14.83 139.32 14.83 139.33 14.82 139.33 14.83 139.33 14.84 139.34 14.86 139.34 14.85 139.35 14.86 139.35 14.87 139.35 14.88 139.35 14.88 139.34 14.89 139.34 14.9 139.35 14.91 139.35 14.92 139.36 14.93 139.36 14.93 139.35 14.94 139.36 14.95 139.35 14.96 139.35 14.96 139.36 14.97 139.36 14.97 139.37 14.98 139.37 14.99 139.38 15 139.38 14.99 139.39 15 139.39 15.01 139.4 15.02 139.4 15.02 139.41 15.02 139.42 15.01 139.42 15.01 139.43 15 139.43 14.99 139.43 14.98 139.43 14.98 139.44 14.97 139.44 14.95 139.44 14.95 139.45 14.94 139.45 14.94 139.44 14.93 139.44 14.92 139.44 14.91 139.44 14.91 139.45 14.9 139.46 14.9 139.47 14.89 139.47 14.88 139.47 14.89 139.46 14.88 139.46 14.88 139.45 14.88 139.44 14.88 139.45 14.87 139.45 14.86 139.44 14.85 139.44 14.85 139.45 14.84 139.45 14.84 139.46 14.85 139.45 14.86 139.45 14.87 139.45 14.86 139.46 14.85 139.46 14.85 139.47 14.86 139.47 14.87 139.47 14.87 139.48 14.88 139.48 14.88 139.49 14.87 139.49 14.87 139.5 14.86 139.5 14.85 139.5 14.84 139.5"/>
<path d="M 14.25 139.51 14.24 139.51 14.25 139.51"/>
<path d="M 14.26 139.52 14.26 139.51 14.27 139.51 14.27 139.52 14.26 139.52"/>
<path d="M 14.29 139.52 14.28 139.52 14.29 139.52"/>
<path d="M 13.88 139.53 13.87 139.53 13.88 139.53"/>
<path d="M 13.96 139.54 13.96 139.53 13.97 139.53 13.97 139.54 13.96 139.53 13.96 139.54"/>
<path d="M 13.99 139.54 13.98 139.54 13.97 139.54 13.99 139.54"/>
<path d="M 14.01 139.54 14 139.54 14.01 139.54"/>
<path d="M 13.81 139.56 13.8 139.56 13.81 139.56"/>
<path d="M 13.93 139.57 13.92 139.57 13.93 139.57"/>
<path d="M 13.88 139.58 13.88 139.57 13.88 139.56 13.89 139.56 13.88 139.56 13.87 139.56 13.87 139.55 13.88 139.55 13.88 139.56 13.88 139.55 13.89 139.55 13.89 139.54 13.9 139.54 13.89 139.54 13.88 139.54 13.88 139.53 13.87 139.54 13.87 139.53 13.88 139.53 13.89 139.53 13.9 139.53 13.89 139.53 13.9 139.53 13.91 139.54 13.92 139.54 13.93 139.54 13.93 139.55 13.92 139.55 13.91 139.55 13.9 139.55 13.89 139.55 13.89 139.56 13.9 139.56 13.91 139.56 13.92 139.56 13.92 139.57 13.91 139.57 13.9 139.57 13.89 139.57 13.88 139.58"/>
<path d="M 13.93 139.58 13.91 139.58 13.91 139.57 13.92 139.57 13.92 139.58 13.93 139.58"/>
<path d="M 14.14 139.58 14.13 139.58 14.13 139.57 14.14 139.57 14.15 139.57 14.16 139.57 14.16 139.58 14.15 139.58 14.14 139.58"/>
<path d="M 13.34 139.58 13.33 139.58 13.34 139.58"/>
<path d="M 13.41 139.59 13.41 139.58 13.41 139.59"/>
<path d="M 13.4 139.59 13.39 139.59 13.4 139.59"/>
<path d="M 13.83 139.59 13.82 139.59 13.81 139.59 13.82 139.59 13.82 139.58 13.82 139.59 13.83 139.59"/>
<path d="M 13.53 139.59 13.52 139.59 13.53 139.59 13.53 139.58 13.54 139.58 13.54 139.59 13.53 139.59"/>
<path d="M 13.28 139.59 13.27 139.59 13.26 139.59 13.28 139.59 13.28 139.58 13.28 139.59"/>
<path d="M 13.32 139.59 13.31 139.59 13.32 139.59 13.3 139.59 13.3 139.58 13.31 139.58 13.32 139.58 13.32 139.59"/>
<path d="M 13.83 139.59 13.82 139.59 13.83 139.59"/>
<path d="M 13.81 139.6 13.8 139.6 13.8 139.59 13.78 139.59 13.79 139.59 13.8 139.58 13.79 139.58 13.79 139.57 13.79 139.56 13.8 139.56 13.8 139.57 13.81 139.57 13.81 139.58 13.81 139.59 13.81 139.6"/>
<path d="M 13.36 139.6 13.36 139.59 13.35 139.59 13.35 139.58 13.36 139.58 13.37 139.58 13.37 139.59 13.36 139.59 13.36 139.6"/>
<path d="M 13.49 139.6 13.49 139.59 13.5 139.59 13.51 139.59 13.5 139.59 13.5 139.6 13.49 139.6"/>
<path d="M 13.57 139.6 13.56 139.6 13.57 139.6 13.57 139.59 13.57 139.6"/>
<path d="M 14.86 139.6 14.85 139.6 14.86 139.6"/>
<path d="M 13.49 139.6 13.48 139.6 13.49 139.6"/>
<path d="M 13.99 139.6 14 139.6 13.99 139.6"/>
<path d="M 13.58 139.61 13.57 139.61 13.57 139.6 13.58 139.6 13.58 139.61"/>
<path d="M 13.83 139.61 13.83 139.6 13.83 139.61"/>
<path d="M 13.51 139.61 13.5 139.61 13.5 139.6 13.51 139.61"/>
<path d="M 13.55 139.62 13.55 139.61 13.55 139.62"/>
<path d="M 13.53 139.62 13.52 139.62 13.53 139.61 13.52 139.61 13.53 139.6 13.54 139.6 13.54 139.59 13.55 139.59 13.55 139.6 13.56 139.6 13.56 139.61 13.55 139.61 13.54 139.6 13.54 139.61 13.53 139.61 13.54 139.61 13.53 139.62"/>
<path d="M 13.52 139.63 13.51 139.63 13.5 139.62 13.51 139.62 13.51 139.61 13.51 139.62 13.52 139.62 13.52 139.63"/>
<path d="M 13.91 139.63 13.9 139.63 13.91 139.63"/>
<path d="M 13.53 139.64 13.52 139.64 13.52 139.63 13.53 139.63 13.53 139.64"/>
<path d="M 14.94 139.64 14.93 139.64 14.93 139.63 14.93 139.62 14.94 139.62 14.94 139.63 14.94 139.64"/>
<path d="M 13.93 139.64 13.93 139.63 13.92 139.62 13.91 139.62 13.9 139.62 13.91 139.62 13.91 139.63 13.9 139.63 13.89 139.63 13.89 139.62 13.88 139.62 13.88 139.61 13.89 139.61 13.9 139.61 13.91 139.61 13.91 139.6 13.92 139.6 13.9 139.6 13.9 139.59 13.91 139.59 13.91 139.6 13.92 139.6 13.92 139.59 13.91 139.59 13.92 139.58 13.93 139.58 13.93 139.59 13.94 139.58 13.95 139.58 13.94 139.58 13.93 139.58 13.93 139.57 13.93 139.56 13.94 139.56 13.94 139.55 13.95 139.56 13.96 139.56 13.96 139.57 13.96 139.58 13.97 139.58 13.96 139.61 13.96 139.62 13.95 139.62 13.95 139.63 13.94 139.63 13.93 139.64"/>
<path d="M 13.44 139.64 13.43 139.64 13.43 139.63 13.42 139.63 13.42 139.61 13.41 139.61 13.41 139.6 13.42 139.6 13.43 139.6 13.43 139.61 13.43 139.6 13.44 139.59 13.45 139.59 13.45 139.6 13.46 139.6 13.47 139.61 13.47 139.62 13.47 139.63 13.46 139.63 13.46 139.64 13.44 139.64"/>
<path d="M 13.43 139.64 13.42 139.64 13.41 139.64 13.41 139.63 13.42 139.63 13.43 139.64"/>
<path d="M 13.59 139.65 13.57 139.65 13.56 139.65 13.55 139.65 13.54 139.65 13.55 139.64 13.56 139.64 13.56 139.63 13.54 139.63 13.55 139.63 13.56 139.63 13.55 139.62 13.56 139.62 13.56 139.63 13.57 139.63 13.57 139.62 13.56 139.62 13.56 139.61 13.57 139.61 13.57 139.62 13.58 139.62 13.58 139.63 13.59 139.63 13.59 139.64 13.58 139.64 13.58 139.65 13.59 139.65"/>
<path d="M 14.01 139.66 14.01 139.65 14 139.65 14 139.64 13.99 139.64 13.99 139.65 13.98 139.65 13.98 139.64 13.98 139.65 13.97 139.65 13.97 139.64 13.96 139.64 13.96 139.63 13.97 139.63 13.97 139.62 13.98 139.62 13.97 139.62 13.98 139.62 13.98 139.63 13.99 139.63 13.99 139.62 14 139.62 14.01 139.62 14.01 139.63 14.02 139.63 14.02 139.64 14.03 139.64 14.03 139.65 14.02 139.65 14.03 139.65 14.01 139.65 14.01 139.66"/>
<path d="M 13.55 139.66 13.55 139.65 13.55 139.66"/>
<path d="M 14.05 139.66 14.04 139.66 14.04 139.65 14.03 139.65 14.05 139.65 14.04 139.65 14.05 139.65 14.05 139.66"/>
<path d="M 13.53 139.66 13.52 139.66 13.53 139.66"/>
<path d="M 13.45 139.66 13.44 139.66 13.45 139.66"/>
<path d="M 13.36 139.67 13.36 139.66 13.36 139.67"/>
<path d="M 13.54 139.67 13.54 139.66 13.55 139.66 13.55 139.67 13.54 139.67"/>
<path d="M 14.07 139.67 14.06 139.67 14.05 139.67 14.05 139.66 14.06 139.66 14.07 139.66 14.07 139.67"/>
<path d="M 14 139.67 14 139.66 14 139.67"/>
<path d="M 14.64 139.67 14.63 139.67 14.62 139.66 14.63 139.66 14.64 139.66 14.64 139.67"/>
<path d="M 13.58 139.67 13.56 139.67 13.56 139.66 13.57 139.66 13.58 139.66 13.57 139.66 13.57 139.67 13.58 139.67"/>
<path d="M 13.45 139.67 13.44 139.67 13.45 139.67"/>
<path d="M 13.97 139.67 13.96 139.67 13.97 139.67 13.96 139.67 13.96 139.66 13.97 139.66 13.97 139.67"/>
<path d="M 13.38 139.68 13.37 139.68 13.37 139.67 13.38 139.67 13.37 139.67 13.38 139.67 13.38 139.66 13.39 139.67 13.38 139.68"/>
<path d="M 13.55 139.68 13.55 139.67 13.56 139.67 13.55 139.68"/>
<path d="M 13.35 139.68 13.35 139.67 13.36 139.67 13.36 139.68 13.35 139.68"/>
<path d="M 14.05 139.68 14.04 139.68 14.04 139.67 14.05 139.67 14.05 139.68"/>
<path d="M 13.45 139.68 13.44 139.68 13.45 139.68"/>
<path d="M 13.47 139.68 13.46 139.68 13.46 139.67 13.47 139.67 13.47 139.68"/>
<path d="M 14.38 139.68 14.37 139.68 14.38 139.67 14.39 139.67 14.39 139.68 14.38 139.68"/>
<path d="M 14.03 139.68 14.02 139.68 14.02 139.67 14.03 139.67 14.04 139.67 14.04 139.68 14.03 139.68"/>
<path d="M 13.58 139.68 13.57 139.68 13.58 139.68"/>
<path d="M 13.48 139.68 13.49 139.68 13.48 139.68"/>
<path d="M 14.09 139.69 14.09 139.68 14.09 139.67 14.08 139.67 14.08 139.66 14.08 139.65 14.09 139.65 14.09 139.66 14.1 139.66 14.1 139.65 14.11 139.65 14.12 139.65 14.1 139.65 14.09 139.65 14.08 139.65 14.07 139.65 14.07 139.66 14.06 139.66 14.06 139.65 14.07 139.65 14.06 139.65 14.05 139.65 14.06 139.64 14.05 139.64 14.05 139.65 14.04 139.65 14.04 139.64 14.05 139.64 14.04 139.63 14.04 139.62 14.03 139.63 14.02 139.63 14.02 139.62 14.01 139.62 14.01 139.61 14.01 139.6 14 139.59 14 139.58 14.01 139.58 14 139.58 14 139.57 13.99 139.57 14 139.57 14 139.56 14 139.55 14.01 139.55 14.02 139.55 14.03 139.55 14.03 139.54 14.02 139.53 14.03 139.52 14.04 139.52 14.05 139.53 14.04 139.52 14.05 139.52 14.06 139.52 14.07 139.51 14.06 139.51 14.07 139.51 14.08 139.51 14.09 139.51 14.1 139.52 14.11 139.52 14.12 139.53 14.13 139.53 14.13 139.52 14.13 139.53 14.14 139.53 14.15 139.53 14.14 139.53 14.14 139.54 14.13 139.54 14.14 139.54 14.14 139.55 14.13 139.55 14.14 139.55 14.15 139.56 14.16 139.56 14.15 139.56 14.14 139.56 14.15 139.57 14.14 139.57 14.13 139.57 14.12 139.57 14.12 139.58 14.13 139.58 14.13 139.59 14.14 139.59 14.15 139.59 14.16 139.59 14.17 139.59 14.17 139.6 14.18 139.6 14.18 139.61 14.19 139.61 14.19 139.62 14.2 139.62 14.2 139.63 14.21 139.64 14.22 139.64 14.22 139.65 14.22 139.66 14.2 139.66 14.19 139.66 14.2 139.66 14.21 139.67 14.2 139.67 14.2 139.68 14.21 139.68 14.2 139.68 14.18 139.68 14.17 139.68 14.17 139.67 14.16 139.67 14.17 139.66 14.16 139.66 14.16 139.65 14.18 139.65 14.19 139.65 14.18 139.65 14.17 139.65 14.16 139.65 14.15 139.65 14.12 139.65 14.13 139.65 14.14 139.65 14.15 139.65 14.15 139.66 14.15 139.67 14.15 139.68 14.14 139.68 14.14 139.67 14.13 139.68 14.12 139.68 14.12 139.67 14.12 139.68 14.11 139.68 14.1 139.68 14.11 139.68 14.1 139.69 14.09 139.69"/>
<path d="M 14 139.69 14 139.68 14 139.67 14.01 139.67 14.01 139.68 14.01 139.69 14 139.69"/>
<path d="M 14.08 139.69 14.07 139.69 14.07 139.68 14.06 139.68 14.07 139.68 14.08 139.68 14.08 139.69"/>
<path d="M 14.15 139.69 14.14 139.69 14.14 139.68 14.15 139.68 14.15 139.69"/>
<path d="M 13.38 139.69 13.37 139.69 13.37 139.68 13.38 139.68 13.38 139.69"/>
<path d="M 13.5 139.69 13.49 139.69 13.48 139.69 13.49 139.69 13.49 139.68 13.5 139.67 13.5 139.66 13.49 139.66 13.5 139.66 13.49 139.66 13.49 139.65 13.48 139.65 13.48 139.66 13.49 139.66 13.49 139.67 13.48 139.67 13.48 139.68 13.47 139.67 13.46 139.67 13.46 139.66 13.46 139.65 13.45 139.65 13.46 139.64 13.47 139.64 13.48 139.64 13.48 139.63 13.49 139.63 13.48 139.63 13.48 139.62 13.49 139.62 13.5 139.62 13.5 139.63 13.5 139.64 13.51 139.64 13.51 139.65 13.51 139.64 13.52 139.64 13.52 139.65 13.52 139.66 13.53 139.66 13.51 139.66 13.51 139.67 13.52 139.67 13.53 139.67 13.52 139.67 13.53 139.68 13.53 139.69 13.52 139.69 13.51 139.69 13.51 139.68 13.5 139.68 13.5 139.69"/>
<path d="M 14.12 139.7 14.11 139.7 14.11 139.69 14.12 139.69 14.12 139.7"/>
<path d="M 13.53 139.7 13.52 139.7 13.53 139.7"/>
<path d="M 14.34 139.69 14.33 139.69 14.33 139.68 14.33 139.67 14.31 139.68 14.3 139.68 14.3 139.67 14.29 139.67 14.28 139.67 14.28 139.68 14.28 139.67 14.27 139.67 14.27 139.66 14.27 139.65 14.28 139.64 14.27 139.64 14.27 139.65 14.26 139.65 14.26 139.66 14.25 139.66 14.25 139.65 14.26 139.65 14.25 139.65 14.24 139.65 14.25 139.65 14.25 139.64 14.24 139.64 14.24 139.63 14.25 139.63 14.24 139.62 14.23 139.62 14.22 139.62 14.21 139.61 14.21 139.6 14.2 139.59 14.19 139.59 14.19 139.58 14.19 139.56 14.18 139.56 14.18 139.55 14.18 139.54 14.19 139.54 14.2 139.54 14.21 139.54 14.22 139.54 14.23 139.54 14.23 139.53 14.24 139.53 14.25 139.53 14.25 139.52 14.27 139.52 14.27 139.53 14.28 139.53 14.29 139.53 14.29 139.54 14.3 139.54 14.32 139.54 14.31 139.55 14.32 139.55 14.32 139.54 14.31 139.54 14.31 139.53 14.32 139.53 14.32 139.52 14.31 139.53 14.3 139.53 14.31 139.53 14.3 139.53 14.29 139.53 14.3 139.53 14.3 139.52 14.31 139.52 14.31 139.51 14.3 139.51 14.29 139.5 14.29 139.51 14.28 139.51 14.29 139.5 14.28 139.5 14.27 139.5 14.26 139.5 14.25 139.51 14.25 139.5 14.26 139.5 14.24 139.49 14.24 139.5 14.23 139.5 14.23 139.49 14.22 139.49 14.21 139.49 14.22 139.49 14.22 139.48 14.23 139.48 14.24 139.48 14.25 139.48 14.25 139.47 14.26 139.47 14.27 139.47 14.28 139.47 14.29 139.47 14.3 139.46 14.3 139.47 14.31 139.47 14.31 139.48 14.31 139.49 14.32 139.49 14.32 139.48 14.33 139.48 14.32 139.48 14.32 139.47 14.33 139.47 14.33 139.46 14.32 139.46 14.32 139.45 14.31 139.45 14.32 139.44 14.33 139.44 14.33 139.43 14.34 139.44 14.35 139.43 14.35 139.44 14.36 139.44 14.36 139.45 14.37 139.45 14.37 139.44 14.38 139.44 14.37 139.44 14.38 139.44 14.38 139.43 14.37 139.43 14.38 139.43 14.39 139.43 14.39 139.42 14.38 139.42 14.39 139.41 14.4 139.41 14.4 139.42 14.41 139.42 14.42 139.42 14.42 139.43 14.43 139.43 14.43 139.42 14.42 139.42 14.43 139.42 14.43 139.41 14.44 139.41 14.45 139.41 14.46 139.41 14.46 139.42 14.47 139.42 14.47 139.43 14.48 139.44 14.48 139.43 14.49 139.42 14.48 139.42 14.49 139.42 14.5 139.42 14.5 139.43 14.49 139.43 14.49 139.44 14.5 139.44 14.51 139.44 14.51 139.43 14.5 139.43 14.52 139.43 14.52 139.44 14.53 139.44 14.53 139.45 14.54 139.45 14.55 139.45 14.55 139.46 14.56 139.46 14.56 139.47 14.57 139.47 14.57 139.48 14.58 139.48 14.58 139.49 14.59 139.49 14.58 139.49 14.58 139.5 14.59 139.5 14.59 139.51 14.58 139.51 14.59 139.51 14.6 139.52 14.61 139.52 14.61 139.53 14.6 139.53 14.6 139.54 14.59 139.54 14.59 139.55 14.6 139.55 14.59 139.56 14.6 139.56 14.59 139.57 14.58 139.57 14.59 139.57 14.6 139.57 14.6 139.56 14.61 139.56 14.61 139.55 14.61 139.56 14.62 139.56 14.63 139.56 14.64 139.56 14.65 139.56 14.65 139.57 14.63 139.57 14.64 139.57 14.65 139.57 14.66 139.58 14.67 139.58 14.68 139.59 14.67 139.59 14.68 139.59 14.7 139.59 14.71 139.59 14.72 139.59 14.73 139.59 14.73 139.6 14.74 139.6 14.75 139.6 14.76 139.6 14.78 139.6 14.79 139.6 14.8 139.6 14.81 139.6 14.81 139.59 14.82 139.59 14.82 139.6 14.83 139.6 14.84 139.6 14.85 139.6 14.86 139.6 14.87 139.61 14.88 139.61 14.89 139.61 14.9 139.61 14.9 139.62 14.91 139.62 14.91 139.63 14.91 139.64 14.9 139.65 14.91 139.65 14.91 139.66 14.9 139.66 14.89 139.66 14.9 139.67 14.89 139.67 14.89 139.68 14.88 139.68 14.87 139.68 14.88 139.69 14.87 139.7 14.85 139.7"/>
<path d="M 14.47 139.7 14.46 139.7 14.48 139.7 14.47 139.7"/>
<path d="M 14.73 139.7 14.72 139.7 14.73 139.7"/>
<path d="M 14.59 139.7 14.58 139.7 14.58 139.69 14.59 139.69 14.58 139.69 14.57 139.69 14.57 139.7 14.57 139.69 14.56 139.69 14.56 139.7 14.54 139.7 14.54 139.68 14.55 139.68 14.56 139.68 14.56 139.69 14.57 139.69 14.58 139.68 14.57 139.68 14.58 139.68 14.59 139.68 14.59 139.69 14.6 139.69 14.6 139.68 14.6 139.69 14.59 139.69 14.6 139.7 14.6 139.69 14.6 139.7 14.61 139.7 14.6 139.7 14.59 139.7"/>
<path d="M 13.54 139.7 13.55 139.7 13.54 139.7"/>
<path d="M 14.53 139.7 14.54 139.7 14.53 139.7"/>
<path d="M 13.39 139.7 13.38 139.7 13.39 139.7 13.39 139.69 13.4 139.69 13.39 139.69 13.39 139.68 13.4 139.67 13.39 139.67 13.4 139.66 13.41 139.66 13.41 139.65 13.4 139.65 13.41 139.65 13.4 139.66 13.39 139.66 13.4 139.66 13.4 139.65 13.39 139.65 13.4 139.65 13.41 139.65 13.42 139.65 13.41 139.65 13.42 139.65 13.43 139.65 13.44 139.65 13.44 139.66 13.43 139.66 13.43 139.65 13.42 139.65 13.42 139.66 13.42 139.67 13.42 139.68 13.41 139.69 13.4 139.69 13.41 139.69 13.41 139.7 13.4 139.7 13.39 139.7"/>
<path d="M 13.44 139.7 13.43 139.7 13.43 139.69 13.44 139.69 13.44 139.7"/>
<path d="M 13.53 139.71 13.53 139.7 13.52 139.7 13.53 139.7 13.53 139.71"/>
<path d="M 13.4 139.71 13.39 139.71 13.39 139.7 13.4 139.7 13.4 139.71"/>
<path d="M 14.64 139.71 14.63 139.71 14.64 139.71 14.64 139.7 14.66 139.7 14.66 139.71 14.65 139.71 14.64 139.71"/>
<path d="M 14.84 139.71 14.82 139.71 14.83 139.71 14.84 139.7 14.84 139.71"/>
<path d="M 14.38 139.71 14.39 139.71 14.38 139.71"/>
<path d="M 13.64 139.71 13.63 139.71 13.64 139.71"/>
<path d="M 14.46 139.71 14.46 139.7 14.46 139.71 14.45 139.71 14.44 139.7 14.45 139.7 14.46 139.7 14.47 139.7 14.48 139.7 14.48 139.71 14.47 139.71 14.46 139.71"/>
<path d="M 13.5 139.71 13.51 139.71 13.51 139.7 13.52 139.7 13.52 139.71 13.51 139.71 13.5 139.71"/>
<path d="M 14.77 139.72 14.76 139.71 14.78 139.71 14.77 139.71 14.77 139.72"/>
<path d="M 14.56 139.72 14.55 139.72 14.55 139.71 14.56 139.71 14.57 139.71 14.57 139.72 14.56 139.72"/>
<path d="M 14.85 139.7 14.84 139.7 14.84 139.69 14.83 139.69 14.84 139.7 14.83 139.7 14.82 139.7 14.81 139.7 14.81 139.69 14.8 139.69 14.8 139.7 14.8 139.69 14.79 139.69 14.79 139.68 14.78 139.68 14.78 139.69 14.77 139.7 14.78 139.7 14.78 139.71 14.77 139.71 14.77 139.7 14.76 139.7 14.76 139.69 14.75 139.69 14.76 139.68 14.75 139.68 14.75 139.69 14.74 139.7 14.73 139.7 14.73 139.69 14.73 139.68 14.72 139.68 14.72 139.69 14.72 139.7 14.71 139.7 14.7 139.7 14.71 139.7 14.72 139.7 14.72 139.71 14.71 139.72 14.69 139.72 14.68 139.72 14.69 139.71 14.7 139.7 14.69 139.7 14.68 139.7 14.68 139.69 14.69 139.69 14.67 139.69 14.67 139.68 14.69 139.68 14.68 139.68 14.68 139.67 14.69 139.67 14.69 139.66 14.68 139.66 14.68 139.67 14.67 139.67 14.68 139.66 14.67 139.66 14.67 139.67 14.66 139.67 14.65 139.66 14.64 139.66 14.64 139.65 14.63 139.65 14.63 139.66 14.62 139.66 14.62 139.67 14.61 139.67 14.59 139.67 14.59 139.66 14.58 139.66 14.58 139.67 14.57 139.67 14.55 139.67 14.54 139.67 14.53 139.67 14.52 139.67 14.52 139.66 14.51 139.66 14.5 139.66 14.51 139.66 14.51 139.65 14.52 139.65 14.51 139.65 14.51 139.64 14.52 139.63 14.51 139.63 14.51 139.62 14.5 139.63 14.5 139.64 14.5 139.65 14.49 139.65 14.48 139.66 14.46 139.66 14.45 139.66 14.44 139.66 14.43 139.66 14.43 139.67 14.42 139.67 14.43 139.67 14.43 139.68 14.42 139.68 14.41 139.68 14.4 139.68 14.4 139.67 14.39 139.67 14.38 139.67 14.39 139.67 14.39 139.66 14.38 139.66 14.37 139.67 14.36 139.67 14.35 139.67 14.35 139.68 14.33 139.68 14.34 139.69"/>
<path d="M 13.81 139.72 13.8 139.72 13.8 139.71 13.79 139.71 13.79 139.7 13.8 139.7 13.81 139.7 13.81 139.71 13.82 139.71 13.81 139.72"/>
<path d="M 14.48 139.72 14.48 139.71 14.49 139.72 14.48 139.72"/>
<path d="M 13.53 139.72 13.53 139.71 13.54 139.71 13.55 139.71 13.55 139.72 13.54 139.72 13.53 139.72"/>
<path d="M 13.52 139.73 13.51 139.73 13.51 139.72 13.52 139.72 13.52 139.73"/>
<path d="M 14.63 139.73 14.62 139.73 14.61 139.73 14.61 139.72 14.62 139.72 14.63 139.72 14.63 139.73"/>
<path d="M 14.4 139.73 14.39 139.73 14.4 139.73"/>
<path d="M 13.54 139.73 13.53 139.73 13.54 139.73"/>
<path d="M 13.75 139.73 13.74 139.73 13.75 139.73"/>
<path d="M 14.6 139.73 14.59 139.73 14.58 139.73 14.58 139.72 14.6 139.73"/>
<path d="M 14.48 139.73 14.49 139.73 14.49 139.72 14.5 139.72 14.51 139.72 14.51 139.73 14.5 139.73 14.49 139.73 14.48 139.73"/>
<path d="M 13.77 139.74 13.76 139.74 13.76 139.73 13.77 139.73 13.77 139.74"/>
<path d="M 14.45 139.74 14.44 139.74 14.45 139.73 14.45 139.74"/>
<path d="M 13.51 139.74 13.51 139.73 13.51 139.74"/>
<path d="M 14.51 139.74 14.5 139.74 14.51 139.73 14.52 139.73 14.53 139.73 14.53 139.74 14.52 139.74 14.51 139.74"/>
<path d="M 13.56 139.74 13.55 139.74 13.56 139.74"/>
<path d="M 13.78 139.74 13.77 139.74 13.78 139.74 13.77 139.73 13.78 139.72 13.79 139.72 13.79 139.73 13.8 139.73 13.78 139.73 13.78 139.74"/>
<path d="M 14.35 139.74 14.34 139.74 14.35 139.74"/>
<path d="M 14.37 139.74 14.36 139.74 14.36 139.73 14.35 139.74 14.35 139.73 14.36 139.73 14.37 139.73 14.37 139.74 14.38 139.74 14.37 139.74"/>
<path d="M 13.6 139.74 13.59 139.74 13.6 139.74"/>
<path d="M 13.61 139.74 13.6 139.74 13.6 139.73 13.6 139.71 13.61 139.71 13.6 139.71 13.61 139.71 13.62 139.71 13.61 139.72 13.62 139.72 13.62 139.73 13.63 139.73 13.63 139.74 13.62 139.74 13.61 139.74"/>
<path d="M 14.49 139.75 14.48 139.74 14.47 139.74 14.48 139.74 14.49 139.74 14.49 139.75"/>
<path d="M 13.66 139.75 13.65 139.75 13.65 139.74 13.66 139.74 13.66 139.75"/>
<path d="M 13.8 139.75 13.79 139.75 13.8 139.75"/>
<path d="M 13.66 139.75 13.66 139.74 13.66 139.73 13.65 139.73 13.65 139.72 13.66 139.72 13.66 139.71 13.65 139.71 13.65 139.72 13.64 139.72 13.64 139.71 13.65 139.71 13.66 139.71 13.65 139.71 13.65 139.7 13.64 139.7 13.65 139.7 13.66 139.7 13.66 139.69 13.66 139.7 13.65 139.7 13.64 139.7 13.63 139.69 13.64 139.69 13.63 139.69 13.63 139.7 13.64 139.7 13.64 139.71 13.62 139.71 13.61 139.7 13.6 139.7 13.61 139.7 13.6 139.7 13.6 139.69 13.59 139.69 13.59 139.68 13.6 139.68 13.61 139.68 13.61 139.67 13.6 139.67 13.62 139.67 13.63 139.67 13.61 139.67 13.62 139.66 13.61 139.66 13.61 139.65 13.62 139.65 13.62 139.66 13.63 139.66 13.63 139.65 13.64 139.65 13.63 139.66 13.65 139.66 13.66 139.66 13.66 139.65 13.65 139.65 13.64 139.65 13.63 139.65 13.62 139.65 13.61 139.65 13.61 139.64 13.6 139.64 13.6 139.63 13.61 139.63 13.61 139.62 13.6 139.62 13.6 139.61 13.59 139.61 13.6 139.6 13.6 139.61 13.6 139.6 13.59 139.6 13.6 139.6 13.59 139.6 13.59 139.59 13.61 139.59 13.6 139.58 13.62 139.58 13.62 139.59 13.63 139.59 13.63 139.58 13.64 139.58 13.64 139.59 13.65 139.59 13.64 139.59 13.63 139.59 13.64 139.59 13.64 139.6 13.66 139.6 13.67 139.59 13.68 139.59 13.68 139.6 13.68 139.61 13.67 139.61 13.67 139.6 13.67 139.61 13.67 139.62 13.68 139.62 13.69 139.62 13.69 139.61 13.7 139.61 13.71 139.61 13.71 139.6 13.7 139.6 13.7 139.59 13.71 139.59 13.71 139.58 13.7 139.58 13.71 139.58 13.72 139.58 13.72 139.59 13.73 139.59 13.74 139.58 13.73 139.58 13.72 139.58 13.72 139.57 13.73 139.57 13.74 139.56 13.75 139.56 13.76 139.56 13.77 139.57 13.76 139.57 13.77 139.57 13.77 139.58 13.78 139.59 13.79 139.59 13.79 139.6 13.8 139.6 13.81 139.6 13.82 139.61 13.81 139.61 13.81 139.62 13.8 139.62 13.81 139.62 13.81 139.63 13.81 139.62 13.82 139.62 13.82 139.61 13.83 139.61 13.84 139.61 13.85 139.61 13.84 139.61 13.84 139.62 13.84 139.63 13.85 139.63 13.85 139.62 13.86 139.62 13.86 139.63 13.86 139.64 13.86 139.66 13.86 139.67 13.85 139.67 13.84 139.67 13.83 139.67 13.83 139.66 13.82 139.66 13.81 139.66 13.81 139.67 13.83 139.67 13.83 139.68 13.84 139.69 13.85 139.7 13.85 139.71 13.84 139.72 13.84 139.71 13.83 139.71 13.83 139.7 13.82 139.7 13.82 139.69 13.81 139.69 13.81 139.68 13.8 139.68 13.79 139.67 13.79 139.66 13.8 139.66 13.81 139.66 13.82 139.66 13.82 139.65 13.81 139.65 13.8 139.64 13.81 139.63 13.8 139.63 13.79 139.63 13.79 139.62 13.78 139.62 13.77 139.62 13.78 139.62 13.78 139.63 13.79 139.64 13.8 139.64 13.79 139.64 13.79 139.65 13.79 139.66 13.78 139.66 13.78 139.67 13.77 139.67 13.77 139.66 13.76 139.66 13.76 139.65 13.75 139.65 13.75 139.64 13.74 139.64 13.75 139.65 13.75 139.66 13.74 139.66 13.74 139.65 13.73 139.65 13.73 139.66 13.72 139.66 13.73 139.66 13.74 139.66 13.76 139.66 13.76 139.67 13.75 139.67 13.75 139.68 13.75 139.67 13.76 139.67 13.76 139.68 13.76 139.69 13.75 139.7 13.76 139.7 13.77 139.69 13.76 139.69 13.76 139.68 13.77 139.68 13.77 139.69 13.78 139.69 13.77 139.7 13.77 139.71 13.76 139.71 13.75 139.71 13.75 139.72 13.74 139.72 13.73 139.73 13.72 139.73 13.72 139.74 13.71 139.74 13.7 139.74 13.69 139.74 13.69 139.75 13.69 139.74 13.68 139.74 13.68 139.75 13.67 139.75 13.66 139.75"/>
<path d="M 14.33 139.75 14.34 139.75 14.35 139.74 14.35 139.75 14.33 139.75"/>
<path d="M 13.71 139.76 13.7 139.76 13.71 139.75 13.72 139.75 13.72 139.76 13.71 139.76"/>
<path d="M 14.52 139.76 14.51 139.76 14.52 139.75 14.51 139.75 14.5 139.75 14.51 139.74 14.53 139.74 14.53 139.75 14.54 139.75 14.54 139.76 14.53 139.76 14.52 139.76"/>
<path d="M 13.8 139.76 13.78 139.76 13.79 139.76 13.79 139.75 13.78 139.75 13.77 139.75 13.78 139.75 13.79 139.75 13.8 139.76"/>
<path d="M 14.5 139.76 14.49 139.76 14.5 139.76"/>
<path d="M 14.61 139.76 14.62 139.76 14.61 139.76"/>
<path d="M 14.51 139.76 14.5 139.76 14.51 139.76"/>
<path d="M 14.58 139.77 14.57 139.77 14.56 139.77 14.56 139.76 14.57 139.76 14.56 139.75 14.55 139.75 14.56 139.74 14.55 139.74 14.58 139.74 14.57 139.74 14.57 139.73 14.58 139.73 14.58 139.74 14.57 139.74 14.58 139.74 14.59 139.74 14.6 139.74 14.61 139.74 14.62 139.74 14.62 139.73 14.64 139.73 14.65 139.74 14.64 139.74 14.65 139.74 14.65 139.75 14.64 139.75 14.63 139.75 14.64 139.74 14.62 139.74 14.63 139.75 14.62 139.75 14.61 139.75 14.6 139.75 14.61 139.75 14.61 139.76 14.6 139.76 14.6 139.75 14.59 139.75 14.58 139.75 14.59 139.75 14.59 139.76 14.58 139.76 14.58 139.77"/>
<path d="M 14.4 139.77 14.39 139.77 14.39 139.76 14.4 139.76 14.41 139.76 14.42 139.75 14.42 139.76 14.41 139.76 14.4 139.76 14.4 139.77"/>
<path d="M 14.96 139.77 14.95 139.77 14.94 139.77 14.93 139.76 14.93 139.75 14.94 139.75 14.96 139.75 14.97 139.75 14.98 139.75 14.98 139.76 14.97 139.76 14.97 139.77 14.96 139.77"/>
<path d="M 14.39 139.78 14.38 139.78 14.38 139.77 14.39 139.77 14.39 139.78"/>
<path d="M 14.55 139.79 14.55 139.78 14.56 139.78 14.55 139.78 14.55 139.79"/>
<path d="M 14.53 139.79 14.52 139.79 14.52 139.78 14.52 139.77 14.53 139.77 14.53 139.76 14.54 139.76 14.55 139.76 14.55 139.77 14.54 139.77 14.55 139.77 14.55 139.78 14.54 139.78 14.53 139.79"/>
<path d="M 14.42 139.79 14.41 139.79 14.4 139.79 14.41 139.79 14.41 139.78 14.42 139.78 14.44 139.77 14.44 139.78 14.44 139.79 14.43 139.79 14.42 139.79"/>
<path d="M 14.56 139.79 14.55 139.79 14.56 139.79"/>
<path d="M 13.61 139.8 13.6 139.8 13.61 139.79 13.6 139.79 13.61 139.79 13.61 139.8"/>
<path d="M 14.55 139.81 14.54 139.81 14.55 139.81"/>
<path d="M 14.56 139.82 14.55 139.82 14.56 139.82"/>
<path d="M 14.57 139.82 14.56 139.82 14.57 139.82"/>
<path d="M 14.46 139.82 14.45 139.82 14.46 139.82 14.47 139.82 14.46 139.82"/>
</g>
</svg>