<?xml version="1.0"?>
<svg xmlns="http://www.w3.org/2000/svg" version="1.2" baseProfile="tiny" width="800" height="223" viewBox="0 0 800 223" stroke-linecap="round" stroke-linejoin="round">
<g id="cd22" fill="none" stroke="black" stroke-width="0.05">
<path d="M 28.69 140.74 28.69 140.73 28.69 140.74"/>
<path d="M 28.23 140.93 28.22 140.93 28.22 140.92 28.23 140.92 28.23 140.91 28.24 140.91 28.27 140.91 28.28 140.91 28.28 140.9 28.29 140.9 28.29 140.91 28.28 140.91 28.27 140.92 28.26 140.92 28.26 140.93 28.25 140.93 28.23 140.93"/>
<path d="M 28.01 141.04 28.02 141.04 28.03 141.03 28.04 141.03 28.05 141.03 28.06 141.02 28.08 141.02 28.1 141.02 28.11 141.02 28.12 141.02 28.13 141.02 28.14 141.02 28.15 141.02 28.16 141.02 28.17 141.02 28.18 141.02 28.18 141.01 28.18 141.02 28.19 141.02 28.19 141.01 28.18 141 28.18 140.99 28.17 140.99 28.16 140.99 28.16 140.98 28.16 140.97 28.15 140.97 28.15 140.96 28.15 140.95 28.15 140.94 28.15 140.93 28.16 140.93 28.17 140.93 28.18 140.93 28.19 140.92 28.19 140.91 28.2 140.91 28.21 140.91 28.21 140.9 28.22 140.9 28.23 140.9 28.24 140.9 28.26 140.9 28.27 140.9 28.28 140.9 28.29 140.9 28.31 140.9 28.32 140.9 28.34 140.9 28.35 140.9 28.35 140.89 28.36 140.89 28.38 140.89 28.39 140.89 28.4 140.89 28.41 140.89 28.43 140.89 28.44 140.89 28.45 140.88 28.47 140.88 28.48 140.88 28.49 140.88 28.5 140.88 28.5 140.87 28.51 140.87 28.52 140.87 28.53 140.87 28.54 140.87 28.55 140.86 28.56 140.86 28.57 140.86 28.59 140.86 28.6 140.86 28.61 140.85 28.63 140.85 28.65 140.85 28.67 140.85 28.67 140.84 28.68 140.84 28.7 140.84 28.71 140.84 28.72 140.84 28.73 140.83 28.73 140.82 28.72 140.81 28.72 140.8 28.71 140.79 28.71 140.78 28.72 140.78 28.72 140.77 28.71 140.77 28.71 140.76 28.7 140.76 28.7 140.75 28.7 140.74 28.7 140.73 28.69 140.73 28.69 140.72 28.71 140.72 28.71 140.71 28.71 140.7 28.72 140.7 28.71 140.69 28.72 140.68 28.72 140.67 28.73 140.67 28.73 140.66 28.72 140.66 28.73 140.66 28.72 140.66 28.72 140.65 28.72 140.64 28.72 140.63 28.72 140.62 28.72 140.61 28.72 140.6 28.71 140.59 28.71 140.57 28.7 140.57 28.69 140.57 28.68 140.57 28.67 140.57 28.66 140.56 28.65 140.56 28.65 140.55 28.66 140.55 28.66 140.54 28.65 140.54 28.65 140.53 28.64 140.53 28.65 140.52 28.66 140.52 28.66 140.51 28.65 140.51 28.66 140.5 28.67 140.5 28.66 140.5 28.66 140.49 28.65 140.48 28.64 140.48 28.64 140.47 28.63 140.47 28.63 140.46 28.62 140.46 28.62 140.45 28.61 140.45 28.61 140.44 28.61 140.43 28.61 140.42 28.61 140.41 28.6 140.38 28.61 140.38 28.61 140.37 28.63 140.37 28.63 140.36 28.64 140.36 28.64 140.35 28.65 140.34 28.65 140.33 28.66 140.33 28.65 140.33 28.65 140.32 28.64 140.32 28.64 140.31 28.65 140.31 28.65 140.3 28.66 140.29 28.67 140.29 28.68 140.29 28.68 140.28 28.67 140.28 28.67 140.27 28.66 140.27 28.65 140.27 28.64 140.27 28.6 140.27 28.59 140.27 28.58 140.27 28.56 140.27 28.55 140.27 28.55 140.26 28.53 140.26 28.52 140.26 28.5 140.26 28.48 140.26 28.46 140.25 28.45 140.25 28.44 140.25 28.43 140.24 28.4 140.24 28.38 140.24 28.37 140.24 28.36 140.24 28.36 140.23 28.35 140.23 28.35 140.22 28.34 140.22 28.33 140.22 28.32 140.22 28.31 140.22 28.31 140.21 28.3 140.21 28.31 140.21 28.3 140.21 28.29 140.21 28.29 140.2 28.28 140.19 28.27 140.18 28.27 140.17 28.27 140.16 28.28 140.16 28.27 140.16 28.27 140.15 28.26 140.15 28.25 140.15 28.24 140.15 28.24 140.14 28.23 140.14 28.23 140.13 28.24 140.13 28.25 140.14 28.26 140.14 28.26 140.15 28.27 140.15 28.28 140.15 28.29 140.16 28.3 140.16 28.3 140.17 28.31 140.17 28.31 140.18 28.32 140.18 28.33 140.18 28.34 140.19 28.35 140.19 28.36 140.19 28.37 140.19 28.37 140.2 28.38 140.2 28.39 140.2 28.4 140.2 28.41 140.21 28.43 140.21 28.45 140.21 28.48 140.21 28.5 140.21 28.51 140.21 28.51 140.22 28.52 140.22 28.54 140.22 28.56 140.22 28.57 140.22 28.59 140.22 28.61 140.22 28.62 140.22 28.63 140.23 28.64 140.23 28.65 140.23 28.66 140.23 28.67 140.23 28.68 140.24 28.69 140.25 28.72 140.25 28.74 140.25 28.75 140.25 28.77 140.25 28.79 140.24 28.8 140.24 28.81 140.24 28.81 140.23 28.82 140.23 28.83 140.23 28.84 140.23 28.85 140.24 28.86 140.24 28.86 140.25 28.86 140.26 28.87 140.27 28.88 140.27 28.9 140.27"/>
<path d="M 26.56 140.86 26.57 140.86 26.57 140.87 26.56 140.87 26.57 140.87 26.57 140.88 26.59 140.88 26.6 140.88 26.61 140.88 26.62 140.88 26.63 140.88 26.64 140.88 26.64 140.87 26.65 140.87 26.65 140.88 26.66 140.88 26.67 140.87 26.68 140.87 26.69 140.87 26.7 140.87 26.71 140.87 26.73 140.87 26.76 140.87 26.76 140.86 26.77 140.86 26.79 140.86 26.8 140.86 26.81 140.86 26.82 140.86 26.82 140.87 26.83 140.87 26.84 140.87 26.85 140.87 26.85 140.88 26.86 140.88 26.87 140.89 26.88 140.89 26.88 140.9 26.89 140.9 26.89 140.91 26.9 140.91 26.91 140.91 26.92 140.91 26.94 140.91 26.95 140.91 26.96 140.92 26.98 140.92 27.01 140.92 27.02 140.92 27.03 140.92 27.04 140.92 27.05 140.92 27.07 140.93 27.08 140.93 27.09 140.93 27.09 140.94 27.1 140.94 27.1 140.95 27.11 140.96 27.12 140.97 27.13 140.97 27.14 140.97 27.14 140.98 27.15 140.98 27.16 140.98 27.18 140.98 27.19 140.98 27.2 140.98 27.21 140.98 27.22 140.98 27.23 140.99 27.23 141 27.23 141.01 27.24 141.01 27.24 141.02 27.25 141.02 27.26 141.02 27.26 141.03 27.27 141.03 27.28 141.03 27.28 141.04 27.29 141.04 27.3 141.04 27.31 141.04 27.32 141.04 27.32 141.05 27.33 141.05 27.35 141.05 27.34 141.05 27.36 141.05 27.37 141.06 27.39 141.06 27.4 141.06 27.41 141.06 27.43 141.06 27.44 141.06 27.45 141.06 27.48 141.06 27.49 141.06 27.49 141.05 27.51 141.05 27.52 141.05 27.52 141.04 27.53 141.04 27.54 141.04 27.56 141.03 27.57 141.04 27.58 141.04 27.59 141.04 27.59 141.03 27.6 141.03 27.61 141.03 27.62 141.02 27.63 141.02 27.64 141.02 27.65 141.02 27.66 141.02 27.67 141.01 27.68 141.01 27.69 141.01 27.69 141.02 27.69 141.01 27.72 141.01 27.74 141.01 27.75 141.02 27.76 141.02 27.76 141.03 27.77 141.03 27.78 141.03 27.78 141.04 27.79 141.04 27.8 141.04 27.82 141.04 27.83 141.04 27.84 141.04 27.85 141.04 27.85 141.03 27.86 141.03 27.87 141.03 27.88 141.03 27.89 141.04 27.9 141.04 27.91 141.04 27.92 141.04 27.93 141.04 27.94 141.04 27.96 141.04 27.98 141.04 27.99 141.04 28 141.04 28.01 141.04"/>
<path d="M 26.14 141.11 26.13 141.11 26.13 141.1 26.12 141.1 26.12 141.09 26.11 141.09 26.09 141.09 26.08 141.09 26.08 141.08 26.07 141.08 26.06 141.07 26.05 141.07 26.04 141.07 26.04 141.06 26.03 141.06 26.02 141.06 26.01 141.05 25.99 141.05 26 141.04 25.99 141.03 25.98 141.03 25.98 141.02 25.97 141.02 25.96 141.02 25.95 141.02 25.94 141.02 25.93 141.02 25.92 141.01 25.91 141.01 25.89 141.01 25.88 141.01 25.86 141.01 25.86 141 25.84 141 25.83 141 25.82 141 25.81 141 25.8 141 25.79 141 25.77 141 25.76 141 25.75 141 25.73 140.99 25.72 140.99 25.71 140.99 25.71 141 25.69 141 25.68 141 25.66 141 25.66 141.01 25.64 141 25.63 141 25.63 141.01 25.62 141.01 25.61 141.01 25.61 141.02 25.6 141.02 25.59 141.02 25.59 141.03 25.58 141.03 25.57 141.04 25.56 141.04 25.56 141.05 25.55 141.05 25.54 141.05 25.55 141.05 25.54 141.05 25.53 141.06 25.52 141.06 25.52 141.05 25.51 141.05 25.5 141.05 25.5 141.04 25.5 141.03 25.51 141.03 25.5 141.03 25.5 141.02 25.51 141.02 25.51 141.01 25.5 141.01 25.49 141.01 25.48 141.01 25.47 141.01 25.46 141.01 25.45 141.01 25.44 141.01 25.43 141.01 25.42 141.01 25.41 141.01 25.4 141.01 25.39 141.01 25.38 141.02 25.37 141.02 25.36 141.02 25.36 141.03 25.35 141.03 25.36 141.04 25.35 141.04 25.34 141.04 25.33 141.04 25.32 141.04 25.33 141.05 25.31 141.05 25.3 141.05 25.26 141.06 25.24 141.06 25.23 141.06 25.22 141.06 25.21 141.06 25.21 141.07 25.19 141.07 25.18 141.07 25.14 141.08 25.09 141.08 25.08 141.08 25.06 141.08 25.06 141.07 25.05 141.07 25.04 141.07 25.04 141.06 25.03 141.06 25.03 141.05 25.02 141.05 25.01 141.05 25.01 141.04 25.02 141.05 25.02 141.04 25.01 141.04 25 141.04 24.99 141.03 24.98 141.03 24.96 141.03 24.95 141.03 24.94 141.03 24.93 141.03 24.91 141.04 24.91 141.03 24.9 141.03 24.89 141.04 24.88 141.04 24.88 141.05 24.87 141.06 24.86 141.06 24.86 141.07 24.85 141.07 24.84 141.07 24.84 141.08 24.83 141.08 24.81 141.09 24.8 141.09 24.79 141.09 24.78 141.09 24.77 141.09 24.76 141.08 24.75 141.08 24.75 141.07 24.74 141.07 24.73 141.07 24.73 141.06 24.72 141.06 24.71 141.05 24.71 141.04 24.71 141.03 24.71 141.02 24.7 141.02 24.69 141.02 24.68 141.02 24.67 141.02 24.65 141.02 24.64 141.02 24.64 141.01 24.63 141.01 24.62 141.01 24.61 141.01 24.59 141.01 24.58 141.01 24.58 141 24.56 141 24.55 141 24.55 140.99 24.53 140.99 24.52 140.99 24.51 140.99 24.5 140.99 24.49 140.99 24.48 140.98 24.47 140.98"/>
<path d="M 29.02 141.21 29.01 141.21 29.02 141.21"/>
<path d="M 27.86 141.49 27.85 141.49 27.86 141.49"/>
<path d="M 27.5 141.75 27.5 141.74 27.49 141.74 27.48 141.74 27.48 141.73 27.47 141.73 27.47 141.72 27.48 141.72 27.48 141.71 27.47 141.71 27.47 141.7 27.48 141.7 27.48 141.69 27.49 141.69 27.49 141.68 27.5 141.68 27.5 141.67 27.51 141.67 27.51 141.66 27.52 141.66 27.53 141.66 27.52 141.66 27.53 141.66 27.53 141.65 27.54 141.65 27.55 141.64 27.56 141.64 27.57 141.64 27.57 141.63 27.58 141.63 27.58 141.62 27.59 141.62 27.59 141.61 27.6 141.61 27.6 141.6 27.6 141.59 27.61 141.59 27.61 141.58 27.61 141.57 27.61 141.56 27.61 141.55 27.62 141.55 27.62 141.54 27.63 141.54 27.63 141.53 27.64 141.53 27.64 141.52 27.65 141.52 27.64 141.51 27.65 141.51 27.66 141.51 27.66 141.5 27.67 141.5 27.68 141.49 27.69 141.48 27.69 141.47 27.69 141.46 27.68 141.46 27.68 141.45 27.68 141.44 27.68 141.43 27.67 141.43 27.68 141.42 27.68 141.41 27.68 141.4 27.69 141.4 27.69 141.38 27.68 141.38 27.68 141.37 27.67 141.37 27.66 141.37 27.65 141.37 27.62 141.38 27.61 141.38 27.6 141.38 27.58 141.38 27.57 141.38 27.56 141.38 27.55 141.38 27.54 141.39 27.53 141.39 27.52 141.39 27.51 141.39 27.52 141.39 27.52 141.38 27.52 141.37 27.5 141.37 27.49 141.37 27.48 141.37 27.46 141.37 27.45 141.37 27.44 141.37 27.43 141.37 27.42 141.37 27.41 141.37 27.41 141.38 27.39 141.38 27.37 141.38 27.37 141.37 27.36 141.37 27.35 141.37 27.34 141.37 27.33 141.37 27.32 141.37 27.31 141.37 27.3 141.37 27.29 141.37 27.28 141.37 27.27 141.37 27.26 141.37 27.25 141.37 27.24 141.37 27.23 141.37 27.21 141.37 27.2 141.37 27.18 141.37 27.17 141.37 27.16 141.37 27.14 141.37 27.14 141.38 27.13 141.38 27.12 141.39 27.11 141.39 27.11 141.4 27.1 141.4 27.09 141.4 27.09 141.41 27.08 141.41 27.08 141.42 27.07 141.42 27.06 141.42 27.06 141.43 27.05 141.43 27.04 141.43 27.04 141.44 27.03 141.44 27.03 141.45 27.02 141.46 27.01 141.46 27.01 141.47 27 141.47 26.99 141.47 26.99 141.48 26.98 141.48 26.97 141.48 26.96 141.49 26.95 141.49 26.95 141.5 26.94 141.5 26.94 141.51 26.93 141.51 26.92 141.52 26.91 141.53 26.9 141.53 26.9 141.54 26.89 141.54 26.88 141.54 26.87 141.54 26.86 141.55 26.85 141.55 26.84 141.55 26.84 141.54 26.83 141.54 26.84 141.54 26.84 141.53 26.85 141.53 26.85 141.52 26.84 141.51 26.85 141.51 26.85 141.5 26.86 141.5 26.86 141.49 26.86 141.48 26.87 141.48 26.87 141.47 26.86 141.46 26.87 141.46 26.88 141.46 26.88 141.44 26.88 141.43 26.89 141.43 26.9 141.43 26.9 141.42 26.91 141.41 26.92 141.41 26.92 141.4 26.93 141.4 26.93 141.39 26.94 141.39 26.94 141.38 26.96 141.38 26.96 141.37 26.97 141.37 26.97 141.36 26.98 141.36 26.98 141.35 26.99 141.35 27 141.35 27 141.34 27.01 141.34 27.01 141.33 27 141.32 27 141.31 26.99 141.3 26.99 141.29 26.98 141.29 26.97 141.29 26.97 141.28 26.97 141.27 26.96 141.27 26.95 141.27 26.94 141.27 26.94 141.26 26.92 141.26 26.91 141.26 26.9 141.26 26.89 141.26 26.89 141.25 26.88 141.25 26.87 141.25 26.87 141.24 26.86 141.24 26.85 141.24 26.84 141.24 26.83 141.23 26.83 141.22 26.83 141.21 26.83 141.2 26.84 141.2 26.84 141.19 26.83 141.19 26.83 141.18 26.81 141.18 26.8 141.18 26.79 141.18 26.78 141.18 26.77 141.17 26.76 141.17 26.75 141.17 26.74 141.16 26.73 141.16 26.73 141.15 26.72 141.15 26.71 141.15 26.7 141.14 26.69 141.14 26.68 141.14 26.66 141.14 26.65 141.14 26.64 141.13 26.63 141.13 26.62 141.14 26.62 141.13 26.61 141.13 26.6 141.13 26.59 141.13 26.58 141.13 26.57 141.13 26.56 141.13 26.54 141.13 26.53 141.13 26.52 141.13 26.52 141.14 26.51 141.14 26.5 141.13 26.49 141.13 26.48 141.13 26.46 141.13 26.45 141.13 26.44 141.13 26.43 141.13 26.42 141.13 26.41 141.12 26.4 141.12 26.39 141.12 26.38 141.12 26.37 141.12 26.35 141.12 26.34 141.12 26.33 141.12 26.32 141.12 26.31 141.12 26.29 141.12 26.28 141.13 26.27 141.13 26.26 141.13 26.25 141.13 26.24 141.14 26.23 141.14 26.22 141.14 26.19 141.14 26.17 141.14 26.16 141.13 26.15 141.13 26.14 141.13 26.14 141.12 26.14 141.11"/>
<path d="M 29.12 141.12 29.12 141.13 29.12 141.14 29.11 141.15 29.11 141.16 29.1 141.16 29.1 141.17 29.09 141.18 29.09 141.19 29.09 141.2 29.08 141.2 29.08 141.21 29.07 141.21 29.07 141.22 29.05 141.22 29.04 141.22 29.03 141.22 29.03 141.23 29.02 141.23 29.01 141.23 29 141.23 29 141.22 28.99 141.22 28.98 141.22 28.97 141.21 28.97 141.2 28.97 141.19 28.96 141.17 28.96 141.16 28.95 141.15 28.95 141.14 28.94 141.14 28.93 141.14 28.93 141.13 28.92 141.13 28.91 141.13 28.89 141.13 28.88 141.13 28.87 141.13 28.86 141.13 28.85 141.12 28.84 141.12 28.83 141.12 28.82 141.12 28.81 141.12 28.8 141.12 28.79 141.12 28.78 141.12 28.77 141.12 28.75 141.12 28.73 141.11 28.71 141.12 28.71 141.11 28.72 141.11 28.71 141.11 28.7 141.11 28.69 141.11 28.68 141.12 28.67 141.12 28.66 141.12 28.65 141.13 28.64 141.13 28.65 141.13 28.64 141.13 28.64 141.14 28.63 141.14 28.62 141.14 28.62 141.15 28.61 141.15 28.61 141.16 28.61 141.17 28.6 141.17 28.61 141.17 28.59 141.17 28.58 141.18 28.57 141.18 28.57 141.19 28.56 141.19 28.57 141.19 28.56 141.19 28.55 141.19 28.55 141.2 28.54 141.2 28.53 141.2 28.53 141.21 28.52 141.21 28.5 141.21 28.51 141.22 28.5 141.22 28.49 141.22 28.48 141.22 28.48 141.23 28.47 141.23 28.47 141.24 28.46 141.24 28.45 141.24 28.45 141.25 28.46 141.25 28.45 141.26 28.44 141.26 28.43 141.26 28.42 141.27 28.41 141.27 28.4 141.27 28.39 141.27 28.38 141.27 28.37 141.27 28.36 141.27 28.36 141.28 28.35 141.28 28.32 141.28 28.31 141.28 28.3 141.28 28.3 141.27 28.29 141.27 28.28 141.27 28.26 141.27 28.25 141.27 28.25 141.28 28.22 141.28 28.21 141.28 28.19 141.28 28.16 141.28 28.15 141.28 28.14 141.28 28.11 141.28 28.1 141.28 28.08 141.28 28.06 141.29 28.05 141.29 28.04 141.29 28.04 141.3 28.02 141.3 28 141.3 27.99 141.31 27.98 141.31 27.98 141.32 27.97 141.32 27.96 141.32 27.95 141.33 27.94 141.34 27.93 141.34 27.93 141.35 27.92 141.35 27.91 141.35 27.91 141.36 27.9 141.36 27.89 141.36 27.89 141.37 27.88 141.37 27.86 141.37 27.86 141.38 27.86 141.39 27.86 141.4 27.87 141.41 27.86 141.42 27.86 141.43 27.86 141.44 27.86 141.45 27.85 141.46 27.85 141.47 27.85 141.48 27.85 141.49 27.84 141.5 27.84 141.51 27.83 141.51 27.83 141.52 27.83 141.53 27.82 141.54 27.82 141.55 27.81 141.55 27.81 141.56 27.81 141.57 27.8 141.57 27.8 141.56 27.8 141.57 27.79 141.58 27.78 141.59 27.78 141.6 27.77 141.6 27.76 141.61 27.76 141.62 27.75 141.62 27.75 141.63 27.74 141.63 27.75 141.63 27.75 141.64 27.74 141.64 27.73 141.64 27.73 141.65 27.72 141.65 27.72 141.66 27.71 141.66 27.7 141.66 27.7 141.67 27.69 141.67 27.68 141.68 27.67 141.69 27.66 141.69 27.66 141.7 27.65 141.7 27.64 141.7 27.64 141.71 27.63 141.71 27.62 141.71 27.62 141.72 27.61 141.72 27.6 141.73 27.59 141.74 27.6 141.75 27.6 141.76 27.6 141.77 27.61 141.78 27.62 141.78 27.63 141.79 27.64 141.79 27.65 141.79 27.65 141.8 27.66 141.8 27.67 141.8 27.67 141.81 27.68 141.81 27.68 141.82 27.69 141.82 27.7 141.82 27.7 141.83 27.71 141.83 27.7 141.83 27.71 141.83 27.72 141.83 27.71 141.84 27.71 141.85 27.72 141.85 27.73 141.85 27.73 141.86 27.72 141.87 27.72 141.86 27.71 141.86 27.71 141.87 27.7 141.87 27.69 141.87 27.67 141.87 27.67 141.88 27.65 141.88 27.64 141.88 27.63 141.88 27.63 141.87 27.62 141.88 27.61 141.87 27.62 141.87 27.61 141.87 27.59 141.87 27.59 141.86 27.58 141.86 27.57 141.86 27.56 141.85 27.55 141.85 27.54 141.85 27.53 141.84 27.5 141.84 27.48 141.85 27.47 141.85 27.45 141.85 27.44 141.85 27.42 141.85 27.41 141.86 27.4 141.85 27.39 141.85 27.38 141.85 27.37 141.85 27.36 141.85 27.35 141.85 27.35 141.86 27.34 141.86 27.33 141.86 27.33 141.87 27.33 141.88 27.33 141.89 27.32 141.89 27.32 141.9 27.31 141.9"/>
<path d="M 27.31 141.9 27.3 141.9 27.29 141.9 27.28 141.9 27.27 141.89 27.26 141.89 27.25 141.88 27.23 141.88 27.22 141.88 27.21 141.87 27.22 141.87 27.22 141.86 27.22 141.85 27.21 141.85 27.21 141.84 27.22 141.84 27.23 141.84 27.24 141.84 27.24 141.83 27.25 141.83 27.27 141.83 27.29 141.83 27.3 141.82 27.31 141.82 27.32 141.82 27.33 141.82 27.34 141.81 27.37 141.81 27.38 141.81 27.39 141.81 27.4 141.8 27.41 141.8 27.43 141.8 27.44 141.8 27.45 141.8 27.46 141.8 27.46 141.79 27.47 141.79 27.48 141.79 27.48 141.78 27.49 141.78 27.5 141.78 27.5 141.77 27.5 141.76 27.5 141.75"/>
<path d="M 24.66 140.69 24.67 140.69 24.68 140.69 24.69 140.69 24.69 140.7 24.69 140.69 24.7 140.69 24.71 140.69 24.72 140.7 24.73 140.7 24.75 140.7 24.76 140.71 24.77 140.71 24.78 140.71 24.78 140.72 24.79 140.72 24.8 140.72 24.8 140.73 24.81 140.73 24.81 140.74 24.82 140.74 24.83 140.74 24.83 140.75 24.84 140.75 24.84 140.76 24.85 140.76 24.85 140.77 24.86 140.77 24.87 140.77 24.87 140.78 24.88 140.78 24.89 140.78 24.9 140.78 24.92 140.78 24.93 140.78 24.94 140.78 24.95 140.78 24.96 140.78 24.97 140.78 24.98 140.78 24.98 140.77 24.99 140.77 25 140.77 25.01 140.76 25.02 140.76 25.03 140.75 25.04 140.75 25.05 140.75 25.06 140.76 25.05 140.77 25.06 140.77 25.07 140.77 25.07 140.76 25.08 140.76 25.09 140.76 25.1 140.76 25.11 140.76 25.12 140.76 25.12 140.75 25.13 140.75 25.14 140.75 25.15 140.75 25.17 140.75 25.19 140.75 25.21 140.75 25.22 140.74 25.23 140.74 25.24 140.74 25.24 140.73 25.25 140.73 25.25 140.72 25.26 140.72 25.27 140.72 25.28 140.72 25.29 140.72 25.31 140.72 25.32 140.72 25.33 140.72 25.33 140.71 25.35 140.71 25.36 140.71 25.37 140.71 25.38 140.71 25.39 140.71 25.4 140.7 25.41 140.7 25.42 140.7 25.43 140.7 25.44 140.7 25.46 140.7 25.45 140.71 25.46 140.71 25.48 140.71 25.48 140.72 25.49 140.72 25.5 140.72 25.51 140.72 25.52 140.72 25.53 140.72 25.55 140.72 25.56 140.72 25.57 140.72 25.58 140.72 25.58 140.71 25.59 140.71 25.6 140.7 25.61 140.7 25.63 140.7 25.65 140.69 25.66 140.69 25.67 140.69 25.68 140.68 25.69 140.68 25.71 140.68 25.72 140.68 25.73 140.67 25.75 140.67 25.76 140.67 25.77 140.67 25.78 140.67 25.78 140.68 25.79 140.68 25.8 140.68 25.81 140.67 25.82 140.67 25.84 140.67 25.85 140.67 25.87 140.67 25.88 140.67 25.89 140.67 25.9 140.67 25.91 140.66 25.92 140.66 25.92 140.65 25.92 140.64 25.93 140.63 25.94 140.62 25.94 140.61 25.95 140.6 25.95 140.59 25.96 140.59 25.96 140.58 25.97 140.58 25.97 140.57 25.98 140.57 25.98 140.56 25.99 140.56 25.99 140.55 26 140.55 26 140.54 26.01 140.54 26.02 140.54 26.02 140.53 26.03 140.53 26.03 140.52 26.04 140.52 26.05 140.52 26.05 140.51 26.06 140.51 26.07 140.51 26.07 140.5 26.08 140.5 26.09 140.5 26.09 140.49 26.1 140.49 26.11 140.49 26.12 140.49 26.12 140.48 26.13 140.47 26.14 140.47 26.15 140.47 26.16 140.46 26.18 140.46 26.18 140.45 26.2 140.45 26.21 140.45 26.22 140.45 26.22 140.46 26.21 140.46 26.22 140.46 26.22 140.47 26.22 140.48 26.21 140.48 26.2 140.48 26.2 140.49 26.19 140.49 26.2 140.49 26.18 140.49 26.18 140.5 26.17 140.5 26.16 140.51 26.16 140.52 26.16 140.53 26.15 140.53 26.15 140.54 26.14 140.54 26.14 140.55 26.13 140.55 26.13 140.56 26.12 140.56 26.12 140.57 26.11 140.57 26.11 140.58 26.1 140.59 26.09 140.59 26.09 140.6 26.09 140.61 26.08 140.61 26.07 140.61 26.07 140.62 26.06 140.62 26.06 140.63 26.07 140.63 26.08 140.63 26.09 140.63 26.1 140.64 26.11 140.64 26.12 140.64 26.13 140.65 26.14 140.65 26.17 140.65 26.18 140.65 26.18 140.66 26.19 140.66 26.2 140.67 26.2 140.68 26.21 140.68 26.21 140.69 26.24 140.69 26.25 140.69 26.26 140.69 26.27 140.69 26.28 140.69 26.29 140.7 26.3 140.7 26.3 140.71 26.31 140.71 26.32 140.71 26.32 140.72 26.33 140.72 26.33 140.73 26.34 140.73 26.35 140.74 26.36 140.74 26.36 140.75 26.37 140.75 26.37 140.76 26.38 140.76 26.39 140.77 26.4 140.78 26.41 140.78 26.42 140.78 26.42 140.79 26.43 140.79 26.44 140.79 26.44 140.8 26.45 140.8 26.46 140.81 26.47 140.81 26.48 140.81 26.48 140.82 26.49 140.82 26.5 140.83 26.51 140.84 26.52 140.84 26.52 140.85 26.53 140.85 26.54 140.85 26.54 140.86 26.56 140.86"/>
</g>
</svg>