<?xml version="1.0"?>
<svg xmlns="http://www.w3.org/2000/svg" version="1.2" baseProfile="tiny" width="800" height="223" viewBox="0 0 800 223" stroke-linecap="round" stroke-linejoin="round">
<g id="cd22" fill="none" stroke="black" stroke-width="0.05">
<path d="M 23.1 140.64 23.1 140.63 23.1 140.64"/>
<path d="M 23.1 140.66 23.09 140.66 23.1 140.66"/>
<path d="M 22.9 140.67 22.91 140.67 22.92 140.67 22.92 140.66 22.93 140.66 22.92 140.65 22.93 140.65 22.92 140.64 22.92 140.63 22.92 140.62 22.92 140.61 22.91 140.61 22.92 140.61 22.92 140.6 22.92 140.59 22.92 140.58 22.92 140.57 22.93 140.57 22.91 140.57 22.92 140.56 22.92 140.55 22.91 140.55 22.91 140.54 22.9 140.54 22.9 140.53 22.9 140.52 22.89 140.52 22.9 140.52 22.89 140.52 22.89 140.51 22.9 140.51 22.9 140.5 22.89 140.5 22.89 140.49 22.89 140.48 22.88 140.48 22.88 140.46 22.89 140.46 22.88 140.46 22.88 140.45 22.87 140.45 22.87 140.44 22.86 140.42 22.87 140.42 22.87 140.41 22.88 140.4 22.89 140.4 22.89 140.39 22.9 140.39 22.91 140.39 22.91 140.38 22.92 140.38 22.93 140.38 22.93 140.37 22.94 140.37 22.95 140.37 22.96 140.36 22.97 140.36 22.97 140.35 22.98 140.35 22.98 140.34 22.99 140.33 22.99 140.32 22.99 140.31 23 140.31 23.01 140.31 23.01 140.3 23.02 140.3 23.02 140.29 23.03 140.29 23.04 140.29 23.05 140.29 23.06 140.29 23.07 140.29 23.08 140.29 23.09 140.29 23.09 140.3 23.09 140.29 23.1 140.3 23.11 140.3 23.12 140.3 23.13 140.3 23.14 140.3 23.16 140.3 23.16 140.31 23.15 140.32 23.15 140.33 23.14 140.33 23.14 140.34 23.13 140.34 23.13 140.35 23.12 140.35 23.12 140.36 23.11 140.36 23.11 140.38 23.1 140.38 23.09 140.39 23.08 140.39 23.09 140.39 23.08 140.39 23.08 140.4 23.07 140.4 23.06 140.41 23.05 140.42 23.04 140.42 23.03 140.43 23.01 140.43 23.01 140.44 23 140.44 23 140.45 23.01 140.45 23.02 140.46 23.02 140.47 23.02 140.48 23.03 140.48 23.02 140.48 23.03 140.49 23.04 140.49 23.05 140.49 23.05 140.5 23.06 140.5 23.06 140.51 23.06 140.52 23.07 140.52 23.07 140.53 23.07 140.54 23.07 140.55 23.07 140.56 23.07 140.57 23.07 140.58 23.06 140.58 23.06 140.59 23.07 140.59 23.07 140.6 23.06 140.6 23.06 140.61 23.05 140.62 23.06 140.63 23.07 140.63 23.07 140.64 23.09 140.64 23.08 140.65 23.07 140.65 23.08 140.66 23.09 140.66 23.09 140.65 23.11 140.65 23.11 140.66 23.12 140.66 23.13 140.66 23.14 140.66 23.15 140.66 23.16 140.66 23.17 140.66 23.18 140.66 23.19 140.66 23.2 140.66 23.21 140.65 23.23 140.65 23.22 140.64 23.23 140.63 23.24 140.63 23.25 140.63 23.26 140.63 23.26 140.64 23.27 140.64 23.27 140.63 23.28 140.63 23.29 140.63 23.29 140.62 23.3 140.62 23.31 140.62 23.31 140.63 23.31 140.62 23.32 140.62 23.33 140.62 23.35 140.62 23.36 140.62 23.37 140.62 23.38 140.62 23.39 140.63 23.4 140.63 23.41 140.63 23.41 140.64 23.41 140.65 23.41 140.66 23.42 140.67 23.43 140.67 23.46 140.67 23.47 140.67 23.48 140.67 23.49 140.67 23.5 140.67 23.51 140.67 23.54 140.67 23.55 140.67 23.56 140.67 23.57 140.67 23.57 140.66 23.58 140.66 23.59 140.66 23.6 140.66 23.6 140.65 23.61 140.65 23.62 140.65 23.65 140.65 23.66 140.65 23.68 140.65 23.69 140.65 23.7 140.65 23.71 140.65 23.72 140.65 23.74 140.65 23.75 140.65 23.76 140.65 23.77 140.65 23.77 140.64 23.78 140.64 23.79 140.64 23.8 140.64 23.8 140.65 23.81 140.65 23.82 140.65 23.82 140.64 23.83 140.64 23.84 140.64 23.85 140.64 23.86 140.64 23.87 140.64 23.87 140.65 23.88 140.65 23.89 140.65 23.89 140.66 23.9 140.66 23.91 140.66 23.92 140.66 23.93 140.66"/>
<path d="M 22.42 140.68 22.41 140.68 22.4 140.68 22.4 140.67 22.42 140.67 22.41 140.67 22.41 140.66 22.42 140.66 22.43 140.66 22.44 140.67 22.43 140.67 22.42 140.67 22.43 140.68 22.44 140.68 22.43 140.68 22.42 140.68"/>
<path d="M 21.66 140.8 21.66 140.79 21.67 140.79 21.67 140.8 21.66 140.8"/>
<path d="M 21.68 140.8 21.69 140.8 21.68 140.8"/>
<path d="M 21.25 140.91 21.25 140.9 21.26 140.9 21.26 140.89 21.27 140.89 21.29 140.89 21.29 140.88 21.3 140.88 21.3 140.87 21.31 140.87 21.31 140.86 21.32 140.85 21.33 140.85 21.33 140.86 21.34 140.86 21.35 140.86 21.34 140.86 21.34 140.85 21.36 140.85 21.35 140.85 21.35 140.84 21.36 140.84 21.36 140.83 21.37 140.82 21.38 140.82 21.38 140.81 21.39 140.81 21.4 140.81 21.41 140.81 21.42 140.81 21.42 140.8 21.41 140.8 21.42 140.8 21.43 140.8 21.43 140.79 21.43 140.78 21.44 140.78 21.44 140.77 21.44 140.76 21.45 140.76 21.45 140.75 21.45 140.74 21.44 140.74 21.45 140.74 21.45 140.73 21.46 140.73 21.46 140.72 21.47 140.72 21.48 140.72 21.49 140.72 21.49 140.73 21.5 140.73 21.5 140.74 21.51 140.74 21.52 140.74 21.52 140.75 21.52 140.76 21.52 140.77 21.53 140.77 21.53 140.78 21.53 140.79 21.54 140.79 21.55 140.79 21.55 140.8 21.57 140.8 21.57 140.81 21.58 140.81 21.59 140.81 21.59 140.82 21.6 140.82 21.61 140.82 21.62 140.82 21.65 140.82 21.65 140.81 21.66 140.81 21.67 140.81 21.66 140.81 21.66 140.8 21.67 140.8 21.68 140.8 21.68 140.79 21.69 140.79 21.69 140.78 21.7 140.78 21.71 140.78 21.72 140.77 21.73 140.77 21.73 140.76 21.74 140.76 21.75 140.76 21.76 140.76 21.77 140.76 21.79 140.76 21.8 140.77 21.81 140.77 21.82 140.77 21.83 140.77 21.83 140.76 21.86 140.76 21.87 140.76 21.88 140.76 21.89 140.76 21.89 140.77 21.9 140.77 21.91 140.77 21.93 140.77 21.93 140.78 21.94 140.78 21.95 140.79 21.96 140.79 21.98 140.79 21.98 140.8 21.99 140.81 22 140.81 22.01 140.81 22.02 140.81 22.03 140.81 22.02 140.8 22.03 140.81 22.04 140.81 22.03 140.81 22.03 140.82 22.05 140.82 22.07 140.82 22.08 140.82 22.09 140.83 22.1 140.83 22.11 140.83 22.12 140.84 22.13 140.84 22.14 140.84 22.16 140.84 22.17 140.84 22.19 140.84 22.19 140.83 22.2 140.83 22.2 140.82 22.21 140.82 22.23 140.82 22.24 140.82 22.24 140.81 22.25 140.81 22.26 140.81 22.26 140.8 22.27 140.8 22.27 140.79 22.28 140.79 22.29 140.79 22.3 140.79 22.3 140.78 22.31 140.78 22.32 140.78 22.31 140.78 22.31 140.77 22.3 140.77 22.3 140.76 22.29 140.76 22.28 140.76 22.27 140.76 22.28 140.75 22.26 140.75 22.27 140.75 22.28 140.74 22.29 140.74 22.3 140.74 22.3 140.73 22.3 140.72 22.32 140.72 22.31 140.72 22.32 140.72 22.33 140.71 22.31 140.71 22.31 140.7 22.31 140.69 22.32 140.69 22.32 140.7 22.33 140.7 22.33 140.69 22.31 140.69 22.3 140.69 22.29 140.69 22.28 140.68 22.27 140.68 22.27 140.67 22.28 140.67 22.26 140.67 22.27 140.66 22.27 140.65 22.28 140.65 22.29 140.64 22.29 140.63 22.3 140.62 22.31 140.62 22.32 140.62 22.33 140.61 22.35 140.61 22.36 140.61 22.37 140.61 22.38 140.61 22.39 140.61 22.39 140.62 22.4 140.62 22.41 140.62 22.4 140.62 22.4 140.63 22.41 140.63 22.42 140.63 22.43 140.63 22.44 140.62 22.45 140.62 22.46 140.62 22.47 140.61 22.48 140.61 22.5 140.61 22.51 140.61 22.52 140.61 22.53 140.61 22.55 140.61 22.55 140.62 22.57 140.62 22.58 140.62 22.59 140.62 22.6 140.62 22.6 140.63 22.61 140.63 22.62 140.64 22.63 140.64 22.64 140.64 22.65 140.64 22.65 140.63 22.67 140.63 22.67 140.64 22.68 140.64 22.69 140.64 22.69 140.65 22.68 140.65 22.69 140.65 22.7 140.65 22.71 140.65 22.72 140.65 22.72 140.66 22.73 140.66 22.74 140.66 22.77 140.66 22.77 140.65 22.78 140.66 22.78 140.65 22.8 140.65 22.81 140.65 22.82 140.65 22.83 140.66 22.84 140.66 22.85 140.66 22.86 140.66 22.86 140.67 22.87 140.67 22.88 140.67 22.89 140.67 22.9 140.67"/>
<path d="M 22.92 140.94 22.91 140.94 22.92 140.94"/>
<path d="M 20.31 141.22 20.3 141.21 20.31 141.22"/>
<path d="M 22.96 141.31 22.96 141.3 22.96 141.29 22.97 141.29 22.98 141.28 22.99 141.28 23 141.28 23.01 141.28 23.02 141.28 23.02 141.27 23.03 141.27 23.04 141.27 23.04 141.26 23.05 141.25 23.05 141.23 23.06 141.22 23.06 141.21 23.06 141.2 23.06 141.19 23.06 141.18 23.07 141.18 23.07 141.17 23.07 141.16 23.07 141.15 23.07 141.14 23.07 141.13 23.08 141.13 23.09 141.13 23.08 141.12 23.08 141.11 23.07 141.1 23.07 141.11 23.07 141.1 23.07 141.09 23.06 141.09 23.05 141.09 23.05 141.08 23.06 141.07 23.05 141.07 23.05 141.06 23.05 141.05 23.06 141.05 23.06 141.04 23.07 141.04 23.08 141.04 23.07 141.03 23.07 141.02 23.07 141.01 23.08 141.01 23.08 141 23.09 141 23.09 140.99 23.08 140.99 23.08 140.98 23.07 140.98 23.06 140.98 23.05 140.98 23.04 140.98 23.03 140.98 23.02 140.98 23.02 140.99 23.01 140.99 23.01 140.98 23 140.99 23 140.98 22.99 140.98 22.98 140.97 22.99 140.96 22.98 140.96 22.98 140.95 22.97 140.95 22.96 140.95 22.95 140.95 22.95 140.94 22.94 140.94 22.94 140.93 22.93 140.93 22.92 140.93 22.92 140.94 22.91 140.94 22.9 140.94 22.88 140.93 22.87 140.93 22.85 140.93 22.84 140.94 22.82 140.94 22.82 140.95 22.81 140.95 22.8 140.95 22.8 140.96 22.79 140.96 22.79 140.97 22.78 140.97 22.75 140.97 22.75 140.98 22.74 140.98 22.73 140.98 22.73 140.99 22.72 140.99 22.71 140.99 22.7 140.99 22.69 140.99 22.69 141 22.68 141 22.67 141 22.67 141.01 22.67 141.02 22.68 141.02 22.69 141.02 22.7 141.02 22.7 141.03 22.71 141.03 22.71 141.04 22.72 141.04 22.72 141.05 22.72 141.06 22.71 141.06 22.7 141.07 22.69 141.07 22.68 141.07 22.67 141.07 22.66 141.07 22.65 141.07 22.64 141.07 22.64 141.08 22.63 141.08 22.61 141.08 22.58 141.08 22.57 141.08 22.57 141.09 22.56 141.09 22.57 141.09 22.55 141.09 22.55 141.1 22.55 141.09 22.54 141.09 22.53 141.09 22.53 141.1 22.52 141.1 22.51 141.1 22.51 141.11 22.5 141.11 22.49 141.11 22.48 141.11 22.47 141.11 22.46 141.11 22.46 141.12 22.44 141.12 22.42 141.12 22.41 141.13 22.4 141.13 22.39 141.13 22.4 141.14 22.39 141.14 22.38 141.15 22.37 141.15 22.36 141.15 22.35 141.15 22.34 141.15 22.33 141.16 22.32 141.16 22.3 141.15 22.29 141.15 22.28 141.14 22.28 141.15 22.26 141.15 22.25 141.15 22.24 141.16 22.22 141.16 22.21 141.16 22.2 141.16 22.19 141.16 22.19 141.17 22.18 141.17 22.17 141.17 22.16 141.17 22.15 141.17 22.15 141.18 22.15 141.19 22.14 141.19 22.13 141.19 22.12 141.19 22.11 141.19 22.11 141.2 22.1 141.2 22.09 141.2 22.08 141.21 22.07 141.21 22.06 141.21 22.05 141.21 22.05 141.2 22.04 141.2 22.04 141.19 22.05 141.19 22.06 141.18 22.05 141.18 22.05 141.17 22.05 141.16 22.05 141.15 22.04 141.15 22.03 141.15 22.02 141.16 22.01 141.16 22 141.16 21.99 141.17 21.98 141.17 21.97 141.17 21.96 141.17 21.95 141.17 21.94 141.17 21.93 141.17 21.92 141.17 21.91 141.17 21.92 141.18 21.9 141.18 21.89 141.18 21.87 141.18 21.87 141.17 21.87 141.16 21.86 141.16 21.86 141.15 21.87 141.15 21.87 141.14 21.88 141.14 21.89 141.14 21.89 141.13 21.88 141.13 21.89 141.13 21.89 141.12 21.88 141.11 21.87 141.11 21.87 141.1 21.86 141.1 21.85 141.1 21.84 141.1 21.83 141.1 21.82 141.1 21.82 141.11 21.81 141.11 21.8 141.11 21.79 141.11 21.78 141.11 21.77 141.11 21.75 141.11 21.74 141.11 21.74 141.12 21.72 141.12 21.71 141.12 21.71 141.13 21.7 141.13 21.69 141.13 21.68 141.13 21.68 141.14 21.67 141.14 21.66 141.14 21.65 141.14 21.65 141.15 21.64 141.15 21.63 141.15 21.62 141.17 21.62 141.18 21.61 141.18 21.61 141.19 21.6 141.19 21.59 141.19 21.58 141.19 21.57 141.19 21.57 141.2 21.56 141.2 21.56 141.21 21.55 141.21 21.53 141.21 21.53 141.22 21.52 141.22 21.52 141.23 21.51 141.23 21.5 141.23 21.49 141.23 21.49 141.24 21.48 141.24 21.47 141.24 21.47 141.25 21.46 141.26 21.46 141.25 21.45 141.25 21.44 141.25 21.44 141.26 21.43 141.26 21.42 141.26 21.41 141.26 21.4 141.26 21.39 141.26 21.38 141.26 21.38 141.27 21.37 141.27 21.36 141.26 21.37 141.27 21.36 141.27 21.35 141.27"/>
<path d="M 19.61 141.21 19.61 141.22 19.62 141.22 19.62 141.23 19.63 141.23 19.63 141.24 19.64 141.25 19.65 141.25 19.65 141.26 19.66 141.26 19.64 141.26 19.65 141.26 19.65 141.27 19.66 141.27 19.67 141.27 19.67 141.28 19.68 141.28 19.67 141.28 19.67 141.29 19.67 141.3 19.68 141.3 19.69 141.3 19.69 141.31 19.71 141.31 19.71 141.32 19.72 141.32 19.71 141.33 19.7 141.33 19.69 141.33 19.68 141.33 19.68 141.34 19.67 141.34 19.67 141.35 19.68 141.36 19.69 141.36 19.69 141.37 19.71 141.37 19.72 141.37 19.73 141.37 19.74 141.38 19.75 141.38 19.76 141.38 19.76 141.37 19.77 141.37 19.78 141.37 19.8 141.37 19.81 141.37 19.82 141.37 19.83 141.37 19.85 141.36 19.86 141.36 19.88 141.36 19.89 141.36 19.9 141.35 19.92 141.35 19.93 141.35 19.93 141.34 19.94 141.34 19.95 141.34 19.97 141.34 19.98 141.34 19.99 141.33 20 141.33 20.01 141.33 20.02 141.33 20.03 141.33 20.03 141.32 20.04 141.32 20.05 141.32 20.05 141.31 20.07 141.31 20.08 141.31 20.09 141.31 20.11 141.3 20.12 141.3 20.13 141.29 20.14 141.29 20.15 141.29 20.15 141.28 20.16 141.28 20.16 141.27 20.15 141.27 20.16 141.27 20.16 141.26 20.17 141.26 20.18 141.26 20.19 141.26 20.19 141.25 20.2 141.25 20.21 141.25 20.21 141.24 20.22 141.24 20.24 141.24 20.25 141.24 20.26 141.24 20.27 141.24 20.27 141.23 20.28 141.23 20.29 141.23 20.3 141.23 20.29 141.23 20.29 141.22 20.3 141.22 20.31 141.22 20.32 141.22 20.31 141.21 20.33 141.21 20.34 141.21 20.34 141.2 20.35 141.2 20.35 141.19 20.36 141.19 20.37 141.19 20.36 141.18 20.37 141.18 20.38 141.17 20.39 141.17 20.39 141.16 20.4 141.16 20.41 141.16 20.42 141.16 20.43 141.16 20.43 141.15 20.45 141.15 20.46 141.15 20.47 141.15 20.48 141.15 20.48 141.14 20.49 141.14 20.49 141.15 20.5 141.15 20.51 141.15 20.52 141.15 20.52 141.14 20.53 141.14 20.52 141.14 20.52 141.13 20.53 141.13 20.54 141.13 20.54 141.12 20.55 141.12 20.56 141.12 20.57 141.11 20.57 141.1 20.58 141.1 20.59 141.1 20.6 141.1 20.61 141.1 20.61 141.11 20.62 141.11 20.63 141.11 20.64 141.12 20.65 141.12 20.66 141.13 20.66 141.12 20.67 141.12 20.69 141.13 20.7 141.13 20.71 141.13 20.72 141.13 20.72 141.12 20.73 141.12 20.74 141.12 20.75 141.12 20.76 141.12 20.77 141.11 20.78 141.11 20.79 141.11 20.8 141.11 20.8 141.1 20.81 141.1 20.82 141.1 20.83 141.09 20.84 141.09 20.84 141.08 20.85 141.08 20.86 141.08 20.86 141.07 20.87 141.07 20.88 141.07 20.89 141.07 20.9 141.07 20.91 141.08 20.92 141.08 20.93 141.07 20.94 141.07 20.95 141.06 20.96 141.06 20.96 141.05 20.97 141.05 20.97 141.04 20.96 141.04 20.97 141.04 20.97 141.03 20.98 141.03 20.99 141.03 21 141.03 21.01 141.03 21.02 141.03 21.02 141.02 21.01 141.02 21 141.03 21 141.02 21.01 141.02 21.02 141.02 21.03 141.02 21.04 141.02 21.05 141.02 21.06 141.02 21.07 141.02 21.07 141.01 21.08 141.01 21.09 141.01 21.09 141 21.1 141 21.1 140.99 21.11 140.99 21.11 140.98 21.11 140.97 21.12 140.97 21.14 140.96 21.15 140.96 21.15 140.95 21.16 140.95 21.17 140.95 21.18 140.94 21.18 140.93 21.19 140.93 21.19 140.94 21.2 140.94 21.2 140.93 21.21 140.93 21.21 140.92 21.22 140.92 21.23 140.93 21.23 140.92 21.24 140.92 21.24 140.91 21.25 140.91"/>
<path d="M 20.64 141.43 20.64 141.42 20.64 141.43"/>
<path d="M 21.79 141.46 21.78 141.46 21.78 141.45 21.77 141.44 21.76 141.44 21.77 141.43 21.76 141.43 21.76 141.42 21.75 141.42 21.74 141.43 21.72 141.43 21.72 141.42 21.71 141.42 21.7 141.42 21.69 141.42 21.68 141.42 21.68 141.41 21.67 141.41 21.67 141.4 21.66 141.4 21.65 141.4 21.65 141.39 21.64 141.39 21.63 141.39 21.62 141.39 21.61 141.39 21.6 141.39 21.59 141.39 21.58 141.39 21.58 141.38 21.57 141.38 21.56 141.38 21.55 141.37 21.54 141.37 21.54 141.36 21.54 141.35 21.53 141.35 21.52 141.34 21.52 141.33 21.51 141.33 21.5 141.33 21.5 141.32 21.49 141.32 21.48 141.32 21.47 141.32 21.46 141.32 21.46 141.31 21.45 141.31 21.44 141.31 21.44 141.3 21.43 141.3 21.42 141.29 21.43 141.29 21.42 141.29 21.42 141.28 21.42 141.27 21.41 141.27 21.42 141.27 21.42 141.26 21.43 141.26 21.44 141.26 21.46 141.26 21.47 141.26 21.48 141.26 21.49 141.26 21.5 141.27 21.52 141.27 21.53 141.27 21.54 141.27 21.54 141.28 21.55 141.28 21.56 141.28 21.56 141.29 21.57 141.28 21.57 141.29 21.59 141.29 21.6 141.29 21.59 141.3 21.6 141.31 21.61 141.31 21.62 141.31 21.63 141.31 21.64 141.31 21.64 141.32 21.65 141.32 21.66 141.32 21.67 141.32 21.68 141.32 21.68 141.33 21.69 141.33 21.71 141.33 21.71 141.34 21.72 141.34 21.73 141.34 21.73 141.35 21.74 141.35 21.75 141.35 21.76 141.36 21.77 141.36 21.78 141.36 21.78 141.38 21.79 141.38 21.79 141.39 21.8 141.39 21.82 141.39 21.83 141.39 21.84 141.39 21.86 141.39 21.87 141.39 21.88 141.39 21.89 141.39 21.9 141.4 21.92 141.4 21.93 141.4 21.94 141.4 21.94 141.41 21.94 141.42 21.95 141.43 21.95 141.44 21.96 141.44 21.97 141.44 21.98 141.44 21.98 141.45 21.97 141.45 21.96 141.46 21.95 141.46 21.94 141.46 21.93 141.46 21.91 141.46 21.9 141.46 21.89 141.46 21.88 141.46 21.86 141.46 21.85 141.46 21.84 141.46 21.83 141.46 21.82 141.46 21.81 141.46 21.8 141.46 21.79 141.46"/>
<path d="M 22.89 141.5 22.88 141.5 22.89 141.5"/>
<path d="M 23.34 141.08 23.35 141.08 23.35 141.09 23.36 141.09 23.37 141.09 23.38 141.09 23.39 141.09 23.39 141.1 23.4 141.1 23.41 141.1 23.42 141.1 23.43 141.1 23.43 141.11 23.45 141.11 23.46 141.11 23.47 141.11 23.47 141.12 23.48 141.12 23.49 141.12 23.49 141.13 23.5 141.13 23.51 141.13 23.51 141.14 23.51 141.15 23.51 141.16 23.51 141.17 23.51 141.18 23.5 141.18 23.49 141.18 23.49 141.19 23.48 141.18 23.46 141.19 23.46 141.18 23.45 141.18 23.44 141.18 23.43 141.18 23.42 141.17 23.41 141.17 23.4 141.17 23.39 141.17 23.39 141.16 23.38 141.16 23.37 141.16 23.36 141.16 23.36 141.15 23.35 141.15 23.34 141.15 23.34 141.14 23.32 141.14 23.29 141.14 23.28 141.14 23.25 141.14 23.24 141.15 23.23 141.15 23.23 141.16 23.22 141.17 23.22 141.18 23.22 141.19 23.21 141.19 23.21 141.2 23.21 141.21 23.21 141.22 23.21 141.23 23.21 141.24 23.21 141.25 23.2 141.26 23.2 141.27 23.19 141.27 23.19 141.28 23.18 141.29 23.18 141.3 23.17 141.3 23.16 141.31 23.15 141.31 23.14 141.32 23.13 141.32 23.12 141.32 23.11 141.32 23.1 141.32 23.09 141.32 23.09 141.33 23.08 141.33 23.07 141.33 23.06 141.33 23.05 141.33 23.05 141.34 23.04 141.34 23.04 141.35 23.02 141.35 23.03 141.36 23.01 141.36 23 141.36 22.99 141.36 22.98 141.37 22.96 141.37 22.95 141.37 22.95 141.38 22.94 141.37 22.94 141.38 22.93 141.38 22.92 141.38 22.92 141.39 22.91 141.39 22.92 141.39 22.92 141.4 22.93 141.4 22.92 141.41 22.92 141.42 22.93 141.44 22.93 141.45 22.94 141.45 22.94 141.46 22.95 141.47 22.96 141.47 22.96 141.48 22.97 141.48 22.96 141.49 22.96 141.5 22.96 141.51 22.97 141.51 22.96 141.52 22.96 141.53 22.95 141.53 22.94 141.53 22.93 141.53 22.93 141.52 22.92 141.52 22.91 141.52 22.9 141.52 22.89 141.51 22.88 141.51 22.87 141.51 22.88 141.49 22.87 141.48 22.87 141.46 22.87 141.45 22.87 141.44 22.87 141.43 22.88 141.43 22.88 141.42 22.89 141.41 22.9 141.41 22.9 141.4 22.91 141.39 22.9 141.38 22.9 141.37 22.89 141.37 22.9 141.37 22.91 141.37 22.9 141.36 22.91 141.36 22.92 141.36 22.92 141.35 22.93 141.35 22.92 141.34 22.93 141.34 22.94 141.34 22.95 141.34 22.95 141.33 22.94 141.33 22.95 141.33 22.95 141.32 22.96 141.32 22.96 141.31"/>
<path d="M 21.35 141.27 21.34 141.27 21.34 141.28 21.33 141.29 21.32 141.3 21.31 141.3 21.3 141.31 21.3 141.32 21.29 141.32 21.28 141.32 21.27 141.33 21.26 141.33 21.25 141.33 21.24 141.33 21.23 141.33 21.23 141.34 21.22 141.34 21.21 141.34 21.2 141.34 21.2 141.35 21.19 141.35 21.18 141.35 21.18 141.36 21.18 141.37 21.17 141.38 21.18 141.38 21.16 141.38 21.15 141.38 21.15 141.39 21.14 141.39 21.13 141.39 21.13 141.4 21.12 141.4 21.13 141.4 21.11 141.4 21.11 141.41 21.1 141.41 21.09 141.41 21.08 141.41 21.07 141.41 21.07 141.42 21.05 141.42 21.04 141.41 21.03 141.41 21.03 141.42 21.01 141.42 21.01 141.41 21 141.41 20.99 141.41 20.98 141.41 20.97 141.41 20.96 141.41 20.95 141.41 20.95 141.42 20.94 141.42 20.93 141.42 20.92 141.42 20.91 141.42 20.9 141.42 20.89 141.41 20.88 141.41 20.87 141.41 20.86 141.41 20.84 141.41 20.83 141.41 20.82 141.41 20.81 141.41 20.8 141.41 20.78 141.41 20.77 141.42 20.77 141.41 20.76 141.41 20.75 141.41 20.74 141.41 20.73 141.41 20.72 141.41 20.71 141.41 20.7 141.41 20.69 141.41 20.69 141.42 20.68 141.41 20.67 141.41 20.67 141.42 20.66 141.42 20.66 141.43 20.65 141.43 20.64 141.43 20.64 141.44 20.64 141.45 20.64 141.46 20.65 141.46 20.64 141.46 20.64 141.47 20.63 141.47 20.62 141.47 20.62 141.48 20.61 141.48 20.61 141.49 20.6 141.49 20.58 141.49 20.55 141.49 20.54 141.48 20.53 141.48 20.51 141.48 20.5 141.48 20.49 141.48 20.49 141.49 20.48 141.49 20.47 141.49 20.47 141.5 20.46 141.5 20.46 141.51 20.45 141.51 20.46 141.51 20.44 141.51 20.44 141.52 20.43 141.52 20.43 141.53 20.42 141.52 20.42 141.53 20.41 141.54 20.4 141.54 20.4 141.55 20.4 141.56 20.41 141.56 20.41 141.57 20.41 141.58 20.41 141.59 20.42 141.6 20.44 141.6 20.45 141.61 20.45 141.62 20.45 141.63 20.45 141.64 20.45 141.65 20.45 141.66 20.45 141.67 20.44 141.68 20.45 141.68 20.45 141.69 20.46 141.69 20.46 141.7 20.47 141.7 20.47 141.71 20.48 141.71 20.48 141.72 20.48 141.73 20.49 141.73 20.49 141.74 20.48 141.74 20.48 141.75 20.49 141.75 20.49 141.76 20.49 141.77 20.49 141.78 20.48 141.78 20.48 141.79 20.47 141.79 20.46 141.79 20.46 141.8 20.45 141.8 20.44 141.8 20.44 141.81 20.43 141.82 20.43 141.83 20.42 141.83 20.42 141.84 20.41 141.84 20.41 141.85 20.42 141.85 20.42 141.86 20.43 141.86 20.43 141.87 20.43 141.88 20.43 141.89 20.43 141.9 20.42 141.9 20.43 141.9 20.43 141.92 20.43 141.93 20.43 141.94 20.43 141.95 20.44 141.95 20.43 141.96 20.44 141.97 20.44 141.98 20.44 141.99 20.44 142 20.44 142.01 20.44 142.02 20.42 142.02 20.4 142.02"/>
<path d="M 20.42 142.8 20.41 142.8 20.41 142.79 20.42 142.79 20.42 142.8"/>
<path d="M 20.4 142.81 20.39 142.81 20.38 142.81 20.37 142.81 20.36 142.81 20.36 142.8 20.37 142.8 20.38 142.8 20.39 142.79 20.4 142.79 20.41 142.79 20.42 142.79 20.43 142.79 20.43 142.8 20.42 142.8 20.41 142.8 20.41 142.81 20.4 142.81"/>
<path d="M 21.13 142.93 21.12 142.93 21.1 142.93 21.09 142.93 21.08 142.93 21.08 142.91 21.09 142.91 21.11 142.91 21.12 142.91 21.13 142.91 21.13 142.92 21.13 142.93"/>
<path d="M 19.32 143.02 19.33 143.02 19.33 143.01 19.34 143 19.33 143 19.32 143 19.32 142.99 19.33 142.99 19.32 142.99 19.33 142.99 19.33 142.98 19.32 142.98 19.33 142.98 19.33 142.97 19.34 142.97 19.35 142.96 19.35 142.95 19.36 142.95 19.36 142.94 19.37 142.94 19.37 142.93 19.38 142.93 19.39 142.93 19.4 142.93 19.41 142.93 19.41 142.92 19.42 142.92 19.43 142.92 19.43 142.91 19.44 142.91 19.45 142.91 19.46 142.91 19.46 142.9 19.47 142.9 19.48 142.9 19.49 142.9 19.5 142.9 19.51 142.9 19.51 142.89 19.52 142.89 19.53 142.88 19.54 142.88 19.55 142.88 19.56 142.88 19.57 142.88 19.57 142.87 19.58 142.88 19.6 142.88 19.61 142.88 19.62 142.88 19.64 142.88 19.64 142.87 19.65 142.87 19.64 142.87 19.65 142.87 19.65 142.86 19.66 142.86 19.66 142.87 19.67 142.86 19.68 142.86 19.68 142.87 19.69 142.87 19.7 142.87 19.71 142.87 19.71 142.88 19.72 142.88 19.72 142.89 19.74 142.89 19.76 142.89 19.78 142.89 19.79 142.89 19.81 142.89 19.82 142.89 19.83 142.89 19.84 142.89 19.85 142.89 19.86 142.89 19.87 142.89 19.87 142.88 19.88 142.88 19.88 142.87 19.89 142.87 19.91 142.88 19.93 142.87 19.95 142.87 19.96 142.87 19.97 142.87 19.97 142.86 19.98 142.86 19.99 142.86 20 142.86 20.01 142.86 20.02 142.86 20.03 142.86 20.05 142.86 20.05 142.85 20.06 142.85 20.07 142.85 20.08 142.85 20.09 142.85 20.09 142.84 20.12 142.84 20.13 142.84 20.14 142.84 20.15 142.84 20.16 142.84 20.17 142.84 20.18 142.83 20.19 142.83 20.2 142.83 20.21 142.83 20.23 142.83 20.23 142.82 20.23 142.81 20.25 142.81 20.26 142.81 20.27 142.81 20.27 142.8 20.28 142.8 20.29 142.8 20.31 142.8 20.31 142.81 20.32 142.81 20.32 142.8 20.33 142.8 20.34 142.8 20.35 142.8 20.34 142.8 20.34 142.79 20.33 142.79 20.31 142.79 20.32 142.79 20.32 142.78 20.33 142.78 20.33 142.77 20.34 142.77 20.35 142.77 20.36 142.77 20.37 142.77 20.37 142.76 20.38 142.76 20.39 142.76 20.39 142.75 20.4 142.75 20.41 142.74 20.42 142.74 20.42 142.73 20.43 142.72 20.44 142.72 20.45 142.72 20.45 142.71 20.46 142.71 20.47 142.7 20.49 142.7 20.51 142.7 20.52 142.7 20.52 142.69 20.54 142.69 20.55 142.69 20.55 142.68 20.56 142.68 20.57 142.68 20.57 142.67 20.58 142.67 20.59 142.66 20.6 142.66 20.6 142.65 20.61 142.65 20.61 142.64 20.63 142.64 20.64 142.64 20.64 142.63 20.65 142.63 20.66 142.63 20.66 142.62 20.65 142.62 20.66 142.61 20.67 142.61 20.68 142.61 20.69 142.61 20.7 142.61 20.71 142.6 20.7 142.6 20.71 142.59 20.72 142.59 20.73 142.59 20.73 142.58 20.75 142.58 20.74 142.58 20.75 142.58 20.76 142.58 20.77 142.58 20.78 142.58 20.78 142.59 20.77 142.59 20.75 142.59 20.74 142.6 20.73 142.6 20.72 142.6 20.73 142.61 20.74 142.62 20.73 142.62 20.72 142.62 20.72 142.63 20.71 142.63 20.7 142.63 20.69 142.64 20.7 142.65 20.7 142.66 20.69 142.67 20.68 142.67 20.66 142.67 20.66 142.68 20.65 142.68 20.64 142.68 20.64 142.69 20.63 142.69 20.61 142.69 20.61 142.7 20.6 142.7 20.59 142.7 20.58 142.7 20.58 142.71 20.58 142.7 20.57 142.7 20.57 142.71 20.56 142.71 20.56 142.72 20.58 142.72 20.57 142.72 20.57 142.73 20.56 142.73 20.55 142.73 20.56 142.73 20.56 142.74 20.55 142.74 20.54 142.74 20.54 142.75 20.53 142.75 20.52 142.75 20.53 142.76 20.51 142.76 20.5 142.76 20.49 142.77 20.48 142.77 20.47 142.77 20.46 142.78 20.47 142.78 20.47 142.79 20.46 142.79 20.45 142.8 20.44 142.8 20.44 142.81 20.45 142.81 20.45 142.82 20.45 142.83 20.46 142.84 20.46 142.85 20.47 142.85 20.48 142.86 20.49 142.86 20.49 142.87 20.5 142.87 20.51 142.87 20.52 142.87 20.53 142.87 20.54 142.87 20.56 142.87 20.57 142.87 20.58 142.88 20.59 142.88 20.6 142.88 20.62 142.88 20.63 142.88 20.64 142.88 20.64 142.89 20.65 142.89 20.66 142.89 20.67 142.89 20.67 142.9 20.68 142.9 20.68 142.91 20.67 142.91 20.65 142.91 20.64 142.91 20.63 142.91 20.63 142.92 20.61 142.92 20.6 142.92 20.6 142.93 20.61 142.93 20.61 142.94 20.6 142.94 20.6 142.95 20.61 142.95"/>
<path d="M 20.61 142.95 20.63 142.95 20.64 142.94 20.66 142.94 20.68 142.94 20.68 142.93 20.69 142.93 20.72 142.93 20.73 142.93 20.73 142.92 20.74 142.92 20.75 142.92 20.76 142.92 20.77 142.92 20.77 142.91 20.78 142.91 20.79 142.91 20.83 142.91 20.84 142.91 20.83 142.92 20.84 142.92 20.85 142.92 20.86 142.92 20.87 142.92 20.88 142.92 20.87 142.91 20.87 142.9 20.9 142.9 20.91 142.9 20.92 142.9 20.93 142.9 20.94 142.9 20.96 142.9 20.97 142.9 20.98 142.91 21 142.91 21.02 142.91 21.03 142.91 21.04 142.9 21.05 142.9 21.06 142.9 21.06 142.89 21.07 142.89 21.08 142.89 21.09 142.89 21.09 142.88 21.1 142.88 21.11 142.88 21.12 142.88 21.14 142.88 21.14 142.89 21.15 142.89 21.15 142.9 21.15 142.91 21.16 142.91 21.17 142.91 21.18 142.91 21.19 142.91 21.18 142.92 21.19 142.92 21.2 142.92 21.21 142.92 21.22 142.92 21.22 142.91 21.23 142.9 21.23 142.91 21.24 142.91 21.25 142.91 21.26 142.92 21.24 142.92 21.23 142.92 21.23 142.93 21.22 142.93 21.18 142.93 21.17 142.93 21.17 142.94 21.16 142.94 21.15 142.94 21.14 142.94 21.13 142.94 21.1 142.95 21.08 142.95 21.06 142.95 21.05 142.95 21.04 142.95 21.03 142.95 21.03 142.96 21.02 142.96 21.01 142.96 21 142.96 21 142.97 20.99 142.97 20.98 142.97 20.97 142.96 20.96 142.96 20.95 142.97 20.94 142.97 20.93 142.96 20.92 142.96 20.91 142.96 20.91 142.95 20.9 142.95 20.91 142.95 20.9 142.95 20.9 142.94 20.89 142.94 20.88 142.94 20.87 142.94 20.86 142.94 20.87 142.94 20.86 142.94 20.86 142.95 20.85 142.95 20.84 142.95 20.84 142.94 20.82 142.94 20.81 142.94 20.81 142.95 20.8 142.95 20.8 142.96 20.79 142.96 20.78 142.96 20.78 142.97 20.79 142.97 20.78 142.97 20.78 142.98 20.77 142.98 20.78 142.98 20.77 142.98 20.76 142.99 20.76 143 20.75 143 20.75 143.01 20.73 143.01 20.72 143.01 20.71 143.01 20.7 143.01 20.69 143.01 20.69 143.02 20.69 143.03 20.69 143.04 20.68 143.04 20.66 143.04 20.65 143.04 20.64 143.04 20.63 143.04 20.62 143.04 20.62 143.03 20.63 143.03 20.63 143.02 20.64 143.01 20.65 143 20.66 143 20.65 143 20.65 142.99 20.66 142.99 20.67 142.99 20.68 142.99 20.68 142.98 20.67 142.98 20.66 142.98 20.65 142.98 20.63 142.98 20.62 142.98 20.62 142.99 20.61 142.99 20.6 142.99 20.59 142.99 20.59 143 20.58 143 20.57 143 20.55 143 20.54 142.99 20.53 142.99 20.52 142.99 20.52 142.98 20.51 142.97 20.5 142.97 20.5 142.95 20.5 142.94 20.51 142.93 20.5 142.93 20.51 142.93 20.5 142.93 20.5 142.92 20.49 142.92 20.48 142.92 20.47 142.92 20.46 142.92 20.47 142.92 20.46 142.92 20.46 142.91 20.45 142.91 20.44 142.91 20.43 142.91 20.42 142.91 20.4 142.91 20.39 142.9 20.38 142.9 20.38 142.89 20.37 142.89 20.36 142.89 20.35 142.89 20.34 142.89 20.32 142.89 20.32 142.9 20.31 142.9 20.3 142.9 20.29 142.9 20.29 142.91 20.27 142.91 20.26 142.91 20.25 142.91 20.24 142.92 20.23 142.92 20.2 142.92 20.19 142.92 20.18 142.93 20.16 142.93 20.15 142.93 20.14 142.93 20.14 142.94 20.13 142.94 20.12 142.94 20.11 142.94 20.1 142.94 20.09 142.94 20.08 142.94 20.06 142.95 20.05 142.95 20.04 142.95 20.03 142.95 20.03 142.96 20.02 142.96 20.01 142.96 19.99 142.96 19.97 142.96 19.97 142.97 19.96 142.97 19.95 142.97 19.93 142.97 19.92 142.98 19.91 142.97 19.91 142.98 19.89 142.98 19.88 142.98 19.87 142.98 19.86 142.98 19.85 142.97 19.81 142.97 19.8 142.97 19.79 142.97 19.77 142.97 19.77 142.96 19.76 142.96 19.75 142.96 19.73 142.96 19.7 142.96 19.7 142.97 19.69 142.97 19.68 142.97 19.68 142.96 19.67 142.96 19.67 142.95 19.66 142.95 19.65 142.95 19.65 142.96 19.64 142.96 19.63 142.96 19.62 142.96 19.61 142.96 19.6 142.96 19.6 142.97 19.59 142.97 19.58 142.97 19.57 142.97 19.56 142.97 19.55 142.97 19.54 142.98 19.55 142.98 19.54 142.98 19.53 142.98 19.52 142.98 19.51 142.99 19.5 142.99 19.5 143 19.51 143 19.51 143.01 19.5 143.01 19.5 143.02 19.51 143.02 19.51 143.03 19.51 143.04 19.5 143.04 19.49 143.04 19.48 143.04 19.49 143.04 19.48 143.05 19.47 143.05 19.46 143.05 19.47 143.05 19.47 143.06 19.48 143.06 19.48 143.07 19.49 143.07 19.48 143.07 19.47 143.07 19.46 143.07 19.46 143.08 19.47 143.08 19.47 143.09"/>
<path d="M 22.95 143.35 22.95 143.34 22.95 143.35"/>
<path d="M 22.95 143.35 22.94 143.35 22.95 143.35"/>
<path d="M 22.96 143.35 22.95 143.35 22.96 143.35"/>
<path d="M 22.93 143.35 22.94 143.35 22.93 143.35"/>
<path d="M 22.91 143.36 22.91 143.35 22.92 143.35 22.92 143.36 22.91 143.35 22.91 143.36"/>
<path d="M 22.33 143.75 22.32 143.75 22.33 143.74 22.34 143.74 22.33 143.75"/>
<path d="M 22.39 143.75 22.38 143.75 22.35 143.75 22.35 143.74 22.36 143.74 22.37 143.74 22.38 143.74 22.39 143.74 22.4 143.74 22.41 143.74 22.41 143.73 22.42 143.73 22.42 143.72 22.43 143.72 22.43 143.73 22.43 143.72 22.44 143.72 22.43 143.71 22.44 143.71 22.45 143.71 22.45 143.7 22.45 143.69 22.44 143.69 22.45 143.69 22.46 143.69 22.46 143.68 22.47 143.68 22.47 143.67 22.47 143.68 22.48 143.68 22.48 143.67 22.48 143.66 22.49 143.66 22.49 143.65 22.48 143.64 22.48 143.63 22.49 143.63 22.51 143.63 22.5 143.62 22.51 143.63 22.51 143.62 22.52 143.61 22.53 143.61 22.53 143.6 22.53 143.59 22.53 143.58 22.53 143.57 22.54 143.57 22.55 143.57 22.56 143.57 22.56 143.56 22.56 143.55 22.56 143.54 22.57 143.53 22.57 143.52 22.58 143.52 22.58 143.51 22.59 143.51 22.59 143.5 22.6 143.5 22.59 143.5 22.59 143.49 22.6 143.49 22.6 143.48 22.6 143.47 22.59 143.47 22.59 143.46 22.59 143.45 22.59 143.44 22.6 143.44 22.61 143.44 22.62 143.44 22.63 143.44 22.64 143.44 22.65 143.43 22.65 143.42 22.66 143.42 22.67 143.41 22.67 143.42 22.68 143.42 22.69 143.41 22.7 143.41 22.71 143.4 22.72 143.4 22.72 143.39 22.73 143.39 22.74 143.39 22.75 143.39 22.75 143.38 22.76 143.38 22.77 143.37 22.78 143.37 22.79 143.37 22.8 143.37 22.8 143.36 22.81 143.36 22.82 143.36 22.83 143.36 22.86 143.36 22.87 143.37 22.88 143.37 22.89 143.37 22.89 143.36 22.9 143.36 22.9 143.37 22.91 143.37 22.91 143.38 22.9 143.38 22.89 143.39 22.88 143.39 22.88 143.4 22.87 143.4 22.85 143.4 22.83 143.4 22.81 143.4 22.8 143.4 22.8 143.41 22.79 143.42 22.78 143.42 22.77 143.43 22.76 143.43 22.75 143.43 22.75 143.44 22.74 143.44 22.73 143.44 22.73 143.45 22.72 143.45 22.71 143.45 22.71 143.46 22.7 143.46 22.69 143.46 22.69 143.47 22.68 143.47 22.68 143.48 22.67 143.48 22.67 143.49 22.66 143.49 22.66 143.5 22.65 143.5 22.64 143.51 22.64 143.52 22.65 143.52 22.65 143.53 22.65 143.54 22.65 143.55 22.65 143.56 22.64 143.56 22.64 143.57 22.64 143.58 22.64 143.6 22.63 143.6 22.63 143.61 22.63 143.62 22.62 143.62 22.62 143.63 22.61 143.64 22.6 143.64 22.59 143.64 22.59 143.65 22.58 143.65 22.57 143.66 22.56 143.66 22.56 143.67 22.55 143.67 22.54 143.67 22.53 143.68 22.52 143.68 22.52 143.69 22.51 143.69 22.5 143.69 22.5 143.7 22.49 143.7 22.48 143.7 22.47 143.71 22.47 143.72 22.46 143.72 22.45 143.72 22.45 143.73 22.44 143.73 22.43 143.74 22.42 143.75 22.39 143.75"/>
<path d="M 22.35 143.75 22.34 143.75 22.34 143.74 22.35 143.74 22.35 143.75"/>
<path d="M 22.9 144.02 22.9 144.01 22.9 144.02"/>
<path d="M 22.93 144.03 22.92 144.03 22.93 144.03"/>
<path d="M 22.89 144.04 22.88 144.04 22.89 144.04"/>
<path d="M 22.89 144.04 22.9 144.03 22.91 144.03 22.92 144.03 22.92 144.04 22.91 144.04 22.89 144.04"/>
<path d="M 22.83 144.04 22.84 144.04 22.86 144.04 22.86 144.03 22.86 144.04 22.84 144.04 22.83 144.04"/>
<path d="M 21.58 144.14 21.59 144.13 21.6 144.13 21.61 144.13 21.61 144.12 21.62 144.12 21.62 144.11 21.62 144.1 21.63 144.09 21.64 144.09 21.65 144.09 21.65 144.08 21.66 144.09 21.67 144.09 21.68 144.08 21.68 144.09 21.69 144.08 21.69 144.07 21.68 144.07 21.68 144.06 21.69 144.06 21.69 144.05 21.7 144.05 21.72 144.05 21.73 144.05 21.74 144.04 21.75 144.04 21.75 144.03 21.77 144.03 21.78 144.03 21.78 144.04 21.79 144.04 21.78 144.04 21.81 144.04 21.81 144.05 21.82 144.05 21.81 144.05 21.81 144.06 21.82 144.06 21.83 144.06 21.83 144.05 21.84 144.05 21.85 144.04 21.86 144.03 21.87 144.03 21.87 144.02 21.86 144.02 21.87 144.01 21.87 144 21.87 143.99 21.88 143.99 21.88 143.98 21.89 143.98 21.89 143.97 21.9 143.96 21.91 143.96 21.92 143.96 21.92 143.95 21.93 143.95 21.94 143.95 21.95 143.94 21.96 143.94 21.97 143.94 21.97 143.93 21.98 143.93 21.98 143.92 21.99 143.92 22 143.91 22 143.9 22.01 143.89 22.02 143.88 22.03 143.88 22.03 143.87 22.03 143.86 22.03 143.85 22.03 143.84 22.04 143.84 22.04 143.83 22.05 143.83 22.05 143.82 22.05 143.81 22.07 143.81 22.08 143.81 22.09 143.81 22.1 143.81 22.11 143.81 22.11 143.8 22.1 143.79 22.1 143.78 22.11 143.78 22.12 143.78 22.12 143.77 22.13 143.77 22.14 143.77 22.14 143.76 22.15 143.76 22.16 143.76 22.18 143.75 22.19 143.75 22.2 143.75 22.21 143.75 22.23 143.75 22.24 143.76 22.25 143.76 22.26 143.76 22.27 143.76 22.28 143.76 22.29 143.76 22.3 143.76 22.3 143.75 22.31 143.75 22.32 143.75 22.31 143.75 22.31 143.76 22.3 143.76 22.31 143.76 22.3 143.77 22.31 143.77 22.32 143.77 22.31 143.76 22.32 143.76 22.33 143.76 22.34 143.76 22.33 143.77 22.34 143.77 22.34 143.78 22.34 143.79 22.34 143.8 22.34 143.81 22.33 143.81 22.32 143.81 22.32 143.82 22.31 143.82 22.32 143.83 22.31 143.83 22.31 143.84 22.3 143.84 22.29 143.84 22.29 143.83 22.28 143.83 22.27 143.83 22.26 143.82 22.25 143.82 22.25 143.83 22.24 143.83 22.24 143.82 22.23 143.82 22.23 143.81 22.22 143.81 22.21 143.81 22.21 143.8 22.19 143.8 22.18 143.8 22.19 143.8 22.18 143.8 22.18 143.81 22.17 143.81 22.16 143.81 22.16 143.82 22.15 143.82 22.16 143.82 22.16 143.83 22.15 143.83 22.14 143.83 22.14 143.84 22.13 143.84 22.12 143.84 22.12 143.85 22.13 143.85 22.13 143.86 22.12 143.87 22.13 143.88 22.13 143.89 22.14 143.89 22.15 143.89 22.15 143.9 22.16 143.9 22.15 143.9 22.16 143.9 22.17 143.9 22.17 143.91 22.16 143.91 22.16 143.92 22.15 143.92 22.14 143.92 22.14 143.93 22.13 143.94 22.12 143.94 22.11 143.94 22.11 143.95 22.1 143.95 22.09 143.95 22.09 143.96 22.09 143.95 22.1 143.94 22.11 143.94 22.1 143.94 22.09 143.94 22.09 143.93 22.1 143.93 22.08 143.93 22.09 143.93 22.09 143.94 22.08 143.94 22.07 143.94 22.07 143.95 22.06 143.95 22.05 143.95 22.04 143.95 22.04 143.96 22.05 143.96 22.04 143.96 22.04 143.97 22.05 143.96 22.06 143.96 22.05 143.97 22.04 143.97 22.04 143.98 22.04 143.97 22.03 143.97 22.03 143.98 22.02 143.98 22.01 143.98 22 143.99 21.99 143.99 21.98 143.99 21.98 144 21.97 144 21.97 144.01 21.98 144.01 21.98 144 21.98 144.01 21.98 144.02 21.97 144.02 21.97 144.03 21.96 144.03 21.95 144.03 21.95 144.04 21.94 144.04 21.94 144.05 21.95 144.05 21.95 144.06 21.94 144.06 21.94 144.07 21.93 144.07 21.93 144.08 21.92 144.08 21.93 144.08 21.93 144.09 21.94 144.08 21.94 144.09 21.93 144.09 21.93 144.1 21.91 144.1 21.91 144.11 21.9 144.11 21.89 144.11 21.88 144.11 21.87 144.11 21.86 144.11 21.87 144.12 21.86 144.12 21.86 144.13 21.87 144.13 21.86 144.14 21.86 144.15"/>
<path d="M 20.06 144.19 20.07 144.19 20.08 144.19 20.07 144.19 20.06 144.19"/>
<path d="M 21.32 144.28 21.31 144.28 21.32 144.28"/>
<path d="M 21.28 144.32 21.28 144.31 21.28 144.32"/>
<path d="M 21.23 144.33 21.23 144.32 21.21 144.32 21.22 144.31 21.22 144.3 21.23 144.31 21.24 144.31 21.23 144.31 21.23 144.32 21.23 144.33"/>
<path d="M 22.59 144.35 22.58 144.35 22.59 144.34 22.59 144.35"/>
<path d="M 21.28 144.35 21.27 144.35 21.28 144.35"/>
<path d="M 21.29 144.35 21.28 144.35 21.29 144.35"/>
<path d="M 21.17 144.37 21.17 144.36 21.17 144.37"/>
<path d="M 21.46 144.41 21.45 144.41 21.46 144.41"/>
<path d="M 21.36 144.49 21.35 144.49 21.34 144.49 21.33 144.49 21.32 144.49 21.31 144.49 21.31 144.48 21.31 144.47 21.31 144.46 21.3 144.46 21.3 144.45 21.31 144.45 21.3 144.44 21.3 144.43 21.3 144.42 21.28 144.42 21.28 144.41 21.28 144.4 21.27 144.4 21.27 144.39 21.26 144.38 21.27 144.38 21.27 144.37 21.28 144.37 21.27 144.37 21.27 144.36 21.28 144.36 21.27 144.36 21.28 144.36 21.28 144.35 21.27 144.35 21.27 144.34 21.27 144.33 21.27 144.32 21.26 144.32 21.26 144.31 21.27 144.31 21.28 144.31 21.29 144.31 21.3 144.32 21.31 144.31 21.31 144.32 21.31 144.33 21.31 144.34 21.31 144.35 21.32 144.35 21.32 144.36 21.32 144.37 21.33 144.37 21.33 144.38 21.33 144.39 21.33 144.4 21.34 144.4 21.34 144.41 21.35 144.41 21.35 144.42 21.36 144.42 21.36 144.43 21.37 144.43 21.37 144.44 21.38 144.44 21.38 144.45 21.37 144.45 21.37 144.46 21.38 144.46 21.38 144.47 21.38 144.48 21.37 144.48 21.37 144.49 21.36 144.49"/>
<path d="M 22.62 144.53 22.63 144.53 22.65 144.53 22.63 144.53 22.62 144.53"/>
<path d="M 21.86 144.15 21.85 144.16 21.86 144.17 21.86 144.18 21.87 144.18 21.88 144.18 21.88 144.19 21.88 144.2 21.89 144.21 21.88 144.22 21.89 144.22 21.92 144.22 21.92 144.23 21.92 144.24 21.91 144.24 21.92 144.25 21.92 144.26 21.93 144.26 21.94 144.26 21.95 144.26 21.97 144.26 21.98 144.26 21.99 144.26 21.99 144.27 22 144.27 22.01 144.27 22.02 144.27 22.02 144.26 22.03 144.26 22.03 144.25 22.04 144.25 22.05 144.25 22.05 144.24 22.07 144.24 22.07 144.25 22.08 144.25 22.09 144.25 22.1 144.26 22.11 144.26 22.12 144.26 22.13 144.26 22.15 144.26 22.16 144.26 22.2 144.26 22.21 144.26 22.22 144.26 22.24 144.26 22.25 144.26 22.26 144.26 22.26 144.27 22.27 144.28 22.27 144.29 22.27 144.3 22.26 144.3 22.26 144.31 22.27 144.31 22.28 144.3 22.3 144.3 22.3 144.31 22.31 144.3 22.31 144.29 22.32 144.29 22.32 144.28 22.33 144.28 22.33 144.27 22.34 144.27 22.35 144.27 22.36 144.27 22.37 144.27 22.38 144.27 22.39 144.27 22.4 144.27 22.41 144.27 22.42 144.27 22.43 144.27 22.44 144.27 22.47 144.27 22.48 144.27 22.49 144.27 22.5 144.27 22.49 144.28 22.5 144.28 22.51 144.29 22.52 144.29 22.53 144.28 22.54 144.28 22.55 144.27 22.57 144.27 22.58 144.26 22.58 144.25 22.58 144.24 22.59 144.24 22.59 144.23 22.6 144.23 22.6 144.22 22.6 144.21 22.61 144.21 22.61 144.2 22.61 144.19 22.64 144.19 22.65 144.19 22.65 144.18 22.66 144.18 22.67 144.18 22.67 144.17 22.68 144.16 22.68 144.15 22.67 144.14 22.67 144.13 22.68 144.13 22.68 144.12 22.68 144.11 22.69 144.11 22.7 144.11 22.7 144.1 22.72 144.1 22.73 144.1 22.74 144.1 22.74 144.09 22.75 144.09 22.75 144.08 22.76 144.08 22.77 144.08 22.77 144.07 22.77 144.06 22.77 144.05 22.78 144.05 22.78 144.04 22.79 144.04 22.79 144.05 22.79 144.04 22.79 144.03 22.8 144.03 22.81 144.03 22.81 144.02 22.82 144.02 22.83 144.02 22.83 144.01 22.84 144.01 22.84 144 22.84 143.99 22.86 143.99 22.86 144 22.87 144 22.88 144 22.9 144 22.89 144.01 22.89 144.02 22.9 144.02 22.89 144.02 22.9 144.02 22.9 144.03 22.89 144.03 22.88 144.03 22.87 144.03 22.87 144.04 22.88 144.04 22.87 144.04 22.86 144.04 22.85 144.04 22.85 144.05 22.86 144.06 22.85 144.06 22.84 144.06 22.85 144.06 22.85 144.07 22.84 144.07 22.83 144.08 22.82 144.08 22.82 144.09 22.81 144.09 22.81 144.1 22.8 144.1 22.79 144.1 22.79 144.11 22.79 144.12 22.78 144.12 22.78 144.13 22.77 144.14 22.76 144.15 22.75 144.15 22.75 144.16 22.73 144.16 22.73 144.18 22.73 144.2 22.73 144.21 22.72 144.21 22.71 144.21 22.71 144.22 22.71 144.23 22.7 144.24 22.69 144.25 22.69 144.24 22.69 144.25 22.67 144.25 22.66 144.25 22.66 144.26 22.65 144.26 22.64 144.27 22.63 144.27 22.63 144.28 22.62 144.28 22.62 144.29 22.61 144.29 22.61 144.3 22.6 144.3 22.6 144.31 22.59 144.31 22.6 144.32 22.6 144.33 22.6 144.34 22.59 144.34 22.57 144.34 22.56 144.34 22.55 144.34 22.54 144.34 22.53 144.34 22.52 144.34 22.52 144.35 22.5 144.35 22.47 144.35 22.47 144.34 22.47 144.33 22.46 144.33 22.45 144.32 22.44 144.32 22.43 144.32 22.43 144.33 22.44 144.33 22.43 144.33 22.42 144.33 22.41 144.33 22.41 144.34 22.4 144.34 22.4 144.35 22.39 144.35 22.39 144.36 22.4 144.36 22.4 144.37 22.41 144.37 22.41 144.38 22.42 144.38 22.42 144.39 22.43 144.39 22.43 144.41 22.43 144.42 22.42 144.43 22.41 144.43 22.42 144.43 22.41 144.44 22.4 144.44 22.4 144.45 22.4 144.46 22.41 144.46 22.41 144.47 22.4 144.47 22.4 144.48 22.41 144.48 22.42 144.48 22.42 144.49 22.43 144.5 22.42 144.5 22.43 144.5 22.43 144.51 22.43 144.52 22.43 144.53 22.44 144.53 22.43 144.53 22.43 144.54"/>
<path d="M 20.3 144.54 20.29 144.54 20.3 144.54"/>
<path d="M 21.42 144.54 21.42 144.53 21.43 144.53 21.46 144.53 21.47 144.52 21.48 144.52 21.48 144.51 21.5 144.51 21.5 144.5 21.51 144.5 21.5 144.5 21.5 144.51 21.51 144.51 21.52 144.51 21.52 144.5 21.53 144.5 21.53 144.49 21.52 144.49 21.52 144.48 21.53 144.48 21.54 144.48 21.54 144.47 21.55 144.47 21.55 144.46 21.56 144.46 21.55 144.46 21.56 144.45 21.56 144.44 21.57 144.44 21.57 144.45 21.57 144.44 21.58 144.44 21.59 144.43 21.6 144.43 21.61 144.43 21.61 144.42 21.62 144.42 21.61 144.42 21.62 144.42 21.63 144.42 21.63 144.41 21.63 144.4 21.64 144.41 21.65 144.4 21.66 144.4 21.66 144.39 21.66 144.38 21.66 144.37 21.65 144.37 21.65 144.36 21.64 144.36 21.61 144.36 21.6 144.35 21.59 144.35 21.58 144.36 21.58 144.35 21.57 144.35 21.57 144.36 21.56 144.36 21.55 144.36 21.54 144.37 21.54 144.38 21.54 144.39 21.53 144.39 21.52 144.39 21.51 144.4 21.51 144.41 21.5 144.41 21.49 144.41 21.49 144.42 21.48 144.42 21.47 144.42 21.46 144.42 21.46 144.41 21.45 144.41 21.44 144.41 21.43 144.41 21.42 144.41 21.42 144.4 21.41 144.4 21.42 144.39 21.41 144.39 21.41 144.38 21.41 144.37 21.42 144.37 21.42 144.36 21.41 144.36 21.42 144.35 21.41 144.35 21.41 144.34 21.42 144.34 21.43 144.33 21.43 144.32 21.44 144.32 21.45 144.32 21.46 144.32 21.46 144.31 21.47 144.31 21.48 144.3 21.49 144.3 21.49 144.29 21.5 144.29 21.52 144.29 21.53 144.29 21.53 144.28 21.54 144.28 21.55 144.28 21.55 144.27 21.56 144.27 21.57 144.27 21.58 144.27 21.59 144.27 21.6 144.27 21.6 144.26 21.61 144.26 21.62 144.26 21.63 144.26 21.63 144.25 21.64 144.25 21.65 144.25 21.66 144.25 21.67 144.25 21.67 144.24 21.68 144.24 21.68 144.23 21.69 144.23 21.69 144.24 21.7 144.23 21.71 144.23 21.72 144.23 21.72 144.22 21.72 144.21 21.73 144.21 21.73 144.2 21.74 144.2 21.74 144.21 21.75 144.21 21.75 144.22 21.76 144.22 21.77 144.22 21.78 144.23 21.79 144.24 21.8 144.25 21.81 144.26 21.82 144.26 21.82 144.27 21.83 144.27 21.83 144.28 21.84 144.28 21.85 144.28 21.85 144.29 21.86 144.29 21.86 144.3 21.87 144.3 21.88 144.3 21.88 144.31 21.89 144.31 21.89 144.32 21.89 144.33 21.9 144.33 21.89 144.34 21.89 144.35 21.89 144.36 21.88 144.36 21.88 144.37 21.88 144.39 21.89 144.39 21.89 144.4 21.9 144.4 21.9 144.41 21.9 144.42 21.91 144.41 21.93 144.41 21.93 144.4 21.92 144.39 21.93 144.39 21.93 144.38 21.94 144.37 21.94 144.36 21.95 144.35 21.95 144.34 21.96 144.34 21.97 144.34 21.98 144.34 21.99 144.34 21.99 144.33 22 144.33 22.01 144.33 22.02 144.33 22.03 144.32 22.02 144.32 22.03 144.32 22.04 144.31 22.04 144.3 22.03 144.3 22.04 144.3 22.05 144.29 22.05 144.3 22.06 144.3 22.06 144.29 22.05 144.29 22.06 144.29 22.07 144.29 22.05 144.29 22.06 144.29 22.06 144.28 22.07 144.28 22.08 144.28 22.08 144.27 22.09 144.27 22.1 144.27 22.11 144.28 22.12 144.28 22.13 144.28 22.15 144.29 22.16 144.29 22.17 144.29 22.18 144.29 22.18 144.31 22.2 144.31 22.19 144.31 22.19 144.32 22.2 144.32 22.21 144.32 22.21 144.33 22.22 144.33 22.23 144.34 22.25 144.34 22.25 144.35 22.26 144.35 22.27 144.35 22.27 144.36 22.28 144.36 22.29 144.36 22.29 144.37 22.3 144.37 22.3 144.38 22.31 144.38 22.32 144.38 22.32 144.39 22.33 144.39 22.34 144.4 22.35 144.4 22.34 144.41 22.35 144.41 22.36 144.42 22.36 144.43 22.35 144.43 22.35 144.44 22.35 144.45 22.36 144.46 22.37 144.46 22.38 144.46 22.37 144.47 22.38 144.47 22.38 144.48 22.38 144.49 22.38 144.5 22.38 144.51 22.37 144.51 22.36 144.51 22.36 144.52 22.35 144.52 22.36 144.52 22.36 144.53 22.35 144.53 22.34 144.53 22.33 144.53 22.33 144.54 22.32 144.54 22.32 144.55 22.32 144.56"/>
<path d="M 22.54 144.57 22.55 144.57 22.56 144.56 22.57 144.56 22.59 144.56 22.57 144.56 22.57 144.57 22.56 144.57 22.55 144.57 22.54 144.57"/>
<path d="M 22.53 144.58 22.52 144.58 22.52 144.57 22.53 144.57 22.53 144.58"/>
<path d="M 19.91 144.22 19.91 144.21 19.9 144.21 19.89 144.2 19.9 144.2 19.91 144.2 19.91 144.21 19.92 144.21 19.93 144.21 19.94 144.21 19.95 144.21 19.95 144.2 19.96 144.2 19.97 144.2 19.97 144.19 19.98 144.19 19.99 144.19 19.99 144.18 20 144.18 20.02 144.18 20.01 144.18 20.02 144.18 20.02 144.17 20.03 144.17 20.04 144.17 20.05 144.17 20.06 144.17 20.07 144.17 20.08 144.16 20.09 144.16 20.09 144.17 20.08 144.17 20.08 144.18 20.09 144.18 20.08 144.18 20.09 144.18 20.09 144.19 20.1 144.19 20.11 144.18 20.12 144.18 20.13 144.17 20.15 144.17 20.16 144.17 20.16 144.16 20.17 144.16 20.19 144.16 20.19 144.17 20.18 144.17 20.18 144.18 20.17 144.18 20.17 144.19 20.16 144.19 20.15 144.19 20.13 144.19 20.11 144.19 20.11 144.2 20.09 144.2 20.08 144.2 20.07 144.2 20.06 144.2 20.05 144.2 20.05 144.21 20.03 144.21 20.02 144.2 20.02 144.21 20.01 144.22 20 144.22 19.99 144.22 19.98 144.22 19.97 144.23 19.96 144.23 19.95 144.23 19.94 144.23 19.93 144.23 19.94 144.24 19.94 144.25 19.93 144.25 19.93 144.26 19.94 144.26 19.95 144.26 19.95 144.27 19.96 144.27 19.96 144.28 19.97 144.28 19.98 144.28 19.98 144.29 19.99 144.29 20 144.3 20.01 144.3 20.02 144.3 20.02 144.31 20.03 144.31 20.04 144.31 20.05 144.32 20.06 144.32 20.07 144.32 20.08 144.32 20.09 144.33 20.1 144.33 20.11 144.33 20.1 144.33 20.1 144.34 20.11 144.34 20.11 144.35 20.12 144.35 20.12 144.36 20.11 144.36 20.12 144.37 20.12 144.38 20.13 144.38 20.13 144.39 20.12 144.38 20.12 144.39 20.12 144.4 20.13 144.4 20.13 144.41 20.14 144.4 20.14 144.41 20.15 144.41 20.15 144.42 20.16 144.42 20.17 144.42 20.18 144.43 20.19 144.43 20.2 144.43 20.2 144.44 20.21 144.43 20.22 144.43 20.21 144.44 20.22 144.44 20.24 144.44 20.25 144.44 20.25 144.45 20.26 144.45 20.27 144.45 20.28 144.46 20.29 144.46 20.3 144.46 20.31 144.46 20.32 144.46 20.32 144.47 20.31 144.47 20.31 144.48 20.32 144.48 20.31 144.48 20.31 144.49 20.3 144.49 20.29 144.49 20.29 144.5 20.28 144.5 20.26 144.5 20.26 144.51 20.27 144.51 20.27 144.52 20.28 144.52 20.28 144.53 20.27 144.53 20.29 144.53 20.29 144.54 20.3 144.54 20.3 144.55 20.31 144.55 20.32 144.55 20.31 144.55 20.31 144.56 20.3 144.56 20.3 144.55 20.29 144.56 20.29 144.57 20.3 144.57 20.3 144.58 20.3 144.59"/>
<path d="M 22.51 144.6 22.51 144.59 22.51 144.6"/>
<path d="M 21.21 144.6 21.2 144.6 21.21 144.6 21.21 144.59 21.21 144.6"/>
<path d="M 22.88 144.6 22.87 144.6 22.88 144.6"/>
<path d="M 22.83 144.6 22.84 144.6 22.83 144.6"/>
<path d="M 22.89 144.6 22.88 144.6 22.89 144.6"/>
<path d="M 21.21 144.6 21.2 144.6 21.21 144.6"/>
<path d="M 22.83 144.64 22.82 144.64 22.83 144.64"/>
<path d="M 20.12 144.71 20.11 144.7 20.12 144.7 20.12 144.71"/>
<path d="M 21.19 144.72 21.18 144.72 21.17 144.72 21.18 144.72 21.18 144.71 21.17 144.7 21.17 144.69 21.18 144.69 21.18 144.68 21.17 144.67 21.18 144.67 21.18 144.66 21.18 144.65 21.19 144.65 21.19 144.64 21.18 144.64 21.19 144.64 21.2 144.63 21.19 144.63 21.2 144.63 21.2 144.62 21.21 144.61 21.2 144.61 21.21 144.61 21.2 144.61 21.2 144.6 21.19 144.6 21.2 144.6 21.2 144.59 21.21 144.59 21.21 144.58 21.21 144.57 21.21 144.56 21.22 144.56 21.22 144.55 21.22 144.54 21.22 144.53 21.23 144.53 21.22 144.53 21.22 144.52 21.21 144.52 21.21 144.51 21.22 144.51 21.21 144.51 21.2 144.5 21.2 144.51 21.19 144.51 21.18 144.51 21.17 144.51 21.16 144.51 21.16 144.5 21.16 144.49 21.15 144.48 21.16 144.48 21.17 144.48 21.18 144.48 21.18 144.47 21.17 144.47 21.17 144.46 21.16 144.46 21.16 144.45 21.16 144.44 21.16 144.43 21.16 144.42 21.16 144.41 21.15 144.41 21.16 144.41 21.15 144.4 21.14 144.4 21.13 144.4 21.13 144.39 21.12 144.39 21.12 144.38 21.13 144.38 21.13 144.37 21.12 144.37 21.11 144.37 21.11 144.36 21.1 144.36 21.09 144.35 21.11 144.35 21.11 144.34 21.12 144.34 21.14 144.34 21.15 144.34 21.15 144.33 21.15 144.34 21.16 144.34 21.15 144.34 21.15 144.35 21.16 144.35 21.16 144.36 21.17 144.36 21.18 144.36 21.19 144.36 21.2 144.36 21.19 144.35 21.19 144.34 21.19 144.33 21.2 144.33 21.19 144.33 21.19 144.34 21.2 144.34 21.22 144.34 21.23 144.34 21.24 144.34 21.24 144.35 21.23 144.35 21.24 144.35 21.23 144.35 21.23 144.36 21.22 144.36 21.21 144.36 21.21 144.37 21.22 144.38 21.22 144.39 21.22 144.4 21.23 144.4 21.24 144.4 21.24 144.41 21.25 144.42 21.25 144.43 21.26 144.43 21.26 144.44 21.26 144.45 21.26 144.46 21.27 144.47 21.28 144.47 21.29 144.47 21.29 144.48 21.3 144.48 21.3 144.49 21.29 144.49 21.29 144.5 21.29 144.51 21.3 144.51 21.3 144.52 21.31 144.52 21.3 144.52 21.31 144.53 21.32 144.53 21.32 144.54 21.31 144.55 21.32 144.55 21.32 144.56 21.33 144.56 21.33 144.57 21.34 144.57 21.34 144.58 21.34 144.59 21.35 144.59 21.35 144.6 21.34 144.6 21.34 144.61 21.33 144.6 21.33 144.61 21.32 144.61 21.31 144.61 21.31 144.62 21.3 144.62 21.3 144.63 21.3 144.64 21.29 144.64 21.3 144.65 21.3 144.66 21.29 144.66 21.28 144.66 21.28 144.67 21.28 144.68 21.27 144.68 21.27 144.69 21.26 144.69 21.25 144.7 21.24 144.7 21.23 144.7 21.23 144.71 21.22 144.71 21.21 144.71 21.21 144.72 21.2 144.72 21.19 144.72"/>
<path d="M 20.15 144.74 20.14 144.74 20.13 144.74 20.13 144.73 20.12 144.73 20.11 144.73 20.1 144.73 20.09 144.73 20.09 144.72 20.11 144.72 20.11 144.71 20.1 144.71 20.09 144.71 20.08 144.71 20.07 144.7 20.08 144.7 20.09 144.7 20.1 144.7 20.1 144.71 20.11 144.71 20.11 144.7 20.12 144.7 20.12 144.69 20.13 144.69 20.13 144.7 20.12 144.7 20.13 144.7 20.13 144.71 20.12 144.71 20.13 144.71 20.14 144.71 20.14 144.72 20.15 144.72 20.15 144.73 20.15 144.74 20.14 144.74 20.15 144.74"/>
<path d="M 20.26 144.78 20.25 144.78 20.26 144.78"/>
<path d="M 20.03 144.62 20.04 144.62 20.05 144.62 20.05 144.63 20.06 144.63 20.06 144.64 20.07 144.64 20.08 144.64 20.08 144.65 20.09 144.65 20.09 144.66 20.1 144.66 20.1 144.67 20.11 144.67 20.12 144.67 20.13 144.68 20.14 144.69 20.15 144.69 20.16 144.69 20.17 144.69 20.18 144.69 20.19 144.69 20.18 144.7 20.2 144.7 20.21 144.7 20.22 144.7 20.22 144.71 20.23 144.71 20.23 144.72 20.24 144.72 20.24 144.73 20.25 144.73 20.25 144.74 20.26 144.74 20.25 144.74 20.26 144.75 20.25 144.75 20.24 144.75 20.25 144.74 20.24 144.74 20.24 144.75 20.23 144.75 20.23 144.76 20.23 144.77 20.24 144.77 20.25 144.78 20.24 144.78 20.23 144.78 20.23 144.77 20.22 144.77 20.21 144.77 20.2 144.77 20.19 144.77 20.18 144.77 20.19 144.77 20.18 144.78 20.19 144.78"/>
<path d="M 20.5 144.8 20.51 144.8 20.5 144.8"/>
<path d="M 20.49 144.81 20.49 144.8 20.49 144.81"/>
<path d="M 21.25 144.81 21.24 144.81 21.25 144.81"/>
<path d="M 23.16 144.81 23.15 144.81 23.16 144.81"/>
<path d="M 20.48 144.88 20.49 144.87 20.5 144.86 20.49 144.86 20.5 144.86 20.5 144.85 20.51 144.85 20.52 144.84 20.52 144.83 20.53 144.83 20.52 144.82 20.51 144.82 20.52 144.82 20.51 144.81 20.5 144.81 20.51 144.81 20.51 144.8 20.52 144.8 20.52 144.81 20.51 144.81 20.52 144.81 20.53 144.81 20.53 144.82 20.54 144.82 20.54 144.83 20.55 144.83 20.56 144.83 20.57 144.83 20.58 144.83 20.59 144.83 20.6 144.82 20.61 144.82 20.64 144.82 20.64 144.81 20.64 144.82 20.65 144.82 20.65 144.81 20.66 144.81 20.67 144.81 20.68 144.81 20.69 144.81 20.7 144.81 20.71 144.81 20.72 144.81 20.73 144.81 20.73 144.82 20.74 144.82 20.74 144.83 20.73 144.83 20.73 144.84 20.74 144.84 20.74 144.85 20.75 144.85 20.76 144.85 20.77 144.85 20.78 144.86 20.79 144.86 20.8 144.86 20.82 144.86 20.83 144.86 20.84 144.86 20.85 144.86 20.86 144.86 20.87 144.85 20.88 144.85 20.89 144.85 20.91 144.85 20.92 144.85 20.92 144.84 20.93 144.84 20.93 144.83 20.94 144.83 20.95 144.83 20.95 144.82 20.96 144.82 20.97 144.82 20.98 144.82 20.99 144.82 20.99 144.83 21 144.83 21.01 144.83 21.01 144.81 21.02 144.81 21.02 144.82 21.02 144.81 21.03 144.81 21.04 144.81 21.05 144.81 21.05 144.8 21.06 144.8 21.06 144.79 21.07 144.79 21.07 144.78 21.08 144.78 21.09 144.78 21.09 144.77 21.1 144.77 21.11 144.77 21.11 144.76 21.12 144.76 21.12 144.75 21.13 144.75 21.12 144.75 21.12 144.74 21.14 144.74 21.15 144.74 21.15 144.73 21.16 144.73 21.15 144.73 21.15 144.72 21.16 144.72 21.16 144.71 21.16 144.7 21.15 144.7 21.15 144.69 21.14 144.69 21.15 144.69 21.14 144.68 21.14 144.67 21.14 144.66 21.14 144.65 21.14 144.64 21.14 144.63 21.15 144.63 21.15 144.61 21.16 144.61 21.17 144.61 21.17 144.6 21.16 144.59 21.16 144.58 21.16 144.57 21.17 144.57 21.16 144.57 21.15 144.57 21.15 144.56 21.16 144.56 21.15 144.56 21.15 144.55 21.14 144.55 21.14 144.54 21.13 144.54 21.12 144.54 21.12 144.53 21.11 144.53 21.11 144.52 21.1 144.52 21.09 144.51 21.1 144.51 21.09 144.5 21.09 144.49 21.09 144.48 21.08 144.48 21.08 144.47 21.07 144.47 21.07 144.46 21.06 144.46 21.06 144.45 21.05 144.45 21.05 144.44 21.05 144.43 21.06 144.43 21.06 144.42 21.06 144.4 21.05 144.4 21.04 144.39 21.04 144.38 21.03 144.37 21.02 144.37 21.01 144.37 21.01 144.36 21 144.36 21 144.35 20.99 144.35 20.99 144.34 20.99 144.33 20.98 144.32 20.98 144.31 20.97 144.31 20.97 144.3 20.96 144.3 20.95 144.3 20.95 144.29 20.94 144.29 20.93 144.28 20.93 144.27 20.94 144.27 20.93 144.26 20.94 144.26 20.95 144.26 20.96 144.26 20.97 144.26 20.98 144.26 20.99 144.27 21 144.27 21.01 144.27 21.02 144.27 21.02 144.28 21.03 144.28 21.05 144.28 21.06 144.29 21.07 144.29 21.08 144.29 21.09 144.29 21.09 144.3 21.1 144.3 21.11 144.3 21.11 144.29 21.12 144.29 21.12 144.28 21.13 144.28 21.14 144.29 21.15 144.29 21.16 144.29 21.16 144.28 21.17 144.28 21.18 144.28 21.2 144.28 21.21 144.28 21.22 144.28 21.23 144.28 21.23 144.27 21.24 144.27 21.25 144.27 21.26 144.27 21.27 144.27 21.28 144.27 21.29 144.27 21.28 144.27 21.28 144.28 21.26 144.28 21.27 144.28 21.27 144.29 21.28 144.29 21.29 144.29 21.29 144.28 21.3 144.28 21.3 144.27 21.31 144.27 21.29 144.27 21.3 144.27 21.32 144.27 21.31 144.26 21.32 144.26 21.32 144.25 21.33 144.26 21.33 144.25 21.34 144.25 21.35 144.25 21.36 144.25 21.36 144.24 21.37 144.24 21.38 144.24 21.39 144.24 21.39 144.23 21.4 144.23 21.39 144.23 21.4 144.23 21.4 144.22 21.41 144.21 21.42 144.21 21.42 144.2 21.43 144.2 21.44 144.2 21.44 144.19 21.45 144.19 21.45 144.18 21.46 144.18 21.47 144.18 21.47 144.17 21.48 144.17 21.48 144.16 21.48 144.15 21.49 144.15 21.49 144.14 21.5 144.14 21.51 144.14 21.52 144.14 21.53 144.13 21.53 144.14 21.54 144.14 21.55 144.14 21.56 144.14 21.57 144.14 21.58 144.14"/>
<path d="M 22.43 144.54 22.42 144.55 22.43 144.55 22.44 144.55 22.45 144.55 22.46 144.55 22.47 144.54 22.48 144.55 22.49 144.55 22.5 144.55 22.5 144.56 22.51 144.56 22.5 144.56 22.5 144.57 22.51 144.57 22.52 144.56 22.52 144.57 22.52 144.56 22.53 144.56 22.55 144.56 22.57 144.56 22.58 144.55 22.58 144.54 22.59 144.54 22.59 144.53 22.6 144.53 22.61 144.53 22.62 144.53 22.62 144.52 22.65 144.52 22.65 144.53 22.66 144.53 22.67 144.53 22.67 144.54 22.68 144.55 22.67 144.56 22.68 144.56 22.7 144.56 22.71 144.56 22.7 144.57 22.71 144.57 22.72 144.57 22.73 144.57 22.73 144.58 22.75 144.58 22.76 144.59 22.77 144.59 22.79 144.59 22.8 144.59 22.81 144.59 22.82 144.59 22.83 144.59 22.82 144.59 22.82 144.58 22.83 144.59 22.85 144.59 22.88 144.59 22.89 144.59 22.9 144.6 22.91 144.6 22.92 144.6 22.92 144.61 22.92 144.62 22.93 144.62 22.93 144.63 22.94 144.64 22.95 144.64 22.95 144.65 22.96 144.65 22.97 144.66 22.98 144.66 22.98 144.67 22.99 144.67 22.99 144.68 22.98 144.68 22.99 144.68 23 144.7 23 144.71 23.01 144.71 23.02 144.71 23.03 144.71 23.06 144.72 23.07 144.72 23.08 144.72 23.08 144.73 23.08 144.74 23.09 144.74 23.09 144.75 23.09 144.76 23.09 144.77 23.1 144.77 23.09 144.77 23.09 144.78 23.1 144.78 23.1 144.79 23.09 144.79 23.1 144.79 23.1 144.8 23.11 144.8 23.11 144.81 23.12 144.81 23.12 144.82 23.13 144.81 23.14 144.81 23.15 144.81 23.15 144.82 23.16 144.82 23.16 144.83 23.17 144.83 23.18 144.83 23.18 144.84 23.19 144.84 23.19 144.85 23.2 144.85 23.2 144.86 23.19 144.86 23.18 144.86 23.18 144.87 23.19 144.88 23.2 144.88 23.21 144.88 23.22 144.88 23.22 144.89 23.23 144.89 23.24 144.89"/>
<path d="M 23.24 144.89 23.25 144.89 23.26 144.89 23.27 144.89 23.27 144.88 23.28 144.88 23.29 144.88 23.3 144.87 23.32 144.88 23.33 144.88 23.34 144.88 23.35 144.87 23.36 144.86 23.37 144.86 23.37 144.85 23.38 144.85 23.38 144.84 23.38 144.83 23.39 144.83 23.39 144.82 23.4 144.81 23.4 144.8 23.41 144.8 23.42 144.8 23.42 144.79 23.44 144.79 23.44 144.78 23.45 144.78 23.47 144.78 23.49 144.77 23.5 144.77 23.51 144.77 23.51 144.78 23.51 144.77 23.52 144.77 23.54 144.77 23.55 144.77 23.56 144.77 23.56 144.78 23.57 144.78 23.57 144.79 23.57 144.8 23.58 144.8 23.59 144.8 23.59 144.79 23.6 144.79 23.61 144.79 23.61 144.78 23.62 144.78 23.64 144.78 23.66 144.77 23.66 144.78 23.66 144.79 23.67 144.79 23.67 144.8 23.66 144.8 23.67 144.8 23.68 144.8 23.69 144.81 23.69 144.8 23.7 144.8 23.71 144.79 23.71 144.78 23.72 144.78 23.73 144.78 23.74 144.78 23.75 144.77 23.76 144.77 23.77 144.77 23.78 144.77 23.77 144.77 23.77 144.76 23.78 144.76 23.79 144.76 23.8 144.76 23.8 144.77 23.81 144.77 23.82 144.77 23.83 144.77 23.84 144.77 23.84 144.76 23.85 144.76 23.86 144.76 23.87 144.76 23.88 144.76 23.88 144.75 23.89 144.75 23.89 144.76 23.9 144.76 23.91 144.76 23.92 144.76 23.93 144.76 23.93 144.75 23.94 144.75 23.96 144.75 23.97 144.75 23.96 144.75 23.97 144.75 23.97 144.74 23.99 144.74 24 144.74 24.01 144.73 24.03 144.73 24.04 144.73 24.05 144.73 24.07 144.72 24.08 144.72 24.09 144.71 24.1 144.71 24.11 144.71 24.1 144.71 24.1 144.72 24.11 144.72 24.12 144.73 24.12 144.74 24.13 144.74 24.12 144.74 24.11 144.74 24.1 144.74 24.09 144.74 24.08 144.74 24.09 144.74 24.09 144.75 24.1 144.75 24.11 144.76 24.12 144.76 24.13 144.76 24.11 144.76 24.1 144.76 24.09 144.76 24.08 144.76 24.09 144.75 24.08 144.75 24.08 144.74 24.06 144.74 24.06 144.75 24.05 144.75 24.05 144.76 24.04 144.76 24.04 144.77 24.04 144.76 24.05 144.76 24.05 144.77 24.03 144.77 24.03 144.78 24.02 144.78 24.01 144.78 24 144.78 23.99 144.78 23.98 144.78 23.98 144.79 23.97 144.79 23.96 144.79 23.95 144.79 23.95 144.8 23.95 144.79 23.94 144.79 23.93 144.79 23.91 144.79 23.9 144.79 23.9 144.78 23.9 144.79 23.89 144.79 23.89 144.8 23.88 144.8 23.87 144.8 23.85 144.8 23.83 144.8 23.83 144.81 23.81 144.81 23.81 144.8 23.81 144.81 23.81 144.82 23.81 144.83 23.82 144.83 23.83 144.83 23.83 144.84 23.83 144.85 23.82 144.85 23.81 144.86 23.8 144.86 23.79 144.86 23.78 144.85 23.78 144.84 23.77 144.84 23.76 144.84 23.74 144.84 23.73 144.84 23.72 144.84 23.7 144.85 23.69 144.85 23.69 144.86 23.68 144.86 23.67 144.87 23.66 144.87 23.66 144.86 23.66 144.85 23.66 144.84 23.65 144.84 23.64 144.84 23.64 144.85 23.64 144.84 23.63 144.84 23.63 144.83 23.62 144.83 23.61 144.83 23.6 144.83 23.6 144.82 23.59 144.82 23.58 144.82 23.58 144.81 23.57 144.81 23.56 144.81 23.55 144.81 23.54 144.81 23.55 144.8 23.54 144.8 23.53 144.8 23.52 144.8 23.51 144.8 23.5 144.8 23.49 144.8 23.48 144.8 23.48 144.81 23.47 144.81 23.47 144.8 23.47 144.81 23.46 144.81 23.46 144.82 23.45 144.83 23.44 144.83 23.45 144.83 23.46 144.84 23.47 144.84 23.48 144.85 23.5 144.85 23.52 144.86 23.53 144.86 23.53 144.87 23.52 144.87 23.52 144.88 23.51 144.88 23.49 144.88 23.48 144.88 23.46 144.88 23.46 144.89 23.45 144.89 23.44 144.89 23.43 144.89 23.42 144.89 23.42 144.9 23.41 144.9 23.41 144.89 23.4 144.89 23.39 144.89 23.38 144.89 23.38 144.9 23.37 144.9 23.36 144.9 23.35 144.9 23.35 144.91 23.34 144.91 23.34 144.92 23.33 144.93 23.32 144.93 23.31 144.93 23.32 144.93 23.32 144.92 23.31 144.92 23.31 144.93 23.3 144.93 23.29 144.93 23.28 144.93 23.28 144.94 23.28 144.93 23.27 144.93 23.27 144.94 23.26 144.94 23.27 144.94 23.26 144.94 23.25 144.94 23.24 144.95"/>
<path d="M 23.18 144.95 23.17 144.95 23.17 144.94 23.18 144.95"/>
<path d="M 20.65 144.97 20.64 144.97 20.65 144.97"/>
<path d="M 21 144.98 20.99 144.98 21 144.98"/>
<path d="M 20.72 145.13 20.73 145.13 20.72 145.13 20.72 145.12 20.71 145.12 20.7 145.12 20.7 145.11 20.69 145.11 20.7 145.11 20.69 145.11 20.68 145.11 20.67 145.1 20.66 145.1 20.66 145.09 20.64 145.09 20.64 145.08 20.65 145.08 20.66 145.07 20.65 145.07 20.64 145.07 20.64 145.06 20.66 145.06 20.65 145.06 20.64 145.05 20.63 145.05 20.64 145.05 20.64 145.04 20.65 145.04 20.65 145.03 20.64 145.03 20.63 145.03 20.62 145.03 20.62 145.02 20.62 145.03 20.61 145.03 20.6 145.03 20.59 145.03 20.58 145.03 20.57 145.03 20.56 145.03 20.55 145.03 20.56 145.02 20.55 145.02 20.55 145.01 20.54 145.01 20.54 145 20.55 145 20.55 144.99 20.55 144.98 20.54 144.98 20.55 144.98 20.56 144.98 20.57 144.98 20.57 144.97 20.59 144.97 20.59 144.96 20.6 144.96 20.61 144.96 20.62 144.96 20.63 144.96 20.64 144.96 20.65 144.96 20.65 144.97 20.65 144.96 20.67 144.96 20.69 144.96 20.7 144.96 20.71 144.96 20.72 144.96 20.74 144.96 20.77 144.96 20.76 144.95 20.77 144.95 20.78 144.95 20.79 144.95 20.79 144.94 20.8 144.94 20.81 144.94 20.82 144.94 20.83 144.94 20.84 144.94 20.85 144.94 20.88 144.94 20.88 144.93 20.89 144.94 20.89 144.93 20.9 144.93 20.91 144.93 20.92 144.93 20.93 144.93 20.94 144.93 20.95 144.93 20.95 144.94 20.95 144.95 20.94 144.95 20.95 144.95 20.95 144.96 20.95 144.97 20.95 144.98 20.95 144.99 20.95 145 20.95 145.01 20.94 145.01 20.94 145.02 20.93 145.02 20.92 145.02 20.93 145.02 20.93 145.03 20.94 145.03 20.95 145.03 20.95 145.04 20.96 145.03 20.97 145.03 20.99 145.03 20.98 145.02 20.99 145.02 20.99 145.01 20.98 145.01 20.97 145 20.98 145 20.99 145 20.99 145.01 21 145.01 21 145 21.01 145 21 145 21 144.99 20.99 144.99 20.99 144.98 20.98 144.97 20.99 144.97 20.98 144.97 20.98 144.96 20.99 144.96 20.99 144.95 20.99 144.94 20.99 144.93 21 144.94 21 144.93 21.01 144.93 21.02 144.93 21.04 144.93 21.06 144.93 21.06 144.92 21.07 144.92 21.08 144.92 21.09 144.91 21.1 144.91 21.11 144.9 21.12 144.9 21.13 144.9 21.13 144.89 21.14 144.89 21.15 144.89 21.15 144.9 21.15 144.89 21.16 144.9 21.18 144.9 21.2 144.9 21.22 144.9 21.22 144.91 21.23 144.91 21.23 144.9 21.24 144.89 21.25 144.89 21.27 144.89 21.28 144.89 21.27 144.89 21.26 144.89 21.26 144.88 21.27 144.88 21.28 144.88 21.27 144.88 21.26 144.88 21.25 144.87 21.24 144.87 21.23 144.87 21.23 144.86 21.23 144.85 21.23 144.84 21.23 144.83 21.24 144.82 21.24 144.81 21.24 144.8 21.25 144.8 21.25 144.81 21.26 144.81 21.26 144.8 21.27 144.8 21.27 144.79 21.28 144.79 21.28 144.78 21.29 144.78 21.3 144.78 21.3 144.77 21.29 144.77 21.3 144.77 21.31 144.77 21.31 144.78 21.32 144.78 21.32 144.77 21.33 144.77 21.34 144.76 21.33 144.76 21.34 144.76 21.35 144.75 21.35 144.74 21.36 144.74 21.37 144.74 21.37 144.73 21.37 144.72 21.37 144.73 21.35 144.73 21.34 144.73 21.34 144.72 21.33 144.72 21.33 144.71 21.34 144.71 21.35 144.71 21.35 144.7 21.36 144.7 21.36 144.69 21.37 144.68 21.38 144.67 21.39 144.66 21.4 144.66 21.41 144.66 21.41 144.65 21.42 144.64 21.42 144.65 21.43 144.65 21.44 144.65 21.43 144.64 21.42 144.64 21.42 144.63 21.43 144.63 21.42 144.63 21.43 144.63 21.42 144.62 21.43 144.62 21.44 144.62 21.43 144.62 21.43 144.61 21.44 144.61 21.45 144.61 21.46 144.61 21.46 144.6 21.47 144.6 21.48 144.59 21.49 144.58 21.5 144.58 21.5 144.57 21.51 144.56 21.5 144.56 21.49 144.56 21.48 144.56 21.47 144.56 21.46 144.56 21.45 144.56 21.46 144.55 21.45 144.55 21.44 144.55 21.43 144.55 21.42 144.55 21.41 144.55 21.42 144.54"/>
<path d="M 23.24 144.95 23.23 144.94 23.21 144.94 23.2 144.94 23.21 144.93 23.2 144.93 23.2 144.94 23.19 144.94 23.19 144.95 23.18 144.95 23.18 144.94 23.17 144.94 23.17 144.93 23.16 144.92 23.15 144.92 23.15 144.91 23.14 144.91 23.13 144.91 23.13 144.9 23.13 144.89 23.12 144.89 23.11 144.89 23.11 144.88 23.1 144.88 23.1 144.87 23.09 144.87 23.08 144.87 23.09 144.86 23.09 144.85 23.08 144.85 23.08 144.84 23.06 144.84 23.05 144.84 23.05 144.83 23.05 144.82 23.04 144.82 23.04 144.81 23.04 144.8 23.05 144.8 23.05 144.79 23.04 144.79 23.04 144.78 23.05 144.77 23.04 144.77 23.03 144.77 23.02 144.77 23.02 144.76 23.01 144.76 23 144.76 22.99 144.76 22.99 144.75 22.98 144.75 22.97 144.75 22.96 144.75 22.97 144.74 22.96 144.74 22.96 144.73 22.95 144.73 22.95 144.72 22.95 144.71 22.93 144.71 22.93 144.7 22.93 144.71 22.92 144.7 22.92 144.69 22.91 144.69 22.92 144.69 22.91 144.69 22.91 144.68 22.9 144.67 22.91 144.67 22.91 144.66 22.92 144.66 22.93 144.66 22.92 144.66 22.92 144.65 22.92 144.64 22.91 144.64 22.91 144.63 22.91 144.62 22.92 144.61 22.91 144.61 22.9 144.61 22.89 144.6 22.89 144.61 22.88 144.61 22.87 144.61 22.86 144.61 22.87 144.61 22.87 144.62 22.87 144.63 22.88 144.63 22.89 144.62 22.89 144.63 22.88 144.63 22.89 144.64 22.88 144.64 22.87 144.64 22.86 144.64 22.85 144.64 22.86 144.63 22.85 144.63 22.84 144.63 22.84 144.64 22.83 144.64 22.82 144.64 22.81 144.64 22.8 144.64 22.79 144.64 22.79 144.65 22.78 144.65 22.78 144.66 22.77 144.66 22.77 144.65 22.78 144.64 22.79 144.64 22.79 144.63 22.78 144.63 22.77 144.63 22.77 144.62 22.75 144.62 22.74 144.62 22.73 144.61 22.72 144.61 22.71 144.6 22.7 144.6 22.7 144.59 22.69 144.58 22.68 144.58 22.67 144.58 22.68 144.57 22.67 144.57 22.66 144.57 22.66 144.56 22.66 144.55 22.66 144.54 22.65 144.54 22.65 144.53 22.65 144.54 22.66 144.54 22.66 144.53 22.65 144.53 22.64 144.53 22.63 144.53 22.63 144.54 22.62 144.54 22.62 144.55 22.62 144.56 22.61 144.56 22.61 144.55 22.61 144.56 22.6 144.56 22.6 144.57 22.61 144.57 22.62 144.56 22.62 144.57 22.61 144.57 22.6 144.57 22.6 144.58 22.59 144.58 22.57 144.58 22.57 144.59 22.56 144.59 22.55 144.59 22.54 144.59 22.53 144.59 22.52 144.59 22.51 144.59 22.51 144.58 22.5 144.58 22.5 144.59 22.49 144.59 22.48 144.59 22.47 144.59 22.45 144.59 22.44 144.59 22.43 144.58 22.43 144.59 22.42 144.59 22.41 144.59 22.41 144.6 22.4 144.6 22.4 144.61 22.4 144.62 22.4 144.63 22.41 144.63 22.41 144.64 22.42 144.64 22.43 144.64 22.42 144.65 22.43 144.65 22.44 144.65 22.44 144.66 22.45 144.66 22.44 144.66 22.44 144.67 22.43 144.67 22.43 144.68 22.42 144.69 22.41 144.69 22.41 144.7 22.41 144.71 22.4 144.71 22.4 144.72 22.39 144.72 22.4 144.72 22.41 144.72 22.41 144.73 22.42 144.73 22.41 144.74 22.41 144.75 22.42 144.75 22.42 144.76 22.41 144.76 22.41 144.77 22.41 144.78 22.41 144.79 22.41 144.8 22.4 144.81 22.39 144.81 22.39 144.82 22.39 144.83 22.4 144.83 22.4 144.84 22.4 144.85 22.4 144.86 22.4 144.87 22.39 144.88 22.4 144.88 22.4 144.89 22.4 144.9 22.4 144.91 22.4 144.92 22.39 144.93 22.4 144.93 22.39 144.93 22.39 144.94 22.39 144.95 22.39 144.96 22.39 144.97 22.39 144.99 22.4 144.99 22.4 145 22.4 145.01 22.39 145.01 22.4 145.01 22.4 145.03 22.4 145.04 22.4 145.05 22.41 145.05 22.4 145.06 22.39 145.07 22.4 145.08 22.4 145.09 22.4 145.1 22.39 145.11 22.38 145.11 22.38 145.12 22.37 145.13"/>
<path d="M 23.93 140.66 23.95 140.66 23.96 140.66 23.96 140.65 23.97 140.65 23.98 140.65 23.99 140.65 23.99 140.64 24 140.64 24.01 140.64 24.02 140.64 24.03 140.64 24.04 140.64 24.04 140.63 24.06 140.63 24.09 140.64 24.09 140.63 24.1 140.63 24.11 140.63 24.12 140.63 24.12 140.62 24.12 140.63 24.13 140.63 24.14 140.63 24.15 140.63 24.15 140.64 24.16 140.64 24.17 140.64 24.17 140.63 24.17 140.62 24.18 140.62 24.18 140.61 24.19 140.61 24.2 140.61 24.22 140.61 24.23 140.61 24.23 140.6 24.24 140.6 24.25 140.6 24.26 140.6 24.27 140.6 24.27 140.59 24.28 140.59 24.29 140.59 24.3 140.59 24.31 140.59 24.32 140.59 24.33 140.59 24.33 140.58 24.34 140.58 24.34 140.57 24.35 140.57 24.36 140.57 24.36 140.56 24.36 140.55 24.37 140.55 24.38 140.55 24.39 140.54 24.4 140.53 24.41 140.53 24.41 140.52 24.4 140.52 24.41 140.52 24.42 140.52 24.42 140.51 24.43 140.51 24.44 140.51 24.45 140.5 24.46 140.5 24.47 140.49"/>
<path d="M 24.47 140.49 24.49 140.49 24.5 140.49 24.5 140.48 24.51 140.48 24.53 140.48 24.53 140.47 24.54 140.47 24.55 140.47 24.56 140.47 24.56 140.46 24.57 140.46 24.58 140.46 24.59 140.46 24.6 140.46 24.6 140.45 24.61 140.45 24.62 140.45 24.64 140.45 24.64 140.44 24.65 140.44 24.66 140.45 24.67 140.44 24.68 140.44 24.69 140.44 24.7 140.44 24.7 140.43 24.71 140.43 24.73 140.43 24.76 140.43 24.76 140.42 24.77 140.42 24.78 140.42 24.8 140.42 24.81 140.42 24.82 140.41 24.83 140.41 24.84 140.41 24.85 140.4 24.86 140.4 24.87 140.4 24.87 140.39 24.87 140.38 24.88 140.38 24.89 140.37 24.89 140.36 24.89 140.35 24.9 140.35 24.91 140.34 24.91 140.33 24.92 140.32 24.92 140.31 24.92 140.3 24.92 140.29 24.92 140.27 24.92 140.26 24.92 140.25 24.93 140.25 24.93 140.24 24.93 140.23 24.94 140.23 24.95 140.22 24.96 140.22 24.97 140.22 24.97 140.21 24.98 140.21 24.98 140.22 25 140.22 25.01 140.22 25 140.23 25.02 140.23 25.04 140.23 25.04 140.24 25.06 140.24 25.06 140.25 25.06 140.26 25.05 140.26 25.07 140.26 25.07 140.27 25.08 140.28 25.09 140.28 25.09 140.29 25.09 140.3 25.09 140.32 25.1 140.33 25.09 140.33 25.09 140.34 25.08 140.35 25.09 140.36 25.08 140.36 25.07 140.37 25.07 140.38 25.06 140.4 25.06 140.41 25.05 140.41 25.05 140.42 25.05 140.43 25.05 140.42 25.04 140.42 25.05 140.43 25.04 140.44 25.04 140.45 25.03 140.45 25.02 140.46 25.02 140.47 25.01 140.47 25.01 140.48 25 140.48 24.99 140.48 25 140.48 24.99 140.48 24.99 140.49 24.98 140.49 24.97 140.49 24.97 140.5 24.96 140.5 24.95 140.5 24.94 140.5 24.93 140.51 24.92 140.51 24.91 140.51 24.9 140.51 24.9 140.52 24.87 140.52 24.86 140.52 24.85 140.52 24.85 140.53 24.83 140.53 24.81 140.53 24.79 140.53 24.78 140.53 24.77 140.53 24.76 140.53 24.76 140.54 24.71 140.54 24.68 140.54 24.67 140.55 24.66 140.55 24.65 140.55 24.64 140.55 24.63 140.56 24.62 140.56 24.61 140.56 24.6 140.56 24.6 140.57 24.59 140.57 24.59 140.58 24.58 140.58 24.58 140.59 24.57 140.59 24.56 140.59 24.56 140.6 24.55 140.6 24.55 140.61 24.54 140.61 24.53 140.62 24.52 140.62 24.52 140.63 24.51 140.63 24.51 140.64 24.5 140.64 24.51 140.64 24.51 140.65 24.52 140.65 24.53 140.65 24.53 140.66 24.54 140.66 24.55 140.66 24.55 140.67 24.56 140.67 24.57 140.68 24.58 140.68 24.59 140.68 24.59 140.69 24.6 140.69 24.61 140.69 24.62 140.69 24.63 140.69 24.64 140.69 24.65 140.69 24.66 140.69"/>
<path d="M 24.47 140.98 24.46 140.98 24.46 140.97 24.46 140.96 24.45 140.95 24.44 140.95 24.43 140.94 24.42 140.94 24.41 140.94 24.39 140.94 24.39 140.93 24.38 140.92 24.37 140.92 24.36 140.91 24.35 140.91 24.33 140.91 24.31 140.91 24.3 140.91 24.29 140.91 24.28 140.91 24.27 140.91 24.26 140.91 24.25 140.91 24.24 140.91 24.23 140.91 24.22 140.91 24.21 140.91 24.2 140.91 24.19 140.91 24.18 140.91 24.13 140.91 24.12 140.91 24.11 140.91 24.11 140.92 24.08 140.92 24.07 140.92 24.07 140.91 24.06 140.91 24.05 140.91 24.04 140.91 24.03 140.91 24.02 140.91 24.01 140.91 24 140.91 23.99 140.91 23.98 140.91 23.97 140.91 23.94 140.91 23.93 140.91 23.93 140.9 23.92 140.9 23.91 140.9 23.9 140.9 23.89 140.9 23.88 140.9 23.87 140.9 23.86 140.9 23.85 140.9 23.84 140.9 23.83 140.9 23.82 140.9 23.81 140.9 23.79 140.9 23.78 140.9 23.77 140.9 23.76 140.9 23.73 140.9 23.72 140.9 23.71 140.9 23.69 140.9 23.68 140.9 23.66 140.9 23.66 140.91 23.64 140.91 23.63 140.91 23.62 140.91 23.61 140.91 23.61 140.92 23.61 140.93 23.6 140.93 23.59 140.94 23.59 140.95 23.59 140.96 23.59 140.97 23.6 140.97 23.59 140.98 23.59 140.99 23.58 140.99 23.57 140.99 23.56 141 23.55 141 23.52 141 23.51 140.99 23.5 140.99 23.49 140.99 23.47 140.99 23.46 141 23.45 141 23.44 141 23.43 141 23.42 141 23.41 141 23.4 141.01 23.39 141.01 23.38 141.01 23.37 141.02 23.36 141.02 23.36 141.03 23.35 141.03 23.34 141.03 23.33 141.04 23.33 141.05 23.32 141.05 23.32 141.06 23.32 141.07 23.33 141.07 23.33 141.08 23.34 141.08"/>
</g>
</svg>