<?xml version="1.0"?>
<svg xmlns="http://www.w3.org/2000/svg" version="1.2" baseProfile="tiny" width="800" height="223" viewBox="0 0 800 223" stroke-linecap="round" stroke-linejoin="round">
<g id="cd22" fill="none" stroke="black" stroke-width="0.05">
<path d="M 44.22 119.33 44.21 119.33 44.22 119.33"/>
<path d="M 44.37 119.34 44.37 119.33 44.37 119.34"/>
<path d="M 44.36 119.35 44.37 119.35 44.36 119.35"/>
<path d="M 44.23 119.35 44.22 119.35 44.23 119.35"/>
<path d="M 44.45 119.45 44.44 119.45 44.45 119.45"/>
<path d="M 44.44 119.46 44.45 119.46 44.44 119.46"/>
<path d="M 44.44 119.47 44.44 119.46 44.44 119.47"/>
<path d="M 44.95 119.48 44.95 119.47 44.95 119.48"/>
<path d="M 44.72 119.51 44.72 119.5 44.72 119.49 44.73 119.49 44.73 119.5 44.74 119.5 44.75 119.5 44.74 119.5 44.72 119.5 44.72 119.51"/>
<path d="M 44.76 119.51 44.75 119.51 44.76 119.51"/>
<path d="M 44.44 119.53 44.43 119.53 44.43 119.52 44.44 119.52 44.44 119.53"/>
<path d="M 44.65 119.54 44.64 119.54 44.65 119.54"/>
<path d="M 44.88 119.55 44.88 119.54 44.87 119.54 44.88 119.54 44.88 119.55"/>
<path d="M 44.89 119.59 44.89 119.58 44.89 119.59"/>
<path d="M 44.89 119.63 44.89 119.62 44.89 119.63"/>
<path d="M 44.88 119.64 44.87 119.64 44.87 119.63 44.86 119.63 44.87 119.63 44.88 119.63 44.88 119.64"/>
<path d="M 44.89 119.64 44.88 119.64 44.89 119.64"/>
<path d="M 44.89 119.64 44.9 119.64 44.89 119.64"/>
<path d="M 44.87 119.65 44.87 119.64 44.87 119.65"/>
<path d="M 44.27 119.77 44.27 119.76 44.27 119.77"/>
<path d="M 44.89 119.84 44.9 119.84 44.89 119.84"/>
<path d="M 44.57 119.08 44.56 119.08 44.57 119.08"/>
<path d="M 44.45 119.09 44.44 119.09 44.43 119.09 44.44 119.09 44.45 119.09"/>
<path d="M 44.57 119.1 44.56 119.1 44.56 119.09 44.55 119.09 44.56 119.09 44.57 119.09 44.57 119.1"/>
<path d="M 44.42 119.1 44.41 119.1 44.4 119.1 44.42 119.1"/>
<path d="M 44.48 119.11 44.47 119.11 44.46 119.1 44.47 119.1 44.48 119.1 44.49 119.1 44.48 119.1 44.48 119.11"/>
<path d="M 44.56 119.11 44.55 119.11 44.56 119.11 44.55 119.1 44.57 119.1 44.56 119.1 44.57 119.1 44.56 119.11"/>
<path d="M 44.48 119.11 44.47 119.11 44.48 119.11"/>
<path d="M 44.6 119.11 44.59 119.11 44.6 119.11"/>
<path d="M 44.49 119.12 44.5 119.11 44.49 119.11 44.5 119.11 44.5 119.1 44.51 119.11 44.52 119.11 44.51 119.11 44.5 119.11 44.51 119.11 44.5 119.12 44.49 119.12"/>
<path d="M 44.46 119.12 44.45 119.12 44.45 119.11 44.47 119.11 44.47 119.12 44.46 119.12"/>
<path d="M 44.55 119.12 44.55 119.11 44.54 119.11 44.53 119.11 44.53 119.1 44.54 119.1 44.55 119.11 44.56 119.11 44.56 119.12 44.55 119.12"/>
<path d="M 44.38 119.12 44.36 119.12 44.37 119.12 44.38 119.12"/>
<path d="M 44.35 119.13 44.34 119.13 44.34 119.12 44.35 119.12 44.35 119.13"/>
<path d="M 44.39 119.14 44.39 119.13 44.4 119.13 44.39 119.14"/>
<path d="M 44.64 119.2 44.63 119.2 44.63 119.19 44.64 119.19 44.64 119.2"/>
<path d="M 44.6 119.22 44.6 119.21 44.61 119.21 44.61 119.22 44.6 119.22"/>
<path d="M 44.26 119.22 44.25 119.22 44.25 119.21 44.26 119.21 44.27 119.21 44.27 119.22 44.26 119.22"/>
<path d="M 44.66 119.22 44.65 119.22 44.66 119.22 44.66 119.21 44.65 119.21 44.64 119.21 44.64 119.2 44.65 119.2 44.65 119.21 44.66 119.21 44.67 119.21 44.66 119.22"/>
<path d="M 44.38 119.24 44.37 119.24 44.37 119.23 44.38 119.23 44.38 119.24"/>
<path d="M 44.6 119.24 44.6 119.23 44.59 119.23 44.6 119.23 44.6 119.24"/>
<path d="M 44.62 119.25 44.61 119.24 44.62 119.24 44.62 119.25"/>
<path d="M 44.39 119.25 44.38 119.25 44.39 119.25"/>
<path d="M 44.19 119.26 44.18 119.26 44.19 119.25 44.19 119.26"/>
<path d="M 44.51 119.26 44.5 119.26 44.51 119.26 44.51 119.25 44.51 119.26"/>
<path d="M 44.62 119.26 44.61 119.26 44.61 119.25 44.62 119.25 44.62 119.26"/>
<path d="M 44.5 119.26 44.49 119.26 44.5 119.26"/>
<path d="M 44.36 119.26 44.35 119.26 44.36 119.26 44.35 119.26 44.35 119.25 44.36 119.25 44.38 119.25 44.38 119.26 44.37 119.26 44.36 119.26"/>
<path d="M 44.59 119.26 44.58 119.26 44.6 119.26 44.59 119.26"/>
<path d="M 44.51 119.27 44.49 119.27 44.5 119.27 44.52 119.26 44.52 119.27 44.51 119.27"/>
<path d="M 44.53 119.27 44.52 119.27 44.52 119.26 44.53 119.26 44.53 119.27"/>
<path d="M 44.83 119.27 44.82 119.27 44.83 119.27"/>
<path d="M 44.49 119.28 44.47 119.28 44.49 119.28"/>
<path d="M 44.29 119.28 44.28 119.28 44.29 119.27 44.3 119.27 44.3 119.28 44.29 119.28"/>
<path d="M 44.58 119.28 44.57 119.28 44.57 119.27 44.59 119.27 44.59 119.28 44.58 119.28"/>
<path d="M 44.28 119.29 44.28 119.28 44.28 119.29"/>
<path d="M 44.85 119.29 44.84 119.29 44.83 119.29 44.83 119.28 44.85 119.28 44.85 119.29"/>
<path d="M 44.37 119.29 44.36 119.29 44.37 119.29"/>
<path d="M 44.63 119.29 44.62 119.29 44.63 119.29 44.62 119.29 44.63 119.28 44.64 119.29 44.63 119.29"/>
<path d="M 44.47 119.3 44.46 119.3 44.46 119.29 44.47 119.29 44.47 119.3"/>
<path d="M 44.41 119.3 44.39 119.29 44.39 119.28 44.39 119.29 44.38 119.29 44.38 119.28 44.39 119.28 44.4 119.28 44.41 119.28 44.41 119.29 44.41 119.3"/>
<path d="M 44.75 119.3 44.74 119.3 44.74 119.29 44.75 119.29 44.76 119.3 44.75 119.3"/>
<path d="M 44.28 119.3 44.27 119.3 44.27 119.29 44.28 119.29 44.28 119.3"/>
<path d="M 44.8 119.3 44.79 119.3 44.8 119.3"/>
<path d="M 44.36 119.3 44.35 119.3 44.36 119.3"/>
<path d="M 44.27 119.3 44.26 119.3 44.27 119.3"/>
<path d="M 44.45 119.31 44.44 119.31 44.44 119.3 44.43 119.3 44.42 119.3 44.42 119.29 44.43 119.29 44.43 119.3 44.44 119.3 44.44 119.29 44.45 119.29 44.45 119.3 44.46 119.3 44.45 119.3 44.45 119.31"/>
<path d="M 44.24 119.31 44.23 119.3 44.24 119.3 44.24 119.31"/>
<path d="M 44.36 119.31 44.35 119.31 44.35 119.3 44.36 119.3 44.36 119.31 44.36 119.3 44.37 119.3 44.37 119.31 44.36 119.31"/>
<path d="M 44.47 119.31 44.47 119.3 44.48 119.3 44.49 119.3 44.49 119.29 44.48 119.3 44.48 119.29 44.49 119.29 44.5 119.29 44.5 119.3 44.49 119.3 44.49 119.31 44.48 119.31 44.47 119.31"/>
<path d="M 44.43 119.31 44.42 119.31 44.43 119.31"/>
<path d="M 44.28 119.32 44.28 119.31 44.27 119.31 44.26 119.31 44.25 119.31 44.26 119.31 44.27 119.31 44.28 119.31 44.28 119.32"/>
<path d="M 45 119.32 44.99 119.32 44.98 119.32 45.01 119.32 45 119.32"/>
<path d="M 44.37 119.32 44.36 119.32 44.35 119.32 44.34 119.32 44.34 119.31 44.35 119.31 44.36 119.32 44.36 119.31 44.37 119.31 44.37 119.32 44.38 119.32 44.37 119.32"/>
<path d="M 44.86 119.33 44.86 119.32 44.85 119.32 44.86 119.32 44.86 119.31 44.86 119.32 44.87 119.32 44.86 119.32 44.86 119.33"/>
<path d="M 44.36 119.33 44.35 119.33 44.35 119.32 44.36 119.32 44.36 119.33"/>
<path d="M 44.88 119.33 44.87 119.33 44.88 119.33"/>
<path d="M 44.34 119.33 44.33 119.33 44.34 119.33"/>
<path d="M 44.99 119.33 44.98 119.33 44.98 119.32 44.99 119.32 45 119.33 44.99 119.33"/>
<path d="M 44.3 119.33 44.29 119.33 44.28 119.33 44.28 119.32 44.29 119.32 44.3 119.32 44.3 119.33"/>
<path d="M 44.91 119.33 44.9 119.33 44.88 119.33 44.88 119.32 44.87 119.32 44.87 119.31 44.88 119.3 44.89 119.3 44.89 119.31 44.9 119.31 44.91 119.31 44.91 119.32 44.9 119.32 44.91 119.32 44.91 119.33"/>
<path d="M 44.87 119.33 44.86 119.33 44.87 119.33"/>
<path d="M 44.61 119.33 44.6 119.33 44.61 119.33"/>
<path d="M 44.18 119.34 44.17 119.34 44.17 119.33 44.18 119.33 44.18 119.34"/>
<path d="M 44.41 119.34 44.4 119.34 44.4 119.33 44.39 119.33 44.4 119.32 44.4 119.33 44.41 119.33 44.41 119.34"/>
<path d="M 44.03 119.34 44.03 119.33 44.04 119.33 44.04 119.34 44.03 119.34"/>
<path d="M 44.3 119.34 44.29 119.34 44.28 119.34 44.28 119.33 44.29 119.33 44.3 119.33 44.3 119.34"/>
<path d="M 44.81 119.34 44.8 119.34 44.78 119.34 44.78 119.33 44.8 119.33 44.81 119.34"/>
<path d="M 44.33 119.34 44.32 119.34 44.32 119.33 44.33 119.33 44.33 119.34"/>
<path d="M 44.4 119.35 44.4 119.34 44.4 119.35"/>
<path d="M 44.38 119.35 44.37 119.34 44.36 119.34 44.36 119.33 44.37 119.33 44.38 119.33 44.38 119.34 44.39 119.34 44.38 119.34 44.38 119.35"/>
<path d="M 44.91 119.35 44.9 119.35 44.89 119.35 44.89 119.34 44.9 119.34 44.9 119.35 44.91 119.35"/>
<path d="M 44.53 119.35 44.52 119.35 44.53 119.35"/>
<path d="M 44.36 119.35 44.35 119.35 44.36 119.34 44.37 119.34 44.37 119.35 44.36 119.35"/>
<path d="M 44.28 119.35 44.26 119.35 44.26 119.34 44.26 119.33 44.27 119.33 44.26 119.33 44.27 119.33 44.28 119.33 44.28 119.34 44.29 119.35 44.28 119.35"/>
<path d="M 44.56 119.35 44.55 119.35 44.54 119.35 44.55 119.35 44.56 119.35 44.56 119.34 44.57 119.34 44.58 119.34 44.58 119.35 44.57 119.35 44.56 119.35"/>
<path d="M 44.25 119.36 44.23 119.36 44.23 119.35 44.24 119.35 44.25 119.35 44.25 119.36"/>
<path d="M 44.14 119.36 44.13 119.36 44.13 119.35 44.14 119.35 44.14 119.36"/>
<path d="M 44.33 119.36 44.32 119.36 44.32 119.35 44.33 119.35 44.33 119.36"/>
<path d="M 44.92 119.36 44.91 119.36 44.91 119.35 44.92 119.35 44.93 119.35 44.93 119.36 44.92 119.36"/>
<path d="M 44.36 119.36 44.35 119.36 44.35 119.35 44.36 119.36"/>
<path d="M 44.58 119.36 44.57 119.36 44.58 119.36 44.59 119.36 44.58 119.36"/>
<path d="M 44.06 119.36 44.07 119.36 44.08 119.36 44.09 119.35 44.09 119.36 44.08 119.36 44.07 119.36 44.06 119.36"/>
<path d="M 44.53 119.36 44.52 119.36 44.51 119.36 44.5 119.36 44.5 119.35 44.49 119.35 44.51 119.35 44.52 119.35 44.53 119.36"/>
<path d="M 44.31 119.37 44.3 119.37 44.3 119.36 44.31 119.36 44.31 119.37"/>
<path d="M 44.43 119.37 44.42 119.37 44.42 119.36 44.43 119.36 44.43 119.37"/>
<path d="M 44.05 119.37 44.04 119.37 44.04 119.36 44.05 119.36 44.05 119.37"/>
<path d="M 44.1 119.37 44.09 119.37 44.09 119.36 44.1 119.36 44.1 119.37"/>
<path d="M 44.19 119.37 44.19 119.36 44.18 119.36 44.17 119.36 44.18 119.35 44.17 119.35 44.18 119.35 44.17 119.35 44.16 119.35 44.16 119.34 44.17 119.34 44.18 119.34 44.18 119.33 44.2 119.33 44.2 119.32 44.21 119.32 44.22 119.33 44.23 119.33 44.22 119.34 44.21 119.34 44.22 119.34 44.23 119.34 44.23 119.35 44.22 119.35 44.21 119.35 44.21 119.36 44.2 119.36 44.2 119.37 44.19 119.37"/>
<path d="M 44.01 119.37 43.99 119.37 44 119.37 44.01 119.37"/>
<path d="M 44.48 119.38 44.48 119.37 44.47 119.37 44.48 119.37 44.49 119.37 44.48 119.38"/>
<path d="M 44.93 119.38 44.92 119.38 44.93 119.37 44.93 119.38"/>
<path d="M 44.83 119.38 44.82 119.38 44.82 119.37 44.83 119.37 44.84 119.37 44.84 119.38 44.83 119.38"/>
<path d="M 44.1 119.39 44.09 119.39 44.09 119.38 44.1 119.38 44.11 119.38 44.12 119.38 44.12 119.37 44.11 119.37 44.11 119.36 44.12 119.36 44.13 119.37 44.13 119.38 44.12 119.38 44.13 119.38 44.12 119.38 44.12 119.39 44.1 119.39"/>
<path d="M 44.07 119.39 44.06 119.39 44.07 119.39"/>
<path d="M 43.99 119.4 44 119.4 44 119.39 44.02 119.39 44.02 119.4 44.01 119.4 44 119.4 43.99 119.4"/>
<path d="M 44.16 119.41 44.16 119.4 44.15 119.4 44.16 119.4 44.17 119.4 44.17 119.41 44.16 119.41"/>
<path d="M 44.41 119.41 44.4 119.41 44.41 119.41"/>
<path d="M 44.99 119.41 44.98 119.41 44.98 119.4 44.99 119.4 45 119.4 45 119.41 44.99 119.41"/>
<path d="M 44.62 119.41 44.61 119.41 44.6 119.41 44.6 119.4 44.61 119.4 44.62 119.4 44.63 119.4 44.63 119.41 44.62 119.41"/>
<path d="M 44.06 119.41 44.07 119.41 44.07 119.4 44.08 119.4 44.09 119.4 44.1 119.41 44.08 119.41 44.07 119.41 44.06 119.41"/>
<path d="M 44.88 119.41 44.86 119.41 44.87 119.41 44.88 119.41"/>
<path d="M 44 119.42 44 119.41 44.01 119.41 44.02 119.41 44.01 119.41 44.01 119.42 44 119.42"/>
<path d="M 44.54 119.42 44.54 119.41 44.55 119.41 44.56 119.41 44.57 119.41 44.56 119.42 44.54 119.42"/>
<path d="M 44.1 119.42 44.09 119.42 44.09 119.41 44.1 119.41 44.1 119.42"/>
<path d="M 44.68 119.42 44.69 119.42 44.7 119.41 44.69 119.41 44.7 119.41 44.71 119.41 44.72 119.41 44.73 119.41 44.74 119.41 44.74 119.42 44.73 119.42 44.72 119.42 44.71 119.42 44.7 119.42 44.69 119.42 44.68 119.42"/>
<path d="M 44.1 119.42 44.11 119.42 44.11 119.41 44.12 119.41 44.13 119.41 44.13 119.42 44.12 119.42 44.11 119.42 44.1 119.42"/>
<path d="M 44.41 119.43 44.41 119.42 44.42 119.42 44.42 119.41 44.43 119.41 44.44 119.41 44.45 119.41 44.46 119.41 44.47 119.41 44.48 119.41 44.47 119.42 44.46 119.42 44.45 119.42 44.42 119.42 44.41 119.42 44.41 119.43"/>
<path d="M 44.37 119.43 44.36 119.43 44.36 119.42 44.37 119.42 44.38 119.42 44.39 119.42 44.38 119.42 44.37 119.42 44.37 119.43"/>
<path d="M 44.39 119.43 44.38 119.43 44.39 119.43"/>
<path d="M 44.01 119.43 44 119.43 44.01 119.43 44.02 119.43 44.01 119.43"/>
<path d="M 44.74 119.44 44.73 119.43 44.74 119.43 44.75 119.42 44.75 119.43 44.74 119.44"/>
<path d="M 44.24 119.44 44.22 119.44 44.22 119.43 44.21 119.42 44.22 119.42 44.22 119.43 44.22 119.42 44.23 119.42 44.24 119.42 44.24 119.41 44.25 119.41 44.25 119.42 44.24 119.43 44.24 119.44"/>
<path d="M 44.56 119.44 44.56 119.43 44.55 119.44 44.54 119.44 44.54 119.43 44.56 119.43 44.57 119.43 44.57 119.42 44.58 119.42 44.59 119.43 44.58 119.43 44.58 119.44 44.56 119.44"/>
<path d="M 44.22 119.44 44.21 119.44 44.22 119.44"/>
<path d="M 44.16 119.44 44.15 119.44 44.14 119.44 44.15 119.44 44.16 119.44"/>
<path d="M 44.34 119.45 44.3 119.44 44.31 119.44 44.31 119.43 44.32 119.43 44.33 119.42 44.34 119.42 44.35 119.43 44.35 119.44 44.34 119.44 44.34 119.45"/>
<path d="M 44.25 119.45 44.25 119.44 44.25 119.45"/>
<path d="M 44.21 119.45 44.2 119.45 44.2 119.44 44.21 119.44 44.21 119.45"/>
<path d="M 44.65 119.45 44.65 119.44 44.66 119.44 44.66 119.43 44.68 119.43 44.69 119.43 44.69 119.44 44.68 119.44 44.67 119.44 44.66 119.45 44.65 119.45"/>
<path d="M 44.93 119.45 44.92 119.45 44.91 119.45 44.92 119.44 44.93 119.44 44.93 119.45"/>
<path d="M 44.83 119.45 44.82 119.45 44.81 119.45 44.8 119.45 44.79 119.45 44.79 119.44 44.78 119.44 44.79 119.43 44.79 119.44 44.8 119.44 44.81 119.44 44.8 119.44 44.8 119.43 44.81 119.43 44.81 119.44 44.82 119.44 44.82 119.43 44.83 119.43 44.84 119.43 44.86 119.42 44.86 119.43 44.87 119.43 44.87 119.44 44.86 119.44 44.85 119.44 44.85 119.45 44.84 119.45 44.83 119.45"/>
<path d="M 44.07 119.45 44.06 119.45 44.07 119.45 44.08 119.44 44.08 119.45 44.07 119.45"/>
<path d="M 44.01 119.45 44.02 119.45 44.02 119.44 44.03 119.44 44.04 119.44 44.05 119.44 44.05 119.45 44.04 119.45 44.03 119.45 44.02 119.45 44.01 119.45"/>
<path d="M 44.9 119.46 44.89 119.46 44.88 119.46 44.87 119.46 44.87 119.45 44.88 119.45 44.9 119.45 44.9 119.46"/>
<path d="M 44.22 119.46 44.22 119.45 44.23 119.45 44.24 119.45 44.25 119.46 44.24 119.46 44.23 119.46 44.22 119.46"/>
<path d="M 44.55 119.46 44.54 119.46 44.54 119.45 44.55 119.45 44.57 119.45 44.58 119.45 44.59 119.45 44.59 119.46 44.57 119.46 44.56 119.46 44.55 119.46"/>
<path d="M 44.02 119.46 44.03 119.46 44.03 119.45 44.04 119.45 44.04 119.46 44.02 119.46"/>
<path d="M 44.14 119.47 44.13 119.46 44.13 119.45 44.15 119.45 44.15 119.46 44.14 119.46 44.15 119.46 44.15 119.45 44.16 119.45 44.16 119.46 44.16 119.47 44.15 119.47 44.14 119.47"/>
<path d="M 44.69 119.47 44.68 119.47 44.67 119.47 44.68 119.47 44.68 119.46 44.68 119.47 44.69 119.47"/>
<path d="M 44.03 119.48 44.03 119.47 44.02 119.47 44.03 119.47 44.04 119.47 44.03 119.48"/>
<path d="M 44.36 119.48 44.35 119.48 44.34 119.48 44.33 119.48 44.32 119.48 44.32 119.47 44.33 119.47 44.34 119.46 44.35 119.46 44.35 119.45 44.36 119.45 44.37 119.45 44.38 119.45 44.38 119.44 44.39 119.44 44.4 119.45 44.4 119.44 44.41 119.44 44.42 119.44 44.44 119.44 44.45 119.45 44.46 119.44 44.45 119.44 44.46 119.44 44.46 119.43 44.47 119.43 44.48 119.43 44.49 119.43 44.51 119.43 44.51 119.42 44.53 119.42 44.53 119.44 44.53 119.45 44.52 119.45 44.52 119.46 44.51 119.46 44.5 119.46 44.49 119.46 44.48 119.46 44.47 119.46 44.46 119.46 44.45 119.46 44.45 119.47 44.44 119.47 44.43 119.47 44.42 119.47 44.41 119.47 44.41 119.48 44.4 119.48 44.39 119.47 44.4 119.46 44.4 119.45 44.39 119.45 44.37 119.46 44.38 119.46 44.39 119.47 44.38 119.47 44.37 119.47 44.37 119.48 44.36 119.47 44.36 119.48"/>
<path d="M 44.96 119.48 44.95 119.48 44.94 119.48 44.93 119.48 44.93 119.47 44.92 119.47 44.93 119.47 44.92 119.47 44.93 119.46 44.94 119.46 44.95 119.46 44.96 119.46 44.97 119.47 44.97 119.48 44.98 119.48 44.97 119.48 44.96 119.48"/>
<path d="M 45 119.48 44.99 119.48 45 119.48"/>
<path d="M 44.06 119.49 44.05 119.49 44.05 119.48 44.06 119.48 44.06 119.49"/>
<path d="M 44.21 119.49 44.19 119.49 44.21 119.49"/>
<path d="M 43.99 119.5 44 119.49 43.99 119.49 44.01 119.49 44.02 119.49 44.03 119.49 44.02 119.5 44.01 119.5 43.99 119.5"/>
<path d="M 44.38 119.5 44.37 119.5 44.37 119.49 44.39 119.49 44.4 119.49 44.4 119.5 44.38 119.5"/>
<path d="M 44.92 119.5 44.91 119.5 44.92 119.5"/>
<path d="M 45.01 119.5 44.99 119.5 44.98 119.5 44.97 119.5 44.98 119.5 44.97 119.5 44.97 119.49 44.98 119.49 44.98 119.5 44.98 119.49 44.99 119.49 45 119.5 45.01 119.5 45.02 119.5 45.01 119.5"/>
<path d="M 44.96 119.5 44.95 119.5 44.96 119.5 44.97 119.5 44.96 119.5"/>
<path d="M 44.02 119.51 44 119.51 44 119.5 44.01 119.5 44.02 119.5 44.02 119.51"/>
<path d="M 44.08 119.51 44.07 119.51 44.06 119.51 44.07 119.51 44.07 119.5 44.08 119.5 44.08 119.51"/>
<path d="M 44.86 119.52 44.85 119.52 44.85 119.51 44.86 119.51 44.86 119.52"/>
<path d="M 44.11 119.52 44.09 119.52 44.09 119.51 44.09 119.5 44.11 119.5 44.11 119.51 44.11 119.52"/>
<path d="M 44.6 119.52 44.59 119.51 44.59 119.5 44.6 119.5 44.61 119.5 44.6 119.5 44.6 119.49 44.61 119.49 44.62 119.49 44.62 119.5 44.62 119.51 44.61 119.51 44.62 119.51 44.61 119.52 44.6 119.52"/>
<path d="M 44.19 119.53 44.18 119.53 44.18 119.52 44.19 119.52 44.2 119.52 44.21 119.52 44.21 119.51 44.21 119.52 44.22 119.52 44.21 119.52 44.22 119.52 44.21 119.53 44.2 119.53 44.19 119.53 44.19 119.52 44.19 119.53"/>
<path d="M 44.32 119.53 44.31 119.53 44.3 119.53 44.3 119.52 44.31 119.51 44.31 119.52 44.31 119.51 44.3 119.51 44.29 119.52 44.28 119.52 44.28 119.53 44.27 119.53 44.25 119.53 44.25 119.52 44.24 119.52 44.25 119.51 44.26 119.51 44.27 119.51 44.28 119.51 44.29 119.51 44.3 119.51 44.31 119.5 44.32 119.49 44.34 119.5 44.35 119.5 44.35 119.51 44.36 119.51 44.35 119.51 44.35 119.52 44.35 119.51 44.34 119.51 44.34 119.52 44.33 119.53 44.32 119.53"/>
<path d="M 44.22 119.53 44.21 119.53 44.22 119.53"/>
<path d="M 44.55 119.53 44.54 119.52 44.55 119.52 44.56 119.52 44.56 119.51 44.55 119.51 44.54 119.51 44.55 119.51 44.55 119.5 44.56 119.5 44.57 119.5 44.58 119.5 44.58 119.51 44.57 119.51 44.58 119.51 44.58 119.52 44.57 119.52 44.57 119.53 44.56 119.53 44.55 119.53"/>
<path d="M 44.59 119.53 44.58 119.53 44.57 119.53 44.59 119.53"/>
<path d="M 44.66 119.53 44.65 119.53 44.66 119.53"/>
<path d="M 44.71 119.53 44.69 119.53 44.67 119.53 44.67 119.52 44.66 119.52 44.66 119.51 44.65 119.51 44.65 119.5 44.64 119.5 44.64 119.49 44.65 119.48 44.66 119.48 44.67 119.48 44.68 119.48 44.69 119.48 44.69 119.49 44.68 119.5 44.67 119.5 44.68 119.5 44.69 119.5 44.7 119.5 44.7 119.51 44.71 119.5 44.7 119.5 44.71 119.5 44.71 119.49 44.7 119.49 44.7 119.48 44.71 119.48 44.71 119.47 44.72 119.47 44.73 119.47 44.74 119.47 44.75 119.47 44.76 119.46 44.77 119.47 44.78 119.48 44.77 119.48 44.78 119.48 44.77 119.48 44.77 119.49 44.78 119.49 44.77 119.5 44.77 119.51 44.78 119.51 44.78 119.5 44.79 119.5 44.8 119.5 44.8 119.49 44.81 119.49 44.81 119.48 44.83 119.48 44.83 119.47 44.84 119.47 44.85 119.47 44.86 119.47 44.87 119.47 44.88 119.47 44.89 119.48 44.88 119.49 44.87 119.49 44.87 119.5 44.88 119.49 44.89 119.49 44.9 119.49 44.9 119.48 44.91 119.48 44.92 119.49 44.91 119.5 44.9 119.5 44.89 119.5 44.87 119.5 44.86 119.5 44.85 119.5 44.85 119.51 44.84 119.51 44.83 119.51 44.83 119.52 44.82 119.52 44.81 119.53 44.8 119.53 44.79 119.53 44.78 119.53 44.78 119.52 44.77 119.52 44.76 119.52 44.75 119.52 44.74 119.52 44.73 119.52 44.73 119.51 44.72 119.51 44.73 119.52 44.72 119.52 44.74 119.52 44.73 119.53 44.72 119.53 44.71 119.53"/>
<path d="M 44.76 119.54 44.77 119.54 44.77 119.53 44.76 119.53 44.77 119.53 44.78 119.53 44.79 119.53 44.79 119.54 44.76 119.54"/>
<path d="M 44.02 119.55 44.02 119.54 44.02 119.55"/>
<path d="M 44.76 119.55 44.75 119.55 44.75 119.54 44.76 119.54 44.76 119.55"/>
<path d="M 44.57 119.55 44.56 119.55 44.55 119.54 44.56 119.54 44.57 119.54 44.58 119.54 44.59 119.54 44.58 119.54 44.57 119.55"/>
<path d="M 44.96 119.55 44.93 119.55 44.92 119.55 44.92 119.54 44.91 119.54 44.9 119.54 44.9 119.55 44.89 119.55 44.88 119.55 44.87 119.55 44.86 119.54 44.87 119.54 44.86 119.54 44.85 119.54 44.84 119.54 44.85 119.54 44.87 119.53 44.9 119.53 44.91 119.53 44.91 119.54 44.91 119.53 44.92 119.53 44.94 119.54 44.95 119.54 44.96 119.55"/>
<path d="M 44.25 119.55 44.25 119.54 44.26 119.54 44.27 119.54 44.28 119.54 44.29 119.54 44.29 119.55 44.27 119.55 44.25 119.55"/>
<path d="M 44.18 119.55 44.17 119.55 44.17 119.54 44.18 119.55"/>
<path d="M 44.97 119.55 44.98 119.55 44.99 119.55 44.98 119.55 44.97 119.55"/>
<path d="M 44.53 119.56 44.52 119.56 44.51 119.56 44.5 119.56 44.5 119.55 44.51 119.55 44.52 119.55 44.53 119.54 44.54 119.54 44.54 119.55 44.53 119.55 44.54 119.55 44.54 119.56 44.55 119.56 44.54 119.56 44.53 119.56"/>
<path d="M 44.85 119.56 44.84 119.56 44.85 119.56"/>
<path d="M 44.95 119.57 44.95 119.56 44.94 119.56 44.95 119.56 44.95 119.57"/>
<path d="M 44.04 119.57 44.04 119.56 44.03 119.56 44.02 119.56 44.02 119.55 44.03 119.55 44.03 119.56 44.04 119.56 44.04 119.57 44.05 119.57 44.04 119.57"/>
<path d="M 44.37 119.57 44.36 119.57 44.35 119.57 44.35 119.56 44.34 119.56 44.33 119.56 44.32 119.56 44.33 119.57 44.32 119.57 44.31 119.57 44.3 119.57 44.29 119.57 44.28 119.57 44.29 119.56 44.3 119.56 44.3 119.55 44.31 119.55 44.32 119.54 44.33 119.54 44.34 119.54 44.35 119.53 44.36 119.53 44.37 119.53 44.38 119.53 44.39 119.53 44.4 119.53 44.41 119.53 44.41 119.54 44.42 119.54 44.42 119.53 44.43 119.53 44.44 119.53 44.45 119.53 44.48 119.53 44.47 119.53 44.46 119.53 44.45 119.53 44.44 119.53 44.43 119.53 44.42 119.53 44.42 119.52 44.4 119.52 44.39 119.52 44.39 119.51 44.4 119.51 44.41 119.51 44.42 119.51 44.44 119.51 44.44 119.5 44.44 119.49 44.45 119.49 44.45 119.48 44.48 119.48 44.49 119.48 44.5 119.48 44.51 119.48 44.51 119.49 44.52 119.49 44.51 119.49 44.51 119.5 44.52 119.5 44.52 119.51 44.51 119.51 44.5 119.51 44.5 119.52 44.51 119.53 44.5 119.53 44.49 119.53 44.48 119.53 44.48 119.54 44.5 119.54 44.49 119.54 44.48 119.54 44.47 119.54 44.47 119.55 44.46 119.55 44.45 119.55 44.44 119.55 44.43 119.55 44.42 119.55 44.43 119.55 44.43 119.56 44.42 119.56 44.41 119.56 44.4 119.56 44.41 119.55 44.4 119.55 44.4 119.54 44.39 119.54 44.39 119.55 44.38 119.55 44.39 119.55 44.38 119.56 44.37 119.56 44.38 119.56 44.38 119.57 44.37 119.57"/>
<path d="M 44.02 119.57 44 119.57 44 119.56 44 119.57 43.98 119.57 43.98 119.56 43.99 119.56 44 119.56 44.01 119.56 44 119.56 43.99 119.56 43.99 119.55 43.98 119.55 43.99 119.55 44 119.55 44.01 119.55 44.01 119.56 44.02 119.56 44.02 119.57"/>
<path d="M 44.14 119.57 44.13 119.57 44.12 119.57 44.12 119.56 44.13 119.56 44.14 119.56 44.15 119.56 44.15 119.57 44.14 119.57"/>
<path d="M 44.23 119.57 44.22 119.58 44.21 119.57 44.2 119.57 44.21 119.57 44.21 119.56 44.23 119.56 44.24 119.57 44.23 119.57"/>
<path d="M 44.31 119.59 44.3 119.59 44.29 119.59 44.28 119.59 44.27 119.59 44.27 119.58 44.28 119.58 44.28 119.59 44.28 119.58 44.29 119.58 44.3 119.58 44.33 119.58 44.34 119.58 44.34 119.59 44.33 119.58 44.31 119.58 44.31 119.59"/>
<path d="M 44.01 119.59 44 119.59 44 119.58 44.01 119.58 44.02 119.58 44.02 119.59 44.01 119.59"/>
<path d="M 44.21 119.59 44.2 119.59 44.21 119.59"/>
<path d="M 44.24 119.6 44.23 119.6 44.23 119.59 44.22 119.59 44.22 119.58 44.23 119.58 44.24 119.58 44.25 119.58 44.26 119.58 44.25 119.58 44.25 119.59 44.24 119.58 44.23 119.58 44.23 119.59 44.24 119.59 44.24 119.6"/>
<path d="M 44.47 119.6 44.44 119.6 44.45 119.6 44.46 119.59 44.47 119.59 44.47 119.6"/>
<path d="M 44.89 119.6 44.88 119.6 44.89 119.6"/>
<path d="M 44.51 119.61 44.51 119.6 44.5 119.6 44.51 119.6 44.52 119.6 44.52 119.59 44.51 119.59 44.5 119.59 44.5 119.58 44.51 119.58 44.52 119.58 44.52 119.57 44.53 119.57 44.55 119.57 44.55 119.58 44.55 119.59 44.54 119.59 44.54 119.6 44.53 119.6 44.53 119.61 44.52 119.61 44.51 119.61"/>
<path d="M 44.82 119.61 44.82 119.6 44.84 119.6 44.84 119.61 44.82 119.61"/>
<path d="M 44.95 119.61 44.92 119.61 44.92 119.6 44.93 119.6 44.93 119.59 44.92 119.59 44.91 119.6 44.92 119.59 44.92 119.58 44.91 119.58 44.91 119.59 44.9 119.59 44.89 119.59 44.87 119.59 44.86 119.59 44.85 119.59 44.85 119.58 44.84 119.58 44.84 119.57 44.85 119.57 44.86 119.57 44.88 119.57 44.91 119.57 44.92 119.57 44.92 119.58 44.93 119.58 44.94 119.58 44.95 119.58 44.96 119.57 44.97 119.57 44.98 119.57 44.99 119.57 44.98 119.58 44.99 119.59 44.99 119.6 44.98 119.6 44.97 119.6 44.97 119.61 44.96 119.61 44.95 119.61"/>
<path d="M 44.71 119.61 44.72 119.61 44.72 119.6 44.73 119.61 44.72 119.61 44.71 119.61"/>
<path d="M 44.89 119.61 44.88 119.61 44.89 119.61"/>
<path d="M 44.64 119.61 44.63 119.61 44.62 119.61 44.63 119.61 44.62 119.61 44.62 119.6 44.63 119.59 44.64 119.59 44.64 119.58 44.65 119.59 44.66 119.59 44.66 119.58 44.67 119.58 44.66 119.58 44.64 119.58 44.63 119.58 44.62 119.58 44.61 119.58 44.61 119.59 44.6 119.59 44.59 119.58 44.59 119.57 44.58 119.56 44.59 119.56 44.6 119.56 44.61 119.56 44.62 119.56 44.63 119.55 44.65 119.55 44.64 119.55 44.63 119.55 44.62 119.55 44.61 119.55 44.61 119.56 44.6 119.56 44.58 119.56 44.59 119.56 44.59 119.55 44.59 119.54 44.6 119.54 44.61 119.54 44.61 119.53 44.61 119.54 44.62 119.54 44.63 119.53 44.63 119.54 44.64 119.54 44.65 119.54 44.66 119.54 44.67 119.54 44.68 119.54 44.69 119.54 44.7 119.54 44.71 119.54 44.72 119.54 44.72 119.55 44.71 119.55 44.72 119.55 44.72 119.56 44.71 119.57 44.7 119.57 44.7 119.58 44.67 119.58 44.68 119.58 44.69 119.58 44.69 119.59 44.7 119.59 44.7 119.58 44.7 119.59 44.69 119.59 44.68 119.59 44.68 119.6 44.67 119.61 44.66 119.61 44.65 119.61 44.64 119.61"/>
<path d="M 44.7 119.63 44.69 119.63 44.69 119.62 44.7 119.62 44.71 119.62 44.7 119.62 44.7 119.63"/>
<path d="M 44.19 119.63 44.18 119.63 44.19 119.63 44.19 119.62 44.2 119.62 44.21 119.62 44.22 119.62 44.21 119.62 44.21 119.63 44.19 119.63"/>
<path d="M 44.02 119.63 44.01 119.63 44.02 119.63 44.02 119.62 44.01 119.61 44 119.61 43.99 119.61 44 119.61 44 119.6 44.01 119.6 44.02 119.59 44.03 119.59 44.03 119.6 44.03 119.59 44.04 119.59 44.04 119.6 44.05 119.6 44.06 119.6 44.06 119.61 44.06 119.62 44.05 119.62 44.04 119.62 44.04 119.63 44.03 119.63 44.02 119.63"/>
<path d="M 44.44 119.63 44.43 119.63 44.44 119.63"/>
<path d="M 44.69 119.63 44.68 119.63 44.67 119.63 44.68 119.63 44.69 119.63"/>
<path d="M 44.45 119.64 44.44 119.64 44.45 119.63 44.46 119.63 44.46 119.64 44.45 119.64"/>
<path d="M 44.82 119.64 44.81 119.64 44.81 119.63 44.82 119.63 44.82 119.64"/>
<path d="M 44.47 119.65 44.46 119.65 44.46 119.64 44.46 119.63 44.47 119.63 44.47 119.64 44.48 119.64 44.48 119.65 44.47 119.65"/>
<path d="M 44.01 119.65 43.99 119.64 43.98 119.64 43.98 119.63 43.99 119.62 44 119.62 44.01 119.62 44.01 119.63 44 119.63 44.01 119.63 44.02 119.64 44.01 119.64 44.02 119.64 44.03 119.64 44.02 119.64 44.02 119.65 44.01 119.65"/>
<path d="M 44.87 119.66 44.87 119.65 44.86 119.65 44.85 119.65 44.84 119.65 44.84 119.64 44.83 119.64 44.83 119.63 44.84 119.63 44.84 119.64 44.85 119.64 44.86 119.64 44.87 119.64 44.86 119.63 44.85 119.63 44.83 119.63 44.83 119.62 44.84 119.62 44.85 119.63 44.86 119.63 44.86 119.62 44.85 119.62 44.85 119.61 44.86 119.61 44.87 119.61 44.88 119.61 44.88 119.62 44.9 119.61 44.91 119.61 44.91 119.62 44.9 119.62 44.89 119.62 44.9 119.62 44.91 119.63 44.91 119.64 44.9 119.64 44.9 119.65 44.89 119.65 44.88 119.65 44.88 119.66 44.87 119.66"/>
<path d="M 44.03 119.66 44.02 119.66 44.01 119.66 44.02 119.66 44.02 119.65 44.03 119.65 44.04 119.65 44.04 119.66 44.03 119.66"/>
<path d="M 44.86 119.67 44.86 119.66 44.85 119.66 44.85 119.67 44.85 119.66 44.84 119.66 44.85 119.66 44.86 119.66 44.87 119.65 44.87 119.66 44.87 119.67 44.86 119.67"/>
<path d="M 44.46 119.68 44.45 119.68 44.45 119.67 44.46 119.67 44.46 119.68"/>
<path d="M 44.03 119.68 44.04 119.68 44.04 119.67 44.05 119.67 44.05 119.68 44.04 119.68 44.03 119.68"/>
<path d="M 44.78 119.68 44.77 119.68 44.76 119.68 44.76 119.67 44.75 119.67 44.75 119.66 44.76 119.66 44.76 119.65 44.77 119.65 44.77 119.64 44.78 119.64 44.79 119.64 44.79 119.65 44.81 119.65 44.82 119.65 44.82 119.66 44.82 119.65 44.84 119.65 44.84 119.66 44.83 119.66 44.82 119.66 44.83 119.66 44.83 119.67 44.82 119.68 44.81 119.68 44.8 119.68 44.78 119.68"/>
<path d="M 44.42 119.69 44.4 119.69 44.4 119.68 44.41 119.68 44.42 119.69"/>
<path d="M 44.76 119.69 44.75 119.69 44.74 119.68 44.76 119.68 44.76 119.69"/>
<path d="M 44.5 119.69 44.48 119.69 44.49 119.69 44.49 119.68 44.5 119.68 44.5 119.69"/>
<path d="M 44.64 119.69 44.63 119.68 44.64 119.68 44.65 119.67 44.64 119.67 44.66 119.67 44.67 119.67 44.66 119.68 44.66 119.69 44.64 119.69"/>
<path d="M 44.02 119.69 44 119.69 44.01 119.69 44.02 119.69"/>
<path d="M 44.46 119.69 44.45 119.69 44.46 119.69"/>
<path d="M 44.32 119.69 44.3 119.69 44.29 119.69 44.29 119.68 44.31 119.68 44.31 119.69 44.32 119.69"/>
<path d="M 44.29 119.7 44.28 119.7 44.29 119.7"/>
<path d="M 44.12 119.7 44.1 119.7 44.11 119.7 44.12 119.7"/>
<path d="M 44.67 119.71 44.67 119.7 44.68 119.7 44.69 119.7 44.7 119.7 44.7 119.71 44.69 119.71 44.68 119.71 44.67 119.71"/>
<path d="M 44.46 119.71 44.45 119.71 44.44 119.71 44.45 119.71 44.45 119.7 44.46 119.7 44.47 119.7 44.47 119.71 44.46 119.71"/>
<path d="M 44.3 119.73 44.29 119.73 44.29 119.72 44.3 119.72 44.3 119.73"/>
<path d="M 44.32 119.73 44.31 119.73 44.32 119.73"/>
<path d="M 44.31 119.73 44.3 119.73 44.31 119.73"/>
<path d="M 44.03 119.74 44.02 119.74 44.02 119.73 44.03 119.73 44.03 119.74"/>
<path d="M 44.4 119.74 44.39 119.74 44.39 119.73 44.4 119.73 44.39 119.73 44.38 119.73 44.37 119.73 44.38 119.73 44.38 119.72 44.39 119.72 44.38 119.72 44.39 119.72 44.4 119.72 44.41 119.72 44.41 119.73 44.43 119.73 44.43 119.74 44.42 119.73 44.41 119.73 44.4 119.73 44.41 119.74 44.4 119.74"/>
<path d="M 44.17 119.75 44.16 119.75 44.16 119.74 44.17 119.74 44.17 119.75"/>
<path d="M 44.29 119.75 44.27 119.75 44.27 119.74 44.28 119.74 44.29 119.74 44.29 119.75"/>
<path d="M 44.15 119.75 44.14 119.75 44.15 119.74 44.15 119.75"/>
<path d="M 44.1 119.75 44.08 119.75 44.09 119.75 44.09 119.74 44.1 119.74 44.11 119.74 44.11 119.75 44.1 119.75"/>
<path d="M 44.4 119.76 44.38 119.76 44.38 119.75 44.37 119.75 44.38 119.75 44.39 119.74 44.39 119.75 44.4 119.76"/>
<path d="M 44.13 119.76 44.12 119.76 44.12 119.75 44.13 119.75 44.13 119.76"/>
<path d="M 44.07 119.77 44.06 119.77 44.07 119.76 44.08 119.76 44.08 119.77 44.07 119.77"/>
<path d="M 44.26 119.77 44.26 119.76 44.27 119.76 44.28 119.76 44.29 119.76 44.29 119.77 44.27 119.77 44.26 119.77"/>
<path d="M 44.33 119.77 44.32 119.77 44.31 119.77 44.32 119.77 44.33 119.77 44.33 119.76 44.34 119.76 44.35 119.76 44.36 119.75 44.35 119.75 44.34 119.75 44.35 119.75 44.35 119.74 44.36 119.74 44.37 119.75 44.36 119.75 44.37 119.75 44.36 119.75 44.36 119.76 44.35 119.76 44.35 119.77 44.34 119.77 44.33 119.77 44.34 119.77 44.33 119.77"/>
<path d="M 44.27 119.78 44.26 119.78 44.27 119.78"/>
<path d="M 44.26 119.78 44.25 119.78 44.26 119.78"/>
<path d="M 44.16 119.78 44.15 119.78 44.14 119.78 44.16 119.78"/>
<path d="M 44.23 119.79 44.22 119.78 44.23 119.78 44.24 119.78 44.23 119.78 44.24 119.78 44.24 119.79 44.23 119.79"/>
<path d="M 44.14 119.8 44.13 119.8 44.14 119.8"/>
<path d="M 44.11 119.81 44.1 119.81 44.1 119.8 44.11 119.8 44.11 119.79 44.12 119.79 44.12 119.8 44.13 119.8 44.12 119.8 44.11 119.8 44.11 119.81"/>
<path d="M 44.09 119.81 44.09 119.8 44.1 119.8 44.1 119.81 44.09 119.81"/>
<path d="M 44.95 119.84 44.94 119.84 44.93 119.84 44.93 119.83 44.94 119.82 44.95 119.82 44.95 119.83 44.95 119.84"/>
<path d="M 45 119.84 44.99 119.84 45 119.84"/>
<path d="M 44.87 119.85 44.86 119.85 44.87 119.85 44.87 119.84 44.87 119.83 44.88 119.83 44.89 119.84 44.89 119.83 44.9 119.82 44.92 119.82 44.92 119.83 44.93 119.83 44.93 119.84 44.92 119.84 44.92 119.85 44.91 119.85 44.9 119.85 44.9 119.84 44.89 119.85 44.88 119.85 44.87 119.85"/>
<path d="M 44.18 119.86 44.17 119.86 44.19 119.86 44.18 119.86"/>
<path d="M 44.87 119.86 44.86 119.86 44.87 119.86"/>
<path d="M 44.91 119.87 44.9 119.87 44.91 119.87 44.91 119.86 44.91 119.87"/>
<path d="M 44.95 119.88 44.96 119.87 44.97 119.86 44.98 119.86 44.99 119.86 44.99 119.87 44.98 119.87 44.97 119.87 44.96 119.87 44.95 119.88"/>
<path d="M 44.9 119.88 44.88 119.88 44.88 119.87 44.89 119.87 44.9 119.87 44.9 119.88"/>
<path d="M 44.98 119.89 44.97 119.89 44.99 119.89 44.98 119.89"/>
<path d="M 44.87 119.89 44.86 119.89 44.86 119.88 44.88 119.88 44.88 119.89 44.87 119.89"/>
<path d="M 44.96 119.9 44.94 119.9 44.94 119.89 44.95 119.89 44.96 119.89 44.96 119.9"/>
<path d="M 44.95 119.92 44.94 119.92 44.94 119.91 44.93 119.92 44.91 119.92 44.91 119.91 44.92 119.91 44.93 119.9 44.95 119.9 44.96 119.9 44.97 119.9 44.96 119.9 44.96 119.89 44.97 119.89 44.97 119.9 44.96 119.9 44.96 119.91 44.95 119.91 44.94 119.91 44.95 119.91 44.95 119.92"/>
<path d="M 44.97 119.92 44.96 119.92 44.96 119.91 44.97 119.91 44.98 119.91 44.99 119.9 45 119.9 45 119.91 44.99 119.91 44.98 119.91 44.97 119.91 44.97 119.92"/>
<path d="M 44.62 119.93 44.62 119.92 44.62 119.93"/>
<path d="M 44.83 119.93 44.82 119.93 44.82 119.92 44.83 119.92 44.83 119.93"/>
<path d="M 44.7 119.93 44.69 119.93 44.68 119.93 44.7 119.92 44.7 119.93"/>
<path d="M 44.98 119.94 44.97 119.94 44.97 119.93 44.98 119.93 44.98 119.94"/>
<path d="M 44.59 119.94 44.58 119.94 44.59 119.93 44.6 119.92 44.6 119.93 44.61 119.93 44.59 119.94"/>
<path d="M 44.55 119.95 44.55 119.94 44.55 119.95"/>
<path d="M 44.56 119.95 44.55 119.95 44.56 119.95"/>
<path d="M 44.46 119.97 44.45 119.97 44.44 119.97 44.43 119.97 44.44 119.96 44.45 119.96 44.46 119.97"/>
<path d="M 44.54 119.97 44.53 119.97 44.54 119.97"/>
<path d="M 44.46 119.97 44.45 119.97 44.46 119.97"/>
<path d="M 44.55 119.99 44.54 119.99 44.55 119.99"/>
<path d="M 44.64 120 44.63 120 44.63 119.99 44.64 119.99 44.65 119.98 44.66 119.98 44.66 119.99 44.65 119.99 44.66 119.99 44.67 119.99 44.67 120 44.66 120 44.65 120 44.64 120"/>
</g>
</svg>