<?xml version="1.0"?>
<svg xmlns="http://www.w3.org/2000/svg" version="1.2" baseProfile="tiny" width="800" height="223" viewBox="0 0 800 223" stroke-linecap="round" stroke-linejoin="round">
<g id="cd22" fill="none" stroke="black" stroke-width="0.05">
<path d="M 21.93 135.46 21.92 135.46 21.92 135.45 21.93 135.45 21.94 135.45 21.93 135.45 21.93 135.46"/>
<path d="M 21.71 135.56 21.7 135.56 21.68 135.56 21.66 135.56 21.65 135.56 21.65 135.55 21.65 135.54 21.65 135.53 21.66 135.52 21.67 135.52 21.67 135.51 21.68 135.51 21.69 135.51 21.7 135.51 21.7 135.5 21.71 135.5 21.71 135.49 21.72 135.49 21.73 135.49 21.74 135.49 21.74 135.48 21.75 135.48 21.76 135.48 21.77 135.48 21.79 135.47 21.8 135.47 21.82 135.47 21.83 135.47 21.84 135.46 21.85 135.46 21.85 135.47 21.85 135.46 21.86 135.46 21.87 135.46 21.88 135.46 21.88 135.45 21.89 135.45 21.9 135.45 21.9 135.44 21.91 135.44 21.91 135.43 21.92 135.43 21.92 135.42 21.91 135.42 21.91 135.43 21.9 135.43 21.89 135.43 21.88 135.43 21.87 135.43 21.87 135.42 21.87 135.41 21.88 135.41 21.88 135.4 21.89 135.4 21.88 135.4 21.88 135.39 21.88 135.38 21.89 135.38 21.9 135.38 21.9 135.37 21.91 135.37 21.92 135.37 21.93 135.36 21.94 135.36 21.95 135.35 21.96 135.35 21.97 135.35 21.98 135.35 21.98 135.34 22 135.34 22.02 135.34 22.02 135.33 22.03 135.33 22.04 135.33 22.05 135.33 22.06 135.33 22.06 135.32 22.09 135.32 22.11 135.32 22.12 135.32 22.14 135.32 22.15 135.32 22.16 135.32 22.17 135.32 22.18 135.32 22.19 135.32 22.2 135.32 22.2 135.31 22.21 135.31 22.22 135.31 22.23 135.31 22.24 135.31 22.25 135.31 22.26 135.3 22.27 135.3 22.28 135.3 22.29 135.31 22.3 135.31 22.32 135.31 22.32 135.3 22.33 135.3 22.34 135.3 22.35 135.3 22.36 135.3 22.37 135.3 22.38 135.3 22.39 135.3 22.41 135.3 22.43 135.3 22.44 135.3 22.44 135.31 22.45 135.3 22.46 135.3 22.46 135.29 22.46 135.28 22.45 135.28 22.46 135.28 22.46 135.27 22.47 135.27 22.48 135.27 22.5 135.27 22.51 135.27 22.52 135.26 22.53 135.26 22.55 135.26 22.56 135.26 22.57 135.26 22.58 135.26 22.59 135.26 22.6 135.26 22.61 135.26 22.62 135.27 22.63 135.27 22.64 135.27 22.66 135.27 22.67 135.27 22.69 135.27 22.71 135.26 22.73 135.25 22.74 135.25 22.75 135.25 22.74 135.25 22.74 135.24 22.73 135.24 22.72 135.24 22.71 135.24 22.7 135.24 22.69 135.24 22.68 135.24 22.66 135.24 22.64 135.24 22.63 135.23 22.62 135.23 22.58 135.23 22.57 135.23 22.57 135.22 22.56 135.22 22.55 135.22 22.54 135.22 22.53 135.21 22.52 135.21 22.51 135.21 22.48 135.2 22.47 135.2 22.46 135.2 22.45 135.2 22.44 135.2 22.42 135.19 22.41 135.19 22.4 135.19 22.4 135.18 22.39 135.18 22.39 135.17 22.38 135.17 22.37 135.16 22.37 135.15 22.36 135.15 22.36 135.13 22.35 135.13 22.34 135.12 22.34 135.11 22.33 135.11 22.32 135.11 22.32 135.1 22.31 135.1 22.31 135.09 22.3 135.09 22.29 135.08 22.28 135.08 22.28 135.07 22.27 135.07 22.27 135.06 22.26 135.06 22.26 135.05 22.25 135.05 22.25 135.04 22.24 135.04 22.24 135.03 22.24 135.02"/>
<path d="M 24.23 135.89 24.22 135.89 24.22 135.9 24.21 135.9 24.21 135.91 24.21 135.92 24.2 135.92 24.2 135.93 24.19 135.93 24.2 135.93 24.19 135.93 24.19 135.94 24.18 135.95 24.17 135.95 24.17 135.96 24.16 135.96 24.15 135.97 24.15 135.98 24.14 135.98 24.13 135.99 24.13 136 24.14 136 24.13 136 24.12 136.01 24.11 136.01 24.1 136.01 24.09 136.02 24.1 136.02 24.08 136.02 24.08 136.03 24.07 136.03 24.07 136.04 24.05 136.04 24.04 136.04 24.04 136.05 24.03 136.05 24.03 136.06 24.03 136.07 24.02 136.07 24.01 136.07 24 136.07 24 136.06 23.99 136.06 24 136.06 24.01 136.06 24.01 136.05 24.02 136.05 24.02 136.04 24.01 136.04 23.99 136.04 23.98 136.04 23.96 136.04 23.96 136.05 23.95 136.05 23.96 136.05 23.96 136.06 23.97 136.06 23.96 136.06 23.96 136.07 23.95 136.07 23.94 136.07 23.93 136.07 23.93 136.08 23.94 136.08 23.95 136.08 23.95 136.07 23.96 136.07 23.97 136.07 23.97 136.06 23.99 136.06 23.99 136.07 24 136.07 23.99 136.07 23.98 136.07 23.98 136.08 23.97 136.08 23.96 136.08 23.94 136.08 23.94 136.09 23.93 136.09 23.92 136.09 23.91 136.1 23.9 136.1 23.89 136.1 23.89 136.11 23.9 136.11 23.89 136.11 23.88 136.11 23.88 136.12 23.87 136.12 23.86 136.12 23.86 136.13 23.87 136.13 23.87 136.14 23.86 136.15 23.85 136.15 23.85 136.16 23.86 136.16 23.86 136.17 23.85 136.18 23.84 136.18 23.84 136.19 23.83 136.19 23.82 136.18 23.81 136.19 23.81 136.18 23.8 136.18 23.8 136.19 23.79 136.19 23.78 136.2 23.78 136.19 23.77 136.19 23.77 136.18 23.78 136.18 23.78 136.17 23.8 136.17 23.81 136.17 23.81 136.16 23.81 136.17 23.82 136.17 23.82 136.16 23.83 136.16 23.84 136.15 23.84 136.14 23.83 136.14 23.83 136.13 23.82 136.13 23.81 136.13 23.81 136.12 23.8 136.12 23.79 136.12 23.79 136.11 23.78 136.11 23.77 136.1 23.76 136.1 23.76 136.09 23.77 136.09 23.78 136.08 23.79 136.08 23.79 136.07 23.8 136.07 23.81 136.06 23.8 136.06 23.81 136.06 23.82 136.06 23.83 136.06 23.84 136.06 23.84 136.05 23.84 136.04 23.85 136.03 23.85 136.02 23.86 136.02 23.87 136.02 23.87 136.01 23.88 136.01 23.88 136.02 23.88 136.01 23.89 136.01 23.89 136 23.89 135.99 23.9 135.99 23.91 135.99 23.91 135.98 23.93 135.98 23.94 135.98 23.95 135.97 23.96 135.97 23.96 135.96 23.97 135.96 23.98 135.96 23.98 135.95 23.99 135.95 24 135.94 24 135.93 24.01 135.93"/>
<path d="M 20.01 137.36 20 137.36 20 137.35 20.01 137.35 20.02 137.35 20.02 137.36 20.01 137.36"/>
<path d="M 22.3 137.89 22.29 137.89 22.28 137.88 22.27 137.88 22.28 137.88 22.29 137.88 22.29 137.89 22.3 137.89"/>
<path d="M 22.21 137.95 22.22 137.95 22.21 137.95"/>
<path d="M 22.23 137.95 22.22 137.95 22.23 137.95 22.24 137.95 22.23 137.95"/>
<path d="M 22.28 137.95 22.27 137.95 22.28 137.95"/>
<path d="M 22.25 137.96 22.24 137.96 22.24 137.95 22.25 137.95 22.25 137.96"/>
<path d="M 21.79 138.12 21.79 138.11 21.79 138.1 21.81 138.1 21.81 138.11 21.8 138.12 21.79 138.12"/>
<path d="M 21.84 138.13 21.83 138.13 21.84 138.13"/>
<path d="M 20.4 138.13 20.39 138.13 20.4 138.13"/>
<path d="M 22.94 138.19 22.93 138.19 22.93 138.18 22.94 138.18 22.94 138.19"/>
<path d="M 21.41 138.26 21.41 138.25 21.42 138.25 21.43 138.25 21.44 138.25 21.45 138.25 21.45 138.24 21.46 138.24 21.47 138.24 21.46 138.24 21.47 138.24 21.48 138.23 21.49 138.24 21.5 138.24 21.52 138.24 21.52 138.23 21.53 138.23 21.54 138.23 21.55 138.22 21.56 138.22 21.57 138.22 21.57 138.21 21.58 138.21 21.59 138.21 21.59 138.2 21.58 138.2 21.58 138.19 21.59 138.18 21.59 138.17 21.58 138.17 21.58 138.16 21.56 138.16 21.57 138.15 21.58 138.14 21.59 138.14 21.59 138.13 21.6 138.13 21.61 138.13 21.61 138.12 21.63 138.12 21.64 138.12 21.65 138.11 21.66 138.11 21.67 138.11 21.68 138.11 21.7 138.11 21.71 138.11 21.72 138.11 21.72 138.1 21.73 138.1 21.74 138.1 21.75 138.1 21.74 138.11 21.77 138.11 21.78 138.1 21.79 138.1 21.79 138.09 21.8 138.09 21.8 138.08 21.81 138.08 21.82 138.08 21.82 138.07 21.83 138.07 21.84 138.07 21.85 138.07 21.87 138.07 21.86 138.06 21.87 138.06 21.88 138.06 21.89 138.06 21.89 138.05 21.9 138.05 21.9 138.04 21.91 138.04 21.91 138.03 21.92 138.03 21.93 138.03 21.94 138.03 21.94 138.02 21.95 138.02 21.96 138.02 21.97 138.02 21.98 138.02 21.99 138.02 21.99 138.01 22 138 22.01 138 22.02 138 22.02 137.99 22.03 137.99 22.03 138 22.04 137.99 22.05 137.99 22.07 137.98 22.08 137.98 22.09 137.98 22.09 137.97 22.1 137.97 22.12 137.97 22.13 137.97 22.14 137.97 22.15 137.97 22.16 137.96 22.17 137.96 22.18 137.96 22.2 137.96 22.2 137.95 22.19 137.95 22.2 137.95 22.21 137.95 22.22 137.95 22.23 137.96 22.24 137.96 22.25 137.96 22.26 137.96 22.27 137.96 22.27 137.95 22.26 137.95 22.26 137.94 22.27 137.93 22.27 137.92 22.28 137.92 22.28 137.91 22.28 137.9 22.27 137.89 22.29 137.89 22.29 137.9 22.29 137.91 22.29 137.92 22.28 137.92 22.28 137.93 22.28 137.94 22.27 137.95 22.28 137.94 22.29 137.94 22.3 137.94 22.3 137.93 22.31 137.93 22.31 137.94 22.3 137.94 22.29 137.95 22.28 137.95 22.28 137.96 22.27 137.96 22.27 137.97 22.28 137.97 22.28 137.98 22.29 137.98 22.3 137.98 22.31 137.98 22.33 137.98 22.34 137.98 22.35 137.98 22.38 137.98 22.39 137.98 22.4 137.98 22.41 137.98 22.42 137.98 22.43 137.98 22.44 137.98 22.45 137.98 22.46 137.97 22.49 137.98 22.5 137.98 22.51 137.98 22.52 137.98 22.53 137.98 22.55 137.98 22.56 137.98 22.57 137.98 22.58 137.98 22.59 137.98 22.58 137.98 22.59 137.99 22.6 137.99 22.61 137.99 22.62 137.99 22.64 137.99 22.65 138 22.66 138 22.67 138 22.67 138.01 22.68 138.01 22.7 138.02 22.71 138.02 22.73 138.02 22.74 138.02 22.76 138.02 22.77 138.02 22.78 138.02 22.79 138.03 22.8 138.04 22.81 138.05 22.82 138.04 22.84 138.04 22.85 138.04 22.86 138.04 22.87 138.04 22.88 138.05 22.89 138.05 22.9 138.05 22.91 138.06 22.91 138.07 22.91 138.08 22.92 138.08 22.93 138.08 22.94 138.08 22.95 138.08 22.96 138.08 22.97 138.08 22.98 138.08 22.99 138.09 23 138.09 23.01 138.09 23.01 138.1 23 138.1 23 138.11 23 138.12 23.01 138.12 23 138.12 23 138.13 23.01 138.13 23 138.13 22.99 138.14 22.99 138.15 23 138.14 23 138.15 22.99 138.15 22.99 138.16 22.98 138.16 22.97 138.16 22.96 138.16 22.96 138.17 22.95 138.17 22.95 138.18 22.94 138.18 22.95 138.19 22.96 138.2 22.96 138.21 22.95 138.21 22.94 138.21 22.94 138.22 22.94 138.23 22.95 138.22 22.99 138.23 23 138.23 22.99 138.23 22.99 138.24 23 138.24 23.01 138.24 23.01 138.25 23.02 138.25 23.02 138.26 23.04 138.26 23.04 138.25 23.05 138.25 23.06 138.25 23.07 138.26 23.08 138.26 23.09 138.26 23.09 138.27 23.08 138.27 23.09 138.27 23.09 138.28 23.1 138.28 23.11 138.28 23.12 138.28 23.12 138.29 23.13 138.29 23.14 138.29 23.16 138.29"/>
<path d="M 21.26 138.34 21.25 138.34 21.25 138.33 21.26 138.33 21.27 138.33 21.27 138.34 21.26 138.34"/>
<path d="M 23.25 138.36 23.23 138.35 23.22 138.35 23.23 138.35 23.24 138.35 23.25 138.35 23.25 138.36"/>
<path d="M 19.44 138.1 19.45 138.1 19.46 138.1 19.47 138.1 19.49 138.1 19.5 138.1 19.51 138.1 19.52 138.1 19.53 138.1 19.54 138.09 19.55 138.09 19.56 138.09 19.57 138.09 19.59 138.09 19.6 138.1 19.61 138.1 19.61 138.09 19.61 138.1 19.62 138.1 19.62 138.09 19.63 138.09 19.64 138.09 19.65 138.09 19.66 138.09 19.67 138.08 19.68 138.08 19.7 138.09 19.69 138.09 19.7 138.09 19.71 138.09 19.72 138.09 19.72 138.08 19.74 138.09 19.75 138.09 19.76 138.09 19.76 138.08 19.78 138.08 19.79 138.08 19.8 138.08 19.81 138.08 19.82 138.08 19.83 138.09 19.84 138.09 19.85 138.09 19.85 138.08 19.86 138.09 19.88 138.09 19.89 138.08 19.9 138.09 19.9 138.08 19.91 138.08 19.92 138.08 19.93 138.08 19.95 138.09 19.97 138.09 19.98 138.09 19.99 138.09 20 138.09 20.01 138.09 20.02 138.09 20.03 138.09 20.04 138.09 20.04 138.1 20.04 138.09 20.05 138.09 20.05 138.1 20.06 138.1 20.07 138.1 20.08 138.1 20.1 138.1 20.12 138.1 20.12 138.09 20.13 138.09 20.14 138.09 20.15 138.09 20.16 138.1 20.17 138.1 20.18 138.1 20.19 138.1 20.2 138.1 20.2 138.09 20.21 138.09 20.22 138.09 20.22 138.1 20.23 138.1 20.25 138.1 20.26 138.1 20.27 138.09 20.28 138.09 20.27 138.09 20.27 138.08 20.28 138.08 20.28 138.07 20.29 138.07 20.3 138.07 20.31 138.06 20.32 138.06 20.35 138.05 20.36 138.05 20.38 138.05 20.38 138.06 20.39 138.06 20.4 138.06 20.42 138.06 20.43 138.06 20.44 138.06 20.44 138.05 20.46 138.05 20.47 138.05 20.49 138.05 20.51 138.05 20.52 138.05 20.52 138.04 20.53 138.05 20.54 138.05 20.55 138.05 20.56 138.05 20.57 138.05 20.57 138.06 20.56 138.06 20.56 138.07 20.57 138.07 20.56 138.07 20.55 138.07 20.54 138.07 20.51 138.07 20.49 138.07 20.47 138.07 20.47 138.08 20.45 138.08 20.44 138.08 20.43 138.08 20.41 138.08 20.41 138.09 20.4 138.09 20.41 138.09 20.43 138.1 20.44 138.09 20.45 138.09 20.46 138.09 20.47 138.09 20.48 138.09 20.5 138.09 20.5 138.1 20.51 138.1 20.52 138.1 20.52 138.11 20.51 138.11 20.52 138.11 20.52 138.12 20.51 138.12 20.5 138.12 20.49 138.12 20.48 138.13 20.47 138.13 20.46 138.13 20.45 138.13 20.44 138.13 20.43 138.13 20.42 138.13 20.41 138.13 20.4 138.13 20.39 138.13 20.38 138.13 20.37 138.13 20.36 138.13 20.35 138.13 20.34 138.13 20.34 138.12 20.33 138.12 20.32 138.12 20.32 138.13 20.31 138.13 20.32 138.13 20.31 138.14 20.32 138.14 20.32 138.15 20.31 138.15 20.32 138.15 20.32 138.16 20.32 138.17 20.34 138.17 20.34 138.18 20.36 138.18 20.36 138.19 20.36 138.2 20.37 138.2 20.38 138.2 20.38 138.21 20.38 138.22 20.39 138.22 20.38 138.23 20.37 138.24 20.37 138.25 20.36 138.24 20.36 138.25 20.35 138.25 20.34 138.26 20.33 138.26 20.31 138.26 20.3 138.26 20.29 138.26 20.29 138.25 20.28 138.25 20.28 138.24 20.27 138.24 20.27 138.23 20.26 138.23 20.26 138.22 20.25 138.22 20.24 138.22 20.22 138.22 20.21 138.22 20.2 138.22 20.18 138.22 20.16 138.22 20.14 138.22 20.13 138.22 20.11 138.22 20.11 138.23 20.1 138.23 20.1 138.24 20.11 138.24 20.1 138.24 20.1 138.25 20.11 138.25 20.11 138.24 20.11 138.25 20.12 138.25 20.12 138.26 20.13 138.26 20.13 138.27 20.14 138.27 20.14 138.28 20.13 138.28 20.13 138.29 20.12 138.28 20.11 138.28 20.1 138.28 20.09 138.28 20.09 138.29 20.1 138.29 20.11 138.3 20.12 138.3 20.15 138.3 20.16 138.3 20.16 138.31 20.17 138.31 20.17 138.3 20.18 138.3 20.19 138.3 20.2 138.3 20.2 138.29 20.21 138.29 20.22 138.28 20.23 138.28 20.24 138.28 20.24 138.29 20.25 138.29 20.26 138.29 20.27 138.29 20.28 138.29 20.28 138.3 20.29 138.3 20.3 138.3 20.3 138.31 20.31 138.31 20.3 138.31 20.3 138.32 20.29 138.32 20.29 138.33 20.3 138.33 20.31 138.33 20.32 138.33 20.33 138.33 20.33 138.34 20.34 138.34 20.35 138.34 20.36 138.34 20.36 138.35 20.38 138.35 20.39 138.36 20.4 138.36"/>
<path d="M 20.4 138.36 20.41 138.36 20.42 138.36 20.43 138.36 20.44 138.36 20.45 138.36 20.45 138.35 20.46 138.35 20.48 138.35 20.49 138.35 20.52 138.35 20.53 138.35 20.54 138.35 20.56 138.35 20.57 138.35 20.58 138.35 20.59 138.36 20.59 138.35 20.6 138.35 20.63 138.35 20.64 138.35 20.65 138.35 20.66 138.35 20.67 138.34 20.68 138.34 20.69 138.34 20.7 138.34 20.7 138.35 20.71 138.35 20.72 138.35 20.71 138.36 20.72 138.36 20.74 138.36 20.75 138.36 20.76 138.36 20.77 138.36 20.78 138.36 20.79 138.36 20.8 138.35 20.81 138.35 20.82 138.35 20.83 138.34 20.84 138.34 20.84 138.33 20.83 138.33 20.82 138.32 20.83 138.32 20.85 138.32 20.86 138.32 20.86 138.31 20.87 138.31 20.86 138.31 20.87 138.31 20.87 138.3 20.88 138.3 20.89 138.3 20.89 138.29 20.9 138.29 20.93 138.29 20.94 138.29 20.95 138.28 20.96 138.28 20.97 138.29 20.98 138.29 20.99 138.29 21 138.29 21 138.3 21.01 138.3 21.02 138.3 21.03 138.3 21.03 138.31 21.04 138.31 21.04 138.3 21.04 138.31 21.05 138.31 21.06 138.3 21.07 138.3 21.08 138.3 21.09 138.3 21.1 138.3 21.11 138.3 21.12 138.3 21.12 138.29 21.13 138.29 21.14 138.29 21.15 138.29 21.16 138.29 21.17 138.28 21.18 138.28 21.18 138.27 21.19 138.27 21.2 138.27 21.22 138.27 21.23 138.27 21.24 138.27 21.24 138.28 21.25 138.28 21.26 138.28 21.27 138.28 21.28 138.28 21.3 138.27 21.31 138.27 21.32 138.27 21.33 138.27 21.35 138.27 21.35 138.26 21.38 138.26 21.39 138.26 21.4 138.26 21.41 138.26"/>
<path d="M 21.2 138.37 21.2 138.36 21.19 138.36 21.19 138.35 21.2 138.35 21.21 138.35 21.22 138.35 21.22 138.36 21.21 138.36 21.2 138.36 21.21 138.36 21.2 138.36 21.2 138.37"/>
<path d="M 23.26 138.37 23.25 138.37 23.25 138.36 23.26 138.36 23.26 138.37"/>
<path d="M 21.23 138.37 21.22 138.37 21.22 138.36 21.23 138.36 21.23 138.37"/>
<path d="M 23.27 138.39 23.26 138.39 23.26 138.38 23.26 138.37 23.27 138.37 23.27 138.38 23.27 138.39"/>
<path d="M 20.71 138.4 20.71 138.39 20.72 138.39 20.71 138.4"/>
<path d="M 20.57 138.41 20.57 138.4 20.57 138.41"/>
<path d="M 20.79 138.42 20.78 138.42 20.77 138.42 20.76 138.42 20.75 138.42 20.74 138.42 20.71 138.42 20.7 138.42 20.69 138.41 20.68 138.41 20.67 138.41 20.66 138.41 20.63 138.41 20.62 138.41 20.6 138.41 20.59 138.41 20.61 138.41 20.63 138.41 20.64 138.4 20.66 138.4 20.67 138.4 20.67 138.39 20.69 138.39 20.72 138.39 20.72 138.4 20.73 138.4 20.74 138.4 20.77 138.4 20.78 138.4 20.79 138.41 20.8 138.41 20.8 138.42 20.79 138.42"/>
<path d="M 23.16 138.29 23.17 138.29 23.18 138.29 23.2 138.29 23.2 138.3 23.21 138.3 23.22 138.3 23.23 138.3 23.24 138.31 23.23 138.31 23.23 138.32 23.21 138.32 23.2 138.32 23.19 138.32 23.18 138.32 23.17 138.32 23.16 138.32 23.15 138.32 23.15 138.33 23.14 138.34 23.15 138.34 23.17 138.35 23.18 138.35 23.19 138.35 23.21 138.35 23.22 138.35 23.22 138.36 23.2 138.36 23.18 138.35 23.16 138.35 23.15 138.35 23.14 138.35 23.13 138.34 23.12 138.34 23.12 138.33 23.11 138.33 23.1 138.33 23.09 138.32 23.07 138.32 23.05 138.32 23.04 138.32 23.02 138.32 23.01 138.32 23.01 138.33 23 138.33 23.01 138.32 23 138.31 23 138.3 22.99 138.31 22.98 138.3 22.97 138.3 22.97 138.29 22.96 138.29 22.96 138.28 22.95 138.28 22.94 138.28 22.94 138.27 22.93 138.27 22.92 138.27 22.9 138.27 22.89 138.27 22.89 138.26 22.88 138.26 22.87 138.26 22.88 138.26 22.88 138.25 22.88 138.24 22.88 138.23 22.89 138.22 22.89 138.21 22.88 138.21 22.88 138.2 22.88 138.19 22.87 138.19 22.88 138.18 22.87 138.18 22.87 138.17 22.87 138.16 22.87 138.15 22.86 138.15 22.85 138.15 22.84 138.15 22.83 138.15 22.82 138.15 22.82 138.14 22.81 138.14 22.8 138.14 22.8 138.13 22.79 138.13 22.78 138.13 22.77 138.13 22.76 138.13 22.75 138.13 22.74 138.13 22.72 138.12 22.71 138.13 22.7 138.13 22.69 138.12 22.67 138.12 22.66 138.13 22.64 138.13 22.63 138.12 22.62 138.12 22.61 138.12 22.61 138.11 22.6 138.11 22.6 138.1 22.59 138.1 22.59 138.09 22.59 138.08 22.58 138.09 22.57 138.08 22.56 138.08 22.55 138.07 22.54 138.07 22.53 138.07 22.53 138.06 22.51 138.06 22.5 138.06 22.49 138.06 22.49 138.07 22.48 138.07 22.46 138.07 22.45 138.07 22.44 138.07 22.43 138.07 22.43 138.06 22.41 138.06 22.4 138.06 22.36 138.06 22.34 138.06 22.33 138.06 22.32 138.06 22.31 138.06 22.31 138.07 22.3 138.07 22.29 138.07 22.28 138.08 22.27 138.08 22.25 138.08 22.24 138.08 22.25 138.08 22.24 138.07 22.23 138.07 22.23 138.06 22.22 138.06 22.23 138.06 22.24 138.05 22.23 138.05 22.22 138.05 22.21 138.05 22.19 138.05 22.18 138.06 22.17 138.06 22.17 138.07 22.16 138.07 22.15 138.07 22.15 138.08 22.14 138.08 22.14 138.09 22.16 138.09 22.15 138.09 22.14 138.09 22.13 138.09 22.12 138.09 22.11 138.09 22.09 138.09 22.08 138.09 22.08 138.08 22.07 138.08 22.06 138.08 22.05 138.08 22.04 138.08 22.04 138.09 22.03 138.1 22.03 138.11 22.04 138.11 22.05 138.11 22.05 138.12 22.06 138.12 22.06 138.13 22.07 138.13 22.08 138.13 22.08 138.14 22.07 138.14 22.07 138.15 22.06 138.15 22.05 138.16 22.04 138.16 22.03 138.16 22.02 138.17 22.01 138.17 22 138.17 21.99 138.17 21.99 138.18 21.98 138.18 21.95 138.18 21.92 138.18 21.9 138.18 21.86 138.18 21.85 138.18 21.83 138.18 21.81 138.18 21.81 138.19 21.8 138.21 21.8 138.22 21.81 138.22 21.81 138.23 21.83 138.23 21.82 138.24 21.81 138.24 21.81 138.25 21.8 138.25 21.79 138.26 21.78 138.27 21.77 138.27 21.77 138.28 21.76 138.29 21.75 138.29 21.73 138.29 21.72 138.3 21.71 138.3 21.69 138.3 21.68 138.3 21.67 138.3 21.66 138.31 21.65 138.31 21.64 138.31 21.64 138.32 21.64 138.33 21.63 138.33 21.63 138.34 21.62 138.34 21.61 138.34 21.6 138.34 21.59 138.34 21.59 138.35 21.58 138.35 21.54 138.35 21.51 138.35 21.5 138.35 21.48 138.35 21.46 138.34 21.47 138.34 21.46 138.34 21.44 138.34 21.43 138.33 21.42 138.33 21.41 138.33 21.4 138.33 21.39 138.34 21.39 138.33 21.38 138.33 21.36 138.33 21.34 138.34 21.32 138.34 21.31 138.34 21.29 138.34 21.28 138.34 21.27 138.34 21.26 138.34 21.26 138.35 21.27 138.35 21.28 138.35 21.29 138.36 21.29 138.37 21.3 138.37 21.29 138.37 21.28 138.37 21.27 138.37 21.26 138.38 21.25 138.37 21.24 138.37 21.23 138.37 21.22 138.37 21.21 138.37 21.17 138.38 21.15 138.38 21.13 138.38 21.09 138.38 21.08 138.38 21.06 138.38 21.05 138.38 21.04 138.38 21.02 138.38 21.01 138.38 21 138.38 21 138.39 21.01 138.4 21.01 138.41 21 138.41 21.01 138.41 21.01 138.42 21 138.42 21 138.43 20.99 138.43 21 138.43 21.01 138.43 21.01 138.44 21.02 138.44 21.03 138.44"/>
<path d="M 21.03 138.44 21.04 138.44 21.06 138.44 21.07 138.44 21.08 138.44 21.11 138.44 21.13 138.45 21.13 138.44 21.14 138.44 21.15 138.44 21.16 138.44 21.18 138.44 21.2 138.44 21.21 138.45 21.22 138.45 21.23 138.45 21.24 138.45 21.23 138.45 21.23 138.46 21.22 138.46 21.2 138.46 21.18 138.46 21.17 138.46 21.16 138.46 21.15 138.46 21.14 138.46 21.13 138.46 21.11 138.46 21.08 138.46 21.07 138.46 21.05 138.46 21.04 138.46 21.03 138.46 21.01 138.46 21 138.46 20.99 138.46 20.97 138.47 20.96 138.47 20.95 138.47 20.94 138.47 20.93 138.47 20.92 138.47 20.91 138.47 20.9 138.47 20.89 138.47 20.86 138.47 20.81 138.47 20.8 138.47 20.77 138.47 20.76 138.47 20.75 138.47 20.73 138.46 20.68 138.46 20.64 138.46 20.63 138.46 20.62 138.46 20.61 138.46 20.6 138.46 20.59 138.46 20.58 138.46 20.57 138.46 20.56 138.46 20.55 138.46 20.54 138.46 20.51 138.46 20.51 138.45 20.5 138.45 20.48 138.45 20.47 138.45 20.46 138.45 20.45 138.45 20.44 138.45 20.43 138.45 20.42 138.45 20.4 138.45 20.39 138.45 20.38 138.45 20.37 138.44 20.36 138.44 20.35 138.44 20.34 138.44 20.32 138.44 20.32 138.43 20.31 138.43 20.3 138.43 20.29 138.43 20.27 138.43 20.26 138.43 20.24 138.43 20.24 138.42 20.23 138.43 20.23 138.42 20.22 138.42 20.21 138.42 20.2 138.42 20.19 138.42 20.19 138.41 20.17 138.41 20.18 138.41 20.19 138.4 20.2 138.4 20.21 138.4 20.22 138.41 20.22 138.4 20.23 138.4 20.24 138.4 20.25 138.4 20.26 138.4 20.27 138.4 20.27 138.39 20.29 138.39 20.28 138.39 20.28 138.38 20.29 138.38 20.3 138.38 20.3 138.37 20.31 138.37 20.3 138.37 20.3 138.36 20.29 138.36 20.28 138.36 20.27 138.36 20.26 138.36 20.27 138.35 20.25 138.35 20.24 138.35 20.23 138.35 20.23 138.34 20.22 138.34 20.21 138.34 20.21 138.33 20.2 138.33 20.18 138.33 20.14 138.33 20.13 138.33 20.11 138.33 20.1 138.33 20.08 138.34 20.07 138.34 20.06 138.34 20.04 138.34 20.03 138.33 20.02 138.32 20.01 138.32 20.01 138.31 20 138.31 19.99 138.3 20 138.3 19.99 138.3 19.99 138.29 19.98 138.29 19.97 138.29 19.95 138.29 19.94 138.29 19.94 138.28 19.94 138.27 19.95 138.27 19.95 138.26 19.94 138.26 19.93 138.25 19.93 138.24 19.92 138.24 19.93 138.23 19.94 138.23 19.94 138.22 19.94 138.21 19.93 138.21 19.93 138.2 19.92 138.2 19.91 138.19 19.9 138.19 19.89 138.19 19.88 138.2 19.88 138.19 19.87 138.19 19.86 138.19 19.85 138.19 19.81 138.19 19.79 138.19 19.77 138.19 19.76 138.19 19.75 138.19 19.74 138.19 19.73 138.19 19.69 138.18 19.67 138.18 19.64 138.18 19.63 138.18 19.62 138.18 19.58 138.18 19.57 138.18 19.56 138.18 19.55 138.17 19.54 138.17 19.53 138.17 19.52 138.17 19.51 138.17 19.49 138.16 19.49 138.17 19.47 138.17 19.46 138.17 19.45 138.17 19.44 138.17 19.4 138.18 19.39 138.18 19.38 138.18 19.37 138.18 19.36 138.18 19.35 138.18 19.34 138.18 19.32 138.18 19.29 138.18 19.28 138.18 19.27 138.18 19.26 138.18 19.23 138.18 19.22 138.18 19.21 138.18 19.2 138.18 19.19 138.18 19.18 138.18 19.19 138.19 19.2 138.19 19.21 138.19 19.22 138.19 19.23 138.19 19.24 138.19 19.25 138.19 19.24 138.2 19.25 138.2 19.27 138.2 19.26 138.2 19.26 138.21 19.24 138.21 19.25 138.21 19.26 138.21 19.27 138.21 19.28 138.21 19.29 138.21 19.3 138.21 19.3 138.22 19.31 138.22 19.32 138.22 19.33 138.22 19.32 138.22 19.32 138.23 19.31 138.23 19.33 138.23 19.34 138.23 19.36 138.24 19.37 138.24 19.4 138.24 19.41 138.24 19.42 138.24 19.42 138.25 19.43 138.25 19.44 138.25 19.44 138.26 19.45 138.26 19.46 138.26 19.45 138.25 19.46 138.25 19.48 138.26 19.47 138.26 19.48 138.26 19.49 138.26 19.5 138.26 19.51 138.27 19.52 138.27 19.53 138.27 19.54 138.27 19.55 138.27 19.56 138.27 19.56 138.28 19.57 138.28 19.58 138.28 19.59 138.28 19.6 138.29 19.62 138.29 19.62 138.3 19.61 138.3 19.61 138.31 19.6 138.31 19.59 138.31 19.58 138.31 19.56 138.31 19.55 138.3 19.54 138.3 19.54 138.31 19.53 138.31 19.52 138.3 19.51 138.3 19.5 138.3 19.49 138.3 19.48 138.3 19.47 138.29 19.46 138.29 19.45 138.29 19.44 138.3 19.43 138.3 19.43 138.29 19.42 138.29 19.42 138.3 19.43 138.3 19.42 138.3 19.4 138.3 19.4 138.31 19.37 138.32 19.36 138.32"/>
<path d="M 21.42 139 21.41 139 21.42 139"/>
<path d="M 21.63 139.02 21.62 139.02 21.63 139.02"/>
<path d="M 19.41 139.02 19.41 139.01 19.42 139.01 19.43 139.01 19.45 139.01 19.46 139.01 19.47 139.01 19.48 139.01 19.49 139.01 19.49 139 19.5 139 19.53 139 19.54 139 19.55 139 19.56 139 19.57 139 19.58 139 19.59 139 19.6 139 19.61 139 19.62 139 19.63 139 19.64 139 19.65 139 19.68 139 19.68 138.99 19.69 138.99 19.7 138.99 19.7 138.98 19.71 138.97 19.71 138.96 19.72 138.96 19.73 138.94 19.74 138.94 19.74 138.93 19.75 138.93 19.76 138.93 19.77 138.92 19.78 138.92 19.79 138.92 19.79 138.91 19.8 138.91 19.83 138.91 19.84 138.91 19.85 138.91 19.86 138.91 19.87 138.91 19.88 138.91 19.89 138.91 19.91 138.91 19.93 138.91 19.95 138.91 19.96 138.91 19.99 138.91 20 138.91 20.02 138.91 20.04 138.91 20.05 138.91 20.06 138.91 20.08 138.91 20.09 138.91 20.09 138.92 20.11 138.92 20.11 138.93 20.12 138.93 20.13 138.93 20.13 138.94 20.15 138.94 20.16 138.95 20.17 138.96 20.19 138.96 20.2 138.96 20.21 138.96 20.22 138.96 20.23 138.96 20.24 138.96 20.27 138.96 20.29 138.96 20.29 138.95 20.28 138.95 20.29 138.95 20.29 138.94 20.3 138.94 20.31 138.94 20.32 138.94 20.33 138.94 20.34 138.93 20.36 138.93 20.36 138.94 20.36 138.95 20.35 138.95 20.36 138.95 20.4 138.95 20.41 138.95 20.42 138.95 20.42 138.94 20.43 138.94 20.45 138.94 20.46 138.93 20.46 138.94 20.47 138.94 20.48 138.94 20.5 138.95 20.51 138.95 20.52 138.95 20.53 138.95 20.56 138.96 20.57 138.96 20.58 138.96 20.6 138.96 20.6 138.95 20.61 138.95 20.62 138.95 20.63 138.95 20.64 138.95 20.65 138.95 20.66 138.95 20.68 138.95 20.69 138.95 20.7 138.95 20.71 138.95 20.72 138.95 20.73 138.95 20.74 138.95 20.75 138.95 20.76 138.95 20.77 138.95 20.78 138.95 20.77 138.96 20.76 138.96 20.77 138.96 20.77 138.97 20.78 138.97 20.79 138.97 20.81 138.97 20.82 138.97 20.83 138.97 20.84 138.97 20.85 138.97 20.86 138.97 20.86 138.96 20.87 138.97 20.88 138.97 20.87 138.98 20.88 138.98 20.89 138.98 20.91 138.98 20.92 138.98 20.93 138.98 20.93 138.99 20.93 139 20.94 139 20.95 139 20.96 139 20.98 139.01 20.99 139.01 21 139.01 21.01 139.01 21.02 139.01 21.03 139.01 21.04 139.01 21.05 139.01 21.06 139.01 21.07 139.01 21.07 139.02 21.06 139.02 21.07 139.02 21.07 139.03 21.09 139.03 21.1 139.03 21.12 139.03 21.14 139.03 21.15 139.03 21.16 139.02 21.17 139.02 21.17 139.03 21.18 139.02 21.19 139.02 21.2 139.02 21.21 139.02 21.22 139.02 21.24 139.02 21.25 139.02 21.26 139.02 21.26 139.01 21.27 139.01 21.28 139.01 21.33 139.01 21.34 139.01 21.35 139.01 21.36 139.02 21.36 139.01 21.37 139.01 21.39 139.01 21.4 139.01 21.41 139.01 21.41 139 21.41 139.01 21.42 139.01 21.42 139 21.43 139 21.45 139.01 21.46 139.01 21.48 139.01 21.49 139.01 21.5 139.01 21.51 139.01 21.51 139 21.5 139 21.49 139 21.5 139 21.51 139 21.51 138.99 21.54 138.99 21.55 138.99 21.56 138.99 21.57 138.99 21.58 138.98 21.57 138.98 21.57 138.97 21.58 138.97 21.59 138.97 21.6 138.97 21.61 138.97 21.6 138.97 21.62 138.97 21.63 138.97 21.64 138.97 21.64 138.98 21.64 138.99 21.63 138.99 21.64 138.99 21.65 139 21.66 139 21.67 139 21.66 139 21.64 139 21.63 139.01 21.63 139.02 21.62 139.02 21.6 139.02 21.59 139.02 21.58 139.02 21.57 139.02 21.54 139.01 21.54 139.02 21.53 139.03 21.52 139.03 21.5 139.03 21.49 139.03 21.48 139.03 21.47 139.03 21.46 139.04 21.45 139.04 21.44 139.04 21.41 139.04 21.4 139.04 21.38 139.04 21.38 139.05 21.37 139.05 21.36 139.05 21.34 139.05 21.33 139.05 21.32 139.05 21.31 139.05 21.3 139.05 21.29 139.04 21.29 139.05 21.28 139.05 21.26 139.05 21.24 139.05 21.24 139.06 21.23 139.06"/>
<path d="M 21.9 139.1 21.89 139.1 21.88 139.1 21.86 139.1 21.84 139.1 21.82 139.1 21.81 139.09 21.82 139.09 21.81 139.09 21.81 139.08 21.8 139.08 21.78 139.08 21.78 139.07 21.77 139.07 21.76 139.06 21.75 139.06 21.75 139.05 21.74 139.05 21.74 139.04 21.73 139.04 21.73 139.03 21.72 139.02 21.72 139.01 21.71 139.01 21.7 139.01 21.7 139 21.69 139 21.68 139 21.67 139 21.68 139 21.69 138.99 21.71 138.99 21.73 138.99 21.73 139 21.74 139 21.74 138.99 21.75 138.99 21.75 138.98 21.76 138.98 21.78 138.98 21.79 138.98 21.8 138.99 21.81 138.99 21.8 138.99 21.8 139 21.79 139.02 21.8 139.02 21.8 139.03 21.81 139.03 21.82 139.03 21.83 139.03 21.84 139.03 21.85 139.03 21.85 139.02 21.86 139.03 21.87 139.03 21.88 139.03 21.88 139.04 21.89 139.04 21.9 139.04 21.9 139.05 21.89 139.05 21.9 139.05 21.89 139.05 21.9 139.05 21.9 139.06 21.9 139.07 21.91 139.07 21.91 139.08 21.9 139.08 21.92 139.08 21.93 139.08 21.93 139.09 21.94 139.09 21.93 139.09 21.92 139.09 21.91 139.1 21.9 139.1"/>
<path d="M 21.23 139.06 21.22 139.06 21.23 139.07 21.22 139.07 21.21 139.07 21.17 139.06 21.16 139.06 21.17 139.06 21.18 139.05 21.16 139.05 21.15 139.05 21.13 139.05 21.13 139.06 21.12 139.06 21.11 139.06 21.1 139.06 21.11 139.07 21.1 139.07 21.09 139.07 21.09 139.08 21.08 139.08 21.07 139.08 21.06 139.09 21.05 139.09 21.04 139.09 21.03 139.08 21.02 139.08 21.02 139.07 21.02 139.06 21.03 139.06 21.03 139.05 21.02 139.05 21.02 139.04 21.01 139.03 20.99 139.03 20.98 139.03 20.97 139.04 20.98 139.04 20.99 139.04 20.99 139.05 20.98 139.05 20.97 139.05 20.96 139.04 20.95 139.04 20.92 139.04 20.91 139.04 20.9 139.03 20.89 139.03 20.88 139.03 20.88 139.02 20.87 139.02 20.86 139.02 20.85 139.02 20.83 139.01 20.82 139.01 20.83 139 20.83 138.99 20.8 138.99 20.78 138.99 20.77 138.98 20.77 138.99 20.76 138.99 20.77 138.99 20.76 139 20.77 139 20.78 139 20.79 139 20.78 139 20.77 139 20.77 139.01 20.74 139.01 20.73 139.01 20.7 139.01 20.71 139.01 20.72 139.01 20.7 139 20.69 139 20.69 139.01 20.68 139.01 20.67 139.01 20.66 139.01 20.65 139.02 20.64 139.02 20.63 139.02 20.63 139.03 20.63 139.02 20.61 139.02 20.6 139.02 20.59 139.02 20.58 139.02 20.57 139.02 20.57 139.01 20.56 139.01 20.56 139 20.55 139.01 20.53 139 20.52 139 20.51 139 20.5 139 20.5 139.01 20.49 139.01 20.49 139 20.48 139 20.48 139.01 20.47 139.01 20.47 139 20.46 139 20.45 139 20.44 139 20.43 139 20.42 139 20.41 139 20.41 138.99 20.4 138.99 20.39 138.99 20.38 138.99 20.37 138.99 20.36 138.99 20.35 138.99 20.34 138.99 20.34 139 20.33 139.01 20.32 139.01 20.31 139.01 20.28 139.01 20.27 139.01 20.27 139.02 20.26 139.02 20.25 139.02 20.25 139.01 20.24 139.01 20.23 139.01 20.22 139.01 20.21 139.01 20.19 139.01 20.18 139.01 20.17 139.01 20.16 139.01 20.16 139 20.12 139 20.11 139 20.1 139 20.09 139 20.09 138.99 20.08 138.99 20.08 138.98 20.07 138.98 20.06 138.98 20.05 138.98 20.04 138.98 20.03 138.98 20.03 138.97 20.02 138.97 20.01 138.97 20.01 138.96 20 138.96 20 138.97 19.99 138.97 19.96 138.96 19.96 138.97 19.95 138.97 19.94 138.98 19.93 138.98 19.93 138.99 19.92 138.99 19.91 138.99 19.9 138.99 19.88 138.99 19.87 138.99 19.86 138.99 19.85 138.99 19.85 138.98 19.84 138.98 19.83 138.98 19.82 138.98 19.81 138.98 19.81 138.99 19.8 138.99 19.79 138.99 19.78 138.99 19.77 138.99 19.77 139 19.78 139.01 19.77 139.01 19.78 139.02 19.78 139.03 19.79 139.03 19.79 139.04 19.8 139.04 19.81 139.04 19.81 139.05 19.8 139.05 19.79 139.05 19.77 139.05 19.77 139.06 19.76 139.06 19.73 139.06 19.69 139.06 19.69 139.07 19.68 139.07 19.66 139.07 19.65 139.07 19.64 139.07 19.63 139.07 19.62 139.07 19.61 139.07 19.6 139.07 19.59 139.07 19.59 139.08 19.58 139.08 19.57 139.08 19.55 139.08 19.54 139.08 19.53 139.08 19.51 139.08 19.51 139.09 19.52 139.09 19.52 139.1 19.53 139.1 19.53 139.11 19.54 139.11 19.55 139.11 19.55 139.12 19.54 139.12 19.54 139.13 19.54 139.14 19.53 139.14 19.5 139.14 19.49 139.14 19.49 139.15 19.48 139.15 19.47 139.15 19.47 139.16 19.46 139.16 19.46 139.17 19.45 139.17 19.44 139.17 19.42 139.17 19.41 139.17 19.41 139.18 19.4 139.18 19.39 139.17 19.38 139.17 19.37 139.17 19.36 139.17 19.35 139.16 19.34 139.16 19.32 139.17 19.31 139.17 19.3 139.17 19.29 139.17 19.29 139.16 19.28 139.16 19.27 139.16 19.26 139.16 19.25 139.16 19.24 139.16 19.23 139.16 19.22 139.16 19.21 139.16 19.2 139.16 19.19 139.16 19.18 139.16 19.18 139.17 19.17 139.17 19.16 139.17 19.15 139.16 19.14 139.16 19.13 139.16 19.12 139.16 19.1 139.16 19.09 139.16 19.08 139.16 19.07 139.15 19.06 139.14 19.05 139.14 19.05 139.13 19.04 139.12 19.03 139.11 19.02 139.11 19.01 139.11 18.96 139.11 18.94 139.11 18.94 139.12 18.93 139.12 18.92 139.12 18.91 139.12 18.91 139.13 18.9 139.13 18.91 139.13 18.91 139.14 18.93 139.14 18.92 139.14 18.9 139.14 18.88 139.14 18.88 139.15 18.89 139.15 18.9 139.15 18.9 139.16 18.91 139.16 18.92 139.16 18.93 139.16 18.93 139.17 18.92 139.17 18.91 139.17 18.9 139.17 18.9 139.18 18.91 139.18 18.93 139.18 18.94 139.19 18.95 139.19"/>
<path d="M 22.97 135.21 22.98 135.21 22.99 135.21 23 135.21 23.01 135.2 23.03 135.2 23.03 135.19 23.04 135.19 23.06 135.19 23.07 135.18 23.08 135.18 23.09 135.18 23.1 135.18 23.11 135.18 23.12 135.17 23.13 135.17 23.14 135.16 23.15 135.16 23.16 135.16 23.17 135.16 23.18 135.15 23.19 135.15 23.2 135.14 23.21 135.14 23.22 135.13 23.23 135.13 23.23 135.12 23.24 135.12 23.25 135.12 23.25 135.11 23.26 135.1 23.27 135.1 23.28 135.1 23.28 135.09 23.29 135.09 23.3 135.09 23.3 135.08 23.31 135.08 23.32 135.08 23.33 135.08 23.33 135.07 23.34 135.07 23.35 135.07 23.36 135.07 23.37 135.07 23.38 135.07 23.4 135.07 23.42 135.07 23.43 135.07 23.44 135.07 23.45 135.07 23.46 135.06 23.47 135.06 23.48 135.06 23.5 135.06 23.51 135.06 23.52 135.06 23.53 135.07 23.54 135.06 23.56 135.06 23.57 135.06 23.57 135.05 23.59 135.05 23.6 135.06 23.62 135.05 23.63 135.05 23.64 135.05 23.65 135.05 23.66 135.05 23.67 135.05 23.67 135.04 23.68 135.04 23.69 135.04 23.69 135.03 23.7 135.03 23.71 135.03 23.72 135.02 23.73 135.02 23.74 135.02 23.74 135.01 23.76 135.01 23.77 135.01 23.79 135.01 23.79 135.02 23.81 135.02 23.82 135.02 23.82 135.03 23.83 135.03 23.84 135.03 23.84 135.04 23.85 135.04 23.84 135.04 23.85 135.04 23.86 135.05 23.88 135.05 23.89 135.05 23.9 135.05 23.91 135.05 23.92 135.05 23.94 135.05 23.95 135.05 23.96 135.05 23.97 135.05 23.98 135.05 23.99 135.05 24 135.05 24.01 135.05 24.02 135.05 24.03 135.06 24.04 135.06 24.05 135.06 24.05 135.07 24.06 135.07 24.08 135.07 24.08 135.08 24.09 135.08 24.1 135.08 24.11 135.08 24.12 135.08 24.13 135.08 24.14 135.09 24.15 135.09 24.17 135.09 24.17 135.08 24.18 135.08 24.2 135.09 24.21 135.09 24.22 135.08 24.23 135.08 24.24 135.08 24.25 135.08 24.26 135.08 24.27 135.08 24.29 135.07 24.31 135.07 24.34 135.07 24.36 135.07 24.36 135.06 24.39 135.07 24.4 135.07 24.4 135.06 24.42 135.07 24.43 135.07 24.46 135.07 24.46 135.06 24.47 135.06"/>
<path d="M 24.29 134.88 24.28 134.88 24.27 134.88 24.26 134.88 24.25 134.88 24.24 134.88 24.23 134.88 24.22 134.88 24.21 134.88 24.2 134.88 24.19 134.88 24.18 134.88 24.17 134.88 24.16 134.88 24.15 134.88 24.14 134.88 24.13 134.88 24.1 134.88 24.1 134.87 24.09 134.87 24.08 134.87 24.07 134.87 24.05 134.87 24.04 134.87 24.03 134.87 24.01 134.87 23.99 134.87 23.97 134.87 23.96 134.87 23.95 134.87 23.94 134.87 23.93 134.87 23.92 134.87 23.91 134.87 23.89 134.87 23.88 134.87 23.85 134.87 23.84 134.87 23.83 134.87 23.81 134.86 23.8 134.87 23.79 134.87 23.79 134.86 23.78 134.86 23.77 134.86 23.76 134.86 23.75 134.86 23.74 134.86 23.73 134.86 23.71 134.86 23.68 134.86 23.67 134.86 23.66 134.86 23.65 134.86 23.64 134.86 23.63 134.86 23.62 134.86 23.61 134.86 23.6 134.87 23.59 134.87 23.57 134.86 23.57 134.87 23.53 134.87 23.52 134.87 23.51 134.87 23.49 134.87 23.48 134.87 23.47 134.87 23.47 134.88 23.46 134.88 23.45 134.88 23.44 134.88 23.43 134.89 23.42 134.89 23.4 134.89 23.39 134.89 23.37 134.89 23.37 134.9 23.36 134.9 23.35 134.9 23.34 134.9 23.33 134.9 23.3 134.9 23.29 134.9 23.28 134.9 23.27 134.9 23.26 134.9 23.24 134.9 23.24 134.89 23.22 134.89 23.21 134.89 23.2 134.89 23.19 134.89 23.17 134.89 23.16 134.89 23.15 134.89 23.15 134.88 23.14 134.88 23.13 134.88 23.12 134.88 23.11 134.88 23.09 134.88 23.05 134.88 23.03 134.88 23.03 134.87 23.02 134.87 23.01 134.87 23 134.87 22.99 134.87 22.98 134.87 22.97 134.87 22.96 134.87 22.94 134.87 22.93 134.88 22.92 134.88 22.91 134.88 22.9 134.88 22.89 134.88 22.88 134.88 22.87 134.88 22.86 134.88 22.85 134.88 22.84 134.88 22.82 134.88 22.81 134.88 22.8 134.88 22.8 134.89 22.77 134.89 22.75 134.89 22.73 134.89 22.72 134.89 22.71 134.89 22.7 134.89 22.69 134.89 22.68 134.89 22.67 134.89 22.67 134.9 22.66 134.9 22.65 134.9 22.64 134.9 22.62 134.9 22.61 134.9 22.59 134.9 22.58 134.9 22.56 134.9 22.55 134.9 22.52 134.9 22.52 134.91 22.51 134.91 22.48 134.91 22.46 134.91 22.45 134.91 22.44 134.91 22.43 134.91 22.43 134.92 22.42 134.92 22.41 134.92 22.38 134.91 22.38 134.92 22.37 134.92 22.37 134.93 22.36 134.93 22.37 134.93 22.38 134.93 22.38 134.94 22.39 134.94 22.4 134.95 22.41 134.95 22.42 134.95 22.42 134.96 22.44 134.96 22.45 134.96 22.46 134.96 22.47 134.97 22.48 134.97 22.5 134.97 22.49 134.97 22.5 134.97 22.51 134.98 22.52 134.98 22.53 134.98 22.54 134.98 22.55 134.99 22.56 134.99 22.57 134.99 22.58 135 22.59 135 22.59 135.01 22.6 135.01 22.61 135.01 22.61 135.02 22.62 135.02 22.63 135.02 22.63 135.03 22.64 135.03 22.64 135.04 22.65 135.05 22.66 135.05 22.66 135.07 22.66 135.08 22.67 135.08 22.67 135.09 22.68 135.09 22.7 135.09 22.69 135.09 22.69 135.1 22.7 135.1 22.73 135.1 22.74 135.1 22.75 135.1 22.76 135.1 22.77 135.1 22.78 135.1 22.79 135.1 22.8 135.1 22.81 135.1 22.83 135.1 22.84 135.1 22.85 135.1 22.86 135.1 22.89 135.11 22.91 135.11 22.91 135.12 22.92 135.12 22.93 135.12 22.93 135.13 22.94 135.13 22.95 135.13 22.95 135.14 22.96 135.14 22.96 135.15 22.97 135.15 22.97 135.16 22.97 135.17 22.96 135.18 22.94 135.18 22.94 135.19 22.95 135.2 22.95 135.21 22.96 135.21 22.97 135.21"/>
<path d="M 24.47 135.36 24.46 135.36 24.45 135.36 24.44 135.36 24.43 135.36 24.43 135.37 24.42 135.37 24.43 135.37 24.43 135.38 24.44 135.38 24.44 135.39 24.42 135.39 24.42 135.4 24.43 135.4 24.44 135.4 24.44 135.41 24.44 135.42 24.43 135.42 24.42 135.42 24.43 135.42 24.42 135.43 24.41 135.43 24.42 135.43 24.42 135.44 24.42 135.45 24.43 135.46 24.42 135.47 24.41 135.47 24.41 135.48 24.4 135.48 24.4 135.49 24.39 135.49 24.39 135.5 24.39 135.51 24.4 135.51 24.4 135.52 24.39 135.53 24.38 135.53 24.39 135.53 24.39 135.54 24.39 135.55 24.38 135.55 24.37 135.55 24.37 135.56 24.36 135.56 24.36 135.57 24.35 135.57 24.35 135.58 24.34 135.57 24.33 135.57 24.33 135.58 24.32 135.58 24.33 135.58 24.33 135.59 24.34 135.59 24.34 135.6 24.35 135.6 24.35 135.61 24.36 135.61 24.36 135.62 24.36 135.63 24.35 135.63 24.34 135.64 24.33 135.64 24.32 135.65 24.31 135.65 24.32 135.65 24.31 135.66 24.3 135.67 24.31 135.67 24.31 135.68 24.32 135.68 24.31 135.69 24.32 135.69 24.31 135.7 24.31 135.71 24.3 135.71 24.3 135.72 24.31 135.73 24.3 135.73 24.3 135.74 24.31 135.74 24.3 135.74 24.3 135.75 24.3 135.76 24.32 135.76 24.31 135.76 24.3 135.77 24.31 135.77 24.3 135.77 24.28 135.77 24.28 135.78 24.27 135.78 24.26 135.78 24.26 135.79 24.27 135.79 24.28 135.8 24.28 135.81 24.28 135.82 24.28 135.83 24.27 135.83 24.26 135.84 24.26 135.85 24.25 135.85 24.24 135.85 24.24 135.86 24.24 135.87 24.23 135.88 24.23 135.89"/>
<path d="M 24.01 135.93 24.01 135.92 24.02 135.92 24.02 135.91 24.03 135.92 24.03 135.91 24.04 135.9 24.05 135.89 24.05 135.88 24.06 135.88 24.06 135.87 24.05 135.87 24.05 135.86 24.06 135.86 24.06 135.84 24.07 135.84 24.07 135.83 24.07 135.82 24.08 135.82 24.07 135.82 24.08 135.82 24.08 135.81 24.09 135.81 24.09 135.8 24.1 135.8 24.1 135.79 24.11 135.79 24.11 135.78 24.11 135.79 24.12 135.79 24.13 135.77 24.14 135.77 24.14 135.76 24.15 135.76 24.15 135.75 24.16 135.75 24.17 135.75 24.17 135.74 24.17 135.73 24.17 135.72 24.18 135.72 24.18 135.71 24.17 135.71 24.18 135.7 24.18 135.69 24.18 135.68 24.19 135.66 24.2 135.66 24.2 135.65 24.21 135.64 24.22 135.63 24.22 135.61 24.23 135.61 24.23 135.6 24.23 135.59 24.23 135.58 24.23 135.57 24.22 135.57 24.22 135.56 24.21 135.56 24.22 135.55 24.22 135.52 24.22 135.51 24.22 135.5 24.22 135.49 24.23 135.49 24.24 135.49 24.24 135.48 24.25 135.48 24.25 135.47 24.26 135.47 24.27 135.47 24.27 135.46 24.28 135.46 24.28 135.45 24.29 135.45 24.29 135.44 24.29 135.43 24.29 135.42 24.29 135.41 24.3 135.41 24.3 135.4 24.31 135.4 24.32 135.39 24.32 135.38 24.32 135.37 24.31 135.37 24.31 135.36 24.3 135.36 24.31 135.36 24.31 135.35 24.32 135.35 24.32 135.34 24.33 135.33 24.34 135.33 24.34 135.32 24.34 135.31 24.35 135.3 24.34 135.3 24.34 135.29 24.33 135.28 24.32 135.28 24.32 135.27 24.31 135.27 24.3 135.27 24.29 135.27 24.28 135.27 24.27 135.27 24.26 135.27 24.23 135.26 24.22 135.26 24.22 135.27 24.21 135.27 24.19 135.26 24.17 135.26 24.16 135.26 24.16 135.25 24.14 135.25 24.13 135.25 24.12 135.25 24.08 135.25 24.03 135.25 24 135.25 23.98 135.25 23.97 135.25 23.97 135.24 23.96 135.24 23.95 135.24 23.94 135.24 23.94 135.23 23.93 135.23 23.92 135.23 23.92 135.22 23.91 135.22 23.9 135.22 23.89 135.22 23.88 135.22 23.87 135.22 23.86 135.22 23.84 135.22 23.84 135.21 23.83 135.21 23.82 135.21 23.81 135.21 23.79 135.2 23.78 135.2 23.77 135.2 23.73 135.19 23.71 135.19 23.68 135.2 23.67 135.2 23.64 135.2 23.62 135.2 23.61 135.2 23.61 135.21 23.58 135.21 23.56 135.21 23.55 135.21 23.54 135.21 23.53 135.21 23.52 135.22 23.51 135.22 23.5 135.22 23.49 135.22 23.49 135.23 23.48 135.23 23.46 135.22 23.44 135.22 23.43 135.22 23.44 135.22 23.43 135.22 23.42 135.22 23.41 135.22 23.39 135.22 23.37 135.22 23.35 135.22 23.34 135.23 23.33 135.23 23.32 135.23 23.31 135.23 23.31 135.24 23.3 135.24 23.29 135.24 23.29 135.25 23.28 135.25 23.28 135.26 23.27 135.26 23.26 135.26 23.25 135.27 23.24 135.27 23.24 135.28 23.23 135.28 23.22 135.28 23.21 135.28 23.2 135.28 23.19 135.29 23.18 135.29 23.17 135.29 23.16 135.29 23.16 135.3 23.15 135.3 23.14 135.3 23.13 135.3 23.12 135.3 23.12 135.31 23.11 135.31 23.1 135.31 23.09 135.31 23.08 135.31 23.07 135.31 23.07 135.32 23.06 135.32 23.04 135.32 23.03 135.32 23 135.33 22.98 135.33 22.91 135.33 22.9 135.32 22.89 135.32 22.88 135.32 22.87 135.32 22.85 135.32 22.83 135.32 22.83 135.31 22.82 135.31 22.81 135.31 22.8 135.31 22.79 135.31 22.78 135.31 22.77 135.31 22.76 135.31 22.75 135.32 22.74 135.32 22.73 135.32 22.71 135.32 22.69 135.32 22.66 135.32 22.62 135.33 22.61 135.33 22.6 135.33 22.59 135.33 22.57 135.33 22.53 135.33 22.52 135.33 22.51 135.34 22.49 135.34 22.47 135.34 22.45 135.34 22.44 135.34 22.43 135.35 22.41 135.35 22.4 135.35 22.39 135.35 22.39 135.34 22.39 135.35 22.34 135.35 22.31 135.35 22.29 135.35 22.28 135.36 22.27 135.36 22.26 135.36 22.24 135.36 22.23 135.36 22.22 135.37 22.2 135.37 22.19 135.37 22.18 135.38 22.17 135.38 22.15 135.38 22.14 135.38 22.13 135.38 22.12 135.39 22.11 135.39 22.09 135.39 22.08 135.39 22.07 135.39 22.07 135.4 22.06 135.4 22.05 135.4 22.04 135.41 22.03 135.41 22.03 135.42 22.02 135.42 22.02 135.43 22.01 135.43 22 135.43 21.99 135.43 21.98 135.43 21.98 135.44 21.97 135.44 21.97 135.45 21.96 135.45 21.96 135.46 21.95 135.47 21.94 135.47 21.93 135.47 21.93 135.48 21.92 135.48 21.91 135.48 21.91 135.49 21.9 135.49 21.89 135.49 21.89 135.5 21.88 135.5 21.89 135.5 21.89 135.51 21.88 135.52 21.88 135.53 21.87 135.54 21.87 135.55 21.88 135.55 21.87 135.55 21.86 135.55 21.85 135.55 21.84 135.55 21.83 135.55 21.83 135.56 21.82 135.56 21.81 135.56 21.79 135.56 21.79 135.55 21.79 135.56 21.78 135.56 21.77 135.56 21.76 135.56 21.75 135.56 21.74 135.56 21.71 135.56"/>
</g>
</svg>